<?xml version="1.0" encoding="UTF-8" standalone="no"?>
<!-- Created with Inkscape (http://www.inkscape.org/) -->
<svg
   xmlns:svg="http://www.w3.org/2000/svg"
   xmlns="http://www.w3.org/2000/svg"
   version="1.0"
   width="200"
   height="200"
   id="svg2">
  <defs
     id="defs4" />
  <g
     id="layer1" />
  <g
     id="g3147">
    <path
       d="M 191.70254,175.91169 C 191.70254,184.38714 184.75223,190.93633 176.25738,190.93633 L 24.122712,190.93633 C 16.013988,190.93633 9.0636773,184.38714 9.0636773,175.91169 L 9.0636773,24.124507 C 9.0636773,16.034343 16.013988,9.0999058 24.122712,9.0999058 L 176.25738,9.0999058 C 184.75223,9.0999058 191.70254,16.034343 191.70254,24.124507 L 191.70254,175.91169 z "
       style="fill:none;stroke:#ffffff;stroke-width:18.1273098"
       id="path3596" />
    <path
       d="M 191.50948,175.91169 C 191.50948,184.0019 184.94529,190.93633 176.45044,190.93633 L 24.315773,190.93633 C 16.207092,190.93633 9.2567391,184.0019 9.2567391,175.91169 L 9.2567391,24.124465 C 9.2567391,15.64906 16.207092,9.0998638 24.315773,9.0998638 L 176.45044,9.0998638 C 184.94529,9.0998638 191.50948,15.64906 191.50948,24.124465 L 191.50948,175.91169 z "
       style="fill:#818286;fill-opacity:1;stroke:none;stroke-width:4.31400013;stroke-miterlimit:4;stroke-dasharray:none"
       id="61716648" />
    <path
       d="M 191.50948,175.91169 C 191.50948,184.0019 184.94529,190.93633 176.45044,190.93633 L 24.315773,190.93633 C 16.207092,190.93633 9.2567391,184.0019 9.2567391,175.91169 L 9.2567391,24.124465 C 9.2567391,15.64906 16.207092,9.0998638 24.315773,9.0998638 L 176.45044,9.0998638 C 184.94529,9.0998638 191.50948,15.64906 191.50948,24.124465 L 191.50948,175.91169 z "
       style="fill:none;stroke:#000000;stroke-width:1.15706229"
       id="61716560" />
    <g
       transform="translate(-0.946045,1.02316)"
       id="g3143">
      <path
         d="M 65.62603,50.869921 L 65.62603,52.994921 L 65.62603,144.99492 L 65.62603,147.11992 L 67.75103,147.11992 L 134.93853,147.11992 L 137.03228,147.11992 L 137.03228,144.99492 L 137.03228,52.994921 L 137.03228,50.869921 L 134.93853,50.869921 L 67.75103,50.869921 L 65.62603,50.869921 z M 69.84478,55.088671 L 132.81353,55.088671 L 132.81353,142.90117 L 69.84478,142.90117 L 69.84478,55.088671 z "
         style="opacity:1;fill:#ffffff;fill-opacity:1;stroke:none;stroke-width:4.22956133;stroke-miterlimit:4;stroke-dasharray:none;stroke-opacity:1"
         id="rect3117" />
      <path
         d="M 80.15298,130.73182 L 80.15298,67.258021 L 122.50533,67.258021 L 122.50533,77.982901 L 92.7383,77.982901 L 92.7383,93.085291 L 118.3467,93.085291 L 118.3467,104.35736 L 92.7383,104.35736 L 92.7383,119.35031 L 122.50533,119.35031 L 122.50533,130.73182 L 80.15298,130.73182 z "
         style="fill:#ffffff;fill-opacity:1;fill-rule:evenodd;stroke:none;stroke-width:0.1;stroke-linecap:butt;stroke-linejoin:miter;stroke-miterlimit:4;stroke-dasharray:none;stroke-opacity:1"
         id="path3141" />
    </g>
  </g>
</svg>
