<?xml version="1.0" encoding="UTF-8" standalone="no"?>
<!-- Created with Inkscape (http://www.inkscape.org/) -->

<svg
   xmlns:svg="http://www.w3.org/2000/svg"
   xmlns="http://www.w3.org/2000/svg"
   version="1.1"
   width="200"
   height="200"
   id="svg3699">
  <defs
     id="defs3701" />
  <g
     transform="translate(100,-446.64789)"
     id="layer1">
    <rect
       width="200"
       height="200"
       x="-100"
       y="446.64789"
       id="rect4333"
       style="fill:#ed1c24;fill-opacity:1;stroke:none" />
    <path
       d="m -56.84375,505.14789 -0.4375,0.71875 -24,40 -0.46875,0.78125 0.46875,0.78125 24,40 0.4375,0.71875 0.84375,0 56,0 0.84375,0 0.4375,-0.71875 24,-40 0.46875,-0.78125 -0.46875,-0.78125 -24,-40 -0.4375,-0.71875 -0.84375,0 -56,0 -0.84375,0 z m 1.6875,3 54.3125,0 23.09375,38.5 -23.09375,38.5 -54.3125,0 -23.09375,-38.5 23.09375,-38.5 z"
       id="path3723"
       style="font-size:medium;font-style:normal;font-variant:normal;font-weight:normal;font-stretch:normal;text-indent:0;text-align:start;text-decoration:none;line-height:normal;letter-spacing:normal;word-spacing:normal;text-transform:none;direction:ltr;block-progression:tb;writing-mode:lr-tb;text-anchor:start;color:#000000;fill:#ffffff;fill-opacity:1;stroke:none;stroke-width:3;marker:none;visibility:visible;display:inline;overflow:visible;enable-background:accumulate;font-family:Andale Mono;-inkscape-font-specification:Andale Mono" />
    <path
       d="m 172.125,93.9375 0,6.96875 -6.96875,0 0,3 6.96875,0 0,6.9375 3,0 0,-6.9375 6.96875,0 0,-3 -6.96875,0 0,-6.96875 -3,0 z"
       transform="translate(-100,446.64789)"
       id="path4239"
       style="font-size:medium;font-style:normal;font-variant:normal;font-weight:normal;font-stretch:normal;text-indent:0;text-align:start;text-decoration:none;line-height:normal;letter-spacing:normal;word-spacing:normal;text-transform:none;direction:ltr;block-progression:tb;writing-mode:lr-tb;text-anchor:start;color:#000000;fill:#ffffff;fill-opacity:1;stroke:none;stroke-width:3;marker:none;visibility:visible;display:inline;overflow:visible;enable-background:accumulate;font-family:Andale Mono;-inkscape-font-specification:Andale Mono" />
    <path
       d="m -55.344,527.17889 -7.5935,0 0,39.50406 8,0 0,-20.63538 6.4685,13.17545 6.531,0 6.46925,-13.17545 0,20.60382 8,0 0,-39.4725 -7.5625,0 -10.15625,20.44631 -10.1565,-20.44631 z"
       id="path4252"
       style="font-size:medium;font-style:normal;font-variant:normal;font-weight:normal;font-stretch:normal;text-indent:0;text-align:start;text-decoration:none;line-height:normal;letter-spacing:normal;word-spacing:normal;text-transform:none;direction:ltr;block-progression:tb;writing-mode:lr-tb;text-anchor:start;color:#000000;fill:#ffffff;fill-opacity:1;stroke:none;stroke-width:8;marker:none;visibility:visible;display:inline;overflow:visible;enable-background:accumulate;font-family:Andale Mono;-inkscape-font-specification:Andale Mono" />
    <path
       d="m -11.40625,527.2738 -13.625,39.40915 8.5,0 1.96875,-5.71102 7.0625,0 7.0625,0 1.96875,5.71102 8.5,0 -13.625,-39.40915 -3.90625,0 -3.90625,0 z m 3.90625,13.22052 4.28125,12.40016 -4.28125,0 -4.28125,0 L -7.5,540.49432 z"
       id="path4265"
       style="font-size:medium;font-style:normal;font-variant:normal;font-weight:normal;font-stretch:normal;text-indent:0;text-align:start;text-decoration:none;line-height:normal;letter-spacing:normal;word-spacing:normal;text-transform:none;direction:ltr;block-progression:tb;writing-mode:lr-tb;text-anchor:start;color:#000000;fill:#ffffff;fill-opacity:1;stroke:none;stroke-width:8;marker:none;visibility:visible;display:inline;overflow:visible;enable-background:accumulate;font-family:Andale Mono;-inkscape-font-specification:Andale Mono" />
    <path
       d="m 36.53125,530.58539 -5.96025,4.78788 0,3.25054 5.96025,-4.89203 0,26.94736 3,0 0,-30.09375 -3,0 z"
       id="path4299"
       style="font-size:medium;font-style:normal;font-variant:normal;font-weight:normal;font-stretch:normal;text-indent:0;text-align:start;text-decoration:none;line-height:normal;letter-spacing:normal;word-spacing:normal;text-transform:none;direction:ltr;block-progression:tb;writing-mode:lr-tb;text-anchor:start;color:#000000;fill:#ffffff;fill-opacity:1;stroke:none;stroke-width:3;marker:none;visibility:visible;display:inline;overflow:visible;enable-background:accumulate;font-family:Andale Mono;-inkscape-font-specification:Andale Mono" />
    <path
       d="m 44.9375,530.62235 0,1.47824 0,14.34435 2.5625,0 c 1.06953,-2.1144 2.9913,-3.44923 5.03125,-3.44923 3.1146,0 5.9375,3.12867 5.9375,7.3604 0,4.23172 -2.8229,7.39119 -5.9375,7.39119 -2.61159,0 -4.9852,-2.23844 -5.6875,-5.45101 l -2.71175,0 0,1.59249 c 1.2271,3.87991 4.42296,6.7534 8.39925,6.7534 5.1143,0 8.96875,-4.75888 8.96875,-10.28607 0,-5.52719 -3.85445,-10.28608 -8.96875,-10.28608 -1.71142,0 -3.2636,0.55895 -4.59375,1.47824 l 0,-7.96944 11.96875,0 0,-2.95648 -13.46875,0 -1.5,0 z"
       id="path4301"
       style="font-size:medium;font-style:normal;font-variant:normal;font-weight:normal;font-stretch:normal;text-indent:0;text-align:start;text-decoration:none;line-height:normal;letter-spacing:normal;word-spacing:normal;text-transform:none;direction:ltr;block-progression:tb;writing-mode:lr-tb;text-anchor:start;color:#000000;fill:#ffffff;fill-opacity:1;stroke:none;stroke-width:3;marker:none;visibility:visible;display:inline;overflow:visible;enable-background:accumulate;font-family:Andale Mono;-inkscape-font-specification:Andale Mono" />
  </g>
</svg>
