<?xml version="1.0" encoding="UTF-8" standalone="no"?>
<!-- Created with Inkscape (http://www.inkscape.org/) -->
<svg xmlns:svg="http://www.w3.org/2000/svg" xmlns="http://www.w3.org/2000/svg" version="1.0" width="200" height="200" id="svg2">
  <defs id="defs4"/>
  <g transform="matrix(4.19056, 0, 0, 4.19056, -873.402, -1803.31)" id="g3724">
    <path d="M 253.99068,472.31696 C 253.99068,474.33616 252.33862,475.89644 250.31943,475.89644 L 214.15765,475.89644 C 212.23024,475.89644 210.57818,474.33616 210.57818,472.31696 L 210.57818,436.15518 C 210.57818,434.22778 212.23024,432.57572 214.15765,432.57572 L 250.31943,432.57572 C 252.33862,432.57572 253.99068,434.22778 253.99068,436.15518 L 253.99068,472.31696 z " style="fill: none; stroke: rgb(255, 255, 255); stroke-width: 4.31371;" id="path3610"/>
    <path d="M 254.03656,472.31696 C 254.03656,474.33615 252.3845,475.89643 250.4571,475.89643 L 214.29532,475.89643 C 212.27613,475.89643 210.71585,474.33615 210.71585,472.31696 L 210.71585,436.15518 C 210.71585,434.22778 212.27613,432.57572 214.29532,432.57572 L 250.4571,432.57572 C 252.3845,432.57572 254.03656,434.22778 254.03656,436.15518 L 254.03656,472.31696 z " style="fill: rgb(0, 0, 0); stroke: none; stroke-width: 4.31371;" id="62499816"/>
    <path d="M 254.03656,472.31696 C 254.03656,474.33615 252.3845,475.89643 250.4571,475.89643 L 214.29532,475.89643 C 212.27613,475.89643 210.71585,474.33615 210.71585,472.31696 L 210.71585,436.15518 C 210.71585,434.22778 212.27613,432.57572 214.29532,432.57572 L 250.4571,432.57572 C 252.3845,432.57572 254.03656,434.22778 254.03656,436.15518 L 254.03656,472.31696 z " style="fill: none; stroke: rgb(0, 0, 0); stroke-width: 0.275344;" id="62499728"/>
    <path d="M 210.62407,466.25941 L 210.62407,472.31696 C 210.62407,474.33615 212.27613,475.89643 214.29532,475.89643 L 250.36532,475.89643 C 252.3845,475.89643 254.03656,474.33615 254.03656,472.31696 L 254.03656,466.25941 L 210.62407,466.25941 z " style="fill: rgb(0, 0, 0); stroke: rgb(0, 0, 0); stroke-width: 0.275344;" id="62637224"/>
    <path d="M 215.76382,468.92106 L 214.57066,468.92106 L 214.57066,470.48134 L 215.76382,470.48134 C 216.22272,470.48134 216.58985,470.206 216.58985,469.65531 C 216.58985,469.1964 216.22272,468.92106 215.76382,468.92106 z M 216.58985,473.23477 L 215.58025,471.12381 L 214.57066,471.12381 L 214.57066,473.23477 L 213.83641,473.23477 L 213.83641,468.18681 L 215.76382,468.18681 C 216.77341,468.18681 217.3241,468.82928 217.3241,469.65531 C 217.3241,470.38956 216.86519,470.84846 216.3145,471.03203 L 217.50766,473.23477 L 216.58985,473.23477 z " style="fill: rgb(255, 255, 255);" id="62637136"/>
    <path d="M 218.24191,473.23477 L 218.24191,468.18681 L 221.45425,468.18681 L 221.45425,468.92106 L 219.06794,468.92106 L 219.06794,470.38956 L 221.08712,470.38956 L 221.08712,471.03203 L 219.06794,471.03203 L 219.06794,472.50052 L 221.45425,472.50052 L 221.45425,473.23477 L 218.24191,473.23477 z " style="fill: rgb(255, 255, 255);" id="62637048"/>
    <path d="M 223.657,473.23477 C 222.92275,473.23477 222.37206,473.05121 221.91315,472.59231 L 222.37206,472.1334 C 222.73919,472.50052 223.10631,472.59231 223.657,472.59231 C 224.29947,472.59231 224.66659,472.31696 224.66659,471.76628 C 224.66659,471.58271 224.66659,471.39915 224.48303,471.30737 C 224.39125,471.12381 224.20768,471.12381 223.93234,471.12381 L 223.38165,471.03203 C 222.92275,470.94024 222.6474,470.75668 222.37206,470.57312 C 222.1885,470.38956 222.00494,470.02243 222.00494,469.65531 C 222.00494,468.7375 222.6474,468.18681 223.74878,468.18681 C 224.39125,468.18681 224.85015,468.37037 225.30906,468.7375 L 224.75837,469.1964 C 224.48303,468.92106 224.1159,468.82928 223.657,468.82928 C 223.10631,468.82928 222.73919,469.1964 222.73919,469.65531 C 222.73919,469.83887 222.83097,469.93065 223.01453,470.11421 C 223.10631,470.206 223.28987,470.29778 223.56522,470.29778 L 224.1159,470.38956 C 224.57481,470.48134 224.85015,470.57312 225.03371,470.75668 C 225.30906,471.03203 225.40084,471.39915 225.40084,471.76628 C 225.40084,472.68409 224.66659,473.23477 223.657,473.23477 z " style="fill: rgb(255, 255, 255);" id="62636960"/>
    <path d="M 227.97071,468.92106 L 227.97071,473.23477 L 227.23646,473.23477 L 227.23646,468.92106 L 225.85974,468.92106 L 225.85974,468.18681 L 229.34743,468.18681 L 229.34743,468.92106 L 227.97071,468.92106 z " style="fill: rgb(255, 255, 255);" id="62636872"/>
    <path d="M 231.9173,468.92106 L 230.81593,468.92106 L 230.81593,470.48134 L 231.9173,470.48134 C 232.37621,470.48134 232.74333,470.206 232.74333,469.65531 C 232.74333,469.1964 232.37621,468.92106 231.9173,468.92106 z M 232.83511,473.23477 L 231.73374,471.12381 L 230.81593,471.12381 L 230.81593,473.23477 L 229.9899,473.23477 L 229.9899,468.18681 L 232.00908,468.18681 C 232.92689,468.18681 233.47758,468.82928 233.47758,469.65531 C 233.47758,470.38956 233.11046,470.84846 232.55977,471.03203 L 233.66114,473.23477 L 232.83511,473.23477 z " style="fill: rgb(255, 255, 255);" id="62636784"/>
    <path d="M 234.48717,473.23477 L 235.22142,473.23477 L 235.22142,468.18681 L 234.48717,468.18681 L 234.48717,473.23477 z " style="fill: rgb(255, 255, 255);" id="62636696"/>
    <path d="M 237.97486,473.23477 C 237.42417,473.23477 236.96527,473.05121 236.59814,472.68409 C 236.13924,472.22518 236.13924,471.67449 236.13924,470.75668 C 236.13924,469.74709 236.13924,469.1964 236.59814,468.7375 C 236.96527,468.37037 237.42417,468.18681 237.97486,468.18681 C 238.89267,468.18681 239.53514,468.7375 239.7187,469.74709 L 238.98445,469.74709 C 238.80089,469.1964 238.52555,468.82928 237.97486,468.82928 C 237.69952,468.82928 237.42417,469.01284 237.24061,469.1964 C 236.96527,469.37996 236.87349,469.74709 236.87349,470.75668 C 236.87349,471.67449 236.96527,472.04162 237.24061,472.22518 C 237.42417,472.50052 237.69952,472.59231 237.97486,472.59231 C 238.52555,472.59231 238.89267,472.22518 238.98445,471.67449 L 239.7187,471.67449 C 239.53514,472.68409 238.89267,473.23477 237.97486,473.23477 z " style="fill: rgb(255, 255, 255);" id="62636608"/>
    <path d="M 242.10501,468.92106 L 242.10501,473.23477 L 241.37076,473.23477 L 241.37076,468.92106 L 239.99405,468.92106 L 239.99405,468.18681 L 243.48173,468.18681 L 243.48173,468.92106 L 242.10501,468.92106 z " style="fill: rgb(255, 255, 255);" id="62636520"/>
    <path d="M 244.21598,473.23477 L 244.21598,468.18681 L 247.33654,468.18681 L 247.33654,468.92106 L 244.95023,468.92106 L 244.95023,470.38956 L 246.96941,470.38956 L 246.96941,471.03203 L 244.95023,471.03203 L 244.95023,472.50052 L 247.33654,472.50052 L 247.33654,473.23477 L 244.21598,473.23477 z " style="fill: rgb(255, 255, 255);" id="62636432"/>
    <path d="M 250.73244,469.1964 C 250.54888,469.01284 250.27354,468.92106 249.90641,468.92106 L 248.9886,468.92106 L 248.9886,472.50052 L 249.90641,472.50052 C 250.27354,472.50052 250.54888,472.40874 250.73244,472.22518 C 251.00779,471.94984 251.00779,471.39915 251.00779,470.6649 C 251.00779,470.02243 251.00779,469.56353 250.73244,469.1964 z M 251.28313,472.77587 C 250.916,473.05121 250.4571,473.23477 249.99819,473.23477 L 248.25435,473.23477 L 248.25435,468.18681 L 249.99819,468.18681 C 250.4571,468.18681 250.916,468.37037 251.28313,468.64572 C 251.83382,469.1964 251.74203,469.93065 251.74203,470.6649 C 251.74203,471.39915 251.83382,472.22518 251.28313,472.77587 z " style="fill: rgb(255, 255, 255);" id="62636344"/>
    <path d="M 210.53229,466.25941 L 254.03656,466.25941" style="fill: none; stroke: rgb(255, 255, 255); stroke-width: 0.550687;" id="62636256"/>
    <path d="M 236.13924,453.77717 L 236.13924,446.25111 L 234.48717,447.62783 L 234.48717,446.71002 L 236.13924,445.3333 L 236.96527,445.3333 L 236.96527,453.77717 L 236.13924,453.77717 z " style="fill: rgb(255, 255, 255);" id="62636168"/>
    <path d="M 240.72829,445.97577 C 239.81048,445.97577 239.16801,446.61823 239.16801,447.53605 C 239.16801,448.45386 239.81048,449.00455 240.72829,449.00455 C 241.55432,449.00455 242.19679,448.45386 242.19679,447.53605 C 242.19679,446.61823 241.55432,445.97577 240.72829,445.97577 z M 240.72829,449.83058 C 239.7187,449.83058 239.07623,450.47304 239.07623,451.48264 C 239.07623,452.40045 239.7187,453.1347 240.72829,453.1347 C 241.64611,453.1347 242.28857,452.40045 242.28857,451.48264 C 242.28857,450.47304 241.64611,449.83058 240.72829,449.83058 z M 240.72829,453.86895 C 239.2598,453.86895 238.15842,452.85935 238.15842,451.48264 C 238.15842,450.47304 238.70911,449.83058 239.44336,449.37167 C 238.80089,449.00455 238.34198,448.36208 238.34198,447.53605 C 238.34198,446.15933 239.35158,445.24152 240.72829,445.24152 C 242.01323,445.24152 243.02282,446.15933 243.02282,447.53605 C 243.02282,448.36208 242.56392,449.00455 241.92145,449.37167 C 242.6557,449.83058 243.20639,450.47304 243.20639,451.48264 C 243.20639,452.85935 242.10501,453.86895 240.72829,453.86895 z " style="fill: rgb(255, 255, 255);" id="62636080"/>
    <path d="M 247.33654,451.02373 L 247.33654,453.1347 L 246.51051,453.1347 L 246.51051,451.02373 L 244.39954,451.02373 L 244.39954,450.1977 L 246.51051,450.1977 L 246.51051,448.17851 L 247.33654,448.17851 L 247.33654,450.1977 L 249.35572,450.1977 L 249.35572,451.02373 L 247.33654,451.02373 z " style="fill: rgb(255, 255, 255);" id="62635992"/>
    <path d="M 226.13509,455.24566 L 223.93234,451.20729 L 221.72959,455.24566 L 219.15972,455.24566 L 222.73919,449.27989 L 219.34328,443.68124 L 221.91315,443.68124 L 223.93234,447.44427 L 225.95153,443.68124 L 228.42962,443.68124 L 225.1255,449.27989 L 228.70496,455.24566 L 226.13509,455.24566 z " style="fill: rgb(255, 255, 255);" id="62635904"/>
    <path d="M 231.82552,441.38671 C 231.82552,442.12096 231.82552,456.62238 231.82552,457.35663 C 231.18305,457.35663 216.68163,457.35663 215.94738,457.35663 C 215.94738,456.62238 215.94738,442.12096 215.94738,441.38671 C 216.68163,441.38671 231.18305,441.38671 231.82552,441.38671 z M 232.28443,440.65246 L 215.21313,440.65246 L 215.21313,458.09088 L 232.65155,458.09088 L 232.65155,440.65246 L 232.28443,440.65246 z " style="fill: rgb(255, 255, 255);" id="62635816"/>
  </g>
</svg>