<?xml version="1.0" encoding="UTF-8" standalone="no"?>
<!-- Created with Inkscape (http://www.inkscape.org/) -->

<svg
   xmlns:svg="http://www.w3.org/2000/svg"
   xmlns="http://www.w3.org/2000/svg"
   version="1.1"
   width="183"
   height="183"
   id="svg3178">
  <defs
     id="defs3180" />
  <path
     d="M 91.40403,0 C 142.03933,0 183,41.01053 183,91.5 183,142.18389 142.03933,183 91.40403,183 40.96524,183 0,142.18389 0,91.5 0,41.01053 40.96524,0 91.40403,0"
     id="path2852"
     style="fill:#231f20;fill-opacity:1;fill-rule:nonzero;stroke:none" />
  <path
     d="m 72.820235,35.19829 37.357235,0 11.75856,11.77318 0,89.40932 -11.5689,11.9699 -37.546895,0 -11.75626,-11.9699 0,-21.63409 22.18722,0 0,14.41968 16.30567,0 0,-32.65014 -6.82754,6.45728 -19.72401,0 -11.94134,-11.58332 0,-44.61088 11.75626,-11.58103 z m 26.73663,18.98759 -16.49761,0 0,29.79777 16.49761,0 0,-29.79777 z"
     id="path2854"
     style="fill:#ffffff;fill-opacity:1;fill-rule:nonzero;stroke:none" />
</svg>
