<svg xmlns="http://www.w3.org/2000/svg" viewBox="0 0 87.46 87.2"><defs><style>.cls-1{fill:#fff;}</style></defs><g id="Layer_2" data-name="Layer 2"><g id="Layer_1-2" data-name="Layer 1"><circle class="cls-1" cx="43.27" cy="43.93" r="43.27"/><g id="Layer_2-2" data-name="Layer 2"><g id="Kijkw-2020"><path d="M.26,43.6a43.51,43.51,0,1,1,0,.18Zm22.6,27V52h3.2V47.7H15.16V52h3.4V70.6Zm1.8-29.1V36.2h11.6v5.3h7.9V20.9a2,2,0,0,0-.6-1.5L40.36,16a1.73,1.73,0,0,0-1.5-.6H22a2,2,0,0,0-1.5.6l-3.1,3.3a2.16,2.16,0,0,0-.6,1.5V41.5Zm0-18.9h11.6v6.5H24.66Zm6.9,48h4.7a2,2,0,0,0,1.5-.6l1.8-1.6a2,2,0,0,0,.6-1.5V51.4a1.84,1.84,0,0,0-.6-1.5l-1.8-1.6a2,2,0,0,0-1.5-.6h-4.7a2,2,0,0,0-1.5.6l-1.6,1.6a2,2,0,0,0-.6,1.5V66.9a2,2,0,0,0,.6,1.5l1.6,1.6A1.84,1.84,0,0,0,31.56,70.6Zm.6-18.6h3.7V66.3h-3.7Zm14.9,18.6h4.8a1.85,1.85,0,0,0,1.5-.6L55,68.4a2,2,0,0,0,.6-1.5V47.7h-4.2V66.3h-3.6V47.7h-4.4V66.9a2,2,0,0,0,.6,1.5l1.6,1.6A1.84,1.84,0,0,0,47.06,70.6Zm23.8-29.1V34.9H58.66V15.4h-7.9V41.5Zm-8.6,29.1h4.8a1.85,1.85,0,0,0,1.5-.6l1.7-1.6a1.84,1.84,0,0,0,.6-1.5V60.8a1.84,1.84,0,0,0-.6-1.5l-1.8-1.7A1.85,1.85,0,0,0,67,57H63V52h3.6v2.1h4.3V51.4a1.84,1.84,0,0,0-.6-1.5l-1.7-1.6a1.85,1.85,0,0,0-1.5-.6h-4.8a2,2,0,0,0-1.5.6l-1.6,1.6a2,2,0,0,0-.6,1.5v6a2,2,0,0,0,.6,1.5l1.6,1.7a2,2,0,0,0,1.5.6h4.3v5.1H63V64h-4.4v2.9a2,2,0,0,0,.6,1.5l1.6,1.6A1.84,1.84,0,0,0,62.26,70.6Z"/></g></g></g></g></svg>