<?xml version="1.0" encoding="UTF-8" standalone="no"?>
<!DOCTYPE svg PUBLIC "-//W3C//DTD SVG 1.1//EN" "http://www.w3.org/Graphics/SVG/1.1/DTD/svg11.dtd">
<svg xmlns="http://www.w3.org/2000/svg" version="1.1" viewBox="0.00 0.00 488.00 488.00">
<g stroke-width="2.00" fill="none" stroke-linecap="butt">
<path stroke="#80c1e5" vector-effect="non-scaling-stroke" d="
  M 349.06 126.33
  C 335.24 131.92 328.27 143.00 324.79 156.86
  C 321.37 170.47 320.56 184.52 320.53 198.49
  Q 320.44 245.93 320.56 292.45
  C 320.60 307.23 321.82 322.46 326.38 336.64
  C 332.44 355.46 346.51 363.95 365.37 366.45
  Q 386.57 369.27 404.96 364.66
  Q 427.23 359.07 434.59 338.35
  C 439.45 324.65 440.93 309.63 440.97 294.87
  Q 441.08 245.22 440.93 192.58
  C 440.89 178.20 439.45 163.55 434.79 150.27
  C 428.53 132.43 414.47 124.49 396.56 122.07
  C 380.95 119.96 363.61 120.44 349.06 126.33"
/>
<path stroke="#80c1e5" vector-effect="non-scaling-stroke" d="
  M 234.13 186.13
  A 0.51 0.51 0.0 0 1 235.00 186.49
  L 235.00 365.17
  Q 235.00 365.84 235.67 365.84
  L 280.72 365.86
  A 1.28 1.27 -0.0 0 0 282.00 364.59
  L 282.00 124.00
  A 1.00 1.00 0.0 0 0 281.00 123.00
  L 241.96 122.99
  A 1.78 1.77 -78.4 0 0 240.33 124.07
  C 233.83 139.45 221.67 151.44 207.21 159.64
  Q 205.99 160.33 205.99 161.73
  L 206.00 203.19
  A 0.48 0.48 0.0 0 0 206.64 203.64
  Q 222.53 197.84 234.13 186.13"
/>
<path stroke="#80c1e5" vector-effect="non-scaling-stroke" d="
  M 136.83 322.49
  A 0.39 0.39 0.0 0 1 137.22 322.85
  L 140.35 365.64
  A 0.39 0.39 0.0 0 0 140.74 366.00
  L 205.56 366.00
  A 0.39 0.39 0.0 0 0 205.94 365.55
  L 169.36 124.33
  A 0.39 0.39 0.0 0 0 168.97 124.00
  L 76.93 124.00
  A 0.39 0.39 0.0 0 0 76.54 124.34
  L 44.06 365.56
  A 0.39 0.39 0.0 0 0 44.45 366.00
  L 110.03 366.00
  A 0.39 0.39 0.0 0 0 110.42 365.64
  L 114.16 322.86
  A 0.39 0.39 0.0 0 1 114.55 322.50
  L 136.83 322.49"
/>
<path stroke="#80c1e5" vector-effect="non-scaling-stroke" d="
  M 377.12 337.69
  C 388.43 340.90 391.40 330.76 392.12 322.26
  Q 392.72 315.10 392.72 308.71
  Q 392.79 244.99 392.72 179.39
  Q 392.71 169.77 391.47 160.92
  C 390.62 154.94 387.53 150.35 380.75 150.34
  C 374.70 150.33 371.52 154.40 370.33 159.97
  Q 368.79 167.22 368.78 173.75
  Q 368.69 246.69 368.87 315.75
  Q 368.90 324.14 370.56 330.63
  Q 372.00 336.23 377.12 337.69"
/>
<path stroke="#80c1e5" vector-effect="non-scaling-stroke" d="
  M 134.80 279.63
  A 0.48 0.47 86.7 0 0 135.27 279.10
  Q 129.65 229.64 125.78 179.64
  Q 125.76 179.46 125.59 179.48
  Q 125.43 179.51 125.41 179.66
  C 120.80 211.70 116.23 245.82 113.46 279.03
  Q 113.41 279.62 114.01 279.62
  L 134.80 279.63"
/>
</g>
<path fill="#0083ca" d="
  M 40.36 0.00
  L 448.07 0.00
  Q 449.93 0.28 451.85 0.31
  C 465.13 0.49 477.19 9.63 483.65 20.84
  Q 487.77 27.98 488.00 36.36
  L 488.00 451.05
  Q 487.97 458.83 485.06 464.78
  Q 479.40 476.39 467.77 483.29
  Q 461.34 487.10 457.77 487.31
  Q 453.18 487.57 448.63 488.00
  L 39.97 488.00
  Q 38.36 487.68 36.65 487.70
  C 23.20 487.85 10.91 478.02 4.53 466.44
  Q 0.88 459.81 0.56 454.50
  Q 0.25 449.48 0.00 448.12
  L 0.00 40.03
  Q 0.62 20.95 14.76 9.52
  Q 21.91 3.74 27.34 1.84
  Q 31.76 0.29 40.36 0.00
  Z
  M 349.06 126.33
  C 335.24 131.92 328.27 143.00 324.79 156.86
  C 321.37 170.47 320.56 184.52 320.53 198.49
  Q 320.44 245.93 320.56 292.45
  C 320.60 307.23 321.82 322.46 326.38 336.64
  C 332.44 355.46 346.51 363.95 365.37 366.45
  Q 386.57 369.27 404.96 364.66
  Q 427.23 359.07 434.59 338.35
  C 439.45 324.65 440.93 309.63 440.97 294.87
  Q 441.08 245.22 440.93 192.58
  C 440.89 178.20 439.45 163.55 434.79 150.27
  C 428.53 132.43 414.47 124.49 396.56 122.07
  C 380.95 119.96 363.61 120.44 349.06 126.33
  Z
  M 234.13 186.13
  A 0.51 0.51 0.0 0 1 235.00 186.49
  L 235.00 365.17
  Q 235.00 365.84 235.67 365.84
  L 280.72 365.86
  A 1.28 1.27 -0.0 0 0 282.00 364.59
  L 282.00 124.00
  A 1.00 1.00 0.0 0 0 281.00 123.00
  L 241.96 122.99
  A 1.78 1.77 -78.4 0 0 240.33 124.07
  C 233.83 139.45 221.67 151.44 207.21 159.64
  Q 205.99 160.33 205.99 161.73
  L 206.00 203.19
  A 0.48 0.48 0.0 0 0 206.64 203.64
  Q 222.53 197.84 234.13 186.13
  Z
  M 136.83 322.49
  A 0.39 0.39 0.0 0 1 137.22 322.85
  L 140.35 365.64
  A 0.39 0.39 0.0 0 0 140.74 366.00
  L 205.56 366.00
  A 0.39 0.39 0.0 0 0 205.94 365.55
  L 169.36 124.33
  A 0.39 0.39 0.0 0 0 168.97 124.00
  L 76.93 124.00
  A 0.39 0.39 0.0 0 0 76.54 124.34
  L 44.06 365.56
  A 0.39 0.39 0.0 0 0 44.45 366.00
  L 110.03 366.00
  A 0.39 0.39 0.0 0 0 110.42 365.64
  L 114.16 322.86
  A 0.39 0.39 0.0 0 1 114.55 322.50
  L 136.83 322.49
  Z"
/>
<path fill="#ffffff" d="
  M 324.79 156.86
  C 328.27 143.00 335.24 131.92 349.06 126.33
  C 363.61 120.44 380.95 119.96 396.56 122.07
  C 414.47 124.49 428.53 132.43 434.79 150.27
  C 439.45 163.55 440.89 178.20 440.93 192.58
  Q 441.08 245.22 440.97 294.87
  C 440.93 309.63 439.45 324.65 434.59 338.35
  Q 427.23 359.07 404.96 364.66
  Q 386.57 369.27 365.37 366.45
  C 346.51 363.95 332.44 355.46 326.38 336.64
  C 321.82 322.46 320.60 307.23 320.56 292.45
  Q 320.44 245.93 320.53 198.49
  C 320.56 184.52 321.37 170.47 324.79 156.86
  Z
  M 377.12 337.69
  C 388.43 340.90 391.40 330.76 392.12 322.26
  Q 392.72 315.10 392.72 308.71
  Q 392.79 244.99 392.72 179.39
  Q 392.71 169.77 391.47 160.92
  C 390.62 154.94 387.53 150.35 380.75 150.34
  C 374.70 150.33 371.52 154.40 370.33 159.97
  Q 368.79 167.22 368.78 173.75
  Q 368.69 246.69 368.87 315.75
  Q 368.90 324.14 370.56 330.63
  Q 372.00 336.23 377.12 337.69
  Z"
/>
<path fill="#ffffff" d="
  M 234.13 186.13
  Q 222.53 197.84 206.64 203.64
  A 0.48 0.48 0.0 0 1 206.00 203.19
  L 205.99 161.73
  Q 205.99 160.33 207.21 159.64
  C 221.67 151.44 233.83 139.45 240.33 124.07
  A 1.78 1.77 -78.4 0 1 241.96 122.99
  L 281.00 123.00
  A 1.00 1.00 0.0 0 1 282.00 124.00
  L 282.00 364.59
  A 1.28 1.27 0.0 0 1 280.72 365.86
  L 235.67 365.84
  Q 235.00 365.84 235.00 365.17
  L 235.00 186.49
  A 0.51 0.51 0.0 0 0 234.13 186.13
  Z"
/>
<path fill="#ffffff" d="
  M 136.83 322.49
  L 114.55 322.50
  A 0.39 0.39 0.0 0 0 114.16 322.86
  L 110.42 365.64
  A 0.39 0.39 0.0 0 1 110.03 366.00
  L 44.45 366.00
  A 0.39 0.39 0.0 0 1 44.06 365.56
  L 76.54 124.34
  A 0.39 0.39 0.0 0 1 76.93 124.00
  L 168.97 124.00
  A 0.39 0.39 0.0 0 1 169.36 124.33
  L 205.94 365.55
  A 0.39 0.39 0.0 0 1 205.56 366.00
  L 140.74 366.00
  A 0.39 0.39 0.0 0 1 140.35 365.64
  L 137.22 322.85
  A 0.39 0.39 0.0 0 0 136.83 322.49
  Z
  M 134.80 279.63
  A 0.48 0.47 86.7 0 0 135.27 279.10
  Q 129.65 229.64 125.78 179.64
  Q 125.76 179.46 125.59 179.48
  Q 125.43 179.51 125.41 179.66
  C 120.80 211.70 116.23 245.82 113.46 279.03
  Q 113.41 279.62 114.01 279.62
  L 134.80 279.63
  Z"
/>
<path fill="#0083ca" d="
  M 392.12 322.26
  C 391.40 330.76 388.43 340.90 377.12 337.69
  Q 372.00 336.23 370.56 330.63
  Q 368.90 324.14 368.87 315.75
  Q 368.69 246.69 368.78 173.75
  Q 368.79 167.22 370.33 159.97
  C 371.52 154.40 374.70 150.33 380.75 150.34
  C 387.53 150.35 390.62 154.94 391.47 160.92
  Q 392.71 169.77 392.72 179.39
  Q 392.79 244.99 392.72 308.71
  Q 392.72 315.10 392.12 322.26
  Z"
/>
<path fill="#0083ca" d="
  M 134.80 279.63
  L 114.01 279.62
  Q 113.41 279.62 113.46 279.03
  C 116.23 245.82 120.80 211.70 125.41 179.66
  Q 125.43 179.51 125.59 179.48
  Q 125.76 179.46 125.78 179.64
  Q 129.65 229.64 135.27 279.10
  A 0.48 0.47 86.7 0 1 134.80 279.63
  Z"
/>
</svg>
