<?xml version="1.0" encoding="UTF-8" standalone="no"?>
<!DOCTYPE svg PUBLIC "-//W3C//DTD SVG 1.1//EN" "http://www.w3.org/Graphics/SVG/1.1/DTD/svg11.dtd">
<svg xmlns="http://www.w3.org/2000/svg" version="1.1" viewBox="0.00 0.00 489.00 488.00">
<g stroke-width="2.00" fill="none" stroke-linecap="butt">
<path stroke="#96cb9e" vector-effect="non-scaling-stroke" d="
  M 145.57 348.00
  A 0.44 0.44 0.0 0 0 146.00 347.60
  L 149.18 311.02
  A 0.44 0.44 0.0 0 1 149.61 310.62
  L 168.54 310.61
  A 0.44 0.44 0.0 0 1 168.98 311.02
  L 171.66 347.59
  A 0.44 0.44 0.0 0 0 172.10 348.00
  L 227.49 348.00
  A 0.44 0.44 0.0 0 0 227.92 347.49
  L 196.57 140.37
  A 0.44 0.44 0.0 0 0 196.13 140.00
  L 117.33 140.00
  A 0.44 0.44 0.0 0 0 116.90 140.38
  L 89.07 347.50
  A 0.44 0.44 0.0 0 0 89.50 348.00
  L 145.57 348.00"
/>
<path stroke="#96cb9e" vector-effect="non-scaling-stroke" d="
  M 399.61 299.51
  A 0.51 0.51 0.0 0 0 399.10 299.00
  L 302.41 299.00
  A 0.51 0.51 0.0 0 1 301.90 298.49
  L 301.90 140.51
  A 0.51 0.51 0.0 0 0 301.39 140.00
  L 253.51 140.00
  A 0.51 0.51 0.0 0 0 253.00 140.51
  L 252.99 347.35
  A 0.51 0.51 0.0 0 0 253.50 347.86
  L 399.10 347.87
  A 0.51 0.51 0.0 0 0 399.61 347.36
  L 399.61 299.51"
/>
<path stroke="#96cb9e" vector-effect="non-scaling-stroke" d="
  M 159.23 188.84
  Q 159.05 186.59 158.73 188.82
  Q 152.69 230.07 148.49 273.23
  A 0.47 0.47 0.0 0 0 148.96 273.75
  L 166.76 273.75
  Q 167.32 273.75 167.26 273.19
  Q 162.69 232.34 159.23 188.84"
/>
</g>
<path fill="#2d973d" d="
  M 40.33 0.00
  L 449.07 0.00
  Q 461.12 -0.31 471.09 6.41
  Q 482.93 14.38 487.54 27.31
  Q 488.23 29.24 488.51 31.76
  Q 488.76 34.05 489.00 36.33
  L 489.00 451.07
  Q 488.63 453.60 488.62 456.26
  Q 488.62 460.34 484.95 466.81
  Q 478.94 477.44 468.56 483.41
  Q 462.13 487.10 458.77 487.31
  Q 454.18 487.60 449.64 488.00
  L 39.97 488.00
  Q 36.92 487.59 33.75 487.72
  Q 30.08 487.86 23.43 484.63
  Q 12.86 479.48 6.34 469.40
  Q 1.43 461.82 0.97 457.25
  Q 0.51 452.69 0.00 448.12
  L 0.00 40.00
  Q 0.50 23.64 10.72 12.99
  Q 17.59 5.84 28.08 1.59
  Q 31.01 0.41 40.33 0.00
  Z
  M 145.57 348.00
  A 0.44 0.44 0.0 0 0 146.00 347.60
  L 149.18 311.02
  A 0.44 0.44 0.0 0 1 149.61 310.62
  L 168.54 310.61
  A 0.44 0.44 0.0 0 1 168.98 311.02
  L 171.66 347.59
  A 0.44 0.44 0.0 0 0 172.10 348.00
  L 227.49 348.00
  A 0.44 0.44 0.0 0 0 227.92 347.49
  L 196.57 140.37
  A 0.44 0.44 0.0 0 0 196.13 140.00
  L 117.33 140.00
  A 0.44 0.44 0.0 0 0 116.90 140.38
  L 89.07 347.50
  A 0.44 0.44 0.0 0 0 89.50 348.00
  L 145.57 348.00
  Z
  M 399.61 299.51
  A 0.51 0.51 0.0 0 0 399.10 299.00
  L 302.41 299.00
  A 0.51 0.51 0.0 0 1 301.90 298.49
  L 301.90 140.51
  A 0.51 0.51 0.0 0 0 301.39 140.00
  L 253.51 140.00
  A 0.51 0.51 0.0 0 0 253.00 140.51
  L 252.99 347.35
  A 0.51 0.51 0.0 0 0 253.50 347.86
  L 399.10 347.87
  A 0.51 0.51 0.0 0 0 399.61 347.36
  L 399.61 299.51
  Z"
/>
<path fill="#ffffff" d="
  M 145.57 348.00
  L 89.50 348.00
  A 0.44 0.44 0.0 0 1 89.07 347.50
  L 116.90 140.38
  A 0.44 0.44 0.0 0 1 117.33 140.00
  L 196.13 140.00
  A 0.44 0.44 0.0 0 1 196.57 140.37
  L 227.92 347.49
  A 0.44 0.44 0.0 0 1 227.49 348.00
  L 172.10 348.00
  A 0.44 0.44 0.0 0 1 171.66 347.59
  L 168.98 311.02
  A 0.44 0.44 0.0 0 0 168.54 310.61
  L 149.61 310.62
  A 0.44 0.44 0.0 0 0 149.18 311.02
  L 146.00 347.60
  A 0.44 0.44 0.0 0 1 145.57 348.00
  Z
  M 159.23 188.84
  Q 159.05 186.59 158.73 188.82
  Q 152.69 230.07 148.49 273.23
  A 0.47 0.47 0.0 0 0 148.96 273.75
  L 166.76 273.75
  Q 167.32 273.75 167.26 273.19
  Q 162.69 232.34 159.23 188.84
  Z"
/>
<path fill="#ffffff" d="
  M 399.61 299.51
  L 399.61 347.36
  A 0.51 0.51 0.0 0 1 399.10 347.87
  L 253.50 347.86
  A 0.51 0.51 0.0 0 1 252.99 347.35
  L 253.00 140.51
  A 0.51 0.51 0.0 0 1 253.51 140.00
  L 301.39 140.00
  A 0.51 0.51 0.0 0 1 301.90 140.51
  L 301.90 298.49
  A 0.51 0.51 0.0 0 0 302.41 299.00
  L 399.10 299.00
  A 0.51 0.51 0.0 0 1 399.61 299.51
  Z"
/>
<path fill="#2d973d" d="
  M 159.23 188.84
  Q 162.69 232.34 167.26 273.19
  Q 167.32 273.75 166.76 273.75
  L 148.96 273.75
  A 0.47 0.47 0.0 0 1 148.49 273.23
  Q 152.69 230.07 158.73 188.82
  Q 159.05 186.59 159.23 188.84
  Z"
/>
</svg>
