<?xml version="1.0" encoding="UTF-8" standalone="no"?>
<!DOCTYPE svg PUBLIC "-//W3C//DTD SVG 1.1//EN" "http://www.w3.org/Graphics/SVG/1.1/DTD/svg11.dtd">
<svg xmlns="http://www.w3.org/2000/svg" version="1.1" viewBox="0.00 0.00 489.00 488.00">
<g stroke-width="2.00" fill="none" stroke-linecap="butt">
<path stroke="#ee838e" vector-effect="non-scaling-stroke" d="
  M 373.59 226.26
  Q 372.73 227.34 372.73 225.96
  Q 372.76 199.40 372.74 172.21
  C 372.73 166.25 373.27 150.81 380.44 148.56
  C 389.03 145.86 393.62 150.93 394.67 158.77
  Q 396.04 168.87 395.74 179.32
  A 1.26 1.26 0.0 0 0 397.00 180.62
  L 444.26 180.62
  A 0.93 0.93 0.0 0 0 445.19 179.72
  Q 445.70 161.08 441.19 146.33
  C 435.96 129.20 422.81 122.27 406.35 119.66
  C 391.17 117.26 374.94 117.10 360.05 120.87
  C 342.34 125.37 332.82 136.32 328.24 153.13
  C 324.34 167.42 323.48 181.98 323.48 197.56
  Q 323.48 255.52 323.58 297.76
  Q 323.61 308.75 325.45 322.16
  Q 327.02 333.58 331.16 343.78
  C 339.99 365.55 362.77 370.70 384.04 370.67
  C 402.89 370.64 424.25 367.35 434.89 349.69
  Q 438.54 343.63 440.62 336.20
  Q 444.29 323.09 445.16 307.54
  Q 445.87 294.91 445.50 261.26
  C 445.38 250.25 443.77 238.19 438.79 228.27
  C 432.12 214.97 418.90 210.26 404.48 210.69
  Q 385.54 211.25 373.59 226.26"
/>
<path stroke="#ee838e" vector-effect="non-scaling-stroke" d="
  M 104.04 366.00
  A 0.38 0.38 0.0 0 0 104.42 365.65
  L 108.15 322.47
  A 0.38 0.38 0.0 0 1 108.53 322.12
  L 130.83 322.13
  A 0.38 0.38 0.0 0 1 131.21 322.48
  L 134.35 365.65
  A 0.38 0.38 0.0 0 0 134.73 366.00
  L 199.56 366.00
  A 0.38 0.38 0.0 0 0 199.93 365.56
  L 163.35 122.31
  A 0.38 0.38 0.0 0 0 162.97 121.99
  L 70.92 121.99
  A 0.38 0.38 0.0 0 0 70.55 122.32
  L 38.06 365.57
  A 0.38 0.38 0.0 0 0 38.43 366.00
  L 104.04 366.00"
/>
<path stroke="#ee838e" vector-effect="non-scaling-stroke" d="
  M 236.12 186.32
  L 236.12 366.31
  Q 236.12 367.25 237.06 367.25
  L 283.04 367.25
  Q 283.37 367.25 283.37 366.92
  L 283.37 124.00
  Q 283.37 122.88 282.25 122.88
  L 243.49 122.86
  A 2.27 2.26 -78.3 0 0 241.41 124.24
  C 235.12 138.99 222.74 151.42 208.79 159.30
  C 207.72 159.91 206.96 161.08 206.97 162.31
  Q 207.14 183.25 207.07 203.17
  A 0.68 0.68 0.0 0 0 207.99 203.81
  Q 224.19 197.84 235.53 186.08
  Q 236.12 185.47 236.12 186.32"
/>
<path stroke="#ee838e" vector-effect="non-scaling-stroke" d="
  M 374.36 332.37
  C 376.20 340.32 385.18 343.10 390.89 337.77
  C 393.05 335.75 393.88 332.63 394.40 329.79
  Q 395.67 322.91 395.71 316.14
  Q 395.84 292.30 395.69 269.27
  Q 395.64 260.95 394.03 253.94
  C 393.14 250.02 390.49 246.88 386.37 246.31
  Q 377.21 245.06 374.70 254.14
  Q 372.99 260.31 372.89 266.27
  Q 372.45 294.00 372.79 319.76
  Q 372.87 325.87 374.36 332.37"
/>
<path stroke="#ee838e" vector-effect="non-scaling-stroke" d="
  M 120.17 182.88
  Q 119.97 180.36 119.76 178.54
  Q 119.56 176.93 119.34 178.54
  C 114.69 211.55 110.26 244.85 107.45 278.29
  A 0.54 0.54 0.0 0 0 107.99 278.88
  L 128.97 278.87
  A 0.30 0.29 -3.4 0 0 129.27 278.54
  Q 123.90 230.64 120.17 182.88"
/>
</g>
<path fill="#dc061d" d="
  M 40.34 0.00
  L 449.04 0.00
  Q 451.96 0.40 454.99 0.30
  Q 459.43 0.15 466.55 3.78
  Q 481.91 11.61 487.52 27.28
  Q 488.26 29.34 488.50 31.76
  Q 488.74 34.07 489.00 36.34
  L 489.00 451.07
  Q 488.62 453.46 488.40 455.99
  Q 487.87 462.09 484.89 467.04
  C 478.77 477.19 468.44 486.30 456.75 487.41
  Q 453.19 487.75 449.65 488.00
  L 39.97 488.00
  Q 26.62 488.37 16.03 479.95
  C 8.01 473.58 1.61 464.46 0.65 454.22
  Q 0.37 451.16 0.00 448.12
  L 0.00 40.02
  Q 0.50 23.64 10.72 13.00
  Q 17.53 5.90 27.96 1.64
  Q 31.00 0.40 40.34 0.00
  Z
  M 373.59 226.26
  Q 372.73 227.34 372.73 225.96
  Q 372.76 199.40 372.74 172.21
  C 372.73 166.25 373.27 150.81 380.44 148.56
  C 389.03 145.86 393.62 150.93 394.67 158.77
  Q 396.04 168.87 395.74 179.32
  A 1.26 1.26 0.0 0 0 397.00 180.62
  L 444.26 180.62
  A 0.93 0.93 0.0 0 0 445.19 179.72
  Q 445.70 161.08 441.19 146.33
  C 435.96 129.20 422.81 122.27 406.35 119.66
  C 391.17 117.26 374.94 117.10 360.05 120.87
  C 342.34 125.37 332.82 136.32 328.24 153.13
  C 324.34 167.42 323.48 181.98 323.48 197.56
  Q 323.48 255.52 323.58 297.76
  Q 323.61 308.75 325.45 322.16
  Q 327.02 333.58 331.16 343.78
  C 339.99 365.55 362.77 370.70 384.04 370.67
  C 402.89 370.64 424.25 367.35 434.89 349.69
  Q 438.54 343.63 440.62 336.20
  Q 444.29 323.09 445.16 307.54
  Q 445.87 294.91 445.50 261.26
  C 445.38 250.25 443.77 238.19 438.79 228.27
  C 432.12 214.97 418.90 210.26 404.48 210.69
  Q 385.54 211.25 373.59 226.26
  Z
  M 104.04 366.00
  A 0.38 0.38 0.0 0 0 104.42 365.65
  L 108.15 322.47
  A 0.38 0.38 0.0 0 1 108.53 322.12
  L 130.83 322.13
  A 0.38 0.38 0.0 0 1 131.21 322.48
  L 134.35 365.65
  A 0.38 0.38 0.0 0 0 134.73 366.00
  L 199.56 366.00
  A 0.38 0.38 0.0 0 0 199.93 365.56
  L 163.35 122.31
  A 0.38 0.38 0.0 0 0 162.97 121.99
  L 70.92 121.99
  A 0.38 0.38 0.0 0 0 70.55 122.32
  L 38.06 365.57
  A 0.38 0.38 0.0 0 0 38.43 366.00
  L 104.04 366.00
  Z
  M 236.12 186.32
  L 236.12 366.31
  Q 236.12 367.25 237.06 367.25
  L 283.04 367.25
  Q 283.37 367.25 283.37 366.92
  L 283.37 124.00
  Q 283.37 122.88 282.25 122.88
  L 243.49 122.86
  A 2.27 2.26 -78.3 0 0 241.41 124.24
  C 235.12 138.99 222.74 151.42 208.79 159.30
  C 207.72 159.91 206.96 161.08 206.97 162.31
  Q 207.14 183.25 207.07 203.17
  A 0.68 0.68 0.0 0 0 207.99 203.81
  Q 224.19 197.84 235.53 186.08
  Q 236.12 185.47 236.12 186.32
  Z"
/>
<path fill="#ffffff" d="
  M 373.59 226.26
  Q 385.54 211.25 404.48 210.69
  C 418.90 210.26 432.12 214.97 438.79 228.27
  C 443.77 238.19 445.38 250.25 445.50 261.26
  Q 445.87 294.91 445.16 307.54
  Q 444.29 323.09 440.62 336.20
  Q 438.54 343.63 434.89 349.69
  C 424.25 367.35 402.89 370.64 384.04 370.67
  C 362.77 370.70 339.99 365.55 331.16 343.78
  Q 327.02 333.58 325.45 322.16
  Q 323.61 308.75 323.58 297.76
  Q 323.48 255.52 323.48 197.56
  C 323.48 181.98 324.34 167.42 328.24 153.13
  C 332.82 136.32 342.34 125.37 360.05 120.87
  C 374.94 117.10 391.17 117.26 406.35 119.66
  C 422.81 122.27 435.96 129.20 441.19 146.33
  Q 445.70 161.08 445.19 179.72
  A 0.93 0.93 0.0 0 1 444.26 180.62
  L 397.00 180.62
  A 1.26 1.26 0.0 0 1 395.74 179.32
  Q 396.04 168.87 394.67 158.77
  C 393.62 150.93 389.03 145.86 380.44 148.56
  C 373.27 150.81 372.73 166.25 372.74 172.21
  Q 372.76 199.40 372.73 225.96
  Q 372.73 227.34 373.59 226.26
  Z
  M 374.36 332.37
  C 376.20 340.32 385.18 343.10 390.89 337.77
  C 393.05 335.75 393.88 332.63 394.40 329.79
  Q 395.67 322.91 395.71 316.14
  Q 395.84 292.30 395.69 269.27
  Q 395.64 260.95 394.03 253.94
  C 393.14 250.02 390.49 246.88 386.37 246.31
  Q 377.21 245.06 374.70 254.14
  Q 372.99 260.31 372.89 266.27
  Q 372.45 294.00 372.79 319.76
  Q 372.87 325.87 374.36 332.37
  Z"
/>
<path fill="#ffffff" d="
  M 104.04 366.00
  L 38.43 366.00
  A 0.38 0.38 0.0 0 1 38.06 365.57
  L 70.55 122.32
  A 0.38 0.38 0.0 0 1 70.92 121.99
  L 162.97 121.99
  A 0.38 0.38 0.0 0 1 163.35 122.31
  L 199.93 365.56
  A 0.38 0.38 0.0 0 1 199.56 366.00
  L 134.73 366.00
  A 0.38 0.38 0.0 0 1 134.35 365.65
  L 131.21 322.48
  A 0.38 0.38 0.0 0 0 130.83 322.13
  L 108.53 322.12
  A 0.38 0.38 0.0 0 0 108.15 322.47
  L 104.42 365.65
  A 0.38 0.38 0.0 0 1 104.04 366.00
  Z
  M 120.17 182.88
  Q 119.97 180.36 119.76 178.54
  Q 119.56 176.93 119.34 178.54
  C 114.69 211.55 110.26 244.85 107.45 278.29
  A 0.54 0.54 0.0 0 0 107.99 278.88
  L 128.97 278.87
  A 0.30 0.29 -3.4 0 0 129.27 278.54
  Q 123.90 230.64 120.17 182.88
  Z"
/>
<path fill="#ffffff" d="
  M 235.53 186.08
  Q 224.19 197.84 207.99 203.81
  A 0.68 0.68 0.0 0 1 207.07 203.17
  Q 207.14 183.25 206.97 162.31
  C 206.96 161.08 207.72 159.91 208.79 159.30
  C 222.74 151.42 235.12 138.99 241.41 124.24
  A 2.27 2.26 -78.3 0 1 243.49 122.86
  L 282.25 122.88
  Q 283.37 122.88 283.37 124.00
  L 283.37 366.92
  Q 283.37 367.25 283.04 367.25
  L 237.06 367.25
  Q 236.12 367.25 236.12 366.31
  L 236.12 186.32
  Q 236.12 185.47 235.53 186.08
  Z"
/>
<path fill="#dc061d" d="
  M 120.17 182.88
  Q 123.90 230.64 129.27 278.54
  A 0.30 0.29 -3.4 0 1 128.97 278.87
  L 107.99 278.88
  A 0.54 0.54 0.0 0 1 107.45 278.29
  C 110.26 244.85 114.69 211.55 119.34 178.54
  Q 119.56 176.93 119.76 178.54
  Q 119.97 180.36 120.17 182.88
  Z"
/>
<path fill="#dc061d" d="
  M 390.89 337.77
  C 385.18 343.10 376.20 340.32 374.36 332.37
  Q 372.87 325.87 372.79 319.76
  Q 372.45 294.00 372.89 266.27
  Q 372.99 260.31 374.70 254.14
  Q 377.21 245.06 386.37 246.31
  C 390.49 246.88 393.14 250.02 394.03 253.94
  Q 395.64 260.95 395.69 269.27
  Q 395.84 292.30 395.71 316.14
  Q 395.67 322.91 394.40 329.79
  C 393.88 332.63 393.05 335.75 390.89 337.77
  Z"
/>
</svg>
