<?xml version="1.0" encoding="UTF-8" standalone="no"?>
<!DOCTYPE svg PUBLIC "-//W3C//DTD SVG 1.1//EN" "http://www.w3.org/Graphics/SVG/1.1/DTD/svg11.dtd">
<svg xmlns="http://www.w3.org/2000/svg" version="1.1" viewBox="0.00 0.00 489.00 488.00">
<g stroke-width="2.00" fill="none" stroke-linecap="butt">
<path stroke="#f6b58a" vector-effect="non-scaling-stroke" d="
  M 131.80 321.50
  A 0.42 0.42 0.0 0 1 132.22 321.89
  L 135.34 364.61
  A 0.42 0.42 0.0 0 0 135.76 365.00
  L 200.52 365.00
  A 0.42 0.42 0.0 0 0 200.94 364.52
  L 164.36 123.36
  A 0.42 0.42 0.0 0 0 163.95 123.00
  L 71.96 123.00
  A 0.42 0.42 0.0 0 0 71.54 123.36
  L 39.06 364.52
  A 0.42 0.42 0.0 0 0 39.48 365.00
  L 105.01 365.00
  A 0.42 0.42 0.0 0 0 105.42 364.62
  L 109.15 321.88
  A 0.42 0.42 0.0 0 1 109.56 321.50
  L 131.80 321.50"
/>
<path stroke="#f6b58a" vector-effect="non-scaling-stroke" d="
  M 229.22 185.72
  A 0.36 0.36 0.0 0 1 229.84 185.98
  L 229.82 364.64
  A 0.72 0.72 0.0 0 0 230.54 365.36
  L 276.00 365.36
  Q 276.87 365.36 276.87 364.50
  L 276.87 123.68
  Q 276.87 123.00 276.18 123.00
  L 236.48 123.00
  Q 235.86 123.00 235.58 123.55
  C 233.61 127.55 231.72 131.60 229.16 135.27
  Q 218.81 150.12 201.91 159.68
  A 1.81 1.80 -14.8 0 0 200.99 161.25
  L 201.00 203.05
  A 0.39 0.39 0.0 0 0 201.52 203.42
  C 212.06 199.71 221.13 193.82 229.22 185.72"
/>
<path stroke="#f6b58a" vector-effect="non-scaling-stroke" d="
  M 422.31 312.25
  L 450.00 312.25
  A 0.75 0.75 0.0 0 0 450.75 311.50
  L 450.75 276.50
  A 0.50 0.50 0.0 0 0 450.25 276.00
  L 421.81 276.00
  A 0.45 0.44 -0.0 0 1 421.36 275.56
  L 421.36 123.31
  A 0.31 0.30 90.0 0 0 421.06 123.00
  L 355.49 123.00
  Q 354.94 123.00 354.78 123.52
  L 309.95 269.28
  Q 309.50 270.75 309.50 272.29
  L 309.50 312.00
  A 0.25 0.25 0.0 0 0 309.75 312.25
  L 374.69 312.25
  A 0.69 0.69 0.0 0 1 375.38 312.94
  L 375.36 364.35
  A 1.00 0.99 -90.0 0 0 376.35 365.35
  L 421.00 365.37
  A 0.37 0.36 90.0 0 0 421.36 365.00
  L 421.37 313.19
  Q 421.37 312.25 422.31 312.25"
/>
<path stroke="#f6b58a" vector-effect="non-scaling-stroke" d="
  M 109.21 278.63
  L 129.75 278.63
  Q 130.33 278.63 130.26 278.06
  Q 124.66 228.62 120.81 179.30
  Q 120.64 177.24 120.35 179.29
  Q 113.45 226.90 109.32 268.01
  Q 108.84 272.88 108.48 277.84
  Q 108.42 278.63 109.21 278.63"
/>
<path stroke="#f6b58a" vector-effect="non-scaling-stroke" d="
  M 345.63 275.00
  A 0.81 0.81 0.0 0 0 346.41 276.02
  L 376.10 275.98
  A 0.81 0.81 0.0 0 0 376.91 275.19
  L 379.54 159.09
  A 0.81 0.81 0.0 0 0 378.63 158.27
  L 377.02 158.47
  A 0.81 0.81 0.0 0 0 376.34 159.07
  L 345.63 275.00"
/>
</g>
<path fill="#ed6a14" d="
  M 40.35 0.00
  L 449.04 0.00
  Q 451.95 0.41 455.00 0.29
  Q 459.09 0.14 466.00 3.51
  Q 476.65 8.69 483.24 18.48
  Q 488.69 26.58 489.00 36.36
  L 489.00 451.06
  Q 488.74 452.62 488.68 454.26
  C 488.11 468.22 475.74 480.83 463.74 485.78
  Q 460.71 487.03 456.74 487.41
  Q 453.18 487.75 449.63 488.00
  L 39.98 488.00
  Q 26.78 488.37 16.29 480.15
  C 8.16 473.79 1.61 464.55 0.66 454.22
  Q 0.37 451.16 0.00 448.12
  L 0.00 40.03
  Q 0.52 23.15 10.73 13.00
  Q 17.68 6.09 26.69 2.15
  Q 28.63 1.30 30.75 1.00
  Q 35.50 0.31 40.35 0.00
  Z
  M 131.80 321.50
  A 0.42 0.42 0.0 0 1 132.22 321.89
  L 135.34 364.61
  A 0.42 0.42 0.0 0 0 135.76 365.00
  L 200.52 365.00
  A 0.42 0.42 0.0 0 0 200.94 364.52
  L 164.36 123.36
  A 0.42 0.42 0.0 0 0 163.95 123.00
  L 71.96 123.00
  A 0.42 0.42 0.0 0 0 71.54 123.36
  L 39.06 364.52
  A 0.42 0.42 0.0 0 0 39.48 365.00
  L 105.01 365.00
  A 0.42 0.42 0.0 0 0 105.42 364.62
  L 109.15 321.88
  A 0.42 0.42 0.0 0 1 109.56 321.50
  L 131.80 321.50
  Z
  M 229.22 185.72
  A 0.36 0.36 0.0 0 1 229.84 185.98
  L 229.82 364.64
  A 0.72 0.72 0.0 0 0 230.54 365.36
  L 276.00 365.36
  Q 276.87 365.36 276.87 364.50
  L 276.87 123.68
  Q 276.87 123.00 276.18 123.00
  L 236.48 123.00
  Q 235.86 123.00 235.58 123.55
  C 233.61 127.55 231.72 131.60 229.16 135.27
  Q 218.81 150.12 201.91 159.68
  A 1.81 1.80 -14.8 0 0 200.99 161.25
  L 201.00 203.05
  A 0.39 0.39 0.0 0 0 201.52 203.42
  C 212.06 199.71 221.13 193.82 229.22 185.72
  Z
  M 422.31 312.25
  L 450.00 312.25
  A 0.75 0.75 0.0 0 0 450.75 311.50
  L 450.75 276.50
  A 0.50 0.50 0.0 0 0 450.25 276.00
  L 421.81 276.00
  A 0.45 0.44 -0.0 0 1 421.36 275.56
  L 421.36 123.31
  A 0.31 0.30 90.0 0 0 421.06 123.00
  L 355.49 123.00
  Q 354.94 123.00 354.78 123.52
  L 309.95 269.28
  Q 309.50 270.75 309.50 272.29
  L 309.50 312.00
  A 0.25 0.25 0.0 0 0 309.75 312.25
  L 374.69 312.25
  A 0.69 0.69 0.0 0 1 375.38 312.94
  L 375.36 364.35
  A 1.00 0.99 -90.0 0 0 376.35 365.35
  L 421.00 365.37
  A 0.37 0.36 90.0 0 0 421.36 365.00
  L 421.37 313.19
  Q 421.37 312.25 422.31 312.25
  Z"
/>
<path fill="#ffffff" d="
  M 131.80 321.50
  L 109.56 321.50
  A 0.42 0.42 0.0 0 0 109.15 321.88
  L 105.42 364.62
  A 0.42 0.42 0.0 0 1 105.01 365.00
  L 39.48 365.00
  A 0.42 0.42 0.0 0 1 39.06 364.52
  L 71.54 123.36
  A 0.42 0.42 0.0 0 1 71.96 123.00
  L 163.95 123.00
  A 0.42 0.42 0.0 0 1 164.36 123.36
  L 200.94 364.52
  A 0.42 0.42 0.0 0 1 200.52 365.00
  L 135.76 365.00
  A 0.42 0.42 0.0 0 1 135.34 364.61
  L 132.22 321.89
  A 0.42 0.42 0.0 0 0 131.80 321.50
  Z
  M 109.21 278.63
  L 129.75 278.63
  Q 130.33 278.63 130.26 278.06
  Q 124.66 228.62 120.81 179.30
  Q 120.64 177.24 120.35 179.29
  Q 113.45 226.90 109.32 268.01
  Q 108.84 272.88 108.48 277.84
  Q 108.42 278.63 109.21 278.63
  Z"
/>
<path fill="#ffffff" d="
  M 229.22 185.72
  C 221.13 193.82 212.06 199.71 201.52 203.42
  A 0.39 0.39 0.0 0 1 201.00 203.05
  L 200.99 161.25
  A 1.81 1.80 -14.8 0 1 201.91 159.68
  Q 218.81 150.12 229.16 135.27
  C 231.72 131.60 233.61 127.55 235.58 123.55
  Q 235.86 123.00 236.48 123.00
  L 276.18 123.00
  Q 276.87 123.00 276.87 123.68
  L 276.87 364.50
  Q 276.87 365.36 276.00 365.36
  L 230.54 365.36
  A 0.72 0.72 0.0 0 1 229.82 364.64
  L 229.84 185.98
  A 0.36 0.36 0.0 0 0 229.22 185.72
  Z"
/>
<path fill="#ffffff" d="
  M 422.31 312.25
  Q 421.37 312.25 421.37 313.19
  L 421.36 365.00
  A 0.37 0.36 90.0 0 1 421.00 365.37
  L 376.35 365.35
  A 1.00 0.99 90.0 0 1 375.36 364.35
  L 375.38 312.94
  A 0.69 0.69 0.0 0 0 374.69 312.25
  L 309.75 312.25
  A 0.25 0.25 0.0 0 1 309.50 312.00
  L 309.50 272.29
  Q 309.50 270.75 309.95 269.28
  L 354.78 123.52
  Q 354.94 123.00 355.49 123.00
  L 421.06 123.00
  A 0.31 0.30 -90.0 0 1 421.36 123.31
  L 421.36 275.56
  A 0.45 0.44 -0.0 0 0 421.81 276.00
  L 450.25 276.00
  A 0.50 0.50 0.0 0 1 450.75 276.50
  L 450.75 311.50
  A 0.75 0.75 0.0 0 1 450.00 312.25
  L 422.31 312.25
  Z
  M 345.63 275.00
  A 0.81 0.81 0.0 0 0 346.41 276.02
  L 376.10 275.98
  A 0.81 0.81 0.0 0 0 376.91 275.19
  L 379.54 159.09
  A 0.81 0.81 0.0 0 0 378.63 158.27
  L 377.02 158.47
  A 0.81 0.81 0.0 0 0 376.34 159.07
  L 345.63 275.00
  Z"
/>
<path fill="#ed6a14" d="
  M 345.63 275.00
  L 376.34 159.07
  A 0.81 0.81 0.0 0 1 377.02 158.47
  L 378.63 158.27
  A 0.81 0.81 0.0 0 1 379.54 159.09
  L 376.91 275.19
  A 0.81 0.81 0.0 0 1 376.10 275.98
  L 346.41 276.02
  A 0.81 0.81 0.0 0 1 345.63 275.00
  Z"
/>
<path fill="#ed6a14" d="
  M 109.21 278.63
  Q 108.42 278.63 108.48 277.84
  Q 108.84 272.88 109.32 268.01
  Q 113.45 226.90 120.35 179.29
  Q 120.64 177.24 120.81 179.30
  Q 124.66 228.62 130.26 278.06
  Q 130.33 278.63 129.75 278.63
  L 109.21 278.63
  Z"
/>
</svg>
