<?xml version="1.0" encoding="UTF-8" standalone="no"?>
<!DOCTYPE svg PUBLIC "-//W3C//DTD SVG 1.1//EN" "http://www.w3.org/Graphics/SVG/1.1/DTD/svg11.dtd">
<svg xmlns="http://www.w3.org/2000/svg" version="1.1" viewBox="0.00 0.00 489.00 488.00">
<g stroke-width="2.00" fill="none" stroke-linecap="butt">
<path stroke="#ffe58b" vector-effect="non-scaling-stroke" d="
  M 366.80 330.51
  Q 365.84 330.51 366.39 329.72
  Q 393.51 291.26 421.54 251.40
  C 432.60 235.68 440.30 218.62 441.78 199.35
  Q 443.08 182.33 440.68 164.52
  C 438.25 146.46 431.38 131.21 412.55 125.29
  C 397.01 120.40 380.04 120.07 363.92 122.12
  Q 355.62 123.18 347.79 126.08
  C 334.98 130.83 327.56 140.23 323.94 153.29
  C 320.65 165.19 319.77 177.56 320.02 189.50
  A 0.77 0.76 -0.8 0 0 320.79 190.24
  L 368.30 190.24
  A 0.87 0.87 0.0 0 0 369.17 189.36
  Q 369.06 179.48 369.34 170.55
  Q 369.55 163.90 371.18 158.34
  Q 373.74 149.62 382.73 150.69
  Q 389.12 151.45 391.02 158.04
  Q 392.44 162.96 392.68 168.19
  Q 393.08 176.69 393.11 188.38
  C 393.15 205.26 384.60 222.43 375.25 236.10
  Q 345.13 280.12 317.57 320.22
  A 7.59 7.58 -27.8 0 0 316.24 324.51
  L 316.25 366.49
  A 0.75 0.74 -90.0 0 0 316.99 367.24
  L 445.50 367.24
  A 0.75 0.74 0.0 0 0 446.25 366.50
  L 446.25 331.50
  A 1.00 0.99 -0.0 0 0 445.25 330.51
  L 366.80 330.51"
/>
<path stroke="#ffe58b" vector-effect="non-scaling-stroke" d="
  M 136.72 323.49
  A 0.51 0.51 0.0 0 1 137.22 323.96
  L 140.35 366.53
  A 0.51 0.51 0.0 0 0 140.85 367.00
  L 205.42 367.01
  A 0.51 0.51 0.0 0 0 205.92 366.42
  L 169.38 125.43
  A 0.51 0.51 0.0 0 0 168.87 125.00
  L 77.03 125.00
  A 0.51 0.51 0.0 0 0 76.52 125.44
  L 44.08 366.43
  A 0.51 0.51 0.0 0 0 44.58 367.01
  L 109.92 367.00
  A 0.51 0.51 0.0 0 0 110.43 366.53
  L 114.15 323.97
  A 0.51 0.51 0.0 0 1 114.66 323.50
  L 136.72 323.49"
/>
<path stroke="#ffe58b" vector-effect="non-scaling-stroke" d="
  M 234.78 187.91
  A 0.37 0.36 -64.9 0 1 234.86 188.14
  L 234.87 366.43
  A 0.81 0.81 0.0 0 0 235.68 367.24
  L 281.01 367.24
  A 0.75 0.74 90.0 0 0 281.75 366.49
  L 281.75 126.25
  A 1.25 1.25 0.0 0 0 280.50 125.00
  L 241.74 125.00
  A 1.65 1.64 11.2 0 0 240.22 126.01
  C 234.06 140.90 221.57 153.27 207.64 161.13
  C 206.56 161.74 205.97 163.11 205.97 164.31
  Q 205.98 185.33 206.00 204.86
  Q 206.00 205.59 206.69 205.34
  Q 222.63 199.48 234.15 187.84
  Q 234.23 187.76 234.34 187.73
  Q 234.58 187.66 234.78 187.91"
/>
<path stroke="#ffe58b" vector-effect="non-scaling-stroke" d="
  M 126.39 188.37
  Q 126.10 184.83 125.79 181.43
  Q 125.62 179.60 125.36 181.42
  Q 118.21 229.65 113.38 279.66
  A 0.90 0.89 -87.4 0 0 114.27 280.64
  L 135.01 280.64
  Q 135.34 280.64 135.30 280.31
  Q 130.14 235.15 126.39 188.37"
/>
</g>
<path fill="#fecb17" d="
  M 40.36 0.00
  L 447.50 0.00
  Q 458.38 0.92 466.41 5.34
  Q 486.75 16.53 489.00 40.66
  L 489.00 64.74
  L 489.00 82.13
  L 489.00 117.25
  Q 488.80 117.11 488.80 117.75
  Q 488.75 279.07 488.75 440.38
  Q 488.75 450.62 487.82 455.05
  C 484.26 472.02 472.08 485.67 454.82 487.37
  Q 451.58 487.69 448.36 488.00
  L 442.53 488.00
  Q 440.19 487.56 437.85 488.00
  Q 437.66 488.05 437.53 488.00
  Q 435.18 487.57 432.86 488.00
  L 425.53 488.00
  Q 423.19 487.56 420.85 488.00
  Q 420.66 488.04 420.53 488.00
  Q 418.18 487.57 415.85 488.00
  L 412.53 488.00
  Q 410.18 487.56 407.85 488.00
  Q 407.66 488.04 407.53 488.00
  Q 405.18 487.57 402.85 488.00
  Q 402.65 488.05 402.52 488.00
  L 396.85 488.00
  Q 396.66 488.04 396.53 488.00
  Q 394.18 487.57 391.85 488.00
  L 388.53 488.00
  Q 386.18 487.56 383.85 488.00
  L 382.53 488.00
  Q 380.18 487.57 377.85 488.00
  Q 377.66 488.04 377.53 488.00
  Q 375.18 487.57 372.85 488.00
  Q 372.66 488.04 372.53 488.00
  Q 370.18 487.57 367.85 488.00
  L 364.53 488.00
  Q 362.18 487.56 359.85 488.00
  L 356.53 488.00
  Q 354.18 487.56 351.85 488.00
  L 348.53 488.00
  Q 346.18 487.56 343.85 488.00
  L 342.53 488.00
  Q 340.18 487.57 337.85 488.00
  L 337.53 488.00
  Q 335.18 487.56 332.85 488.00
  L 332.53 488.00
  Q 330.18 487.56 327.85 488.00
  L 324.53 488.00
  Q 322.18 487.56 319.85 488.00
  L 316.53 488.00
  Q 314.18 487.56 311.85 488.00
  L 308.53 488.00
  Q 306.18 487.56 303.85 488.00
  L 301.53 488.00
  Q 299.18 487.56 296.85 488.00
  L 296.52 488.00
  L 288.87 488.00
  L 141.75 488.00
  L 77.37 488.00
  L 40.00 488.00
  Q 30.39 488.25 22.84 484.39
  Q 11.01 478.34 4.35 466.16
  Q 0.89 459.82 0.56 454.50
  Q 0.26 449.52 0.00 448.12
  L 0.00 40.04
  Q 0.60 21.29 14.37 9.88
  Q 21.65 3.85 27.35 1.84
  Q 31.77 0.28 40.36 0.00
  Z
  M 366.80 330.51
  Q 365.84 330.51 366.39 329.72
  Q 393.51 291.26 421.54 251.40
  C 432.60 235.68 440.30 218.62 441.78 199.35
  Q 443.08 182.33 440.68 164.52
  C 438.25 146.46 431.38 131.21 412.55 125.29
  C 397.01 120.40 380.04 120.07 363.92 122.12
  Q 355.62 123.18 347.79 126.08
  C 334.98 130.83 327.56 140.23 323.94 153.29
  C 320.65 165.19 319.77 177.56 320.02 189.50
  A 0.77 0.76 -0.8 0 0 320.79 190.24
  L 368.30 190.24
  A 0.87 0.87 0.0 0 0 369.17 189.36
  Q 369.06 179.48 369.34 170.55
  Q 369.55 163.90 371.18 158.34
  Q 373.74 149.62 382.73 150.69
  Q 389.12 151.45 391.02 158.04
  Q 392.44 162.96 392.68 168.19
  Q 393.08 176.69 393.11 188.38
  C 393.15 205.26 384.60 222.43 375.25 236.10
  Q 345.13 280.12 317.57 320.22
  A 7.59 7.58 -27.8 0 0 316.24 324.51
  L 316.25 366.49
  A 0.75 0.74 -90.0 0 0 316.99 367.24
  L 445.50 367.24
  A 0.75 0.74 0.0 0 0 446.25 366.50
  L 446.25 331.50
  A 1.00 0.99 -0.0 0 0 445.25 330.51
  L 366.80 330.51
  Z
  M 136.72 323.49
  A 0.51 0.51 0.0 0 1 137.22 323.96
  L 140.35 366.53
  A 0.51 0.51 0.0 0 0 140.85 367.00
  L 205.42 367.01
  A 0.51 0.51 0.0 0 0 205.92 366.42
  L 169.38 125.43
  A 0.51 0.51 0.0 0 0 168.87 125.00
  L 77.03 125.00
  A 0.51 0.51 0.0 0 0 76.52 125.44
  L 44.08 366.43
  A 0.51 0.51 0.0 0 0 44.58 367.01
  L 109.92 367.00
  A 0.51 0.51 0.0 0 0 110.43 366.53
  L 114.15 323.97
  A 0.51 0.51 0.0 0 1 114.66 323.50
  L 136.72 323.49
  Z
  M 234.78 187.91
  A 0.37 0.36 -64.9 0 1 234.86 188.14
  L 234.87 366.43
  A 0.81 0.81 0.0 0 0 235.68 367.24
  L 281.01 367.24
  A 0.75 0.74 90.0 0 0 281.75 366.49
  L 281.75 126.25
  A 1.25 1.25 0.0 0 0 280.50 125.00
  L 241.74 125.00
  A 1.65 1.64 11.2 0 0 240.22 126.01
  C 234.06 140.90 221.57 153.27 207.64 161.13
  C 206.56 161.74 205.97 163.11 205.97 164.31
  Q 205.98 185.33 206.00 204.86
  Q 206.00 205.59 206.69 205.34
  Q 222.63 199.48 234.15 187.84
  Q 234.23 187.76 234.34 187.73
  Q 234.58 187.66 234.78 187.91
  Z"
/>
<path fill="#ffffff" d="
  M 366.80 330.51
  L 445.25 330.51
  A 1.00 0.99 0.0 0 1 446.25 331.50
  L 446.25 366.50
  A 0.75 0.74 0.0 0 1 445.50 367.24
  L 316.99 367.24
  A 0.75 0.74 -90.0 0 1 316.25 366.49
  L 316.24 324.51
  A 7.59 7.58 -27.8 0 1 317.57 320.22
  Q 345.13 280.12 375.25 236.10
  C 384.60 222.43 393.15 205.26 393.11 188.38
  Q 393.08 176.69 392.68 168.19
  Q 392.44 162.96 391.02 158.04
  Q 389.12 151.45 382.73 150.69
  Q 373.74 149.62 371.18 158.34
  Q 369.55 163.90 369.34 170.55
  Q 369.06 179.48 369.17 189.36
  A 0.87 0.87 0.0 0 1 368.30 190.24
  L 320.79 190.24
  A 0.77 0.76 -0.8 0 1 320.02 189.50
  C 319.77 177.56 320.65 165.19 323.94 153.29
  C 327.56 140.23 334.98 130.83 347.79 126.08
  Q 355.62 123.18 363.92 122.12
  C 380.04 120.07 397.01 120.40 412.55 125.29
  C 431.38 131.21 438.25 146.46 440.68 164.52
  Q 443.08 182.33 441.78 199.35
  C 440.30 218.62 432.60 235.68 421.54 251.40
  Q 393.51 291.26 366.39 329.72
  Q 365.84 330.51 366.80 330.51
  Z"
/>
<path fill="#ffffff" d="
  M 136.72 323.49
  L 114.66 323.50
  A 0.51 0.51 0.0 0 0 114.15 323.97
  L 110.43 366.53
  A 0.51 0.51 0.0 0 1 109.92 367.00
  L 44.58 367.01
  A 0.51 0.51 0.0 0 1 44.08 366.43
  L 76.52 125.44
  A 0.51 0.51 0.0 0 1 77.03 125.00
  L 168.87 125.00
  A 0.51 0.51 0.0 0 1 169.38 125.43
  L 205.92 366.42
  A 0.51 0.51 0.0 0 1 205.42 367.01
  L 140.85 367.00
  A 0.51 0.51 0.0 0 1 140.35 366.53
  L 137.22 323.96
  A 0.51 0.51 0.0 0 0 136.72 323.49
  Z
  M 126.39 188.37
  Q 126.10 184.83 125.79 181.43
  Q 125.62 179.60 125.36 181.42
  Q 118.21 229.65 113.38 279.66
  A 0.90 0.89 -87.4 0 0 114.27 280.64
  L 135.01 280.64
  Q 135.34 280.64 135.30 280.31
  Q 130.14 235.15 126.39 188.37
  Z"
/>
<path fill="#ffffff" d="
  M 234.78 187.91
  Q 234.58 187.66 234.34 187.73
  Q 234.23 187.76 234.15 187.84
  Q 222.63 199.48 206.69 205.34
  Q 206.00 205.59 206.00 204.86
  Q 205.98 185.33 205.97 164.31
  C 205.97 163.11 206.56 161.74 207.64 161.13
  C 221.57 153.27 234.06 140.90 240.22 126.01
  A 1.65 1.64 11.2 0 1 241.74 125.00
  L 280.50 125.00
  A 1.25 1.25 0.0 0 1 281.75 126.25
  L 281.75 366.49
  A 0.75 0.74 90.0 0 1 281.01 367.24
  L 235.68 367.24
  A 0.81 0.81 0.0 0 1 234.87 366.43
  L 234.86 188.14
  A 0.37 0.36 -64.9 0 0 234.78 187.91
  Z"
/>
<path fill="#fecb17" d="
  M 126.39 188.37
  Q 130.14 235.15 135.30 280.31
  Q 135.34 280.64 135.01 280.64
  L 114.27 280.64
  A 0.90 0.89 -87.4 0 1 113.38 279.66
  Q 118.21 229.65 125.36 181.42
  Q 125.62 179.60 125.79 181.43
  Q 126.10 184.83 126.39 188.37
  Z"
/>
</svg>
