<?xml version="1.0" encoding="UTF-8" standalone="no"?>
<!DOCTYPE svg PUBLIC "-//W3C//DTD SVG 1.1//EN" "http://www.w3.org/Graphics/SVG/1.1/DTD/svg11.dtd">
<svg xmlns="http://www.w3.org/2000/svg" version="1.1" viewBox="0.00 0.00 489.00 488.00">
<g stroke-width="2.00" fill="none" stroke-linecap="butt">
<path stroke="#828282" vector-effect="non-scaling-stroke" d="
  M 355.02 237.24
  Q 356.64 237.74 355.03 238.25
  C 341.33 242.58 331.58 251.47 326.83 264.69
  Q 323.79 273.16 323.50 281.31
  Q 322.99 295.53 323.47 314.81
  C 323.87 331.10 328.66 348.89 342.59 358.17
  C 347.67 361.56 354.70 364.28 360.62 365.47
  Q 383.36 370.01 405.29 365.57
  C 422.49 362.09 435.24 352.51 440.37 335.17
  Q 443.34 325.17 443.60 316.79
  Q 443.93 305.99 443.82 287.97
  C 443.77 280.72 443.22 273.66 441.06 266.99
  Q 434.05 245.35 412.11 238.26
  Q 410.62 237.77 412.12 237.29
  C 429.23 231.81 441.02 217.24 442.21 198.84
  Q 443.18 183.79 441.98 168.53
  C 440.29 146.88 430.99 129.46 408.41 123.99
  Q 384.98 118.32 361.07 123.37
  C 339.20 128.00 328.61 142.33 325.53 163.15
  C 323.49 176.94 323.38 192.49 325.69 205.47
  C 328.42 220.81 340.33 232.63 355.02 237.24"
/>
<path stroke="#828282" vector-effect="non-scaling-stroke" d="
  M 237.76 187.60
  Q 237.88 187.71 237.88 187.86
  Q 237.87 276.80 237.88 365.72
  Q 237.88 367.38 239.53 367.38
  L 283.57 367.37
  A 1.18 1.18 0.0 0 0 284.75 366.19
  L 284.75 126.06
  A 1.08 1.07 89.7 0 0 283.67 124.98
  Q 265.71 125.07 246.97 124.92
  C 244.89 124.90 243.22 125.94 242.35 127.84
  C 235.61 142.47 224.32 153.17 210.53 161.27
  A 3.03 3.03 0.0 0 0 209.04 163.88
  L 209.06 205.24
  A 0.27 0.27 0.0 0 0 209.42 205.49
  Q 225.67 199.59 237.37 187.61
  Q 237.56 187.42 237.76 187.60"
/>
<path stroke="#828282" vector-effect="non-scaling-stroke" d="
  M 139.84 324.50
  A 0.38 0.38 0.0 0 1 140.22 324.85
  L 143.35 367.65
  A 0.38 0.38 0.0 0 0 143.73 368.00
  L 208.57 368.00
  A 0.38 0.38 0.0 0 0 208.94 367.56
  L 172.36 126.32
  A 0.38 0.38 0.0 0 0 171.98 126.00
  L 79.92 126.00
  A 0.38 0.38 0.0 0 0 79.55 126.33
  L 47.06 367.57
  A 0.38 0.38 0.0 0 0 47.43 368.00
  L 113.04 368.00
  A 0.38 0.38 0.0 0 0 113.42 367.65
  L 117.16 324.85
  A 0.38 0.38 0.0 0 1 117.54 324.50
  L 139.84 324.50"
/>
<path stroke="#828282" vector-effect="non-scaling-stroke" d="
  M 374.69 155.40
  C 372.60 159.50 371.81 165.94 371.77 170.85
  Q 371.67 185.51 371.81 201.33
  Q 371.86 207.79 373.34 213.22
  Q 374.93 219.05 379.82 220.52
  C 388.83 223.23 393.12 217.24 394.16 209.39
  Q 395.14 202.09 395.25 193.55
  Q 395.43 180.04 394.83 167.40
  Q 394.59 162.36 393.12 157.42
  C 390.54 148.79 378.85 147.24 374.69 155.40"
/>
<path stroke="#828282" vector-effect="non-scaling-stroke" d="
  M 394.03 330.95
  Q 396.24 324.52 396.37 315.96
  Q 396.61 300.31 396.57 284.46
  C 396.56 277.40 396.64 267.84 393.36 261.52
  C 390.29 255.61 378.95 254.99 375.08 260.16
  Q 371.88 264.46 371.26 271.54
  C 369.96 286.21 370.49 301.48 370.70 316.11
  Q 370.78 321.21 371.85 327.28
  Q 373.73 337.98 383.07 338.10
  Q 391.53 338.21 394.03 330.95"
/>
<path stroke="#828282" vector-effect="non-scaling-stroke" d="
  M 128.85 182.77
  Q 128.66 180.26 128.29 182.75
  Q 121.30 230.35 116.38 280.66
  Q 116.29 281.63 117.26 281.63
  L 137.74 281.62
  Q 138.33 281.62 138.27 281.03
  Q 132.70 232.15 128.85 182.77"
/>
</g>
<path fill="#040405" d="
  M 40.26 0.00
  L 449.09 0.00
  Q 462.00 -0.32 472.56 7.43
  Q 484.08 15.89 488.04 28.93
  C 488.72 31.19 488.64 33.83 489.00 36.28
  L 489.00 451.12
  Q 488.75 452.80 488.67 454.54
  C 488.09 468.48 475.61 480.76 463.55 485.93
  Q 460.63 487.18 458.51 487.33
  Q 454.11 487.64 449.73 488.00
  L 39.92 488.00
  Q 38.79 487.82 34.25 487.76
  Q 29.87 487.70 23.85 484.86
  C 11.17 478.87 1.00 465.91 0.46 451.88
  Q 0.39 450.00 0.00 448.16
  L 0.00 39.79
  Q 0.54 23.64 10.61 13.09
  Q 17.59 5.77 28.25 1.52
  Q 31.00 0.42 40.26 0.00
  Z
  M 355.02 237.24
  Q 356.64 237.74 355.03 238.25
  C 341.33 242.58 331.58 251.47 326.83 264.69
  Q 323.79 273.16 323.50 281.31
  Q 322.99 295.53 323.47 314.81
  C 323.87 331.10 328.66 348.89 342.59 358.17
  C 347.67 361.56 354.70 364.28 360.62 365.47
  Q 383.36 370.01 405.29 365.57
  C 422.49 362.09 435.24 352.51 440.37 335.17
  Q 443.34 325.17 443.60 316.79
  Q 443.93 305.99 443.82 287.97
  C 443.77 280.72 443.22 273.66 441.06 266.99
  Q 434.05 245.35 412.11 238.26
  Q 410.62 237.77 412.12 237.29
  C 429.23 231.81 441.02 217.24 442.21 198.84
  Q 443.18 183.79 441.98 168.53
  C 440.29 146.88 430.99 129.46 408.41 123.99
  Q 384.98 118.32 361.07 123.37
  C 339.20 128.00 328.61 142.33 325.53 163.15
  C 323.49 176.94 323.38 192.49 325.69 205.47
  C 328.42 220.81 340.33 232.63 355.02 237.24
  Z
  M 237.76 187.60
  Q 237.88 187.71 237.88 187.86
  Q 237.87 276.80 237.88 365.72
  Q 237.88 367.38 239.53 367.38
  L 283.57 367.37
  A 1.18 1.18 0.0 0 0 284.75 366.19
  L 284.75 126.06
  A 1.08 1.07 89.7 0 0 283.67 124.98
  Q 265.71 125.07 246.97 124.92
  C 244.89 124.90 243.22 125.94 242.35 127.84
  C 235.61 142.47 224.32 153.17 210.53 161.27
  A 3.03 3.03 0.0 0 0 209.04 163.88
  L 209.06 205.24
  A 0.27 0.27 0.0 0 0 209.42 205.49
  Q 225.67 199.59 237.37 187.61
  Q 237.56 187.42 237.76 187.60
  Z
  M 139.84 324.50
  A 0.38 0.38 0.0 0 1 140.22 324.85
  L 143.35 367.65
  A 0.38 0.38 0.0 0 0 143.73 368.00
  L 208.57 368.00
  A 0.38 0.38 0.0 0 0 208.94 367.56
  L 172.36 126.32
  A 0.38 0.38 0.0 0 0 171.98 126.00
  L 79.92 126.00
  A 0.38 0.38 0.0 0 0 79.55 126.33
  L 47.06 367.57
  A 0.38 0.38 0.0 0 0 47.43 368.00
  L 113.04 368.00
  A 0.38 0.38 0.0 0 0 113.42 367.65
  L 117.16 324.85
  A 0.38 0.38 0.0 0 1 117.54 324.50
  L 139.84 324.50
  Z"
/>
<path fill="#ffffff" d="
  M 355.02 237.24
  C 340.33 232.63 328.42 220.81 325.69 205.47
  C 323.38 192.49 323.49 176.94 325.53 163.15
  C 328.61 142.33 339.20 128.00 361.07 123.37
  Q 384.98 118.32 408.41 123.99
  C 430.99 129.46 440.29 146.88 441.98 168.53
  Q 443.18 183.79 442.21 198.84
  C 441.02 217.24 429.23 231.81 412.12 237.29
  Q 410.62 237.77 412.11 238.26
  Q 434.05 245.35 441.06 266.99
  C 443.22 273.66 443.77 280.72 443.82 287.97
  Q 443.93 305.99 443.60 316.79
  Q 443.34 325.17 440.37 335.17
  C 435.24 352.51 422.49 362.09 405.29 365.57
  Q 383.36 370.01 360.62 365.47
  C 354.70 364.28 347.67 361.56 342.59 358.17
  C 328.66 348.89 323.87 331.10 323.47 314.81
  Q 322.99 295.53 323.50 281.31
  Q 323.79 273.16 326.83 264.69
  C 331.58 251.47 341.33 242.58 355.03 238.25
  Q 356.64 237.74 355.02 237.24
  Z
  M 374.69 155.40
  C 372.60 159.50 371.81 165.94 371.77 170.85
  Q 371.67 185.51 371.81 201.33
  Q 371.86 207.79 373.34 213.22
  Q 374.93 219.05 379.82 220.52
  C 388.83 223.23 393.12 217.24 394.16 209.39
  Q 395.14 202.09 395.25 193.55
  Q 395.43 180.04 394.83 167.40
  Q 394.59 162.36 393.12 157.42
  C 390.54 148.79 378.85 147.24 374.69 155.40
  Z
  M 394.03 330.95
  Q 396.24 324.52 396.37 315.96
  Q 396.61 300.31 396.57 284.46
  C 396.56 277.40 396.64 267.84 393.36 261.52
  C 390.29 255.61 378.95 254.99 375.08 260.16
  Q 371.88 264.46 371.26 271.54
  C 369.96 286.21 370.49 301.48 370.70 316.11
  Q 370.78 321.21 371.85 327.28
  Q 373.73 337.98 383.07 338.10
  Q 391.53 338.21 394.03 330.95
  Z"
/>
<path fill="#ffffff" d="
  M 237.76 187.60
  Q 237.56 187.42 237.37 187.61
  Q 225.67 199.59 209.42 205.49
  A 0.27 0.27 0.0 0 1 209.06 205.24
  L 209.04 163.88
  A 3.03 3.03 0.0 0 1 210.53 161.27
  C 224.32 153.17 235.61 142.47 242.35 127.84
  C 243.22 125.94 244.89 124.90 246.97 124.92
  Q 265.71 125.07 283.67 124.98
  A 1.08 1.07 89.7 0 1 284.75 126.06
  L 284.75 366.19
  A 1.18 1.18 0.0 0 1 283.57 367.37
  L 239.53 367.38
  Q 237.88 367.38 237.88 365.72
  Q 237.87 276.80 237.88 187.86
  Q 237.88 187.71 237.76 187.60
  Z"
/>
<path fill="#ffffff" d="
  M 139.84 324.50
  L 117.54 324.50
  A 0.38 0.38 0.0 0 0 117.16 324.85
  L 113.42 367.65
  A 0.38 0.38 0.0 0 1 113.04 368.00
  L 47.43 368.00
  A 0.38 0.38 0.0 0 1 47.06 367.57
  L 79.55 126.33
  A 0.38 0.38 0.0 0 1 79.92 126.00
  L 171.98 126.00
  A 0.38 0.38 0.0 0 1 172.36 126.32
  L 208.94 367.56
  A 0.38 0.38 0.0 0 1 208.57 368.00
  L 143.73 368.00
  A 0.38 0.38 0.0 0 1 143.35 367.65
  L 140.22 324.85
  A 0.38 0.38 0.0 0 0 139.84 324.50
  Z
  M 128.85 182.77
  Q 128.66 180.26 128.29 182.75
  Q 121.30 230.35 116.38 280.66
  Q 116.29 281.63 117.26 281.63
  L 137.74 281.62
  Q 138.33 281.62 138.27 281.03
  Q 132.70 232.15 128.85 182.77
  Z"
/>
<path fill="#040405" d="
  M 374.69 155.40
  C 378.85 147.24 390.54 148.79 393.12 157.42
  Q 394.59 162.36 394.83 167.40
  Q 395.43 180.04 395.25 193.55
  Q 395.14 202.09 394.16 209.39
  C 393.12 217.24 388.83 223.23 379.82 220.52
  Q 374.93 219.05 373.34 213.22
  Q 371.86 207.79 371.81 201.33
  Q 371.67 185.51 371.77 170.85
  C 371.81 165.94 372.60 159.50 374.69 155.40
  Z"
/>
<path fill="#040405" d="
  M 128.85 182.77
  Q 132.70 232.15 138.27 281.03
  Q 138.33 281.62 137.74 281.62
  L 117.26 281.63
  Q 116.29 281.63 116.38 280.66
  Q 121.30 230.35 128.29 182.75
  Q 128.66 180.26 128.85 182.77
  Z"
/>
<path fill="#040405" d="
  M 394.03 330.95
  Q 391.53 338.21 383.07 338.10
  Q 373.73 337.98 371.85 327.28
  Q 370.78 321.21 370.70 316.11
  C 370.49 301.48 369.96 286.21 371.26 271.54
  Q 371.88 264.46 375.08 260.16
  C 378.95 254.99 390.29 255.61 393.36 261.52
  C 396.64 267.84 396.56 277.40 396.57 284.46
  Q 396.61 300.31 396.37 315.96
  Q 396.24 324.52 394.03 330.95
  Z"
/>
</svg>
