<svg xmlns="http://www.w3.org/2000/svg" version="1.1" viewBox="0 0 165.43 165.97">
<g stroke-width="2.00" fill="none" stroke-linecap="butt">
<path stroke="#a0a0a0" vector-effect="non-scaling-stroke" d="   M 84.66 164.97   Q 88.57 163.96 90.06 161.00   Q 126.99 87.57 163.91 14.12   Q 164.96 12.03 163.87 8.95"/>
<path stroke="#fec483" vector-effect="non-scaling-stroke" d="   M 163.87 8.95   Q 163.08 4.18 160.24 2.33   Q 158.59 1.25 156.96 1.25   Q 83.27 1.23 9.97 1.22   C 4.94 1.22 1.61 4.08 2.33 9.68   Q 2.44 10.50 3.43 13.30"/>
<path stroke="#a0a0a0" vector-effect="non-scaling-stroke" d="   M 3.43 13.30   Q 3.66 14.06 4.01 14.76   Q 40.90 88.22 77.76 161.71   Q 78.78 163.74 82.60 164.96"/>
<path stroke="#9f6424" vector-effect="non-scaling-stroke" d="   M 163.87 8.95   Q 127.07 82.33 90.03 155.89   Q 88.46 159.01 87.01 160.15   C 83.64 162.78 78.42 161.53 76.52 157.76   Q 61.60 128.29 4.00 13.50   Q 3.91 13.31 3.43 13.30"/>
<path stroke="#fec483" vector-effect="non-scaling-stroke" d="   M 125.37 23.00   A 0.33 0.33 0.0 0 1 125.68 22.78   L 134.96 22.79   A 0.33 0.33 0.0 0 1 135.27 23.00   L 137.21 28.04   A 0.33 0.33 0.0 0 0 137.51 28.25   L 142.16 28.30   A 0.33 0.33 0.0 0 0 142.47 27.85   L 132.98 4.31   A 0.33 0.33 0.0 0 0 132.68 4.10   L 127.92 4.14   A 0.33 0.33 0.0 0 0 127.62 4.35   L 118.43 27.85   A 0.33 0.33 0.0 0 0 118.74 28.30   L 123.26 28.25   A 0.33 0.33 0.0 0 0 123.57 28.03   L 125.37 23.00"/>
<path stroke="#fec483" vector-effect="non-scaling-stroke" d="   M 48.39 33.78   A 0.35 0.35 0.0 0 1 48.98 34.04   L 48.99 86.24   A 0.50 0.49 0.0 0 0 49.49 86.73   L 62.75 86.74   A 0.49 0.48 -90.0 0 0 63.23 86.25   L 63.23 12.99   Q 63.23 12.51 62.74 12.50   L 52.27 12.50   Q 51.65 12.50 51.42 13.08   C 48.11 21.56 39.76 27.49 30.99 31.10   A 0.75 0.74 78.8 0 0 30.53 31.79   L 30.54 43.53   A 0.37 0.36 81.3 0 0 31.01 43.88   Q 40.92 40.67 48.39 33.78"/>
<path stroke="#fec483" vector-effect="non-scaling-stroke" d="   M 82.54 46.60   A 0.22 0.21 43.9 0 1 82.55 46.99   Q 69.00 53.46 70.91 69.41   C 73.76 93.27 114.32 94.97 118.92 70.69   Q 122.11 53.84 107.44 47.00   A 0.29 0.28 -44.4 0 1 107.45 46.48   C 113.72 43.78 117.41 37.67 117.11 30.86   C 116.42 15.23 101.31 10.58 88.03 13.15   C 77.39 15.21 70.80 24.36 72.89 35.08   Q 74.46 43.09 82.54 46.60"/>
<path stroke="#fec483" vector-effect="non-scaling-stroke" d="   M 127.10 18.32   A 0.33 0.33 0.0 0 0 127.41 18.76   L 133.17 18.74   A 0.33 0.33 0.0 0 0 133.47 18.30   L 130.57 10.52   A 0.33 0.33 0.0 0 0 129.95 10.52   L 127.10 18.32"/>
<path stroke="#fec483" vector-effect="non-scaling-stroke" d="   M 103.6926 31.7530   A 8.03 8.03 0.0 0 0 95.5928 23.7934   L 93.9929 23.8073   A 8.03 8.03 0.0 0 0 86.0333 31.9071   L 86.0474 33.5270   A 8.03 8.03 0.0 0 0 94.1472 41.4866   L 95.7471 41.4727   A 8.03 8.03 0.0 0 0 103.7067 33.3729   L 103.6926 31.7530"/>
<path stroke="#fec483" vector-effect="non-scaling-stroke" d="   M 95.4488 76.8040   A 12.06 10.53 88.2 0 0 105.5948 64.4192   A 12.06 10.53 88.2 0 0 94.6912 52.6960   A 12.06 10.53 88.2 0 0 84.5452 65.0808   A 12.06 10.53 88.2 0 0 95.4488 76.8040"/>
</g>
<path fill="#ffffff" d="   M 0.00 0.00   L 165.00 0.00   L 165.00 164.97   L 84.66 164.97   Q 88.57 163.96 90.06 161.00   Q 126.99 87.57 163.91 14.12   Q 164.96 12.03 163.87 8.95   Q 163.08 4.18 160.24 2.33   Q 158.59 1.25 156.96 1.25   Q 83.27 1.23 9.97 1.22   C 4.94 1.22 1.61 4.08 2.33 9.68   Q 2.44 10.50 3.43 13.30   Q 3.66 14.06 4.01 14.76   Q 40.90 88.22 77.76 161.71   Q 78.78 163.74 82.60 164.96   L 0.00 164.94   L 0.00 0.00   Z"/>
<path fill="#fd8807" d="   M 163.87 8.95   Q 127.07 82.33 90.03 155.89   Q 88.46 159.01 87.01 160.15   C 83.64 162.78 78.42 161.53 76.52 157.76   Q 61.60 128.29 4.00 13.50   Q 3.91 13.31 3.43 13.30   Q 2.44 10.50 2.33 9.68   C 1.61 4.08 4.94 1.22 9.97 1.22   Q 83.27 1.23 156.96 1.25   Q 158.59 1.25 160.24 2.33   Q 163.08 4.18 163.87 8.95   Z   M 125.37 23.00   A 0.33 0.33 0.0 0 1 125.68 22.78   L 134.96 22.79   A 0.33 0.33 0.0 0 1 135.27 23.00   L 137.21 28.04   A 0.33 0.33 0.0 0 0 137.51 28.25   L 142.16 28.30   A 0.33 0.33 0.0 0 0 142.47 27.85   L 132.98 4.31   A 0.33 0.33 0.0 0 0 132.68 4.10   L 127.92 4.14   A 0.33 0.33 0.0 0 0 127.62 4.35   L 118.43 27.85   A 0.33 0.33 0.0 0 0 118.74 28.30   L 123.26 28.25   A 0.33 0.33 0.0 0 0 123.57 28.03   L 125.37 23.00   Z   M 48.39 33.78   A 0.35 0.35 0.0 0 1 48.98 34.04   L 48.99 86.24   A 0.50 0.49 0.0 0 0 49.49 86.73   L 62.75 86.74   A 0.49 0.48 -90.0 0 0 63.23 86.25   L 63.23 12.99   Q 63.23 12.51 62.74 12.50   L 52.27 12.50   Q 51.65 12.50 51.42 13.08   C 48.11 21.56 39.76 27.49 30.99 31.10   A 0.75 0.74 78.8 0 0 30.53 31.79   L 30.54 43.53   A 0.37 0.36 81.3 0 0 31.01 43.88   Q 40.92 40.67 48.39 33.78   Z   M 82.54 46.60   A 0.22 0.21 43.9 0 1 82.55 46.99   Q 69.00 53.46 70.91 69.41   C 73.76 93.27 114.32 94.97 118.92 70.69   Q 122.11 53.84 107.44 47.00   A 0.29 0.28 -44.4 0 1 107.45 46.48   C 113.72 43.78 117.41 37.67 117.11 30.86   C 116.42 15.23 101.31 10.58 88.03 13.15   C 77.39 15.21 70.80 24.36 72.89 35.08   Q 74.46 43.09 82.54 46.60   Z"/>
<path fill="#ffffff" d="   M 125.37 23.00   L 123.57 28.03   A 0.33 0.33 0.0 0 1 123.26 28.25   L 118.74 28.30   A 0.33 0.33 0.0 0 1 118.43 27.85   L 127.62 4.35   A 0.33 0.33 0.0 0 1 127.92 4.14   L 132.68 4.10   A 0.33 0.33 0.0 0 1 132.98 4.31   L 142.47 27.85   A 0.33 0.33 0.0 0 1 142.16 28.30   L 137.51 28.25   A 0.33 0.33 0.0 0 1 137.21 28.04   L 135.27 23.00   A 0.33 0.33 0.0 0 0 134.96 22.79   L 125.68 22.78   A 0.33 0.33 0.0 0 0 125.37 23.00   Z   M 127.10 18.32   A 0.33 0.33 0.0 0 0 127.41 18.76   L 133.17 18.74   A 0.33 0.33 0.0 0 0 133.47 18.30   L 130.57 10.52   A 0.33 0.33 0.0 0 0 129.95 10.52   L 127.10 18.32   Z"/>
<path fill="#404040" d="   M 163.87 8.95   Q 164.96 12.03 163.91 14.12   Q 126.99 87.57 90.06 161.00   Q 88.57 163.96 84.66 164.97   L 82.60 164.96   Q 78.78 163.74 77.76 161.71   Q 40.90 88.22 4.01 14.76   Q 3.66 14.06 3.43 13.30   Q 3.91 13.31 4.00 13.50   Q 61.60 128.29 76.52 157.76   C 78.42 161.53 83.64 162.78 87.01 160.15   Q 88.46 159.01 90.03 155.89   Q 127.07 82.33 163.87 8.95   Z"/>
<path fill="#fd8807" d="   M 127.10 18.32   L 129.95 10.52   A 0.33 0.33 0.0 0 1 130.57 10.52   L 133.47 18.30   A 0.33 0.33 0.0 0 1 133.17 18.74   L 127.41 18.76   A 0.33 0.33 0.0 0 1 127.10 18.32   Z"/>
<path fill="#ffffff" d="   M 48.39 33.78   Q 40.92 40.67 31.01 43.88   A 0.37 0.36 81.3 0 1 30.54 43.53   L 30.53 31.79   A 0.75 0.74 78.8 0 1 30.99 31.10   C 39.76 27.49 48.11 21.56 51.42 13.08   Q 51.65 12.50 52.27 12.50   L 62.74 12.50   Q 63.23 12.51 63.23 12.99   L 63.23 86.25   A 0.49 0.48 90.0 0 1 62.75 86.74   L 49.49 86.73   A 0.50 0.49 0.0 0 1 48.99 86.24   L 48.98 34.04   A 0.35 0.35 0.0 0 0 48.39 33.78   Z"/>
<path fill="#ffffff" d="   M 82.54 46.60   Q 74.46 43.09 72.89 35.08   C 70.80 24.36 77.39 15.21 88.03 13.15   C 101.31 10.58 116.42 15.23 117.11 30.86   C 117.41 37.67 113.72 43.78 107.45 46.48   A 0.29 0.28 -44.4 0 0 107.44 47.00   Q 122.11 53.84 118.92 70.69   C 114.32 94.97 73.76 93.27 70.91 69.41   Q 69.00 53.46 82.55 46.99   A 0.22 0.21 43.9 0 0 82.54 46.60   Z   M 103.6926 31.7530   A 8.03 8.03 0.0 0 0 95.5928 23.7934   L 93.9929 23.8073   A 8.03 8.03 0.0 0 0 86.0333 31.9071   L 86.0474 33.5270   A 8.03 8.03 0.0 0 0 94.1472 41.4866   L 95.7471 41.4727   A 8.03 8.03 0.0 0 0 103.7067 33.3729   L 103.6926 31.7530   Z   M 95.4488 76.8040   A 12.06 10.53 88.2 0 0 105.5948 64.4192   A 12.06 10.53 88.2 0 0 94.6912 52.6960   A 12.06 10.53 88.2 0 0 84.5452 65.0808   A 12.06 10.53 88.2 0 0 95.4488 76.8040   Z"/>
<rect fill="#fd8807" x="-8.83" y="-8.84" transform="translate(94.87,32.64) rotate(-0.5)" width="17.66" height="17.68" rx="8.03"/>
<ellipse fill="#fd8807" cx="0.00" cy="0.00" transform="translate(95.07,64.75) rotate(88.2)" rx="12.06" ry="10.53"/>
</svg>