<svg xmlns="http://www.w3.org/2000/svg" version="1.1" viewBox="0 0 165 167">
<g stroke-width="2.00" fill="none" stroke-linecap="butt">
<path stroke="#a0a0a0" vector-effect="non-scaling-stroke" d="   M 84.49 166.00   L 86.51 165.50   Q 86.99 165.38 87.28 164.99   C 88.19 163.82 89.20 163.11 89.90 161.71   Q 126.69 88.37 163.47 15.02   Q 164.48 13.01 163.27 10.22"/>
<path stroke="#e2e18c" vector-effect="non-scaling-stroke" d="   M 163.27 10.22   Q 162.25 2.33 155.51 2.33   Q 82.82 2.34 11.88 2.34   Q 7.51 2.34 5.75 3.21   Q 2.49 4.82 2.13 8.99   Q 1.94 11.19 3.38 13.63"/>
<path stroke="#a0a0a0" vector-effect="non-scaling-stroke" d="   M 3.38 13.63   Q 3.27 14.65 3.94 16.00   Q 40.62 89.41 77.53 162.71   Q 78.87 165.37 82.11 166.00"/>
<path stroke="#82812c" vector-effect="non-scaling-stroke" d="   M 163.27 10.22   Q 126.67 83.31 89.94 156.45   Q 88.33 159.65 87.03 160.87   C 84.03 163.69 78.29 162.82 76.41 159.05   Q 40.04 86.28 3.38 13.63"/>
<path stroke="#62610c" vector-effect="non-scaling-stroke" d="   M 130.70 23.96   A 0.33 0.33 0.0 0 1 131.01 24.17   L 133.00 29.26   A 0.33 0.33 0.0 0 0 133.30 29.47   L 137.92 29.49   A 0.33 0.33 0.0 0 0 138.23 29.04   L 128.76 5.51   A 0.33 0.33 0.0 0 0 128.46 5.30   L 123.73 5.27   A 0.33 0.33 0.0 0 0 123.42 5.48   L 114.23 29.03   A 0.33 0.33 0.0 0 0 114.53 29.48   L 119.02 29.47   A 0.33 0.33 0.0 0 0 119.33 29.25   L 121.17 24.18   A 0.33 0.33 0.0 0 1 121.48 23.96   L 130.70 23.96"/>
<path stroke="#62610c" vector-effect="non-scaling-stroke" d="   M 48.78 35.30   L 48.77 87.30   Q 48.77 87.82 49.30 87.82   L 62.71 87.85   A 0.33 0.32 -90.0 0 0 63.03 87.52   L 63.03 14.24   Q 63.03 13.69 62.49 13.69   L 52.01 13.69   Q 51.43 13.69 51.23 14.23   C 48.09 22.67 39.17 28.94 31.04 32.16   Q 30.48 32.38 30.48 32.98   L 30.48 44.51   Q 30.48 45.17 31.11 44.96   C 37.62 42.73 43.05 39.56 48.19 35.03   Q 48.78 34.52 48.78 35.30"/>
<path stroke="#62610c" vector-effect="non-scaling-stroke" d="   M 112.18 73.29   A 0.32 0.32 0.0 0 1 112.50 72.97   L 121.05 72.98   A 0.32 0.32 0.0 0 0 121.37 72.66   L 121.36 60.82   A 0.32 0.32 0.0 0 0 121.04 60.50   L 112.50 60.51   A 0.32 0.32 0.0 0 1 112.18 60.19   L 112.18 14.01   A 0.32 0.32 0.0 0 0 111.86 13.69   L 100.38 13.69   A 0.32 0.32 0.0 0 0 100.11 13.83   L 68.16 60.47   A 0.32 0.32 0.0 0 0 68.10 60.65   L 68.04 72.66   A 0.32 0.32 0.0 0 0 68.36 72.98   L 98.11 72.98   A 0.32 0.32 0.0 0 1 98.43 73.30   L 98.42 87.50   A 0.32 0.32 0.0 0 0 98.74 87.82   L 111.87 87.84   A 0.32 0.32 0.0 0 0 112.19 87.52   L 112.18 73.29"/>
<path stroke="#62610c" vector-effect="non-scaling-stroke" d="   M 122.93 19.43   A 0.32 0.32 0.0 0 0 123.23 19.86   L 128.89 19.86   A 0.32 0.32 0.0 0 0 129.19 19.43   L 126.36 11.73   A 0.32 0.32 0.0 0 0 125.76 11.73   L 122.93 19.43"/>
<path stroke="#62610c" vector-effect="non-scaling-stroke" d="   M 97.92 36.04   L 81.74 60.00   Q 81.39 60.50 82.00 60.50   L 97.83 60.50   Q 98.42 60.50 98.42 59.91   L 98.42 36.19   Q 98.42 35.29 97.92 36.04"/>
</g>
<path fill="#ffffff" d="   M 0.00 0.00   L 165.00 0.00   L 165.00 166.00   L 84.49 166.00   L 86.51 165.50   Q 86.99 165.38 87.28 164.99   C 88.19 163.82 89.20 163.11 89.90 161.71   Q 126.69 88.37 163.47 15.02   Q 164.48 13.01 163.27 10.22   Q 162.25 2.33 155.51 2.33   Q 82.82 2.34 11.88 2.34   Q 7.51 2.34 5.75 3.21   Q 2.49 4.82 2.13 8.99   Q 1.94 11.19 3.38 13.63   Q 3.27 14.65 3.94 16.00   Q 40.62 89.41 77.53 162.71   Q 78.87 165.37 82.11 166.00   L 0.00 166.00   L 0.00 0.00   Z"/>
<path fill="#c4c218" d="   M 163.27 10.22   Q 126.67 83.31 89.94 156.45   Q 88.33 159.65 87.03 160.87   C 84.03 163.69 78.29 162.82 76.41 159.05   Q 40.04 86.28 3.38 13.63   Q 1.94 11.19 2.13 8.99   Q 2.49 4.82 5.75 3.21   Q 7.51 2.34 11.88 2.34   Q 82.82 2.34 155.51 2.33   Q 162.25 2.33 163.27 10.22   Z   M 130.70 23.96   A 0.33 0.33 0.0 0 1 131.01 24.17   L 133.00 29.26   A 0.33 0.33 0.0 0 0 133.30 29.47   L 137.92 29.49   A 0.33 0.33 0.0 0 0 138.23 29.04   L 128.76 5.51   A 0.33 0.33 0.0 0 0 128.46 5.30   L 123.73 5.27   A 0.33 0.33 0.0 0 0 123.42 5.48   L 114.23 29.03   A 0.33 0.33 0.0 0 0 114.53 29.48   L 119.02 29.47   A 0.33 0.33 0.0 0 0 119.33 29.25   L 121.17 24.18   A 0.33 0.33 0.0 0 1 121.48 23.96   L 130.70 23.96   Z   M 48.78 35.30   L 48.77 87.30   Q 48.77 87.82 49.30 87.82   L 62.71 87.85   A 0.33 0.32 -90.0 0 0 63.03 87.52   L 63.03 14.24   Q 63.03 13.69 62.49 13.69   L 52.01 13.69   Q 51.43 13.69 51.23 14.23   C 48.09 22.67 39.17 28.94 31.04 32.16   Q 30.48 32.38 30.48 32.98   L 30.48 44.51   Q 30.48 45.17 31.11 44.96   C 37.62 42.73 43.05 39.56 48.19 35.03   Q 48.78 34.52 48.78 35.30   Z   M 112.18 73.29   A 0.32 0.32 0.0 0 1 112.50 72.97   L 121.05 72.98   A 0.32 0.32 0.0 0 0 121.37 72.66   L 121.36 60.82   A 0.32 0.32 0.0 0 0 121.04 60.50   L 112.50 60.51   A 0.32 0.32 0.0 0 1 112.18 60.19   L 112.18 14.01   A 0.32 0.32 0.0 0 0 111.86 13.69   L 100.38 13.69   A 0.32 0.32 0.0 0 0 100.11 13.83   L 68.16 60.47   A 0.32 0.32 0.0 0 0 68.10 60.65   L 68.04 72.66   A 0.32 0.32 0.0 0 0 68.36 72.98   L 98.11 72.98   A 0.32 0.32 0.0 0 1 98.43 73.30   L 98.42 87.50   A 0.32 0.32 0.0 0 0 98.74 87.82   L 111.87 87.84   A 0.32 0.32 0.0 0 0 112.19 87.52   L 112.18 73.29   Z"/>
<path fill="#000000" d="   M 130.70 23.96   L 121.48 23.96   A 0.33 0.33 0.0 0 0 121.17 24.18   L 119.33 29.25   A 0.33 0.33 0.0 0 1 119.02 29.47   L 114.53 29.48   A 0.33 0.33 0.0 0 1 114.23 29.03   L 123.42 5.48   A 0.33 0.33 0.0 0 1 123.73 5.27   L 128.46 5.30   A 0.33 0.33 0.0 0 1 128.76 5.51   L 138.23 29.04   A 0.33 0.33 0.0 0 1 137.92 29.49   L 133.30 29.47   A 0.33 0.33 0.0 0 1 133.00 29.26   L 131.01 24.17   A 0.33 0.33 0.0 0 0 130.70 23.96   Z   M 122.93 19.43   A 0.32 0.32 0.0 0 0 123.23 19.86   L 128.89 19.86   A 0.32 0.32 0.0 0 0 129.19 19.43   L 126.36 11.73   A 0.32 0.32 0.0 0 0 125.76 11.73   L 122.93 19.43   Z"/>
<path fill="#404040" d="   M 163.27 10.22   Q 164.48 13.01 163.47 15.02   Q 126.69 88.37 89.90 161.71   C 89.20 163.11 88.19 163.82 87.28 164.99   Q 86.99 165.38 86.51 165.50   L 84.49 166.00   L 82.11 166.00   Q 78.87 165.37 77.53 162.71   Q 40.62 89.41 3.94 16.00   Q 3.27 14.65 3.38 13.63   Q 40.04 86.28 76.41 159.05   C 78.29 162.82 84.03 163.69 87.03 160.87   Q 88.33 159.65 89.94 156.45   Q 126.67 83.31 163.27 10.22   Z"/>
<path fill="#c4c218" d="   M 122.93 19.43   L 125.76 11.73   A 0.32 0.32 0.0 0 1 126.36 11.73   L 129.19 19.43   A 0.32 0.32 0.0 0 1 128.89 19.86   L 123.23 19.86   A 0.32 0.32 0.0 0 1 122.93 19.43   Z"/>
<path fill="#000000" d="   M 48.19 35.03   C 43.05 39.56 37.62 42.73 31.11 44.96   Q 30.48 45.17 30.48 44.51   L 30.48 32.98   Q 30.48 32.38 31.04 32.16   C 39.17 28.94 48.09 22.67 51.23 14.23   Q 51.43 13.69 52.01 13.69   L 62.49 13.69   Q 63.03 13.69 63.03 14.24   L 63.03 87.52   A 0.33 0.32 90.0 0 1 62.71 87.85   L 49.30 87.82   Q 48.77 87.82 48.77 87.30   L 48.78 35.30   Q 48.78 34.52 48.19 35.03   Z"/>
<path fill="#000000" d="   M 112.18 73.29   L 112.19 87.52   A 0.32 0.32 0.0 0 1 111.87 87.84   L 98.74 87.82   A 0.32 0.32 0.0 0 1 98.42 87.50   L 98.43 73.30   A 0.32 0.32 0.0 0 0 98.11 72.98   L 68.36 72.98   A 0.32 0.32 0.0 0 1 68.04 72.66   L 68.10 60.65   A 0.32 0.32 0.0 0 1 68.16 60.47   L 100.11 13.83   A 0.32 0.32 0.0 0 1 100.38 13.69   L 111.86 13.69   A 0.32 0.32 0.0 0 1 112.18 14.01   L 112.18 60.19   A 0.32 0.32 0.0 0 0 112.50 60.51   L 121.04 60.50   A 0.32 0.32 0.0 0 1 121.36 60.82   L 121.37 72.66   A 0.32 0.32 0.0 0 1 121.05 72.98   L 112.50 72.97   A 0.32 0.32 0.0 0 0 112.18 73.29   Z   M 97.92 36.04   L 81.74 60.00   Q 81.39 60.50 82.00 60.50   L 97.83 60.50   Q 98.42 60.50 98.42 59.91   L 98.42 36.19   Q 98.42 35.29 97.92 36.04   Z"/>
<path fill="#c4c218" d="   M 97.92 36.04   Q 98.42 35.29 98.42 36.19   L 98.42 59.91   Q 98.42 60.50 97.83 60.50   L 82.00 60.50   Q 81.39 60.50 81.74 60.00   L 97.92 36.04   Z"/>
</svg>