<svg xmlns="http://www.w3.org/2000/svg" version="1.1" viewBox="0 -0.5 165 166.5">
<g stroke-width="2.00" fill="none" stroke-linecap="butt">
<path stroke="#a0a0a0" vector-effect="non-scaling-stroke" d="   M 2.42 113.55   Q 3.09 116.63 4.97 118.52   Q 26.19 139.77 47.46 160.79   Q 50.43 163.73 54.28 163.73   Q 80.94 163.74 110.00 163.75   C 112.60 163.76 115.30 162.69 117.12 160.87   Q 138.64 139.39 160.12 117.86   Q 162.93 115.04 162.21 109.28"/>
<path stroke="#e48082" vector-effect="non-scaling-stroke" d="   M 162.21 109.28   Q 162.32 84.03 162.20 58.40   C 162.17 53.37 161.51 48.62 158.20 45.32   Q 136.94 24.09 116.73 3.80   C 114.79 1.86 112.25 0.50 109.44 0.50   Q 81.24 0.51 53.61 0.50   C 50.94 0.49 48.30 1.57 46.44 3.43   Q 5.58 44.30 5.32 44.52   C 2.79 46.71 1.32 49.55 1.31 53.00   Q 1.28 80.38 1.32 107.75   Q 1.32 110.62 2.42 113.55"/>
<path stroke="#842023" vector-effect="non-scaling-stroke" d="   M 162.21 109.28   Q 160.08 113.86 158.85 115.10   Q 138.62 135.33 117.25 156.68   C 114.41 159.52 112.38 160.61 108.58 160.61   Q 81.01 160.60 53.64 160.60   C 50.75 160.60 48.02 159.30 45.98 157.27   Q 24.11 135.45 2.42 113.55"/>
<path stroke="#e48082" vector-effect="non-scaling-stroke" d="   M 98.59 95.80   A 0.41 0.41 0.0 0 1 98.97 96.06   L 105.74 113.67   A 0.41 0.41 0.0 0 0 106.12 113.93   L 122.71 113.95   A 0.41 0.41 0.0 0 0 123.09 113.39   L 91.53 34.56   A 0.41 0.41 0.0 0 0 91.15 34.30   L 74.75 34.30   A 0.41 0.41 0.0 0 0 74.37 34.56   L 43.66 113.39   A 0.41 0.41 0.0 0 0 44.04 113.95   L 60.19 113.93   A 0.41 0.41 0.0 0 0 60.58 113.66   L 66.97 96.06   A 0.41 0.41 0.0 0 1 67.36 95.79   L 98.59 95.80"/>
<path stroke="#e48082" vector-effect="non-scaling-stroke" d="   M 72.13 82.06   A 0.31 0.31 0.0 0 0 72.42 82.47   L 93.27 82.44   A 0.31 0.31 0.0 0 0 93.56 82.02   L 83.09 53.68   A 0.31 0.31 0.0 0 0 82.51 53.68   L 72.13 82.06"/>
</g>
<path fill="#ffffff" d="   M 0.00 0.00   L 165.00 0.00   L 165.00 166.00   L 0.00 166.00   L 0.00 0.00   Z   M 2.42 113.55   Q 3.09 116.63 4.97 118.52   Q 26.19 139.77 47.46 160.79   Q 50.43 163.73 54.28 163.73   Q 80.94 163.74 110.00 163.75   C 112.60 163.76 115.30 162.69 117.12 160.87   Q 138.64 139.39 160.12 117.86   Q 162.93 115.04 162.21 109.28   Q 162.32 84.03 162.20 58.40   C 162.17 53.37 161.51 48.62 158.20 45.32   Q 136.94 24.09 116.73 3.80   C 114.79 1.86 112.25 0.50 109.44 0.50   Q 81.24 0.51 53.61 0.50   C 50.94 0.49 48.30 1.57 46.44 3.43   Q 5.58 44.30 5.32 44.52   C 2.79 46.71 1.32 49.55 1.31 53.00   Q 1.28 80.38 1.32 107.75   Q 1.32 110.62 2.42 113.55   Z"/>
<path fill="#c80005" d="   M 162.21 109.28   Q 160.08 113.86 158.85 115.10   Q 138.62 135.33 117.25 156.68   C 114.41 159.52 112.38 160.61 108.58 160.61   Q 81.01 160.60 53.64 160.60   C 50.75 160.60 48.02 159.30 45.98 157.27   Q 24.11 135.45 2.42 113.55   Q 1.32 110.62 1.32 107.75   Q 1.28 80.38 1.31 53.00   C 1.32 49.55 2.79 46.71 5.32 44.52   Q 5.58 44.30 46.44 3.43   C 48.30 1.57 50.94 0.49 53.61 0.50   Q 81.24 0.51 109.44 0.50   C 112.25 0.50 114.79 1.86 116.73 3.80   Q 136.94 24.09 158.20 45.32   C 161.51 48.62 162.17 53.37 162.20 58.40   Q 162.32 84.03 162.21 109.28   Z   M 98.59 95.80   A 0.41 0.41 0.0 0 1 98.97 96.06   L 105.74 113.67   A 0.41 0.41 0.0 0 0 106.12 113.93   L 122.71 113.95   A 0.41 0.41 0.0 0 0 123.09 113.39   L 91.53 34.56   A 0.41 0.41 0.0 0 0 91.15 34.30   L 74.75 34.30   A 0.41 0.41 0.0 0 0 74.37 34.56   L 43.66 113.39   A 0.41 0.41 0.0 0 0 44.04 113.95   L 60.19 113.93   A 0.41 0.41 0.0 0 0 60.58 113.66   L 66.97 96.06   A 0.41 0.41 0.0 0 1 67.36 95.79   L 98.59 95.80   Z"/>
<path fill="#ffffff" d="   M 98.59 95.80   L 67.36 95.79   A 0.41 0.41 0.0 0 0 66.97 96.06   L 60.58 113.66   A 0.41 0.41 0.0 0 1 60.19 113.93   L 44.04 113.95   A 0.41 0.41 0.0 0 1 43.66 113.39   L 74.37 34.56   A 0.41 0.41 0.0 0 1 74.75 34.30   L 91.15 34.30   A 0.41 0.41 0.0 0 1 91.53 34.56   L 123.09 113.39   A 0.41 0.41 0.0 0 1 122.71 113.95   L 106.12 113.93   A 0.41 0.41 0.0 0 1 105.74 113.67   L 98.97 96.06   A 0.41 0.41 0.0 0 0 98.59 95.80   Z   M 72.13 82.06   A 0.31 0.31 0.0 0 0 72.42 82.47   L 93.27 82.44   A 0.31 0.31 0.0 0 0 93.56 82.02   L 83.09 53.68   A 0.31 0.31 0.0 0 0 82.51 53.68   L 72.13 82.06   Z"/>
<path fill="#c80005" d="   M 72.13 82.06   L 82.51 53.68   A 0.31 0.31 0.0 0 1 83.09 53.68   L 93.56 82.02   A 0.31 0.31 0.0 0 1 93.27 82.44   L 72.42 82.47   A 0.31 0.31 0.0 0 1 72.13 82.06   Z"/>
<path fill="#404040" d="   M 162.21 109.28   Q 162.93 115.04 160.12 117.86   Q 138.64 139.39 117.12 160.87   C 115.30 162.69 112.60 163.76 110.00 163.75   Q 80.94 163.74 54.28 163.73   Q 50.43 163.73 47.46 160.79   Q 26.19 139.77 4.97 118.52   Q 3.09 116.63 2.42 113.55   Q 24.11 135.45 45.98 157.27   C 48.02 159.30 50.75 160.60 53.64 160.60   Q 81.01 160.60 108.58 160.61   C 112.38 160.61 114.41 159.52 117.25 156.68   Q 138.62 135.33 158.85 115.10   Q 160.08 113.86 162.21 109.28   Z"/>
</svg>