<svg xmlns="http://www.w3.org/2000/svg" version="1.1" viewBox="-0.73 -0.72 182.73 185.72">
<g stroke-width="2.00" fill="none" stroke-linecap="butt">
<path stroke="#a0a0a0" vector-effect="non-scaling-stroke" d="   M 14.56 138.28   Q 17.01 143.89 20.68 148.35   Q 26.86 155.87 33.81 162.13   Q 35.26 163.43 36.85 164.51   Q 38.45 165.59 40.08 166.81   Q 42.43 168.55 45.00 170.03   Q 47.88 171.69 50.74 173.39   C 52.84 174.63 54.98 175.23 57.08 176.32   C 60.03 177.85 63.16 178.27 66.25 179.48   C 70.90 181.29 76.58 181.66 81.53 182.50   C 91.82 184.25 102.23 182.53 112.41 180.67   C 115.17 180.17 117.69 179.04 120.34 178.22   Q 124.20 177.02 126.15 176.16   Q 155.62 163.21 170.86 134.67   C 171.85 132.81 172.45 130.91 173.46 129.07   C 174.95 126.34 175.30 123.42 176.49 120.63   C 178.09 116.85 178.46 112.44 179.33 108.37   C 180.80 101.46 180.81 94.04 180.42 87.07   Q 180.22 83.60 179.13 78.52   C 178.35 74.91 178.06 69.32 175.93 66.38"/>
<path stroke="#8ec590" vector-effect="non-scaling-stroke" d="   M 175.93 66.38   Q 163.77 25.92 125.55 7.79   Q 123.54 6.84 121.54 6.28   Q 119.35 5.66 117.25 4.80   C 112.96 3.02 108.58 2.68 104.18 1.67   C 96.79 -0.04 87.98 0.06 80.85 0.75   Q 77.56 1.07 73.48 1.95   C 69.91 2.71 66.01 3.07 62.63 4.48   C 59.67 5.71 56.70 6.36 53.69 7.75   Q 44.85 11.84 36.83 17.54   Q 32.70 20.48 28.55 24.52   Q 22.96 29.96 20.56 32.92   Q 12.91 42.34 7.36 54.53   C 6.26 56.94 5.70 59.41 4.77 61.83   C 3.26 65.75 2.74 69.70 1.86 73.78   Q 1.06 77.44 0.76 80.52   C 0.05 87.71 -0.05 96.58 1.60 104.00   Q 2.53 108.20 3.32 112.52   C 3.86 115.45 5.23 118.23 6.15 121.12   Q 6.83 123.31 7.93 125.84   Q 8.69 127.59 9.81 130.43   Q 11.21 133.98 14.56 138.28"/>
<path stroke="#2f6531" vector-effect="non-scaling-stroke" d="   M 175.93 66.38   Q 179.92 84.98 177.64 103.19   C 177.07 107.71 175.61 111.89 174.66 116.29   C 174.14 118.71 172.84 120.62 172.14 123.05   Q 171.49 125.30 169.90 128.22   Q 167.73 132.17 165.47 136.05   Q 158.34 148.29 146.41 158.14   Q 139.88 163.53 133.98 166.77   Q 128.14 169.98 120.42 173.22   C 117.07 174.62 113.71 175.24 110.35 176.20   Q 106.55 177.30 102.57 177.76   Q 88.45 179.40 74.54 177.51   C 71.04 177.03 67.80 175.79 64.38 175.03   Q 60.93 174.27 57.15 172.61   Q 47.92 168.59 42.81 165.45   Q 26.83 155.63 14.56 138.28"/>
<path stroke="#8ec590" vector-effect="non-scaling-stroke" d="   M 116.26 97.99   L 116.25 110.02   Q 116.25 110.61 115.80 110.96   C 110.63 115.02 103.42 117.96 97.13 119.12   Q 89.47 120.53 82.15 118.29   C 73.78 115.72 67.11 109.24 64.40 101.20   Q 60.05 88.27 62.00 73.88   Q 62.22 72.24 62.74 70.53   C 63.61 67.68 64.04 65.16 65.45 62.36   Q 68.68 55.97 74.40 52.36   Q 77.31 50.52 80.15 49.57   C 88.55 46.75 96.46 46.76 104.73 50.70   C 105.82 51.22 106.38 52.15 107.46 52.71   Q 108.47 53.23 109.27 54.01   Q 113.76 58.41 114.75 63.54   Q 114.87 64.17 115.51 64.11   C 121.58 63.45 126.57 61.83 132.17 61.06   Q 133.75 60.84 135.55 60.23   A 0.64 0.63 76.7 0 0 135.97 59.54   C 135.44 55.64 133.49 52.19 131.67 48.75   Q 129.83 45.28 127.39 42.66   Q 119.50 34.21 109.27 31.68   Q 96.84 28.61 81.16 30.40   Q 72.43 31.39 65.12 35.52   C 53.46 42.09 44.71 53.43 41.74 66.75   Q 40.47 72.42 40.16 74.95   Q 39.01 84.46 40.28 92.03   Q 41.06 96.67 42.26 101.87   C 42.85 104.41 44.03 106.55 44.90 108.96   Q 45.76 111.31 47.32 113.97   Q 55.63 128.10 70.34 133.57   Q 82.78 138.19 95.35 137.66   Q 103.73 137.31 115.20 133.80   C 117.88 132.98 120.41 131.67 123.04 130.68   Q 127.55 128.98 135.01 123.76   Q 136.29 122.86 137.20 121.45   Q 137.49 121.01 137.49 120.49   L 137.49 80.25   A 0.24 0.24 0.0 0 0 137.25 80.01   L 92.47 80.01   Q 91.95 80.01 91.95 80.53   L 91.98 97.22   A 0.25 0.24 90.0 0 0 92.22 97.47   L 115.74 97.47   Q 116.26 97.47 116.26 97.99"/>
</g>
<path fill="#ffffff" d="   M 0.00 0.00   L 182.00 0.00   L 182.00 185.00   L 0.00 185.00   L 0.00 0.00   Z   M 14.56 138.28   Q 17.01 143.89 20.68 148.35   Q 26.86 155.87 33.81 162.13   Q 35.26 163.43 36.85 164.51   Q 38.45 165.59 40.08 166.81   Q 42.43 168.55 45.00 170.03   Q 47.88 171.69 50.74 173.39   C 52.84 174.63 54.98 175.23 57.08 176.32   C 60.03 177.85 63.16 178.27 66.25 179.48   C 70.90 181.29 76.58 181.66 81.53 182.50   C 91.82 184.25 102.23 182.53 112.41 180.67   C 115.17 180.17 117.69 179.04 120.34 178.22   Q 124.20 177.02 126.15 176.16   Q 155.62 163.21 170.86 134.67   C 171.85 132.81 172.45 130.91 173.46 129.07   C 174.95 126.34 175.30 123.42 176.49 120.63   C 178.09 116.85 178.46 112.44 179.33 108.37   C 180.80 101.46 180.81 94.04 180.42 87.07   Q 180.22 83.60 179.13 78.52   C 178.35 74.91 178.06 69.32 175.93 66.38   Q 163.77 25.92 125.55 7.79   Q 123.54 6.84 121.54 6.28   Q 119.35 5.66 117.25 4.80   C 112.96 3.02 108.58 2.68 104.18 1.67   C 96.79 -0.04 87.98 0.06 80.85 0.75   Q 77.56 1.07 73.48 1.95   C 69.91 2.71 66.01 3.07 62.63 4.48   C 59.67 5.71 56.70 6.36 53.69 7.75   Q 44.85 11.84 36.83 17.54   Q 32.70 20.48 28.55 24.52   Q 22.96 29.96 20.56 32.92   Q 12.91 42.34 7.36 54.53   C 6.26 56.94 5.70 59.41 4.77 61.83   C 3.26 65.75 2.74 69.70 1.86 73.78   Q 1.06 77.44 0.76 80.52   C 0.05 87.71 -0.05 96.58 1.60 104.00   Q 2.53 108.20 3.32 112.52   C 3.86 115.45 5.23 118.23 6.15 121.12   Q 6.83 123.31 7.93 125.84   Q 8.69 127.59 9.81 130.43   Q 11.21 133.98 14.56 138.28   Z"/>
<path fill="#1d8a21" d="   M 175.93 66.38   Q 179.92 84.98 177.64 103.19   C 177.07 107.71 175.61 111.89 174.66 116.29   C 174.14 118.71 172.84 120.62 172.14 123.05   Q 171.49 125.30 169.90 128.22   Q 167.73 132.17 165.47 136.05   Q 158.34 148.29 146.41 158.14   Q 139.88 163.53 133.98 166.77   Q 128.14 169.98 120.42 173.22   C 117.07 174.62 113.71 175.24 110.35 176.20   Q 106.55 177.30 102.57 177.76   Q 88.45 179.40 74.54 177.51   C 71.04 177.03 67.80 175.79 64.38 175.03   Q 60.93 174.27 57.15 172.61   Q 47.92 168.59 42.81 165.45   Q 26.83 155.63 14.56 138.28   Q 11.21 133.98 9.81 130.43   Q 8.69 127.59 7.93 125.84   Q 6.83 123.31 6.15 121.12   C 5.23 118.23 3.86 115.45 3.32 112.52   Q 2.53 108.20 1.60 104.00   C -0.05 96.58 0.05 87.71 0.76 80.52   Q 1.06 77.44 1.86 73.78   C 2.74 69.70 3.26 65.75 4.77 61.83   C 5.70 59.41 6.26 56.94 7.36 54.53   Q 12.91 42.34 20.56 32.92   Q 22.96 29.96 28.55 24.52   Q 32.70 20.48 36.83 17.54   Q 44.85 11.84 53.69 7.75   C 56.70 6.36 59.67 5.71 62.63 4.48   C 66.01 3.07 69.91 2.71 73.48 1.95   Q 77.56 1.07 80.85 0.75   C 87.98 0.06 96.79 -0.04 104.18 1.67   C 108.58 2.68 112.96 3.02 117.25 4.80   Q 119.35 5.66 121.54 6.28   Q 123.54 6.84 125.55 7.79   Q 163.77 25.92 175.93 66.38   Z   M 116.26 97.99   L 116.25 110.02   Q 116.25 110.61 115.80 110.96   C 110.63 115.02 103.42 117.96 97.13 119.12   Q 89.47 120.53 82.15 118.29   C 73.78 115.72 67.11 109.24 64.40 101.20   Q 60.05 88.27 62.00 73.88   Q 62.22 72.24 62.74 70.53   C 63.61 67.68 64.04 65.16 65.45 62.36   Q 68.68 55.97 74.40 52.36   Q 77.31 50.52 80.15 49.57   C 88.55 46.75 96.46 46.76 104.73 50.70   C 105.82 51.22 106.38 52.15 107.46 52.71   Q 108.47 53.23 109.27 54.01   Q 113.76 58.41 114.75 63.54   Q 114.87 64.17 115.51 64.11   C 121.58 63.45 126.57 61.83 132.17 61.06   Q 133.75 60.84 135.55 60.23   A 0.64 0.63 76.7 0 0 135.97 59.54   C 135.44 55.64 133.49 52.19 131.67 48.75   Q 129.83 45.28 127.39 42.66   Q 119.50 34.21 109.27 31.68   Q 96.84 28.61 81.16 30.40   Q 72.43 31.39 65.12 35.52   C 53.46 42.09 44.71 53.43 41.74 66.75   Q 40.47 72.42 40.16 74.95   Q 39.01 84.46 40.28 92.03   Q 41.06 96.67 42.26 101.87   C 42.85 104.41 44.03 106.55 44.90 108.96   Q 45.76 111.31 47.32 113.97   Q 55.63 128.10 70.34 133.57   Q 82.78 138.19 95.35 137.66   Q 103.73 137.31 115.20 133.80   C 117.88 132.98 120.41 131.67 123.04 130.68   Q 127.55 128.98 135.01 123.76   Q 136.29 122.86 137.20 121.45   Q 137.49 121.01 137.49 120.49   L 137.49 80.25   A 0.24 0.24 0.0 0 0 137.25 80.01   L 92.47 80.01   Q 91.95 80.01 91.95 80.53   L 91.98 97.22   A 0.25 0.24 90.0 0 0 92.22 97.47   L 115.74 97.47   Q 116.26 97.47 116.26 97.99   Z"/>
<path fill="#ffffff" d="   M 115.74 97.47   L 92.22 97.47   A 0.25 0.24 -90.0 0 1 91.98 97.22   L 91.95 80.53   Q 91.95 80.01 92.47 80.01   L 137.25 80.01   A 0.24 0.24 0.0 0 1 137.49 80.25   L 137.49 120.49   Q 137.49 121.01 137.20 121.45   Q 136.29 122.86 135.01 123.76   Q 127.55 128.98 123.04 130.68   C 120.41 131.67 117.88 132.98 115.20 133.80   Q 103.73 137.31 95.35 137.66   Q 82.78 138.19 70.34 133.57   Q 55.63 128.10 47.32 113.97   Q 45.76 111.31 44.90 108.96   C 44.03 106.55 42.85 104.41 42.26 101.87   Q 41.06 96.67 40.28 92.03   Q 39.01 84.46 40.16 74.95   Q 40.47 72.42 41.74 66.75   C 44.71 53.43 53.46 42.09 65.12 35.52   Q 72.43 31.39 81.16 30.40   Q 96.84 28.61 109.27 31.68   Q 119.50 34.21 127.39 42.66   Q 129.83 45.28 131.67 48.75   C 133.49 52.19 135.44 55.64 135.97 59.54   A 0.64 0.63 76.7 0 1 135.55 60.23   Q 133.75 60.84 132.17 61.06   C 126.57 61.83 121.58 63.45 115.51 64.11   Q 114.87 64.17 114.75 63.54   Q 113.76 58.41 109.27 54.01   Q 108.47 53.23 107.46 52.71   C 106.38 52.15 105.82 51.22 104.73 50.70   C 96.46 46.76 88.55 46.75 80.15 49.57   Q 77.31 50.52 74.40 52.36   Q 68.68 55.97 65.45 62.36   C 64.04 65.16 63.61 67.68 62.74 70.53   Q 62.22 72.24 62.00 73.88   Q 60.05 88.27 64.40 101.20   C 67.11 109.24 73.78 115.72 82.15 118.29   Q 89.47 120.53 97.13 119.12   C 103.42 117.96 110.63 115.02 115.80 110.96   Q 116.25 110.61 116.25 110.02   L 116.26 97.99   Q 116.26 97.47 115.74 97.47   Z"/>
<path fill="#404040" d="   M 175.93 66.38   C 178.06 69.32 178.35 74.91 179.13 78.52   Q 180.22 83.60 180.42 87.07   C 180.81 94.04 180.80 101.46 179.33 108.37   C 178.46 112.44 178.09 116.85 176.49 120.63   C 175.30 123.42 174.95 126.34 173.46 129.07   C 172.45 130.91 171.85 132.81 170.86 134.67   Q 155.62 163.21 126.15 176.16   Q 124.20 177.02 120.34 178.22   C 117.69 179.04 115.17 180.17 112.41 180.67   C 102.23 182.53 91.82 184.25 81.53 182.50   C 76.58 181.66 70.90 181.29 66.25 179.48   C 63.16 178.27 60.03 177.85 57.08 176.32   C 54.98 175.23 52.84 174.63 50.74 173.39   Q 47.88 171.69 45.00 170.03   Q 42.43 168.55 40.08 166.81   Q 38.45 165.59 36.85 164.51   Q 35.26 163.43 33.81 162.13   Q 26.86 155.87 20.68 148.35   Q 17.01 143.89 14.56 138.28   Q 26.83 155.63 42.81 165.45   Q 47.92 168.59 57.15 172.61   Q 60.93 174.27 64.38 175.03   C 67.80 175.79 71.04 177.03 74.54 177.51   Q 88.45 179.40 102.57 177.76   Q 106.55 177.30 110.35 176.20   C 113.71 175.24 117.07 174.62 120.42 173.22   Q 128.14 169.98 133.98 166.77   Q 139.88 163.53 146.41 158.14   Q 158.34 148.29 165.47 136.05   Q 167.73 132.17 169.90 128.22   Q 171.49 125.30 172.14 123.05   C 172.84 120.62 174.14 118.71 174.66 116.29   C 175.61 111.89 177.07 107.71 177.64 103.19   Q 179.92 84.98 175.93 66.38   Z"/>
</svg>