<svg xmlns="http://www.w3.org/2000/svg" version="1.1" viewBox="0 0 182 166">
<g stroke-width="2.00" fill="none" stroke-linecap="butt">
<path stroke="#a0a0a0" vector-effect="non-scaling-stroke" d="   M 3.81 153.97   Q 6.40 160.34 12.01 162.70   Q 15.11 164.01 18.58 164.01   Q 89.86 163.99 163.21 164.00   C 169.32 164.00 174.76 160.35 177.39 154.92   Q 178.75 152.11 178.83 144.66   Q 179.00 129.71 178.61 114.78"/>
<path stroke="#8081aa" vector-effect="non-scaling-stroke" d="   M 178.61 114.78   Q 178.64 69.39 178.61 23.99   Q 178.61 20.59 178.27 17.98   C 177.06 8.58 171.32 1.99 161.39 1.99   Q 87.26 1.98 17.00 2.02   C 10.92 2.02 5.45 5.88 2.99 11.32   Q 1.69 14.19 1.69 20.40   Q 1.69 82.37 1.68 145.00   Q 1.68 148.98 3.81 153.97"/>
<path stroke="#20224a" vector-effect="non-scaling-stroke" d="   M 178.61 114.78   C 178.63 118.17 178.00 121.50 177.91 124.80   Q 177.70 132.43 177.95 141.09   Q 178.15 147.71 176.79 150.76   C 174.19 156.56 168.75 160.54 162.31 160.58   Q 87.63 160.97 17.55 160.56   Q 14.05 160.54 11.06 159.20   Q 7.23 157.48 3.81 153.97"/>
<path stroke="#8081aa" vector-effect="non-scaling-stroke" d="   M 143.51 85.68   L 143.51 94.03   Q 143.51 94.73 142.93 95.13   C 127.17 105.69 107.75 102.14 104.97 81.09   C 102.95 65.70 107.20 50.14 125.52 49.61   Q 138.28 49.24 142.72 60.90   Q 142.92 61.42 143.47 61.31   L 157.22 58.74   Q 157.83 58.63 157.68 58.02   Q 154.72 46.34 145.25 40.93   C 137.39 36.44 125.90 35.85 117.28 37.44   C 94.99 41.54 85.75 63.83 89.95 84.53   Q 93.77 103.35 109.32 110.36   C 125.07 117.47 144.88 113.30 158.22 102.92   A 1.41 1.40 70.9 0 0 158.75 101.82   L 158.75 73.17   Q 158.75 72.58 158.17 72.58   L 126.85 72.57   Q 126.26 72.57 126.26 73.15   L 126.25 84.55   Q 126.25 85.11 126.81 85.11   L 142.93 85.10   Q 143.51 85.10 143.51 85.68"/>
<path stroke="#8081aa" vector-effect="non-scaling-stroke" d="   M 37.12 84.95   A 0.55 0.55 0.0 0 1 37.68 84.40   Q 46.40 84.56 55.79 84.16   C 70.05 83.56 79.25 75.47 79.21 60.34   C 79.17 49.16 72.40 39.95 61.04 38.52   Q 57.09 38.03 53.25 38.01   Q 37.71 37.96 22.32 37.99   A 0.28 0.28 0.0 0 0 22.04 38.27   L 22.03 111.91   Q 22.03 112.55 22.67 112.55   L 36.55 112.54   Q 37.14 112.54 37.14 111.95   L 37.12 84.95"/>
<path stroke="#8081aa" vector-effect="non-scaling-stroke" d="   M 37.08 50.95   L 37.18 71.47   A 0.29 0.29 0.0 0 0 37.48 71.76   L 52.11 71.68   A 11.62 10.04 -0.3 0 0 63.67 61.58   L 63.67 60.56   A 11.62 10.04 -0.3 0 0 51.99 50.58   L 37.36 50.66   A 0.29 0.29 0.0 0 0 37.08 50.95"/>
</g>
<path fill="#ffffff" d="   M 0.00 0.00   L 182.00 0.00   L 182.00 166.00   L 0.00 166.00   L 0.00 0.00   Z   M 3.81 153.97   Q 6.40 160.34 12.01 162.70   Q 15.11 164.01 18.58 164.01   Q 89.86 163.99 163.21 164.00   C 169.32 164.00 174.76 160.35 177.39 154.92   Q 178.75 152.11 178.83 144.66   Q 179.00 129.71 178.61 114.78   Q 178.64 69.39 178.61 23.99   Q 178.61 20.59 178.27 17.98   C 177.06 8.58 171.32 1.99 161.39 1.99   Q 87.26 1.98 17.00 2.02   C 10.92 2.02 5.45 5.88 2.99 11.32   Q 1.69 14.19 1.69 20.40   Q 1.69 82.37 1.68 145.00   Q 1.68 148.98 3.81 153.97   Z"/>
<path fill="#000354" d="   M 178.61 114.78   C 178.63 118.17 178.00 121.50 177.91 124.80   Q 177.70 132.43 177.95 141.09   Q 178.15 147.71 176.79 150.76   C 174.19 156.56 168.75 160.54 162.31 160.58   Q 87.63 160.97 17.55 160.56   Q 14.05 160.54 11.06 159.20   Q 7.23 157.48 3.81 153.97   Q 1.68 148.98 1.68 145.00   Q 1.69 82.37 1.69 20.40   Q 1.69 14.19 2.99 11.32   C 5.45 5.88 10.92 2.02 17.00 2.02   Q 87.26 1.98 161.39 1.99   C 171.32 1.99 177.06 8.58 178.27 17.98   Q 178.61 20.59 178.61 23.99   Q 178.64 69.39 178.61 114.78   Z   M 143.51 85.68   L 143.51 94.03   Q 143.51 94.73 142.93 95.13   C 127.17 105.69 107.75 102.14 104.97 81.09   C 102.95 65.70 107.20 50.14 125.52 49.61   Q 138.28 49.24 142.72 60.90   Q 142.92 61.42 143.47 61.31   L 157.22 58.74   Q 157.83 58.63 157.68 58.02   Q 154.72 46.34 145.25 40.93   C 137.39 36.44 125.90 35.85 117.28 37.44   C 94.99 41.54 85.75 63.83 89.95 84.53   Q 93.77 103.35 109.32 110.36   C 125.07 117.47 144.88 113.30 158.22 102.92   A 1.41 1.40 70.9 0 0 158.75 101.82   L 158.75 73.17   Q 158.75 72.58 158.17 72.58   L 126.85 72.57   Q 126.26 72.57 126.26 73.15   L 126.25 84.55   Q 126.25 85.11 126.81 85.11   L 142.93 85.10   Q 143.51 85.10 143.51 85.68   Z   M 37.12 84.95   A 0.55 0.55 0.0 0 1 37.68 84.40   Q 46.40 84.56 55.79 84.16   C 70.05 83.56 79.25 75.47 79.21 60.34   C 79.17 49.16 72.40 39.95 61.04 38.52   Q 57.09 38.03 53.25 38.01   Q 37.71 37.96 22.32 37.99   A 0.28 0.28 0.0 0 0 22.04 38.27   L 22.03 111.91   Q 22.03 112.55 22.67 112.55   L 36.55 112.54   Q 37.14 112.54 37.14 111.95   L 37.12 84.95   Z"/>
<path fill="#ffffff" d="   M 142.93 85.10   L 126.81 85.11   Q 126.25 85.11 126.25 84.55   L 126.26 73.15   Q 126.26 72.57 126.85 72.57   L 158.17 72.58   Q 158.75 72.58 158.75 73.17   L 158.75 101.82   A 1.41 1.40 70.9 0 1 158.22 102.92   C 144.88 113.30 125.07 117.47 109.32 110.36   Q 93.77 103.35 89.95 84.53   C 85.75 63.83 94.99 41.54 117.28 37.44   C 125.90 35.85 137.39 36.44 145.25 40.93   Q 154.72 46.34 157.68 58.02   Q 157.83 58.63 157.22 58.74   L 143.47 61.31   Q 142.92 61.42 142.72 60.90   Q 138.28 49.24 125.52 49.61   C 107.20 50.14 102.95 65.70 104.97 81.09   C 107.75 102.14 127.17 105.69 142.93 95.13   Q 143.51 94.73 143.51 94.03   L 143.51 85.68   Q 143.51 85.10 142.93 85.10   Z"/>
<path fill="#ffffff" d="   M 37.12 84.95   L 37.14 111.95   Q 37.14 112.54 36.55 112.54   L 22.67 112.55   Q 22.03 112.55 22.03 111.91   L 22.04 38.27   A 0.28 0.28 0.0 0 1 22.32 37.99   Q 37.71 37.96 53.25 38.01   Q 57.09 38.03 61.04 38.52   C 72.40 39.95 79.17 49.16 79.21 60.34   C 79.25 75.47 70.05 83.56 55.79 84.16   Q 46.40 84.56 37.68 84.40   A 0.55 0.55 0.0 0 0 37.12 84.95   Z   M 37.08 50.95   L 37.18 71.47   A 0.29 0.29 0.0 0 0 37.48 71.76   L 52.11 71.68   A 11.62 10.04 -0.3 0 0 63.67 61.58   L 63.67 60.56   A 11.62 10.04 -0.3 0 0 51.99 50.58   L 37.36 50.66   A 0.29 0.29 0.0 0 0 37.08 50.95   Z"/>
<path fill="#000354" d="   M 37.08 50.95   A 0.29 0.29 0.0 0 1 37.36 50.66   L 51.99 50.58   A 11.62 10.04 -0.3 0 1 63.67 60.56   L 63.67 61.58   A 11.62 10.04 -0.3 0 1 52.11 71.68   L 37.48 71.76   A 0.29 0.29 0.0 0 1 37.18 71.47   L 37.08 50.95   Z"/>
<path fill="#404040" d="   M 178.61 114.78   Q 179.00 129.71 178.83 144.66   Q 178.75 152.11 177.39 154.92   C 174.76 160.35 169.32 164.00 163.21 164.00   Q 89.86 163.99 18.58 164.01   Q 15.11 164.01 12.01 162.70   Q 6.40 160.34 3.81 153.97   Q 7.23 157.48 11.06 159.20   Q 14.05 160.54 17.55 160.56   Q 87.63 160.97 162.31 160.58   C 168.75 160.54 174.19 156.56 176.79 150.76   Q 178.15 147.71 177.95 141.09   Q 177.70 132.43 177.91 124.80   C 178.00 121.50 178.63 118.17 178.61 114.78   Z"/>
</svg>