<svg xmlns="http://www.w3.org/2000/svg" version="1.1" viewBox="0 0 165 166">
<g stroke-width="2.00" fill="none" stroke-linecap="butt">
<path stroke="#a0a0a0" vector-effect="non-scaling-stroke" d="   M 5.12 115.20   Q 5.53 117.88 6.68 119.04   Q 27.26 139.68 48.57 160.92   C 50.91 163.25 53.11 164.76 56.27 164.76   Q 81.92 164.75 112.09 164.77   C 114.58 164.78 117.18 163.73 118.97 161.94   Q 140.52 140.40 160.73 120.17   Q 164.00 116.90 164.00 112.75   Q 164.02 98.33 163.61 55.72"/>
<path stroke="#e48082" vector-effect="non-scaling-stroke" d="   M 163.61 55.72   Q 162.94 50.10 160.42 47.59   Q 139.98 27.16 119.26 6.43   C 116.83 4.00 114.64 2.47 111.27 2.47   Q 82.12 2.50 55.66 2.47   C 53.18 2.47 50.57 3.46 48.80 5.23   Q 27.38 26.63 6.65 47.39   C 5.10 48.94 3.78 51.66 3.78 53.75   Q 3.75 81.53 3.78 110.75   Q 3.78 112.01 5.12 115.20"/>
<path stroke="#852023" vector-effect="non-scaling-stroke" d="   M 163.61 55.72   Q 163.32 82.01 163.07 108.35   Q 163.03 111.97 161.96 113.95   Q 160.59 116.46 158.67 118.38   Q 137.80 139.11 118.21 158.78   C 116.49 160.50 113.79 161.64 111.39 161.65   Q 99.19 161.67 56.23 161.69   C 53.07 161.70 50.53 160.58 48.35 158.40   Q 26.78 136.81 5.12 115.20"/>
<path stroke="#e48082" vector-effect="non-scaling-stroke" d="   M 98.60 80.12   C 106.16 79.03 113.24 75.24 116.42 68.24   C 121.26 57.62 117.83 43.51 106.71 38.60   C 103.01 36.97 97.75 36.34 93.98 36.24   Q 80.77 35.91 54.36 36.12   Q 53.77 36.13 53.77 36.71   L 53.77 114.63   Q 53.77 115.24 54.38 115.24   L 69.25 115.24   A 0.51 0.50 0.0 0 0 69.76 114.74   L 69.76 82.54   Q 69.76 82.22 70.08 82.21   C 76.68 82.04 82.85 81.84 87.18 87.87   Q 95.55 99.51 105.47 114.79   Q 105.76 115.24 106.30 115.24   L 124.53 115.24   Q 124.93 115.24 124.72 114.90   Q 118.20 104.27 111.11 93.31   Q 105.96 85.34 98.46 80.76   Q 97.64 80.26 98.60 80.12"/>
<path stroke="#e48082" vector-effect="non-scaling-stroke" d="   M 69.78 49.66   L 69.74 69.24   A 0.21 0.21 0.0 0 0 69.95 69.45   L 91.91 69.49   A 10.13 9.19 0.1 0 0 102.06 60.32   L 102.06 58.70   A 10.13 9.19 0.1 0 0 91.95 49.49   L 69.99 49.45   A 0.21 0.21 0.0 0 0 69.78 49.66"/>
</g>
<path fill="#ffffff" d="   M 0.00 0.00   L 165.00 0.00   L 165.00 166.00   L 0.00 166.00   L 0.00 0.00   Z   M 5.12 115.20   Q 5.53 117.88 6.68 119.04   Q 27.26 139.68 48.57 160.92   C 50.91 163.25 53.11 164.76 56.27 164.76   Q 81.92 164.75 112.09 164.77   C 114.58 164.78 117.18 163.73 118.97 161.94   Q 140.52 140.40 160.73 120.17   Q 164.00 116.90 164.00 112.75   Q 164.02 98.33 163.61 55.72   Q 162.94 50.10 160.42 47.59   Q 139.98 27.16 119.26 6.43   C 116.83 4.00 114.64 2.47 111.27 2.47   Q 82.12 2.50 55.66 2.47   C 53.18 2.47 50.57 3.46 48.80 5.23   Q 27.38 26.63 6.65 47.39   C 5.10 48.94 3.78 51.66 3.78 53.75   Q 3.75 81.53 3.78 110.75   Q 3.78 112.01 5.12 115.20   Z"/>
<path fill="#c80005" d="   M 163.61 55.72   Q 163.32 82.01 163.07 108.35   Q 163.03 111.97 161.96 113.95   Q 160.59 116.46 158.67 118.38   Q 137.80 139.11 118.21 158.78   C 116.49 160.50 113.79 161.64 111.39 161.65   Q 99.19 161.67 56.23 161.69   C 53.07 161.70 50.53 160.58 48.35 158.40   Q 26.78 136.81 5.12 115.20   Q 3.78 112.01 3.78 110.75   Q 3.75 81.53 3.78 53.75   C 3.78 51.66 5.10 48.94 6.65 47.39   Q 27.38 26.63 48.80 5.23   C 50.57 3.46 53.18 2.47 55.66 2.47   Q 82.12 2.50 111.27 2.47   C 114.64 2.47 116.83 4.00 119.26 6.43   Q 139.98 27.16 160.42 47.59   Q 162.94 50.10 163.61 55.72   Z   M 98.60 80.12   C 106.16 79.03 113.24 75.24 116.42 68.24   C 121.26 57.62 117.83 43.51 106.71 38.60   C 103.01 36.97 97.75 36.34 93.98 36.24   Q 80.77 35.91 54.36 36.12   Q 53.77 36.13 53.77 36.71   L 53.77 114.63   Q 53.77 115.24 54.38 115.24   L 69.25 115.24   A 0.51 0.50 0.0 0 0 69.76 114.74   L 69.76 82.54   Q 69.76 82.22 70.08 82.21   C 76.68 82.04 82.85 81.84 87.18 87.87   Q 95.55 99.51 105.47 114.79   Q 105.76 115.24 106.30 115.24   L 124.53 115.24   Q 124.93 115.24 124.72 114.90   Q 118.20 104.27 111.11 93.31   Q 105.96 85.34 98.46 80.76   Q 97.64 80.26 98.60 80.12   Z"/>
<path fill="#ffffff" d="   M 98.46 80.76   Q 105.96 85.34 111.11 93.31   Q 118.20 104.27 124.72 114.90   Q 124.93 115.24 124.53 115.24   L 106.30 115.24   Q 105.76 115.24 105.47 114.79   Q 95.55 99.51 87.18 87.87   C 82.85 81.84 76.68 82.04 70.08 82.21   Q 69.76 82.22 69.76 82.54   L 69.76 114.74   A 0.51 0.50 0.0 0 1 69.25 115.24   L 54.38 115.24   Q 53.77 115.24 53.77 114.63   L 53.77 36.71   Q 53.77 36.13 54.36 36.12   Q 80.77 35.91 93.98 36.24   C 97.75 36.34 103.01 36.97 106.71 38.60   C 117.83 43.51 121.26 57.62 116.42 68.24   C 113.24 75.24 106.16 79.03 98.60 80.12   Q 97.64 80.26 98.46 80.76   Z   M 69.78 49.66   L 69.74 69.24   A 0.21 0.21 0.0 0 0 69.95 69.45   L 91.91 69.49   A 10.13 9.19 0.1 0 0 102.06 60.32   L 102.06 58.70   A 10.13 9.19 0.1 0 0 91.95 49.49   L 69.99 49.45   A 0.21 0.21 0.0 0 0 69.78 49.66   Z"/>
<path fill="#c80005" d="   M 69.78 49.66   A 0.21 0.21 0.0 0 1 69.99 49.45   L 91.95 49.49   A 10.13 9.19 0.1 0 1 102.06 58.70   L 102.06 60.32   A 10.13 9.19 0.1 0 1 91.91 69.49   L 69.95 69.45   A 0.21 0.21 0.0 0 1 69.74 69.24   L 69.78 49.66   Z"/>
<path fill="#414040" d="   M 163.61 55.72   Q 164.02 98.33 164.00 112.75   Q 164.00 116.90 160.73 120.17   Q 140.52 140.40 118.97 161.94   C 117.18 163.73 114.58 164.78 112.09 164.77   Q 81.92 164.75 56.27 164.76   C 53.11 164.76 50.91 163.25 48.57 160.92   Q 27.26 139.68 6.68 119.04   Q 5.53 117.88 5.12 115.20   Q 26.78 136.81 48.35 158.40   C 50.53 160.58 53.07 161.70 56.23 161.69   Q 99.19 161.67 111.39 161.65   C 113.79 161.64 116.49 160.50 118.21 158.78   Q 137.80 139.11 158.67 118.38   Q 160.59 116.46 161.96 113.95   Q 163.03 111.97 163.07 108.35   Q 163.32 82.01 163.61 55.72   Z"/>
</svg>