<?xml version="1.0" encoding="UTF-8" standalone="no"?>
<svg xmlns="http://www.w3.org/2000/svg"
     version="1.0"
     width="768"
     height="768"
     viewBox="-1.69594 -1.69594 59.9231 59.9231"
     id="svg4105">

    <defs
            id="defs4107">
        <linearGradient x1="0.040040001"
                        y1="-0.92870998"
                        x2="1.04977"
                        y2="-0.92870998"
                        id="linearGradient2798"
                        gradientUnits="userSpaceOnUse"
                        gradientTransform="matrix(0, -60.4137, -60.4137, 0, 318.881, -131.703)"
                        spreadMethod="pad">
            <stop id="stop2800"
                  style="stop-color: rgb(255, 238, 76); stop-opacity: 1;"
                  offset="0"/>
            <stop id="stop2802"
                  style="stop-color: rgb(201, 190, 60); stop-opacity: 1;"
                  offset="1"/>
        </linearGradient>
    </defs>

    <g transform="translate(-346.734, -504.097)"
       id="layer1">
        <path d="M 351.64062,504.09656 C 351.5405,504.09656 350.85787,504.11668 350.01562,504.37781 C 349.17575,504.64031 348.1655,505.16444 347.48438,506.22156 C 347.03024,506.91494 346.73438,507.84318 346.73438,509.00281 L 346.73438,555.72156 C 346.73438,555.81181 346.75438,556.50543 347.01562,557.34656 C 347.27675,558.18756 347.80475,559.21694 348.85938,559.90906 C 349.565,560.36319 350.48338,560.62781 351.64062,560.62781 L 398.35938,560.62781 C 398.46188,560.62781 399.14463,560.60768 399.98438,560.34656 C 400.82425,560.08531 401.82225,559.59244 402.51562,558.53406 C 402.97213,557.82856 403.26562,556.87993 403.26562,555.72156 L 403.26562,509.00281 C 403.26562,508.89906 403.24563,508.21768 402.98438,507.37781 C 402.72312,506.54893 402.19775,505.53019 401.14062,504.84656 C 400.4375,504.39369 399.51901,504.09656 398.35938,504.09656 L 351.64062,504.09656 z"
              id="path5261"
              style="fill:rgb(255, 232, 1);fill-opacity:1;fill-rule:nonzero;stroke:none;opacity:0"/>

        <path d="M 398.3745,559.62156 L 351.64288,559.62156 C 350.63151,559.62156 349.92775,559.38231 349.39312,559.04168 C 348.87126,558.70231 348.50751,558.24818 348.26887,557.76968 C 347.769,556.80293 347.74638,555.77018 347.74638,555.72631 L 347.74638,508.99406 C 347.74638,507.99306 347.98437,507.28993 348.32563,506.75531 C 348.66626,506.23168 349.12088,505.87031 349.60976,505.61881 C 350.56376,505.11956 351.59776,505.09518 351.64288,505.09518 L 351.64288,504.59706 L 351.64288,505.09518 L 351.638,504.59706 L 351.64288,504.59706 L 351.64288,505.09518 L 398.3745,505.09518 C 399.37426,505.10731 400.07851,505.33443 400.61201,505.68718 C 401.14726,506.02781 401.49887,506.48306 401.74912,506.95918 C 402.24962,507.91381 402.2715,508.94643 402.2715,508.99406 L 402.2715,555.73606 C 402.26051,556.73706 402.03226,557.43893 401.68012,557.97481 C 401.3395,558.49731 400.886,558.85981 400.40751,559.09906 C 399.45351,559.59956 398.42025,559.62156 398.3745,559.62156 M 375.00288,558.30443 C 389.33026,558.30443 400.95376,546.69181 400.95376,532.36568 C 400.95376,518.03831 389.33026,506.41468 375.00288,506.41468 C 360.67551,506.41468 349.06412,518.03831 349.06412,532.36568 C 349.06412,546.69181 360.67551,558.30443 375.00288,558.30443"
              id="path2804"
              style="fill:#33b540;fill-opacity:1;fill-rule:nonzero;stroke:none;opacity:0.51178451000000003"/>

        <path d="M 375.00288,558.01868 C 389.17163,558.01868 400.659,546.53431 400.659,532.36568 C 400.659,518.19568 389.17163,506.71018 375.00288,506.71018 C 360.83475,506.71018 349.34801,518.19568 349.34801,532.36568 C 349.34801,546.53431 360.83475,558.01868 375.00288,558.01868"
              id="path2808"
              style="fill:#33b540;fill-opacity:1;fill-rule:nonzero;stroke:none"/>

        <path d="M 374.95776,516.04856 C 374.25338,516.04856 373.71925,515.88981 373.34388,515.56018 C 372.96912,515.24168 372.74212,514.76556 372.66276,514.13931 L 373.75351,514.03806 C 373.82126,514.40056 373.95738,514.67518 374.15088,514.84493 C 374.35526,515.01456 374.62812,515.10618 374.96925,515.10618 C 375.32088,515.10618 375.59425,515.02681 375.77562,514.86693 C 375.95751,514.71918 376.04838,514.53856 376.04838,514.33468 C 376.04838,514.20893 376.01488,514.09543 375.93425,514.00381 C 375.85551,513.91231 375.73037,513.83418 375.53688,513.76456 C 375.40087,513.72068 375.10538,513.64131 374.63912,513.52781 C 374.03726,513.38006 373.61676,513.18593 373.37812,512.97118 C 373.03751,512.67456 372.86726,512.29968 372.86726,511.85668 C 372.86726,511.57343 372.94662,511.31093 373.10588,511.07168 C 373.26462,510.82268 373.50326,510.64081 373.79862,510.50531 C 374.10563,510.37956 374.45726,510.30993 374.88937,510.30993 C 375.58276,510.30993 376.10512,510.47118 376.45738,510.76656 C 376.80951,511.07168 376.99137,511.48181 377.01462,511.99218 L 375.88975,512.03856 C 375.84388,511.75531 375.74137,511.55018 375.58276,511.42456 C 375.42337,511.29881 375.19576,511.24256 374.87776,511.24256 C 374.54876,511.24256 374.2985,511.31093 374.11662,511.43668 C 373.99212,511.52581 373.93475,511.64181 373.93475,511.78706 C 373.93475,511.91281 373.99212,512.02631 374.10563,512.11781 C 374.24175,512.24356 374.583,512.36693 375.128,512.49256 C 375.67363,512.61831 376.08263,512.75381 376.34376,512.88931 C 376.594,513.02731 376.79787,513.20793 376.94626,513.44718 C 377.09387,513.68643 377.17326,513.98181 377.17326,514.33468 C 377.17326,514.65206 377.08238,514.94868 376.912,515.23181 C 376.73012,515.50281 376.47987,515.70793 376.16188,515.84593 C 375.833,515.98143 375.435,516.04856 374.95776,516.04856 M 383.12662,515.94718 L 381.67276,515.94718 L 380.15001,513.34593 L 379.24112,514.27731 L 379.24112,515.94718 L 378.12788,515.94718 L 378.12788,510.41381 L 379.24112,510.41381 L 379.24112,512.86731 L 381.50187,510.41381 L 383.01312,510.41381 L 380.92262,512.56218 L 383.12662,515.94718 M 369.34488,515.94718 L 368.23162,515.94718 L 368.23162,510.41381 L 372.02612,510.41381 L 372.02612,511.34643 L 369.34488,511.34643 L 369.34488,512.65256 L 371.66238,512.65256 L 371.66238,513.59493 L 369.34488,513.59493 L 369.34488,515.94718"
              id="path2824"
              style="fill: rgb(28, 24, 0); fill-opacity: 1; fill-rule: nonzero; stroke: none;"/>

        <path d="M 376.86626,521.44531 C 376.69662,521.44531 376.52576,521.40131 376.36638,521.32193 C 376.20776,521.23043 376.05937,521.10468 375.94651,520.94718 L 375.94651,521.37931 L 375.21887,521.37931 L 375.21887,517.31068 L 376.00262,517.31068 L 376.00262,518.77556 C 376.24125,518.50331 376.52576,518.36781 376.85526,518.36781 C 377.20751,518.36781 377.5145,518.49118 377.74087,518.75243 C 377.9795,519.01481 378.09362,519.38956 378.09362,519.87781 C 378.09362,520.37831 377.9795,520.76531 377.74087,521.03631 C 377.50288,521.30981 377.20751,521.44531 376.86626,521.44531 M 376.65088,518.95743 C 376.45738,518.95743 376.298,519.03681 376.18451,519.17468 C 376.05937,519.32243 375.99162,519.54956 375.99162,519.84493 C 375.99162,520.15131 376.03675,520.36731 376.13937,520.51381 C 376.276,520.71768 376.45738,520.83118 376.67338,520.83118 C 376.84363,520.83118 376.99137,520.75306 377.11588,520.60418 C 377.241,520.45643 377.29775,520.22943 377.29775,519.91206 C 377.29775,519.57143 377.241,519.33218 377.11588,519.18456 C 376.99137,519.03681 376.83276,518.95743 376.65088,518.95743 M 372.86726,521.44531 C 372.56026,521.44531 372.32162,521.36718 372.15126,521.19618 C 371.98037,521.03631 371.89012,520.82143 371.89012,520.57006 C 371.89012,520.40031 371.92425,520.25268 372.00362,520.12931 C 372.083,519.99018 372.19651,519.90231 372.34412,519.83268 C 372.48087,519.75456 372.69637,519.69718 372.95763,519.65081 C 373.32137,519.58368 373.58263,519.51531 373.71925,519.45793 L 373.71925,519.37981 C 373.71925,519.23093 373.68512,519.11731 373.60576,519.06118 C 373.53737,518.99168 373.38975,518.95743 373.18526,518.95743 C 373.04912,518.95743 372.94662,518.99168 372.86726,519.03681 C 372.78787,519.09293 372.71887,519.19668 372.67376,519.33218 L 371.96937,519.20893 C 372.04937,518.91356 372.18551,518.70843 372.37838,518.57043 C 372.57188,518.43493 372.86726,518.36781 373.242,518.36781 C 373.59475,518.36781 373.856,518.40081 374.02625,518.49118 C 374.196,518.57043 374.31012,518.67431 374.37788,518.79993 C 374.44626,518.92331 374.48037,519.16256 374.48037,519.50193 L 374.48037,520.41256 C 374.48037,520.66156 374.492,520.85568 374.514,520.97893 C 374.53712,521.10468 374.583,521.24143 374.65126,521.37931 L 373.878,521.37931 L 373.81026,521.14981 L 373.776,521.06068 C 373.651,521.18406 373.50326,521.28781 373.35551,521.34393 C 373.19626,521.41106 373.03751,521.44531 372.86726,521.44531 M 373.71925,519.95843 C 373.61676,519.99018 373.45751,520.03781 373.242,520.08168 C 373.026,520.12931 372.88988,520.17331 372.82151,520.21968 L 372.66276,520.49068 L 372.78787,520.77506 C 372.86726,520.85568 372.96912,520.88856 373.10588,520.88856 C 373.242,520.88856 373.37812,520.84343 373.50326,520.75306 L 373.68512,520.49068 C 373.70776,520.43456 373.71925,520.30881 373.71925,520.11593 L 373.71925,519.95843"
              id="path2826"
              style="fill: rgb(28, 24, 0); fill-opacity: 1; fill-rule: nonzero; stroke: none;"/>

        <path d="M 376.09412,551.03393 C 375.57112,551.03393 375.208,550.94231 374.98025,550.76043 C 374.76425,550.57731 374.66226,550.36243 374.66226,550.07681 L 374.66226,549.98768 L 375.59425,550.10131 L 375.69563,550.31606 C 375.77562,550.37231 375.90076,550.40768 376.05937,550.40768 C 376.276,550.40768 376.43475,550.37231 376.53662,550.31606 L 376.70763,550.10131 C 376.73012,550.04506 376.74112,549.91931 376.74112,549.73631 L 376.74112,549.28343 C 376.5025,549.61293 376.19551,549.78393 375.82076,549.78393 C 375.41237,549.78393 375.08288,549.61293 374.83326,549.26143 C 374.65126,548.97456 374.54876,548.63393 374.54876,548.22506 C 374.54876,547.71481 374.67388,547.31806 374.9235,547.04456 C 375.17376,546.77243 375.48012,546.63443 375.85551,546.63443 C 376.23025,546.63443 376.54826,546.80531 376.79787,547.13493 L 376.79787,546.70406 L 377.559,546.70406 L 377.559,549.46531 C 377.559,549.82781 377.52551,550.10131 377.46862,550.28193 C 377.40037,550.46381 377.321,550.59931 377.2185,550.70306 C 377.10488,550.80443 376.95726,550.88618 376.77537,550.94231 C 376.60501,550.99968 376.36638,551.03393 376.09412,551.03393 M 376.05937,547.26068 C 375.86651,547.26068 375.70788,547.32781 375.58276,547.48768 C 375.446,547.63543 375.38988,547.87231 375.38988,548.18106 C 375.38988,548.51068 375.446,548.74743 375.58276,548.89643 C 375.70788,549.04418 375.85551,549.12231 376.04838,549.12231 C 376.24125,549.12231 376.41212,549.04418 376.54826,548.89643 C 376.68437,548.73768 376.75338,548.51068 376.75338,548.20306 C 376.75338,547.88443 376.68437,547.64518 376.55926,547.48768 C 376.42312,547.34006 376.2645,547.26068 376.05937,547.26068 M 369.17462,551.03393 C 368.65213,551.03393 368.27675,550.94231 368.06076,550.76043 C 367.84526,550.57731 367.73175,550.36243 367.73175,550.07681 L 367.74275,549.98768 L 368.66312,550.10131 L 368.77662,550.31606 C 368.856,550.37231 368.97012,550.40768 369.14051,550.40768 C 369.35588,550.40768 369.51526,550.37231 369.61712,550.31606 L 369.77637,550.10131 C 369.799,550.04506 369.82226,549.91931 369.82226,549.73631 L 369.82226,549.28343 C 369.57263,549.61293 369.26551,549.78393 368.89076,549.78393 C 368.48125,549.78393 368.15226,549.61293 367.91362,549.26143 C 367.72012,548.97456 367.62926,548.63393 367.62926,548.22506 C 367.62926,547.71481 367.75437,547.31806 368.004,547.04456 C 368.25362,546.77243 368.56063,546.63443 368.92437,546.63443 C 369.31076,546.63443 369.61712,546.80531 369.86738,547.13493 L 369.86738,546.70406 L 370.62912,546.70406 L 370.62912,549.46531 C 370.62912,549.82781 370.60588,550.10131 370.53751,550.28193 C 370.48075,550.46381 370.40137,550.59931 370.28787,550.70306 C 370.186,550.80443 370.03762,550.88618 369.85576,550.94231 C 369.67388,550.99968 369.44751,551.03393 369.17462,551.03393 M 369.14051,547.26068 C 368.93537,547.26068 368.77662,547.32781 368.65213,547.48768 C 368.527,547.63543 368.45862,547.87231 368.45862,548.18106 C 368.45862,548.51068 368.527,548.74743 368.65213,548.89643 C 368.77662,549.04418 368.93537,549.12231 369.11726,549.12231 C 369.32238,549.12231 369.49262,549.04418 369.62937,548.89643 C 369.76551,548.73768 369.83326,548.51068 369.83326,548.20306 C 369.83326,547.88443 369.76551,547.64518 369.62937,547.48768 C 369.50426,547.34006 369.33387,547.26068 369.14051,547.26068 M 386.53551,549.84981 C 386.00137,549.84981 385.60351,549.68006 385.35388,549.32731 C 385.14938,549.04418 385.04676,548.69131 385.04676,548.25918 C 385.04676,547.75868 385.18351,547.36206 385.44475,547.06656 C 385.717,546.78343 386.04663,546.63443 386.45551,546.63443 C 386.92175,546.63443 387.274,546.78343 387.54676,547.09106 C 387.808,547.38393 387.93375,547.85031 387.92162,548.47656 L 385.88788,548.47656 C 385.88788,548.71331 385.95625,548.90868 386.08076,549.04418 C 386.20587,549.17968 386.36512,549.23581 386.54701,549.23581 C 386.67163,549.23581 386.78512,549.20406 386.865,549.13443 C 386.956,549.06606 387.02375,548.95256 387.0695,548.80481 L 387.87576,548.94281 C 387.77326,549.23581 387.61576,549.46531 387.38751,549.62268 C 387.15926,549.77168 386.876,549.84981 386.53551,549.84981 M 386.51288,547.26068 C 386.331,547.26068 386.18326,547.31806 386.06975,547.45356 C 385.95625,547.57931 385.89887,547.75868 385.89887,547.97606 L 387.11526,547.97606 C 387.10251,547.74893 387.04638,547.56706 386.93275,547.44131 C 386.81925,547.31806 386.67163,547.26068 386.51288,547.26068 M 383.34276,549.84981 C 383.17238,549.84981 382.9905,549.80581 382.81962,549.71431 C 382.65001,549.63618 382.50162,549.49706 382.37712,549.32731 L 382.37712,549.78393 L 381.627,549.78393 L 381.627,545.53218 L 382.44488,545.53218 L 382.44488,547.06656 C 382.69512,546.78343 382.9905,546.63443 383.33175,546.63443 C 383.7065,546.63443 384.01351,546.77243 384.26312,547.04456 C 384.51337,547.31806 384.62688,547.70256 384.62688,548.21531 C 384.62688,548.73768 384.50112,549.14793 384.25151,549.41893 C 384.00125,549.71431 383.7065,549.84981 383.34276,549.84981 M 383.11563,547.26068 C 382.92212,547.26068 382.76288,547.32781 382.62676,547.48768 C 382.50162,547.63543 382.43387,547.86243 382.43387,548.18106 C 382.43387,548.49843 382.47912,548.72556 382.581,548.88543 C 382.72925,549.10031 382.91125,549.20406 383.14988,549.20406 C 383.33175,549.20406 383.47887,549.13443 383.604,548.97456 C 383.72912,548.82931 383.79737,548.57781 383.79737,548.24943 C 383.79737,547.89793 383.72912,547.64518 383.604,547.48768 C 383.47887,547.34006 383.30851,547.26068 383.11563,547.26068 M 379.61588,549.84981 C 379.08188,549.84981 378.68451,549.68006 378.42262,549.32731 C 378.22975,549.04418 378.12788,548.69131 378.12788,548.25918 C 378.12788,547.75868 378.253,547.36206 378.52526,547.06656 C 378.78637,546.78343 379.12763,546.63443 379.5365,546.63443 C 379.99125,546.63443 380.35501,546.78343 380.61563,547.09106 C 380.87688,547.38393 381.01362,547.85031 381.002,548.47656 L 378.95675,548.47656 C 378.96837,548.71331 379.02512,548.90868 379.15026,549.04418 C 379.27537,549.17968 379.43462,549.23581 379.62751,549.23581 C 379.75263,549.23581 379.85512,549.20406 379.94551,549.13443 C 380.03587,549.06606 380.09325,548.95256 380.13837,548.80481 L 380.95688,548.94281 C 380.85488,549.23581 380.684,549.46531 380.45637,549.62268 C 380.22987,549.77168 379.9565,549.84981 379.61588,549.84981 M 379.58175,547.26068 C 379.41137,547.26068 379.26376,547.31806 379.13862,547.45356 C 379.02512,547.57931 378.96837,547.75868 378.96837,547.97606 L 380.18412,547.97606 C 380.18412,547.74893 380.12738,547.56706 380.00225,547.44131 C 379.88876,547.31806 379.75263,547.26068 379.58175,547.26068 M 372.68538,549.84981 C 372.15126,549.84981 371.765,549.68006 371.50376,549.32731 C 371.29925,549.04418 371.19675,548.69131 371.19675,548.25918 C 371.19675,547.75868 371.33337,547.36206 371.59462,547.06656 C 371.86751,546.78343 372.20812,546.63443 372.606,546.63443 C 373.07175,546.63443 373.42387,546.78343 373.69612,547.09106 C 373.95738,547.38393 374.08251,547.85031 374.07151,548.47656 L 372.03712,548.47656 C 372.03712,548.71331 372.10612,548.90868 372.23125,549.04418 C 372.35576,549.17968 372.5145,549.23581 372.69637,549.23581 C 372.82151,549.23581 372.935,549.20406 373.026,549.13443 C 373.10588,549.06606 373.17426,548.95256 373.21937,548.80481 L 374.02625,548.94281 C 373.92375,549.23581 373.7645,549.46531 373.53737,549.62268 C 373.31038,549.77168 373.026,549.84981 372.68538,549.84981 M 372.66276,547.26068 C 372.48087,547.26068 372.33326,547.31806 372.219,547.45356 C 372.10612,547.57931 372.04937,547.75868 372.04937,547.97606 L 373.26462,547.97606 C 373.26462,547.74893 373.19626,547.56706 373.08276,547.44131 C 372.96912,547.31806 372.82151,547.26068 372.66276,547.26068 M 364.11851,549.84981 C 363.58437,549.84981 363.18712,549.68006 362.92525,549.32731 C 362.73175,549.04418 362.63038,548.69131 362.63038,548.25918 C 362.63038,547.75868 362.755,547.36206 363.02776,547.06656 C 363.289,546.78343 363.63012,546.63443 364.0385,546.63443 C 364.49387,546.63443 364.85701,546.78343 365.11826,547.09106 C 365.391,547.38393 365.51551,547.85031 365.50462,548.47656 L 363.45925,548.47656 C 363.47087,548.71331 363.52763,548.90868 363.65276,549.04418 C 363.78887,549.17968 363.93662,549.23581 364.13012,549.23581 C 364.25462,549.23581 364.35712,549.20406 364.448,549.13443 C 364.53837,549.06606 364.60738,548.95256 364.64087,548.80481 L 365.45875,548.94281 C 365.35688,549.23581 365.18662,549.46531 364.95887,549.62268 C 364.74351,549.77168 364.459,549.84981 364.11851,549.84981 M 364.08425,547.26068 C 363.914,547.26068 363.76626,547.31806 363.64112,547.45356 C 363.52763,547.57931 363.47087,547.75868 363.47087,547.97606 L 364.68676,547.97606 C 364.68676,547.74893 364.63,547.56706 364.50488,547.44131 C 364.39126,547.31806 364.25462,547.26068 364.08425,547.26068 M 391.38712,549.78393 L 390.56925,549.78393 L 390.56925,548.21531 C 390.56925,547.87231 390.55712,547.67081 390.51251,547.56706 L 390.35263,547.34006 L 390.06876,547.26068 C 389.92112,547.26068 389.79662,547.29368 389.68188,547.37418 C 389.56826,547.45356 389.5005,547.55481 389.45475,547.68056 C 389.41087,547.80631 389.39862,548.04556 389.39862,548.38493 L 389.39862,549.78393 L 388.5795,549.78393 L 388.5795,546.70406 L 389.33026,546.70406 L 389.33026,547.15818 C 389.60312,546.80531 389.943,546.63443 390.35263,546.63443 C 390.52287,546.63443 390.69376,546.66981 390.84087,546.73818 C 390.98862,546.79556 391.10212,546.88593 391.18212,546.97506 C 391.24988,547.07881 391.30662,547.19231 391.34137,547.31806 C 391.36338,547.45356 391.38712,547.63543 391.38712,547.87231 L 391.38712,549.78393 M 366.98162,549.78393 L 366.16376,549.78393 L 366.16376,546.70406 L 366.98162,546.70406 L 366.98162,549.78393 M 361.33462,549.78393 L 360.51675,549.78393 L 360.51675,546.70406 L 361.27787,546.70406 L 361.27787,547.14718 C 361.403,546.93106 361.5165,546.79556 361.63063,546.73818 C 361.732,546.66981 361.84612,546.63443 361.98226,546.63443 C 362.16412,546.63443 362.346,546.68206 362.51626,546.79556 L 362.26662,547.49743 C 362.11838,547.40956 361.99325,547.36206 361.88026,547.36206 C 361.76675,547.36206 361.66426,547.39618 361.58488,547.46581 C 361.50551,547.52193 361.44876,547.63543 361.403,547.79418 C 361.35726,547.96381 361.33462,548.30681 361.33462,548.82931 L 361.33462,549.78393 M 359.49387,549.78393 L 358.676,549.78393 L 358.676,547.34006 L 358.22188,547.34006 L 358.22188,546.70406 L 358.676,546.70406 L 358.676,546.47693 C 358.676,546.21581 358.69851,546.02043 358.75526,545.89718 C 358.81263,545.75918 358.91462,545.65793 359.06238,545.57981 C 359.21062,545.49793 359.39188,545.46618 359.619,545.46618 C 359.85763,545.46618 360.08526,545.49793 360.30075,545.56756 L 360.18726,546.13393 C 360.06212,546.10218 359.937,546.09006 359.82337,546.09006 C 359.69826,546.09006 359.619,546.11206 359.56226,546.16931 C 359.51637,546.22556 359.49387,546.32931 359.49387,546.48681 L 359.49387,546.70406 L 360.09625,546.70406 L 360.09625,547.34006 L 359.49387,547.34006 L 359.49387,549.78393 M 366.98162,546.28168 L 366.16376,546.28168 L 366.16376,545.53218 L 366.98162,545.53218 L 366.98162,546.28168"
              id="path2830"
              style="fill: rgb(28, 24, 0); fill-opacity: 1; fill-rule: nonzero; stroke: none;"/>

        <path d="M 375.01562,506.40906 C 360.68826,506.40906 349.07812,518.05044 349.07812,532.37781 C 349.07812,546.70394 360.68826,558.31531 375.01562,558.31531 C 389.34301,558.31531 400.95312,546.70394 400.95312,532.37781 C 400.95313,518.05044 389.34301,506.40906 375.01562,506.40906 z M 375.01562,507.00281 C 382.02612,507.00281 388.36212,509.84931 392.95312,514.44031 C 397.543,519.02894 400.35937,525.36606 400.35938,532.37781 C 400.35938,539.37606 397.543,545.71206 392.95312,550.31531 C 388.36212,554.90393 382.02613,557.72156 375.01562,557.72156 C 368.01675,557.72156 361.67962,554.90393 357.07812,550.31531 C 352.48775,545.71206 349.64063,539.37606 349.64062,532.37781 C 349.64062,525.36606 352.48775,519.02894 357.07812,514.44031 C 361.67962,509.84931 368.01676,507.00281 375.01562,507.00281 z M 364.64062,508.90906 C 364.02909,509.17969 363.41343,509.46815 362.82812,509.78406 C 363.4182,509.46451 364.02381,509.18243 364.64062,508.90906 z M 361.35938,510.62781 C 360.83873,510.95556 360.32267,511.32705 359.82812,511.69031 C 360.32675,511.32307 360.83415,510.95885 361.35938,510.62781 z M 393.14062,514.22156 C 393.71655,514.79645 394.27741,515.40681 394.79688,516.03406 C 394.274,515.40053 393.72099,514.80189 393.14062,514.22156 z M 395.57812,517.03406 C 396.07064,517.6926 396.52456,518.36001 396.95312,519.06531 C 396.53198,518.37223 396.06106,517.68201 395.57812,517.03406 z M 400.17188,527.40906 C 400.39903,528.56292 400.57381,529.73653 400.64062,530.94031 C 400.57512,529.73558 400.39797,528.56391 400.17188,527.40906 z M 400.64062,533.69031 C 400.57412,535.0021 400.39696,536.28148 400.14062,537.53406 C 400.39696,536.28155 400.57412,535.00208 400.64062,533.69031 z M 398.14062,543.50281 C 397.78418,544.2425 397.37637,544.96088 396.95312,545.65906 C 397.38169,544.95385 397.78031,544.25047 398.14062,543.50281 z M 351.89062,543.53406 C 352.06709,543.89922 352.26011,544.24128 352.45312,544.59656 C 352.26195,544.24403 352.06552,543.89633 351.89062,543.53406 z M 396.95312,545.69031 C 394.81029,549.21681 391.85463,552.17246 388.32812,554.31531 C 391.83769,552.17839 394.81578,549.19943 396.95312,545.69031 z M 360.67188,553.62781 C 361.01309,553.8583 361.35049,554.10107 361.70312,554.31531 C 361.35023,554.101 361.0133,553.8584 360.67188,553.62781 z M 388.29688,554.31531 C 387.5987,554.73856 386.88032,555.14636 386.14062,555.50281 C 386.88837,555.14257 387.59158,554.74379 388.29688,554.31531 z M 362.76562,554.90906 C 363.06925,555.07398 363.39226,555.2562 363.70312,555.40906 C 363.38354,555.25205 363.07752,555.07881 362.76562,554.90906 z M 380.17188,557.50281 C 378.50177,557.8446 376.78672,558.03406 375.01562,558.03406 C 373.68736,558.03406 372.38813,557.91902 371.10938,557.72156 C 372.38325,557.91618 373.68736,558.03406 375.01562,558.03406 C 376.78672,558.03406 378.50177,557.84451 380.17188,557.50281 z"
              id="rect5557"
              style="overflow: visible; marker: none; opacity: 1; fill: rgb(0, 0, 0); fill-opacity: 1; fill-rule: nonzero; stroke: none; stroke-width: 1.25; stroke-linecap: butt; stroke-linejoin: miter; stroke-miterlimit: 4; stroke-dasharray: none; stroke-dashoffset: 0pt; stroke-opacity: 1; visibility: visible; display: inline;"/>

        <rect style="opacity:1;fill:none;stroke:#33b540;stroke-width:0.98836469999999998;stroke-linejoin:miter;stroke-miterlimit:4;stroke-dasharray:none;stroke-opacity:1"
              id="rect3231"
              width="55.510086"
              height="55.510082"
              x="347.25095"
              y="504.61392"
              ry="4.4952126"/>

        <path style="fill:#1c1800;fill-opacity:1;fill-rule:nonzero;stroke:none"
              id="path2870"
              d="M 387.08183,543.04752 L 374.93646,543.04752 C 375.07196,541.83164 375.46996,540.67314 376.12908,539.59289 C 376.78833,538.50277 378.08345,537.05989 380.02557,535.25327 C 381.58321,533.79814 382.53658,532.80939 382.88933,532.29914 C 383.36671,531.58389 383.60533,530.87952 383.60533,530.17389 C 383.60533,529.40239 383.40082,528.81039 382.98095,528.39177 C 382.57196,527.98152 381.9922,527.77764 381.26457,527.77764 C 380.53708,527.77764 379.96946,527.99377 379.53733,528.42589 C 379.11745,528.85677 378.8672,529.58439 378.79882,530.59502 L 375.34545,530.25577 C 375.54932,528.34414 376.19746,526.97077 377.28757,526.13952 C 378.36783,525.31189 379.72045,524.90177 381.3562,524.90177 C 383.13958,524.90177 384.53545,525.38027 385.56082,526.34464 C 386.57158,527.29914 387.08183,528.50402 387.08183,529.92489 C 387.08183,530.74277 386.93545,531.51552 386.64971,532.25527 C 386.35432,532.99252 385.88808,533.75427 385.26307,534.55989 C 384.84308,535.09577 384.08382,535.86727 382.99195,536.86589 C 381.90057,537.87902 381.20845,538.53702 380.91183,538.86539 C 380.6177,539.19614 380.38933,539.51352 380.20746,539.83214 L 387.08183,539.83214 L 387.08183,543.04752 M 370.95945,543.04752 L 367.50482,543.04752 L 367.50482,529.99327 C 366.23284,531.17489 364.74482,532.05014 363.02857,532.61777 L 363.02857,529.47077 C 363.9257,529.17539 364.91457,528.61752 365.97171,527.78989 C 367.02757,526.95864 367.75508,526.00402 368.15308,524.90177 L 370.95945,524.90177 L 370.95945,543.04752"/>
    </g>
</svg>
