<?xml version="1.0" encoding="UTF-8" standalone="no"?>
<svg xmlns="http://www.w3.org/2000/svg"
     version="1.0"
     width="768"
     height="768"
     viewBox="-1.69594 -1.69594 59.9231 59.9231"
     id="svg4105">
    <defs id="defs4107">
        <linearGradient x1="0.040040001"
                        y1="-0.92870998"
                        x2="1.04977"
                        y2="-0.92870998"
                        id="linearGradient2798"
                        gradientUnits="userSpaceOnUse"
                        gradientTransform="matrix(0, -60.4137, -60.4137, 0, 318.881, -131.703)"
                        spreadMethod="pad">
            <stop id="stop2800"
                  style="stop-color: rgb(255, 238, 76); stop-opacity: 1;"
                  offset="0"/>
            <stop id="stop2802"
                  style="stop-color: rgb(201, 190, 60); stop-opacity: 1;"
                  offset="1"/>
        </linearGradient>
    </defs>

    <g transform="translate(-346.734, -504.097)"
       id="layer1">
        <path d="M 351.64062,504.09656 C 351.5405,504.09656 350.85787,504.11668 350.01562,504.37781 C 349.17575,504.64031 348.1655,505.16444 347.48438,506.22156 C 347.03024,506.91494 346.73438,507.84318 346.73438,509.00281 L 346.73438,555.72156 C 346.73438,555.81181 346.75438,556.50543 347.01562,557.34656 C 347.27675,558.18756 347.80475,559.21694 348.85938,559.90906 C 349.565,560.36319 350.48338,560.62781 351.64062,560.62781 L 398.35938,560.62781 C 398.46188,560.62781 399.14463,560.60768 399.98438,560.34656 C 400.82425,560.08531 401.82225,559.59244 402.51562,558.53406 C 402.97213,557.82856 403.26562,556.87993 403.26562,555.72156 L 403.26562,509.00281 C 403.26562,508.89906 403.24563,508.21768 402.98438,507.37781 C 402.72312,506.54893 402.19775,505.53019 401.14062,504.84656 C 400.4375,504.39369 399.51901,504.09656 398.35938,504.09656 L 351.64062,504.09656 z"
              id="path5261"
              style="fill:rgb(255, 232, 1);fill-opacity:1;fill-rule:nonzero;stroke:none;opacity:0"/>

        <path d="M 398.3745,559.62156 L 351.64288,559.62156 C 350.63151,559.62156 349.92775,559.38231 349.39312,559.04168 C 348.87126,558.70231 348.50751,558.24818 348.26887,557.76968 C 347.769,556.80293 347.74638,555.77018 347.74638,555.72631 L 347.74638,508.99406 C 347.74638,507.99306 347.98437,507.28993 348.32563,506.75531 C 348.66626,506.23168 349.12088,505.87031 349.60976,505.61881 C 350.56376,505.11956 351.59776,505.09518 351.64288,505.09518 L 351.64288,504.59706 L 351.64288,505.09518 L 351.638,504.59706 L 351.64288,504.59706 L 351.64288,505.09518 L 398.3745,505.09518 C 399.37426,505.10731 400.07851,505.33443 400.61201,505.68718 C 401.14726,506.02781 401.49887,506.48306 401.74912,506.95918 C 402.24962,507.91381 402.2715,508.94643 402.2715,508.99406 L 402.2715,555.73606 C 402.26051,556.73706 402.03226,557.43893 401.68012,557.97481 C 401.3395,558.49731 400.886,558.85981 400.40751,559.09906 C 399.45351,559.59956 398.42025,559.62156 398.3745,559.62156 M 375.00288,558.30443 C 389.33026,558.30443 400.95376,546.69181 400.95376,532.36568 C 400.95376,518.03831 389.33026,506.41468 375.00288,506.41468 C 360.67551,506.41468 349.06412,518.03831 349.06412,532.36568 C 349.06412,546.69181 360.67551,558.30443 375.00288,558.30443"
              id="path2804"
              style="fill:#ed1c24;fill-opacity:1;fill-rule:nonzero;stroke:none;opacity:0.51178451000000003"/>

        <path d="M 375.00288,558.01868 C 389.17163,558.01868 400.659,546.53431 400.659,532.36568 C 400.659,518.19568 389.17163,506.71018 375.00288,506.71018 C 360.83475,506.71018 349.34801,518.19568 349.34801,532.36568 C 349.34801,546.53431 360.83475,558.01868 375.00288,558.01868"
              id="path2808"
              style="fill:#ed1c24;fill-opacity:1;fill-rule:nonzero;stroke:none"/>

        <path d="M 374.95776,517.93853 C 374.25338,517.93853 373.71925,517.77978 373.34388,517.45015 C 372.96912,517.13165 372.74212,516.65553 372.66276,516.02928 L 373.75351,515.92803 C 373.82126,516.29053 373.95738,516.56515 374.15088,516.7349 C 374.35526,516.90453 374.62812,516.99615 374.96925,516.99615 C 375.32088,516.99615 375.59425,516.91678 375.77562,516.7569 C 375.95751,516.60915 376.04838,516.42853 376.04838,516.22465 C 376.04838,516.0989 376.01488,515.9854 375.93425,515.89378 C 375.85551,515.80228 375.73037,515.72415 375.53688,515.65453 C 375.40087,515.61065 375.10538,515.53128 374.63912,515.41778 C 374.03726,515.27003 373.61676,515.0759 373.37812,514.86115 C 373.03751,514.56453 372.86726,514.18965 372.86726,513.74665 C 372.86726,513.4634 372.94662,513.2009 373.10588,512.96165 C 373.26462,512.71265 373.50326,512.53078 373.79862,512.39528 C 374.10563,512.26953 374.45726,512.1999 374.88937,512.1999 C 375.58276,512.1999 376.10512,512.36115 376.45738,512.65653 C 376.80951,512.96165 376.99137,513.37178 377.01462,513.88215 L 375.88975,513.92853 C 375.84388,513.64528 375.74137,513.44015 375.58276,513.31453 C 375.42337,513.18878 375.19576,513.13253 374.87776,513.13253 C 374.54876,513.13253 374.2985,513.2009 374.11662,513.32665 C 373.99212,513.41578 373.93475,513.53178 373.93475,513.67703 C 373.93475,513.80278 373.99212,513.91628 374.10563,514.00778 C 374.24175,514.13353 374.583,514.2569 375.128,514.38253 C 375.67363,514.50828 376.08263,514.64378 376.34376,514.77928 C 376.594,514.91728 376.79787,515.0979 376.94626,515.33715 C 377.09387,515.5764 377.17326,515.87178 377.17326,516.22465 C 377.17326,516.54203 377.08238,516.83865 376.912,517.12178 C 376.73012,517.39278 376.47987,517.5979 376.16188,517.7359 C 375.833,517.8714 375.435,517.93853 374.95776,517.93853 M 383.12662,517.83715 L 381.67276,517.83715 L 380.15001,515.2359 L 379.24112,516.16728 L 379.24112,517.83715 L 378.12788,517.83715 L 378.12788,512.30378 L 379.24112,512.30378 L 379.24112,514.75728 L 381.50187,512.30378 L 383.01312,512.30378 L 380.92262,514.45215 L 383.12662,517.83715 M 369.34488,517.83715 L 368.23162,517.83715 L 368.23162,512.30378 L 372.02612,512.30378 L 372.02612,513.2364 L 369.34488,513.2364 L 369.34488,514.54253 L 371.66238,514.54253 L 371.66238,515.4849 L 369.34488,515.4849 L 369.34488,517.83715"
              id="path2824"
              style="fill:#000000;fill-opacity:1;fill-rule:nonzero;stroke:none"/>

        <path d="M 376.86626,524.22467 C 376.69662,524.22467 376.52576,524.18067 376.36638,524.10129 C 376.20776,524.00979 376.05937,523.88404 375.94651,523.72654 L 375.94651,524.15867 L 375.21887,524.15867 L 375.21887,520.09004 L 376.00262,520.09004 L 376.00262,521.55492 C 376.24125,521.28267 376.52576,521.14717 376.85526,521.14717 C 377.20751,521.14717 377.5145,521.27054 377.74087,521.53179 C 377.9795,521.79417 378.09362,522.16892 378.09362,522.65717 C 378.09362,523.15767 377.9795,523.54467 377.74087,523.81567 C 377.50288,524.08917 377.20751,524.22467 376.86626,524.22467 M 376.65088,521.73679 C 376.45738,521.73679 376.298,521.81617 376.18451,521.95404 C 376.05937,522.10179 375.99162,522.32892 375.99162,522.62429 C 375.99162,522.93067 376.03675,523.14667 376.13937,523.29317 C 376.276,523.49704 376.45738,523.61054 376.67338,523.61054 C 376.84363,523.61054 376.99137,523.53242 377.11588,523.38354 C 377.241,523.23579 377.29775,523.00879 377.29775,522.69142 C 377.29775,522.35079 377.241,522.11154 377.11588,521.96392 C 376.99137,521.81617 376.83276,521.73679 376.65088,521.73679 M 372.86726,524.22467 C 372.56026,524.22467 372.32162,524.14654 372.15126,523.97554 C 371.98037,523.81567 371.89012,523.60079 371.89012,523.34942 C 371.89012,523.17967 371.92425,523.03204 372.00362,522.90867 C 372.083,522.76954 372.19651,522.68167 372.34412,522.61204 C 372.48087,522.53392 372.69637,522.47654 372.95763,522.43017 C 373.32137,522.36304 373.58263,522.29467 373.71925,522.23729 L 373.71925,522.15917 C 373.71925,522.01029 373.68512,521.89667 373.60576,521.84054 C 373.53737,521.77104 373.38975,521.73679 373.18526,521.73679 C 373.04912,521.73679 372.94662,521.77104 372.86726,521.81617 C 372.78787,521.87229 372.71887,521.97604 372.67376,522.11154 L 371.96937,521.98829 C 372.04937,521.69292 372.18551,521.48779 372.37838,521.34979 C 372.57188,521.21429 372.86726,521.14717 373.242,521.14717 C 373.59475,521.14717 373.856,521.18017 374.02625,521.27054 C 374.196,521.34979 374.31012,521.45367 374.37788,521.57929 C 374.44626,521.70267 374.48037,521.94192 374.48037,522.28129 L 374.48037,523.19192 C 374.48037,523.44092 374.492,523.63504 374.514,523.75829 C 374.53712,523.88404 374.583,524.02079 374.65126,524.15867 L 373.878,524.15867 L 373.81026,523.92917 L 373.776,523.84004 C 373.651,523.96342 373.50326,524.06717 373.35551,524.12329 C 373.19626,524.19042 373.03751,524.22467 372.86726,524.22467 M 373.71925,522.73779 C 373.61676,522.76954 373.45751,522.81717 373.242,522.86104 C 373.026,522.90867 372.88988,522.95267 372.82151,522.99904 L 372.66276,523.27004 L 372.78787,523.55442 C 372.86726,523.63504 372.96912,523.66792 373.10588,523.66792 C 373.242,523.66792 373.37812,523.62279 373.50326,523.53242 L 373.68512,523.27004 C 373.70776,523.21392 373.71925,523.08817 373.71925,522.89529 L 373.71925,522.73779"
              id="path2826"
              style="fill:#000000;fill-opacity:1;fill-rule:nonzero;stroke:none"/>

        <path d="M 375.01562,506.40906 C 360.68826,506.40906 349.07812,518.05044 349.07812,532.37781 C 349.07812,546.70394 360.68826,558.31531 375.01562,558.31531 C 389.34301,558.31531 400.95312,546.70394 400.95312,532.37781 C 400.95313,518.05044 389.34301,506.40906 375.01562,506.40906 z M 375.01562,507.00281 C 382.02612,507.00281 388.36212,509.84931 392.95312,514.44031 C 397.543,519.02894 400.35937,525.36606 400.35938,532.37781 C 400.35938,539.37606 397.543,545.71206 392.95312,550.31531 C 388.36212,554.90393 382.02613,557.72156 375.01562,557.72156 C 368.01675,557.72156 361.67962,554.90393 357.07812,550.31531 C 352.48775,545.71206 349.64063,539.37606 349.64062,532.37781 C 349.64062,525.36606 352.48775,519.02894 357.07812,514.44031 C 361.67962,509.84931 368.01676,507.00281 375.01562,507.00281 z M 364.64062,508.90906 C 364.02909,509.17969 363.41343,509.46815 362.82812,509.78406 C 363.4182,509.46451 364.02381,509.18243 364.64062,508.90906 z M 361.35938,510.62781 C 360.83873,510.95556 360.32267,511.32705 359.82812,511.69031 C 360.32675,511.32307 360.83415,510.95885 361.35938,510.62781 z M 393.14062,514.22156 C 393.71655,514.79645 394.27741,515.40681 394.79688,516.03406 C 394.274,515.40053 393.72099,514.80189 393.14062,514.22156 z M 395.57812,517.03406 C 396.07064,517.6926 396.52456,518.36001 396.95312,519.06531 C 396.53198,518.37223 396.06106,517.68201 395.57812,517.03406 z M 400.17188,527.40906 C 400.39903,528.56292 400.57381,529.73653 400.64062,530.94031 C 400.57512,529.73558 400.39797,528.56391 400.17188,527.40906 z M 400.64062,533.69031 C 400.57412,535.0021 400.39696,536.28148 400.14062,537.53406 C 400.39696,536.28155 400.57412,535.00208 400.64062,533.69031 z M 398.14062,543.50281 C 397.78418,544.2425 397.37637,544.96088 396.95312,545.65906 C 397.38169,544.95385 397.78031,544.25047 398.14062,543.50281 z M 351.89062,543.53406 C 352.06709,543.89922 352.26011,544.24128 352.45312,544.59656 C 352.26195,544.24403 352.06552,543.89633 351.89062,543.53406 z M 396.95312,545.69031 C 394.81029,549.21681 391.85463,552.17246 388.32812,554.31531 C 391.83769,552.17839 394.81578,549.19943 396.95312,545.69031 z M 360.67188,553.62781 C 361.01309,553.8583 361.35049,554.10107 361.70312,554.31531 C 361.35023,554.101 361.0133,553.8584 360.67188,553.62781 z M 388.29688,554.31531 C 387.5987,554.73856 386.88032,555.14636 386.14062,555.50281 C 386.88837,555.14257 387.59158,554.74379 388.29688,554.31531 z M 362.76562,554.90906 C 363.06925,555.07398 363.39226,555.2562 363.70312,555.40906 C 363.38354,555.25205 363.07752,555.07881 362.76562,554.90906 z M 380.17188,557.50281 C 378.50177,557.8446 376.78672,558.03406 375.01562,558.03406 C 373.68736,558.03406 372.38813,557.91902 371.10938,557.72156 C 372.38325,557.91618 373.68736,558.03406 375.01562,558.03406 C 376.78672,558.03406 378.50177,557.84451 380.17188,557.50281 z"
              id="rect5557"
              style="overflow: visible; marker: none; opacity: 1; fill: rgb(0, 0, 0); fill-opacity: 1; fill-rule: nonzero; stroke: none; stroke-width: 1.25; stroke-linecap: butt; stroke-linejoin: miter; stroke-miterlimit: 4; stroke-dasharray: none; stroke-dashoffset: 0pt; stroke-opacity: 1; visibility: visible; display: inline;"/>

        <rect style="opacity:1;fill:none;stroke:#ed1c24;stroke-width:0.98836469999999998;stroke-linejoin:miter;stroke-miterlimit:4;stroke-dasharray:none;stroke-opacity:1"
              id="rect3231"
              width="55.510086"
              height="55.510082"
              x="347.25095"
              y="504.61392"
              ry="4.4952126"/>

        <path style="fill:#000000;fill-opacity:1;fill-rule:nonzero;stroke:none"
              id="path2940"
              d="M 381.56558,549.72185 C 379.58808,549.72185 377.94008,549.2116 376.63394,548.17648 C 375.08857,546.95085 374.31707,545.27973 374.31707,543.14348 C 374.31707,541.97285 374.60033,540.89498 375.17894,539.91598 C 375.77219,538.92723 376.68033,538.17773 377.94008,537.64548 C 376.86108,537.18898 376.07732,536.5651 375.58907,535.76923 C 375.10082,534.97585 374.86145,534.09935 374.86145,533.15573 C 374.86145,531.54323 375.4182,530.2016 376.55582,529.14698 C 377.67894,528.0886 379.29269,527.5661 381.3727,527.5661 C 383.42845,527.5661 385.02994,528.0886 386.1677,529.14698 C 387.30294,530.2016 387.88157,531.54323 387.88157,533.15573 C 387.88157,534.16898 387.62033,535.05398 387.09783,535.83885 C 386.57533,536.62248 385.83808,537.22435 384.89319,537.64548 C 386.08707,538.1216 387.00744,538.8271 387.63244,539.75848 C 388.25744,540.67898 388.57494,541.75798 388.57494,542.9616 C 388.57494,544.97335 387.94008,546.5981 386.65594,547.8481 C 385.38157,549.09573 383.67982,549.72185 381.56558,549.72185 M 381.42894,539.41548 C 380.40594,539.41548 379.65645,539.76823 379.15594,540.4616 C 378.65544,541.16598 378.40645,541.92898 378.40645,542.74685 C 378.40645,543.8931 378.70182,544.77923 379.29269,545.42748 C 379.87369,546.06348 380.61108,546.3821 381.48507,546.3821 C 382.34932,546.3821 383.05482,546.0756 383.62133,545.4616 C 384.18033,544.8476 384.46357,543.95048 384.46357,542.79198 C 384.46357,541.76785 384.18033,540.9621 383.59933,540.33835 C 383.03044,539.72435 382.30294,539.41548 381.42894,539.41548 M 381.4167,530.86198 C 380.61108,530.86198 379.97619,531.09885 379.50994,531.57735 C 379.03144,532.04373 378.79219,532.67973 378.79219,533.4511 C 378.79219,534.28248 379.03144,534.92823 379.4977,535.39448 C 379.96407,535.86085 380.58907,536.08785 381.3727,536.08785 C 382.15645,536.08785 382.79119,535.8511 383.25744,535.38473 C 383.73608,534.91848 383.97533,534.27023 383.97533,533.44135 C 383.97533,532.65773 383.73608,532.03148 383.2697,531.5651 C 382.80345,531.09885 382.17845,530.86198 381.4167,530.86198 M 369.06808,549.3471 L 364.90794,549.3471 L 364.90794,533.67823 C 363.38694,535.0991 361.60219,536.14398 359.53432,536.82635 L 359.53432,533.05448 C 360.6257,532.7016 361.80732,532.02173 363.07932,531.03298 C 364.35369,530.04423 365.21558,528.88448 365.69158,527.5661 L 369.06808,527.5661 L 369.06808,549.3471"/>
    </g>
</svg>
