<?xml version="1.0" encoding="UTF-8" standalone="no"?>
<svg
   width="507.27731"
   height="343.9512"
   viewBox="0 0 498.36033 343.9512"
   version="1.1"
   id="svg292"
   sodipodi:docname="Medierådet_Tilladt_for_alle (1).svg"
   inkscape:version="1.3.2 (091e20ef0f, 2023-11-25)"
   xmlns:inkscape="http://www.inkscape.org/namespaces/inkscape"
   xmlns:sodipodi="http://sodipodi.sourceforge.net/DTD/sodipodi-0.dtd"
   xmlns="http://www.w3.org/2000/svg"
   xmlns:svg="http://www.w3.org/2000/svg">
  <defs
     id="defs292" />
  <sodipodi:namedview
     id="namedview292"
     pagecolor="#ffffff"
     bordercolor="#000000"
     borderopacity="0.25"
     inkscape:showpageshadow="2"
     inkscape:pageopacity="0.0"
     inkscape:pagecheckerboard="0"
     inkscape:deskcolor="#d1d1d1"
     inkscape:zoom="1.0761719"
     inkscape:cx="251.3539"
     inkscape:cy="173.76407"
     inkscape:window-width="1280"
     inkscape:window-height="717"
     inkscape:window-x="0"
     inkscape:window-y="0"
     inkscape:window-maximized="1"
     inkscape:current-layer="svg292" />
  <g
     id="surface1"
     transform="translate(-4.4980529,-0.00193038)">
    <path
       style="fill:none;stroke:#000000;stroke-width:2.5;stroke-linecap:butt;stroke-linejoin:miter;stroke-miterlimit:4;stroke-opacity:1"
       d="M 23.397105,2.105908 2.475162,30.46902 h 41.843886 z m 0,0"
       transform="scale(10.840517,10.84375)"
       id="path1" />
    <path
       style="fill:#00a64c;fill-opacity:1;fill-rule:nonzero;stroke:none"
       d="M 253.63672,22.835938 26.832031,330.39844 H 480.44141 Z m 0,0"
       id="path2" />
    <path
       style="fill:#00682e;fill-opacity:1;fill-rule:nonzero;stroke:none"
       d="m 235.72656,39.269531 v 11.351563 h -4.36328 V 39.269531 h 4.36328"
       id="path3" />
    <path
       style="fill:#00682e;fill-opacity:1;fill-rule:nonzero;stroke:none"
       d="m 237.37891,39.269531 h 4.35937 v 8.003907 h 5.33594 v 3.347656 h -9.69531 V 39.269531"
       id="path4" />
    <path
       style="fill:#00682e;fill-opacity:1;fill-rule:nonzero;stroke:none"
       d="m 248.21875,39.269531 h 4.35937 v 8.003907 h 5.33594 v 3.347656 h -9.69531 V 39.269531"
       id="path5" />
    <path
       style="fill:#00682e;fill-opacity:1;fill-rule:nonzero;stroke:none"
       d="m 261.98047,39.269531 h 6.01172 l 4.02343,11.351563 h -4.57421 l -0.71875,-2.457032 h -3.6836 l -0.67969,2.457032 H 258 Z m 1.65234,6.183594 h 2.53906 l -1.22656,-3.726563 h -0.043 l -1.26953,3.726563"
       id="path6" />
    <path
       style="fill:#00682e;fill-opacity:1;fill-rule:nonzero;stroke:none"
       d="m 221.58203,58.796875 v 11.351563 h -4.36328 V 58.796875 h 4.36328"
       id="path7" />
    <path
       style="fill:#00682e;fill-opacity:1;fill-rule:nonzero;stroke:none"
       d="m 223.23437,58.796875 h 4.35938 v 8.003906 h 5.33594 v 3.347657 h -9.69532 V 58.796875"
       id="path8" />
    <path
       style="fill:#00682e;fill-opacity:1;fill-rule:nonzero;stroke:none"
       d="m 234.07422,58.796875 h 4.36328 v 8.003906 h 5.33203 v 3.347657 h -9.69531 V 58.796875"
       id="path9" />
    <path
       style="fill:#00682e;fill-opacity:1;fill-rule:nonzero;stroke:none"
       d="m 247.83594,58.796875 h 6.01172 l 4.02343,11.351563 h -4.57031 l -0.72266,-2.457032 h -3.68359 l -0.67578,2.457032 h -4.36328 z m 1.65234,6.183594 h 2.53906 l -1.22656,-3.726563 h -0.043 l -1.26953,3.726563"
       id="path10" />
    <path
       style="fill:#00682e;fill-opacity:1;fill-rule:nonzero;stroke:none"
       d="m 258.46484,58.796875 h 6.39453 c 3.26172,0 5.54688,1.101563 5.54688,5.71875 0,4.277344 -2.49609,5.632813 -5.71484,5.632813 h -6.22657 z m 4.36328,8.511719 h 1.0586 c 1.60937,0 1.94531,-1.015625 1.94531,-2.921875 0,-1.949219 -0.37891,-2.964844 -1.94531,-2.964844 h -1.0586 v 5.886719"
       id="path11" />
    <path
       style="fill:#00682e;fill-opacity:1;fill-rule:nonzero;stroke:none"
       d="m 283.06641,62.144531 h -3.8086 v 8.003907 h -4.36328 v -8.003907 h -3.85156 v -3.347656 h 12.02344 v 3.347656"
       id="path12" />
    <path
       style="fill:#00682e;fill-opacity:1;fill-rule:nonzero;stroke:none"
       d="m 204.85547,78.324219 h 4.36328 v 8.003906 h 5.33203 v 3.347656 h -9.69531 V 78.324219"
       id="path13" />
    <path
       style="fill:#00682e;fill-opacity:1;fill-rule:nonzero;stroke:none"
       d="m 215.69531,78.324219 h 4.36328 v 8.003906 h 5.33594 v 3.347656 h -9.69922 V 78.324219"
       id="path14" />
    <path
       style="fill:#00682e;fill-opacity:1;fill-rule:nonzero;stroke:none"
       d="m 226.41016,78.324219 h 9.82421 v 2.753906 h -5.58984 v 1.566406 h 5.33594 v 2.753907 h -5.33594 v 1.566406 h 5.71484 v 2.710937 h -9.94921 V 78.324219"
       id="path15" />
    <path
       style="fill:#00682e;fill-opacity:1;fill-rule:nonzero;stroke:none"
       d="m 246.94531,80.949219 c 1.65235,0 3.05078,1.355469 3.05078,3.050781 0,1.695312 -1.39843,3.050781 -3.05078,3.050781 -1.6914,0 -3.04687,-1.355469 -3.04687,-3.050781 0,-1.695312 1.35547,-3.050781 3.04687,-3.050781"
       id="path16" />
    <path
       style="fill:#00682e;fill-opacity:1;fill-rule:nonzero;stroke:none"
       d="m 269.22266,81.671875 h -3.85547 v 8.003906 h -4.32032 v -8.003906 h -3.85156 v -3.347656 h 12.02735 v 3.347656"
       id="path17" />
    <path
       style="fill:#00682e;fill-opacity:1;fill-rule:nonzero;stroke:none"
       d="m 274.55469,78.324219 v 11.351562 h -4.35938 V 78.324219 h 4.35938"
       id="path18" />
    <path
       style="fill:#00682e;fill-opacity:1;fill-rule:nonzero;stroke:none"
       d="m 276.20703,78.324219 h 4.36328 v 8.003906 h 5.33594 v 3.347656 h -9.69922 V 78.324219"
       id="path19" />
    <path
       style="fill:#00682e;fill-opacity:1;fill-rule:nonzero;stroke:none"
       d="m 287.04687,78.324219 h 4.36329 v 8.003906 h 5.33593 v 3.347656 h -9.69922 V 78.324219"
       id="path20" />
    <path
       style="fill:#00682e;fill-opacity:1;fill-rule:nonzero;stroke:none"
       d="m 300.8125,78.324219 h 6.01172 l 4.0664,11.351562 h -4.57421 l -0.76172,-2.457031 h -3.6836 l -0.67968,2.457031 h -4.35938 z m 1.69141,6.183593 h 2.5 l -1.23047,-3.726562 h -0.0391 l -1.23046,3.726562"
       id="path21" />
    <path
       style="fill:#00682e;fill-opacity:1;fill-rule:nonzero;stroke:none"
       d="m 193.84375,97.851562 h 9.74219 v 2.710938 h -5.37891 v 1.86328 h 5.20703 v 2.71094 h -5.20703 v 4.06641 h -4.36328 V 97.851562"
       id="path22" />
    <path
       style="fill:#00682e;fill-opacity:1;fill-rule:nonzero;stroke:none"
       d="m 210.65625,109.37109 c -3.98047,0 -6.30859,-1.98828 -6.30859,-5.84375 0,-3.812496 2.32812,-5.886715 6.30859,-5.886715 3.9375,0 6.30859,2.074219 6.30859,5.886715 0,3.85547 -2.37109,5.84375 -6.30859,5.84375 z m 0,-2.71093 c 1.69531,0 1.73828,-1.90625 1.77734,-3.13282 -0.0391,-1.05859 -0.125,-3.13671 -1.77734,-3.13671 -1.60938,0 -1.73438,2.07812 -1.73438,3.13671 0,1.22657 0.16797,3.13282 1.73438,3.13282"
       id="path23" />
    <path
       style="fill:#00682e;fill-opacity:1;fill-rule:nonzero;stroke:none"
       d="m 217.94141,97.851562 h 7.07031 c 2.71094,0 4.36328,0.847657 4.36328,3.007818 0,1.73437 -1.05859,2.625 -2.71094,3.00781 v 0.0391 c 0.92969,0.17188 1.52344,0.63672 1.94922,1.23047 0.63281,1.1875 0.58984,2.96484 1.05859,4.06641 h -4.53125 c -0.21484,-0.80469 -0.2539,-2.58594 -0.59375,-3.26172 -0.29687,-0.55078 -0.71875,-0.59375 -1.26953,-0.59375 h -0.97656 v 3.85547 h -4.35937 z m 4.1914,4.957028 h 1.14453 c 0.88672,0 1.73438,-0.0859 1.73438,-1.27343 0,-1.01563 -0.80469,-1.14453 -1.69531,-1.14453 h -1.1836 v 2.41796"
       id="path24" />
    <path
       style="fill:#00682e;fill-opacity:1;fill-rule:nonzero;stroke:none"
       d="m 239.70703,97.851562 h 5.96875 l 4.06641,11.351568 h -4.57422 l -0.76172,-2.45704 h -3.64063 l -0.72265,2.45704 h -4.31641 z m 1.65234,6.140628 h 2.4961 l -1.22656,-3.72656 h -0.043 l -1.22657,3.72656"
       id="path25" />
    <path
       style="fill:#00682e;fill-opacity:1;fill-rule:nonzero;stroke:none"
       d="m 250.29297,97.851562 h 4.35937 v 8.003908 h 5.37891 v 3.34766 h -9.73828 V 97.851562"
       id="path26" />
    <path
       style="fill:#00682e;fill-opacity:1;fill-rule:nonzero;stroke:none"
       d="m 261.17578,97.851562 h 4.32031 v 8.003908 h 5.375 v 3.34766 h -9.69531 V 97.851562"
       id="path27" />
    <path
       style="fill:#00682e;fill-opacity:1;fill-rule:nonzero;stroke:none"
       d="m 271.84766,97.851562 h 9.82421 V 100.5625 H 276.125 v 1.60938 h 5.33203 v 2.7539 H 276.125 v 1.52344 h 5.67187 v 2.75391 h -9.94921 V 97.851562"
       id="path28" />
    <path
       style="fill:#00682e;fill-opacity:1;fill-rule:nonzero;stroke:none"
       d="m 292.42578,100.47656 c 1.65234,0 3.00781,1.35547 3.00781,3.05078 0,1.65235 -1.35547,3.05079 -3.00781,3.05079 -1.69141,0 -3.04687,-1.39844 -3.04687,-3.05079 0,-1.69531 1.35546,-3.05078 3.04687,-3.05078"
       id="path29" />
    <path
       style="fill:#00682e;fill-opacity:1;fill-rule:nonzero;stroke:none"
       d="m 314.69922,101.19531 h -3.85156 v 8.00782 h -4.36329 v -8.00782 h -3.85156 v -3.343748 h 12.06641 v 3.343748"
       id="path30" />
    <path
       style="fill:#00682e;fill-opacity:1;fill-rule:nonzero;stroke:none"
       d="m 320.03516,97.851562 v 11.351568 h -4.35938 V 97.851562 h 4.35938"
       id="path31" />
    <path
       style="fill:#00682e;fill-opacity:1;fill-rule:nonzero;stroke:none"
       d="m 187.02734,120.72266 h -3.85156 v 8.00781 h -4.36328 v -8.00781 H 175 v -3.34375 h 12.02734 v 3.34375"
       id="path32" />
    <path
       style="fill:#00682e;fill-opacity:1;fill-rule:nonzero;stroke:none"
       d="m 192.36328,117.37891 v 11.35156 H 188 v -11.35156 h 4.36328"
       id="path33" />
    <path
       style="fill:#00682e;fill-opacity:1;fill-rule:nonzero;stroke:none"
       d="m 194.01562,117.37891 h 4.35938 v 8.0039 h 5.33594 v 3.34766 h -9.69532 v -11.35156"
       id="path34" />
    <path
       style="fill:#00682e;fill-opacity:1;fill-rule:nonzero;stroke:none"
       d="m 204.85547,117.37891 h 4.36328 v 8.0039 h 5.33203 v 3.34766 h -9.69531 v -11.35156"
       id="path35" />
    <path
       style="fill:#00682e;fill-opacity:1;fill-rule:nonzero;stroke:none"
       d="m 218.61719,117.37891 h 6.01562 l 4.01953,11.35156 h -4.57031 l -0.72266,-2.45703 h -3.68359 L 219,128.73047 h -4.36328 z m 1.65234,6.14062 h 2.53906 l -1.22656,-3.72656 h -0.043 l -1.26953,3.72656"
       id="path36" />
    <path
       style="fill:#00682e;fill-opacity:1;fill-rule:nonzero;stroke:none"
       d="m 229.24609,117.37891 h 6.39453 c 3.26172,0 5.54688,1.10156 5.54688,5.67578 0,4.32031 -2.49609,5.67578 -5.71484,5.67578 h -6.22657 z m 4.36328,8.51172 h 1.0586 c 1.60937,0 1.94531,-1.0586 1.94531,-2.92188 0,-1.94922 -0.37891,-2.96484 -1.94531,-2.96484 h -1.0586 v 5.88672"
       id="path37" />
    <path
       style="fill:#00682e;fill-opacity:1;fill-rule:nonzero;stroke:none"
       d="m 253.89062,120.72266 h -3.85156 v 8.00781 h -4.36328 v -8.00781 h -3.85156 v -3.34375 h 12.0664 v 3.34375"
       id="path38" />
    <path
       style="fill:#00682e;fill-opacity:1;fill-rule:nonzero;stroke:none"
       d="m 260.71094,117.37891 h 9.73828 v 2.71093 h -5.37891 v 1.82032 h 5.21094 v 2.7539 h -5.21094 v 4.06641 h -4.35937 v -11.35156"
       id="path39" />
    <path
       style="fill:#00682e;fill-opacity:1;fill-rule:nonzero;stroke:none"
       d="m 277.47656,128.89844 c -3.9375,0 -6.26562,-1.98828 -6.26562,-5.84375 0,-3.8125 2.32812,-5.88672 6.26562,-5.88672 3.98047,0 6.35547,2.07422 6.35547,5.88672 0,3.85547 -2.375,5.84375 -6.35547,5.84375 z m 0,-2.71094 c 1.73828,0 1.78125,-1.94922 1.82422,-3.13281 -0.043,-1.0586 -0.12891,-3.17578 -1.82422,-3.17578 -1.60547,0 -1.73437,2.11718 -1.73437,3.17578 0,1.18359 0.21093,3.13281 1.73437,3.13281"
       id="path40" />
    <path
       style="fill:#00682e;fill-opacity:1;fill-rule:nonzero;stroke:none"
       d="m 284.80469,117.37891 h 7.02734 c 2.75391,0 4.40625,0.84765 4.40625,3.00781 0,1.73437 -1.10156,2.625 -2.71094,3.00781 v 0.0391 c 0.9336,0.17188 1.52344,0.59375 1.90625,1.23047 0.67578,1.1875 0.63282,2.96485 1.10157,4.06641 h -4.57422 c -0.16797,-0.84766 -0.21094,-2.58594 -0.59375,-3.30469 -0.25391,-0.50781 -0.67578,-0.55078 -1.22657,-0.55078 h -0.97656 v 3.85547 h -4.35937 z m 4.1914,4.95703 h 1.10157 c 0.92968,0 1.77734,-0.12891 1.77734,-1.27344 0,-1.01562 -0.80469,-1.18359 -1.69141,-1.18359 h -1.1875 v 2.45703"
       id="path41" />
    <path
       style="fill:#00682e;fill-opacity:1;fill-rule:nonzero;stroke:none"
       d="m 306.57031,117.37891 h 5.96875 l 4.06641,11.35156 h -4.57422 l -0.76172,-2.45703 h -3.68359 l -0.67578,2.45703 h -4.32032 z m 1.65235,6.14062 h 2.49609 l -1.22656,-3.72656 h -0.043 l -1.22656,3.72656"
       id="path42" />
    <path
       style="fill:#00682e;fill-opacity:1;fill-rule:nonzero;stroke:none"
       d="m 317.15625,117.37891 h 4.36328 v 8.0039 h 5.375 v 3.34766 h -9.73828 v -11.35156"
       id="path43" />
    <path
       style="fill:#00682e;fill-opacity:1;fill-rule:nonzero;stroke:none"
       d="m 327.99609,117.37891 h 4.36328 v 8.0039 h 5.37891 v 3.34766 h -9.74219 v -11.35156"
       id="path44" />
    <path
       style="fill:#00682e;fill-opacity:1;fill-rule:nonzero;stroke:none"
       d="m 157.04687,143.04687 h 2.53907 l -1.26953,-3.72656 -1.26954,3.72656"
       id="path45" />
    <path
       style="fill:#00682e;fill-opacity:1;fill-rule:nonzero;stroke:none"
       d="m 166.02344,136.86328 h 4.32031 v 8.00391 h 5.37891 v 3.34765 h -9.69922 v -11.35156"
       id="path46" />
    <path
       style="fill:#00682e;fill-opacity:1;fill-rule:nonzero;stroke:none"
       d="m 176.86328,136.86328 h 4.36328 v 8.00391 h 5.33594 v 3.34765 h -9.69922 v -11.35156"
       id="path47" />
    <path
       style="fill:#00682e;fill-opacity:1;fill-rule:nonzero;stroke:none"
       d="m 187.53516,136.86328 h 9.86718 v 2.75391 h -5.58984 v 1.60937 h 5.33594 v 2.75391 h -5.33594 v 1.52344 h 5.67578 v 2.71093 h -9.95312 v -11.35156"
       id="path48" />
    <path
       style="fill:#00682e;fill-opacity:1;fill-rule:nonzero;stroke:none"
       d="m 208.11719,139.53125 c 1.64843,0 3.04687,1.35547 3.04687,3.00781 0,1.69531 -1.39844,3.05078 -3.04687,3.05078 -1.69532,0 -3.05078,-1.35547 -3.05078,-3.05078 0,-1.65234 1.35546,-3.00781 3.05078,-3.00781"
       id="path49" />
    <path
       style="fill:#00682e;fill-opacity:1;fill-rule:nonzero;stroke:none"
       d="m 230.39062,140.25 h -3.85546 v 7.96484 h -4.35938 V 140.25 h -3.8125 v -3.38672 h 12.02734 V 140.25"
       id="path50" />
    <path
       style="fill:#00682e;fill-opacity:1;fill-rule:nonzero;stroke:none"
       d="m 235.72656,136.86328 v 11.35156 h -4.36328 v -11.35156 h 4.36328"
       id="path51" />
    <path
       style="fill:#00682e;fill-opacity:1;fill-rule:nonzero;stroke:none"
       d="m 237.37891,136.86328 h 4.35937 v 8.00391 h 5.33594 v 3.34765 h -9.69531 v -11.35156"
       id="path52" />
    <path
       style="fill:#00682e;fill-opacity:1;fill-rule:nonzero;stroke:none"
       d="m 248.21875,136.86328 h 4.35937 v 8.00391 h 5.33594 v 3.34765 h -9.69531 v -11.35156"
       id="path53" />
    <path
       style="fill:#00682e;fill-opacity:1;fill-rule:nonzero;stroke:none"
       d="m 261.98047,136.86328 h 6.01172 l 4.02343,11.35156 h -4.57421 l -0.71875,-2.45703 h -3.6836 l -0.67969,2.45703 H 258 Z m 1.65234,6.18359 h 2.53906 l -1.22656,-3.72656 h -0.043 l -1.26953,3.72656"
       id="path54" />
    <path
       style="fill:#00682e;fill-opacity:1;fill-rule:nonzero;stroke:none"
       d="m 272.60937,136.86328 h 6.39454 c 3.25781,0 5.54687,1.14453 5.54687,5.71875 0,4.32031 -2.5,5.63281 -5.71875,5.63281 h -6.22266 z m 4.35938,8.55469 h 1.05859 c 1.60938,0 1.94922,-1.0586 1.94922,-2.92188 0,-1.99218 -0.3789,-2.96484 -1.94922,-2.96484 h -1.05859 v 5.88672"
       id="path55" />
    <path
       style="fill:#00682e;fill-opacity:1;fill-rule:nonzero;stroke:none"
       d="m 297.25391,140.25 h -3.85157 v 7.96484 h -4.36328 V 140.25 h -3.85547 v -3.38672 h 12.07032 V 140.25"
       id="path56" />
    <path
       style="fill:#00682e;fill-opacity:1;fill-rule:nonzero;stroke:none"
       d="m 304.07031,136.86328 h 9.74219 v 2.75391 h -5.37891 v 1.82031 h 5.20703 v 2.75391 h -5.20703 v 4.02343 h -4.36328 v -11.35156"
       id="path57" />
    <path
       style="fill:#00682e;fill-opacity:1;fill-rule:nonzero;stroke:none"
       d="m 320.83984,148.42578 c -3.9375,0 -6.26562,-1.98828 -6.26562,-5.88672 0,-3.76953 2.32812,-5.84375 6.26562,-5.84375 3.98047,0 6.35157,2.07422 6.35157,5.84375 0,3.89844 -2.3711,5.88672 -6.35157,5.88672 z m 0,-2.71094 c 1.73828,0 1.77735,-1.94922 1.82032,-3.17578 -0.043,-1.05859 -0.125,-3.13281 -1.82032,-3.13281 -1.60937,0 -1.73437,2.07422 -1.73437,3.13281 0,1.22656 0.21094,3.17578 1.73437,3.17578"
       id="path58" />
    <path
       style="fill:#00682e;fill-opacity:1;fill-rule:nonzero;stroke:none"
       d="m 328.16797,136.86328 h 7.02734 c 2.75391,0 4.40625,0.84766 4.40625,3.05078 0,1.73438 -1.10156,2.625 -2.71094,3.00781 v 0.0391 c 0.92969,0.1289 1.52344,0.59375 1.90625,1.1875 0.67579,1.22656 0.63282,2.96484 1.09766,4.0664 h -4.57031 c -0.17188,-0.80468 -0.21485,-2.58203 -0.59375,-3.26172 -0.25391,-0.50781 -0.67969,-0.59375 -1.23047,-0.59375 h -0.97266 v 3.85547 h -4.35937 z m 4.1914,4.99609 h 1.10157 c 0.92968,0 1.77734,-0.125 1.77734,-1.26953 0,-1.01562 -0.80469,-1.18359 -1.69531,-1.18359 h -1.1836 v 2.45312"
       id="path59" />
    <path
       style="fill:#00682e;fill-opacity:1;fill-rule:nonzero;stroke:none"
       d="m 142.90234,162.57422 h 2.54297 l -1.26953,-3.72656 -1.27344,3.72656"
       id="path60" />
    <path
       style="fill:#00682e;fill-opacity:1;fill-rule:nonzero;stroke:none"
       d="m 151.83984,156.39062 h 4.35938 v 8.00391 h 5.3789 v 3.34766 h -9.73828 v -11.35157"
       id="path61" />
    <path
       style="fill:#00682e;fill-opacity:1;fill-rule:nonzero;stroke:none"
       d="m 162.72266,156.39062 h 4.35937 v 8.00391 h 5.33594 v 3.34766 h -9.69531 v -11.35157"
       id="path62" />
    <path
       style="fill:#00682e;fill-opacity:1;fill-rule:nonzero;stroke:none"
       d="m 173.39062,156.39062 h 9.86719 v 2.75391 h -5.58984 v 1.60938 h 5.33594 v 2.71093 h -5.33594 v 1.56641 h 5.67578 v 2.71094 h -9.95313 v -11.35157"
       id="path63" />
    <path
       style="fill:#00682e;fill-opacity:1;fill-rule:nonzero;stroke:none"
       d="m 193.97266,159.05859 c 1.65234,0 3.00781,1.35547 3.00781,3.00782 0,1.69531 -1.35547,3.05078 -3.00781,3.05078 -1.69532,0 -3.05079,-1.35547 -3.05079,-3.05078 0,-1.65235 1.35547,-3.00782 3.05079,-3.00782"
       id="path64" />
    <path
       style="fill:#00682e;fill-opacity:1;fill-rule:nonzero;stroke:none"
       d="m 216.24609,159.73828 h -3.85156 v 8.00391 h -4.36328 v -8.00391 h -3.8125 v -3.34766 h 12.02734 v 3.34766"
       id="path65" />
    <path
       style="fill:#00682e;fill-opacity:1;fill-rule:nonzero;stroke:none"
       d="m 221.58203,156.39062 v 11.35157 h -4.36328 v -11.35157 h 4.36328"
       id="path66" />
    <path
       style="fill:#00682e;fill-opacity:1;fill-rule:nonzero;stroke:none"
       d="m 223.23437,156.39062 h 4.35938 v 8.00391 h 5.33594 v 3.34766 h -9.69532 v -11.35157"
       id="path67" />
    <path
       style="fill:#00682e;fill-opacity:1;fill-rule:nonzero;stroke:none"
       d="m 234.07422,156.39062 h 4.36328 v 8.00391 h 5.33203 v 3.34766 h -9.69531 v -11.35157"
       id="path68" />
    <path
       style="fill:#00682e;fill-opacity:1;fill-rule:nonzero;stroke:none"
       d="m 247.83594,156.39062 h 6.01172 l 4.02343,11.35157 h -4.57031 l -0.72266,-2.45703 h -3.68359 l -0.67578,2.45703 h -4.36328 z m 1.65234,6.1836 h 2.53906 l -1.22656,-3.72656 h -0.043 l -1.26953,3.72656"
       id="path69" />
    <path
       style="fill:#00682e;fill-opacity:1;fill-rule:nonzero;stroke:none"
       d="m 258.46484,156.39062 h 6.39453 c 3.26172,0 5.54688,1.10157 5.54688,5.71875 0,4.27735 -2.49609,5.63282 -5.71484,5.63282 h -6.22657 z m 4.36328,8.55469 h 1.0586 c 1.60937,0 1.94531,-1.05859 1.94531,-2.96484 0,-1.94922 -0.37891,-2.92188 -1.94531,-2.92188 h -1.0586 v 5.88672"
       id="path70" />
    <path
       style="fill:#00682e;fill-opacity:1;fill-rule:nonzero;stroke:none"
       d="m 283.06641,159.73828 h -3.8086 v 8.00391 h -4.36328 v -8.00391 h -3.85156 v -3.34766 h 12.02344 v 3.34766"
       id="path71" />
    <path
       style="fill:#00682e;fill-opacity:1;fill-rule:nonzero;stroke:none"
       d="m 289.92969,156.39062 h 9.73828 v 2.75391 h -5.37891 v 1.82031 H 299.5 v 2.75391 h -5.21094 v 4.02344 h -4.35937 v -11.35157"
       id="path72" />
    <path
       style="fill:#00682e;fill-opacity:1;fill-rule:nonzero;stroke:none"
       d="m 306.69531,167.95312 c -3.9375,0 -6.26562,-1.98828 -6.26562,-5.88671 0,-3.8125 2.32812,-5.84375 6.26562,-5.84375 3.98047,0 6.35547,2.03125 6.35547,5.84375 0,3.89843 -2.375,5.88671 -6.35547,5.88671 z m 0,-2.7539 c 1.73828,0 1.78125,-1.90625 1.82422,-3.13281 -0.043,-1.0586 -0.17187,-3.13282 -1.82422,-3.13282 -1.60547,0 -1.73437,2.07422 -1.73437,3.13282 0,1.22656 0.21093,3.13281 1.73437,3.13281"
       id="path73" />
    <path
       style="fill:#00682e;fill-opacity:1;fill-rule:nonzero;stroke:none"
       d="m 314.02344,156.39062 h 7.02734 c 2.71094,0 4.40625,0.84766 4.40625,3.05079 0,1.73437 -1.10156,2.58203 -2.71094,3.00781 v 0.0391 c 0.92969,0.12891 1.52344,0.59375 1.90625,1.1875 0.67578,1.22656 0.63282,2.96484 1.10157,4.06641 h -4.57422 c -0.16797,-0.80469 -0.21094,-2.58203 -0.59375,-3.26172 -0.25391,-0.50781 -0.67578,-0.59375 -1.22657,-0.59375 h -0.97656 v 3.85547 h -4.35937 z m 4.1914,4.95704 h 1.10157 c 0.92968,0 1.77734,-0.0859 1.77734,-1.23047 0,-1.01563 -0.80469,-1.1836 -1.69141,-1.1836 h -1.1875 v 2.41407"
       id="path74" />
    <path
       style="fill:#00682e;fill-opacity:1;fill-rule:nonzero;stroke:none"
       d="m 335.78906,156.39062 h 5.96875 l 4.06641,11.35157 H 341.25 l -0.76172,-2.45703 h -3.68359 l -0.67578,2.45703 h -4.36329 z m 1.65235,6.1836 h 2.49609 l -1.22656,-3.72656 h -0.043 l -1.22656,3.72656"
       id="path75" />
    <path
       style="fill:#00682e;fill-opacity:1;fill-rule:nonzero;stroke:none"
       d="m 346.375,156.39062 h 4.36328 v 8.00391 h 5.33203 v 3.34766 H 346.375 v -11.35157"
       id="path76" />
    <path
       style="fill:#00682e;fill-opacity:1;fill-rule:nonzero;stroke:none"
       d="m 357.21484,156.39062 h 4.36328 v 8.00391 h 5.375 v 3.34766 h -9.73828 v -11.35157"
       id="path77" />
    <path
       style="fill:#00682e;fill-opacity:1;fill-rule:nonzero;stroke:none"
       d="m 141.54687,179.26562 h -3.80859 v 8.00391 H 133.375 v -8.00391 h -3.85156 v -3.34765 h 12.02343 v 3.34765"
       id="path78" />
    <path
       style="fill:#00682e;fill-opacity:1;fill-rule:nonzero;stroke:none"
       d="m 148.41016,175.91797 h 9.69531 v 2.7539 h -5.33594 v 1.82032 h 5.21094 v 2.7539 h -5.21094 v 4.02344 h -4.35937 v -11.35156"
       id="path79" />
    <path
       style="fill:#00682e;fill-opacity:1;fill-rule:nonzero;stroke:none"
       d="m 165.17578,187.48047 c -3.98047,0 -6.30859,-1.98828 -6.30859,-5.88672 0,-3.8125 2.32812,-5.84766 6.30859,-5.84766 3.98047,0 6.35547,2.03516 6.35547,5.84766 0,3.89844 -2.375,5.88672 -6.35547,5.88672 z m 0,-2.75391 c 1.73828,0 1.78125,-1.90625 1.78125,-3.13281 0,-1.05859 -0.12891,-3.13672 -1.78125,-3.13672 -1.60937,0 -1.73437,2.07813 -1.73437,3.13672 0,1.22656 0.16796,3.13281 1.73437,3.13281"
       id="path80" />
    <path
       style="fill:#00682e;fill-opacity:1;fill-rule:nonzero;stroke:none"
       d="m 172.50391,175.91797 h 7.02734 c 2.71094,0 4.40625,0.84765 4.40625,3.00781 0,1.77734 -1.10156,2.625 -2.71094,3.05078 0.92969,0.16797 1.48047,0.63281 1.90625,1.22656 0.67578,1.22657 0.63281,2.96485 1.0586,4.06641 h -4.53125 c -0.16797,-0.80469 -0.25391,-2.58203 -0.59375,-3.26172 -0.25391,-0.50781 -0.67579,-0.59375 -1.22657,-0.59375 h -0.97656 v 3.85547 h -4.35937 z m 4.14843,4.95703 h 1.14453 c 0.89063,0 1.77735,-0.0859 1.77735,-1.23047 0,-1.05859 -0.84766,-1.1875 -1.69141,-1.1875 h -1.23047 v 2.41797"
       id="path81" />
    <path
       style="fill:#00682e;fill-opacity:1;fill-rule:nonzero;stroke:none"
       d="m 194.22656,175.91797 h 6.01172 l 4.06641,11.35156 h -4.57422 l -0.76172,-2.45703 h -3.68359 l -0.67579,2.45703 h -4.36328 z m 1.65235,6.18359 h 2.53906 l -1.22656,-3.72656 h -0.043 l -1.26953,3.72656"
       id="path82" />
    <path
       style="fill:#00682e;fill-opacity:1;fill-rule:nonzero;stroke:none"
       d="m 204.85547,175.91797 h 4.36328 v 8.0039 h 5.33203 v 3.34766 h -9.69531 v -11.35156"
       id="path83" />
    <path
       style="fill:#00682e;fill-opacity:1;fill-rule:nonzero;stroke:none"
       d="m 215.69531,175.91797 h 4.36328 v 8.0039 h 5.33594 v 3.34766 h -9.69922 v -11.35156"
       id="path84" />
    <path
       style="fill:#00682e;fill-opacity:1;fill-rule:nonzero;stroke:none"
       d="m 226.41016,175.91797 h 9.82421 v 2.7539 h -5.58984 v 1.60938 h 5.33594 v 2.71094 h -5.33594 v 1.5664 h 5.71484 v 2.71094 h -9.94921 v -11.35156"
       id="path85" />
    <path
       style="fill:#00682e;fill-opacity:1;fill-rule:nonzero;stroke:none"
       d="m 246.94531,178.54297 c 1.65235,0 3.05078,1.39844 3.05078,3.05078 0,1.69531 -1.39843,3.05078 -3.05078,3.05078 -1.6914,0 -3.04687,-1.35547 -3.04687,-3.05078 0,-1.65234 1.35547,-3.05078 3.04687,-3.05078"
       id="path86" />
    <path
       style="fill:#00682e;fill-opacity:1;fill-rule:nonzero;stroke:none"
       d="m 269.22266,179.26562 h -3.85547 v 8.00391 h -4.32032 v -8.00391 h -3.85156 v -3.34765 h 12.02735 v 3.34765"
       id="path87" />
    <path
       style="fill:#00682e;fill-opacity:1;fill-rule:nonzero;stroke:none"
       d="m 274.55469,175.91797 v 11.35156 h -4.35938 v -11.35156 h 4.35938"
       id="path88" />
    <path
       style="fill:#00682e;fill-opacity:1;fill-rule:nonzero;stroke:none"
       d="m 276.20703,175.91797 h 4.36328 v 8.0039 h 5.33594 v 3.34766 h -9.69922 v -11.35156"
       id="path89" />
    <path
       style="fill:#00682e;fill-opacity:1;fill-rule:nonzero;stroke:none"
       d="m 287.04687,175.91797 h 4.36329 v 8.0039 h 5.33593 v 3.34766 h -9.69922 v -11.35156"
       id="path90" />
    <path
       style="fill:#00682e;fill-opacity:1;fill-rule:nonzero;stroke:none"
       d="m 300.8125,175.91797 h 6.01172 l 4.0664,11.35156 h -4.57421 l -0.76172,-2.45703 h -3.6836 l -0.67968,2.45703 h -4.35938 z m 1.69141,6.18359 h 2.5 l -1.23047,-3.72656 h -0.0391 l -1.23046,3.72656"
       id="path91" />
    <path
       style="fill:#00682e;fill-opacity:1;fill-rule:nonzero;stroke:none"
       d="m 311.44141,175.91797 h 6.39062 c 3.26172,0 5.55078,1.10156 5.55078,5.71875 0,4.27734 -2.45703,5.63281 -5.71875,5.63281 h -6.22265 z m 4.35937,8.51172 h 1.10156 c 1.56641,0 1.94922,-1.01563 1.94922,-2.92188 0,-1.94922 -0.42578,-2.96484 -1.99219,-2.96484 h -1.05859 v 5.88672"
       id="path92" />
    <path
       style="fill:#00682e;fill-opacity:1;fill-rule:nonzero;stroke:none"
       d="m 336.08594,179.26562 h -3.85547 v 8.00391 h -4.35938 v -8.00391 h -3.8125 v -3.34765 h 12.02735 v 3.34765"
       id="path93" />
    <path
       style="fill:#00682e;fill-opacity:1;fill-rule:nonzero;stroke:none"
       d="m 342.90234,175.91797 h 9.73828 v 2.7539 h -5.375 v 1.82032 h 5.20704 v 2.7539 h -5.20704 v 4.02344 h -4.36328 v -11.35156"
       id="path94" />
    <path
       style="fill:#00682e;fill-opacity:1;fill-rule:nonzero;stroke:none"
       d="m 359.71484,187.48047 c -3.98047,0 -6.30859,-1.98828 -6.30859,-5.88672 0,-3.8125 2.32812,-5.84766 6.30859,-5.84766 3.9375,0 6.35157,2.03516 6.35157,5.84766 0,3.89844 -2.41407,5.88672 -6.35157,5.88672 z m 0,-2.75391 c 1.69141,0 1.77735,-1.90625 1.77735,-3.13281 0,-1.05859 -0.125,-3.13672 -1.77735,-3.13672 -1.60937,0 -1.73828,2.07813 -1.73828,3.13672 0,1.22656 0.17188,3.13281 1.73828,3.13281"
       id="path95" />
    <path
       style="fill:#00682e;fill-opacity:1;fill-rule:nonzero;stroke:none"
       d="m 367.03906,175.91797 h 7.03125 c 2.70703,0 4.40235,0.84765 4.40235,3.00781 0,1.77734 -1.10157,2.625 -2.75391,3.05078 0.97656,0.16797 1.52734,0.63281 1.94922,1.22656 0.63672,1.22657 0.59375,2.96485 1.05859,4.06641 h -4.53125 c -0.21094,-0.80469 -0.2539,-2.58203 -0.59375,-3.26172 -0.29297,-0.50781 -0.71875,-0.59375 -1.22656,-0.59375 h -1.01563 v 3.85547 h -4.32031 z m 4.15235,4.95703 h 1.14062 c 0.89063,0 1.78125,-0.0859 1.78125,-1.23047 0,-1.05859 -0.84766,-1.1875 -1.73828,-1.1875 h -1.18359 v 2.41797"
       id="path96" />
    <path
       style="fill:#00682e;fill-opacity:1;fill-rule:nonzero;stroke:none"
       d="m 125.5,195.44531 v 11.35156 h -4.36328 V 195.44531 H 125.5"
       id="path97" />
    <path
       style="fill:#00682e;fill-opacity:1;fill-rule:nonzero;stroke:none"
       d="m 127.15234,195.44531 h 4.35938 v 8.00391 h 5.33594 v 3.34765 h -9.69532 v -11.35156"
       id="path98" />
    <path
       style="fill:#00682e;fill-opacity:1;fill-rule:nonzero;stroke:none"
       d="m 137.99219,195.44531 h 4.35937 v 8.00391 h 5.33594 v 3.34765 h -9.69531 v -11.35156"
       id="path99" />
    <path
       style="fill:#00682e;fill-opacity:1;fill-rule:nonzero;stroke:none"
       d="m 151.75391,195.44531 h 6.01171 l 4.06641,11.35156 h -4.57422 l -0.76172,-2.45703 h -3.68359 l -0.67578,2.45703 h -4.36328 z m 1.65234,6.1836 h 2.53906 l -1.22656,-3.76954 h -0.043 l -1.26953,3.76954"
       id="path100" />
    <path
       style="fill:#00682e;fill-opacity:1;fill-rule:nonzero;stroke:none"
       d="m 162.38281,195.44531 h 6.39453 c 3.26172,0 5.54688,1.10156 5.54688,5.71875 0,4.27735 -2.5,5.63281 -5.71485,5.63281 h -6.22656 z m 4.36328,8.51172 h 1.09766 c 1.56641,0 1.90625,-1.01562 1.90625,-2.92187 0,-1.94922 -0.37891,-2.96485 -1.94531,-2.96485 h -1.0586 v 5.88672"
       id="path101" />
    <path
       style="fill:#00682e;fill-opacity:1;fill-rule:nonzero;stroke:none"
       d="m 187.02734,198.78906 h -3.85156 v 8.00781 h -4.36328 v -8.00781 H 175 v -3.34375 h 12.02734 v 3.34375"
       id="path102" />
    <path
       style="fill:#00682e;fill-opacity:1;fill-rule:nonzero;stroke:none"
       d="m 193.84375,195.44531 h 9.74219 v 2.71094 h -5.37891 v 1.86328 h 5.20703 v 2.71094 h -5.20703 v 4.0664 h -4.36328 v -11.35156"
       id="path103" />
    <path
       style="fill:#00682e;fill-opacity:1;fill-rule:nonzero;stroke:none"
       d="m 210.65625,207.00781 c -3.98047,0 -6.30859,-2.03125 -6.30859,-5.88672 0,-3.8125 2.32812,-5.88672 6.30859,-5.88672 3.9375,0 6.30859,2.07422 6.30859,5.88672 0,3.85547 -2.37109,5.88672 -6.30859,5.88672 z m 0,-2.7539 c 1.69531,0 1.73828,-1.90625 1.77734,-3.13282 -0.0391,-1.05859 -0.125,-3.13672 -1.77734,-3.13672 -1.60938,0 -1.73438,2.07813 -1.73438,3.13672 0,1.22657 0.16797,3.13282 1.73438,3.13282"
       id="path104" />
    <path
       style="fill:#00682e;fill-opacity:1;fill-rule:nonzero;stroke:none"
       d="m 217.94141,195.44531 h 7.07031 c 2.71094,0 4.36328,0.84766 4.36328,3.00781 0,1.73438 -1.05859,2.625 -2.71094,3.00782 V 201.5 c 0.92969,0.17187 1.52344,0.63672 1.94922,1.23047 0.63281,1.1875 0.58984,2.96484 1.05859,4.0664 h -4.53125 c -0.21484,-0.80468 -0.2539,-2.58593 -0.59375,-3.26171 -0.29687,-0.50782 -0.71875,-0.59375 -1.26953,-0.59375 h -0.97656 v 3.85546 h -4.35937 z m 4.1914,4.95703 h 1.14453 c 0.88672,0 1.73438,-0.0859 1.73438,-1.27343 0,-1.01563 -0.80469,-1.14454 -1.69531,-1.14454 h -1.1836 v 2.41797"
       id="path105" />
    <path
       style="fill:#00682e;fill-opacity:1;fill-rule:nonzero;stroke:none"
       d="m 239.70703,195.44531 h 5.96875 l 4.06641,11.35156 h -4.57422 l -0.76172,-2.45703 h -3.64063 l -0.72265,2.45703 h -4.31641 z m 1.65234,6.1836 h 2.4961 l -1.22656,-3.76954 h -0.043 l -1.22657,3.76954"
       id="path106" />
    <path
       style="fill:#00682e;fill-opacity:1;fill-rule:nonzero;stroke:none"
       d="m 250.29297,195.44531 h 4.35937 v 8.00391 h 5.37891 v 3.34765 h -9.73828 v -11.35156"
       id="path107" />
    <path
       style="fill:#00682e;fill-opacity:1;fill-rule:nonzero;stroke:none"
       d="m 261.17578,195.44531 h 4.32031 v 8.00391 h 5.375 v 3.34765 h -9.69531 v -11.35156"
       id="path108" />
    <path
       style="fill:#00682e;fill-opacity:1;fill-rule:nonzero;stroke:none"
       d="m 271.84766,195.44531 h 9.82421 v 2.71094 H 276.125 v 1.60937 h 5.33203 v 2.75391 H 276.125 v 1.52344 h 5.67187 v 2.7539 h -9.94921 v -11.35156"
       id="path109" />
    <path
       style="fill:#00682e;fill-opacity:1;fill-rule:nonzero;stroke:none"
       d="m 292.42578,198.07031 c 1.65234,0 3.00781,1.35547 3.00781,3.05078 0,1.65235 -1.35547,3.05078 -3.00781,3.05078 -1.69141,0 -3.04687,-1.39843 -3.04687,-3.05078 0,-1.69531 1.35546,-3.05078 3.04687,-3.05078"
       id="path110" />
    <path
       style="fill:#00682e;fill-opacity:1;fill-rule:nonzero;stroke:none"
       d="m 314.69922,198.78906 h -3.85156 v 8.00781 h -4.36329 v -8.00781 h -3.85156 v -3.34375 h 12.06641 v 3.34375"
       id="path111" />
    <path
       style="fill:#00682e;fill-opacity:1;fill-rule:nonzero;stroke:none"
       d="m 320.03516,195.44531 v 11.35156 h -4.35938 v -11.35156 h 4.35938"
       id="path112" />
    <path
       style="fill:#00682e;fill-opacity:1;fill-rule:nonzero;stroke:none"
       d="m 321.64453,195.44531 h 4.36328 v 8.00391 h 5.375 v 3.34765 h -9.73828 v -11.35156"
       id="path113" />
    <path
       style="fill:#00682e;fill-opacity:1;fill-rule:nonzero;stroke:none"
       d="m 332.52734,195.44531 h 4.36328 v 8.00391 h 5.33594 v 3.34765 h -9.69922 v -11.35156"
       id="path114" />
    <path
       style="fill:#00682e;fill-opacity:1;fill-rule:nonzero;stroke:none"
       d="m 346.28906,195.44531 h 6.01563 l 4.02343,11.35156 h -4.57421 l -0.72266,-2.45703 h -3.68359 l -0.71875,2.45703 h -4.32032 z m 1.65235,6.1836 h 2.54296 l -1.27343,-3.76954 -1.26953,3.76954"
       id="path115" />
    <path
       style="fill:#00682e;fill-opacity:1;fill-rule:nonzero;stroke:none"
       d="m 356.91797,195.44531 h 6.35156 c 3.26172,0 5.58984,1.10156 5.58984,5.71875 0,4.27735 -2.49609,5.63281 -5.75781,5.63281 h -6.18359 z m 4.32031,8.51172 h 1.10156 c 1.56641,0 1.94922,-1.01562 1.94922,-2.92187 0,-1.94922 -0.38281,-2.96485 -1.94922,-2.96485 h -1.10156 v 5.88672"
       id="path116" />
    <path
       style="fill:#00682e;fill-opacity:1;fill-rule:nonzero;stroke:none"
       d="m 381.52344,198.78906 h -3.8125 v 8.00781 h -4.36328 v -8.00781 h -3.85157 v -3.34375 h 12.02735 v 3.34375"
       id="path117" />
    <path
       style="fill:#00682e;fill-opacity:1;fill-rule:nonzero;stroke:none"
       d="m 112.03516,214.97266 h 6.01172 l 4.02343,11.35156 h -4.57422 l -0.71875,-2.45703 h -3.68359 l -0.72266,2.45703 h -4.3164 z m 1.64843,6.14062 h 2.54297 l -1.26953,-3.72656 -1.27344,3.72656"
       id="path118" />
    <path
       style="fill:#00682e;fill-opacity:1;fill-rule:nonzero;stroke:none"
       d="m 122.66406,214.97266 h 4.31641 v 8.0039 h 5.3789 v 3.34766 h -9.69531 v -11.35156"
       id="path119" />
    <path
       style="fill:#00682e;fill-opacity:1;fill-rule:nonzero;stroke:none"
       d="m 133.50391,214.97266 h 4.35937 v 8.0039 h 5.33594 v 3.34766 h -9.69531 v -11.35156"
       id="path120" />
    <path
       style="fill:#00682e;fill-opacity:1;fill-rule:nonzero;stroke:none"
       d="m 144.17578,214.97266 h 9.86328 v 2.71093 h -5.58984 v 1.60938 h 5.33594 v 2.7539 h -5.33594 v 1.52344 h 5.67578 v 2.75391 h -9.94922 v -11.35156"
       id="path121" />
    <path
       style="fill:#00682e;fill-opacity:1;fill-rule:nonzero;stroke:none"
       d="m 164.75391,217.59766 c 1.65234,0 3.05078,1.35546 3.05078,3.05078 0,1.65234 -1.39844,3.05078 -3.05078,3.05078 -1.69532,0 -3.04688,-1.39844 -3.04688,-3.05078 0,-1.69532 1.35156,-3.05078 3.04688,-3.05078"
       id="path122" />
    <path
       style="fill:#00682e;fill-opacity:1;fill-rule:nonzero;stroke:none"
       d="m 187.02734,218.31641 h -3.85156 v 8.00781 h -4.36328 v -8.00781 H 175 v -3.34375 h 12.02734 v 3.34375"
       id="path123" />
    <path
       style="fill:#00682e;fill-opacity:1;fill-rule:nonzero;stroke:none"
       d="m 192.36328,214.97266 v 11.35156 H 188 v -11.35156 h 4.36328"
       id="path124" />
    <path
       style="fill:#00682e;fill-opacity:1;fill-rule:nonzero;stroke:none"
       d="m 194.01562,214.97266 h 4.35938 v 8.0039 h 5.33594 v 3.34766 h -9.69532 v -11.35156"
       id="path125" />
    <path
       style="fill:#00682e;fill-opacity:1;fill-rule:nonzero;stroke:none"
       d="m 204.85547,214.97266 h 4.36328 v 8.0039 h 5.33203 v 3.34766 h -9.69531 v -11.35156"
       id="path126" />
    <path
       style="fill:#00682e;fill-opacity:1;fill-rule:nonzero;stroke:none"
       d="m 218.61719,214.97266 h 6.01562 l 4.01953,11.35156 h -4.57031 l -0.72266,-2.45703 h -3.68359 L 219,226.32422 h -4.36328 z m 1.65234,6.14062 h 2.53906 l -1.22656,-3.72656 h -0.043 l -1.26953,3.72656"
       id="path127" />
    <path
       style="fill:#00682e;fill-opacity:1;fill-rule:nonzero;stroke:none"
       d="m 229.24609,214.97266 h 6.39453 c 3.26172,0 5.54688,1.10156 5.54688,5.71875 0,4.27734 -2.49609,5.63281 -5.71484,5.63281 h -6.22657 z m 4.36328,8.51171 h 1.0586 c 1.60937,0 1.94531,-1.05859 1.94531,-2.92187 0,-1.94922 -0.37891,-2.96484 -1.94531,-2.96484 h -1.0586 v 5.88671"
       id="path128" />
    <path
       style="fill:#00682e;fill-opacity:1;fill-rule:nonzero;stroke:none"
       d="m 253.89062,218.31641 h -3.85156 v 8.00781 h -4.36328 v -8.00781 h -3.85156 v -3.34375 h 12.0664 v 3.34375"
       id="path129" />
    <path
       style="fill:#00682e;fill-opacity:1;fill-rule:nonzero;stroke:none"
       d="m 260.71094,214.97266 h 9.73828 v 2.71093 h -5.37891 v 1.86328 h 5.21094 v 2.71094 h -5.21094 v 4.06641 h -4.35937 v -11.35156"
       id="path130" />
    <path
       style="fill:#00682e;fill-opacity:1;fill-rule:nonzero;stroke:none"
       d="m 277.47656,226.49219 c -3.9375,0 -6.26562,-1.98828 -6.26562,-5.84375 0,-3.8125 2.32812,-5.88672 6.26562,-5.88672 3.98047,0 6.35547,2.07422 6.35547,5.88672 0,3.85547 -2.375,5.84375 -6.35547,5.84375 z m 0,-2.71094 c 1.73828,0 1.78125,-1.90625 1.82422,-3.13281 -0.043,-1.0586 -0.12891,-3.13672 -1.82422,-3.13672 -1.60547,0 -1.73437,2.07812 -1.73437,3.13672 0,1.22656 0.21093,3.13281 1.73437,3.13281"
       id="path131" />
    <path
       style="fill:#00682e;fill-opacity:1;fill-rule:nonzero;stroke:none"
       d="m 284.80469,214.97266 h 7.02734 c 2.75391,0 4.40625,0.84765 4.40625,3.00781 0,1.73437 -1.10156,2.625 -2.71094,3.00781 v 0.0391 c 0.9336,0.17188 1.52344,0.63672 1.90625,1.23047 0.67578,1.1875 0.63282,2.96485 1.10157,4.06641 h -4.57422 c -0.16797,-0.80469 -0.21094,-2.58594 -0.59375,-3.26172 -0.25391,-0.55078 -0.67578,-0.59375 -1.22657,-0.59375 h -0.97656 v 3.85547 h -4.35937 z m 4.1914,4.95703 h 1.10157 c 0.92968,0 1.77734,-0.0859 1.77734,-1.27344 0,-1.01563 -0.80469,-1.14453 -1.69141,-1.14453 h -1.1875 v 2.41797"
       id="path132" />
    <path
       style="fill:#00682e;fill-opacity:1;fill-rule:nonzero;stroke:none"
       d="m 306.57031,214.97266 h 5.96875 l 4.06641,11.35156 h -4.57422 l -0.76172,-2.45703 h -3.68359 l -0.67578,2.45703 h -4.32032 z m 1.65235,6.14062 h 2.49609 l -1.22656,-3.72656 h -0.043 l -1.22656,3.72656"
       id="path133" />
    <path
       style="fill:#00682e;fill-opacity:1;fill-rule:nonzero;stroke:none"
       d="m 317.15625,214.97266 h 4.36328 v 8.0039 h 5.375 v 3.34766 h -9.73828 v -11.35156"
       id="path134" />
    <path
       style="fill:#00682e;fill-opacity:1;fill-rule:nonzero;stroke:none"
       d="m 327.99609,214.97266 h 4.36328 v 8.0039 h 5.37891 v 3.34766 h -9.74219 v -11.35156"
       id="path135" />
    <path
       style="fill:#00682e;fill-opacity:1;fill-rule:nonzero;stroke:none"
       d="m 338.71094,214.97266 h 9.82422 v 2.71093 h -5.54688 v 1.60938 h 5.33594 v 2.7539 h -5.33594 v 1.52344 h 5.67188 v 2.75391 h -9.94922 v -11.35156"
       id="path136" />
    <path
       style="fill:#00682e;fill-opacity:1;fill-rule:nonzero;stroke:none"
       d="m 359.25,217.59766 c 1.69141,0 3.04687,1.35546 3.04687,3.05078 0,1.65234 -1.35546,3.05078 -3.04687,3.05078 -1.65234,0 -3.05078,-1.39844 -3.05078,-3.05078 0,-1.69532 1.39844,-3.05078 3.05078,-3.05078"
       id="path137" />
    <path
       style="fill:#00682e;fill-opacity:1;fill-rule:nonzero;stroke:none"
       d="m 381.52344,218.31641 h -3.8125 v 8.00781 h -4.36328 v -8.00781 h -3.85157 v -3.34375 h 12.02735 v 3.34375"
       id="path138" />
    <path
       style="fill:#00682e;fill-opacity:1;fill-rule:nonzero;stroke:none"
       d="m 386.89844,214.97266 v 11.35156 h -4.35938 v -11.35156 h 4.35938"
       id="path139" />
    <path
       style="fill:#00682e;fill-opacity:1;fill-rule:nonzero;stroke:none"
       d="m 388.50781,214.97266 h 4.36328 v 8.0039 H 398.25 v 3.34766 h -9.74219 v -11.35156"
       id="path140" />
    <path
       style="fill:#00682e;fill-opacity:1;fill-rule:nonzero;stroke:none"
       d="m 399.39062,214.97266 h 4.32032 v 8.0039 h 5.3789 v 3.34766 h -9.69922 v -11.35156"
       id="path141" />
    <path
       style="fill:#00682e;fill-opacity:1;fill-rule:nonzero;stroke:none"
       d="m 102.71875,237.84375 h -3.855469 v 8.00781 h -4.359375 v -8.00781 h -3.8125 V 234.5 h 12.027344 v 3.34375"
       id="path142" />
    <path
       style="fill:#00682e;fill-opacity:1;fill-rule:nonzero;stroke:none"
       d="m 109.57813,234.5 h 9.69531 v 2.71094 h -5.375 v 1.86328 h 5.20703 v 2.71094 h -5.20703 v 4.0664 h -4.32031 V 234.5"
       id="path143" />
    <path
       style="fill:#00682e;fill-opacity:1;fill-rule:nonzero;stroke:none"
       d="m 126.34766,246.01953 c -3.98047,0 -6.3125,-1.98828 -6.3125,-5.84375 0,-3.8125 2.33203,-5.88672 6.3125,-5.88672 3.9375,0 6.30859,2.07422 6.30859,5.88672 0,3.85547 -2.37109,5.84375 -6.30859,5.84375 z m 0,-2.71094 c 1.6914,0 1.77734,-1.94922 1.77734,-3.13281 0,-1.05859 -0.12891,-3.13672 -1.77734,-3.13672 -1.60938,0 -1.73828,2.07813 -1.73828,3.13672 0,1.18359 0.17187,3.13281 1.73828,3.13281"
       id="path144" />
    <path
       style="fill:#00682e;fill-opacity:1;fill-rule:nonzero;stroke:none"
       d="m 133.67187,234.5 h 7.03125 c 2.70704,0 4.35938,0.84766 4.35938,3.00781 0,1.73438 -1.05859,2.625 -2.71094,3.00781 v 0.0391 c 0.97656,0.17187 1.52735,0.59375 1.94922,1.23047 0.63672,1.18359 0.59375,2.92187 1.05859,4.0664 h -4.53125 c -0.21093,-0.84765 -0.2539,-2.58594 -0.59375,-3.30469 -0.2539,-0.50781 -0.71875,-0.55078 -1.26953,-0.55078 h -0.92968 v 3.85547 h -4.36329 z m 4.14844,4.95312 h 1.14453 c 0.89063,0 1.77735,-0.125 1.77735,-1.26953 0,-1.01562 -0.84375,-1.14453 -1.73438,-1.14453 h -1.1875 v 2.41406"
       id="path145" />
    <path
       style="fill:#00682e;fill-opacity:1;fill-rule:nonzero;stroke:none"
       d="m 155.39453,234.5 h 6.01563 l 4.01953,11.35156 h -4.57032 l -0.72265,-2.45703 h -3.6836 l -0.71875,2.45703 h -4.32031 z m 1.65234,6.14062 h 2.53907 l -1.26953,-3.72656 -1.26954,3.72656"
       id="path146" />
    <path
       style="fill:#00682e;fill-opacity:1;fill-rule:nonzero;stroke:none"
       d="m 166.02344,234.5 h 4.32031 v 7.96094 h 5.37891 v 3.39062 h -9.69922 V 234.5"
       id="path147" />
    <path
       style="fill:#00682e;fill-opacity:1;fill-rule:nonzero;stroke:none"
       d="m 176.86328,234.5 h 4.36328 v 7.96094 h 5.33594 v 3.39062 h -9.69922 V 234.5"
       id="path148" />
    <path
       style="fill:#00682e;fill-opacity:1;fill-rule:nonzero;stroke:none"
       d="m 187.53516,234.5 h 9.86718 v 2.71094 h -5.58984 v 1.60937 h 5.33594 v 2.75391 h -5.33594 v 1.52344 h 5.67578 v 2.7539 h -9.95312 V 234.5"
       id="path149" />
    <path
       style="fill:#00682e;fill-opacity:1;fill-rule:nonzero;stroke:none"
       d="m 208.11719,237.125 c 1.64843,0 3.04687,1.35547 3.04687,3.05078 0,1.65234 -1.39844,3.00781 -3.04687,3.00781 -1.69532,0 -3.05078,-1.35547 -3.05078,-3.00781 0,-1.69531 1.35546,-3.05078 3.05078,-3.05078"
       id="path150" />
    <path
       style="fill:#00682e;fill-opacity:1;fill-rule:nonzero;stroke:none"
       d="m 230.39062,237.84375 h -3.85546 v 8.00781 h -4.35938 v -8.00781 h -3.8125 V 234.5 h 12.02734 v 3.34375"
       id="path151" />
    <path
       style="fill:#00682e;fill-opacity:1;fill-rule:nonzero;stroke:none"
       d="m 235.72656,234.5 v 11.35156 h -4.36328 V 234.5 h 4.36328"
       id="path152" />
    <path
       style="fill:#00682e;fill-opacity:1;fill-rule:nonzero;stroke:none"
       d="m 237.37891,234.5 h 4.35937 v 7.96094 h 5.33594 v 3.39062 h -9.69531 V 234.5"
       id="path153" />
    <path
       style="fill:#00682e;fill-opacity:1;fill-rule:nonzero;stroke:none"
       d="m 248.21875,234.5 h 4.35937 v 7.96094 h 5.33594 v 3.39062 h -9.69531 V 234.5"
       id="path154" />
    <path
       style="fill:#00682e;fill-opacity:1;fill-rule:nonzero;stroke:none"
       d="m 261.98047,234.5 h 6.01172 l 4.02343,11.35156 h -4.57421 l -0.71875,-2.45703 h -3.6836 l -0.67969,2.45703 H 258 Z m 1.65234,6.14062 h 2.53906 l -1.22656,-3.72656 h -0.043 l -1.26953,3.72656"
       id="path155" />
    <path
       style="fill:#00682e;fill-opacity:1;fill-rule:nonzero;stroke:none"
       d="m 272.60937,234.5 h 6.39454 c 3.25781,0 5.54687,1.10156 5.54687,5.67578 0,4.32031 -2.5,5.67578 -5.71875,5.67578 h -6.22266 z m 4.35938,8.51172 h 1.05859 c 1.60938,0 1.94922,-1.0586 1.94922,-2.92188 0,-1.94922 -0.3789,-2.96484 -1.94922,-2.96484 h -1.05859 v 5.88672"
       id="path156" />
    <path
       style="fill:#00682e;fill-opacity:1;fill-rule:nonzero;stroke:none"
       d="m 297.25391,237.84375 h -3.85157 v 8.00781 h -4.36328 v -8.00781 h -3.85547 V 234.5 h 12.07032 v 3.34375"
       id="path157" />
    <path
       style="fill:#00682e;fill-opacity:1;fill-rule:nonzero;stroke:none"
       d="m 304.07031,234.5 h 9.74219 v 2.71094 h -5.37891 v 1.86328 h 5.20703 v 2.71094 h -5.20703 v 4.0664 h -4.36328 V 234.5"
       id="path158" />
    <path
       style="fill:#00682e;fill-opacity:1;fill-rule:nonzero;stroke:none"
       d="m 320.83984,246.01953 c -3.9375,0 -6.26562,-1.98828 -6.26562,-5.84375 0,-3.8125 2.32812,-5.88672 6.26562,-5.88672 3.98047,0 6.35157,2.07422 6.35157,5.88672 0,3.85547 -2.3711,5.84375 -6.35157,5.84375 z m 0,-2.71094 c 1.73828,0 1.77735,-1.94922 1.82032,-3.13281 -0.043,-1.05859 -0.125,-3.13672 -1.82032,-3.13672 -1.60937,0 -1.73437,2.07813 -1.73437,3.13672 0,1.18359 0.21094,3.13281 1.73437,3.13281"
       id="path159" />
    <path
       style="fill:#00682e;fill-opacity:1;fill-rule:nonzero;stroke:none"
       d="m 328.16797,234.5 h 7.02734 c 2.75391,0 4.40625,0.84766 4.40625,3.00781 0,1.73438 -1.10156,2.625 -2.71094,3.00781 v 0.0391 c 0.92969,0.17187 1.52344,0.59375 1.90625,1.23047 0.67579,1.18359 0.63282,2.92187 1.09766,4.0664 h -4.57031 c -0.17188,-0.84765 -0.21485,-2.58594 -0.59375,-3.30469 -0.25391,-0.50781 -0.67969,-0.55078 -1.23047,-0.55078 h -0.97266 v 3.85547 h -4.35937 z m 4.1914,4.95312 h 1.10157 c 0.92968,0 1.77734,-0.125 1.77734,-1.26953 0,-1.01562 -0.80469,-1.14453 -1.69531,-1.14453 h -1.1836 v 2.41406"
       id="path160" />
    <path
       style="fill:#00682e;fill-opacity:1;fill-rule:nonzero;stroke:none"
       d="m 349.93359,234.5 h 5.96875 l 4.06641,11.35156 h -4.57422 l -0.76172,-2.45703 h -3.68359 l -0.67969,2.45703 h -4.31641 z m 1.64844,6.14062 h 2.5 l -1.22656,-3.72656 h -0.043 l -1.23047,3.72656"
       id="path161" />
    <path
       style="fill:#00682e;fill-opacity:1;fill-rule:nonzero;stroke:none"
       d="m 360.51953,234.5 h 4.35938 v 7.96094 h 5.3789 v 3.39062 h -9.73828 V 234.5"
       id="path162" />
    <path
       style="fill:#00682e;fill-opacity:1;fill-rule:nonzero;stroke:none"
       d="m 371.35937,234.5 h 4.35938 v 7.96094 h 5.37891 v 3.39062 h -9.73829 V 234.5"
       id="path163" />
    <path
       style="fill:#00682e;fill-opacity:1;fill-rule:nonzero;stroke:none"
       d="m 382.07422,234.5 h 9.82422 v 2.71094 h -5.55078 v 1.60937 h 5.33593 v 2.75391 h -5.33593 v 1.52344 h 5.67578 v 2.7539 h -9.94922 V 234.5"
       id="path164" />
    <path
       style="fill:#00682e;fill-opacity:1;fill-rule:nonzero;stroke:none"
       d="m 402.60937,237.125 c 1.69532,0 3.05079,1.35547 3.05079,3.05078 0,1.65234 -1.35547,3.00781 -3.05079,3.00781 -1.65234,0 -3.04687,-1.35547 -3.04687,-3.00781 0,-1.69531 1.39453,-3.05078 3.04687,-3.05078"
       id="path165" />
    <path
       style="fill:#00682e;fill-opacity:1;fill-rule:nonzero;stroke:none"
       d="M 88.574219,257.37109 H 84.71875 v 7.96485 h -4.359375 v -7.96485 h -3.8125 v -3.38672 h 12.027344 v 3.38672"
       id="path166" />
    <path
       style="fill:#00682e;fill-opacity:1;fill-rule:nonzero;stroke:none"
       d="m 95.390625,253.98437 h 9.742185 v 2.75391 h -5.378904 v 1.82031 h 5.207034 v 2.75391 h -5.207034 v 4.02344 h -4.363281 v -11.35157"
       id="path167" />
    <path
       style="fill:#00682e;fill-opacity:1;fill-rule:nonzero;stroke:none"
       d="m 112.20313,265.54687 c -3.98047,0 -6.3086,-1.98828 -6.3086,-5.88671 0,-3.76954 2.32813,-5.84375 6.3086,-5.84375 3.9375,0 6.30859,2.07421 6.30859,5.84375 0,3.89843 -2.37109,5.88671 -6.30859,5.88671 z m 0,-2.7539 c 1.69531,0 1.77734,-1.90625 1.77734,-3.13281 0,-1.0586 -0.125,-3.13282 -1.77734,-3.13282 -1.60938,0 -1.73829,2.07422 -1.73829,3.13282 0,1.22656 0.17188,3.13281 1.73829,3.13281"
       id="path168" />
    <path
       style="fill:#00682e;fill-opacity:1;fill-rule:nonzero;stroke:none"
       d="m 119.52734,253.98437 h 7.03125 c 2.71094,0 4.35938,0.84766 4.35938,3.05079 0,1.73437 -1.0586,2.625 -2.70703,3.00781 v 0.0391 c 0.97265,0.12891 1.52343,0.59375 1.94531,1.1875 0.63672,1.22656 0.59375,2.96484 1.05859,4.06641 h -4.53125 c -0.21093,-0.80469 -0.2539,-2.58203 -0.58984,-3.26172 -0.25391,-0.50781 -0.72266,-0.59375 -1.27344,-0.59375 h -0.97265 v 3.85547 h -4.32032 z m 4.15235,4.9961 h 1.14062 c 0.89063,0 1.78125,-0.125 1.78125,-1.26953 0,-1.01563 -0.84765,-1.1836 -1.73828,-1.1836 h -1.18359 v 2.45313"
       id="path169" />
    <path
       style="fill:#00682e;fill-opacity:1;fill-rule:nonzero;stroke:none"
       d="m 141.25391,253.98437 h 6.01171 l 4.02344,11.35157 h -4.57422 l -0.71875,-2.45703 h -3.68359 l -0.72266,2.45703 h -4.3164 z m 1.64843,6.1836 h 2.54297 l -1.26953,-3.72656 -1.27344,3.72656"
       id="path170" />
    <path
       style="fill:#00682e;fill-opacity:1;fill-rule:nonzero;stroke:none"
       d="m 151.83984,253.98437 h 4.35938 v 8.00391 h 5.3789 v 3.34766 h -9.73828 v -11.35157"
       id="path171" />
    <path
       style="fill:#00682e;fill-opacity:1;fill-rule:nonzero;stroke:none"
       d="m 162.72266,253.98437 h 4.35937 v 8.00391 h 5.33594 v 3.34766 h -9.69531 v -11.35157"
       id="path172" />
    <path
       style="fill:#00682e;fill-opacity:1;fill-rule:nonzero;stroke:none"
       d="m 173.39062,253.98437 h 9.86719 v 2.75391 h -5.58984 v 1.60938 h 5.33594 v 2.71093 h -5.33594 v 1.56641 h 5.67578 v 2.71094 h -9.95313 v -11.35157"
       id="path173" />
    <path
       style="fill:#00682e;fill-opacity:1;fill-rule:nonzero;stroke:none"
       d="m 193.97266,256.65234 c 1.65234,0 3.00781,1.35547 3.00781,3.00782 0,1.69531 -1.35547,3.05078 -3.00781,3.05078 -1.69532,0 -3.05079,-1.35547 -3.05079,-3.05078 0,-1.65235 1.35547,-3.00782 3.05079,-3.00782"
       id="path174" />
    <path
       style="fill:#00682e;fill-opacity:1;fill-rule:nonzero;stroke:none"
       d="m 216.24609,257.37109 h -3.85156 v 7.96485 h -4.36328 v -7.96485 h -3.8125 v -3.38672 h 12.02734 v 3.38672"
       id="path175" />
    <path
       style="fill:#00682e;fill-opacity:1;fill-rule:nonzero;stroke:none"
       d="m 221.58203,253.98437 v 11.35157 h -4.36328 v -11.35157 h 4.36328"
       id="path176" />
    <path
       style="fill:#00682e;fill-opacity:1;fill-rule:nonzero;stroke:none"
       d="m 223.23437,253.98437 h 4.35938 v 8.00391 h 5.33594 v 3.34766 h -9.69532 v -11.35157"
       id="path177" />
    <path
       style="fill:#00682e;fill-opacity:1;fill-rule:nonzero;stroke:none"
       d="m 234.07422,253.98437 h 4.36328 v 8.00391 h 5.33203 v 3.34766 h -9.69531 v -11.35157"
       id="path178" />
    <path
       style="fill:#00682e;fill-opacity:1;fill-rule:nonzero;stroke:none"
       d="m 247.83594,253.98437 h 6.01172 l 4.02343,11.35157 h -4.57031 l -0.72266,-2.45703 h -3.68359 l -0.67578,2.45703 h -4.36328 z m 1.65234,6.1836 h 2.53906 l -1.22656,-3.72656 h -0.043 l -1.26953,3.72656"
       id="path179" />
    <path
       style="fill:#00682e;fill-opacity:1;fill-rule:nonzero;stroke:none"
       d="m 258.46484,253.98437 h 6.39453 c 3.26172,0 5.54688,1.14454 5.54688,5.71875 0,4.32032 -2.49609,5.63282 -5.71484,5.63282 h -6.22657 z m 4.36328,8.55469 h 1.0586 c 1.60937,0 1.94531,-1.05859 1.94531,-2.92187 0,-1.99219 -0.37891,-2.96485 -1.94531,-2.96485 h -1.0586 v 5.88672"
       id="path180" />
    <path
       style="fill:#00682e;fill-opacity:1;fill-rule:nonzero;stroke:none"
       d="m 283.06641,257.37109 h -3.8086 v 7.96485 h -4.36328 v -7.96485 h -3.85156 v -3.38672 h 12.02344 v 3.38672"
       id="path181" />
    <path
       style="fill:#00682e;fill-opacity:1;fill-rule:nonzero;stroke:none"
       d="m 289.92969,253.98437 h 9.73828 v 2.75391 h -5.37891 v 1.82031 H 299.5 v 2.75391 h -5.21094 v 4.02344 h -4.35937 v -11.35157"
       id="path182" />
    <path
       style="fill:#00682e;fill-opacity:1;fill-rule:nonzero;stroke:none"
       d="m 306.69531,265.54687 c -3.9375,0 -6.26562,-1.98828 -6.26562,-5.88671 0,-3.76954 2.32812,-5.84375 6.26562,-5.84375 3.98047,0 6.35547,2.07421 6.35547,5.84375 0,3.89843 -2.375,5.88671 -6.35547,5.88671 z m 0,-2.7539 c 1.73828,0 1.78125,-1.90625 1.82422,-3.13281 -0.043,-1.0586 -0.17187,-3.13282 -1.82422,-3.13282 -1.60547,0 -1.73437,2.07422 -1.73437,3.13282 0,1.22656 0.21093,3.13281 1.73437,3.13281"
       id="path183" />
    <path
       style="fill:#00682e;fill-opacity:1;fill-rule:nonzero;stroke:none"
       d="m 314.02344,253.98437 h 7.02734 c 2.71094,0 4.40625,0.84766 4.40625,3.05079 0,1.73437 -1.10156,2.625 -2.71094,3.00781 v 0.0391 c 0.92969,0.12891 1.52344,0.59375 1.90625,1.1875 0.67578,1.22656 0.63282,2.96484 1.10157,4.06641 h -4.57422 c -0.16797,-0.80469 -0.21094,-2.58203 -0.59375,-3.26172 -0.25391,-0.50781 -0.67578,-0.59375 -1.22657,-0.59375 h -0.97656 v 3.85547 h -4.35937 z m 4.1914,4.9961 h 1.10157 c 0.92968,0 1.77734,-0.125 1.77734,-1.26953 0,-1.01563 -0.80469,-1.1836 -1.69141,-1.1836 h -1.1875 v 2.45313"
       id="path184" />
    <path
       style="fill:#00682e;fill-opacity:1;fill-rule:nonzero;stroke:none"
       d="m 335.78906,253.98437 h 5.96875 l 4.06641,11.35157 H 341.25 l -0.76172,-2.45703 h -3.68359 l -0.67578,2.45703 h -4.36329 z m 1.65235,6.1836 h 2.49609 l -1.22656,-3.72656 h -0.043 l -1.22656,3.72656"
       id="path185" />
    <path
       style="fill:#00682e;fill-opacity:1;fill-rule:nonzero;stroke:none"
       d="m 346.375,253.98437 h 4.36328 v 8.00391 h 5.33203 v 3.34766 H 346.375 v -11.35157"
       id="path186" />
    <path
       style="fill:#00682e;fill-opacity:1;fill-rule:nonzero;stroke:none"
       d="m 357.21484,253.98437 h 4.36328 v 8.00391 h 5.375 v 3.34766 h -9.73828 v -11.35157"
       id="path187" />
    <path
       style="fill:#00682e;fill-opacity:1;fill-rule:nonzero;stroke:none"
       d="m 367.92969,253.98437 h 9.82422 v 2.75391 h -5.54688 v 1.60938 H 377.5 v 2.71093 h -5.29297 v 1.56641 h 5.67188 v 2.71094 h -9.94922 v -11.35157"
       id="path188" />
    <path
       style="fill:#00682e;fill-opacity:1;fill-rule:nonzero;stroke:none"
       d="m 388.46484,256.65234 c 1.69532,0 3.05078,1.35547 3.05078,3.00782 0,1.69531 -1.35546,3.05078 -3.05078,3.05078 -1.64843,0 -3.04687,-1.35547 -3.04687,-3.05078 0,-1.65235 1.39844,-3.00782 3.04687,-3.00782"
       id="path189" />
    <path
       style="fill:#00682e;fill-opacity:1;fill-rule:nonzero;stroke:none"
       d="m 410.74219,257.37109 h -3.8125 v 7.96485 h -4.36328 v -7.96485 h -3.85157 v -3.38672 h 12.02735 v 3.38672"
       id="path190" />
    <path
       style="fill:#00682e;fill-opacity:1;fill-rule:nonzero;stroke:none"
       d="m 416.11719,253.98437 v 11.35157 h -4.35938 v -11.35157 h 4.35938"
       id="path191" />
    <path
       style="fill:#00682e;fill-opacity:1;fill-rule:nonzero;stroke:none"
       d="m 417.72656,253.98437 h 4.36328 v 8.00391 h 5.37891 v 3.34766 h -9.74219 v -11.35157"
       id="path192" />
    <path
       style="fill:#00682e;fill-opacity:1;fill-rule:nonzero;stroke:none"
       d="m 428.60937,253.98437 h 4.32032 v 8.00391 h 5.3789 v 3.34766 h -9.69922 v -11.35157"
       id="path193" />
    <path
       style="fill:#00682e;fill-opacity:1;fill-rule:nonzero;stroke:none"
       d="M 74.683594,276.85937 H 70.875 v 8.00391 h -4.363281 v -8.00391 h -3.851563 v -3.34765 h 12.023438 v 3.34765"
       id="path194" />
    <path
       style="fill:#00682e;fill-opacity:1;fill-rule:nonzero;stroke:none"
       d="m 80.0625,273.51172 v 11.35156 H 75.699219 V 273.51172 H 80.0625"
       id="path195" />
    <path
       style="fill:#00682e;fill-opacity:1;fill-rule:nonzero;stroke:none"
       d="m 81.671875,273.51172 h 4.363281 v 8.0039 h 5.375 v 3.34766 h -9.738281 v -11.35156"
       id="path196" />
    <path
       style="fill:#00682e;fill-opacity:1;fill-rule:nonzero;stroke:none"
       d="M 92.511719,273.51172 H 96.875 v 8.0039 h 5.375 v 3.34766 h -9.738281 v -11.35156"
       id="path197" />
    <path
       style="fill:#00682e;fill-opacity:1;fill-rule:nonzero;stroke:none"
       d="m 106.31641,273.51172 h 5.97265 l 4.0625,11.35156 h -4.57031 l -0.76562,-2.45703 H 107.375 l -0.71875,2.45703 h -4.32031 z m 1.65234,6.18359 h 2.49609 l -1.22656,-3.72656 h -0.043 l -1.22656,3.72656"
       id="path198" />
    <path
       style="fill:#00682e;fill-opacity:1;fill-rule:nonzero;stroke:none"
       d="m 116.90234,273.51172 h 6.39454 c 3.26171,0 5.54687,1.10156 5.54687,5.71875 0,4.27734 -2.45312,5.63281 -5.71484,5.63281 h -6.22657 z m 4.36329,8.51172 h 1.10156 c 1.5664,0 1.94531,-1.01563 1.94531,-2.92188 0,-1.94922 -0.37891,-2.96484 -1.94531,-2.96484 h -1.10156 v 5.88672"
       id="path199" />
    <path
       style="fill:#00682e;fill-opacity:1;fill-rule:nonzero;stroke:none"
       d="m 141.54687,276.85937 h -3.80859 v 8.00391 H 133.375 v -8.00391 h -3.85156 v -3.34765 h 12.02343 v 3.34765"
       id="path200" />
    <path
       style="fill:#00682e;fill-opacity:1;fill-rule:nonzero;stroke:none"
       d="m 148.41016,273.51172 h 9.69531 v 2.7539 h -5.33594 v 1.82032 h 5.21094 v 2.7539 h -5.21094 v 4.02344 h -4.35937 v -11.35156"
       id="path201" />
    <path
       style="fill:#00682e;fill-opacity:1;fill-rule:nonzero;stroke:none"
       d="m 165.17578,285.07422 c -3.98047,0 -6.30859,-1.98828 -6.30859,-5.88672 0,-3.8125 2.32812,-5.84766 6.30859,-5.84766 3.98047,0 6.35547,2.03516 6.35547,5.84766 0,3.89844 -2.375,5.88672 -6.35547,5.88672 z m 0,-2.75391 c 1.73828,0 1.78125,-1.90625 1.78125,-3.13281 0,-1.05859 -0.12891,-3.13672 -1.78125,-3.13672 -1.60937,0 -1.73437,2.07813 -1.73437,3.13672 0,1.22656 0.16796,3.13281 1.73437,3.13281"
       id="path202" />
    <path
       style="fill:#00682e;fill-opacity:1;fill-rule:nonzero;stroke:none"
       d="m 172.50391,273.51172 h 7.02734 c 2.71094,0 4.40625,0.84765 4.40625,3.05078 0,1.73437 -1.10156,2.625 -2.71094,3.00781 v 0.0391 c 0.92969,0.12891 1.48047,0.59375 1.90625,1.1875 0.67578,1.22657 0.63281,2.96485 1.0586,4.06641 h -4.53125 c -0.16797,-0.80469 -0.25391,-2.58594 -0.59375,-3.26172 -0.25391,-0.50781 -0.67579,-0.59375 -1.22657,-0.59375 h -0.97656 v 3.85547 h -4.35937 z m 4.14843,4.95703 h 1.14453 c 0.89063,0 1.77735,-0.0859 1.77735,-1.23047 0,-1.01562 -0.84766,-1.1875 -1.69141,-1.1875 h -1.23047 v 2.41797"
       id="path203" />
    <path
       style="fill:#00682e;fill-opacity:1;fill-rule:nonzero;stroke:none"
       d="m 194.22656,273.51172 h 6.01172 l 4.06641,11.35156 h -4.57422 l -0.76172,-2.45703 h -3.68359 l -0.67579,2.45703 h -4.36328 z m 1.65235,6.18359 h 2.53906 l -1.22656,-3.72656 h -0.043 l -1.26953,3.72656"
       id="path204" />
    <path
       style="fill:#00682e;fill-opacity:1;fill-rule:nonzero;stroke:none"
       d="m 204.85547,273.51172 h 4.36328 v 8.0039 h 5.33203 v 3.34766 h -9.69531 v -11.35156"
       id="path205" />
    <path
       style="fill:#00682e;fill-opacity:1;fill-rule:nonzero;stroke:none"
       d="m 215.69531,273.51172 h 4.36328 v 8.0039 h 5.33594 v 3.34766 h -9.69922 v -11.35156"
       id="path206" />
    <path
       style="fill:#00682e;fill-opacity:1;fill-rule:nonzero;stroke:none"
       d="m 226.41016,273.51172 h 9.82421 v 2.7539 h -5.58984 v 1.60938 h 5.33594 v 2.71094 h -5.33594 v 1.5664 h 5.71484 v 2.71094 h -9.94921 v -11.35156"
       id="path207" />
    <path
       style="fill:#00682e;fill-opacity:1;fill-rule:nonzero;stroke:none"
       d="m 246.94531,276.13672 c 1.65235,0 3.05078,1.39844 3.05078,3.05078 0,1.69531 -1.39843,3.05078 -3.05078,3.05078 -1.6914,0 -3.04687,-1.35547 -3.04687,-3.05078 0,-1.65234 1.35547,-3.05078 3.04687,-3.05078"
       id="path208" />
    <path
       style="fill:#00682e;fill-opacity:1;fill-rule:nonzero;stroke:none"
       d="m 269.22266,276.85937 h -3.85547 v 8.00391 h -4.32032 v -8.00391 h -3.85156 v -3.34765 h 12.02735 v 3.34765"
       id="path209" />
    <path
       style="fill:#00682e;fill-opacity:1;fill-rule:nonzero;stroke:none"
       d="m 274.55469,273.51172 v 11.35156 h -4.35938 v -11.35156 h 4.35938"
       id="path210" />
    <path
       style="fill:#00682e;fill-opacity:1;fill-rule:nonzero;stroke:none"
       d="m 276.20703,273.51172 h 4.36328 v 8.0039 h 5.33594 v 3.34766 h -9.69922 v -11.35156"
       id="path211" />
    <path
       style="fill:#00682e;fill-opacity:1;fill-rule:nonzero;stroke:none"
       d="m 287.04687,273.51172 h 4.36329 v 8.0039 h 5.33593 v 3.34766 h -9.69922 v -11.35156"
       id="path212" />
    <path
       style="fill:#00682e;fill-opacity:1;fill-rule:nonzero;stroke:none"
       d="m 300.8125,273.51172 h 6.01172 l 4.0664,11.35156 h -4.57421 l -0.76172,-2.45703 h -3.6836 l -0.67968,2.45703 h -4.35938 z m 1.69141,6.18359 h 2.5 l -1.23047,-3.72656 h -0.0391 l -1.23046,3.72656"
       id="path213" />
    <path
       style="fill:#00682e;fill-opacity:1;fill-rule:nonzero;stroke:none"
       d="m 311.44141,273.51172 h 6.39062 c 3.26172,0 5.55078,1.10156 5.55078,5.71875 0,4.27734 -2.45703,5.63281 -5.71875,5.63281 h -6.22265 z m 4.35937,8.51172 h 1.10156 c 1.56641,0 1.94922,-1.01563 1.94922,-2.92188 0,-1.94922 -0.42578,-2.96484 -1.99219,-2.96484 h -1.05859 v 5.88672"
       id="path214" />
    <path
       style="fill:#00682e;fill-opacity:1;fill-rule:nonzero;stroke:none"
       d="m 336.08594,276.85937 h -3.85547 v 8.00391 h -4.35938 v -8.00391 h -3.8125 v -3.34765 h 12.02735 v 3.34765"
       id="path215" />
    <path
       style="fill:#00682e;fill-opacity:1;fill-rule:nonzero;stroke:none"
       d="m 342.90234,273.51172 h 9.73828 v 2.7539 h -5.375 v 1.82032 h 5.20704 v 2.7539 h -5.20704 v 4.02344 h -4.36328 v -11.35156"
       id="path216" />
    <path
       style="fill:#00682e;fill-opacity:1;fill-rule:nonzero;stroke:none"
       d="m 359.71484,285.07422 c -3.98047,0 -6.30859,-1.98828 -6.30859,-5.88672 0,-3.8125 2.32812,-5.84766 6.30859,-5.84766 3.9375,0 6.35157,2.03516 6.35157,5.84766 0,3.89844 -2.41407,5.88672 -6.35157,5.88672 z m 0,-2.75391 c 1.69141,0 1.77735,-1.90625 1.77735,-3.13281 0,-1.05859 -0.125,-3.13672 -1.77735,-3.13672 -1.60937,0 -1.73828,2.07813 -1.73828,3.13672 0,1.22656 0.17188,3.13281 1.73828,3.13281"
       id="path217" />
    <path
       style="fill:#00682e;fill-opacity:1;fill-rule:nonzero;stroke:none"
       d="m 367.03906,273.51172 h 7.03125 c 2.70703,0 4.40235,0.84765 4.40235,3.05078 0,1.73437 -1.10157,2.625 -2.75391,3.00781 v 0.0391 c 0.97656,0.12891 1.52734,0.59375 1.94922,1.1875 0.63672,1.22657 0.59375,2.96485 1.05859,4.06641 h -4.53125 c -0.21094,-0.80469 -0.2539,-2.58594 -0.59375,-3.26172 -0.29297,-0.50781 -0.71875,-0.59375 -1.22656,-0.59375 h -1.01563 v 3.85547 h -4.32031 z m 4.15235,4.95703 h 1.14062 c 0.89063,0 1.78125,-0.0859 1.78125,-1.23047 0,-1.01562 -0.84766,-1.1875 -1.73828,-1.1875 h -1.18359 v 2.41797"
       id="path218" />
    <path
       style="fill:#00682e;fill-opacity:1;fill-rule:nonzero;stroke:none"
       d="m 388.76172,273.51172 h 6.01562 l 4.02344,11.35156 h -4.57422 l -0.72265,-2.45703 h -3.6836 l -0.71875,2.45703 h -4.32031 z m 1.65234,6.18359 h 2.5 l -1.23047,-3.72656 -1.26953,3.72656"
       id="path219" />
    <path
       style="fill:#00682e;fill-opacity:1;fill-rule:nonzero;stroke:none"
       d="m 399.39062,273.51172 h 4.32032 v 8.0039 h 5.3789 v 3.34766 h -9.69922 v -11.35156"
       id="path220" />
    <path
       style="fill:#00682e;fill-opacity:1;fill-rule:nonzero;stroke:none"
       d="m 410.23437,273.51172 h 4.35938 v 8.0039 h 5.33594 v 3.34766 h -9.69532 v -11.35156"
       id="path221" />
    <path
       style="fill:#00682e;fill-opacity:1;fill-rule:nonzero;stroke:none"
       d="m 420.90234,273.51172 h 9.86719 v 2.7539 h -5.58984 v 1.60938 h 5.33593 v 2.71094 h -5.33593 v 1.5664 h 5.67578 v 2.71094 h -9.95313 v -11.35156"
       id="path222" />
    <path
       style="fill:#00682e;fill-opacity:1;fill-rule:nonzero;stroke:none"
       d="m 441.48437,276.13672 c 1.65235,0 3.00391,1.39844 3.00391,3.05078 0,1.69531 -1.35156,3.05078 -3.00391,3.05078 -1.69531,0 -3.05078,-1.35547 -3.05078,-3.05078 0,-1.65234 1.35547,-3.05078 3.05078,-3.05078"
       id="path223" />
    <path
       style="fill:#00682e;fill-opacity:1;fill-rule:nonzero;stroke:none"
       d="m 45.167969,293.03906 h 6.015625 l 4.023437,11.35156 h -4.574219 l -0.71875,-2.45703 h -3.6875 l -0.675781,2.45703 H 41.1875 Z m 1.652343,6.1836 h 2.542969 l -1.230469,-3.72657 h -0.04297 l -1.269532,3.72657"
       id="path224" />
    <path
       style="fill:#00682e;fill-opacity:1;fill-rule:nonzero;stroke:none"
       d="m 55.796875,293.03906 h 4.363281 v 8.00391 h 5.335938 v 3.34765 h -9.699219 v -11.35156"
       id="path225" />
    <path
       style="fill:#00682e;fill-opacity:1;fill-rule:nonzero;stroke:none"
       d="M 66.640625,293.03906 H 71 v 8.00391 h 5.335938 v 3.34765 h -9.695313 v -11.35156"
       id="path226" />
    <path
       style="fill:#00682e;fill-opacity:1;fill-rule:nonzero;stroke:none"
       d="m 77.351562,293.03906 h 9.824219 v 2.75391 h -5.589843 v 1.60937 h 5.335937 v 2.71094 h -5.335937 v 1.56641 h 5.71875 v 2.71093 h -9.953126 v -11.35156"
       id="path227" />
    <path
       style="fill:#00682e;fill-opacity:1;fill-rule:nonzero;stroke:none"
       d="m 97.890625,295.66406 c 1.652344,0 3.046875,1.39844 3.046875,3.05078 0,1.69532 -1.394531,3.05078 -3.046875,3.05078 -1.695313,0 -3.050781,-1.35546 -3.050781,-3.05078 0,-1.65234 1.355468,-3.05078 3.050781,-3.05078"
       id="path228" />
    <path
       style="fill:#00682e;fill-opacity:1;fill-rule:nonzero;stroke:none"
       d="m 120.16406,296.38281 h -3.85547 v 8.00781 h -4.35937 v -8.00781 h -3.8125 v -3.34375 h 12.02734 v 3.34375"
       id="path229" />
    <path
       style="fill:#00682e;fill-opacity:1;fill-rule:nonzero;stroke:none"
       d="m 125.5,293.03906 v 11.35156 h -4.36328 V 293.03906 H 125.5"
       id="path230" />
    <path
       style="fill:#00682e;fill-opacity:1;fill-rule:nonzero;stroke:none"
       d="m 127.15234,293.03906 h 4.35938 v 8.00391 h 5.33594 v 3.34765 h -9.69532 v -11.35156"
       id="path231" />
    <path
       style="fill:#00682e;fill-opacity:1;fill-rule:nonzero;stroke:none"
       d="m 137.99219,293.03906 h 4.35937 v 8.00391 h 5.33594 v 3.34765 h -9.69531 v -11.35156"
       id="path232" />
    <path
       style="fill:#00682e;fill-opacity:1;fill-rule:nonzero;stroke:none"
       d="m 151.75391,293.03906 h 6.01171 l 4.06641,11.35156 h -4.57422 l -0.76172,-2.45703 h -3.68359 l -0.67578,2.45703 h -4.36328 z m 1.65234,6.1836 h 2.53906 l -1.22656,-3.72657 h -0.043 l -1.26953,3.72657"
       id="path233" />
    <path
       style="fill:#00682e;fill-opacity:1;fill-rule:nonzero;stroke:none"
       d="m 162.38281,293.03906 h 6.39453 c 3.26172,0 5.54688,1.10156 5.54688,5.71875 0,4.27735 -2.5,5.63281 -5.71485,5.63281 h -6.22656 z m 4.36328,8.51172 h 1.09766 c 1.56641,0 1.90625,-1.01562 1.90625,-2.92187 0,-1.94922 -0.37891,-2.96485 -1.94531,-2.96485 h -1.0586 v 5.88672"
       id="path234" />
    <path
       style="fill:#00682e;fill-opacity:1;fill-rule:nonzero;stroke:none"
       d="m 187.02734,296.38281 h -3.85156 v 8.00781 h -4.36328 v -8.00781 H 175 v -3.34375 h 12.02734 v 3.34375"
       id="path235" />
    <path
       style="fill:#00682e;fill-opacity:1;fill-rule:nonzero;stroke:none"
       d="m 193.84375,293.03906 h 9.74219 v 2.75391 h -5.37891 v 1.82031 h 5.20703 v 2.71094 h -5.20703 v 4.0664 h -4.36328 v -11.35156"
       id="path236" />
    <path
       style="fill:#00682e;fill-opacity:1;fill-rule:nonzero;stroke:none"
       d="m 210.65625,304.60156 c -3.98047,0 -6.30859,-2.03125 -6.30859,-5.88672 0,-3.8125 2.32812,-5.88672 6.30859,-5.88672 3.9375,0 6.30859,2.07422 6.30859,5.88672 0,3.85547 -2.37109,5.88672 -6.30859,5.88672 z m 0,-2.7539 c 1.69531,0 1.73828,-1.90625 1.77734,-3.13282 -0.0391,-1.05859 -0.125,-3.13672 -1.77734,-3.13672 -1.60938,0 -1.73438,2.07813 -1.73438,3.13672 0,1.22657 0.16797,3.13282 1.73438,3.13282"
       id="path237" />
    <path
       style="fill:#00682e;fill-opacity:1;fill-rule:nonzero;stroke:none"
       d="m 217.94141,293.03906 h 7.07031 c 2.71094,0 4.36328,0.84766 4.36328,3.05078 0,1.73438 -1.05859,2.58203 -2.71094,3.00391 0.92969,0.17187 1.52344,0.63672 1.94922,1.23047 0.63281,1.22656 0.58984,2.96484 1.05859,4.0664 h -4.53125 c -0.21484,-0.80468 -0.2539,-2.58593 -0.59375,-3.26171 -0.29687,-0.50782 -0.71875,-0.59375 -1.26953,-0.59375 h -0.97656 v 3.85546 h -4.35937 z m 4.1914,4.95703 h 1.14453 c 0.88672,0 1.73438,-0.0859 1.73438,-1.23047 0,-1.05859 -0.80469,-1.1875 -1.69531,-1.1875 h -1.1836 v 2.41797"
       id="path238" />
    <path
       style="fill:#00682e;fill-opacity:1;fill-rule:nonzero;stroke:none"
       d="m 239.70703,293.03906 h 5.96875 l 4.06641,11.35156 h -4.57422 l -0.76172,-2.45703 h -3.64063 l -0.72265,2.45703 h -4.31641 z m 1.65234,6.1836 h 2.4961 l -1.22656,-3.72657 h -0.043 l -1.22657,3.72657"
       id="path239" />
    <path
       style="fill:#00682e;fill-opacity:1;fill-rule:nonzero;stroke:none"
       d="m 250.29297,293.03906 h 4.35937 v 8.00391 h 5.37891 v 3.34765 h -9.73828 v -11.35156"
       id="path240" />
    <path
       style="fill:#00682e;fill-opacity:1;fill-rule:nonzero;stroke:none"
       d="m 261.17578,293.03906 h 4.32031 v 8.00391 h 5.375 v 3.34765 h -9.69531 v -11.35156"
       id="path241" />
    <path
       style="fill:#00682e;fill-opacity:1;fill-rule:nonzero;stroke:none"
       d="m 271.84766,293.03906 h 9.82421 v 2.75391 H 276.125 v 1.60937 h 5.33203 v 2.71094 H 276.125 v 1.56641 h 5.67187 v 2.71093 h -9.94921 v -11.35156"
       id="path242" />
    <path
       style="fill:#00682e;fill-opacity:1;fill-rule:nonzero;stroke:none"
       d="m 292.42578,295.66406 c 1.65234,0 3.00781,1.39844 3.00781,3.05078 0,1.69532 -1.35547,3.05078 -3.00781,3.05078 -1.69141,0 -3.04687,-1.35546 -3.04687,-3.05078 0,-1.65234 1.35546,-3.05078 3.04687,-3.05078"
       id="path243" />
    <path
       style="fill:#00682e;fill-opacity:1;fill-rule:nonzero;stroke:none"
       d="m 314.69922,296.38281 h -3.85156 v 8.00781 h -4.36329 v -8.00781 h -3.85156 v -3.34375 h 12.06641 v 3.34375"
       id="path244" />
    <path
       style="fill:#00682e;fill-opacity:1;fill-rule:nonzero;stroke:none"
       d="m 320.03516,293.03906 v 11.35156 h -4.35938 v -11.35156 h 4.35938"
       id="path245" />
    <path
       style="fill:#00682e;fill-opacity:1;fill-rule:nonzero;stroke:none"
       d="m 321.64453,293.03906 h 4.36328 v 8.00391 h 5.375 v 3.34765 h -9.73828 v -11.35156"
       id="path246" />
    <path
       style="fill:#00682e;fill-opacity:1;fill-rule:nonzero;stroke:none"
       d="m 332.52734,293.03906 h 4.36328 v 8.00391 h 5.33594 v 3.34765 h -9.69922 v -11.35156"
       id="path247" />
    <path
       style="fill:#00682e;fill-opacity:1;fill-rule:nonzero;stroke:none"
       d="m 346.28906,293.03906 h 6.01563 l 4.02343,11.35156 h -4.57421 l -0.72266,-2.45703 h -3.68359 l -0.71875,2.45703 h -4.32032 z m 1.65235,6.1836 h 2.54296 l -1.27343,-3.72657 -1.26953,3.72657"
       id="path248" />
    <path
       style="fill:#00682e;fill-opacity:1;fill-rule:nonzero;stroke:none"
       d="m 356.91797,293.03906 h 6.35156 c 3.26172,0 5.58984,1.10156 5.58984,5.71875 0,4.27735 -2.49609,5.63281 -5.75781,5.63281 h -6.18359 z m 4.32031,8.51172 h 1.10156 c 1.56641,0 1.94922,-1.01562 1.94922,-2.92187 0,-1.94922 -0.38281,-2.96485 -1.94922,-2.96485 h -1.10156 v 5.88672"
       id="path249" />
    <path
       style="fill:#00682e;fill-opacity:1;fill-rule:nonzero;stroke:none"
       d="m 381.52344,296.38281 h -3.8125 v 8.00781 h -4.36328 v -8.00781 h -3.85157 v -3.34375 h 12.02735 v 3.34375"
       id="path250" />
    <path
       style="fill:#00682e;fill-opacity:1;fill-rule:nonzero;stroke:none"
       d="m 388.38281,293.03906 h 9.73828 v 2.75391 h -5.3789 v 1.82031 h 5.21093 v 2.71094 h -5.21093 v 4.0664 h -4.35938 v -11.35156"
       id="path251" />
    <path
       style="fill:#00682e;fill-opacity:1;fill-rule:nonzero;stroke:none"
       d="m 405.15234,304.60156 c -3.98047,0 -6.26953,-2.03125 -6.26953,-5.88672 0,-3.8125 2.28906,-5.88672 6.26953,-5.88672 3.98047,0 6.35157,2.07422 6.35157,5.88672 0,3.85547 -2.3711,5.88672 -6.35157,5.88672 z m 0,-2.7539 c 1.73438,0 1.77735,-1.90625 1.82032,-3.13282 -0.043,-1.05859 -0.17188,-3.13672 -1.82032,-3.13672 -1.60937,0 -1.73828,2.07813 -1.73828,3.13672 0,1.22657 0.17188,3.13282 1.73828,3.13282"
       id="path252" />
    <path
       style="fill:#00682e;fill-opacity:1;fill-rule:nonzero;stroke:none"
       d="m 412.47656,293.03906 h 7.03125 c 2.70703,0 4.40235,0.84766 4.40235,3.05078 0,1.73438 -1.10157,2.58203 -2.71094,3.00391 0.93359,0.17187 1.48437,0.63672 1.90625,1.23047 0.67578,1.22656 0.63672,2.96484 1.05859,4.0664 h -4.53125 c -0.16797,-0.80468 -0.21094,-2.58593 -0.59375,-3.26171 -0.2539,-0.50782 -0.67578,-0.59375 -1.22656,-0.59375 h -0.97266 v 3.85546 h -4.36328 z m 4.14844,4.95703 h 1.14453 c 0.89063,0 1.77734,-0.0859 1.77734,-1.23047 0,-1.05859 -0.84375,-1.1875 -1.6914,-1.1875 H 416.625 v 2.41797"
       id="path253" />
    <path
       style="fill:#00682e;fill-opacity:1;fill-rule:nonzero;stroke:none"
       d="m 434.19922,293.03906 h 6.01562 l 4.0625,11.35156 h -4.57031 l -0.76562,-2.45703 h -3.6836 l -0.67578,2.45703 h -4.36328 z m 1.69531,6.1836 h 2.49609 l -1.22656,-3.72657 h -0.043 l -1.22656,3.72657"
       id="path254" />
    <path
       style="fill:#00682e;fill-opacity:1;fill-rule:nonzero;stroke:none"
       d="m 444.82812,293.03906 h 4.36329 v 8.00391 h 5.33593 v 3.34765 h -9.69922 v -11.35156"
       id="path255" />
    <path
       style="fill:#00682e;fill-opacity:1;fill-rule:nonzero;stroke:none"
       d="m 455.66797,293.03906 h 4.36328 v 8.00391 h 5.33594 v 3.34765 h -9.69922 v -11.35156"
       id="path256" />
    <path
       style="fill:#00682e;fill-opacity:1;fill-rule:nonzero;stroke:none"
       d="m 34.710938,312.56641 h 6.394531 c 3.257812,0 5.546875,1.10156 5.546875,5.71875 0,4.27734 -2.457032,5.63281 -5.71875,5.63281 h -6.222656 z m 4.359374,8.51171 h 1.101563 c 1.566406,0 1.90625,-1.01562 1.90625,-2.92187 0,-1.94922 -0.382813,-2.96484 -1.949219,-2.96484 h -1.058594 v 5.88671"
       id="path257" />
    <path
       style="fill:#00682e;fill-opacity:1;fill-rule:nonzero;stroke:none"
       d="M 59.355469,315.91016 H 55.5 v 8.00781 h -4.359375 v -8.00781 h -3.8125 v -3.34375 h 12.027344 v 3.34375"
       id="path258" />
    <path
       style="fill:#00682e;fill-opacity:1;fill-rule:nonzero;stroke:none"
       d="m 66.214844,312.56641 h 9.699218 v 2.71093 h -5.378906 v 1.86328 h 5.207032 v 2.71094 h -5.207032 v 4.06641 h -4.320312 v -11.35156"
       id="path259" />
    <path
       style="fill:#00682e;fill-opacity:1;fill-rule:nonzero;stroke:none"
       d="m 82.984375,324.12891 c -3.980469,0 -6.308594,-2.03125 -6.308594,-5.88672 0,-3.8125 2.328125,-5.88672 6.308594,-5.88672 3.9375,0 6.351563,2.07422 6.351563,5.88672 0,3.85547 -2.414063,5.88672 -6.351563,5.88672 z m 0,-2.75391 c 1.695313,0 1.777344,-1.90625 1.777344,-3.13281 0,-1.0586 -0.125,-3.13672 -1.777344,-3.13672 -1.609375,0 -1.734375,2.07812 -1.734375,3.13672 0,1.22656 0.167969,3.13281 1.734375,3.13281"
       id="path260" />
    <path
       style="fill:#00682e;fill-opacity:1;fill-rule:nonzero;stroke:none"
       d="m 90.308594,312.56641 h 7.03125 c 2.710936,0 4.359376,0.84765 4.359376,3.00781 0,1.73437 -1.05859,2.625 -2.707032,3.00781 v 0.0391 c 0.972656,0.17188 1.523442,0.63672 1.945312,1.23047 0.63672,1.1875 0.59375,2.96485 1.05859,4.06641 h -4.531246 c -0.210938,-0.80469 -0.253906,-2.58594 -0.589844,-3.26172 -0.253906,-0.55078 -0.722656,-0.59375 -1.273438,-0.59375 h -0.929687 v 3.85547 h -4.363281 z m 4.152344,4.95703 h 1.140624 c 0.890626,0 1.78125,-0.0859 1.78125,-1.27344 0,-1.01563 -0.847656,-1.14453 -1.738281,-1.14453 h -1.183593 v 2.41797"
       id="path261" />
    <path
       style="fill:#00682e;fill-opacity:1;fill-rule:nonzero;stroke:none"
       d="m 112.03516,312.56641 h 6.01172 l 4.02343,11.35156 h -4.57422 l -0.71875,-2.45703 h -3.68359 l -0.72266,2.45703 h -4.3164 z m 1.64843,6.14062 h 2.54297 l -1.26953,-3.72656 -1.27344,3.72656"
       id="path262" />
    <path
       style="fill:#00682e;fill-opacity:1;fill-rule:nonzero;stroke:none"
       d="m 122.66406,312.56641 h 4.31641 v 8.0039 h 5.3789 v 3.34766 h -9.69531 v -11.35156"
       id="path263" />
    <path
       style="fill:#00682e;fill-opacity:1;fill-rule:nonzero;stroke:none"
       d="m 133.50391,312.56641 h 4.35937 v 8.0039 h 5.33594 v 3.34766 h -9.69531 v -11.35156"
       id="path264" />
    <path
       style="fill:#00682e;fill-opacity:1;fill-rule:nonzero;stroke:none"
       d="m 144.17578,312.56641 h 9.86328 v 2.71093 h -5.58984 v 1.60938 h 5.33594 v 2.7539 h -5.33594 v 1.52344 h 5.67578 v 2.75391 h -9.94922 v -11.35156"
       id="path265" />
    <path
       style="fill:#00682e;fill-opacity:1;fill-rule:nonzero;stroke:none"
       d="m 164.75391,315.19141 c 1.65234,0 3.05078,1.35546 3.05078,3.05078 0,1.65234 -1.39844,3.05078 -3.05078,3.05078 -1.69532,0 -3.04688,-1.39844 -3.04688,-3.05078 0,-1.69532 1.35156,-3.05078 3.04688,-3.05078"
       id="path266" />
    <path
       style="fill:#00682e;fill-opacity:1;fill-rule:nonzero;stroke:none"
       d="m 187.02734,315.91016 h -3.85156 v 8.00781 h -4.36328 v -8.00781 H 175 v -3.34375 h 12.02734 v 3.34375"
       id="path267" />
    <path
       style="fill:#00682e;fill-opacity:1;fill-rule:nonzero;stroke:none"
       d="m 192.36328,312.56641 v 11.35156 H 188 v -11.35156 h 4.36328"
       id="path268" />
    <path
       style="fill:#00682e;fill-opacity:1;fill-rule:nonzero;stroke:none"
       d="m 194.01562,312.56641 h 4.35938 v 8.0039 h 5.33594 v 3.34766 h -9.69532 v -11.35156"
       id="path269" />
    <path
       style="fill:#00682e;fill-opacity:1;fill-rule:nonzero;stroke:none"
       d="m 204.85547,312.56641 h 4.36328 v 8.0039 h 5.33203 v 3.34766 h -9.69531 v -11.35156"
       id="path270" />
    <path
       style="fill:#00682e;fill-opacity:1;fill-rule:nonzero;stroke:none"
       d="m 218.61719,312.56641 h 6.01562 l 4.01953,11.35156 h -4.57031 l -0.72266,-2.45703 h -3.68359 L 219,323.91797 h -4.36328 z m 1.65234,6.14062 h 2.53906 l -1.22656,-3.72656 h -0.043 l -1.26953,3.72656"
       id="path271" />
    <path
       style="fill:#00682e;fill-opacity:1;fill-rule:nonzero;stroke:none"
       d="m 229.24609,312.56641 h 6.39453 c 3.26172,0 5.54688,1.10156 5.54688,5.71875 0,4.27734 -2.49609,5.63281 -5.71484,5.63281 h -6.22657 z m 4.36328,8.51171 h 1.0586 c 1.60937,0 1.94531,-1.01562 1.94531,-2.92187 0,-1.94922 -0.37891,-2.96484 -1.94531,-2.96484 h -1.0586 v 5.88671"
       id="path272" />
    <path
       style="fill:#00682e;fill-opacity:1;fill-rule:nonzero;stroke:none"
       d="m 253.89062,315.91016 h -3.85156 v 8.00781 h -4.36328 v -8.00781 h -3.85156 v -3.34375 h 12.0664 v 3.34375"
       id="path273" />
    <path
       style="fill:#00682e;fill-opacity:1;fill-rule:nonzero;stroke:none"
       d="m 260.71094,312.56641 h 9.73828 v 2.71093 h -5.37891 v 1.86328 h 5.21094 v 2.71094 h -5.21094 v 4.06641 h -4.35937 v -11.35156"
       id="path274" />
    <path
       style="fill:#00682e;fill-opacity:1;fill-rule:nonzero;stroke:none"
       d="m 277.47656,324.12891 c -3.9375,0 -6.26562,-2.03125 -6.26562,-5.88672 0,-3.8125 2.32812,-5.88672 6.26562,-5.88672 3.98047,0 6.35547,2.07422 6.35547,5.88672 0,3.85547 -2.375,5.88672 -6.35547,5.88672 z m 0,-2.75391 c 1.73828,0 1.78125,-1.90625 1.82422,-3.13281 -0.043,-1.0586 -0.12891,-3.13672 -1.82422,-3.13672 -1.60547,0 -1.73437,2.07812 -1.73437,3.13672 0,1.22656 0.21093,3.13281 1.73437,3.13281"
       id="path275" />
    <path
       style="fill:#00682e;fill-opacity:1;fill-rule:nonzero;stroke:none"
       d="m 284.80469,312.56641 h 7.02734 c 2.75391,0 4.40625,0.84765 4.40625,3.00781 0,1.73437 -1.10156,2.625 -2.71094,3.00781 v 0.0391 c 0.9336,0.17188 1.52344,0.63672 1.90625,1.23047 0.67578,1.1875 0.63282,2.96485 1.10157,4.06641 h -4.57422 c -0.16797,-0.80469 -0.21094,-2.58594 -0.59375,-3.26172 -0.25391,-0.55078 -0.67578,-0.59375 -1.22657,-0.59375 h -0.97656 v 3.85547 h -4.35937 z m 4.1914,4.95703 h 1.10157 c 0.92968,0 1.77734,-0.0859 1.77734,-1.27344 0,-1.01563 -0.80469,-1.14453 -1.69141,-1.14453 h -1.1875 v 2.41797"
       id="path276" />
    <path
       style="fill:#00682e;fill-opacity:1;fill-rule:nonzero;stroke:none"
       d="m 306.57031,312.56641 h 5.96875 l 4.06641,11.35156 h -4.57422 l -0.76172,-2.45703 h -3.68359 l -0.67578,2.45703 h -4.32032 z m 1.65235,6.14062 h 2.49609 l -1.22656,-3.72656 h -0.043 l -1.22656,3.72656"
       id="path277" />
    <path
       style="fill:#00682e;fill-opacity:1;fill-rule:nonzero;stroke:none"
       d="m 317.15625,312.56641 h 4.36328 v 8.0039 h 5.375 v 3.34766 h -9.73828 v -11.35156"
       id="path278" />
    <path
       style="fill:#00682e;fill-opacity:1;fill-rule:nonzero;stroke:none"
       d="m 327.99609,312.56641 h 4.36328 v 8.0039 h 5.37891 v 3.34766 h -9.74219 v -11.35156"
       id="path279" />
    <path
       style="fill:#00682e;fill-opacity:1;fill-rule:nonzero;stroke:none"
       d="m 338.71094,312.56641 h 9.82422 v 2.71093 h -5.54688 v 1.60938 h 5.33594 v 2.7539 h -5.33594 v 1.52344 h 5.67188 v 2.75391 h -9.94922 v -11.35156"
       id="path280" />
    <path
       style="fill:#00682e;fill-opacity:1;fill-rule:nonzero;stroke:none"
       d="m 359.25,315.19141 c 1.69141,0 3.04687,1.35546 3.04687,3.05078 0,1.65234 -1.35546,3.05078 -3.04687,3.05078 -1.65234,0 -3.05078,-1.39844 -3.05078,-3.05078 0,-1.69532 1.39844,-3.05078 3.05078,-3.05078"
       id="path281" />
    <path
       style="fill:#00682e;fill-opacity:1;fill-rule:nonzero;stroke:none"
       d="m 381.52344,315.91016 h -3.8125 v 8.00781 h -4.36328 v -8.00781 h -3.85157 v -3.34375 h 12.02735 v 3.34375"
       id="path282" />
    <path
       style="fill:#00682e;fill-opacity:1;fill-rule:nonzero;stroke:none"
       d="m 386.89844,312.56641 v 11.35156 h -4.35938 v -11.35156 h 4.35938"
       id="path283" />
    <path
       style="fill:#00682e;fill-opacity:1;fill-rule:nonzero;stroke:none"
       d="m 388.50781,312.56641 h 4.36328 v 8.0039 H 398.25 v 3.34766 h -9.74219 v -11.35156"
       id="path284" />
    <path
       style="fill:#00682e;fill-opacity:1;fill-rule:nonzero;stroke:none"
       d="m 399.39062,312.56641 h 4.32032 v 8.0039 h 5.3789 v 3.34766 h -9.69922 v -11.35156"
       id="path285" />
    <path
       style="fill:#00682e;fill-opacity:1;fill-rule:nonzero;stroke:none"
       d="m 413.15625,312.56641 h 6.01172 l 4.02344,11.35156 h -4.57422 l -0.76172,-2.45703 h -3.64063 l -0.72265,2.45703 h -4.32032 z m 1.64844,6.14062 h 2.5 l -1.23047,-3.72656 h -0.0391 l -1.23047,3.72656"
       id="path286" />
    <path
       style="fill:#00682e;fill-opacity:1;fill-rule:nonzero;stroke:none"
       d="m 423.78125,312.56641 h 6.35547 c 3.25781,0 5.54687,1.10156 5.54687,5.71875 0,4.27734 -2.45703,5.63281 -5.71875,5.63281 h -6.18359 z m 4.32031,8.51171 h 1.10156 c 1.56641,0 1.94922,-1.01562 1.94922,-2.92187 0,-1.94922 -0.38281,-2.96484 -1.94922,-2.96484 h -1.10156 v 5.88671"
       id="path287" />
    <path
       style="fill:#00682e;fill-opacity:1;fill-rule:nonzero;stroke:none"
       d="m 448.38672,315.91016 h -3.8125 v 8.00781 h -4.35938 v -8.00781 h -3.85547 v -3.34375 h 12.02735 v 3.34375"
       id="path288" />
    <path
       style="fill:#00682e;fill-opacity:1;fill-rule:nonzero;stroke:none"
       d="m 455.24609,312.56641 h 9.69532 v 2.71093 h -5.33204 v 1.86328 h 5.20704 v 2.71094 h -5.20704 v 4.06641 h -4.36328 v -11.35156"
       id="path289" />
    <path
       style="fill:#00682e;fill-opacity:1;fill-rule:nonzero;stroke:none"
       d="m 472.01562,324.12891 c -3.98046,0 -6.26953,-2.03125 -6.26953,-5.88672 0,-3.8125 2.28907,-5.88672 6.26953,-5.88672 3.98047,0 6.35157,2.07422 6.35157,5.88672 0,3.85547 -2.3711,5.88672 -6.35157,5.88672 z m 0,-2.75391 c 1.73438,0 1.77735,-1.90625 1.77735,-3.13281 0,-1.0586 -0.125,-3.13672 -1.77735,-3.13672 -1.60937,0 -1.73828,2.07812 -1.73828,3.13672 0,1.22656 0.17188,3.13281 1.73828,3.13281"
       id="path290" />
    <path
       style="fill:none;stroke:#ffffff;stroke-width:1.5;stroke-linecap:butt;stroke-linejoin:miter;stroke-miterlimit:4;stroke-opacity:1"
       d="M 23.397105,2.105908 2.475162,30.46902 h 41.843886 z m 0,0"
       transform="scale(10.840517,10.84375)"
       id="path291" />
    <path
       style="fill:#ffffff;fill-opacity:1;fill-rule:nonzero;stroke:#000000;stroke-width:0.5;stroke-linecap:butt;stroke-linejoin:miter;stroke-miterlimit:4;stroke-opacity:1"
       d="m 22.522204,10.715058 h 1.41793 l 4.804747,11.511887 c 0.452945,1.07817 0.605368,1.378963 1.871235,1.417868 v 1.003962 h -6.617247 v -1.003962 c 0.339799,-0.01945 1.078131,0.05872 1.324242,-0.207133 0.242147,-0.26549 0.09369,-0.53098 -0.01982,-0.81232 l -0.8122,-2.136887 H 19.67049 c -0.210798,0.566642 -0.570055,1.191642 -0.570055,1.851585 0,1.07817 1.003901,1.324207 1.890693,1.304755 v 1.003962 h -5.425969 v -1.003962 c 1.511618,-0.152378 2.156262,-1.683718 2.683437,-2.89049 z m 1.476665,8.601585 -1.871235,-4.707133 -1.949068,4.707133 z m 0,0"
       transform="scale(10.840517,10.84375)"
       id="path292" />
  </g>
</svg>
