<?xml version="1.0" encoding="UTF-8" standalone="no"?>
<svg enable-background="new 0 0 841.891 595.276" height="283.328" viewBox="0 0 238.43201 283.328" width="238.43201" xmlns="http://www.w3.org/2000/svg" xmlns:xlink="http://www.w3.org/1999/xlink">
   <defs>
      <clipPath id="a">
         <use height="100%" overflow="visible" width="100%" xlink:href="#b"/>
      </clipPath>
      <path id="b" d="m62.362 69.403h666.14203v456.46799h-666.14203z"/>
   </defs>
   <path d="m-14.827999-12.777996h310v310h-310z" fill="#fff"/>
   <path clip-path="url(#a)" d="m96.936 456.839c0-3.225 4.565-6.133 11.874-8.178l-.559 3.147c0 0-1.039 1.425 5.226 4.346 5.936 2.769 18.591 3.099 20.727 3.098 2.137.001 15.292-.639 20.903-3.168 5.7-2.567 5.042-4.275 5.042-4.275l-.589-3.323c7.683 2.053 12.518 5.034 12.519 8.354-.001 6.19-16.822 11.21-37.572 11.21-20.75 0-37.571-5.02-37.571-11.211" fill="#fb6f30" transform="matrix(2 0 0 2 -188.872 -657.772)"/>
   <path clip-path="url(#a)" d="m109.235 446.256c-.851-.438-1.425-1.272-1.425-2.231v-110.077c0-1.414 1.251-2.562 2.793-2.562h97.755c1.543 0 2.794 1.146 2.794 2.561v110.077c0 1.414-1.251 2.56-2.794 2.561l-49.135-.001-9.832-55.484c-.816 2.044-7.312 3.636-15.191 3.636-8.123 0-14.692-1.676-15.159-3.81zm34.493-87.121l-1.149-6.483-2.222-17.19c0-.57-2.786-1.089-6.154-1.089-3.383 0-6.157.52-6.157 1.09l-2.223 17.189-1.141 6.432c.604 1.054 4.7 1.859 9.581 1.859 4.78-.001 8.744-.784 9.465-1.808" fill="#fb6f30" transform="matrix(2 0 0 2 -188.872 -657.772)"/>
   <path clip-path="url(#a)" clip-rule="evenodd" d="m163.774 377.533l-7.155.001 3.431-5.844h9.971v41.387h-6.247z" fill="#fff" fill-rule="evenodd" transform="matrix(2 0 0 2 -188.872 -657.772)"/>
   <path clip-path="url(#a)" clip-rule="evenodd" d="m191.097 407.207l15.412-.001v5.871h-27.796l14.367-17.396c1.411-1.732 2.592-3.234 3.538-4.504.966-1.268 1.696-2.331 2.198-3.188 1.019-1.681 1.527-3.189 1.527-4.53 0-1.93-.679-3.547-2.036-4.852-1.36-1.305-3.039-1.956-5.04-1.957-4.181 0-6.576 2.475-7.184 7.425l-6.22.001c1.001-8.721 5.406-13.081 13.216-13.082 3.77 0 6.934 1.198 9.488 3.592 2.573 2.396 3.861 5.361 3.861 8.899 0 2.253-.599 4.46-1.797 6.621-.608 1.126-1.501 2.466-2.681 4.021-1.161 1.537-2.637 3.36-4.423 5.468z" fill="#fff" fill-rule="evenodd" transform="matrix(2 0 0 2 -188.872 -657.772)"/>
</svg>
