<?xml version="1.0" encoding="UTF-8" standalone="no"?>
<svg enable-background="new 0 0 841.891 595.276" height="282.47601" viewBox="0 0 237.17 282.47601" width="237.17" xmlns="http://www.w3.org/2000/svg" xmlns:xlink="http://www.w3.org/1999/xlink">
   <defs>
      <clipPath id="a">
         <use height="100%" overflow="visible" width="100%" xlink:href="#b"/>
      </clipPath>
      <path id="b" d="m62.362 69.403h666.14203v456.46799h-666.14203z"/>
   </defs>
   <path d="m-17.432499-3.2909863h280v310h-280z" fill="#fff"/>
   <path clip-path="url(#a)" d="m269.225 456.734c0-3.219 4.557-6.121 11.852-8.162l-.557 3.142c0 0-1.037 1.423 5.215 4.339 5.924 2.762 18.559 3.091 20.689 3.091 2.132 0 15.264-.639 20.865-3.162 5.689-2.564 5.032-4.268 5.032-4.268l-.588-3.317c7.669 2.05 12.494 5.025 12.494 8.338 0 6.18-16.789 11.189-37.502 11.189-20.71 0-37.5-5.01-37.5-11.19m103.912-56.546c-.001 2.055-.755 3.836-2.264 5.345-1.493 1.492-3.291 2.238-5.397 2.238-2.16 0-3.985-.746-5.476-2.238-1.492-1.492-2.238-3.299-2.238-5.424 0-2.123.746-3.931 2.238-5.423 1.49-1.492 3.308-2.238 5.448-2.238 2.124.001 3.941.756 5.45 2.264 1.493 1.493 2.239 3.317 2.239 5.476m-91.611 45.847c-.911-.418-1.537-1.282-1.537-2.279v-109.523c0-1.408 1.243-2.547 2.779-2.547h97.263c1.536 0 2.779 1.139 2.779 2.546v109.523c0 1.406-1.243 2.548-2.779 2.548h-48.668l-16.579-93.564-2.219-17.158c0-.57-2.781-1.088-6.142-1.088-3.378 0-6.147.518-6.147 1.088l-2.219 17.158zm54.441-68.251v34.91h6.135v-40.65h-9.795l-3.37 5.739zm34.011-7.162l-14.217 19.298c-2.651 3.6-3.977 7.004-3.977 10.217 0 3.581 1.36 6.679 4.081 9.294 2.773 2.614 6.003 3.922 9.689 3.922 3.72 0 6.906-1.324 9.557-3.976 2.667-2.668 4.002-5.861 4.002-9.583-.001-3.51-1.193-6.512-3.581-9.005-2.404-2.526-5.257-3.791-8.556-3.791-.211.001-.501.019-.869.054-.369.034-.816.088-1.343.158l9.715-13.218z" fill="#003dcc" transform="matrix(2 0 0 2 -533.45 -658.372)"/>
   <path clip-path="url(#a)" clip-rule="evenodd" d="m291.37 390.13c4.802.992 6.574 1.207 15.094 1.495 8.611-.227 11.394-.599 15.059-1.488l-5.487-31.032c0 1.181-4.282 2.138-9.563 2.138-5.281 0-9.64-.942-9.641-2.124z" fill="#003dcc" fill-rule="evenodd" transform="matrix(2 0 0 2 -533.45 -658.372)"/>
   <path clip-path="url(#a)" d="m291.37 390.13c4.801.992 6.574 1.207 15.094 1.495 8.611-.227 11.394-.599 15.059-1.488l-5.487-31.032c0 1.181-4.283 2.139-9.563 2.139-5.281 0-9.64-.944-9.64-2.125z" fill="none" stroke="#000" stroke-miterlimit="3.86400008" stroke-width=".242" transform="matrix(2 0 0 2 -533.45 -658.372)"/>
   <path clip-path="url(#a)" d="m330.095 438.428l-4.861-27.32c-3.339 1.566-8.948 2.694-18.815 2.87-9.71-.088-15.377-1.392-18.804-2.811l-4.843 27.231c0 4.239 10.615 7.466 23.652 7.466 13.038 0 23.671-3.196 23.671-7.436z" fill="#003dcc" transform="matrix(2 0 0 2 -533.45 -658.372)"/>
</svg>
