<?xml version="1.0" encoding="UTF-8" standalone="no"?>
<svg enable-background="new 0 0 841.891 595.276" height="282.172" viewBox="0 0 237.472 282.172" width="237.472" xmlns="http://www.w3.org/2000/svg" xmlns:xlink="http://www.w3.org/1999/xlink">
   <defs>
      <clipPath id="a">
         <use height="100%" overflow="visible" width="100%" xlink:href="#b"/>
      </clipPath>
      <path id="b" d="m62.362 69.403h666.14203v456.46799h-666.14203z"/>
   </defs>
   <path d="m-8.9549999-13.365003h260v300h-260z" fill="#fff"/>
   <path clip-path="url(#a)" d="m440.823 456.61c0-3.213 4.547-6.107 11.824-8.145l-.556 3.135c0 0-1.034 1.419 5.203 4.327 5.91 2.756 18.513 3.084 20.64 3.085 2.127 0 15.229-.637 20.815-3.155 5.677-2.558 5.021-4.257 5.021-4.257l-.586-3.31c7.649 2.044 12.464 5.014 12.464 8.318 0 6.165-16.75 11.162-37.413 11.162-20.661.001-37.412-4.996-37.412-11.16m12.249-10.538c-.848-.438-1.42-1.27-1.42-2.224v-109.615c0-1.407 1.245-2.549 2.782-2.549h97.345c1.535 0 2.78 1.141 2.78 2.549v109.615c0 1.408-1.245 2.549-2.78 2.549h-48.93l-16.575-93.537-2.214-17.117c.001-.569-2.771-1.086-6.126-1.086-3.37 0-6.133.517-6.134 1.086l-2.212 17.117z" fill="#ff0000" transform="matrix(2 0 0 2 -876.646 -658.368)"/>
   <path clip-path="url(#a)" clip-rule="evenodd" d="m507.13 377.819h-7.035l3.373-5.744h9.802v40.684h-6.14z" fill="#fff" fill-rule="evenodd" transform="matrix(2 0 0 2 -876.646 -658.368)"/>
   <path clip-path="url(#a)" clip-rule="evenodd" d="m530.594 400.981c0 1.879.648 3.495 1.95 4.848 1.316 1.336 2.914 2.002 4.795 2.004 1.861 0 3.45-.66 4.77-1.979 1.317-1.334 1.976-2.933 1.976-4.795 0-1.879-.658-3.479-1.976-4.796-1.318-1.316-2.908-1.976-4.77-1.976-1.845 0-3.435.659-4.77 1.976-1.317 1.32-1.975 2.89-1.975 4.718m.763-18.024c0 1.738.588 3.198 1.766 4.374 1.193 1.195 2.634 1.792 4.321 1.791 1.668.002 3.101-.596 4.295-1.791 1.193-1.194 1.789-2.625 1.791-4.295-.001-1.668-.598-3.101-1.791-4.295-1.194-1.195-2.627-1.791-4.295-1.791-1.67 0-3.102.598-4.295 1.791-1.195 1.195-1.792 2.602-1.792 4.216m-1.291 8.643c-2.987-2.107-4.479-4.979-4.479-8.616 0-3.302 1.133-6.059 3.398-8.273 2.283-2.214 5.12-3.32 8.512-3.32 3.373 0 6.184 1.107 8.433 3.32 2.247 2.196 3.371 4.963 3.372 8.3 0 3.497-1.485 6.35-4.453 8.564 1.634.878 2.916 2.159 3.847 3.847.949 1.686 1.423 3.583 1.423 5.69 0 3.603-1.178 6.554-3.53 8.854-2.354 2.301-5.367 3.451-9.038 3.452-3.76 0-6.86-1.16-9.302-3.479-2.46-2.318-3.688-5.234-3.688-8.749-.001-4.565 1.834-7.763 5.505-9.59" fill="#fff" fill-rule="evenodd" transform="matrix(2 0 0 2 -876.646 -658.368)"/>
   <path clip-path="url(#a)" d="m468.349 359.402l-2.668 15.133c0 1.621 5.576 2.879 12.24 2.88 6.636-.001 12.199-1.348 12.245-2.96 0-.007.114.033 0 .034l-.004-.054-2.655-15.047c0 1.179-4.272 2.134-9.541 2.134-5.268 0-9.617-.942-9.617-2.12z" fill="#ff0000" transform="matrix(2 0 0 2 -876.646 -658.368)"/>
   <path clip-path="url(#a)" d="m495.848 406.176l-3.03-17.155c0 2.228-6.589 3.807-14.94 3.807-8.35 0-14.835-1.699-14.835-3.926l-3.04 17.231-.003.002c0 2.844 7.985 5.067 17.92 5.067 9.936 0 17.928-2.183 17.928-5.026z" fill="#ff0000" transform="matrix(2 0 0 2 -876.646 -658.368)"/>
   <path clip-path="url(#a)" d="m501.35 437.39l-3.005-17.106c0 3.446-9.146 6.242-20.425 6.242-11.278 0-20.421-2.796-20.421-6.242l-3.009 16.988c0 4.147 10.678 7.463 23.431 7.463 12.752-.001 23.429-3.199 23.429-7.345z" fill="#ff0000" transform="matrix(2 0 0 2 -876.646 -658.368)"/>
</svg>
