<?xml version="1.0" encoding="UTF-8" standalone="no"?>
<svg enable-background="new 0 0 841.891 595.276" height="283.02802" viewBox="0 0 238.18601 283.02801" width="238.186" xmlns="http://www.w3.org/2000/svg" xmlns:xlink="http://www.w3.org/1999/xlink">
   <defs>
      <clipPath id="a">
         <use height="100%" overflow="visible" width="100%" xlink:href="#b"/>
      </clipPath>
      <path id="b" d="m62.362 69.403h666.14203v456.46799h-666.14203z"/>
   </defs>
   <path d="m-6.3964953-6.95398h260v300h-260z" fill="#fff"/>
   <path clip-path="url(#a)" d="m268.443 240.802c0-3.222 4.561-6.126 11.861-8.169l-.556 3.145c0 0-1.039 1.424 5.218 4.343 5.929 2.763 18.571 3.092 20.705 3.092 2.133 0 15.273-.638 20.88-3.164 5.694-2.565 5.037-4.271 5.037-4.271l-.588-3.318c7.674 2.049 12.503 5.028 12.503 8.343 0 6.185-16.803 11.198-37.53 11.198-20.727 0-37.53-5.015-37.53-11.199m12.287-10.571c-.85-.438-1.423-1.272-1.423-2.23v-109.957c0-1.412 1.249-2.557 2.789-2.557h97.65c1.541 0 2.79 1.146 2.79 2.557v109.956c0 1.415-1.249 2.559-2.79 2.559h-49.083l-14.42-81.378c-3.422 1.038-7.403 1.245-11.426 1.246-3.246 0-6.641-.321-9.75-1.108zm33.458-92.648l-.15-.854-2.227-17.184c0-.571-2.776-1.077-6.141-1.077-3.379 0-6.143.506-6.151 1.089l-2.221 17.172-.15.85c2.496.729 4.712.925 7.768.925 3.756-.001 5.755-.134 9.272-.921" fill="#1ccdff" transform="matrix(2 0 0 2 -531.886 -225.974)"/>
   <path clip-path="url(#a)" d="m357.189 158.348l-20.353 33.357 4.89 3.093 25.744-42.212-30.423.001v5.762z" fill="#fff" transform="matrix(2 0 0 2 -531.886 -225.974)"/>
</svg>
