<?xml version="1.0" encoding="UTF-8" standalone="no"?>
<svg enable-background="new 0 0 841.891 595.276" height="282.17401" viewBox="0 0 237.474 282.17401" width="237.474" xmlns="http://www.w3.org/2000/svg" xmlns:xlink="http://www.w3.org/1999/xlink">
   <defs>
      <clipPath id="a">
         <use height="100%" overflow="visible" width="100%" xlink:href="#b"/>
      </clipPath>
      <path id="b" d="m62.362 69.403h666.14203v456.46799h-666.14203z"/>
   </defs>
   <path d="m-15.7695-7.1664877h300v310h-300z" fill="#fff"/>
   <path clip-path="url(#a)" d="m97.638 240.412c0-3.212 4.547-6.107 11.824-8.145l-.555 3.135c0 0-1.034 1.419 5.203 4.328 5.91 2.755 18.512 3.083 20.639 3.083 2.127 0 15.229-.636 20.815-3.153 5.677-2.559 5.023-4.258 5.023-4.258l-.589-3.31c7.651 2.044 12.466 5.014 12.467 8.319 0 6.165-16.752 11.162-37.415 11.162-20.663 0-37.412-4.996-37.412-11.161m90.739-59.503h-12.357l6.323-13.833zm-78.49 48.965c-.847-.438-1.419-1.27-1.419-2.224v-109.614c0-1.407 1.245-2.55 2.782-2.55h97.344c1.536 0 2.781 1.143 2.781 2.55v109.614c0 1.408-1.245 2.55-2.781 2.55h-48.929l-16.576-93.538-2.212-17.117c0-.569-2.773-1.086-6.128-1.086-3.369 0-6.132.517-6.132 1.086l-2.213 17.117zm80.993-43.194l4.27 9.881h6.719l-19.419-43.24-20.132 43.24h6.614l4.531-9.881z" fill="#08e200" transform="matrix(2 0 0 2 -190.276 -225.972)"/>
</svg>
