<?xml version="1.0" encoding="UTF-8" standalone="no"?>
<svg enable-background="new 0 0 841.891 595.276" height="282.168" viewBox="0 0 237.472 282.168" width="237.472" xmlns="http://www.w3.org/2000/svg" xmlns:xlink="http://www.w3.org/1999/xlink">
   <defs>
      <clipPath id="a">
         <use height="100%" overflow="visible" width="100%" xlink:href="#b"/>
      </clipPath>
      <path id="b" d="m62.362 69.403h666.14203v456.46799h-666.14203z"/>
   </defs>
   <path d="m-9.9400005-13.368h300v310h-300z" fill="#fff"/>
   <path clip-path="url(#a)" d="m611.808 456.609c0-3.212 4.547-6.106 11.824-8.144l-.556 3.135c0 0-1.035 1.419 5.203 4.328 5.91 2.756 18.512 3.084 20.64 3.083 2.127.001 15.228-.636 20.813-3.153 5.677-2.559 5.023-4.258 5.023-4.258l-.587-3.309c7.65 2.043 12.465 5.013 12.465 8.317 0 6.165-16.75 11.163-37.413 11.162-20.662.001-37.412-4.996-37.412-11.161" fill="#b6008d" transform="matrix(2 0 0 2 -1218.616 -658.372)"/>
   <path clip-path="url(#a)" d="m624.057 446.071c-.848-.436-1.419-1.268-1.419-2.223v-109.614c0-1.407 1.245-2.549 2.779-2.548h97.347c1.536-.001 2.78 1.141 2.78 2.548v109.614c0 1.408-1.244 2.55-2.78 2.551l-48.871-.001 1.211 6.718-1.038.698-39.596-66.51zm45.468-23.989l-12.265-69.222-2.214-17.118c0-.568-2.774-1.085-6.128-1.085-3.369 0-6.132.517-6.132 1.085l-2.213 17.118-2.887 16.291zm23.796-30.588l-12.78 21.265h6.957l9.275-15.572 9.011 15.572h6.878l-12.306-21.265 11.725-19.419-7.035-.001-8.168 13.781-7.772-13.781-6.983.001z" fill="#b6008d" transform="matrix(2 0 0 2 -1218.616 -658.372)"/>
   <path clip-path="url(#a)" d="m628.741 419.788l-5.811 32.715 40.743-68.752-3.219-16.83z" fill="#b6008d" transform="matrix(2 0 0 2 -1218.616 -658.372)"/>
</svg>
