<?xml version="1.0" encoding="UTF-8" standalone="no"?>
<!-- Created with Inkscape (http://www.inkscape.org/) -->

<svg
   version="1.1"
   id="svg2"
   width="590.98669"
   height="590.93335"
   viewBox="0 0 590.98669 590.93335"
   sodipodi:docname="18.eps"
   xmlns:inkscape="http://www.inkscape.org/namespaces/inkscape"
   xmlns:sodipodi="http://sodipodi.sourceforge.net/DTD/sodipodi-0.dtd"
   xmlns="http://www.w3.org/2000/svg"
   xmlns:svg="http://www.w3.org/2000/svg">
  <defs
     id="defs6" />
  <sodipodi:namedview
     id="namedview4"
     pagecolor="#ffffff"
     bordercolor="#000000"
     borderopacity="0.25"
     inkscape:showpageshadow="2"
     inkscape:pageopacity="0.0"
     inkscape:pagecheckerboard="0"
     inkscape:deskcolor="#d1d1d1" />
  <g
     id="g8"
     inkscape:groupmode="layer"
     inkscape:label="ink_ext_XXXXXX"
     transform="matrix(1.3333333,0,0,-1.3333333,0,590.93333)">
    <g
       id="g10"
       transform="scale(0.1)">
      <path
         d="M 2230.98,4353.61 C 1034.58,4353.61 64.7344,3383.78 64.7344,2187.42 64.7344,991.031 1034.58,21.5195 2230.98,21.5195 c 1196.39,0 2166.23,969.5115 2166.23,2165.9005 0,1196.36 -969.84,2166.19 -2166.23,2166.19"
         style="fill:#313030;fill-opacity:1;fill-rule:nonzero;stroke:none"
         id="path12" />
      <path
         d="M 2216.22,4382.06 C 1019.8,4382.06 49.9609,3412.23 49.9609,2215.87 49.9609,1019.5 1019.8,49.9609 2216.22,49.9609 c 1196.38,0 2166.23,969.5391 2166.23,2165.9091 0,1196.36 -969.85,2166.19 -2166.23,2166.19"
         style="fill:none;stroke:#231f20;stroke-width:99.9225;stroke-linecap:round;stroke-linejoin:round;stroke-miterlimit:10;stroke-dasharray:none;stroke-opacity:1"
         id="path14" />
      <path
         d="m 1730.06,3326.37 v -2184.1 h -603.5 v 1431.1 c -97.7,-74.2 -192.201,-134.2 -283.501,-180.1 -91.301,-45.9 -205.801,-89.9 -343.504,-131.9 v 489.3 c 203.101,65.4 360.8,144 473.203,235.8 112.302,91.8 200.102,205.1 263.602,339.9 z m 806.79,-1029.8 c -93.7,49.8 -162.1,105.4 -205.1,167 -58.6,84 -87.91,180.6 -87.91,290 0,179.7 84.51,326.7 253.51,440.9 131.8,87.9 306.1,131.9 522.9,131.9 287.1,0 499.3,-54.7 636.5,-164.1 137.2,-109.41 205.79,-247.11 205.79,-413.1 0,-96.7 -27.29,-187 -81.99,-271 -41.1,-62.5 -105.51,-123.01 -193.41,-181.6 116.2,-55.7 202.9,-129.4 260,-221.2 57.11,-91.81 85.71,-193.39 85.71,-304.7 0,-107.4 -24.7,-207.8 -74,-301 -49.3,-93.3 -109.8,-165.31 -181.6,-216.11 -71.81,-50.8 -161.1,-88.09 -268.1,-112.09 -106.9,-23.91 -220.9,-35.8 -342.01,-35.8 -227.59,0 -401.39,26.79 -521.49,80.51 -120.1,53.69 -211.4,132.79 -273.9,237.28 -62.5,104.51 -93.8,221.21 -93.8,350.1 0,126.01 29.29,232.71 87.9,320.11 58.6,87.4 148.9,155 271,202.9 z m 268.1,421.9 c 0,-74.3 23.2,-134.1 69.6,-179.5 46.29,-45.4 108.1,-68.1 185.3,-68.1 68.3,0 124.5,22.5 168.4,67.4 44,44.9 65.9,103 65.9,174.3 0,74.2 -22.9,134.5 -68.8,180.9 -45.9,46.4 -104.51,69.59 -175.8,69.59 -72.3,0 -131.1,-22.7 -176.5,-68.09 -45.4,-45.4 -68.1,-104.3 -68.1,-176.5 z m -32.2,-924.4 c 0,-94.71 28.8,-172.09 86.4,-232.09 57.6,-60.12 123.5,-90.12 197.7,-90.12 71.3,0 135.29,30.51 191.9,91.5 56.69,61.12 85,138.4 85,232.21 0,94.69 -28.6,172.4 -85.7,232.9 -57.1,60.6 -123.3,90.8 -198.5,90.8 -74.2,0 -138.9,-29.3 -194.11,-87.9 -55.19,-58.61 -82.69,-137.7 -82.69,-237.3"
         style="fill:#ee2939;fill-opacity:1;fill-rule:nonzero;stroke:none"
         id="path16" />
    </g>
  </g>
</svg>
