<?xml version="1.0" encoding="UTF-8" standalone="no"?>
<!-- Created with Inkscape (http://www.inkscape.org/) -->

<svg
   version="1.1"
   id="svg2"
   width="590.98669"
   height="590.93335"
   viewBox="0 0 590.98669 590.93335"
   sodipodi:docname="12.eps"
   xmlns:inkscape="http://www.inkscape.org/namespaces/inkscape"
   xmlns:sodipodi="http://sodipodi.sourceforge.net/DTD/sodipodi-0.dtd"
   xmlns="http://www.w3.org/2000/svg"
   xmlns:svg="http://www.w3.org/2000/svg">
  <defs
     id="defs6" />
  <sodipodi:namedview
     id="namedview4"
     pagecolor="#ffffff"
     bordercolor="#000000"
     borderopacity="0.25"
     inkscape:showpageshadow="2"
     inkscape:pageopacity="0.0"
     inkscape:pagecheckerboard="0"
     inkscape:deskcolor="#d1d1d1" />
  <g
     id="g8"
     inkscape:groupmode="layer"
     inkscape:label="ink_ext_XXXXXX"
     transform="matrix(1.3333333,0,0,-1.3333333,0,590.93333)">
    <g
       id="g10"
       transform="scale(0.1)">
      <path
         d="M 2192.34,4339.54 C 995.934,4339.54 26.0938,3369.72 26.0938,2173.35 26.0938,976.961 995.934,7.44922 2192.34,7.44922 c 1196.39,0 2166.23,969.51178 2166.23,2165.90078 0,1196.37 -969.84,2166.19 -2166.23,2166.19"
         style="fill:#313030;fill-opacity:1;fill-rule:nonzero;stroke:none"
         id="path12" />
      <path
         d="M 2216.21,4382.05 C 1019.8,4382.05 49.9609,3412.22 49.9609,2215.86 49.9609,1019.48 1019.8,49.9609 2216.21,49.9609 c 1196.38,0 2166.23,969.5191 2166.23,2165.8991 0,1196.36 -969.85,2166.19 -2166.23,2166.19"
         style="fill:none;stroke:#231f20;stroke-width:99.9225;stroke-linecap:round;stroke-linejoin:round;stroke-miterlimit:10;stroke-dasharray:none;stroke-opacity:1"
         id="path14" />
      <path
         d="M 1614.46,3308.06 V 1123.95 h -603.51 v 1431.12 c -97.696,-74.2 -192.196,-134.2 -283.501,-180.11 -91.297,-45.9 -205.801,-89.89 -343.5,-131.9 v 489.3 c 203.102,65.4 360.801,144.01 473.203,235.8 112.301,91.8 200.098,205.1 263.598,339.9 z M 3808.45,1123.95 h -1790 c 20.5,176.7 82.72,343.01 186.7,498.81 104.1,155.71 299.1,339.6 585.31,551.51 174.79,129.9 286.61,228.49 335.39,295.89 48.81,67.41 73.21,131.3 73.21,191.9 0,65.4 -24.1,121.31 -72.5,167.7 -48.3,46.4 -109.1,69.6 -182.31,69.6 -76.19,0 -138.49,-24 -186.79,-71.79 -48.3,-47.9 -80.8,-132.31 -97.41,-253.4 l -597.7,48.29 c 23.5,168.01 66.41,299.1 128.91,393.3 62.5,94.31 150.69,166.5 264.4,216.81 113.79,50.29 271.29,75.49 472.4,75.49 210,0 373.3,-24 490,-71.79 116.7,-47.9 208.5,-121.41 275.39,-220.51 66.92,-99.09 100.41,-210.2 100.41,-333.19 0,-130.9 -38.4,-255.9 -115,-375 -76.7,-119.2 -216.11,-250 -418.2,-392.6 -120.1,-83.01 -200.51,-141.11 -241,-174.32 -40.5,-33.18 -88.1,-76.7 -142.81,-130.39 h 931.6 v -486.31"
         style="fill:#fab214;fill-opacity:1;fill-rule:nonzero;stroke:none"
         id="path16" />
    </g>
  </g>
</svg>
