<?xml version="1.0" encoding="UTF-8" standalone="no"?>
<!-- Created with Inkscape (http://www.inkscape.org/) -->

<svg
   version="1.1"
   id="svg2"
   width="590.98669"
   height="590.93335"
   viewBox="0 0 590.98669 590.93335"
   sodipodi:docname="16.eps"
   xmlns:inkscape="http://www.inkscape.org/namespaces/inkscape"
   xmlns:sodipodi="http://sodipodi.sourceforge.net/DTD/sodipodi-0.dtd"
   xmlns="http://www.w3.org/2000/svg"
   xmlns:svg="http://www.w3.org/2000/svg">
  <defs
     id="defs6" />
  <sodipodi:namedview
     id="namedview4"
     pagecolor="#ffffff"
     bordercolor="#000000"
     borderopacity="0.25"
     inkscape:showpageshadow="2"
     inkscape:pageopacity="0.0"
     inkscape:pagecheckerboard="0"
     inkscape:deskcolor="#d1d1d1" />
  <g
     id="g8"
     inkscape:groupmode="layer"
     inkscape:label="ink_ext_XXXXXX"
     transform="matrix(1.3333333,0,0,-1.3333333,0,590.93333)">
    <g
       id="g10"
       transform="scale(0.1)">
      <path
         d="M 2216.42,4340.02 C 1020.01,4340.02 50.1758,3370.2 50.1758,2173.83 50.1758,977.449 1020.01,7.94141 2216.42,7.94141 c 1196.39,0 2166.23,969.50759 2166.23,2165.88859 0,1196.37 -969.84,2166.19 -2166.23,2166.19"
         style="fill:#313030;fill-opacity:1;fill-rule:nonzero;stroke:none"
         id="path12" />
      <path
         d="M 2216.22,4382.06 C 1019.8,4382.06 49.9609,3412.23 49.9609,2215.87 49.9609,1019.49 1019.8,49.9609 2216.22,49.9609 c 1196.37,0 2166.22,969.5291 2166.22,2165.9091 0,1196.36 -969.85,2166.19 -2166.22,2166.19"
         style="fill:none;stroke:#231f20;stroke-width:99.9225;stroke-linecap:round;stroke-linejoin:round;stroke-miterlimit:10;stroke-dasharray:none;stroke-opacity:1"
         id="path14" />
      <path
         d="M 1691.25,3326.37 V 1142.26 h -603.5 v 1431.11 c -97.699,-74.2 -192.199,-134.2 -283.504,-180.1 -91.297,-45.9 -205.801,-89.9 -343.5,-131.9 v 489.3 c 203.102,65.4 360.801,144 473.203,235.8 112.301,91.8 200.101,205.1 263.601,339.9 z m 2175,-520.1 -593.29,-73.21 c -15.6,83.01 -41.71,141.61 -78.4,175.81 -36.6,34.19 -81.7,51.29 -135.5,51.29 -96.6,0 -171.8,-48.89 -225.5,-146.49 -39.1,-70.3 -67.9,-220.7 -86.5,-451.2 71.29,72.3 144.6,125.7 219.8,160.39 75.2,34.71 162.1,52.01 260.7,52.01 191.4,0 353.29,-68.4 485.6,-205.1 132.3,-136.71 198.5,-310.01 198.5,-520.01 0,-141.6 -33.5,-270.99 -100.41,-388.18 -66.89,-117.21 -159.59,-205.8 -278.29,-265.92 -118.6,-60 -267.3,-90 -446,-90 -214.9,0 -387.2,36.6 -517.1,109.81 -129.9,73.3 -233.7,190.19 -311.3,350.9 -77.62,160.6 -116.41,373.2 -116.41,637.9 0,387.7 81.51,671.6 244.61,851.8 163.1,180.2 389.09,270.3 678.2,270.3 170.89,0 305.89,-19.8 405,-59.4 99.2,-39.5 181.4,-97.4 246.9,-173.5 65.4,-76.2 115.2,-171.9 149.39,-287.2 z M 2767.56,1849.76 c 0,-116.19 29.3,-207.28 87.9,-273.18 58.6,-65.92 130.39,-98.91 215.39,-98.91 78.11,0 143.51,29.81 196.31,89.4 52.7,59.61 79.09,148.4 79.09,266.61 0,121.08 -27.39,213.39 -82.09,276.79 -54.7,63.5 -122.5,95.3 -203.6,95.3 -83,0 -152.6,-30.8 -208.7,-92.3 -56.2,-61.61 -84.3,-149.4 -84.3,-263.71"
         style="fill:#fab214;fill-opacity:1;fill-rule:nonzero;stroke:none"
         id="path16" />
    </g>
  </g>
</svg>
