<?xml version="1.0" encoding="UTF-8" standalone="no"?>
<!-- Created with Inkscape (http://www.inkscape.org/) -->

<svg
   version="1.1"
   id="svg2"
   width="590.98669"
   height="590.93335"
   viewBox="0 0 590.98669 590.93335"
   sodipodi:docname="S.eps"
   xmlns:inkscape="http://www.inkscape.org/namespaces/inkscape"
   xmlns:sodipodi="http://sodipodi.sourceforge.net/DTD/sodipodi-0.dtd"
   xmlns="http://www.w3.org/2000/svg"
   xmlns:svg="http://www.w3.org/2000/svg">
  <defs
     id="defs6" />
  <sodipodi:namedview
     id="namedview4"
     pagecolor="#ffffff"
     bordercolor="#000000"
     borderopacity="0.25"
     inkscape:showpageshadow="2"
     inkscape:pageopacity="0.0"
     inkscape:pagecheckerboard="0"
     inkscape:deskcolor="#d1d1d1" />
  <g
     id="g8"
     inkscape:groupmode="layer"
     inkscape:label="ink_ext_XXXXXX"
     transform="matrix(1.3333333,0,0,-1.3333333,0,590.93333)">
    <g
       id="g10"
       transform="scale(0.1)">
      <path
         d="M 2235.23,4339.97 C 1038.83,4339.97 68.9883,3370.14 68.9883,2173.78 68.9883,977.391 1038.83,7.87891 2235.23,7.87891 c 1196.39,0 2166.23,969.51209 2166.23,2165.90109 0,1196.36 -969.84,2166.19 -2166.23,2166.19"
         style="fill:#313030;fill-opacity:1;fill-rule:nonzero;stroke:none"
         id="path12" />
      <path
         d="M 2216.21,4382.05 C 1019.8,4382.05 49.9609,3412.22 49.9609,2215.86 49.9609,1019.48 1019.8,49.9609 2216.21,49.9609 c 1196.39,0 2166.23,969.5191 2166.23,2165.8991 0,1196.36 -969.84,2166.19 -2166.23,2166.19"
         style="fill:none;stroke:#231f20;stroke-width:99.9225;stroke-linecap:round;stroke-linejoin:round;stroke-miterlimit:10;stroke-dasharray:none;stroke-opacity:1"
         id="path14" />
      <path
         d="m 1079.32,1792.03 736.83,46.15 c 15.95,-119.67 48.43,-210.86 97.45,-273.52 79.77,-101.46 193.74,-152.15 341.93,-152.15 110.52,0 195.74,25.91 255.56,77.78 59.85,51.85 89.77,111.97 89.77,180.36 0,64.96 -28.52,123.09 -85.49,174.38 -56.99,51.29 -189.2,99.7 -396.62,145.31 -339.65,76.34 -581.85,177.79 -726.58,304.3 -145.9,126.5 -218.83,287.76 -218.83,483.81 0,128.77 37.32,250.44 111.98,364.99 74.64,114.54 186.91,204.56 336.79,270.1 149.86,65.53 355.31,98.3 616.32,98.3 320.24,0 564.42,-59.56 732.55,-178.64 168.1,-119.11 268.12,-308.58 300.04,-568.44 l -730,-42.73 c -19.4,112.83 -60.12,194.89 -122.23,246.17 -62.15,51.29 -147.88,76.93 -257.3,76.93 -90.04,0 -157.87,-19.1 -203.44,-57.26 -45.6,-38.2 -68.38,-84.63 -68.38,-139.34 0,-39.9 18.81,-75.8 56.41,-107.69 36.47,-33.08 123.1,-63.85 259.87,-92.33 338.48,-72.95 580.96,-146.74 727.43,-221.38 146.42,-74.66 253.01,-167.27 319.69,-277.81 66.68,-110.55 100.02,-234.2 100.02,-370.97 0,-160.7 -44.46,-308.87 -133.36,-444.48 -88.89,-135.65 -213.13,-238.49 -372.7,-308.58 -159.57,-70.099 -360.72,-105.142 -603.48,-105.142 -426.27,0 -721.45,82.062 -885.57,246.182 -164.12,164.12 -257.03,372.68 -278.66,625.7"
         style="fill:#69c646;fill-opacity:1;fill-rule:nonzero;stroke:none"
         id="path16" />
    </g>
  </g>
</svg>
