<?xml version="1.0" encoding="UTF-8" standalone="no"?>
<svg
        xmlns:dc="http://purl.org/dc/elements/1.1/"
        xmlns:cc="http://creativecommons.org/ns#"
        xmlns:rdf="http://www.w3.org/1999/02/22-rdf-syntax-ns#"
        xmlns="http://www.w3.org/2000/svg"
        xmlns:sodipodi="http://sodipodi.sourceforge.net/DTD/sodipodi-0.dtd"
        xmlns:inkscape="http://www.inkscape.org/namespaces/inkscape"
        sodipodi:docname="BBFC 18 2019.svg"
        inkscape:version="1.0beta1 (32d4812, 2019-09-19)"
        id="svg8"
        version="1.1"
        viewBox="0 0 92.604164 92.604149"
        height="92.604149mm"
        width="92.604164mm">
    <defs
            id="defs2">
        <clipPath
                id="clip1">
            <path
                    id="path60"
                    d="m 42.519531,273.90234 h 62.843749 v 55.98438 H 42.519531 Z m 0,0"
                    inkscape:connector-curvature="0"/>
        </clipPath>
        <clipPath
                id="clip2">
            <path
                    id="path63"
                    d="m 126.75391,273.90234 h 62.83984 v 55.98438 h -62.83984 z m 0,0"
                    inkscape:connector-curvature="0"/>
        </clipPath>
        <clipPath
                id="clip6">
            <path
                    id="path75"
                    d="m 208.0625,273.90234 h 55.98437 v 55.98438 H 208.0625 Z m 0,0"
                    inkscape:connector-curvature="0"/>
        </clipPath>
        <clipPath
                id="clip6-1">
            <path
                    id="path75-7"
                    d="m 208.0625,273.90234 h 55.98437 v 55.98438 H 208.0625 Z m 0,0"
                    inkscape:connector-curvature="0"/>
        </clipPath>
        <clipPath
                id="clip3">
            <path
                    id="path66"
                    d="m 286.72656,273.90234 h 55.98438 v 55.98438 h -55.98438 z m 0,0"
                    inkscape:connector-curvature="0"/>
        </clipPath>
        <clipPath
                id="clip4">
            <path
                    id="path69"
                    d="m 365.38672,273.90234 h 55.98437 v 55.98438 h -55.98437 z m 0,0"
                    inkscape:connector-curvature="0"/>
        </clipPath>
        <clipPath
                id="clip4-8">
            <path
                    inkscape:connector-curvature="0"
                    d="m 365.38672,273.90234 h 55.98437 v 55.98438 h -55.98437 z m 0,0"
                    id="path69-0"/>
        </clipPath>
        <clipPath
                id="clip5">
            <path
                    inkscape:connector-curvature="0"
                    d="m 444.04687,273.89844 h 55.98438 v 55.98437 h -55.98438 z m 0,0"
                    id="path72"/>
        </clipPath>
    </defs>
    <sodipodi:namedview
            inkscape:window-maximized="0"
            inkscape:window-y="23"
            inkscape:window-x="0"
            inkscape:window-height="800"
            inkscape:window-width="1440"
            showgrid="false"
            inkscape:document-rotation="0"
            inkscape:current-layer="layer1"
            inkscape:document-units="mm"
            inkscape:cy="151.60604"
            inkscape:cx="214.46577"
            inkscape:zoom="0.35"
            inkscape:pageshadow="2"
            inkscape:pageopacity="0.0"
            borderopacity="1.0"
            bordercolor="#666666"
            pagecolor="#ffffff"
            id="base"/>
    <metadata
            id="metadata5">
        <rdf:RDF>
            <cc:Work
                    rdf:about="">
                <dc:format>image/svg+xml</dc:format>
                <dc:type
                        rdf:resource="http://purl.org/dc/dcmitype/StillImage"/>
                <dc:title></dc:title>
            </cc:Work>
        </rdf:RDF>
    </metadata>
    <g
            transform="translate(-49.089265,-108.05423)"
            id="layer1"
            inkscape:groupmode="layer"
            inkscape:label="Layer 1">
        <g
                transform="matrix(1.6541072,0,0,1.6541072,-685.41186,-345.00315)"
                id="g322">
            <g
                    id="g223"
                    clip-rule="nonzero"
                    clip-path="url(#clip5)">
                <path
                        inkscape:connector-curvature="0"
                        id="path221"
                        d="m 472.03906,328.89844 c -14.91797,0 -27.00781,-12.09375 -27.00781,-27.00782 0,-14.91796 12.08984,-27.01171 27.00781,-27.01171 14.91797,0 27.01172,12.09375 27.01172,27.01171 0,14.91407 -12.09375,27.00782 -27.01172,27.00782 m 0,-55 c -15.46094,0 -27.99219,12.53125 -27.99219,27.99218 0,15.45704 12.53125,27.99219 27.99219,27.99219 15.46094,0 27.99219,-12.53515 27.99219,-27.99219 0,-15.46093 -12.53125,-27.99218 -27.99219,-27.99218"
                        style="fill:#000000;fill-opacity:1;fill-rule:nonzero;stroke:none"/>
            </g>
            <path
                    inkscape:connector-curvature="0"
                    id="path225"
                    d="m 472.03906,326.44531 c -13.5625,0 -24.55469,-10.99609 -24.55469,-24.55469 0,-13.5625 10.99219,-24.55468 24.55469,-24.55468 13.5625,0 24.55469,10.99218 24.55469,24.55468 0,13.5586 -10.99219,24.55469 -24.55469,24.55469 m 0,-51.5664 c -14.91797,0 -27.00781,12.09375 -27.00781,27.01171 0,14.91797 12.08984,27.00782 27.00781,27.00782 14.91797,0 27.01172,-12.08985 27.01172,-27.00782 0,-14.91796 -12.09375,-27.01171 -27.01172,-27.01171"
                    style="fill:#ffffff;fill-opacity:1;fill-rule:nonzero;stroke:none"/>
            <path
                    inkscape:connector-curvature="0"
                    id="path227"
                    d="m 472.03906,277.33594 c -13.5625,0 -24.55469,10.99218 -24.55469,24.55468 0,13.5586 10.99219,24.55469 24.55469,24.55469 13.5625,0 24.55469,-10.99609 24.55469,-24.55469 0,-13.5625 -10.99219,-24.55468 -24.55469,-24.55468"
                    style="fill:#d70723;fill-opacity:1;fill-rule:nonzero;stroke:none"/>
            <path
                    inkscape:connector-curvature="0"
                    id="path229"
                    d="m 466.56641,291.75781 v 19.64844 h -3.57813 v -11.23828 c 0,-1.86328 0,-2.41406 -1.60547,-2.41406 h -3.19922 v -2.24219 h 0.37891 c 1.83203,-0.0274 4.30859,-0.0586 5.09375,-3.75391 z m 0,0"
                    style="fill:#ffffff;fill-opacity:1;fill-rule:nonzero;stroke:none"/>
            <path
                    inkscape:connector-curvature="0"
                    id="path231"
                    d="m 483.58984,305.75781 c 0,3.58203 -3.08593,5.91016 -7.36328,5.91016 -4.48437,0 -7.25,-2.50391 -7.25,-5.91016 0,-3.08594 2.24219,-4.16406 3.23047,-4.6289 -2.09375,-0.98829 -2.53125,-3.11329 -2.53125,-4.27735 0,-3.05469 2.53125,-5.41406 6.75391,-5.41406 4.04687,0 6.69531,2.18359 6.69531,5.58594 0,1.71875 -0.69922,3.20312 -2.5625,4.10547 2.26953,1.13671 3.02734,2.82421 3.02734,4.6289 m -10.50781,-0.11719 c 0,1.66016 1.16406,2.79688 3.31641,2.79688 1.89453,0 3.29297,-0.99219 3.29297,-2.82422 0,-0.35156 -0.0586,-2.79687 -3.29297,-2.79687 -3.11328,0 -3.31641,2.21484 -3.31641,2.82421 m 0.32031,-8.35156 c 0,0.8711 0.37891,2.58985 3.02735,2.58985 2.30078,0 2.88281,-1.48438 2.88281,-2.58985 0,-2.24219 -1.77734,-2.64844 -2.91406,-2.64844 -2.47266,-0.0312 -2.9961,1.57032 -2.9961,2.64844"
                    style="fill:#ffffff;fill-opacity:1;fill-rule:nonzero;stroke:none"/>
        </g>
    </g>
</svg>
