<?xml version="1.0" encoding="utf-8"?>
<!-- Generator: Adobe Illustrator 16.0.0, SVG Export Plug-In . SVG Version: 6.00 Build 0)  -->
<!DOCTYPE svg PUBLIC "-//W3C//DTD SVG 1.1//EN" "http://www.w3.org/Graphics/SVG/1.1/DTD/svg11.dtd">
<svg version="1.1" id="Layer_1" xmlns="http://www.w3.org/2000/svg" xmlns:xlink="http://www.w3.org/1999/xlink" x="0px"
     y="0px"
     width="328px" height="292px" viewBox="0 0 328 292" enable-background="new 0 0 328 292" xml:space="preserve">
<g>
	<g>
		<defs>
			<rect id="SVGID_1_" width="328" height="292.004"/>
		</defs>
        <clipPath id="SVGID_2_">
			<use xlink:href="#SVGID_1_" overflow="visible"/>
		</clipPath>
        <path clip-path="url(#SVGID_2_)" fill="#000100" d="M319.393,273.566c-4.619,8.252-12.901,13.15-22.147,13.15H30.759
			c-9.251,0-17.524-4.898-22.147-13.15c-4.636-8.243-4.636-18.084,0-26.327l133.224-228.82c4.619-8.248,12.896-13.15,22.147-13.15
			c9.277,0,17.554,4.903,22.177,13.15l133.232,228.82C324.02,255.465,324.02,265.323,319.393,273.566 M323.844,244.592
			L190.582,15.803C185.041,5.891,175.108,0,163.983,0c-11.078,0-21.028,5.891-26.578,15.776L4.165,244.592
			c-5.554,9.902-5.554,21.72,0,31.596c5.558,9.903,15.482,15.799,26.595,15.799h266.486c11.1,0,21.023-5.896,26.599-15.799
			C329.386,266.312,329.386,254.494,323.844,244.592"/>
	</g>
    <path fill="#FFFFFF" d="M297.245,273.522H30.759c-9.817,0-15.976-10.927-11.069-19.699L152.943,25.03
		c2.44-4.387,6.75-6.571,11.04-6.571c4.323,0,8.629,2.184,11.065,6.571l133.22,228.793
		C313.221,262.596,307.07,273.522,297.245,273.522 M319.393,247.239L186.16,18.419c-4.623-8.248-12.9-13.15-22.177-13.15
		c-9.251,0-17.528,4.903-22.147,13.15L8.612,247.239c-4.636,8.243-4.636,18.084,0,26.327c4.624,8.252,12.896,13.15,22.147,13.15
		h266.486c9.246,0,17.528-4.898,22.147-13.15C324.02,265.323,324.02,255.465,319.393,247.239"/>
    <path fill="#1D1D1B" d="M175.048,25.03c-2.436-4.387-6.742-6.571-11.065-6.571c-4.289,0-8.599,2.184-11.04,6.571L19.69,253.823
		c-4.906,8.772,1.252,19.699,11.069,19.699h266.486c9.825,0,15.976-10.927,11.022-19.699L175.048,25.03z"/>
    <polygon fill="#FFFFFF" points="126.79,136.232 200.107,136.232 200.107,155.706 148.346,155.706 148.346,178.273 195.849,178.273
		195.849,196.283 148.346,196.283 148.346,222.099 201.201,222.099 201.201,241.573 126.79,241.573 	"/>
</g>
</svg>
