<?xml version="1.0" encoding="utf-8"?>
<svg version="1.1"
     id="Layer_1"
     xmlns="http://www.w3.org/2000/svg"
     xmlns:xlink="http://www.w3.org/1999/xlink"
     width="433.792px"
     height="347.035px"
     viewBox="-5 0 443.792 347.035"
     xml:space="preserve">
<g>
	<polygon fill="#FFFFFF" points="428.959,344.356 4.833,344.356 216.895,5.054 	"/>
    <polygon fill="#231F20" points="428.959,344.356 428.959,341.676 9.665,341.676 216.895,10.108 426.688,345.777 428.959,344.356
		428.959,341.676 428.959,344.356 431.231,342.934 216.895,0 0,347.035 433.792,347.035 431.231,342.934 	"/>
    <path fill="#009370" d="M363.992,334.789c-0.046,0.518-0.456,0.751-0.972,0.751c-0.671,0-1.114-0.615-1.114-1.434
		c0-0.87,0.388-1.399,1.092-1.399c0.464,0,0.892,0.188,0.994,0.717h1.045c-0.188-1.169-1.002-1.775-2.039-1.775
		c-1.467,0-2.372,1.049-2.372,2.482c0,1.388,0.948,2.468,2.394,2.468c1.002,0,1.895-0.628,2.061-1.81H363.992z M358.578,334.13
		c0,2.381,1.938,4.319,4.319,4.319s4.325-1.938,4.325-4.319c0-2.384-1.944-4.324-4.325-4.324S358.578,331.747,358.578,334.13z
		 M362.897,337.324c-1.753,0-2.975-1.222-2.975-3.193c0-1.975,1.221-3.199,2.975-3.199s2.978,1.225,2.978,3.199
		C365.875,336.102,364.65,337.324,362.897,337.324z"/>
    <path fill="#009370" d="M367.825,336.776l3.341-2.713c0.366-0.299,1.058-0.993,1.058-1.565c0-0.64-0.428-1.037-1.058-1.037
		c-0.825,0-1.396,0.708-1.643,1.434l-1.717-0.883c0.428-1.092,1.597-2.138,3.525-2.138c2.572,0,3.297,1.488,3.297,2.491
		c0,1.046-0.652,1.797-1.51,2.369l-2.273,1.557v0.021h3.771v1.983h-6.792V336.776z"/>
    <path fill="#009370" d="M380.437,334.162c0,2.239-0.474,2.7-1.187,2.7c-0.72,0-1.194-0.461-1.194-2.7s0.474-2.701,1.194-2.701
		C379.963,331.46,380.437,331.922,380.437,334.162z M375.61,334.162c0,2.726,1.553,4.288,3.639,4.288
		c2.083,0,3.636-1.563,3.636-4.288c0-1.729-0.892-4.288-3.636-4.288C376.502,329.874,375.61,332.433,375.61,334.162z"/>
    <path fill="#009370" d="M387.207,329.874c2.747,0,3.639,2.56,3.639,4.288c0,2.726-1.556,4.288-3.639,4.288
		c-2.082,0-3.639-1.563-3.639-4.288C383.568,332.433,384.46,329.874,387.207,329.874z M387.207,331.46
		c-0.716,0-1.19,0.462-1.19,2.701s0.474,2.7,1.19,2.7c0.717,0,1.19-0.461,1.19-2.7S387.924,331.46,387.207,331.46z"/>
    <path fill="#009370" d="M391.708,336.776l3.341-2.713c0.363-0.299,1.058-0.993,1.058-1.565c0-0.64-0.431-1.037-1.058-1.037
		c-0.831,0-1.403,0.708-1.643,1.434l-1.723-0.883c0.431-1.092,1.6-2.138,3.528-2.138c2.568,0,3.294,1.488,3.294,2.491
		c0,1.046-0.649,1.797-1.507,2.369l-2.27,1.557v0.021h3.768v1.983h-6.789V336.776z"/>
    <polygon fill="#009370" points="35.441,327.391 398.349,327.391 216.895,37.064 	"/>
    <g>
		<defs>
			<polygon id="SVGID_3_" points="35.441,327.391 398.349,327.391 216.895,37.064 			"/>
		</defs>
        <clipPath id="SVGID_2_">
			<use xlink:href="#SVGID_3_" overflow="visible"/>
		</clipPath>
        <path clip-path="url(#SVGID_2_)" fill="#58B49E" d="M183.451,289.127h8.121v11.984h0.099c1.157-1.206,3.261-2.055,4.916-2.055
			c5.617,0,8.625,5.61,8.625,12.883c0,5.765-2.406,13.178-9.229,13.178c-3.156,0-5.214-1.501-6.816-3.906l-1.504,3.604h-4.211
			V289.127z M191.572,316.75c-0.151,2.104,1.104,3.255,2.658,3.255c2.255,0,2.557-2.252,2.557-6.915v-1.907
			c0-5.015,0-7.616-2.507-7.616c-1,0-1.753,0.603-2.255,1.002l-0.452,0.449V316.75z"/>
        <path clip-path="url(#SVGID_2_)" fill="#74BDAB" d="M200.554,289.127h8.121v11.984h0.099c1.15-1.206,3.259-2.055,4.914-2.055
			c5.611,0,8.619,5.61,8.619,12.883c0,5.765-2.405,13.178-9.222,13.178c-3.161,0-5.215-1.501-6.821-3.906l-1.501,3.604h-4.208
			V289.127z M208.675,316.75c-0.153,2.104,1.102,3.255,2.656,3.255c2.252,0,2.553-2.252,2.553-6.915v-1.907
			c0-5.015,0-7.616-2.504-7.616c-1.001,0-1.751,0.603-2.256,1.002l-0.449,0.449V316.75z"/>
        <path clip-path="url(#SVGID_2_)" fill="#8FC8B9" d="M217.877,305.37h-3.304v-5.716h3.304v-2.806c0-6.164,3.058-8.422,8.423-8.422
			c1.605,0,2.812,0.153,4.115,0.301v6.214c-0.455-0.099-1.058-0.196-1.507-0.196c-2.055,0-2.91,0.646-2.91,2.153v2.756h4.417v5.716
			h-4.417v19.446h-8.121V305.37z"/>
        <path clip-path="url(#SVGID_2_)" fill="#A9D4C8" d="M238.789,309.03c0-1.003-0.055-2.202-0.4-3.156
			c-0.406-1.009-1.052-1.704-2.356-1.704c-2.713,0-3.008,3.304-3.008,8.317c0,5.667,0.898,7.519,3.008,7.519
			c2.854,0,3.107-2.904,3.107-4.812l6.312,0.904c-0.597,6.116-4.109,9.327-10.021,9.327c-7.321,0-11.13-6.417-11.13-12.637
			c0-6.866,3.809-13.731,11.48-13.731c8.625,0,9.923,7.463,9.923,9.973H238.789z"/>
        <path clip-path="url(#SVGID_2_)" fill="#C3E0D7" d="M242.246,309.048c1.796,0,3.267,1.47,3.267,3.272
			c0,1.797-1.47,3.273-3.267,3.273c-1.809,0-3.273-1.477-3.273-3.273C238.973,310.518,240.438,309.048,242.246,309.048z"/>
        <path clip-path="url(#SVGID_2_)" fill="#58B49E" d="M183.451,247.994h8.121v11.979h0.099c1.157-1.206,3.261-2.055,4.916-2.055
			c5.617,0,8.625,5.616,8.625,12.883c0,5.765-2.406,13.184-9.229,13.184c-3.156,0-5.214-1.501-6.816-3.913l-1.504,3.618h-4.211
			V247.994z M191.572,275.611c-0.151,2.11,1.104,3.267,2.658,3.267c2.255,0,2.557-2.264,2.557-6.921v-1.907
			c0-5.008,0-7.616-2.507-7.616c-1,0-1.753,0.597-2.255,1.003l-0.452,0.449V275.611z"/>
        <path clip-path="url(#SVGID_2_)" fill="#74BDAB" d="M200.554,247.994h8.121v11.979h0.099c1.15-1.206,3.259-2.055,4.914-2.055
			c5.611,0,8.619,5.616,8.619,12.883c0,5.765-2.405,13.184-9.222,13.184c-3.161,0-5.215-1.501-6.821-3.913l-1.501,3.618h-4.208
			V247.994z M208.675,275.611c-0.153,2.11,1.102,3.267,2.656,3.267c2.252,0,2.553-2.264,2.553-6.921v-1.907
			c0-5.008,0-7.616-2.504-7.616c-1.001,0-1.751,0.597-2.256,1.003l-0.449,0.449V275.611z"/>
        <path clip-path="url(#SVGID_2_)" fill="#8FC8B9" d="M217.877,264.236h-3.304v-5.716h3.304v-2.806c0-6.164,3.058-8.422,8.423-8.422
			c1.605,0,2.812,0.147,4.115,0.295v6.22c-0.455-0.104-1.058-0.202-1.507-0.202c-2.055,0-2.91,0.658-2.91,2.159v2.756h4.417v5.716
			h-4.417v19.453h-8.121V264.236z"/>
        <path clip-path="url(#SVGID_2_)" fill="#A9D4C8" d="M238.789,267.89c0-0.997-0.055-2.203-0.4-3.156
			c-0.406-0.997-1.052-1.704-2.356-1.704c-2.713,0-3.008,3.31-3.008,8.324c0,5.66,0.898,7.523,3.008,7.523
			c2.854,0,3.107-2.91,3.107-4.823l6.312,0.904c-0.597,6.122-4.109,9.327-10.021,9.327c-7.321,0-11.13-6.417-11.13-12.631
			c0-6.872,3.809-13.737,11.48-13.737c8.625,0,9.923,7.469,9.923,9.973H238.789z"/>
        <path clip-path="url(#SVGID_2_)" fill="#C3E0D7" d="M242.246,267.909c1.796,0,3.267,1.47,3.267,3.279
			c0,1.796-1.47,3.272-3.267,3.272c-1.809,0-3.273-1.477-3.273-3.272C238.973,269.378,240.438,267.909,242.246,267.909z"/>
        <path clip-path="url(#SVGID_2_)" fill="#58B49E" d="M183.451,206.867h8.121v11.978h0.099c1.157-1.199,3.261-2.055,4.916-2.055
			c5.617,0,8.625,5.611,8.625,12.883c0,5.759-2.406,13.178-9.229,13.178c-3.156,0-5.214-1.501-6.816-3.906l-1.504,3.605h-4.211
			V206.867z M191.572,234.484c-0.151,2.104,1.104,3.254,2.658,3.254c2.255,0,2.557-2.258,2.557-6.915v-1.907
			c0-5.014,0-7.616-2.507-7.616c-1,0-1.753,0.603-2.255,1.003l-0.452,0.449V234.484z"/>
        <path clip-path="url(#SVGID_2_)" fill="#74BDAB" d="M200.554,206.867h8.121v11.978h0.099c1.15-1.199,3.259-2.055,4.914-2.055
			c5.611,0,8.619,5.611,8.619,12.883c0,5.759-2.405,13.178-9.222,13.178c-3.161,0-5.215-1.501-6.821-3.906l-1.501,3.605h-4.208
			V206.867z M208.675,234.484c-0.153,2.104,1.102,3.254,2.656,3.254c2.252,0,2.553-2.258,2.553-6.915v-1.907
			c0-5.014,0-7.616-2.504-7.616c-1.001,0-1.751,0.603-2.256,1.003l-0.449,0.449V234.484z"/>
        <path clip-path="url(#SVGID_2_)" fill="#8FC8B9" d="M217.877,223.102h-3.304v-5.709h3.304v-2.806c0-6.165,3.058-8.423,8.423-8.423
			c1.605,0,2.812,0.148,4.115,0.296v6.22c-0.455-0.104-1.058-0.203-1.507-0.203c-2.055,0-2.91,0.652-2.91,2.159v2.757h4.417v5.709
			h-4.417v19.447h-8.121V223.102z"/>
        <path clip-path="url(#SVGID_2_)" fill="#A9D4C8" d="M238.789,226.762c0-1.003-0.055-2.208-0.4-3.156
			c-0.406-1.002-1.052-1.704-2.356-1.704c-2.713,0-3.008,3.304-3.008,8.318c0,5.666,0.898,7.518,3.008,7.518
			c2.854,0,3.107-2.903,3.107-4.811l6.312,0.897c-0.597,6.122-4.109,9.327-10.021,9.327c-7.321,0-11.13-6.417-11.13-12.63
			c0-6.866,3.809-13.732,11.48-13.732c8.625,0,9.923,7.463,9.923,9.973H238.789z"/>
        <path clip-path="url(#SVGID_2_)" fill="#C3E0D7" d="M242.246,226.781c1.796,0,3.267,1.471,3.267,3.273
			c0,1.796-1.47,3.272-3.267,3.272c-1.809,0-3.273-1.477-3.273-3.272C238.973,228.251,240.438,226.781,242.246,226.781z"/>
        <path clip-path="url(#SVGID_2_)" fill="#58B49E" d="M111.258,289.127h8.121v11.984h0.099c1.156-1.206,3.261-2.055,4.916-2.055
			c5.614,0,8.622,5.61,8.622,12.883c0,5.765-2.405,13.178-9.225,13.178c-3.156,0-5.214-1.501-6.816-3.906l-1.504,3.604h-4.211
			V289.127z M119.379,316.75c-0.151,2.104,1.104,3.255,2.658,3.255c2.255,0,2.556-2.252,2.556-6.915v-1.907
			c0-5.015,0-7.616-2.507-7.616c-1,0-1.753,0.603-2.255,1.002l-0.452,0.449V316.75z"/>
        <path clip-path="url(#SVGID_2_)" fill="#74BDAB" d="M128.358,289.127h8.124v11.984h0.099c1.15-1.206,3.257-2.055,4.913-2.055
			c5.614,0,8.619,5.61,8.619,12.883c0,5.765-2.406,13.178-9.222,13.178c-3.159,0-5.214-1.501-6.82-3.906l-1.504,3.604h-4.208
			V289.127z M136.482,316.75c-0.154,2.104,1.101,3.255,2.655,3.255c2.255,0,2.556-2.252,2.556-6.915v-1.907
			c0-5.015,0-7.616-2.507-7.616c-1.003,0-1.753,0.603-2.255,1.002l-0.449,0.449V316.75z"/>
        <path clip-path="url(#SVGID_2_)" fill="#8FC8B9" d="M145.686,305.37h-3.307v-5.716h3.307v-2.806c0-6.164,3.058-8.422,8.422-8.422
			c1.603,0,2.809,0.153,4.113,0.301v6.214c-0.452-0.099-1.055-0.196-1.504-0.196c-2.058,0-2.91,0.646-2.91,2.153v2.756h4.414v5.716
			h-4.414v19.446h-8.121V305.37z"/>
        <path clip-path="url(#SVGID_2_)" fill="#A9D4C8" d="M166.597,309.03c0-1.003-0.056-2.202-0.403-3.156
			c-0.403-1.009-1.052-1.704-2.356-1.704c-2.71,0-3.009,3.304-3.009,8.317c0,5.667,0.901,7.519,3.009,7.519
			c2.857,0,3.106-2.904,3.106-4.812l6.315,0.904c-0.6,6.116-4.109,9.327-10.025,9.327c-7.318,0-11.126-6.417-11.126-12.637
			c0-6.866,3.809-13.731,11.48-13.731c8.622,0,9.923,7.463,9.923,9.973H166.597z"/>
        <path clip-path="url(#SVGID_2_)" fill="#C3E0D7" d="M170.052,309.048c1.799,0,3.27,1.47,3.27,3.272c0,1.797-1.47,3.273-3.27,3.273
			c-1.806,0-3.27-1.477-3.27-3.273C166.782,310.518,168.246,309.048,170.052,309.048z"/>
        <path clip-path="url(#SVGID_2_)" fill="#58B49E" d="M111.258,247.994h8.121v11.979h0.099c1.156-1.206,3.261-2.055,4.916-2.055
			c5.614,0,8.622,5.616,8.622,12.883c0,5.765-2.405,13.184-9.225,13.184c-3.156,0-5.214-1.501-6.816-3.913l-1.504,3.618h-4.211
			V247.994z M119.379,275.611c-0.151,2.11,1.104,3.267,2.658,3.267c2.255,0,2.556-2.264,2.556-6.921v-1.907
			c0-5.008,0-7.616-2.507-7.616c-1,0-1.753,0.597-2.255,1.003l-0.452,0.449V275.611z"/>
        <path clip-path="url(#SVGID_2_)" fill="#74BDAB" d="M128.358,247.994h8.124v11.979h0.099c1.15-1.206,3.257-2.055,4.913-2.055
			c5.614,0,8.619,5.616,8.619,12.883c0,5.765-2.406,13.184-9.222,13.184c-3.159,0-5.214-1.501-6.82-3.913l-1.504,3.618h-4.208
			V247.994z M136.482,275.611c-0.154,2.11,1.101,3.267,2.655,3.267c2.255,0,2.556-2.264,2.556-6.921v-1.907
			c0-5.008,0-7.616-2.507-7.616c-1.003,0-1.753,0.597-2.255,1.003l-0.449,0.449V275.611z"/>
        <path clip-path="url(#SVGID_2_)" fill="#8FC8B9" d="M145.686,264.236h-3.307v-5.716h3.307v-2.806c0-6.164,3.058-8.422,8.422-8.422
			c1.603,0,2.809,0.147,4.113,0.295v6.22c-0.452-0.104-1.055-0.202-1.504-0.202c-2.058,0-2.91,0.658-2.91,2.159v2.756h4.414v5.716
			h-4.414v19.453h-8.121V264.236z"/>
        <path clip-path="url(#SVGID_2_)" fill="#A9D4C8" d="M166.597,267.89c0-0.997-0.056-2.203-0.403-3.156
			c-0.403-0.997-1.052-1.704-2.356-1.704c-2.71,0-3.009,3.31-3.009,8.324c0,5.66,0.901,7.523,3.009,7.523
			c2.857,0,3.106-2.91,3.106-4.823l6.315,0.904c-0.6,6.122-4.109,9.327-10.025,9.327c-7.318,0-11.126-6.417-11.126-12.631
			c0-6.872,3.809-13.737,11.48-13.737c8.622,0,9.923,7.469,9.923,9.973H166.597z"/>
        <path clip-path="url(#SVGID_2_)" fill="#C3E0D7" d="M170.052,267.909c1.799,0,3.27,1.47,3.27,3.279c0,1.796-1.47,3.272-3.27,3.272
			c-1.806,0-3.27-1.477-3.27-3.272C166.782,269.378,168.246,267.909,170.052,267.909z"/>
        <path clip-path="url(#SVGID_2_)" fill="#58B49E" d="M111.258,206.867h8.121v11.978h0.099c1.156-1.199,3.261-2.055,4.916-2.055
			c5.614,0,8.622,5.611,8.622,12.883c0,5.759-2.405,13.178-9.225,13.178c-3.156,0-5.214-1.501-6.816-3.906l-1.504,3.605h-4.211
			V206.867z M119.379,234.484c-0.151,2.104,1.104,3.254,2.658,3.254c2.255,0,2.556-2.258,2.556-6.915v-1.907
			c0-5.014,0-7.616-2.507-7.616c-1,0-1.753,0.603-2.255,1.003l-0.452,0.449V234.484z"/>
        <path clip-path="url(#SVGID_2_)" fill="#74BDAB" d="M128.358,206.867h8.124v11.978h0.099c1.15-1.199,3.257-2.055,4.913-2.055
			c5.614,0,8.619,5.611,8.619,12.883c0,5.759-2.406,13.178-9.222,13.178c-3.159,0-5.214-1.501-6.82-3.906l-1.504,3.605h-4.208
			V206.867z M136.482,234.484c-0.154,2.104,1.101,3.254,2.655,3.254c2.255,0,2.556-2.258,2.556-6.915v-1.907
			c0-5.014,0-7.616-2.507-7.616c-1.003,0-1.753,0.603-2.255,1.003l-0.449,0.449V234.484z"/>
        <path clip-path="url(#SVGID_2_)" fill="#8FC8B9" d="M145.686,223.102h-3.307v-5.709h3.307v-2.806c0-6.165,3.058-8.423,8.422-8.423
			c1.603,0,2.809,0.148,4.113,0.296v6.22c-0.452-0.104-1.055-0.203-1.504-0.203c-2.058,0-2.91,0.652-2.91,2.159v2.757h4.414v5.709
			h-4.414v19.447h-8.121V223.102z"/>
        <path clip-path="url(#SVGID_2_)" fill="#A9D4C8" d="M166.597,226.762c0-1.003-0.056-2.208-0.403-3.156
			c-0.403-1.002-1.052-1.704-2.356-1.704c-2.71,0-3.009,3.304-3.009,8.318c0,5.666,0.901,7.518,3.009,7.518
			c2.857,0,3.106-2.903,3.106-4.811l6.315,0.897c-0.6,6.122-4.109,9.327-10.025,9.327c-7.318,0-11.126-6.417-11.126-12.63
			c0-6.866,3.809-13.732,11.48-13.732c8.622,0,9.923,7.463,9.923,9.973H166.597z"/>
        <path clip-path="url(#SVGID_2_)" fill="#C3E0D7" d="M170.052,226.781c1.799,0,3.27,1.471,3.27,3.273
			c0,1.796-1.47,3.272-3.27,3.272c-1.806,0-3.27-1.477-3.27-3.272C166.782,228.251,168.246,226.781,170.052,226.781z"/>
        <path clip-path="url(#SVGID_2_)" fill="#58B49E" d="M39.065,289.127h8.121v11.984h0.098c1.157-1.206,3.261-2.055,4.916-2.055
			c5.614,0,8.622,5.61,8.622,12.883c0,5.765-2.405,13.178-9.225,13.178c-3.156,0-5.211-1.501-6.817-3.906l-1.501,3.604h-4.214
			V289.127z M47.186,316.75c-0.151,2.104,1.104,3.255,2.658,3.255c2.251,0,2.556-2.252,2.556-6.915v-1.907
			c0-5.015,0-7.616-2.507-7.616c-1.002,0-1.753,0.603-2.254,1.002l-0.452,0.449V316.75z"/>
        <path clip-path="url(#SVGID_2_)" fill="#74BDAB" d="M56.165,289.127h8.124v11.984h0.099c1.15-1.206,3.257-2.055,4.912-2.055
			c5.614,0,8.619,5.61,8.619,12.883c0,5.765-2.405,13.178-9.222,13.178c-3.159,0-5.214-1.501-6.82-3.906l-1.501,3.604h-4.211
			V289.127z M64.289,316.75c-0.154,2.104,1.101,3.255,2.655,3.255c2.254,0,2.556-2.252,2.556-6.915v-1.907
			c0-5.015,0-7.616-2.507-7.616c-1.006,0-1.757,0.603-2.255,1.002l-0.449,0.449V316.75z"/>
        <path clip-path="url(#SVGID_2_)" fill="#8FC8B9" d="M73.493,305.37h-3.307v-5.716h3.307v-2.806c0-6.164,3.058-8.422,8.422-8.422
			c1.605,0,2.809,0.153,4.11,0.301v6.214c-0.449-0.099-1.052-0.196-1.501-0.196c-2.058,0-2.91,0.646-2.91,2.153v2.756h4.411v5.716
			h-4.411v19.446h-8.121V305.37z"/>
        <path clip-path="url(#SVGID_2_)" fill="#A9D4C8" d="M94.404,309.03c0-1.003-0.056-2.202-0.403-3.156
			c-0.403-1.009-1.055-1.704-2.356-1.704c-2.71,0-3.008,3.304-3.008,8.317c0,5.667,0.901,7.519,3.008,7.519
			c2.858,0,3.107-2.904,3.107-4.812l6.315,0.904c-0.6,6.116-4.11,9.327-10.025,9.327c-7.318,0-11.126-6.417-11.126-12.637
			c0-6.866,3.808-13.731,11.48-13.731c8.623,0,9.924,7.463,9.924,9.973H94.404z"/>
        <path clip-path="url(#SVGID_2_)" fill="#C3E0D7" d="M97.858,309.048c1.8,0,3.27,1.47,3.27,3.272c0,1.797-1.47,3.273-3.27,3.273
			c-1.806,0-3.27-1.477-3.27-3.273C94.589,310.518,96.053,309.048,97.858,309.048z"/>
        <path clip-path="url(#SVGID_2_)" fill="#58B49E" d="M39.065,247.994h8.121v11.979h0.098c1.157-1.206,3.261-2.055,4.916-2.055
			c5.614,0,8.622,5.616,8.622,12.883c0,5.765-2.405,13.184-9.225,13.184c-3.156,0-5.211-1.501-6.817-3.913l-1.501,3.618h-4.214
			V247.994z M47.186,275.611c-0.151,2.11,1.104,3.267,2.658,3.267c2.251,0,2.556-2.264,2.556-6.921v-1.907
			c0-5.008,0-7.616-2.507-7.616c-1.002,0-1.753,0.597-2.254,1.003l-0.452,0.449V275.611z"/>
        <path clip-path="url(#SVGID_2_)" fill="#74BDAB" d="M56.165,247.994h8.124v11.979h0.099c1.15-1.206,3.257-2.055,4.912-2.055
			c5.614,0,8.619,5.616,8.619,12.883c0,5.765-2.405,13.184-9.222,13.184c-3.159,0-5.214-1.501-6.82-3.913l-1.501,3.618h-4.211
			V247.994z M64.289,275.611c-0.154,2.11,1.101,3.267,2.655,3.267c2.254,0,2.556-2.264,2.556-6.921v-1.907
			c0-5.008,0-7.616-2.507-7.616c-1.006,0-1.757,0.597-2.255,1.003l-0.449,0.449V275.611z"/>
        <path clip-path="url(#SVGID_2_)" fill="#8FC8B9" d="M73.493,264.236h-3.307v-5.716h3.307v-2.806c0-6.164,3.058-8.422,8.422-8.422
			c1.605,0,2.809,0.147,4.11,0.295v6.22c-0.449-0.104-1.052-0.202-1.501-0.202c-2.058,0-2.91,0.658-2.91,2.159v2.756h4.411v5.716
			h-4.411v19.453h-8.121V264.236z"/>
        <path clip-path="url(#SVGID_2_)" fill="#A9D4C8" d="M94.404,267.89c0-0.997-0.056-2.203-0.403-3.156
			c-0.403-0.997-1.055-1.704-2.356-1.704c-2.71,0-3.008,3.31-3.008,8.324c0,5.66,0.901,7.523,3.008,7.523
			c2.858,0,3.107-2.91,3.107-4.823l6.315,0.904c-0.6,6.122-4.11,9.327-10.025,9.327c-7.318,0-11.126-6.417-11.126-12.631
			c0-6.872,3.808-13.737,11.48-13.737c8.623,0,9.924,7.469,9.924,9.973H94.404z"/>
        <path clip-path="url(#SVGID_2_)" fill="#C3E0D7" d="M97.858,267.909c1.8,0,3.27,1.47,3.27,3.279c0,1.796-1.47,3.272-3.27,3.272
			c-1.806,0-3.27-1.477-3.27-3.272C94.589,269.378,96.053,267.909,97.858,267.909z"/>
        <path clip-path="url(#SVGID_2_)" fill="#58B49E" d="M39.065,206.867h8.121v11.978h0.098c1.157-1.199,3.261-2.055,4.916-2.055
			c5.614,0,8.622,5.611,8.622,12.883c0,5.759-2.405,13.178-9.225,13.178c-3.156,0-5.211-1.501-6.817-3.906l-1.501,3.605h-4.214
			V206.867z M47.186,234.484c-0.151,2.104,1.104,3.254,2.658,3.254c2.251,0,2.556-2.258,2.556-6.915v-1.907
			c0-5.014,0-7.616-2.507-7.616c-1.002,0-1.753,0.603-2.254,1.003l-0.452,0.449V234.484z"/>
        <path clip-path="url(#SVGID_2_)" fill="#74BDAB" d="M56.165,206.867h8.124v11.978h0.099c1.15-1.199,3.257-2.055,4.912-2.055
			c5.614,0,8.619,5.611,8.619,12.883c0,5.759-2.405,13.178-9.222,13.178c-3.159,0-5.214-1.501-6.82-3.906l-1.501,3.605h-4.211
			V206.867z M64.289,234.484c-0.154,2.104,1.101,3.254,2.655,3.254c2.254,0,2.556-2.258,2.556-6.915v-1.907
			c0-5.014,0-7.616-2.507-7.616c-1.006,0-1.757,0.603-2.255,1.003l-0.449,0.449V234.484z"/>
        <path clip-path="url(#SVGID_2_)" fill="#8FC8B9" d="M73.493,223.102h-3.307v-5.709h3.307v-2.806c0-6.165,3.058-8.423,8.422-8.423
			c1.605,0,2.809,0.148,4.11,0.296v6.22c-0.449-0.104-1.052-0.203-1.501-0.203c-2.058,0-2.91,0.652-2.91,2.159v2.757h4.411v5.709
			h-4.411v19.447h-8.121V223.102z"/>
        <path clip-path="url(#SVGID_2_)" fill="#A9D4C8" d="M94.404,226.762c0-1.003-0.056-2.208-0.403-3.156
			c-0.403-1.002-1.055-1.704-2.356-1.704c-2.71,0-3.008,3.304-3.008,8.318c0,5.666,0.901,7.518,3.008,7.518
			c2.858,0,3.107-2.903,3.107-4.811l6.315,0.897c-0.6,6.122-4.11,9.327-10.025,9.327c-7.318,0-11.126-6.417-11.126-12.63
			c0-6.866,3.808-13.732,11.48-13.732c8.623,0,9.924,7.463,9.924,9.973H94.404z"/>
        <path clip-path="url(#SVGID_2_)" fill="#C3E0D7" d="M97.858,226.781c1.8,0,3.27,1.471,3.27,3.273c0,1.796-1.47,3.272-3.27,3.272
			c-1.806,0-3.27-1.477-3.27-3.272C94.589,228.251,96.053,226.781,97.858,226.781z"/>
        <path clip-path="url(#SVGID_2_)" fill="#58B49E" d="M255.646,289.127h8.121v11.984h0.098c1.157-1.206,3.261-2.055,4.916-2.055
			c5.617,0,8.625,5.61,8.625,12.883c0,5.765-2.412,13.178-9.228,13.178c-3.156,0-5.211-1.501-6.817-3.906l-1.501,3.604h-4.214
			V289.127z M263.767,316.75c-0.148,2.104,1.101,3.255,2.658,3.255c2.251,0,2.559-2.252,2.559-6.915v-1.907
			c0-5.015,0-7.616-2.51-7.616c-1.003,0-1.754,0.603-2.258,1.002l-0.449,0.449V316.75z"/>
        <path clip-path="url(#SVGID_2_)" fill="#74BDAB" d="M272.749,289.127h8.121v11.984h0.098c1.15-1.206,3.255-2.055,4.916-2.055
			c5.61,0,8.619,5.61,8.619,12.883c0,5.765-2.406,13.178-9.222,13.178c-3.163,0-5.217-1.501-6.823-3.906l-1.501,3.604h-4.208
			V289.127z M280.87,316.75c-0.154,2.104,1.101,3.255,2.651,3.255c2.258,0,2.56-2.252,2.56-6.915v-1.907
			c0-5.015,0-7.616-2.504-7.616c-1.009,0-1.76,0.603-2.258,1.002l-0.449,0.449V316.75z"/>
        <path clip-path="url(#SVGID_2_)" fill="#8FC8B9" d="M290.073,305.37h-3.304v-5.716h3.304v-2.806c0-6.164,3.058-8.422,8.422-8.422
			c1.606,0,2.805,0.153,4.11,0.301v6.214c-0.449-0.099-1.052-0.196-1.501-0.196c-2.055,0-2.91,0.646-2.91,2.153v2.756h4.411v5.716
			h-4.411v19.446h-8.121V305.37z"/>
        <path clip-path="url(#SVGID_2_)" fill="#A9D4C8" d="M310.984,309.03c0-1.003-0.055-2.202-0.4-3.156
			c-0.406-1.009-1.058-1.704-2.362-1.704c-2.707,0-3.002,3.304-3.002,8.317c0,5.667,0.898,7.519,3.002,7.519
			c2.861,0,3.107-2.904,3.107-4.812l6.318,0.904c-0.597,6.116-4.11,9.327-10.022,9.327c-7.321,0-11.129-6.417-11.129-12.637
			c0-6.866,3.808-13.731,11.48-13.731c8.619,0,9.923,7.463,9.923,9.973H310.984z"/>
        <path clip-path="url(#SVGID_2_)" fill="#C3E0D7" d="M314.442,309.048c1.796,0,3.267,1.47,3.267,3.272
			c0,1.797-1.471,3.273-3.267,3.273c-1.809,0-3.273-1.477-3.273-3.273C311.169,310.518,312.633,309.048,314.442,309.048z"/>
        <path clip-path="url(#SVGID_2_)" fill="#58B49E" d="M255.646,247.994h8.121v11.979h0.098c1.157-1.206,3.261-2.055,4.916-2.055
			c5.617,0,8.625,5.616,8.625,12.883c0,5.765-2.412,13.184-9.228,13.184c-3.156,0-5.211-1.501-6.817-3.913l-1.501,3.618h-4.214
			V247.994z M263.767,275.611c-0.148,2.11,1.101,3.267,2.658,3.267c2.251,0,2.559-2.264,2.559-6.921v-1.907
			c0-5.008,0-7.616-2.51-7.616c-1.003,0-1.754,0.597-2.258,1.003l-0.449,0.449V275.611z"/>
        <path clip-path="url(#SVGID_2_)" fill="#74BDAB" d="M272.749,247.994h8.121v11.979h0.098c1.15-1.206,3.255-2.055,4.916-2.055
			c5.61,0,8.619,5.616,8.619,12.883c0,5.765-2.406,13.184-9.222,13.184c-3.163,0-5.217-1.501-6.823-3.913l-1.501,3.618h-4.208
			V247.994z M280.87,275.611c-0.154,2.11,1.101,3.267,2.651,3.267c2.258,0,2.56-2.264,2.56-6.921v-1.907
			c0-5.008,0-7.616-2.504-7.616c-1.009,0-1.76,0.597-2.258,1.003l-0.449,0.449V275.611z"/>
        <path clip-path="url(#SVGID_2_)" fill="#8FC8B9" d="M290.073,264.236h-3.304v-5.716h3.304v-2.806c0-6.164,3.058-8.422,8.422-8.422
			c1.606,0,2.805,0.147,4.11,0.295v6.22c-0.449-0.104-1.052-0.202-1.501-0.202c-2.055,0-2.91,0.658-2.91,2.159v2.756h4.411v5.716
			h-4.411v19.453h-8.121V264.236z"/>
        <path clip-path="url(#SVGID_2_)" fill="#A9D4C8" d="M310.984,267.89c0-0.997-0.055-2.203-0.4-3.156
			c-0.406-0.997-1.058-1.704-2.362-1.704c-2.707,0-3.002,3.31-3.002,8.324c0,5.66,0.898,7.523,3.002,7.523
			c2.861,0,3.107-2.91,3.107-4.823l6.318,0.904c-0.597,6.122-4.11,9.327-10.022,9.327c-7.321,0-11.129-6.417-11.129-12.631
			c0-6.872,3.808-13.737,11.48-13.737c8.619,0,9.923,7.469,9.923,9.973H310.984z"/>
        <path clip-path="url(#SVGID_2_)" fill="#C3E0D7" d="M314.442,267.909c1.796,0,3.267,1.47,3.267,3.279
			c0,1.796-1.471,3.272-3.267,3.272c-1.809,0-3.273-1.477-3.273-3.272C311.169,269.378,312.633,267.909,314.442,267.909z"/>
        <path clip-path="url(#SVGID_2_)" fill="#58B49E" d="M255.646,206.867h8.121v11.978h0.098c1.157-1.199,3.261-2.055,4.916-2.055
			c5.617,0,8.625,5.611,8.625,12.883c0,5.759-2.412,13.178-9.228,13.178c-3.156,0-5.211-1.501-6.817-3.906l-1.501,3.605h-4.214
			V206.867z M263.767,234.484c-0.148,2.104,1.101,3.254,2.658,3.254c2.251,0,2.559-2.258,2.559-6.915v-1.907
			c0-5.014,0-7.616-2.51-7.616c-1.003,0-1.754,0.603-2.258,1.003l-0.449,0.449V234.484z"/>
        <path clip-path="url(#SVGID_2_)" fill="#74BDAB" d="M272.749,206.867h8.121v11.978h0.098c1.15-1.199,3.255-2.055,4.916-2.055
			c5.61,0,8.619,5.611,8.619,12.883c0,5.759-2.406,13.178-9.222,13.178c-3.163,0-5.217-1.501-6.823-3.906l-1.501,3.605h-4.208
			V206.867z M280.87,234.484c-0.154,2.104,1.101,3.254,2.651,3.254c2.258,0,2.56-2.258,2.56-6.915v-1.907
			c0-5.014,0-7.616-2.504-7.616c-1.009,0-1.76,0.603-2.258,1.003l-0.449,0.449V234.484z"/>
        <path clip-path="url(#SVGID_2_)" fill="#8FC8B9" d="M290.073,223.102h-3.304v-5.709h3.304v-2.806c0-6.165,3.058-8.423,8.422-8.423
			c1.606,0,2.805,0.148,4.11,0.296v6.22c-0.449-0.104-1.052-0.203-1.501-0.203c-2.055,0-2.91,0.652-2.91,2.159v2.757h4.411v5.709
			h-4.411v19.447h-8.121V223.102z"/>
        <path clip-path="url(#SVGID_2_)" fill="#A9D4C8" d="M310.984,226.762c0-1.003-0.055-2.208-0.4-3.156
			c-0.406-1.002-1.058-1.704-2.362-1.704c-2.707,0-3.002,3.304-3.002,8.318c0,5.666,0.898,7.518,3.002,7.518
			c2.861,0,3.107-2.903,3.107-4.811l6.318,0.897c-0.597,6.122-4.11,9.327-10.022,9.327c-7.321,0-11.129-6.417-11.129-12.63
			c0-6.866,3.808-13.732,11.48-13.732c8.619,0,9.923,7.463,9.923,9.973H310.984z"/>
        <path clip-path="url(#SVGID_2_)" fill="#C3E0D7" d="M314.442,226.781c1.796,0,3.267,1.471,3.267,3.273
			c0,1.796-1.471,3.272-3.267,3.272c-1.809,0-3.273-1.477-3.273-3.272C311.169,228.251,312.633,226.781,314.442,226.781z"/>
        <path clip-path="url(#SVGID_2_)" fill="#58B49E" d="M328.285,289.127h8.127v11.984h0.098c1.157-1.206,3.255-2.055,4.91-2.055
			c5.617,0,8.625,5.61,8.625,12.883c0,5.765-2.406,13.178-9.222,13.178c-3.156,0-5.217-1.501-6.817-3.906l-1.507,3.604h-4.214
			V289.127z M336.412,316.75c-0.154,2.104,1.101,3.255,2.652,3.255c2.258,0,2.559-2.252,2.559-6.915v-1.907
			c0-5.015,0-7.616-2.51-7.616c-0.997,0-1.753,0.603-2.251,1.002l-0.449,0.449V316.75z"/>
        <path clip-path="url(#SVGID_2_)" fill="#74BDAB" d="M345.388,289.127h8.121v11.984h0.098c1.157-1.206,3.261-2.055,4.916-2.055
			c5.617,0,8.619,5.61,8.619,12.883c0,5.765-2.405,13.178-9.222,13.178c-3.156,0-5.211-1.501-6.817-3.906l-1.507,3.604h-4.208
			V289.127z M353.509,316.75c-0.148,2.104,1.107,3.255,2.658,3.255c2.251,0,2.559-2.252,2.559-6.915v-1.907
			c0-5.015,0-7.616-2.51-7.616c-1.002,0-1.753,0.603-2.251,1.002l-0.455,0.449V316.75z"/>
        <path clip-path="url(#SVGID_2_)" fill="#8FC8B9" d="M362.718,305.37h-3.31v-5.716h3.31v-2.806c0-6.164,3.058-8.422,8.422-8.422
			c1.6,0,2.806,0.153,4.11,0.301v6.214c-0.449-0.099-1.052-0.196-1.507-0.196c-2.055,0-2.904,0.646-2.904,2.153v2.756h4.411v5.716
			h-4.411v19.446h-8.121V305.37z"/>
        <path clip-path="url(#SVGID_2_)" fill="#A9D4C8" d="M383.624,309.03c0-1.003-0.049-2.202-0.4-3.156
			c-0.4-1.009-1.052-1.704-2.356-1.704c-2.707,0-3.008,3.304-3.008,8.317c0,5.667,0.904,7.519,3.008,7.519
			c2.855,0,3.107-2.904,3.107-4.812l6.318,0.904c-0.603,6.116-4.116,9.327-10.028,9.327c-7.321,0-11.129-6.417-11.129-12.637
			c0-6.866,3.808-13.731,11.48-13.731c8.625,0,9.93,7.463,9.93,9.973H383.624z"/>
        <path clip-path="url(#SVGID_2_)" fill="#C3E0D7" d="M387.081,309.048c1.803,0,3.273,1.47,3.273,3.272
			c0,1.797-1.47,3.273-3.273,3.273c-1.809,0-3.273-1.477-3.273-3.273C383.808,310.518,385.272,309.048,387.081,309.048z"/>
        <path clip-path="url(#SVGID_2_)" fill="#58B49E" d="M328.285,247.994h8.127v11.979h0.098c1.157-1.206,3.255-2.055,4.91-2.055
			c5.617,0,8.625,5.616,8.625,12.883c0,5.765-2.406,13.184-9.222,13.184c-3.156,0-5.217-1.501-6.817-3.913l-1.507,3.618h-4.214
			V247.994z M336.412,275.611c-0.154,2.11,1.101,3.267,2.652,3.267c2.258,0,2.559-2.264,2.559-6.921v-1.907
			c0-5.008,0-7.616-2.51-7.616c-0.997,0-1.753,0.597-2.251,1.003l-0.449,0.449V275.611z"/>
        <path clip-path="url(#SVGID_2_)" fill="#74BDAB" d="M345.388,247.994h8.121v11.979h0.098c1.157-1.206,3.261-2.055,4.916-2.055
			c5.617,0,8.619,5.616,8.619,12.883c0,5.765-2.405,13.184-9.222,13.184c-3.156,0-5.211-1.501-6.817-3.913l-1.507,3.618h-4.208
			V247.994z M353.509,275.611c-0.148,2.11,1.107,3.267,2.658,3.267c2.251,0,2.559-2.264,2.559-6.921v-1.907
			c0-5.008,0-7.616-2.51-7.616c-1.002,0-1.753,0.597-2.251,1.003l-0.455,0.449V275.611z"/>
        <path clip-path="url(#SVGID_2_)" fill="#8FC8B9" d="M362.718,264.236h-3.31v-5.716h3.31v-2.806c0-6.164,3.058-8.422,8.422-8.422
			c1.6,0,2.806,0.147,4.11,0.295v6.22c-0.449-0.104-1.052-0.202-1.507-0.202c-2.055,0-2.904,0.658-2.904,2.159v2.756h4.411v5.716
			h-4.411v19.453h-8.121V264.236z"/>
        <path clip-path="url(#SVGID_2_)" fill="#A9D4C8" d="M383.624,267.89c0-0.997-0.049-2.203-0.4-3.156
			c-0.4-0.997-1.052-1.704-2.356-1.704c-2.707,0-3.008,3.31-3.008,8.324c0,5.66,0.904,7.523,3.008,7.523
			c2.855,0,3.107-2.91,3.107-4.823l6.318,0.904c-0.603,6.122-4.116,9.327-10.028,9.327c-7.321,0-11.129-6.417-11.129-12.631
			c0-6.872,3.808-13.737,11.48-13.737c8.625,0,9.93,7.469,9.93,9.973H383.624z"/>
        <path clip-path="url(#SVGID_2_)" fill="#C3E0D7" d="M387.081,267.909c1.803,0,3.273,1.47,3.273,3.279
			c0,1.796-1.47,3.272-3.273,3.272c-1.809,0-3.273-1.477-3.273-3.272C383.808,269.378,385.272,267.909,387.081,267.909z"/>
        <path clip-path="url(#SVGID_2_)" fill="#58B49E" d="M328.285,206.867h8.127v11.978h0.098c1.157-1.199,3.255-2.055,4.91-2.055
			c5.617,0,8.625,5.611,8.625,12.883c0,5.759-2.406,13.178-9.222,13.178c-3.156,0-5.217-1.501-6.817-3.906l-1.507,3.605h-4.214
			V206.867z M336.412,234.484c-0.154,2.104,1.101,3.254,2.652,3.254c2.258,0,2.559-2.258,2.559-6.915v-1.907
			c0-5.014,0-7.616-2.51-7.616c-0.997,0-1.753,0.603-2.251,1.003l-0.449,0.449V234.484z"/>
        <path clip-path="url(#SVGID_2_)" fill="#74BDAB" d="M345.388,206.867h8.121v11.978h0.098c1.157-1.199,3.261-2.055,4.916-2.055
			c5.617,0,8.619,5.611,8.619,12.883c0,5.759-2.405,13.178-9.222,13.178c-3.156,0-5.211-1.501-6.817-3.906l-1.507,3.605h-4.208
			V206.867z M353.509,234.484c-0.148,2.104,1.107,3.254,2.658,3.254c2.251,0,2.559-2.258,2.559-6.915v-1.907
			c0-5.014,0-7.616-2.51-7.616c-1.002,0-1.753,0.603-2.251,1.003l-0.455,0.449V234.484z"/>
        <path clip-path="url(#SVGID_2_)" fill="#8FC8B9" d="M362.718,223.102h-3.31v-5.709h3.31v-2.806c0-6.165,3.058-8.423,8.422-8.423
			c1.6,0,2.806,0.148,4.11,0.296v6.22c-0.449-0.104-1.052-0.203-1.507-0.203c-2.055,0-2.904,0.652-2.904,2.159v2.757h4.411v5.709
			h-4.411v19.447h-8.121V223.102z"/>
        <path clip-path="url(#SVGID_2_)" fill="#A9D4C8" d="M383.624,226.762c0-1.003-0.049-2.208-0.4-3.156
			c-0.4-1.002-1.052-1.704-2.356-1.704c-2.707,0-3.008,3.304-3.008,8.318c0,5.666,0.904,7.518,3.008,7.518
			c2.855,0,3.107-2.903,3.107-4.811l6.318,0.897c-0.603,6.122-4.116,9.327-10.028,9.327c-7.321,0-11.129-6.417-11.129-12.63
			c0-6.866,3.808-13.732,11.48-13.732c8.625,0,9.93,7.463,9.93,9.973H383.624z"/>
        <path clip-path="url(#SVGID_2_)" fill="#C3E0D7" d="M387.081,226.781c1.803,0,3.273,1.471,3.273,3.273
			c0,1.796-1.47,3.272-3.273,3.272c-1.809,0-3.273-1.477-3.273-3.272C383.808,228.251,385.272,226.781,387.081,226.781z"/>
        <path clip-path="url(#SVGID_2_)" fill="#58B49E" d="M183.451,165.734h8.121v11.983h0.099c1.157-1.206,3.261-2.06,4.916-2.06
			c5.617,0,8.625,5.615,8.625,12.888c0,5.765-2.406,13.178-9.229,13.178c-3.156,0-5.214-1.501-6.816-3.906l-1.504,3.604h-4.211
			V165.734z M191.572,193.356c-0.151,2.104,1.104,3.255,2.658,3.255c2.255,0,2.557-2.252,2.557-6.915v-1.907
			c0-5.008,0-7.616-2.507-7.616c-1,0-1.753,0.603-2.255,1.002l-0.452,0.449V193.356z"/>
        <path clip-path="url(#SVGID_2_)" fill="#74BDAB" d="M200.554,165.734h8.121v11.983h0.099c1.15-1.206,3.259-2.06,4.914-2.06
			c5.611,0,8.619,5.615,8.619,12.888c0,5.765-2.405,13.178-9.222,13.178c-3.161,0-5.215-1.501-6.821-3.906l-1.501,3.604h-4.208
			V165.734z M208.675,193.356c-0.153,2.104,1.102,3.255,2.656,3.255c2.252,0,2.553-2.252,2.553-6.915v-1.907
			c0-5.008,0-7.616-2.504-7.616c-1.001,0-1.751,0.603-2.256,1.002l-0.449,0.449V193.356z"/>
        <path clip-path="url(#SVGID_2_)" fill="#8FC8B9" d="M217.877,181.974h-3.304v-5.715h3.304v-2.804c0-6.165,3.058-8.423,8.423-8.423
			c1.605,0,2.812,0.154,4.115,0.302v6.214c-0.455-0.099-1.058-0.197-1.507-0.197c-2.055,0-2.91,0.652-2.91,2.153v2.755h4.417v5.715
			h-4.417v19.447h-8.121V181.974z"/>
        <path clip-path="url(#SVGID_2_)" fill="#A9D4C8" d="M238.789,185.635c0-1.003-0.055-2.209-0.4-3.156
			c-0.406-1.003-1.052-1.704-2.356-1.704c-2.713,0-3.008,3.304-3.008,8.317c0,5.666,0.898,7.519,3.008,7.519
			c2.854,0,3.107-2.904,3.107-4.812l6.312,0.898c-0.597,6.121-4.109,9.333-10.021,9.333c-7.321,0-11.13-6.423-11.13-12.637
			c0-6.866,3.809-13.736,11.48-13.736c8.625,0,9.923,7.467,9.923,9.978H238.789z"/>
        <path clip-path="url(#SVGID_2_)" fill="#C3E0D7" d="M242.246,185.654c1.796,0,3.267,1.47,3.267,3.272
			c0,1.797-1.47,3.273-3.267,3.273c-1.809,0-3.273-1.477-3.273-3.273C238.973,187.124,240.438,185.654,242.246,185.654z"/>
        <path clip-path="url(#SVGID_2_)" fill="#58B49E" d="M111.258,165.734h8.121v11.983h0.099c1.156-1.206,3.261-2.06,4.916-2.06
			c5.614,0,8.622,5.615,8.622,12.888c0,5.765-2.405,13.178-9.225,13.178c-3.156,0-5.214-1.501-6.816-3.906l-1.504,3.604h-4.211
			V165.734z M119.379,193.356c-0.151,2.104,1.104,3.255,2.658,3.255c2.255,0,2.556-2.252,2.556-6.915v-1.907
			c0-5.008,0-7.616-2.507-7.616c-1,0-1.753,0.603-2.255,1.002l-0.452,0.449V193.356z"/>
        <path clip-path="url(#SVGID_2_)" fill="#74BDAB" d="M128.358,165.734h8.124v11.983h0.099c1.15-1.206,3.257-2.06,4.913-2.06
			c5.614,0,8.619,5.615,8.619,12.888c0,5.765-2.406,13.178-9.222,13.178c-3.159,0-5.214-1.501-6.82-3.906l-1.504,3.604h-4.208
			V165.734z M136.482,193.356c-0.154,2.104,1.101,3.255,2.655,3.255c2.255,0,2.556-2.252,2.556-6.915v-1.907
			c0-5.008,0-7.616-2.507-7.616c-1.003,0-1.753,0.603-2.255,1.002l-0.449,0.449V193.356z"/>
        <path clip-path="url(#SVGID_2_)" fill="#8FC8B9" d="M145.686,181.974h-3.307v-5.715h3.307v-2.804c0-6.165,3.058-8.423,8.422-8.423
			c1.603,0,2.809,0.154,4.113,0.302v6.214c-0.452-0.099-1.055-0.197-1.504-0.197c-2.058,0-2.91,0.652-2.91,2.153v2.755h4.414v5.715
			h-4.414v19.447h-8.121V181.974z"/>
        <path clip-path="url(#SVGID_2_)" fill="#A9D4C8" d="M166.597,185.635c0-1.003-0.056-2.209-0.403-3.156
			c-0.403-1.003-1.052-1.704-2.356-1.704c-2.71,0-3.009,3.304-3.009,8.317c0,5.666,0.901,7.519,3.009,7.519
			c2.857,0,3.106-2.904,3.106-4.812l6.315,0.898c-0.6,6.121-4.109,9.333-10.025,9.333c-7.318,0-11.126-6.423-11.126-12.637
			c0-6.866,3.809-13.736,11.48-13.736c8.622,0,9.923,7.467,9.923,9.978H166.597z"/>
        <path clip-path="url(#SVGID_2_)" fill="#C3E0D7" d="M170.052,185.654c1.799,0,3.27,1.47,3.27,3.272c0,1.797-1.47,3.273-3.27,3.273
			c-1.806,0-3.27-1.477-3.27-3.273C166.782,187.124,168.246,185.654,170.052,185.654z"/>
        <path clip-path="url(#SVGID_2_)" fill="#58B49E" d="M39.065,165.734h8.121v11.983h0.098c1.157-1.206,3.261-2.06,4.916-2.06
			c5.614,0,8.622,5.615,8.622,12.888c0,5.765-2.405,13.178-9.225,13.178c-3.156,0-5.211-1.501-6.817-3.906l-1.501,3.604h-4.214
			V165.734z M47.186,193.356c-0.151,2.104,1.104,3.255,2.658,3.255c2.251,0,2.556-2.252,2.556-6.915v-1.907
			c0-5.008,0-7.616-2.507-7.616c-1.002,0-1.753,0.603-2.254,1.002l-0.452,0.449V193.356z"/>
        <path clip-path="url(#SVGID_2_)" fill="#74BDAB" d="M56.165,165.734h8.124v11.983h0.099c1.15-1.206,3.257-2.06,4.912-2.06
			c5.614,0,8.619,5.615,8.619,12.888c0,5.765-2.405,13.178-9.222,13.178c-3.159,0-5.214-1.501-6.82-3.906l-1.501,3.604h-4.211
			V165.734z M64.289,193.356c-0.154,2.104,1.101,3.255,2.655,3.255c2.254,0,2.556-2.252,2.556-6.915v-1.907
			c0-5.008,0-7.616-2.507-7.616c-1.006,0-1.757,0.603-2.255,1.002l-0.449,0.449V193.356z"/>
        <path clip-path="url(#SVGID_2_)" fill="#8FC8B9" d="M73.493,181.974h-3.307v-5.715h3.307v-2.804c0-6.165,3.058-8.423,8.422-8.423
			c1.605,0,2.809,0.154,4.11,0.302v6.214c-0.449-0.099-1.052-0.197-1.501-0.197c-2.058,0-2.91,0.652-2.91,2.153v2.755h4.411v5.715
			h-4.411v19.447h-8.121V181.974z"/>
        <path clip-path="url(#SVGID_2_)" fill="#A9D4C8" d="M94.404,185.635c0-1.003-0.056-2.209-0.403-3.156
			c-0.403-1.003-1.055-1.704-2.356-1.704c-2.71,0-3.008,3.304-3.008,8.317c0,5.666,0.901,7.519,3.008,7.519
			c2.858,0,3.107-2.904,3.107-4.812l6.315,0.898c-0.6,6.121-4.11,9.333-10.025,9.333c-7.318,0-11.126-6.423-11.126-12.637
			c0-6.866,3.808-13.736,11.48-13.736c8.623,0,9.924,7.467,9.924,9.978H94.404z"/>
        <path clip-path="url(#SVGID_2_)" fill="#C3E0D7" d="M97.858,185.654c1.8,0,3.27,1.47,3.27,3.272c0,1.797-1.47,3.273-3.27,3.273
			c-1.806,0-3.27-1.477-3.27-3.273C94.589,187.124,96.053,185.654,97.858,185.654z"/>
        <path clip-path="url(#SVGID_2_)" fill="#58B49E" d="M255.646,165.734h8.121v11.983h0.098c1.157-1.206,3.261-2.06,4.916-2.06
			c5.617,0,8.625,5.615,8.625,12.888c0,5.765-2.412,13.178-9.228,13.178c-3.156,0-5.211-1.501-6.817-3.906l-1.501,3.604h-4.214
			V165.734z M263.767,193.356c-0.148,2.104,1.101,3.255,2.658,3.255c2.251,0,2.559-2.252,2.559-6.915v-1.907
			c0-5.008,0-7.616-2.51-7.616c-1.003,0-1.754,0.603-2.258,1.002l-0.449,0.449V193.356z"/>
        <path clip-path="url(#SVGID_2_)" fill="#74BDAB" d="M272.749,165.734h8.121v11.983h0.098c1.15-1.206,3.255-2.06,4.916-2.06
			c5.61,0,8.619,5.615,8.619,12.888c0,5.765-2.406,13.178-9.222,13.178c-3.163,0-5.217-1.501-6.823-3.906l-1.501,3.604h-4.208
			V165.734z M280.87,193.356c-0.154,2.104,1.101,3.255,2.651,3.255c2.258,0,2.56-2.252,2.56-6.915v-1.907
			c0-5.008,0-7.616-2.504-7.616c-1.009,0-1.76,0.603-2.258,1.002l-0.449,0.449V193.356z"/>
        <path clip-path="url(#SVGID_2_)" fill="#8FC8B9" d="M290.073,181.974h-3.304v-5.715h3.304v-2.804c0-6.165,3.058-8.423,8.422-8.423
			c1.606,0,2.805,0.154,4.11,0.302v6.214c-0.449-0.099-1.052-0.197-1.501-0.197c-2.055,0-2.91,0.652-2.91,2.153v2.755h4.411v5.715
			h-4.411v19.447h-8.121V181.974z"/>
        <path clip-path="url(#SVGID_2_)" fill="#A9D4C8" d="M310.984,185.635c0-1.003-0.055-2.209-0.4-3.156
			c-0.406-1.003-1.058-1.704-2.362-1.704c-2.707,0-3.002,3.304-3.002,8.317c0,5.666,0.898,7.519,3.002,7.519
			c2.861,0,3.107-2.904,3.107-4.812l6.318,0.898c-0.597,6.121-4.11,9.333-10.022,9.333c-7.321,0-11.129-6.423-11.129-12.637
			c0-6.866,3.808-13.736,11.48-13.736c8.619,0,9.923,7.467,9.923,9.978H310.984z"/>
        <path clip-path="url(#SVGID_2_)" fill="#C3E0D7" d="M314.442,185.654c1.796,0,3.267,1.47,3.267,3.272
			c0,1.797-1.471,3.273-3.267,3.273c-1.809,0-3.273-1.477-3.273-3.273C311.169,187.124,312.633,185.654,314.442,185.654z"/>
        <path clip-path="url(#SVGID_2_)" fill="#58B49E" d="M328.285,165.734h8.127v11.983h0.098c1.157-1.206,3.255-2.06,4.91-2.06
			c5.617,0,8.625,5.615,8.625,12.888c0,5.765-2.406,13.178-9.222,13.178c-3.156,0-5.217-1.501-6.817-3.906l-1.507,3.604h-4.214
			V165.734z M336.412,193.356c-0.154,2.104,1.101,3.255,2.652,3.255c2.258,0,2.559-2.252,2.559-6.915v-1.907
			c0-5.008,0-7.616-2.51-7.616c-0.997,0-1.753,0.603-2.251,1.002l-0.449,0.449V193.356z"/>
        <path clip-path="url(#SVGID_2_)" fill="#74BDAB" d="M345.388,165.734h8.121v11.983h0.098c1.157-1.206,3.261-2.06,4.916-2.06
			c5.617,0,8.619,5.615,8.619,12.888c0,5.765-2.405,13.178-9.222,13.178c-3.156,0-5.211-1.501-6.817-3.906l-1.507,3.604h-4.208
			V165.734z M353.509,193.356c-0.148,2.104,1.107,3.255,2.658,3.255c2.251,0,2.559-2.252,2.559-6.915v-1.907
			c0-5.008,0-7.616-2.51-7.616c-1.002,0-1.753,0.603-2.251,1.002l-0.455,0.449V193.356z"/>
        <path clip-path="url(#SVGID_2_)" fill="#8FC8B9" d="M362.718,181.974h-3.31v-5.715h3.31v-2.804c0-6.165,3.058-8.423,8.422-8.423
			c1.6,0,2.806,0.154,4.11,0.302v6.214c-0.449-0.099-1.052-0.197-1.507-0.197c-2.055,0-2.904,0.652-2.904,2.153v2.755h4.411v5.715
			h-4.411v19.447h-8.121V181.974z"/>
        <path clip-path="url(#SVGID_2_)" fill="#A9D4C8" d="M383.624,185.635c0-1.003-0.049-2.209-0.4-3.156
			c-0.4-1.003-1.052-1.704-2.356-1.704c-2.707,0-3.008,3.304-3.008,8.317c0,5.666,0.904,7.519,3.008,7.519
			c2.855,0,3.107-2.904,3.107-4.812l6.318,0.898c-0.603,6.121-4.116,9.333-10.028,9.333c-7.321,0-11.129-6.423-11.129-12.637
			c0-6.866,3.808-13.736,11.48-13.736c8.625,0,9.93,7.467,9.93,9.978H383.624z"/>
        <path clip-path="url(#SVGID_2_)" fill="#C3E0D7" d="M387.081,185.654c1.803,0,3.273,1.47,3.273,3.272
			c0,1.797-1.47,3.273-3.273,3.273c-1.809,0-3.273-1.477-3.273-3.273C383.808,187.124,385.272,185.654,387.081,185.654z"/>
        <path clip-path="url(#SVGID_2_)" fill="#58B49E" d="M183.451,124.599h8.121v11.984h0.099c1.157-1.206,3.261-2.055,4.916-2.055
			c5.617,0,8.625,5.611,8.625,12.884c0,5.765-2.406,13.178-9.229,13.178c-3.156,0-5.214-1.501-6.816-3.907l-1.504,3.611h-4.211
			V124.599z M191.572,152.224c-0.151,2.104,1.104,3.261,2.658,3.261c2.255,0,2.557-2.258,2.557-6.921v-1.907
			c0-5.009,0-7.618-2.507-7.618c-1,0-1.753,0.603-2.255,1.003l-0.452,0.449V152.224z"/>
        <path clip-path="url(#SVGID_2_)" fill="#74BDAB" d="M200.554,124.599h8.121v11.984h0.099c1.15-1.206,3.259-2.055,4.914-2.055
			c5.611,0,8.619,5.611,8.619,12.884c0,5.765-2.405,13.178-9.222,13.178c-3.161,0-5.215-1.501-6.821-3.907l-1.501,3.611h-4.208
			V124.599z M208.675,152.224c-0.153,2.104,1.102,3.261,2.656,3.261c2.252,0,2.553-2.258,2.553-6.921v-1.907
			c0-5.009,0-7.618-2.504-7.618c-1.001,0-1.751,0.603-2.256,1.003l-0.449,0.449V152.224z"/>
        <path clip-path="url(#SVGID_2_)" fill="#8FC8B9" d="M217.877,140.841h-3.304v-5.715h3.304v-2.806c0-6.164,3.058-8.422,8.423-8.422
			c1.605,0,2.812,0.153,4.115,0.301v6.214c-0.455-0.099-1.058-0.197-1.507-0.197c-2.055,0-2.91,0.652-2.91,2.153v2.756h4.417v5.715
			h-4.417v19.455h-8.121V140.841z"/>
        <path clip-path="url(#SVGID_2_)" fill="#A9D4C8" d="M238.789,144.501c0-1.003-0.055-2.203-0.4-3.156
			c-0.406-1.003-1.052-1.704-2.356-1.704c-2.713,0-3.008,3.304-3.008,8.319c0,5.666,0.898,7.524,3.008,7.524
			c2.854,0,3.107-2.91,3.107-4.817l6.312,0.904c-0.597,6.115-4.109,9.327-10.021,9.327c-7.321,0-11.13-6.423-11.13-12.636
			c0-6.868,3.809-13.733,11.48-13.733c8.625,0,9.923,7.462,9.923,9.973H238.789z"/>
        <path clip-path="url(#SVGID_2_)" fill="#C3E0D7" d="M242.246,144.52c1.796,0,3.267,1.47,3.267,3.274
			c0,1.796-1.47,3.273-3.267,3.273c-1.809,0-3.273-1.477-3.273-3.273C238.973,145.99,240.438,144.52,242.246,144.52z"/>
        <path clip-path="url(#SVGID_2_)" fill="#58B49E" d="M111.258,124.599h8.121v11.984h0.099c1.156-1.206,3.261-2.055,4.916-2.055
			c5.614,0,8.622,5.611,8.622,12.884c0,5.765-2.405,13.178-9.225,13.178c-3.156,0-5.214-1.501-6.816-3.907l-1.504,3.611h-4.211
			V124.599z M119.379,152.224c-0.151,2.104,1.104,3.261,2.658,3.261c2.255,0,2.556-2.258,2.556-6.921v-1.907
			c0-5.009,0-7.618-2.507-7.618c-1,0-1.753,0.603-2.255,1.003l-0.452,0.449V152.224z"/>
        <path clip-path="url(#SVGID_2_)" fill="#74BDAB" d="M128.358,124.599h8.124v11.984h0.099c1.15-1.206,3.257-2.055,4.913-2.055
			c5.614,0,8.619,5.611,8.619,12.884c0,5.765-2.406,13.178-9.222,13.178c-3.159,0-5.214-1.501-6.82-3.907l-1.504,3.611h-4.208
			V124.599z M136.482,152.224c-0.154,2.104,1.101,3.261,2.655,3.261c2.255,0,2.556-2.258,2.556-6.921v-1.907
			c0-5.009,0-7.618-2.507-7.618c-1.003,0-1.753,0.603-2.255,1.003l-0.449,0.449V152.224z"/>
        <path clip-path="url(#SVGID_2_)" fill="#8FC8B9" d="M145.686,140.841h-3.307v-5.715h3.307v-2.806c0-6.164,3.058-8.422,8.422-8.422
			c1.603,0,2.809,0.153,4.113,0.301v6.214c-0.452-0.099-1.055-0.197-1.504-0.197c-2.058,0-2.91,0.652-2.91,2.153v2.756h4.414v5.715
			h-4.414v19.455h-8.121V140.841z"/>
        <path clip-path="url(#SVGID_2_)" fill="#A9D4C8" d="M166.597,144.501c0-1.003-0.056-2.203-0.403-3.156
			c-0.403-1.003-1.052-1.704-2.356-1.704c-2.71,0-3.009,3.304-3.009,8.319c0,5.666,0.901,7.524,3.009,7.524
			c2.857,0,3.106-2.91,3.106-4.817l6.315,0.904c-0.6,6.115-4.109,9.327-10.025,9.327c-7.318,0-11.126-6.423-11.126-12.636
			c0-6.868,3.809-13.733,11.48-13.733c8.622,0,9.923,7.462,9.923,9.973H166.597z"/>
        <path clip-path="url(#SVGID_2_)" fill="#C3E0D7" d="M170.052,144.52c1.799,0,3.27,1.47,3.27,3.274c0,1.796-1.47,3.273-3.27,3.273
			c-1.806,0-3.27-1.477-3.27-3.273C166.782,145.99,168.246,144.52,170.052,144.52z"/>
        <path clip-path="url(#SVGID_2_)" fill="#58B49E" d="M39.065,124.599h8.121v11.984h0.098c1.157-1.206,3.261-2.055,4.916-2.055
			c5.614,0,8.622,5.611,8.622,12.884c0,5.765-2.405,13.178-9.225,13.178c-3.156,0-5.211-1.501-6.817-3.907l-1.501,3.611h-4.214
			V124.599z M47.186,152.224c-0.151,2.104,1.104,3.261,2.658,3.261c2.251,0,2.556-2.258,2.556-6.921v-1.907
			c0-5.009,0-7.618-2.507-7.618c-1.002,0-1.753,0.603-2.254,1.003l-0.452,0.449V152.224z"/>
        <path clip-path="url(#SVGID_2_)" fill="#74BDAB" d="M56.165,124.599h8.124v11.984h0.099c1.15-1.206,3.257-2.055,4.912-2.055
			c5.614,0,8.619,5.611,8.619,12.884c0,5.765-2.405,13.178-9.222,13.178c-3.159,0-5.214-1.501-6.82-3.907l-1.501,3.611h-4.211
			V124.599z M64.289,152.224c-0.154,2.104,1.101,3.261,2.655,3.261c2.254,0,2.556-2.258,2.556-6.921v-1.907
			c0-5.009,0-7.618-2.507-7.618c-1.006,0-1.757,0.603-2.255,1.003l-0.449,0.449V152.224z"/>
        <path clip-path="url(#SVGID_2_)" fill="#8FC8B9" d="M73.493,140.841h-3.307v-5.715h3.307v-2.806c0-6.164,3.058-8.422,8.422-8.422
			c1.605,0,2.809,0.153,4.11,0.301v6.214c-0.449-0.099-1.052-0.197-1.501-0.197c-2.058,0-2.91,0.652-2.91,2.153v2.756h4.411v5.715
			h-4.411v19.455h-8.121V140.841z"/>
        <path clip-path="url(#SVGID_2_)" fill="#A9D4C8" d="M94.404,144.501c0-1.003-0.056-2.203-0.403-3.156
			c-0.403-1.003-1.055-1.704-2.356-1.704c-2.71,0-3.008,3.304-3.008,8.319c0,5.666,0.901,7.524,3.008,7.524
			c2.858,0,3.107-2.91,3.107-4.817l6.315,0.904c-0.6,6.115-4.11,9.327-10.025,9.327c-7.318,0-11.126-6.423-11.126-12.636
			c0-6.868,3.808-13.733,11.48-13.733c8.623,0,9.924,7.462,9.924,9.973H94.404z"/>
        <path clip-path="url(#SVGID_2_)" fill="#C3E0D7" d="M97.858,144.52c1.8,0,3.27,1.47,3.27,3.274c0,1.796-1.47,3.273-3.27,3.273
			c-1.806,0-3.27-1.477-3.27-3.273C94.589,145.99,96.053,144.52,97.858,144.52z"/>
        <path clip-path="url(#SVGID_2_)" fill="#58B49E" d="M255.646,124.599h8.121v11.984h0.098c1.157-1.206,3.261-2.055,4.916-2.055
			c5.617,0,8.625,5.611,8.625,12.884c0,5.765-2.412,13.178-9.228,13.178c-3.156,0-5.211-1.501-6.817-3.907l-1.501,3.611h-4.214
			V124.599z M263.767,152.224c-0.148,2.104,1.101,3.261,2.658,3.261c2.251,0,2.559-2.258,2.559-6.921v-1.907
			c0-5.009,0-7.618-2.51-7.618c-1.003,0-1.754,0.603-2.258,1.003l-0.449,0.449V152.224z"/>
        <path clip-path="url(#SVGID_2_)" fill="#74BDAB" d="M272.749,124.599h8.121v11.984h0.098c1.15-1.206,3.255-2.055,4.916-2.055
			c5.61,0,8.619,5.611,8.619,12.884c0,5.765-2.406,13.178-9.222,13.178c-3.163,0-5.217-1.501-6.823-3.907l-1.501,3.611h-4.208
			V124.599z M280.87,152.224c-0.154,2.104,1.101,3.261,2.651,3.261c2.258,0,2.56-2.258,2.56-6.921v-1.907
			c0-5.009,0-7.618-2.504-7.618c-1.009,0-1.76,0.603-2.258,1.003l-0.449,0.449V152.224z"/>
        <path clip-path="url(#SVGID_2_)" fill="#8FC8B9" d="M290.073,140.841h-3.304v-5.715h3.304v-2.806c0-6.164,3.058-8.422,8.422-8.422
			c1.606,0,2.805,0.153,4.11,0.301v6.214c-0.449-0.099-1.052-0.197-1.501-0.197c-2.055,0-2.91,0.652-2.91,2.153v2.756h4.411v5.715
			h-4.411v19.455h-8.121V140.841z"/>
        <path clip-path="url(#SVGID_2_)" fill="#A9D4C8" d="M310.984,144.501c0-1.003-0.055-2.203-0.4-3.156
			c-0.406-1.003-1.058-1.704-2.362-1.704c-2.707,0-3.002,3.304-3.002,8.319c0,5.666,0.898,7.524,3.002,7.524
			c2.861,0,3.107-2.91,3.107-4.817l6.318,0.904c-0.597,6.115-4.11,9.327-10.022,9.327c-7.321,0-11.129-6.423-11.129-12.636
			c0-6.868,3.808-13.733,11.48-13.733c8.619,0,9.923,7.462,9.923,9.973H310.984z"/>
        <path clip-path="url(#SVGID_2_)" fill="#C3E0D7" d="M314.442,144.52c1.796,0,3.267,1.47,3.267,3.274
			c0,1.796-1.471,3.273-3.267,3.273c-1.809,0-3.273-1.477-3.273-3.273C311.169,145.99,312.633,144.52,314.442,144.52z"/>
        <path clip-path="url(#SVGID_2_)" fill="#58B49E" d="M328.285,124.599h8.127v11.984h0.098c1.157-1.206,3.255-2.055,4.91-2.055
			c5.617,0,8.625,5.611,8.625,12.884c0,5.765-2.406,13.178-9.222,13.178c-3.156,0-5.217-1.501-6.817-3.907l-1.507,3.611h-4.214
			V124.599z M336.412,152.224c-0.154,2.104,1.101,3.261,2.652,3.261c2.258,0,2.559-2.258,2.559-6.921v-1.907
			c0-5.009,0-7.618-2.51-7.618c-0.997,0-1.753,0.603-2.251,1.003l-0.449,0.449V152.224z"/>
        <path clip-path="url(#SVGID_2_)" fill="#74BDAB" d="M345.388,124.599h8.121v11.984h0.098c1.157-1.206,3.261-2.055,4.916-2.055
			c5.617,0,8.619,5.611,8.619,12.884c0,5.765-2.405,13.178-9.222,13.178c-3.156,0-5.211-1.501-6.817-3.907l-1.507,3.611h-4.208
			V124.599z M353.509,152.224c-0.148,2.104,1.107,3.261,2.658,3.261c2.251,0,2.559-2.258,2.559-6.921v-1.907
			c0-5.009,0-7.618-2.51-7.618c-1.002,0-1.753,0.603-2.251,1.003l-0.455,0.449V152.224z"/>
        <path clip-path="url(#SVGID_2_)" fill="#8FC8B9" d="M362.718,140.841h-3.31v-5.715h3.31v-2.806c0-6.164,3.058-8.422,8.422-8.422
			c1.6,0,2.806,0.153,4.11,0.301v6.214c-0.449-0.099-1.052-0.197-1.507-0.197c-2.055,0-2.904,0.652-2.904,2.153v2.756h4.411v5.715
			h-4.411v19.455h-8.121V140.841z"/>
        <path clip-path="url(#SVGID_2_)" fill="#A9D4C8" d="M383.624,144.501c0-1.003-0.049-2.203-0.4-3.156
			c-0.4-1.003-1.052-1.704-2.356-1.704c-2.707,0-3.008,3.304-3.008,8.319c0,5.666,0.904,7.524,3.008,7.524
			c2.855,0,3.107-2.91,3.107-4.817l6.318,0.904c-0.603,6.115-4.116,9.327-10.028,9.327c-7.321,0-11.129-6.423-11.129-12.636
			c0-6.868,3.808-13.733,11.48-13.733c8.625,0,9.93,7.462,9.93,9.973H383.624z"/>
        <path clip-path="url(#SVGID_2_)" fill="#C3E0D7" d="M387.081,144.52c1.803,0,3.273,1.47,3.273,3.274
			c0,1.796-1.47,3.273-3.273,3.273c-1.809,0-3.273-1.477-3.273-3.273C383.808,145.99,385.272,144.52,387.081,144.52z"/>
        <path clip-path="url(#SVGID_2_)" fill="#58B49E" d="M183.451,83.465h8.121V95.45h0.099c1.157-1.206,3.261-2.055,4.916-2.055
			c5.617,0,8.625,5.611,8.625,12.883c0,5.765-2.406,13.184-9.229,13.184c-3.156,0-5.214-1.501-6.816-3.913l-1.504,3.611h-4.211
			V83.465z M191.572,111.089c-0.151,2.107,1.104,3.261,2.658,3.261c2.255,0,2.557-2.258,2.557-6.921v-1.904
			c0-5.011,0-7.619-2.507-7.619c-1,0-1.753,0.603-2.255,1.003l-0.452,0.452V111.089z"/>
        <path clip-path="url(#SVGID_2_)" fill="#74BDAB" d="M200.554,83.465h8.121V95.45h0.099c1.15-1.206,3.259-2.055,4.914-2.055
			c5.611,0,8.619,5.611,8.619,12.883c0,5.765-2.405,13.184-9.222,13.184c-3.161,0-5.215-1.501-6.821-3.913l-1.501,3.611h-4.208
			V83.465z M208.675,111.089c-0.153,2.107,1.102,3.261,2.656,3.261c2.252,0,2.553-2.258,2.553-6.921v-1.904
			c0-5.011,0-7.619-2.504-7.619c-1.001,0-1.751,0.603-2.256,1.003l-0.449,0.452V111.089z"/>
        <path clip-path="url(#SVGID_2_)" fill="#8FC8B9" d="M217.877,99.708h-3.304v-5.712h3.304v-2.809c0-6.165,3.058-8.422,8.423-8.422
			c1.605,0,2.812,0.154,4.115,0.301v6.217c-0.455-0.102-1.058-0.2-1.507-0.2c-2.055,0-2.91,0.652-2.91,2.153v2.759h4.417v5.712
			h-4.417v19.453h-8.121V99.708z"/>
        <path clip-path="url(#SVGID_2_)" fill="#A9D4C8" d="M238.789,103.368c0-1-0.055-2.202-0.4-3.156
			c-0.406-1.003-1.052-1.705-2.356-1.705c-2.713,0-3.008,3.307-3.008,8.318c0,5.667,0.898,7.524,3.008,7.524
			c2.854,0,3.107-2.91,3.107-4.817l6.312,0.904c-0.597,6.116-4.109,9.327-10.021,9.327c-7.321,0-11.13-6.419-11.13-12.633
			c0-6.869,3.809-13.735,11.48-13.735c8.625,0,9.923,7.466,9.923,9.973H238.789z"/>
        <path clip-path="url(#SVGID_2_)" fill="#C3E0D7" d="M242.246,103.386c1.796,0,3.267,1.47,3.267,3.273
			c0,1.799-1.47,3.273-3.267,3.273c-1.809,0-3.273-1.474-3.273-3.273C238.973,104.856,240.438,103.386,242.246,103.386z"/>
        <path clip-path="url(#SVGID_2_)" fill="#58B49E" d="M111.258,83.465h8.121V95.45h0.099c1.156-1.206,3.261-2.055,4.916-2.055
			c5.614,0,8.622,5.611,8.622,12.883c0,5.765-2.405,13.184-9.225,13.184c-3.156,0-5.214-1.501-6.816-3.913l-1.504,3.611h-4.211
			V83.465z M119.379,111.089c-0.151,2.107,1.104,3.261,2.658,3.261c2.255,0,2.556-2.258,2.556-6.921v-1.904
			c0-5.011,0-7.619-2.507-7.619c-1,0-1.753,0.603-2.255,1.003l-0.452,0.452V111.089z"/>
        <path clip-path="url(#SVGID_2_)" fill="#74BDAB" d="M128.358,83.465h8.124V95.45h0.099c1.15-1.206,3.257-2.055,4.913-2.055
			c5.614,0,8.619,5.611,8.619,12.883c0,5.765-2.406,13.184-9.222,13.184c-3.159,0-5.214-1.501-6.82-3.913l-1.504,3.611h-4.208
			V83.465z M136.482,111.089c-0.154,2.107,1.101,3.261,2.655,3.261c2.255,0,2.556-2.258,2.556-6.921v-1.904
			c0-5.011,0-7.619-2.507-7.619c-1.003,0-1.753,0.603-2.255,1.003l-0.449,0.452V111.089z"/>
        <path clip-path="url(#SVGID_2_)" fill="#8FC8B9" d="M145.686,99.708h-3.307v-5.712h3.307v-2.809c0-6.165,3.058-8.422,8.422-8.422
			c1.603,0,2.809,0.154,4.113,0.301v6.217c-0.452-0.102-1.055-0.2-1.504-0.2c-2.058,0-2.91,0.652-2.91,2.153v2.759h4.414v5.712
			h-4.414v19.453h-8.121V99.708z"/>
        <path clip-path="url(#SVGID_2_)" fill="#A9D4C8" d="M166.597,103.368c0-1-0.056-2.202-0.403-3.156
			c-0.403-1.003-1.052-1.705-2.356-1.705c-2.71,0-3.009,3.307-3.009,8.318c0,5.667,0.901,7.524,3.009,7.524
			c2.857,0,3.106-2.91,3.106-4.817l6.315,0.904c-0.6,6.116-4.109,9.327-10.025,9.327c-7.318,0-11.126-6.419-11.126-12.633
			c0-6.869,3.809-13.735,11.48-13.735c8.622,0,9.923,7.466,9.923,9.973H166.597z"/>
        <path clip-path="url(#SVGID_2_)" fill="#C3E0D7" d="M170.052,103.386c1.799,0,3.27,1.47,3.27,3.273c0,1.799-1.47,3.273-3.27,3.273
			c-1.806,0-3.27-1.474-3.27-3.273C166.782,104.856,168.246,103.386,170.052,103.386z"/>
        <path clip-path="url(#SVGID_2_)" fill="#58B49E" d="M39.065,83.465h8.121V95.45h0.098c1.157-1.206,3.261-2.055,4.916-2.055
			c5.614,0,8.622,5.611,8.622,12.883c0,5.765-2.405,13.184-9.225,13.184c-3.156,0-5.211-1.501-6.817-3.913l-1.501,3.611h-4.214
			V83.465z M47.186,111.089c-0.151,2.107,1.104,3.261,2.658,3.261c2.251,0,2.556-2.258,2.556-6.921v-1.904
			c0-5.011,0-7.619-2.507-7.619c-1.002,0-1.753,0.603-2.254,1.003l-0.452,0.452V111.089z"/>
        <path clip-path="url(#SVGID_2_)" fill="#74BDAB" d="M56.165,83.465h8.124V95.45h0.099c1.15-1.206,3.257-2.055,4.912-2.055
			c5.614,0,8.619,5.611,8.619,12.883c0,5.765-2.405,13.184-9.222,13.184c-3.159,0-5.214-1.501-6.82-3.913l-1.501,3.611h-4.211
			V83.465z M64.289,111.089c-0.154,2.107,1.101,3.261,2.655,3.261c2.254,0,2.556-2.258,2.556-6.921v-1.904
			c0-5.011,0-7.619-2.507-7.619c-1.006,0-1.757,0.603-2.255,1.003l-0.449,0.452V111.089z"/>
        <path clip-path="url(#SVGID_2_)" fill="#8FC8B9" d="M73.493,99.708h-3.307v-5.712h3.307v-2.809c0-6.165,3.058-8.422,8.422-8.422
			c1.605,0,2.809,0.154,4.11,0.301v6.217c-0.449-0.102-1.052-0.2-1.501-0.2c-2.058,0-2.91,0.652-2.91,2.153v2.759h4.411v5.712
			h-4.411v19.453h-8.121V99.708z"/>
        <path clip-path="url(#SVGID_2_)" fill="#A9D4C8" d="M94.404,103.368c0-1-0.056-2.202-0.403-3.156
			c-0.403-1.003-1.055-1.705-2.356-1.705c-2.71,0-3.008,3.307-3.008,8.318c0,5.667,0.901,7.524,3.008,7.524
			c2.858,0,3.107-2.91,3.107-4.817l6.315,0.904c-0.6,6.116-4.11,9.327-10.025,9.327c-7.318,0-11.126-6.419-11.126-12.633
			c0-6.869,3.808-13.735,11.48-13.735c8.623,0,9.924,7.466,9.924,9.973H94.404z"/>
        <path clip-path="url(#SVGID_2_)" fill="#C3E0D7" d="M97.858,103.386c1.8,0,3.27,1.47,3.27,3.273c0,1.799-1.47,3.273-3.27,3.273
			c-1.806,0-3.27-1.474-3.27-3.273C94.589,104.856,96.053,103.386,97.858,103.386z"/>
        <path clip-path="url(#SVGID_2_)" fill="#58B49E" d="M255.646,83.465h8.121V95.45h0.098c1.157-1.206,3.261-2.055,4.916-2.055
			c5.617,0,8.625,5.611,8.625,12.883c0,5.765-2.412,13.184-9.228,13.184c-3.156,0-5.211-1.501-6.817-3.913l-1.501,3.611h-4.214
			V83.465z M263.767,111.089c-0.148,2.107,1.101,3.261,2.658,3.261c2.251,0,2.559-2.258,2.559-6.921v-1.904
			c0-5.011,0-7.619-2.51-7.619c-1.003,0-1.754,0.603-2.258,1.003l-0.449,0.452V111.089z"/>
        <path clip-path="url(#SVGID_2_)" fill="#74BDAB" d="M272.749,83.465h8.121V95.45h0.098c1.15-1.206,3.255-2.055,4.916-2.055
			c5.61,0,8.619,5.611,8.619,12.883c0,5.765-2.406,13.184-9.222,13.184c-3.163,0-5.217-1.501-6.823-3.913l-1.501,3.611h-4.208
			V83.465z M280.87,111.089c-0.154,2.107,1.101,3.261,2.651,3.261c2.258,0,2.56-2.258,2.56-6.921v-1.904
			c0-5.011,0-7.619-2.504-7.619c-1.009,0-1.76,0.603-2.258,1.003l-0.449,0.452V111.089z"/>
        <path clip-path="url(#SVGID_2_)" fill="#8FC8B9" d="M290.073,99.708h-3.304v-5.712h3.304v-2.809c0-6.165,3.058-8.422,8.422-8.422
			c1.606,0,2.805,0.154,4.11,0.301v6.217c-0.449-0.102-1.052-0.2-1.501-0.2c-2.055,0-2.91,0.652-2.91,2.153v2.759h4.411v5.712
			h-4.411v19.453h-8.121V99.708z"/>
        <path clip-path="url(#SVGID_2_)" fill="#A9D4C8" d="M310.984,103.368c0-1-0.055-2.202-0.4-3.156
			c-0.406-1.003-1.058-1.705-2.362-1.705c-2.707,0-3.002,3.307-3.002,8.318c0,5.667,0.898,7.524,3.002,7.524
			c2.861,0,3.107-2.91,3.107-4.817l6.318,0.904c-0.597,6.116-4.11,9.327-10.022,9.327c-7.321,0-11.129-6.419-11.129-12.633
			c0-6.869,3.808-13.735,11.48-13.735c8.619,0,9.923,7.466,9.923,9.973H310.984z"/>
        <path clip-path="url(#SVGID_2_)" fill="#C3E0D7" d="M314.442,103.386c1.796,0,3.267,1.47,3.267,3.273
			c0,1.799-1.471,3.273-3.267,3.273c-1.809,0-3.273-1.474-3.273-3.273C311.169,104.856,312.633,103.386,314.442,103.386z"/>
        <path clip-path="url(#SVGID_2_)" fill="#58B49E" d="M328.285,83.465h8.127V95.45h0.098c1.157-1.206,3.255-2.055,4.91-2.055
			c5.617,0,8.625,5.611,8.625,12.883c0,5.765-2.406,13.184-9.222,13.184c-3.156,0-5.217-1.501-6.817-3.913l-1.507,3.611h-4.214
			V83.465z M336.412,111.089c-0.154,2.107,1.101,3.261,2.652,3.261c2.258,0,2.559-2.258,2.559-6.921v-1.904
			c0-5.011,0-7.619-2.51-7.619c-0.997,0-1.753,0.603-2.251,1.003l-0.449,0.452V111.089z"/>
        <path clip-path="url(#SVGID_2_)" fill="#74BDAB" d="M345.388,83.465h8.121V95.45h0.098c1.157-1.206,3.261-2.055,4.916-2.055
			c5.617,0,8.619,5.611,8.619,12.883c0,5.765-2.405,13.184-9.222,13.184c-3.156,0-5.211-1.501-6.817-3.913l-1.507,3.611h-4.208
			V83.465z M353.509,111.089c-0.148,2.107,1.107,3.261,2.658,3.261c2.251,0,2.559-2.258,2.559-6.921v-1.904
			c0-5.011,0-7.619-2.51-7.619c-1.002,0-1.753,0.603-2.251,1.003l-0.455,0.452V111.089z"/>
        <path clip-path="url(#SVGID_2_)" fill="#8FC8B9" d="M362.718,99.708h-3.31v-5.712h3.31v-2.809c0-6.165,3.058-8.422,8.422-8.422
			c1.6,0,2.806,0.154,4.11,0.301v6.217c-0.449-0.102-1.052-0.2-1.507-0.2c-2.055,0-2.904,0.652-2.904,2.153v2.759h4.411v5.712
			h-4.411v19.453h-8.121V99.708z"/>
        <path clip-path="url(#SVGID_2_)" fill="#A9D4C8" d="M383.624,103.368c0-1-0.049-2.202-0.4-3.156
			c-0.4-1.003-1.052-1.705-2.356-1.705c-2.707,0-3.008,3.307-3.008,8.318c0,5.667,0.904,7.524,3.008,7.524
			c2.855,0,3.107-2.91,3.107-4.817l6.318,0.904c-0.603,6.116-4.116,9.327-10.028,9.327c-7.321,0-11.129-6.419-11.129-12.633
			c0-6.869,3.808-13.735,11.48-13.735c8.625,0,9.93,7.466,9.93,9.973H383.624z"/>
        <path clip-path="url(#SVGID_2_)" fill="#C3E0D7" d="M387.081,103.386c1.803,0,3.273,1.47,3.273,3.273
			c0,1.799-1.47,3.273-3.273,3.273c-1.809,0-3.273-1.474-3.273-3.273C383.808,104.856,385.272,103.386,387.081,103.386z"/>
        <path clip-path="url(#SVGID_2_)" fill="#58B49E" d="M183.451,42.332h8.121v11.984h0.099c1.157-1.206,3.261-2.055,4.916-2.055
			c5.617,0,8.625,5.614,8.625,12.883c0,5.765-2.406,13.185-9.229,13.185c-3.156,0-5.214-1.501-6.816-3.913l-1.504,3.611h-4.211
			V42.332z M191.572,69.955c-0.151,2.107,1.104,3.261,2.658,3.261c2.255,0,2.557-2.258,2.557-6.921v-1.904
			c0-5.011,0-7.62-2.507-7.62c-1,0-1.753,0.603-2.255,1.003l-0.452,0.455V69.955z"/>
        <path clip-path="url(#SVGID_2_)" fill="#74BDAB" d="M200.554,42.332h8.121v11.984h0.099c1.15-1.206,3.259-2.055,4.914-2.055
			c5.611,0,8.619,5.614,8.619,12.883c0,5.765-2.405,13.185-9.222,13.185c-3.161,0-5.215-1.501-6.821-3.913l-1.501,3.611h-4.208
			V42.332z M208.675,69.955c-0.153,2.107,1.102,3.261,2.656,3.261c2.252,0,2.553-2.258,2.553-6.921v-1.904
			c0-5.011,0-7.62-2.504-7.62c-1.001,0-1.751,0.603-2.256,1.003l-0.449,0.455V69.955z"/>
        <path clip-path="url(#SVGID_2_)" fill="#8FC8B9" d="M217.877,58.574h-3.304v-5.709h3.304v-2.812c0-6.165,3.058-8.419,8.423-8.419
			c1.605,0,2.812,0.151,4.115,0.299v6.217c-0.455-0.102-1.058-0.2-1.507-0.2c-2.055,0-2.91,0.652-2.91,2.153v2.762h4.417v5.709
			h-4.417v19.453h-8.121V58.574z"/>
        <path clip-path="url(#SVGID_2_)" fill="#A9D4C8" d="M238.789,62.234c0-1-0.055-2.203-0.4-3.156
			c-0.406-1.003-1.052-1.704-2.356-1.704c-2.713,0-3.008,3.31-3.008,8.321c0,5.663,0.898,7.521,3.008,7.521
			c2.854,0,3.107-2.907,3.107-4.817l6.312,0.904c-0.597,6.115-4.109,9.327-10.021,9.327c-7.321,0-11.13-6.417-11.13-12.63
			c0-6.872,3.809-13.738,11.48-13.738c8.625,0,9.923,7.466,9.923,9.973H238.789z"/>
        <path clip-path="url(#SVGID_2_)" fill="#C3E0D7" d="M242.246,62.252c1.796,0,3.267,1.471,3.267,3.273
			c0,1.799-1.47,3.276-3.267,3.276c-1.809,0-3.273-1.477-3.273-3.276C238.973,63.723,240.438,62.252,242.246,62.252z"/>
        <path clip-path="url(#SVGID_2_)" fill="#58B49E" d="M111.258,42.332h8.121v11.984h0.099c1.156-1.206,3.261-2.055,4.916-2.055
			c5.614,0,8.622,5.614,8.622,12.883c0,5.765-2.405,13.185-9.225,13.185c-3.156,0-5.214-1.501-6.816-3.913l-1.504,3.611h-4.211
			V42.332z M119.379,69.955c-0.151,2.107,1.104,3.261,2.658,3.261c2.255,0,2.556-2.258,2.556-6.921v-1.904
			c0-5.011,0-7.62-2.507-7.62c-1,0-1.753,0.603-2.255,1.003l-0.452,0.455V69.955z"/>
        <path clip-path="url(#SVGID_2_)" fill="#74BDAB" d="M128.358,42.332h8.124v11.984h0.099c1.15-1.206,3.257-2.055,4.913-2.055
			c5.614,0,8.619,5.614,8.619,12.883c0,5.765-2.406,13.185-9.222,13.185c-3.159,0-5.214-1.501-6.82-3.913l-1.504,3.611h-4.208
			V42.332z M136.482,69.955c-0.154,2.107,1.101,3.261,2.655,3.261c2.255,0,2.556-2.258,2.556-6.921v-1.904
			c0-5.011,0-7.62-2.507-7.62c-1.003,0-1.753,0.603-2.255,1.003l-0.449,0.455V69.955z"/>
        <path clip-path="url(#SVGID_2_)" fill="#8FC8B9" d="M145.686,58.574h-3.307v-5.709h3.307v-2.812c0-6.165,3.058-8.419,8.422-8.419
			c1.603,0,2.809,0.151,4.113,0.299v6.217c-0.452-0.102-1.055-0.2-1.504-0.2c-2.058,0-2.91,0.652-2.91,2.153v2.762h4.414v5.709
			h-4.414v19.453h-8.121V58.574z"/>
        <path clip-path="url(#SVGID_2_)" fill="#A9D4C8" d="M166.597,62.234c0-1-0.056-2.203-0.403-3.156
			c-0.403-1.003-1.052-1.704-2.356-1.704c-2.71,0-3.009,3.31-3.009,8.321c0,5.663,0.901,7.521,3.009,7.521
			c2.857,0,3.106-2.907,3.106-4.817l6.315,0.904c-0.6,6.115-4.109,9.327-10.025,9.327c-7.318,0-11.126-6.417-11.126-12.63
			c0-6.872,3.809-13.738,11.48-13.738c8.622,0,9.923,7.466,9.923,9.973H166.597z"/>
        <path clip-path="url(#SVGID_2_)" fill="#C3E0D7" d="M170.052,62.252c1.799,0,3.27,1.471,3.27,3.273c0,1.799-1.47,3.276-3.27,3.276
			c-1.806,0-3.27-1.477-3.27-3.276C166.782,63.723,168.246,62.252,170.052,62.252z"/>
        <path clip-path="url(#SVGID_2_)" fill="#58B49E" d="M255.646,42.332h8.121v11.984h0.098c1.157-1.206,3.261-2.055,4.916-2.055
			c5.617,0,8.625,5.614,8.625,12.883c0,5.765-2.412,13.185-9.228,13.185c-3.156,0-5.211-1.501-6.817-3.913l-1.501,3.611h-4.214
			V42.332z M263.767,69.955c-0.148,2.107,1.101,3.261,2.658,3.261c2.251,0,2.559-2.258,2.559-6.921v-1.904c0-5.011,0-7.62-2.51-7.62
			c-1.003,0-1.754,0.603-2.258,1.003l-0.449,0.455V69.955z"/>
        <path clip-path="url(#SVGID_2_)" fill="#74BDAB" d="M272.749,42.332h8.121v11.984h0.098c1.15-1.206,3.255-2.055,4.916-2.055
			c5.61,0,8.619,5.614,8.619,12.883c0,5.765-2.406,13.185-9.222,13.185c-3.163,0-5.217-1.501-6.823-3.913l-1.501,3.611h-4.208
			V42.332z M280.87,69.955c-0.154,2.107,1.101,3.261,2.651,3.261c2.258,0,2.56-2.258,2.56-6.921v-1.904c0-5.011,0-7.62-2.504-7.62
			c-1.009,0-1.76,0.603-2.258,1.003l-0.449,0.455V69.955z"/>
        <path clip-path="url(#SVGID_2_)" fill="#8FC8B9" d="M290.073,58.574h-3.304v-5.709h3.304v-2.812c0-6.165,3.058-8.419,8.422-8.419
			c1.606,0,2.805,0.151,4.11,0.299v6.217c-0.449-0.102-1.052-0.2-1.501-0.2c-2.055,0-2.91,0.652-2.91,2.153v2.762h4.411v5.709
			h-4.411v19.453h-8.121V58.574z"/>
        <path clip-path="url(#SVGID_2_)" fill="#A9D4C8" d="M310.984,62.234c0-1-0.055-2.203-0.4-3.156
			c-0.406-1.003-1.058-1.704-2.362-1.704c-2.707,0-3.002,3.31-3.002,8.321c0,5.663,0.898,7.521,3.002,7.521
			c2.861,0,3.107-2.907,3.107-4.817l6.318,0.904c-0.597,6.115-4.11,9.327-10.022,9.327c-7.321,0-11.129-6.417-11.129-12.63
			c0-6.872,3.808-13.738,11.48-13.738c8.619,0,9.923,7.466,9.923,9.973H310.984z"/>
        <path clip-path="url(#SVGID_2_)" fill="#C3E0D7" d="M314.442,62.252c1.796,0,3.267,1.471,3.267,3.273
			c0,1.799-1.471,3.276-3.267,3.276c-1.809,0-3.273-1.477-3.273-3.276C311.169,63.723,312.633,62.252,314.442,62.252z"/>
	</g>
    <path fill="#231F20" d="M204.711,300.623c-23.821,0-43.296-16.094-43.296-41.207v-74.362h28.168v73.716
		c0,10.625,5.792,16.74,15.128,16.74s15.455-6.115,15.455-16.74v-73.716h28.167v74.362
		C248.333,284.529,228.536,300.623,204.711,300.623z"/>
    <path fill="#231F20" d="M272.807,300.245c-8.816,0-15.51-2.975-21.035-8.496c-7.967-7.968-7.647-18.592-7.647-29.959
		c0-11.365-0.32-21.99,7.647-29.958c5.525-5.524,12.219-8.496,21.035-8.496c14.341,0,25.919,7.964,28.682,24.646h-18.906
		c-1.169-4.251-3.507-8.074-9.671-8.074c-3.396,0-5.949,1.381-7.327,3.184c-1.704,2.233-2.867,4.891-2.867,18.699
		s1.163,16.467,2.867,18.7c1.378,1.803,3.931,3.181,7.327,3.181c6.165,0,8.502-3.82,9.671-8.072h18.906
		C298.727,292.281,287.148,300.245,272.807,300.245z"/>
    <path fill="#FFFFFF" d="M195.781,291.696c-23.821,0-43.296-16.101-43.296-41.207v-74.362h28.168v73.716
		c0,10.625,5.792,16.74,15.128,16.74c9.336,0,15.455-6.115,15.455-16.74v-73.716h28.171v74.362
		C239.407,275.595,219.606,291.696,195.781,291.696z"/>
    <path fill="#FFFFFF" d="M266.378,291.696c-8.822,0-15.51-2.975-21.041-8.499c-7.961-7.968-7.641-18.592-7.641-29.958
		c0-11.369-0.32-21.991,7.641-29.958c5.531-5.525,12.218-8.497,21.041-8.497c14.341,0,25.919,7.968,28.682,24.64h-18.906
		c-1.175-4.245-3.513-8.071-9.671-8.071c-3.396,0-5.949,1.381-7.327,3.187c-1.704,2.23-2.873,4.885-2.873,18.7
		c0,13.809,1.169,16.466,2.873,18.693c1.378,1.809,3.932,3.187,7.327,3.187c6.159,0,8.496-3.823,9.671-8.071h18.906
		C292.297,283.729,280.719,291.696,266.378,291.696z"/>
</g>
</svg>
