<?xml version="1.0" encoding="UTF-8" standalone="no"?>
<svg xmlns="http://www.w3.org/2000/svg" width="48" height="48">
  <g transform="translate(1.5339335 -13.777004) scale(1.1649)">
    <path d="M19.285714 53.031696c11.38 0 20.6025-9.22375 20.6025-20.6025 0-11.37875-9.2225-20.60375-20.6025-20.60375-11.38 0-20.6025 9.225-20.6025 20.60375 0 11.37875 9.2225 20.6025 20.6025 20.6025"/>
    <path fill="red" d="M19.361339 20.055071c6.81375 0 12.35375 5.5425 12.35375 12.35625 0 6.81375-5.54 12.35625-12.35375 12.35625-6.81625 0-12.35625-5.5425-12.35625-12.35625 0-6.81375 5.54-12.35625 12.35625-12.35625m0-4.11875c-9.10125 0-16.4775 7.375-16.4775 16.475 0 9.1 7.37625 16.475 16.4775 16.475 9.09875 0 16.4725-7.375 16.4725-16.475 0-9.1-7.37375-16.475-16.4725-16.475"/>
    <path fill="red" d="M13.426339 28.922196h-.86c-.84625 0-1.26875-.64125-1.26875-1.2675 0-.625.4225-1.2675 1.26875-1.2675h2.23c.625 0 1.36875.23625 1.36875 1.36875v9.31625c0 .965-.57375 1.45375-1.36875 1.45375-.79375 0-1.37-.48875-1.37-1.45375v-8.15zm12.514625.575c0 1.18375-.71 2.0625-1.11625 2.385 1.11625.67625 1.62125 1.79125 1.62125 2.89 0 2.1975-1.74 3.92375-4.41125 3.92375-2.67125 0-4.41125-1.72625-4.41125-3.92375 0-1.09875.505-2.21375 1.62125-2.89-.40625-.3225-1.11625-1.20125-1.11625-2.385 0-2.23125 1.80875-3.38125 3.90625-3.38125s3.90625 1.15 3.90625 3.38125m-3.90625 6.56c.87875 0 1.5725-.69125 1.5725-1.5725 0-.87875-.69375-1.57125-1.5725-1.57125s-1.5725.6925-1.5725 1.57125c0 .88125.69375 1.5725 1.5725 1.5725m0-5.17375c.625 0 1.1675-.54 1.1675-1.16625s-.5425-1.16625-1.1675-1.16625-1.1675.54-1.1675 1.16625.5425 1.16625 1.1675 1.16625"/>
  </g>
</svg>