<?xml version="1.0" encoding="UTF-8" standalone="no"?>
<svg xmlns="http://www.w3.org/2000/svg" width="48" height="48">
  <path d="M24.000728 48c13.25478545 0 23.99927208-10.74448663 23.99927208-23.99927208S37.25551345-2.6e-7 24.000728-2.6e-7C10.74448646-2.6e-7-1.7e-7 10.74594247-1.7e-7 24.00072792S10.74448646 48 24.000728 48"/>
  <path fill="#fc0" d="M24.093044 9.586458c7.9371455 0 14.39344767 6.45630217 14.39344767 14.39344767 0 7.9371455-6.45630217 14.39344768-14.39344767 14.39344768-7.93568941 0-14.39490376-6.45630218-14.39490376-14.39344768S16.15735459 9.586458 24.093044 9.586458m0-4.7978159c-10.60033374 0-19.19271965 8.59092983-19.19271965 19.19126357 0 10.60033375 8.5923859 19.19126357 19.19271965 19.19126357 10.60033374 0 19.19126356-8.59092982 19.19126356-19.19126357 0-10.60033374-8.59092982-19.19126356-19.19126356-19.19126356"/>
  <path fill="#fc0" d="M17.58475975 19.8970295H16.58297c-.4543 0-.80812987-.1383275-1.06294563-.414985-.25918387-.27520125-.39460024-.61010125-.39460024-1.04256 0-.41353.13541637-.76881625.39460024-1.06440125.25481576-.29413125.60864563-.43245875 1.06294563-.43245875h2.61659325c1.04401637 0 1.57548925.5314725 1.57548925 1.61480375v10.8507805c0 .55331412-.13541638.9653875-.4120735 1.26097375-.29558612.29558625-.66834512.43245862-1.16341575.43245862-.471773 0-.86491725-.13687237-1.15904738-.45284387-.29704237-.29413013-.45575612-.70765963-.45575612-1.2405885V19.8970295zM27.063613 24.013687c1.06294555-1.37891704 1.57403307-2.42293343 1.57403307-3.07234948 0-.37421508-.0844532-.68290611-.3145154-.90568785-.3276202-.31888367-1.67159108-.9129683-2.47389656 1.12992568-.1849234.46886092-.27520098.77318368-.45430002 1.0279994-.19802821.2562718-.51836797.4411952-.95373882.48050963h-.1558016c-.35237374 0-.66834523-.11794327-.92461703-.37421507-.29558623-.29558623-.45284393-.65087215-.49215835-1.08333082 0-1.26097376.4717731-2.34430457 1.41677537-3.22960717.9275292-.88675869 2.026877-1.31921736 3.30969212-1.31921736 1.2405885 0 2.2846049.39314424 3.1699075 1.18088883.86782951.78774458 1.30174427 1.8113757 1.30174427 3.0534203 0 .7280449-.13832853 1.39784622-.45430001 2.04726227-.29558623.64941605-1.59733052 2.26567573-2.36323375 3.1116639-.78774458.86491734-1.31921736 1.51578948-1.65411801 1.9686334h3.34755045c.45284392 0 .827059.13687245 1.0833308.4149856.25627181.29413014.37421509.64941605.37421509 1.08333081 0 .4135295-.11794328.74551798-.37421508 1.02363113-.2562718.29558623-.63048688.43391476-1.12264524.43391476h-6.30195665c-1.24058851 0-1.93223117-.37712726-1.93223117-1.38037313 0-.6989231.27811316-1.0833308.73095708-1.57548916 1.88854847-1.98756258 3.1116639-3.30677994 3.66352194-4.01589567"/>
</svg>