<?xml version="1.0" encoding="UTF-8" standalone="no"?>
<svg xmlns="http://www.w3.org/2000/svg" width="48" height="48">
  <path d="M24.000728 48c13.25478545 0 23.99927208-10.74448663 23.99927208-23.99927208S37.25551345-2.6e-7 24.000728-2.6e-7C10.74448646-2.6e-7-1.7e-7 10.74594247-1.7e-7 24.00072792S10.74448646 48 24.000728 48"/>
  <path fill="#fc0" d="M19.133311 16.971455h-2.5976642c-.9857728 0-1.47793115.74843016-1.47793115 1.47647506 0 .72950099.49215835 1.47793114 1.47793115 1.47793114h1.00324587v9.49224941c0 1.12264524.66834522 1.69488853 1.59441833 1.69488853.92607311 0 1.59733051-.5722433 1.59733051-1.69488853V18.56587333c0-1.31921736-.86782952-1.59441833-1.59733051-1.59441833m9.417698 5.08058813c-.5911725 0-.94645875.0597-1.24350125.15871374l-.0364-.039315c1.43424875-2.10841812 2.97187963-2.93547687 2.97187963-3.97803687 0-.53293-.47177313-1.536175-1.53763088-1.536175-.76590375 0-1.27844625.39314375-3.64313625 3.327165-1.37746125 1.71381763-2.77676375 3.9984225-2.77676375 6.53784313 0 2.83646287 1.98901875 4.78616712 5.10213875 4.78616712 3.01410587 0 5.0992265-2.12734713 5.0992265-4.864796 0-2.20451987-1.61189137-4.39156675-3.93581025-4.39156675m-1.16341625 6.18401388c-.9857725 0-1.7939025-.82560288-1.7939025-1.7924465 0-.96393138.80813-1.79099038 1.7939025-1.79099038.9843175 0 1.79244625.827059 1.79244625 1.79099038 0 .96684362-.80812875 1.7924465-1.79244625 1.7924465"/>
  <path fill="#fc0" d="M24.063194 9.594904c7.93568941 0 14.39344767 6.45775826 14.39344767 14.39344767 0 7.9371455-6.45775826 14.39344768-14.39344767 14.39344768-7.9371455 0-14.39490376-6.45630218-14.39490376-14.39344768 0-7.9356894 6.45775826-14.39344767 14.39490376-14.39344767m0-4.7978159c-10.60178983 0-19.19271965 8.59092983-19.19271965 19.19126357 0 10.60033375 8.59092982 19.19126357 19.19271965 19.19126357 10.59887765 0 19.19126356-8.59092982 19.19126356-19.19126357 0-10.60033374-8.5923859-19.19126356-19.19126356-19.19126356"/>
</svg>