<?xml version="1.0" encoding="UTF-8" standalone="no"?>
<!-- Created with Inkscape (http://www.inkscape.org/) -->

<svg
   xmlns:dc="http://purl.org/dc/elements/1.1/"
   xmlns:cc="http://creativecommons.org/ns#"
   xmlns:rdf="http://www.w3.org/1999/02/22-rdf-syntax-ns#"
   xmlns:svg="http://www.w3.org/2000/svg"
   xmlns="http://www.w3.org/2000/svg"
   xmlns:sodipodi="http://sodipodi.sourceforge.net/DTD/sodipodi-0.dtd"
   xmlns:inkscape="http://www.inkscape.org/namespaces/inkscape"
   width="48px"
   height="48px"
   id="svg3300"
   version="1.1"
   inkscape:version="0.48.2 r9819"
   sodipodi:docname="Új dokumentum 3">
  <defs
     id="defs3302" />
  <sodipodi:namedview
     id="base"
     pagecolor="#ffffff"
     bordercolor="#666666"
     borderopacity="1.0"
     inkscape:pageopacity="0.0"
     inkscape:pageshadow="2"
     inkscape:zoom="7"
     inkscape:cx="0.42857143"
     inkscape:cy="24"
     inkscape:current-layer="layer1"
     showgrid="true"
     inkscape:grid-bbox="true"
     inkscape:document-units="px"
     inkscape:window-width="1366"
     inkscape:window-height="706"
     inkscape:window-x="-8"
     inkscape:window-y="-8"
     inkscape:window-maximized="1" />
  <metadata
     id="metadata3305">
    <rdf:RDF>
      <cc:Work
         rdf:about="">
        <dc:format>image/svg+xml</dc:format>
        <dc:type
           rdf:resource="http://purl.org/dc/dcmitype/StillImage" />
        <dc:title></dc:title>
      </cc:Work>
    </rdf:RDF>
  </metadata>
  <g
     id="layer1"
     inkscape:label="Layer 1"
     inkscape:groupmode="layer">
    <g
       id="g24"
       transform="matrix(1.25,0,0,-1.25,26.285089,47.888839)" />
    <g
       id="g4094"
       transform="matrix(1.1648718,0,0,1.1648718,-6.6194879,-7.7843597)">
      <path
         inkscape:connector-curvature="0"
         id="path26"
         style="fill:#000000;fill-opacity:1;fill-rule:nonzero;stroke:none"
         d="m 0,0 c 9.104,0 16.483,7.379 16.483,16.482 0,9.104 -7.379,16.483 -16.483,16.483 -9.103,0 -16.482,-7.379 -16.482,-16.483 C -16.482,7.379 -9.103,0 0,0"
         transform="matrix(1.25,0,0,-1.25,26.285089,47.888839)" />
      <g
         transform="matrix(1.25,0,0,-1.25,26.357089,14.912714)"
         id="g156">
        <path
           inkscape:connector-curvature="0"
           id="path158"
           style="fill:#ffcc00;fill-opacity:1;fill-rule:nonzero;stroke:none"
           d="m 0,0 c 5.451,0 9.885,-4.434 9.885,-9.885 0,-5.451 -4.434,-9.885 -9.885,-9.885 -5.451,0 -9.886,4.434 -9.886,9.885 C -9.886,-4.434 -5.451,0 0,0 m 0,3.295 c -7.28,0 -13.181,-5.899 -13.181,-13.18 0,-7.279 5.901,-13.179 13.181,-13.179 7.279,0 13.18,5.9 13.18,13.179 0,7.281 -5.901,13.18 -13.18,13.18" />
      </g>
      <g
         transform="matrix(1.25,0,0,-1.25,24.230589,23.391714)"
         id="g160">
        <path
           inkscape:connector-curvature="0"
           id="path162"
           style="fill:#ffcc00;fill-opacity:1;fill-rule:nonzero;stroke:none"
           d="m 0,0 c 1.623,2.016 1.975,2.285 2.502,2.285 0.73,0 1.056,-0.688 1.056,-1.055 0,-0.716 -1.056,-1.285 -2.042,-2.732 l 0.027,-0.026 c 0.203,0.067 0.445,0.108 0.852,0.108 1.595,0 2.705,-1.502 2.705,-3.017 0,-1.879 -1.434,-3.34 -3.504,-3.34 -2.137,0 -3.502,1.339 -3.502,3.287 0,1.745 0.96,3.312 1.906,4.49 m 1.596,-5.668 c 0.676,0 1.231,0.568 1.231,1.231 0,0.664 -0.555,1.232 -1.231,1.232 -0.676,0 -1.231,-0.568 -1.231,-1.232 0,-0.663 0.555,-1.231 1.231,-1.231" />
      </g>
    </g>
  </g>
</svg>
