<?xml version="1.0" encoding="UTF-8" standalone="no"?>
<!-- Created with Inkscape (http://www.inkscape.org/) -->

<svg
   xmlns:dc="http://purl.org/dc/elements/1.1/"
   xmlns:cc="http://creativecommons.org/ns#"
   xmlns:rdf="http://www.w3.org/1999/02/22-rdf-syntax-ns#"
   xmlns:svg="http://www.w3.org/2000/svg"
   xmlns="http://www.w3.org/2000/svg"
   xmlns:sodipodi="http://sodipodi.sourceforge.net/DTD/sodipodi-0.dtd"
   xmlns:inkscape="http://www.inkscape.org/namespaces/inkscape"
   width="48px"
   height="48px"
   id="svg3252"
   version="1.1"
   inkscape:version="0.48.2 r9819"
   sodipodi:docname="Új dokumentum 3">
  <defs
     id="defs3254" />
  <sodipodi:namedview
     id="base"
     pagecolor="#ffffff"
     bordercolor="#666666"
     borderopacity="1.0"
     inkscape:pageopacity="0.0"
     inkscape:pageshadow="2"
     inkscape:zoom="7"
     inkscape:cx="0.42857143"
     inkscape:cy="24"
     inkscape:current-layer="layer1"
     showgrid="true"
     inkscape:grid-bbox="true"
     inkscape:document-units="px"
     inkscape:window-width="1366"
     inkscape:window-height="706"
     inkscape:window-x="-8"
     inkscape:window-y="-8"
     inkscape:window-maximized="1" />
  <metadata
     id="metadata3257">
    <rdf:RDF>
      <cc:Work
         rdf:about="">
        <dc:format>image/svg+xml</dc:format>
        <dc:type
           rdf:resource="http://purl.org/dc/dcmitype/StillImage" />
        <dc:title></dc:title>
      </cc:Work>
    </rdf:RDF>
  </metadata>
  <g
     id="layer1"
     inkscape:label="Layer 1"
     inkscape:groupmode="layer">
    <g
       id="g136"
       transform="matrix(1.25,0,0,-1.25,35.324687,23.483018)">
      <g
         id="g4047"
         transform="matrix(1.1648365,0,0,1.1648365,-8.9778616,11.11748)">
        <g
           transform="translate(-0.0703,-26.3823)"
           id="g24">
          <path
             inkscape:connector-curvature="0"
             id="path26"
             style="fill:#000000;fill-opacity:1;fill-rule:nonzero;stroke:none"
             d="m 0,0 c 9.103,0 16.483,7.381 16.483,16.483 0,9.103 -7.38,16.483 -16.483,16.483 -9.103,0 -16.483,-7.38 -16.483,-16.483 C -16.483,7.381 -9.103,0 0,0" />
        </g>
        <path
           inkscape:connector-curvature="0"
           id="path138"
           style="fill:#80ff00;fill-opacity:1;fill-rule:nonzero;stroke:none"
           d="m 0,0 c 5.45,0 9.886,-4.435 9.886,-9.885 0,-5.45 -4.436,-9.886 -9.886,-9.886 -5.451,0 -9.886,4.436 -9.886,9.886 C -9.886,-4.435 -5.451,0 0,0 m 0,3.295 c -7.28,0 -13.181,-5.899 -13.181,-13.18 0,-7.281 5.901,-13.181 13.181,-13.181 7.28,0 13.181,5.9 13.181,13.181 0,7.281 -5.901,13.18 -13.181,13.18" />
      </g>
    </g>
  </g>
</svg>
