<?xml version="1.0" encoding="UTF-8" standalone="no"?>
<!-- Created with Inkscape (http://www.inkscape.org/) -->

<svg
   xmlns:dc="http://purl.org/dc/elements/1.1/"
   xmlns:cc="http://creativecommons.org/ns#"
   xmlns:rdf="http://www.w3.org/1999/02/22-rdf-syntax-ns#"
   xmlns:svg="http://www.w3.org/2000/svg"
   xmlns="http://www.w3.org/2000/svg"
   xmlns:sodipodi="http://sodipodi.sourceforge.net/DTD/sodipodi-0.dtd"
   xmlns:inkscape="http://www.inkscape.org/namespaces/inkscape"
   width="48px"
   height="48px"
   id="svg3308"
   version="1.1"
   inkscape:version="0.48.2 r9819"
   sodipodi:docname="Új dokumentum 3">
  <defs
     id="defs3310" />
  <sodipodi:namedview
     id="base"
     pagecolor="#ffffff"
     bordercolor="#666666"
     borderopacity="1.0"
     inkscape:pageopacity="0.0"
     inkscape:pageshadow="2"
     inkscape:zoom="4.9497475"
     inkscape:cx="-5.4437383"
     inkscape:cy="20.192388"
     inkscape:current-layer="layer1"
     showgrid="true"
     inkscape:grid-bbox="true"
     inkscape:document-units="px"
     inkscape:window-width="1366"
     inkscape:window-height="706"
     inkscape:window-x="-8"
     inkscape:window-y="-8"
     inkscape:window-maximized="1" />
  <metadata
     id="metadata3313">
    <rdf:RDF>
      <cc:Work
         rdf:about="">
        <dc:format>image/svg+xml</dc:format>
        <dc:type
           rdf:resource="http://purl.org/dc/dcmitype/StillImage" />
        <dc:title></dc:title>
      </cc:Work>
    </rdf:RDF>
  </metadata>
  <g
     id="layer1"
     inkscape:label="Layer 1"
     inkscape:groupmode="layer">
    <g
       id="g28"
       transform="matrix(1.25,0,0,-1.25,37.626304,20.502875)" />
    <g
       id="g4102"
       transform="matrix(1.1646952,0,0,1.1646952,-19.759263,-19.090083)">
      <g
         transform="matrix(1.25,0,0,-1.25,37.565179,57.603125)"
         id="g24">
        <path
           inkscape:connector-curvature="0"
           id="path26"
           style="fill:#000000;fill-opacity:1;fill-rule:nonzero;stroke:none"
           d="m 0,0 c 9.109,0 16.49,7.379 16.49,16.482 0,9.103 -7.381,16.483 -16.49,16.483 -9.1,0 -16.48,-7.38 -16.48,-16.483 C -16.48,7.379 -9.1,0 0,0" />
      </g>
      <path
         inkscape:connector-curvature="0"
         id="path30"
         style="fill:#ff0000;fill-opacity:1;fill-rule:nonzero;stroke:none"
         d="m 0,0 c -7.279,0 -13.18,-5.9 -13.18,-13.18 0,-7.279 5.901,-13.18 13.18,-13.18 7.281,0 13.18,5.901 13.18,13.18 C 13.18,-5.9 7.281,0 0,0 m 0,-23.065 c -5.449,0 -9.889,4.434 -9.889,9.885 0,5.451 4.44,9.885 9.889,9.885 5.451,0 9.881,-4.434 9.881,-9.885 0,-5.451 -4.43,-9.885 -9.881,-9.885"
         transform="matrix(1.25,0,0,-1.25,37.626304,20.502875)" />
      <g
         transform="matrix(1.25,0,0,-1.25,43.490554,31.137625)"
         id="g32">
        <path
           inkscape:connector-curvature="0"
           id="path34"
           style="fill:#ff0000;fill-opacity:1;fill-rule:nonzero;stroke:none"
           d="m 0,0 -0.012,0.011 c -0.509,0.516 -1.199,0.57 -1.828,-0.055 l -2.851,-2.852 -2.911,2.907 c -0.728,0.735 -1.369,0.406 -1.769,0 L -9.391,0 C -9.9,-0.516 -9.961,-1.207 -9.33,-1.831 l 2.85,-2.853 -2.911,-2.906 c -0.73,-0.737 -0.4,-1.371 0,-1.778 l 0.02,-0.011 c 0.51,-0.515 1.201,-0.571 1.83,0.054 l 2.85,2.853 2.91,-2.907 c 0.73,-0.734 1.371,-0.405 1.769,0 L 0,-9.368 c 0.52,0.516 0.568,1.207 -0.051,1.832 L -2.9,-4.684 0,-1.777 C 0.738,-1.042 0.41,-0.406 0,0" />
      </g>
    </g>
  </g>
</svg>
