<?xml version="1.0" encoding="UTF-8" standalone="no"?>
<!DOCTYPE svg PUBLIC "-//W3C//DTD SVG 1.1//EN" "http://www.w3.org/Graphics/SVG/1.1/DTD/svg11.dtd">
<svg xmlns="http://www.w3.org/2000/svg" version="1.1" viewBox="0.00 0.00 293.00 293.00">
<g stroke-width="2.00" fill="none" stroke-linecap="butt">
<path stroke="#f580c5" vector-effect="non-scaling-stroke" d="
  M 284.97 146.49
  A 138.47 138.47 0.0 0 0 146.50 8.02
  A 138.47 138.47 0.0 0 0 8.03 146.49
  A 138.47 138.47 0.0 0 0 146.50 284.96
  A 138.47 138.47 0.0 0 0 284.97 146.49"
/>
<path stroke="#760045" vector-effect="non-scaling-stroke" d="
  M 74.76 96.26
  A 0.42 0.42 0.0 0 0 74.34 95.84
  L 49.66 95.84
  A 0.42 0.42 0.0 0 0 49.24 96.26
  L 49.24 198.90
  A 0.42 0.42 0.0 0 0 49.66 199.32
  L 74.34 199.32
  A 0.42 0.42 0.0 0 0 74.76 198.90
  L 74.76 96.26"
/>
<path stroke="#760045" vector-effect="non-scaling-stroke" d="
  M 116.75 118.48
  L 148.02 118.48
  Q 148.53 118.48 148.53 117.98
  L 148.52 96.43
  Q 148.52 95.83 147.92 95.83
  L 94.23 95.83
  A 0.45 0.45 0.0 0 0 93.78 96.28
  L 93.77 155.54
  Q 93.77 156.28 94.49 156.11
  C 103.42 154.02 122.83 152.47 125.16 165.10
  Q 125.88 169.02 124.42 172.24
  C 118.80 184.60 100.13 180.81 90.40 176.00
  Q 89.70 175.66 89.70 176.43
  L 89.70 195.77
  Q 89.70 196.35 90.23 196.55
  C 111.55 204.57 144.51 202.00 150.17 174.34
  C 153.36 158.78 146.55 144.05 131.12 138.51
  Q 123.93 135.93 116.34 135.84
  A 0.35 0.35 0.0 0 1 115.99 135.49
  L 115.98 119.25
  Q 115.98 118.48 116.75 118.48"
/>
<path stroke="#860f54" vector-effect="non-scaling-stroke" d="
  M 190.57 179.26
  A 0.38 0.38 0.0 0 1 190.93 179.00
  L 228.59 178.99
  A 0.38 0.38 0.0 0 1 228.94 179.24
  L 236.16 198.63
  A 0.38 0.38 0.0 0 0 236.51 198.88
  L 262.87 198.89
  A 0.38 0.38 0.0 0 0 263.22 198.37
  L 222.48 96.20
  A 0.38 0.38 0.0 0 0 222.12 95.96
  L 194.73 95.97
  A 0.38 0.38 0.0 0 0 194.37 96.22
  L 157.39 198.37
  A 0.38 0.38 0.0 0 0 157.75 198.88
  L 183.64 198.88
  A 0.38 0.38 0.0 0 0 184.00 198.62
  L 190.57 179.26"
/>
<path stroke="#808080" vector-effect="non-scaling-stroke" d="
  M 72.13 98.79
  A 0.29 0.29 0.0 0 0 71.84 98.50
  L 52.22 98.50
  A 0.29 0.29 0.0 0 0 51.93 98.79
  L 51.93 196.43
  A 0.29 0.29 0.0 0 0 52.22 196.72
  L 71.84 196.72
  A 0.29 0.29 0.0 0 0 72.13 196.43
  L 72.13 98.79"
/>
<path stroke="#808080" vector-effect="non-scaling-stroke" d="
  M 113.32 137.53
  Q 113.35 137.37 113.26 116.47
  A 0.69 0.69 0.0 0 1 113.95 115.78
  L 145.32 115.78
  Q 145.93 115.78 145.93 115.18
  L 145.92 99.22
  Q 145.92 98.51 145.22 98.51
  L 96.98 98.51
  Q 96.48 98.51 96.48 99.01
  L 96.48 152.48
  Q 96.48 153.21 97.20 153.06
  C 107.76 150.85 126.75 151.28 127.97 166.16
  C 128.72 175.29 122.06 181.46 113.29 182.85
  C 106.60 183.90 99.46 182.36 92.96 179.60
  Q 92.31 179.32 92.31 180.04
  L 92.31 193.76
  Q 92.31 194.33 92.85 194.52
  C 115.91 202.73 148.90 196.83 148.21 166.12
  C 147.78 146.67 131.73 138.07 113.93 138.25
  Q 113.20 138.26 113.32 137.53"
/>
<path stroke="#908f8f" vector-effect="non-scaling-stroke" d="
  M 188.57 176.50
  A 0.35 0.35 0.0 0 1 188.90 176.26
  L 230.57 176.26
  A 0.35 0.35 0.0 0 1 230.89 176.49
  L 238.11 195.81
  A 0.35 0.35 0.0 0 0 238.43 196.04
  L 258.78 196.05
  A 0.35 0.35 0.0 0 0 259.11 195.57
  L 220.57 98.97
  A 0.35 0.35 0.0 0 0 220.24 98.75
  L 196.68 98.75
  A 0.35 0.35 0.0 0 0 196.35 98.98
  L 161.39 195.58
  A 0.35 0.35 0.0 0 0 161.72 196.05
  L 181.68 196.05
  A 0.35 0.35 0.0 0 0 182.01 195.81
  L 188.57 176.50"
/>
<path stroke="#908f8f" vector-effect="non-scaling-stroke" d="
  M 193.81 161.09
  A 0.32 0.32 0.0 0 0 194.12 161.51
  L 224.81 161.51
  A 0.32 0.32 0.0 0 0 225.11 161.08
  L 209.00 117.90
  A 0.32 0.32 0.0 0 0 208.40 117.91
  L 193.81 161.09"
/>
<path stroke="#860f54" vector-effect="non-scaling-stroke" d="
  M 197.71 158.34
  A 0.31 0.31 0.0 0 0 198.00 158.75
  L 220.81 158.80
  A 0.31 0.31 0.0 0 0 221.10 158.38
  L 209.11 126.21
  A 0.31 0.31 0.0 0 0 208.52 126.22
  L 197.71 158.34"
/>
</g>
<path fill="#ffffff" d="
  M 141.90 0.00
  L 151.48 0.00
  Q 192.07 1.74 224.76 22.68
  Q 253.95 41.38 271.57 70.25
  Q 291.35 102.67 293.00 141.65
  L 293.00 151.47
  Q 291.08 194.57 267.82 228.53
  Q 247.32 258.46 216.12 275.37
  Q 186.16 291.61 151.11 293.00
  L 141.53 293.00
  Q 98.44 291.08 64.58 267.91
  Q 34.54 247.35 17.62 216.13
  Q 1.54 186.45 0.00 151.60
  L 0.00 141.25
  Q 3.67 75.57 52.33 34.33
  Q 90.19 2.26 141.90 0.00
  Z
  M 284.97 146.49
  A 138.47 138.47 0.0 0 0 146.50 8.02
  A 138.47 138.47 0.0 0 0 8.03 146.49
  A 138.47 138.47 0.0 0 0 146.50 284.96
  A 138.47 138.47 0.0 0 0 284.97 146.49
  Z"
/>
<path fill="#eb008a" d="
  M 284.97 146.49
  A 138.47 138.47 0.0 0 1 146.50 284.96
  A 138.47 138.47 0.0 0 1 8.03 146.49
  A 138.47 138.47 0.0 0 1 146.50 8.02
  A 138.47 138.47 0.0 0 1 284.97 146.49
  Z
  M 74.76 96.26
  A 0.42 0.42 0.0 0 0 74.34 95.84
  L 49.66 95.84
  A 0.42 0.42 0.0 0 0 49.24 96.26
  L 49.24 198.90
  A 0.42 0.42 0.0 0 0 49.66 199.32
  L 74.34 199.32
  A 0.42 0.42 0.0 0 0 74.76 198.90
  L 74.76 96.26
  Z
  M 116.75 118.48
  L 148.02 118.48
  Q 148.53 118.48 148.53 117.98
  L 148.52 96.43
  Q 148.52 95.83 147.92 95.83
  L 94.23 95.83
  A 0.45 0.45 0.0 0 0 93.78 96.28
  L 93.77 155.54
  Q 93.77 156.28 94.49 156.11
  C 103.42 154.02 122.83 152.47 125.16 165.10
  Q 125.88 169.02 124.42 172.24
  C 118.80 184.60 100.13 180.81 90.40 176.00
  Q 89.70 175.66 89.70 176.43
  L 89.70 195.77
  Q 89.70 196.35 90.23 196.55
  C 111.55 204.57 144.51 202.00 150.17 174.34
  C 153.36 158.78 146.55 144.05 131.12 138.51
  Q 123.93 135.93 116.34 135.84
  A 0.35 0.35 0.0 0 1 115.99 135.49
  L 115.98 119.25
  Q 115.98 118.48 116.75 118.48
  Z
  M 190.57 179.26
  A 0.38 0.38 0.0 0 1 190.93 179.00
  L 228.59 178.99
  A 0.38 0.38 0.0 0 1 228.94 179.24
  L 236.16 198.63
  A 0.38 0.38 0.0 0 0 236.51 198.88
  L 262.87 198.89
  A 0.38 0.38 0.0 0 0 263.22 198.37
  L 222.48 96.20
  A 0.38 0.38 0.0 0 0 222.12 95.96
  L 194.73 95.97
  A 0.38 0.38 0.0 0 0 194.37 96.22
  L 157.39 198.37
  A 0.38 0.38 0.0 0 0 157.75 198.88
  L 183.64 198.88
  A 0.38 0.38 0.0 0 0 184.00 198.62
  L 190.57 179.26
  Z"
/>
<path fill="#000000" d="
  M 74.76 198.90
  A 0.42 0.42 0.0 0 1 74.34 199.32
  L 49.66 199.32
  A 0.42 0.42 0.0 0 1 49.24 198.90
  L 49.24 96.26
  A 0.42 0.42 0.0 0 1 49.66 95.84
  L 74.34 95.84
  A 0.42 0.42 0.0 0 1 74.76 96.26
  L 74.76 198.90
  Z
  M 72.13 98.79
  A 0.29 0.29 0.0 0 0 71.84 98.50
  L 52.22 98.50
  A 0.29 0.29 0.0 0 0 51.93 98.79
  L 51.93 196.43
  A 0.29 0.29 0.0 0 0 52.22 196.72
  L 71.84 196.72
  A 0.29 0.29 0.0 0 0 72.13 196.43
  L 72.13 98.79
  Z"
/>
<path fill="#000000" d="
  M 115.98 119.25
  L 115.99 135.49
  A 0.35 0.35 0.0 0 0 116.34 135.84
  Q 123.93 135.93 131.12 138.51
  C 146.55 144.05 153.36 158.78 150.17 174.34
  C 144.51 202.00 111.55 204.57 90.23 196.55
  Q 89.70 196.35 89.70 195.77
  L 89.70 176.43
  Q 89.70 175.66 90.40 176.00
  C 100.13 180.81 118.80 184.60 124.42 172.24
  Q 125.88 169.02 125.16 165.10
  C 122.83 152.47 103.42 154.02 94.49 156.11
  Q 93.77 156.28 93.77 155.54
  L 93.78 96.28
  A 0.45 0.45 0.0 0 1 94.23 95.83
  L 147.92 95.83
  Q 148.52 95.83 148.52 96.43
  L 148.53 117.98
  Q 148.53 118.48 148.02 118.48
  L 116.75 118.48
  Q 115.98 118.48 115.98 119.25
  Z
  M 113.32 137.53
  Q 113.35 137.37 113.26 116.47
  A 0.69 0.69 0.0 0 1 113.95 115.78
  L 145.32 115.78
  Q 145.93 115.78 145.93 115.18
  L 145.92 99.22
  Q 145.92 98.51 145.22 98.51
  L 96.98 98.51
  Q 96.48 98.51 96.48 99.01
  L 96.48 152.48
  Q 96.48 153.21 97.20 153.06
  C 107.76 150.85 126.75 151.28 127.97 166.16
  C 128.72 175.29 122.06 181.46 113.29 182.85
  C 106.60 183.90 99.46 182.36 92.96 179.60
  Q 92.31 179.32 92.31 180.04
  L 92.31 193.76
  Q 92.31 194.33 92.85 194.52
  C 115.91 202.73 148.90 196.83 148.21 166.12
  C 147.78 146.67 131.73 138.07 113.93 138.25
  Q 113.20 138.26 113.32 137.53
  Z"
/>
<path fill="#211e1e" d="
  M 190.57 179.26
  L 184.00 198.62
  A 0.38 0.38 0.0 0 1 183.64 198.88
  L 157.75 198.88
  A 0.38 0.38 0.0 0 1 157.39 198.37
  L 194.37 96.22
  A 0.38 0.38 0.0 0 1 194.73 95.97
  L 222.12 95.96
  A 0.38 0.38 0.0 0 1 222.48 96.20
  L 263.22 198.37
  A 0.38 0.38 0.0 0 1 262.87 198.89
  L 236.51 198.88
  A 0.38 0.38 0.0 0 1 236.16 198.63
  L 228.94 179.24
  A 0.38 0.38 0.0 0 0 228.59 178.99
  L 190.93 179.00
  A 0.38 0.38 0.0 0 0 190.57 179.26
  Z
  M 188.57 176.50
  A 0.35 0.35 0.0 0 1 188.90 176.26
  L 230.57 176.26
  A 0.35 0.35 0.0 0 1 230.89 176.49
  L 238.11 195.81
  A 0.35 0.35 0.0 0 0 238.43 196.04
  L 258.78 196.05
  A 0.35 0.35 0.0 0 0 259.11 195.57
  L 220.57 98.97
  A 0.35 0.35 0.0 0 0 220.24 98.75
  L 196.68 98.75
  A 0.35 0.35 0.0 0 0 196.35 98.98
  L 161.39 195.58
  A 0.35 0.35 0.0 0 0 161.72 196.05
  L 181.68 196.05
  A 0.35 0.35 0.0 0 0 182.01 195.81
  L 188.57 176.50
  Z"
/>
<rect fill="#ffffff" x="51.93" y="98.50" width="20.20" height="98.22" rx="0.29"/>
<path fill="#ffffff" d="
  M 113.93 138.25
  C 131.73 138.07 147.78 146.67 148.21 166.12
  C 148.90 196.83 115.91 202.73 92.85 194.52
  Q 92.31 194.33 92.31 193.76
  L 92.31 180.04
  Q 92.31 179.32 92.96 179.60
  C 99.46 182.36 106.60 183.90 113.29 182.85
  C 122.06 181.46 128.72 175.29 127.97 166.16
  C 126.75 151.28 107.76 150.85 97.20 153.06
  Q 96.48 153.21 96.48 152.48
  L 96.48 99.01
  Q 96.48 98.51 96.98 98.51
  L 145.22 98.51
  Q 145.92 98.51 145.92 99.22
  L 145.93 115.18
  Q 145.93 115.78 145.32 115.78
  L 113.95 115.78
  A 0.69 0.69 0.0 0 0 113.26 116.47
  Q 113.35 137.37 113.32 137.53
  Q 113.20 138.26 113.93 138.25
  Z"
/>
<path fill="#ffffff" d="
  M 188.57 176.50
  L 182.01 195.81
  A 0.35 0.35 0.0 0 1 181.68 196.05
  L 161.72 196.05
  A 0.35 0.35 0.0 0 1 161.39 195.58
  L 196.35 98.98
  A 0.35 0.35 0.0 0 1 196.68 98.75
  L 220.24 98.75
  A 0.35 0.35 0.0 0 1 220.57 98.97
  L 259.11 195.57
  A 0.35 0.35 0.0 0 1 258.78 196.05
  L 238.43 196.04
  A 0.35 0.35 0.0 0 1 238.11 195.81
  L 230.89 176.49
  A 0.35 0.35 0.0 0 0 230.57 176.26
  L 188.90 176.26
  A 0.35 0.35 0.0 0 0 188.57 176.50
  Z
  M 193.81 161.09
  A 0.32 0.32 0.0 0 0 194.12 161.51
  L 224.81 161.51
  A 0.32 0.32 0.0 0 0 225.11 161.08
  L 209.00 117.90
  A 0.32 0.32 0.0 0 0 208.40 117.91
  L 193.81 161.09
  Z"
/>
<path fill="#211e1e" d="
  M 193.81 161.09
  L 208.40 117.91
  A 0.32 0.32 0.0 0 1 209.00 117.90
  L 225.11 161.08
  A 0.32 0.32 0.0 0 1 224.81 161.51
  L 194.12 161.51
  A 0.32 0.32 0.0 0 1 193.81 161.09
  Z
  M 197.71 158.34
  A 0.31 0.31 0.0 0 0 198.00 158.75
  L 220.81 158.80
  A 0.31 0.31 0.0 0 0 221.10 158.38
  L 209.11 126.21
  A 0.31 0.31 0.0 0 0 208.52 126.22
  L 197.71 158.34
  Z"
/>
<path fill="#eb008a" d="
  M 197.71 158.34
  L 208.52 126.22
  A 0.31 0.31 0.0 0 1 209.11 126.21
  L 221.10 158.38
  A 0.31 0.31 0.0 0 1 220.81 158.80
  L 198.00 158.75
  A 0.31 0.31 0.0 0 1 197.71 158.34
  Z"
/>
</svg>
