<?xml version="1.0" encoding="UTF-8" standalone="no"?>
<!DOCTYPE svg PUBLIC "-//W3C//DTD SVG 1.1//EN" "http://www.w3.org/Graphics/SVG/1.1/DTD/svg11.dtd">
<svg xmlns="http://www.w3.org/2000/svg" version="1.1" viewBox="0.00 0.00 663.00 663.00">
<g stroke-width="2.00" fill="none" stroke-linecap="butt">
<path stroke="#c68bc7" vector-effect="non-scaling-stroke" d="
  M 645.35 331.48
  A 313.84 313.84 0.0 0 0 331.51 17.64
  A 313.84 313.84 0.0 0 0 17.67 331.48
  A 313.84 313.84 0.0 0 0 331.51 645.32
  A 313.84 313.84 0.0 0 0 645.35 331.48"
/>
<path stroke="#571b57" vector-effect="non-scaling-stroke" d="
  M 412.03 287.99
  L 474.03 188.24
  Q 474.34 187.74 473.75 187.74
  L 398.04 187.74
  A 0.34 0.34 0.0 0 0 397.75 187.90
  C 381.23 214.13 364.95 240.23 348.61 266.14
  Q 333.39 290.26 323.93 313.74
  C 309.72 349.03 306.27 391.40 325.58 425.50
  C 336.03 443.96 352.85 458.18 372.95 464.85
  C 410.17 477.21 451.53 468.40 477.48 438.26
  C 497.71 414.77 504.05 382.54 497.84 351.94
  C 489.52 310.91 455.83 282.12 412.39 288.54
  Q 411.62 288.65 412.03 287.99"
/>
<path stroke="#460c48" vector-effect="non-scaling-stroke" d="
  M 262.99 188.44
  A 0.35 0.35 0.0 0 0 262.64 188.09
  L 194.00 188.09
  A 0.35 0.35 0.0 0 0 193.65 188.44
  L 193.65 469.38
  A 0.35 0.35 0.0 0 0 194.00 469.73
  L 262.64 469.73
  A 0.35 0.35 0.0 0 0 262.99 469.38
  L 262.99 188.44"
/>
<path stroke="#908f8f" vector-effect="non-scaling-stroke" d="
  M 396.03 299.29
  Q 395.19 299.49 395.64 298.76
  L 459.11 196.61
  Q 459.51 195.96 458.75 195.96
  L 402.99 195.96
  Q 402.38 195.96 402.05 196.48
  Q 379.57 232.27 357.32 267.57
  C 343.86 288.91 331.38 312.56 325.12 336.04
  C 314.07 377.47 321.29 426.58 360.92 450.32
  C 379.52 461.46 402.82 464.28 423.87 460.32
  C 465.63 452.46 491.57 417.36 491.89 375.52
  C 492.04 355.60 487.00 335.55 474.78 320.32
  C 457.23 298.46 429.64 289.53 402.59 297.55
  Q 399.49 298.47 396.03 299.29"
/>
<path stroke="#808080" vector-effect="non-scaling-stroke" d="
  M 255.97 195.43
  A 0.31 0.31 0.0 0 0 255.66 195.12
  L 200.98 195.12
  A 0.31 0.31 0.0 0 0 200.67 195.43
  L 200.67 462.41
  A 0.31 0.31 0.0 0 0 200.98 462.72
  L 255.66 462.72
  A 0.31 0.31 0.0 0 0 255.97 462.41
  L 255.97 195.43"
/>
<path stroke="#908f8f" vector-effect="non-scaling-stroke" d="
  M 418.15 418.32
  C 433.72 412.88 440.59 397.70 441.72 381.84
  C 443.17 361.50 436.32 337.99 414.17 333.01
  C 398.33 329.45 383.36 337.49 377.28 352.41
  Q 369.15 372.34 374.80 394.32
  Q 378.51 408.75 390.29 415.72
  C 398.26 420.43 409.34 421.40 418.15 418.32"
/>
<path stroke="#571b57" vector-effect="non-scaling-stroke" d="
  M 403.99 411.68
  C 421.01 413.27 430.44 401.93 432.91 386.33
  C 434.85 374.01 433.63 359.64 425.91 349.59
  C 419.89 341.75 410.58 338.96 400.99 341.04
  Q 395.15 342.31 390.81 346.63
  C 380.29 357.09 379.23 376.28 382.25 390.45
  C 384.66 401.77 392.06 410.56 403.99 411.68"
/>
</g>
<path fill="#ffffff" d="
  M 322.88 0.00
  L 340.50 0.00
  Q 346.05 0.44 351.62 0.77
  Q 403.68 3.84 451.23 22.30
  C 524.26 50.65 585.21 104.32 622.75 173.15
  Q 657.18 236.29 662.07 309.51
  Q 662.51 316.07 663.00 322.63
  L 663.00 340.25
  Q 662.60 344.23 662.40 348.24
  Q 659.74 403.29 639.66 453.67
  C 611.60 524.06 560.32 582.80 494.35 620.19
  Q 430.91 656.14 357.24 661.83
  Q 348.44 662.51 339.62 663.00
  L 323.50 663.00
  Q 317.57 662.60 311.63 662.25
  C 191.52 655.20 85.40 583.41 32.96 475.51
  Q 5.53 419.06 1.02 355.37
  Q 0.50 348.00 0.00 340.62
  L 0.00 322.25
  Q 0.54 313.18 1.28 304.14
  Q 7.02 234.12 40.18 173.33
  C 75.97 107.74 132.77 56.04 201.42 26.59
  Q 251.81 4.98 307.38 1.03
  Q 315.12 0.47 322.88 0.00
  Z
  M 645.35 331.48
  A 313.84 313.84 0.0 0 0 331.51 17.64
  A 313.84 313.84 0.0 0 0 17.67 331.48
  A 313.84 313.84 0.0 0 0 331.51 645.32
  A 313.84 313.84 0.0 0 0 645.35 331.48
  Z"
/>
<path fill="#8c178f" d="
  M 645.35 331.48
  A 313.84 313.84 0.0 0 1 331.51 645.32
  A 313.84 313.84 0.0 0 1 17.67 331.48
  A 313.84 313.84 0.0 0 1 331.51 17.64
  A 313.84 313.84 0.0 0 1 645.35 331.48
  Z
  M 412.03 287.99
  L 474.03 188.24
  Q 474.34 187.74 473.75 187.74
  L 398.04 187.74
  A 0.34 0.34 0.0 0 0 397.75 187.90
  C 381.23 214.13 364.95 240.23 348.61 266.14
  Q 333.39 290.26 323.93 313.74
  C 309.72 349.03 306.27 391.40 325.58 425.50
  C 336.03 443.96 352.85 458.18 372.95 464.85
  C 410.17 477.21 451.53 468.40 477.48 438.26
  C 497.71 414.77 504.05 382.54 497.84 351.94
  C 489.52 310.91 455.83 282.12 412.39 288.54
  Q 411.62 288.65 412.03 287.99
  Z
  M 262.99 188.44
  A 0.35 0.35 0.0 0 0 262.64 188.09
  L 194.00 188.09
  A 0.35 0.35 0.0 0 0 193.65 188.44
  L 193.65 469.38
  A 0.35 0.35 0.0 0 0 194.00 469.73
  L 262.64 469.73
  A 0.35 0.35 0.0 0 0 262.99 469.38
  L 262.99 188.44
  Z"
/>
<path fill="#211e1e" d="
  M 412.39 288.54
  C 455.83 282.12 489.52 310.91 497.84 351.94
  C 504.05 382.54 497.71 414.77 477.48 438.26
  C 451.53 468.40 410.17 477.21 372.95 464.85
  C 352.85 458.18 336.03 443.96 325.58 425.50
  C 306.27 391.40 309.72 349.03 323.93 313.74
  Q 333.39 290.26 348.61 266.14
  C 364.95 240.23 381.23 214.13 397.75 187.90
  A 0.34 0.34 0.0 0 1 398.04 187.74
  L 473.75 187.74
  Q 474.34 187.74 474.03 188.24
  L 412.03 287.99
  Q 411.62 288.65 412.39 288.54
  Z
  M 396.03 299.29
  Q 395.19 299.49 395.64 298.76
  L 459.11 196.61
  Q 459.51 195.96 458.75 195.96
  L 402.99 195.96
  Q 402.38 195.96 402.05 196.48
  Q 379.57 232.27 357.32 267.57
  C 343.86 288.91 331.38 312.56 325.12 336.04
  C 314.07 377.47 321.29 426.58 360.92 450.32
  C 379.52 461.46 402.82 464.28 423.87 460.32
  C 465.63 452.46 491.57 417.36 491.89 375.52
  C 492.04 355.60 487.00 335.55 474.78 320.32
  C 457.23 298.46 429.64 289.53 402.59 297.55
  Q 399.49 298.47 396.03 299.29
  Z"
/>
<path fill="#000000" d="
  M 262.99 469.38
  A 0.35 0.35 0.0 0 1 262.64 469.73
  L 194.00 469.73
  A 0.35 0.35 0.0 0 1 193.65 469.38
  L 193.65 188.44
  A 0.35 0.35 0.0 0 1 194.00 188.09
  L 262.64 188.09
  A 0.35 0.35 0.0 0 1 262.99 188.44
  L 262.99 469.38
  Z
  M 255.97 195.43
  A 0.31 0.31 0.0 0 0 255.66 195.12
  L 200.98 195.12
  A 0.31 0.31 0.0 0 0 200.67 195.43
  L 200.67 462.41
  A 0.31 0.31 0.0 0 0 200.98 462.72
  L 255.66 462.72
  A 0.31 0.31 0.0 0 0 255.97 462.41
  L 255.97 195.43
  Z"
/>
<rect fill="#ffffff" x="200.67" y="195.12" width="55.30" height="267.60" rx="0.31"/>
<path fill="#ffffff" d="
  M 396.03 299.29
  Q 399.49 298.47 402.59 297.55
  C 429.64 289.53 457.23 298.46 474.78 320.32
  C 487.00 335.55 492.04 355.60 491.89 375.52
  C 491.57 417.36 465.63 452.46 423.87 460.32
  C 402.82 464.28 379.52 461.46 360.92 450.32
  C 321.29 426.58 314.07 377.47 325.12 336.04
  C 331.38 312.56 343.86 288.91 357.32 267.57
  Q 379.57 232.27 402.05 196.48
  Q 402.38 195.96 402.99 195.96
  L 458.75 195.96
  Q 459.51 195.96 459.11 196.61
  L 395.64 298.76
  Q 395.19 299.49 396.03 299.29
  Z
  M 418.15 418.32
  C 433.72 412.88 440.59 397.70 441.72 381.84
  C 443.17 361.50 436.32 337.99 414.17 333.01
  C 398.33 329.45 383.36 337.49 377.28 352.41
  Q 369.15 372.34 374.80 394.32
  Q 378.51 408.75 390.29 415.72
  C 398.26 420.43 409.34 421.40 418.15 418.32
  Z"
/>
<path fill="#211e1e" d="
  M 441.72 381.84
  C 440.59 397.70 433.72 412.88 418.15 418.32
  C 409.34 421.40 398.26 420.43 390.29 415.72
  Q 378.51 408.75 374.80 394.32
  Q 369.15 372.34 377.28 352.41
  C 383.36 337.49 398.33 329.45 414.17 333.01
  C 436.32 337.99 443.17 361.50 441.72 381.84
  Z
  M 403.99 411.68
  C 421.01 413.27 430.44 401.93 432.91 386.33
  C 434.85 374.01 433.63 359.64 425.91 349.59
  C 419.89 341.75 410.58 338.96 400.99 341.04
  Q 395.15 342.31 390.81 346.63
  C 380.29 357.09 379.23 376.28 382.25 390.45
  C 384.66 401.77 392.06 410.56 403.99 411.68
  Z"
/>
<path fill="#8c178f" d="
  M 432.91 386.33
  C 430.44 401.93 421.01 413.27 403.99 411.68
  C 392.06 410.56 384.66 401.77 382.25 390.45
  C 379.23 376.28 380.29 357.09 390.81 346.63
  Q 395.15 342.31 400.99 341.04
  C 410.58 338.96 419.89 341.75 425.91 349.59
  C 433.63 359.64 434.85 374.01 432.91 386.33
  Z"
/>
</svg>
