<?xml version="1.0" encoding="UTF-8" standalone="no"?>
<!DOCTYPE svg PUBLIC "-//W3C//DTD SVG 1.1//EN" "http://www.w3.org/Graphics/SVG/1.1/DTD/svg11.dtd">
<svg xmlns="http://www.w3.org/2000/svg" version="1.1" viewBox="0.00 0.00 293.00 293.00">
<g stroke-width="2.00" fill="none" stroke-linecap="butt">
<path stroke="#ffc080" vector-effect="non-scaling-stroke" d="
  M 284.98 146.49
  A 138.48 138.48 0.0 0 0 146.50 8.01
  A 138.48 138.48 0.0 0 0 8.02 146.49
  A 138.48 138.48 0.0 0 0 146.50 284.97
  A 138.48 138.48 0.0 0 0 284.98 146.49"
/>
<path stroke="#804000" vector-effect="non-scaling-stroke" d="
  M 119.22 175.13
  C 128.30 162.42 137.49 148.03 141.68 133.68
  C 146.91 115.79 139.75 98.73 120.81 93.87
  C 108.96 90.84 95.52 94.18 84.72 100.61
  A 1.06 1.06 0.0 0 0 84.22 101.51
  L 84.22 121.99
  Q 84.22 122.71 84.82 122.30
  C 92.75 116.72 106.25 110.13 114.53 117.12
  C 118.96 120.86 120.06 126.96 118.50 132.55
  C 116.17 140.89 112.00 148.92 107.50 156.70
  Q 96.81 175.19 85.25 190.42
  Q 83.84 192.28 82.18 193.87
  C 80.99 195.02 81.23 196.37 81.21 197.84
  Q 81.20 198.58 81.93 198.58
  L 149.27 198.58
  Q 149.62 198.58 149.62 198.23
  L 149.62 176.20
  A 0.43 0.42 -90.0 0 0 149.20 175.77
  L 119.55 175.77
  Q 118.76 175.77 119.22 175.13"
/>
<path stroke="#804000" vector-effect="non-scaling-stroke" d="
  M 69.63 94.35
  A 0.28 0.28 0.0 0 0 69.35 94.07
  L 44.15 94.07
  A 0.28 0.28 0.0 0 0 43.87 94.35
  L 43.87 198.29
  A 0.28 0.28 0.0 0 0 44.15 198.57
  L 69.35 198.57
  A 0.28 0.28 0.0 0 0 69.63 198.29
  L 69.63 94.35"
/>
<path stroke="#904f0f" vector-effect="non-scaling-stroke" d="
  M 193.29 178.64
  A 0.31 0.31 0.0 0 1 193.58 178.43
  L 231.79 178.43
  A 0.31 0.31 0.0 0 1 232.08 178.63
  L 239.34 198.05
  A 0.31 0.31 0.0 0 0 239.63 198.25
  L 266.40 198.26
  A 0.31 0.31 0.0 0 0 266.69 197.83
  L 225.47 95.37
  A 0.31 0.31 0.0 0 0 225.18 95.18
  L 197.45 95.17
  A 0.31 0.31 0.0 0 0 197.16 95.37
  L 159.73 197.84
  A 0.31 0.31 0.0 0 0 160.02 198.26
  L 186.36 198.26
  A 0.31 0.31 0.0 0 0 186.65 198.05
  L 193.29 178.64"
/>
<path stroke="#808080" vector-effect="non-scaling-stroke" d="
  M 114.28 178.49
  A 0.31 0.31 0.0 0 1 114.04 177.99
  Q 125.81 162.35 133.60 147.23
  C 138.10 138.49 141.76 127.84 140.43 117.99
  C 138.42 103.10 125.35 95.14 111.14 95.44
  Q 98.87 95.70 87.42 102.36
  A 1.20 1.18 75.2 0 0 86.83 103.39
  L 86.83 117.70
  Q 86.83 118.41 87.44 118.05
  C 94.16 114.09 102.46 109.96 110.28 111.96
  C 116.94 113.66 121.42 119.86 121.81 126.61
  C 122.09 131.48 120.06 137.62 117.99 142.02
  Q 104.87 169.93 84.39 195.70
  Q 84.18 195.96 84.52 195.96
  L 146.76 195.96
  A 0.23 0.23 0.0 0 0 146.99 195.73
  L 146.99 178.99
  Q 146.99 178.49 146.49 178.49
  L 114.28 178.49"
/>
<path stroke="#808080" vector-effect="non-scaling-stroke" d="
  M 67.00 97.08
  A 0.33 0.33 0.0 0 0 66.67 96.75
  L 46.83 96.75
  A 0.33 0.33 0.0 0 0 46.50 97.08
  L 46.50 195.64
  A 0.33 0.33 0.0 0 0 46.83 195.97
  L 66.67 195.97
  A 0.33 0.33 0.0 0 0 67.00 195.64
  L 67.00 97.08"
/>
<path stroke="#908f8f" vector-effect="non-scaling-stroke" d="
  M 233.68 175.51
  A 0.34 0.34 0.0 0 1 234.00 175.73
  L 241.32 195.19
  A 0.34 0.34 0.0 0 0 241.64 195.41
  L 262.20 195.43
  A 0.34 0.34 0.0 0 0 262.51 194.96
  L 223.58 98.21
  A 0.34 0.34 0.0 0 0 223.26 98.00
  L 199.44 98.00
  A 0.34 0.34 0.0 0 0 199.12 98.22
  L 163.76 194.97
  A 0.34 0.34 0.0 0 0 164.08 195.43
  L 184.32 195.41
  A 0.34 0.34 0.0 0 0 184.64 195.18
  L 191.28 175.74
  A 0.34 0.34 0.0 0 1 191.60 175.51
  L 233.68 175.51"
/>
<path stroke="#908f8f" vector-effect="non-scaling-stroke" d="
  M 196.52 160.45
  A 0.30 0.30 0.0 0 0 196.80 160.85
  L 227.90 160.87
  A 0.30 0.30 0.0 0 0 228.18 160.46
  L 211.89 117.15
  A 0.30 0.30 0.0 0 0 211.33 117.16
  L 196.52 160.45"
/>
<path stroke="#904f0f" vector-effect="non-scaling-stroke" d="
  M 200.41 157.72
  A 0.34 0.34 0.0 0 0 200.74 158.17
  L 223.70 157.93
  A 0.34 0.34 0.0 0 0 224.01 157.47
  L 212.20 125.61
  A 0.34 0.34 0.0 0 0 211.56 125.62
  L 200.41 157.72"
/>
</g>
<path fill="#ffffff" d="
  M 141.90 0.00
  L 151.49 0.00
  Q 198.13 2.08 233.84 28.88
  C 265.90 52.94 288.25 90.16 292.09 130.86
  Q 292.60 136.24 293.00 141.63
  L 293.00 151.47
  Q 290.93 197.33 265.06 232.50
  Q 240.25 266.22 202.26 281.98
  Q 178.31 291.91 151.11 293.00
  L 141.53 293.00
  Q 98.51 291.09 64.76 268.04
  Q 31.44 245.29 14.32 209.68
  Q 1.37 182.74 0.00 151.60
  L 0.00 141.25
  Q 3.67 75.57 52.33 34.33
  Q 90.19 2.26 141.90 0.00
  Z
  M 284.98 146.49
  A 138.48 138.48 0.0 0 0 146.50 8.01
  A 138.48 138.48 0.0 0 0 8.02 146.49
  A 138.48 138.48 0.0 0 0 146.50 284.97
  A 138.48 138.48 0.0 0 0 284.98 146.49
  Z"
/>
<path fill="#ff8000" d="
  M 284.98 146.49
  A 138.48 138.48 0.0 0 1 146.50 284.97
  A 138.48 138.48 0.0 0 1 8.02 146.49
  A 138.48 138.48 0.0 0 1 146.50 8.01
  A 138.48 138.48 0.0 0 1 284.98 146.49
  Z
  M 119.22 175.13
  C 128.30 162.42 137.49 148.03 141.68 133.68
  C 146.91 115.79 139.75 98.73 120.81 93.87
  C 108.96 90.84 95.52 94.18 84.72 100.61
  A 1.06 1.06 0.0 0 0 84.22 101.51
  L 84.22 121.99
  Q 84.22 122.71 84.82 122.30
  C 92.75 116.72 106.25 110.13 114.53 117.12
  C 118.96 120.86 120.06 126.96 118.50 132.55
  C 116.17 140.89 112.00 148.92 107.50 156.70
  Q 96.81 175.19 85.25 190.42
  Q 83.84 192.28 82.18 193.87
  C 80.99 195.02 81.23 196.37 81.21 197.84
  Q 81.20 198.58 81.93 198.58
  L 149.27 198.58
  Q 149.62 198.58 149.62 198.23
  L 149.62 176.20
  A 0.43 0.42 -90.0 0 0 149.20 175.77
  L 119.55 175.77
  Q 118.76 175.77 119.22 175.13
  Z
  M 69.63 94.35
  A 0.28 0.28 0.0 0 0 69.35 94.07
  L 44.15 94.07
  A 0.28 0.28 0.0 0 0 43.87 94.35
  L 43.87 198.29
  A 0.28 0.28 0.0 0 0 44.15 198.57
  L 69.35 198.57
  A 0.28 0.28 0.0 0 0 69.63 198.29
  L 69.63 94.35
  Z
  M 193.29 178.64
  A 0.31 0.31 0.0 0 1 193.58 178.43
  L 231.79 178.43
  A 0.31 0.31 0.0 0 1 232.08 178.63
  L 239.34 198.05
  A 0.31 0.31 0.0 0 0 239.63 198.25
  L 266.40 198.26
  A 0.31 0.31 0.0 0 0 266.69 197.83
  L 225.47 95.37
  A 0.31 0.31 0.0 0 0 225.18 95.18
  L 197.45 95.17
  A 0.31 0.31 0.0 0 0 197.16 95.37
  L 159.73 197.84
  A 0.31 0.31 0.0 0 0 160.02 198.26
  L 186.36 198.26
  A 0.31 0.31 0.0 0 0 186.65 198.05
  L 193.29 178.64
  Z"
/>
<path fill="#000000" d="
  M 119.55 175.77
  L 149.20 175.77
  A 0.43 0.42 -90.0 0 1 149.62 176.20
  L 149.62 198.23
  Q 149.62 198.58 149.27 198.58
  L 81.93 198.58
  Q 81.20 198.58 81.21 197.84
  C 81.23 196.37 80.99 195.02 82.18 193.87
  Q 83.84 192.28 85.25 190.42
  Q 96.81 175.19 107.50 156.70
  C 112.00 148.92 116.17 140.89 118.50 132.55
  C 120.06 126.96 118.96 120.86 114.53 117.12
  C 106.25 110.13 92.75 116.72 84.82 122.30
  Q 84.22 122.71 84.22 121.99
  L 84.22 101.51
  A 1.06 1.06 0.0 0 1 84.72 100.61
  C 95.52 94.18 108.96 90.84 120.81 93.87
  C 139.75 98.73 146.91 115.79 141.68 133.68
  C 137.49 148.03 128.30 162.42 119.22 175.13
  Q 118.76 175.77 119.55 175.77
  Z
  M 114.28 178.49
  A 0.31 0.31 0.0 0 1 114.04 177.99
  Q 125.81 162.35 133.60 147.23
  C 138.10 138.49 141.76 127.84 140.43 117.99
  C 138.42 103.10 125.35 95.14 111.14 95.44
  Q 98.87 95.70 87.42 102.36
  A 1.20 1.18 75.2 0 0 86.83 103.39
  L 86.83 117.70
  Q 86.83 118.41 87.44 118.05
  C 94.16 114.09 102.46 109.96 110.28 111.96
  C 116.94 113.66 121.42 119.86 121.81 126.61
  C 122.09 131.48 120.06 137.62 117.99 142.02
  Q 104.87 169.93 84.39 195.70
  Q 84.18 195.96 84.52 195.96
  L 146.76 195.96
  A 0.23 0.23 0.0 0 0 146.99 195.73
  L 146.99 178.99
  Q 146.99 178.49 146.49 178.49
  L 114.28 178.49
  Z"
/>
<path fill="#000000" d="
  M 69.63 198.29
  A 0.28 0.28 0.0 0 1 69.35 198.57
  L 44.15 198.57
  A 0.28 0.28 0.0 0 1 43.87 198.29
  L 43.87 94.35
  A 0.28 0.28 0.0 0 1 44.15 94.07
  L 69.35 94.07
  A 0.28 0.28 0.0 0 1 69.63 94.35
  L 69.63 198.29
  Z
  M 67.00 97.08
  A 0.33 0.33 0.0 0 0 66.67 96.75
  L 46.83 96.75
  A 0.33 0.33 0.0 0 0 46.50 97.08
  L 46.50 195.64
  A 0.33 0.33 0.0 0 0 46.83 195.97
  L 66.67 195.97
  A 0.33 0.33 0.0 0 0 67.00 195.64
  L 67.00 97.08
  Z"
/>
<path fill="#211e1e" d="
  M 193.29 178.64
  L 186.65 198.05
  A 0.31 0.31 0.0 0 1 186.36 198.26
  L 160.02 198.26
  A 0.31 0.31 0.0 0 1 159.73 197.84
  L 197.16 95.37
  A 0.31 0.31 0.0 0 1 197.45 95.17
  L 225.18 95.18
  A 0.31 0.31 0.0 0 1 225.47 95.37
  L 266.69 197.83
  A 0.31 0.31 0.0 0 1 266.40 198.26
  L 239.63 198.25
  A 0.31 0.31 0.0 0 1 239.34 198.05
  L 232.08 178.63
  A 0.31 0.31 0.0 0 0 231.79 178.43
  L 193.58 178.43
  A 0.31 0.31 0.0 0 0 193.29 178.64
  Z
  M 233.68 175.51
  A 0.34 0.34 0.0 0 1 234.00 175.73
  L 241.32 195.19
  A 0.34 0.34 0.0 0 0 241.64 195.41
  L 262.20 195.43
  A 0.34 0.34 0.0 0 0 262.51 194.96
  L 223.58 98.21
  A 0.34 0.34 0.0 0 0 223.26 98.00
  L 199.44 98.00
  A 0.34 0.34 0.0 0 0 199.12 98.22
  L 163.76 194.97
  A 0.34 0.34 0.0 0 0 164.08 195.43
  L 184.32 195.41
  A 0.34 0.34 0.0 0 0 184.64 195.18
  L 191.28 175.74
  A 0.34 0.34 0.0 0 1 191.60 175.51
  L 233.68 175.51
  Z"
/>
<path fill="#ffffff" d="
  M 114.28 178.49
  L 146.49 178.49
  Q 146.99 178.49 146.99 178.99
  L 146.99 195.73
  A 0.23 0.23 0.0 0 1 146.76 195.96
  L 84.52 195.96
  Q 84.18 195.96 84.39 195.70
  Q 104.87 169.93 117.99 142.02
  C 120.06 137.62 122.09 131.48 121.81 126.61
  C 121.42 119.86 116.94 113.66 110.28 111.96
  C 102.46 109.96 94.16 114.09 87.44 118.05
  Q 86.83 118.41 86.83 117.70
  L 86.83 103.39
  A 1.20 1.18 75.2 0 1 87.42 102.36
  Q 98.87 95.70 111.14 95.44
  C 125.35 95.14 138.42 103.10 140.43 117.99
  C 141.76 127.84 138.10 138.49 133.60 147.23
  Q 125.81 162.35 114.04 177.99
  A 0.31 0.31 0.0 0 0 114.28 178.49
  Z"
/>
<rect fill="#ffffff" x="46.50" y="96.75" width="20.50" height="99.22" rx="0.33"/>
<path fill="#ffffff" d="
  M 233.68 175.51
  L 191.60 175.51
  A 0.34 0.34 0.0 0 0 191.28 175.74
  L 184.64 195.18
  A 0.34 0.34 0.0 0 1 184.32 195.41
  L 164.08 195.43
  A 0.34 0.34 0.0 0 1 163.76 194.97
  L 199.12 98.22
  A 0.34 0.34 0.0 0 1 199.44 98.00
  L 223.26 98.00
  A 0.34 0.34 0.0 0 1 223.58 98.21
  L 262.51 194.96
  A 0.34 0.34 0.0 0 1 262.20 195.43
  L 241.64 195.41
  A 0.34 0.34 0.0 0 1 241.32 195.19
  L 234.00 175.73
  A 0.34 0.34 0.0 0 0 233.68 175.51
  Z
  M 196.52 160.45
  A 0.30 0.30 0.0 0 0 196.80 160.85
  L 227.90 160.87
  A 0.30 0.30 0.0 0 0 228.18 160.46
  L 211.89 117.15
  A 0.30 0.30 0.0 0 0 211.33 117.16
  L 196.52 160.45
  Z"
/>
<path fill="#211e1e" d="
  M 196.52 160.45
  L 211.33 117.16
  A 0.30 0.30 0.0 0 1 211.89 117.15
  L 228.18 160.46
  A 0.30 0.30 0.0 0 1 227.90 160.87
  L 196.80 160.85
  A 0.30 0.30 0.0 0 1 196.52 160.45
  Z
  M 200.41 157.72
  A 0.34 0.34 0.0 0 0 200.74 158.17
  L 223.70 157.93
  A 0.34 0.34 0.0 0 0 224.01 157.47
  L 212.20 125.61
  A 0.34 0.34 0.0 0 0 211.56 125.62
  L 200.41 157.72
  Z"
/>
<path fill="#ff8000" d="
  M 200.41 157.72
  L 211.56 125.62
  A 0.34 0.34 0.0 0 1 212.20 125.61
  L 224.01 157.47
  A 0.34 0.34 0.0 0 1 223.70 157.93
  L 200.74 158.17
  A 0.34 0.34 0.0 0 1 200.41 157.72
  Z"
/>
</svg>
