<?xml version="1.0" encoding="UTF-8" standalone="no"?>
<!DOCTYPE svg PUBLIC "-//W3C//DTD SVG 1.1//EN" "http://www.w3.org/Graphics/SVG/1.1/DTD/svg11.dtd">
<svg xmlns="http://www.w3.org/2000/svg" version="1.1" viewBox="0.00 0.00 292.00 293.00">
<g stroke-width="2.00" fill="none" stroke-linecap="butt">
<path stroke="#fd3f41" vector-effect="non-scaling-stroke" d="
  M 159.01 9.39
  Q 147.36 9.18 135.85 9.71
  Q 134.20 9.79 132.61 9.66
  Q 130.95 9.53 129.43 10.00
  C 126.43 10.92 123.29 11.18 120.18 11.61
  Q 118.05 11.91 115.81 12.50
  Q 112.17 13.48 108.05 14.55
  Q 104.26 15.54 100.35 16.96
  Q 55.04 33.46 29.44 73.56
  Q 23.96 82.14 20.02 91.14
  Q 13.46 106.13 10.73 120.77
  Q 9.97 124.84 9.43 128.94
  Q 8.92 132.81 8.72 137.14
  Q 8.53 141.32 7.76 145.51"
/>
<path stroke="#fd3f41" vector-effect="non-scaling-stroke" d="
  M 162.50 9.77
  Q 162.55 10.28 163.00 10.34
  Q 188.59 13.61 210.67 25.70
  Q 254.14 49.49 273.20 95.27
  Q 280.87 113.68 283.39 137.24"
/>
<path stroke="#fd3f41" vector-effect="non-scaling-stroke" d="
  M 283.61 141.18
  Q 282.77 146.79 283.60 152.34"
/>
<path stroke="#fd3f41" vector-effect="non-scaling-stroke" d="
  M 283.33 157.11
  Q 282.29 159.78 282.22 162.71
  Q 282.21 163.02 282.34 163.26
  Q 282.48 163.51 282.66 163.74"
/>
<path stroke="#fd3f41" vector-effect="non-scaling-stroke" d="
  M 282.46 165.33
  Q 281.29 168.63 280.61 172.31
  Q 279.45 178.55 279.24 179.37
  Q 270.50 214.62 245.81 241.03
  Q 243.95 243.03 239.20 247.46
  Q 235.84 250.60 232.61 253.93"
/>
<path stroke="#fd3f41" vector-effect="non-scaling-stroke" d="
  M 232.61 253.93
  Q 230.11 255.34 224.37 259.62
  Q 216.34 265.61 200.52 272.75
  Q 184.58 279.95 165.31 282.83
  Q 165.12 282.86 165.12 283.05
  Q 165.11 283.22 165.17 283.33"
/>
<path stroke="#fd3f41" vector-effect="non-scaling-stroke" d="
  M 162.99 283.62
  Q 159.17 283.20 155.71 284.35"
/>
<path stroke="#fd3f41" vector-effect="non-scaling-stroke" d="
  M 150.11 284.64
  Q 145.87 283.69 141.62 284.65"
/>
<path stroke="#fd3f41" vector-effect="non-scaling-stroke" d="
  M 135.19 284.30
  Q 134.91 283.86 134.49 283.83
  Q 98.65 280.64 68.68 260.54
  Q 59.94 254.68 50.50 245.97
  C 47.52 243.22 44.89 239.96 42.09 236.94
  Q 40.39 235.11 37.60 231.43
  Q 35.42 228.57 32.87 226.10"
/>
<path stroke="#fd3f41" vector-effect="non-scaling-stroke" d="
  M 31.62 224.28
  Q 31.85 224.21 31.90 224.02
  Q 31.93 223.90 31.86 223.79
  Q 20.45 206.72 14.56 187.67
  Q 13.50 184.28 12.62 180.96
  Q 11.79 177.80 11.05 174.02
  Q 9.98 168.49 8.72 162.98"
/>
<path stroke="#fd3f41" vector-effect="non-scaling-stroke" d="
  M 8.48 160.88
  Q 9.13 154.71 7.77 148.49"
/>
<path stroke="#800000" vector-effect="non-scaling-stroke" d="
  M 151.82 146.87
  A 0.65 0.65 0.0 0 1 151.45 147.63
  C 142.42 151.64 135.91 159.17 134.43 168.84
  C 132.57 180.95 135.53 192.11 144.36 200.61
  C 154.96 210.82 172.16 212.70 185.84 209.64
  C 202.54 205.92 213.68 193.30 214.87 176.34
  Q 214.98 174.73 214.66 173.15
  C 214.05 170.10 214.31 167.26 213.11 164.30
  Q 211.12 159.42 209.08 156.77
  Q 204.44 150.73 197.07 147.54
  A 0.51 0.50 -49.8 0 1 197.00 146.65
  Q 210.47 137.94 210.95 122.02
  C 211.47 105.04 199.84 91.77 183.37 88.52
  C 168.38 85.56 151.39 90.09 142.97 103.25
  C 134.04 117.21 136.45 137.37 151.43 146.36
  Q 151.73 146.54 151.82 146.87"
/>
<path stroke="#800000" vector-effect="non-scaling-stroke" d="
  M 112.54 89.44
  A 0.45 0.45 0.0 0 0 112.09 88.99
  L 83.45 88.99
  A 0.45 0.45 0.0 0 0 83.00 89.44
  L 83.00 208.94
  A 0.45 0.45 0.0 0 0 83.45 209.39
  L 112.09 209.39
  A 0.45 0.45 0.0 0 0 112.54 208.94
  L 112.54 89.44"
/>
<path stroke="#808080" vector-effect="non-scaling-stroke" d="
  M 190.86 147.72
  A 0.52 0.51 -47.0 0 1 190.83 146.82
  Q 195.65 143.90 198.99 141.18
  C 208.78 133.21 210.15 118.87 204.97 108.00
  C 193.53 83.99 152.45 85.20 142.88 110.18
  C 139.09 120.06 140.47 131.93 148.01 139.73
  C 150.83 142.65 154.32 144.56 157.54 146.94
  A 0.47 0.46 49.6 0 1 157.48 147.73
  Q 153.41 149.84 149.46 152.20
  C 142.80 156.17 138.42 162.39 137.34 169.97
  C 134.52 189.78 146.82 204.43 165.98 207.29
  C 185.83 210.26 206.78 202.42 211.20 180.85
  Q 212.36 175.19 210.79 167.45
  Q 210.47 165.92 209.80 164.52
  C 208.53 161.87 207.67 159.21 205.37 157.29
  C 203.52 155.75 202.08 153.82 199.96 152.62
  Q 195.40 150.04 190.86 147.72"
/>
<path stroke="#808080" vector-effect="non-scaling-stroke" d="
  M 109.74 92.33
  A 0.33 0.33 0.0 0 0 109.41 92.00
  L 86.33 92.00
  A 0.33 0.33 0.0 0 0 86.00 92.33
  L 86.00 206.15
  A 0.33 0.33 0.0 0 0 86.33 206.48
  L 109.41 206.48
  A 0.33 0.33 0.0 0 0 109.74 206.15
  L 109.74 92.33"
/>
<path stroke="#808080" vector-effect="non-scaling-stroke" d="
  M 176.25 141.70
  C 187.72 140.14 187.24 121.67 185.33 113.47
  C 184.30 109.06 181.08 104.90 176.29 104.29
  C 161.65 102.42 161.55 120.84 163.07 130.07
  C 164.22 137.02 168.36 142.77 176.25 141.70"
/>
<path stroke="#808080" vector-effect="non-scaling-stroke" d="
  M 186.72 184.69
  Q 189.85 174.73 186.68 164.29
  C 184.59 157.37 178.34 153.17 171.02 155.00
  C 159.85 157.80 159.20 174.68 161.48 183.45
  C 162.63 187.86 165.82 192.55 170.39 193.87
  C 178.06 196.09 184.39 192.11 186.72 184.69"
/>
<path stroke="#800000" vector-effect="non-scaling-stroke" d="
  M 166.27 115.04
  C 164.92 121.08 164.17 137.86 173.67 138.68
  C 184.46 139.61 183.70 123.28 182.74 115.85
  C 181.97 109.80 177.06 105.22 170.76 108.16
  C 168.21 109.35 166.86 112.41 166.27 115.04"
/>
<path stroke="#800000" vector-effect="non-scaling-stroke" d="
  M 171.66 190.88
  C 172.73 191.09 173.64 191.58 174.76 191.45
  C 185.88 190.07 185.94 175.85 184.48 167.85
  C 183.57 162.87 180.14 157.64 174.67 157.74
  C 163.00 157.95 162.48 173.28 164.22 181.73
  C 164.97 185.38 167.64 190.08 171.66 190.88"
/>
</g>
<path fill="#fa7e82" fill-opacity="0.996" d="
  M 159.01 9.39
  Q 147.36 9.18 135.85 9.71
  Q 134.20 9.79 132.61 9.66
  Q 130.95 9.53 129.43 10.00
  C 126.43 10.92 123.29 11.18 120.18 11.61
  Q 118.05 11.91 115.81 12.50
  Q 112.17 13.48 108.05 14.55
  Q 104.26 15.54 100.35 16.96
  Q 55.04 33.46 29.44 73.56
  Q 23.96 82.14 20.02 91.14
  Q 13.46 106.13 10.73 120.77
  Q 9.97 124.84 9.43 128.94
  Q 8.92 132.81 8.72 137.14
  Q 8.53 141.32 7.76 145.51
  A 77.73 43.93 -87.1 0 1 8.30 134.53
  A 137.94 137.92 72.8 0 1 58.12 40.14
  A 137.86 137.79 -73.5 0 1 103.91 15.24
  A 137.79 137.78 -51.1 0 1 159.01 9.39
  Z"
/>
<path fill="#ff0000" d="
  M 159.01 9.39
  A 24.83 6.06 6.0 0 1 162.50 9.77
  Q 162.55 10.28 163.00 10.34
  Q 188.59 13.61 210.67 25.70
  Q 254.14 49.49 273.20 95.27
  Q 280.87 113.68 283.39 137.24
  A 27.91 5.98 86.7 0 1 283.61 141.18
  Q 282.77 146.79 283.60 152.34
  A 33.79 9.02 -87.0 0 1 283.33 157.11
  Q 282.29 159.78 282.22 162.71
  Q 282.21 163.02 282.34 163.26
  Q 282.48 163.51 282.66 163.74
  A 11.36 2.10 -83.5 0 1 282.46 165.33
  Q 281.29 168.63 280.61 172.31
  Q 279.45 178.55 279.24 179.37
  Q 270.50 214.62 245.81 241.03
  Q 243.95 243.03 239.20 247.46
  Q 235.84 250.60 232.61 253.93
  Q 230.11 255.34 224.37 259.62
  Q 216.34 265.61 200.52 272.75
  Q 184.58 279.95 165.31 282.83
  Q 165.12 282.86 165.12 283.05
  Q 165.11 283.22 165.17 283.33
  A 15.56 2.97 -7.9 0 1 162.99 283.62
  Q 159.17 283.20 155.71 284.35
  A 39.66 10.96 -3.2 0 1 150.11 284.64
  Q 145.87 283.69 141.62 284.65
  A 45.53 14.99 3.0 0 1 135.19 284.30
  Q 134.91 283.86 134.49 283.83
  Q 98.65 280.64 68.68 260.54
  Q 59.94 254.68 50.50 245.97
  C 47.52 243.22 44.89 239.96 42.09 236.94
  Q 40.39 235.11 37.60 231.43
  Q 35.42 228.57 32.87 226.10
  A 15.65 1.95 56.0 0 1 31.62 224.28
  Q 31.85 224.21 31.90 224.02
  Q 31.93 223.90 31.86 223.79
  Q 20.45 206.72 14.56 187.67
  Q 13.50 184.28 12.62 180.96
  Q 11.79 177.80 11.05 174.02
  Q 9.98 168.49 8.72 162.98
  A 14.95 1.98 83.4 0 1 8.48 160.88
  Q 9.13 154.71 7.77 148.49
  A 21.07 2.99 89.8 0 1 7.76 145.51
  Q 8.53 141.32 8.72 137.14
  Q 8.92 132.81 9.43 128.94
  Q 9.97 124.84 10.73 120.77
  Q 13.46 106.13 20.02 91.14
  Q 23.96 82.14 29.44 73.56
  Q 55.04 33.46 100.35 16.96
  Q 104.26 15.54 108.05 14.55
  Q 112.17 13.48 115.81 12.50
  Q 118.05 11.91 120.18 11.61
  C 123.29 11.18 126.43 10.92 129.43 10.00
  Q 130.95 9.53 132.61 9.66
  Q 134.20 9.79 135.85 9.71
  Q 147.36 9.18 159.01 9.39
  Z
  M 151.82 146.87
  A 0.65 0.65 0.0 0 1 151.45 147.63
  C 142.42 151.64 135.91 159.17 134.43 168.84
  C 132.57 180.95 135.53 192.11 144.36 200.61
  C 154.96 210.82 172.16 212.70 185.84 209.64
  C 202.54 205.92 213.68 193.30 214.87 176.34
  Q 214.98 174.73 214.66 173.15
  C 214.05 170.10 214.31 167.26 213.11 164.30
  Q 211.12 159.42 209.08 156.77
  Q 204.44 150.73 197.07 147.54
  A 0.51 0.50 -49.8 0 1 197.00 146.65
  Q 210.47 137.94 210.95 122.02
  C 211.47 105.04 199.84 91.77 183.37 88.52
  C 168.38 85.56 151.39 90.09 142.97 103.25
  C 134.04 117.21 136.45 137.37 151.43 146.36
  Q 151.73 146.54 151.82 146.87
  Z
  M 112.54 89.44
  A 0.45 0.45 0.0 0 0 112.09 88.99
  L 83.45 88.99
  A 0.45 0.45 0.0 0 0 83.00 89.44
  L 83.00 208.94
  A 0.45 0.45 0.0 0 0 83.45 209.39
  L 112.09 209.39
  A 0.45 0.45 0.0 0 0 112.54 208.94
  L 112.54 89.44
  Z"
/>
<path fill="#fa7e82" fill-opacity="0.996" d="
  M 162.50 9.77
  A 137.68 137.53 -31.6 0 1 192.23 16.81
  A 138.12 138.12 0.0 0 1 251.12 57.65
  A 138.11 137.99 16.8 0 1 278.25 108.27
  A 138.26 138.26 0.0 0 1 283.39 137.24
  Q 280.87 113.68 273.20 95.27
  Q 254.14 49.49 210.67 25.70
  Q 188.59 13.61 163.00 10.34
  Q 162.55 10.28 162.50 9.77
  Z"
/>
<path fill="#000000" d="
  M 151.82 146.87
  Q 151.73 146.54 151.43 146.36
  C 136.45 137.37 134.04 117.21 142.97 103.25
  C 151.39 90.09 168.38 85.56 183.37 88.52
  C 199.84 91.77 211.47 105.04 210.95 122.02
  Q 210.47 137.94 197.00 146.65
  A 0.51 0.50 -49.8 0 0 197.07 147.54
  Q 204.44 150.73 209.08 156.77
  Q 211.12 159.42 213.11 164.30
  C 214.31 167.26 214.05 170.10 214.66 173.15
  Q 214.98 174.73 214.87 176.34
  C 213.68 193.30 202.54 205.92 185.84 209.64
  C 172.16 212.70 154.96 210.82 144.36 200.61
  C 135.53 192.11 132.57 180.95 134.43 168.84
  C 135.91 159.17 142.42 151.64 151.45 147.63
  A 0.65 0.65 0.0 0 0 151.82 146.87
  Z
  M 190.86 147.72
  A 0.52 0.51 -47.0 0 1 190.83 146.82
  Q 195.65 143.90 198.99 141.18
  C 208.78 133.21 210.15 118.87 204.97 108.00
  C 193.53 83.99 152.45 85.20 142.88 110.18
  C 139.09 120.06 140.47 131.93 148.01 139.73
  C 150.83 142.65 154.32 144.56 157.54 146.94
  A 0.47 0.46 49.6 0 1 157.48 147.73
  Q 153.41 149.84 149.46 152.20
  C 142.80 156.17 138.42 162.39 137.34 169.97
  C 134.52 189.78 146.82 204.43 165.98 207.29
  C 185.83 210.26 206.78 202.42 211.20 180.85
  Q 212.36 175.19 210.79 167.45
  Q 210.47 165.92 209.80 164.52
  C 208.53 161.87 207.67 159.21 205.37 157.29
  C 203.52 155.75 202.08 153.82 199.96 152.62
  Q 195.40 150.04 190.86 147.72
  Z"
/>
<path fill="#000000" d="
  M 112.54 208.94
  A 0.45 0.45 0.0 0 1 112.09 209.39
  L 83.45 209.39
  A 0.45 0.45 0.0 0 1 83.00 208.94
  L 83.00 89.44
  A 0.45 0.45 0.0 0 1 83.45 88.99
  L 112.09 88.99
  A 0.45 0.45 0.0 0 1 112.54 89.44
  L 112.54 208.94
  Z
  M 109.74 92.33
  A 0.33 0.33 0.0 0 0 109.41 92.00
  L 86.33 92.00
  A 0.33 0.33 0.0 0 0 86.00 92.33
  L 86.00 206.15
  A 0.33 0.33 0.0 0 0 86.33 206.48
  L 109.41 206.48
  A 0.33 0.33 0.0 0 0 109.74 206.15
  L 109.74 92.33
  Z"
/>
<path fill="#ffffff" d="
  M 190.86 147.72
  Q 195.40 150.04 199.96 152.62
  C 202.08 153.82 203.52 155.75 205.37 157.29
  C 207.67 159.21 208.53 161.87 209.80 164.52
  Q 210.47 165.92 210.79 167.45
  Q 212.36 175.19 211.20 180.85
  C 206.78 202.42 185.83 210.26 165.98 207.29
  C 146.82 204.43 134.52 189.78 137.34 169.97
  C 138.42 162.39 142.80 156.17 149.46 152.20
  Q 153.41 149.84 157.48 147.73
  A 0.47 0.46 49.6 0 0 157.54 146.94
  C 154.32 144.56 150.83 142.65 148.01 139.73
  C 140.47 131.93 139.09 120.06 142.88 110.18
  C 152.45 85.20 193.53 83.99 204.97 108.00
  C 210.15 118.87 208.78 133.21 198.99 141.18
  Q 195.65 143.90 190.83 146.82
  A 0.52 0.51 -47.0 0 0 190.86 147.72
  Z
  M 176.25 141.70
  C 187.72 140.14 187.24 121.67 185.33 113.47
  C 184.30 109.06 181.08 104.90 176.29 104.29
  C 161.65 102.42 161.55 120.84 163.07 130.07
  C 164.22 137.02 168.36 142.77 176.25 141.70
  Z
  M 186.72 184.69
  Q 189.85 174.73 186.68 164.29
  C 184.59 157.37 178.34 153.17 171.02 155.00
  C 159.85 157.80 159.20 174.68 161.48 183.45
  C 162.63 187.86 165.82 192.55 170.39 193.87
  C 178.06 196.09 184.39 192.11 186.72 184.69
  Z"
/>
<rect fill="#ffffff" x="86.00" y="92.00" width="23.74" height="114.48" rx="0.33"/>
<path fill="#000000" d="
  M 185.33 113.47
  C 187.24 121.67 187.72 140.14 176.25 141.70
  C 168.36 142.77 164.22 137.02 163.07 130.07
  C 161.55 120.84 161.65 102.42 176.29 104.29
  C 181.08 104.90 184.30 109.06 185.33 113.47
  Z
  M 166.27 115.04
  C 164.92 121.08 164.17 137.86 173.67 138.68
  C 184.46 139.61 183.70 123.28 182.74 115.85
  C 181.97 109.80 177.06 105.22 170.76 108.16
  C 168.21 109.35 166.86 112.41 166.27 115.04
  Z"
/>
<path fill="#ff0000" d="
  M 173.67 138.68
  C 164.17 137.86 164.92 121.08 166.27 115.04
  C 166.86 112.41 168.21 109.35 170.76 108.16
  C 177.06 105.22 181.97 109.80 182.74 115.85
  C 183.70 123.28 184.46 139.61 173.67 138.68
  Z"
/>
<path fill="#fa7e82" fill-opacity="0.996" d="
  M 283.61 141.18
  A 78.91 44.89 -89.9 0 1 283.60 152.34
  Q 282.77 146.79 283.61 141.18
  Z"
/>
<path fill="#fa7e82" fill-opacity="0.996" d="
  M 7.77 148.49
  Q 9.13 154.71 8.48 160.88
  A 87.75 54.94 86.6 0 1 7.77 148.49
  Z"
/>
<path fill="#000000" d="
  M 186.72 184.69
  C 184.39 192.11 178.06 196.09 170.39 193.87
  C 165.82 192.55 162.63 187.86 161.48 183.45
  C 159.20 174.68 159.85 157.80 171.02 155.00
  C 178.34 153.17 184.59 157.37 186.68 164.29
  Q 189.85 174.73 186.72 184.69
  Z
  M 171.66 190.88
  C 172.73 191.09 173.64 191.58 174.76 191.45
  C 185.88 190.07 185.94 175.85 184.48 167.85
  C 183.57 162.87 180.14 157.64 174.67 157.74
  C 163.00 157.95 162.48 173.28 164.22 181.73
  C 164.97 185.38 167.64 190.08 171.66 190.88
  Z"
/>
<path fill="#fa7e82" fill-opacity="0.996" d="
  M 283.33 157.11
  A 47.13 16.97 -83.9 0 1 282.66 163.74
  Q 282.48 163.51 282.34 163.26
  Q 282.21 163.02 282.22 162.71
  Q 282.29 159.78 283.33 157.11
  Z"
/>
<path fill="#ff0000" d="
  M 171.66 190.88
  C 167.64 190.08 164.97 185.38 164.22 181.73
  C 162.48 173.28 163.00 157.95 174.67 157.74
  C 180.14 157.64 183.57 162.87 184.48 167.85
  C 185.94 175.85 185.88 190.07 174.76 191.45
  C 173.64 191.58 172.73 191.09 171.66 190.88
  Z"
/>
<path fill="#fa7e82" fill-opacity="0.996" d="
  M 8.72 162.98
  Q 9.98 168.49 11.05 174.02
  Q 11.79 177.80 12.62 180.96
  Q 13.50 184.28 14.56 187.67
  Q 20.45 206.72 31.86 223.79
  Q 31.93 223.90 31.90 224.02
  Q 31.85 224.21 31.62 224.28
  A 138.40 138.10 16.9 0 1 17.96 198.81
  A 138.22 138.17 -59.5 0 1 8.72 162.98
  Z"
/>
<path fill="#fa7e82" fill-opacity="0.996" d="
  M 282.46 165.33
  A 138.04 137.95 69.9 0 1 248.17 239.17
  A 138.67 137.64 -88.3 0 1 232.61 253.93
  Q 235.84 250.60 239.20 247.46
  Q 243.95 243.03 245.81 241.03
  Q 270.50 214.62 279.24 179.37
  Q 279.45 178.55 280.61 172.31
  Q 281.29 168.63 282.46 165.33
  Z"
/>
<path fill="#fa7e82" fill-opacity="0.996" d="
  M 32.87 226.10
  Q 35.42 228.57 37.60 231.43
  Q 40.39 235.11 42.09 236.94
  C 44.89 239.96 47.52 243.22 50.50 245.97
  Q 59.94 254.68 68.68 260.54
  Q 98.65 280.64 134.49 283.83
  Q 134.91 283.86 135.19 284.30
  A 8.51 0.99 4.3 0 1 133.99 284.21
  A 137.99 137.92 66.2 0 1 61.49 256.00
  A 137.99 137.90 1.3 0 1 32.87 226.10
  Z"
/>
<path fill="#fa7e82" fill-opacity="0.996" d="
  M 232.61 253.93
  A 138.02 137.93 -68.5 0 1 165.17 283.33
  Q 165.11 283.22 165.12 283.05
  Q 165.12 282.86 165.31 282.83
  Q 184.58 279.95 200.52 272.75
  Q 216.34 265.61 224.37 259.62
  Q 230.11 255.34 232.61 253.93
  Z"
/>
<path fill="#fa7e82" fill-opacity="0.996" d="
  M 162.99 283.62
  A 51.74 19.06 -5.7 0 1 155.71 284.35
  Q 159.17 283.20 162.99 283.62
  Z"
/>
<path fill="#fa7e82" fill-opacity="0.996" d="
  M 150.11 284.64
  A 60.04 24.93 -0.6 0 1 141.62 284.65
  Q 145.87 283.69 150.11 284.64
  Z"
/>
</svg>
