<?xml version="1.0" encoding="UTF-8" standalone="no"?>
<!DOCTYPE svg PUBLIC "-//W3C//DTD SVG 1.1//EN" "http://www.w3.org/Graphics/SVG/1.1/DTD/svg11.dtd">
<svg xmlns="http://www.w3.org/2000/svg" version="1.1" viewBox="0.00 0.00 292.00 293.00">
<g stroke-width="2.00" fill="none" stroke-linecap="butt">
<path stroke="#004080" vector-effect="non-scaling-stroke" d="
  M 172.89 181.32
  Q 163.02 185.91 150.96 185.50
  Q 137.11 185.03 127.18 179.90
  C 114.88 173.55 107.82 162.44 107.31 148.65
  C 106.73 132.58 114.95 118.00 129.78 111.30
  Q 136.43 108.29 143.75 107.21
  C 165.46 104.01 186.67 109.78 206.62 119.29
  A 0.40 0.40 0.0 0 0 207.19 118.93
  L 207.23 87.81
  A 1.69 1.68 -78.3 0 0 206.22 86.26
  Q 188.64 78.51 168.82 76.15
  C 165.17 75.72 161.58 75.71 157.98 75.39
  Q 153.60 75.00 149.84 75.28
  Q 144.05 75.72 138.10 76.15
  C 133.60 76.47 129.22 77.80 124.79 78.75
  C 118.39 80.13 113.06 82.74 107.24 85.30
  C 103.36 87.01 100.12 89.64 96.62 91.96
  Q 93.05 94.34 89.68 97.77
  Q 85.74 101.80 83.10 105.26
  Q 74.63 116.37 71.44 130.62
  Q 68.73 142.77 70.43 155.88
  Q 71.06 160.79 72.54 165.49
  Q 74.06 170.33 75.75 174.14
  Q 78.95 181.34 84.27 187.87
  C 93.27 198.92 105.33 206.71 118.70 211.23
  Q 123.13 212.73 128.61 214.01
  C 136.53 215.85 145.23 216.50 153.01 216.46
  Q 174.62 216.36 195.25 207.39
  Q 202.93 204.05 209.27 198.19
  A 2.23 2.22 68.8 0 0 209.99 196.55
  L 210.00 140.84
  A 0.41 0.41 0.0 0 0 209.59 140.43
  L 154.07 140.44
  Q 153.82 140.44 153.82 140.68
  L 153.83 167.63
  A 0.36 0.36 0.0 0 0 154.19 167.99
  L 172.95 168.00
  Q 173.39 168.00 173.39 168.45
  L 173.38 180.55
  Q 173.37 181.09 172.89 181.32"
/>
<path stroke="#808080" vector-effect="non-scaling-stroke" d="
  M 176.26 165.63
  L 176.26 182.76
  Q 176.26 183.35 175.71 183.59
  Q 165.57 188.04 156.97 188.45
  C 145.89 188.99 134.68 187.42 125.00 182.24
  Q 107.88 173.07 104.89 154.31
  Q 101.71 134.42 114.10 119.19
  C 119.13 113.02 127.07 108.27 135.25 105.92
  Q 138.52 104.98 141.60 104.43
  Q 153.86 102.27 168.20 104.07
  C 180.13 105.56 192.37 109.31 203.60 114.63
  Q 204.27 114.94 204.27 114.20
  L 204.26 89.34
  Q 204.25 88.86 203.82 88.67
  Q 196.85 85.68 193.76 84.70
  Q 165.40 75.67 136.10 79.51
  Q 132.02 80.04 123.27 82.31
  C 118.74 83.49 114.95 85.38 110.68 87.16
  C 105.30 89.39 100.13 93.15 95.59 96.67
  Q 92.38 99.16 88.48 103.57
  C 80.74 112.32 75.45 123.58 73.80 134.73
  Q 68.53 170.29 94.50 194.26
  Q 96.79 196.37 104.02 201.05
  Q 106.64 202.74 109.20 203.89
  C 113.89 205.99 118.43 208.24 123.32 209.47
  C 128.47 210.76 133.56 212.26 138.88 212.63
  C 144.43 213.01 149.94 213.68 155.44 213.45
  Q 174.31 212.65 191.69 205.59
  Q 200.01 202.21 206.33 196.72
  A 2.01 1.99 -20.9 0 0 207.01 195.22
  L 207.00 143.75
  Q 207.00 143.25 206.50 143.25
  L 157.25 143.25
  Q 156.74 143.25 156.74 143.76
  L 156.74 164.49
  A 0.51 0.50 90.0 0 0 157.24 165.00
  L 175.63 165.00
  Q 176.26 165.00 176.26 165.63"
/>
</g>
<path fill="#0080ff" d="
  M 283.69 146.74
  A 137.96 137.96 0.0 0 1 145.73 284.70
  A 137.96 137.96 0.0 0 1 7.77 146.74
  A 137.96 137.96 0.0 0 1 145.73 8.78
  A 137.96 137.96 0.0 0 1 283.69 146.74
  Z
  M 172.89 181.32
  Q 163.02 185.91 150.96 185.50
  Q 137.11 185.03 127.18 179.90
  C 114.88 173.55 107.82 162.44 107.31 148.65
  C 106.73 132.58 114.95 118.00 129.78 111.30
  Q 136.43 108.29 143.75 107.21
  C 165.46 104.01 186.67 109.78 206.62 119.29
  A 0.40 0.40 0.0 0 0 207.19 118.93
  L 207.23 87.81
  A 1.69 1.68 -78.3 0 0 206.22 86.26
  Q 188.64 78.51 168.82 76.15
  C 165.17 75.72 161.58 75.71 157.98 75.39
  Q 153.60 75.00 149.84 75.28
  Q 144.05 75.72 138.10 76.15
  C 133.60 76.47 129.22 77.80 124.79 78.75
  C 118.39 80.13 113.06 82.74 107.24 85.30
  C 103.36 87.01 100.12 89.64 96.62 91.96
  Q 93.05 94.34 89.68 97.77
  Q 85.74 101.80 83.10 105.26
  Q 74.63 116.37 71.44 130.62
  Q 68.73 142.77 70.43 155.88
  Q 71.06 160.79 72.54 165.49
  Q 74.06 170.33 75.75 174.14
  Q 78.95 181.34 84.27 187.87
  C 93.27 198.92 105.33 206.71 118.70 211.23
  Q 123.13 212.73 128.61 214.01
  C 136.53 215.85 145.23 216.50 153.01 216.46
  Q 174.62 216.36 195.25 207.39
  Q 202.93 204.05 209.27 198.19
  A 2.23 2.22 68.8 0 0 209.99 196.55
  L 210.00 140.84
  A 0.41 0.41 0.0 0 0 209.59 140.43
  L 154.07 140.44
  Q 153.82 140.44 153.82 140.68
  L 153.83 167.63
  A 0.36 0.36 0.0 0 0 154.19 167.99
  L 172.95 168.00
  Q 173.39 168.00 173.39 168.45
  L 173.38 180.55
  Q 173.37 181.09 172.89 181.32
  Z"
/>
<path fill="#000000" d="
  M 173.38 180.55
  L 173.39 168.45
  Q 173.39 168.00 172.95 168.00
  L 154.19 167.99
  A 0.36 0.36 0.0 0 1 153.83 167.63
  L 153.82 140.68
  Q 153.82 140.44 154.07 140.44
  L 209.59 140.43
  A 0.41 0.41 0.0 0 1 210.00 140.84
  L 209.99 196.55
  A 2.23 2.22 68.8 0 1 209.27 198.19
  Q 202.93 204.05 195.25 207.39
  Q 174.62 216.36 153.01 216.46
  C 145.23 216.50 136.53 215.85 128.61 214.01
  Q 123.13 212.73 118.70 211.23
  C 105.33 206.71 93.27 198.92 84.27 187.87
  Q 78.95 181.34 75.75 174.14
  Q 74.06 170.33 72.54 165.49
  Q 71.06 160.79 70.43 155.88
  Q 68.73 142.77 71.44 130.62
  Q 74.63 116.37 83.10 105.26
  Q 85.74 101.80 89.68 97.77
  Q 93.05 94.34 96.62 91.96
  C 100.12 89.64 103.36 87.01 107.24 85.30
  C 113.06 82.74 118.39 80.13 124.79 78.75
  C 129.22 77.80 133.60 76.47 138.10 76.15
  Q 144.05 75.72 149.84 75.28
  Q 153.60 75.00 157.98 75.39
  C 161.58 75.71 165.17 75.72 168.82 76.15
  Q 188.64 78.51 206.22 86.26
  A 1.69 1.68 -78.3 0 1 207.23 87.81
  L 207.19 118.93
  A 0.40 0.40 0.0 0 1 206.62 119.29
  C 186.67 109.78 165.46 104.01 143.75 107.21
  Q 136.43 108.29 129.78 111.30
  C 114.95 118.00 106.73 132.58 107.31 148.65
  C 107.82 162.44 114.88 173.55 127.18 179.90
  Q 137.11 185.03 150.96 185.50
  Q 163.02 185.91 172.89 181.32
  Q 173.37 181.09 173.38 180.55
  Z
  M 176.26 165.63
  L 176.26 182.76
  Q 176.26 183.35 175.71 183.59
  Q 165.57 188.04 156.97 188.45
  C 145.89 188.99 134.68 187.42 125.00 182.24
  Q 107.88 173.07 104.89 154.31
  Q 101.71 134.42 114.10 119.19
  C 119.13 113.02 127.07 108.27 135.25 105.92
  Q 138.52 104.98 141.60 104.43
  Q 153.86 102.27 168.20 104.07
  C 180.13 105.56 192.37 109.31 203.60 114.63
  Q 204.27 114.94 204.27 114.20
  L 204.26 89.34
  Q 204.25 88.86 203.82 88.67
  Q 196.85 85.68 193.76 84.70
  Q 165.40 75.67 136.10 79.51
  Q 132.02 80.04 123.27 82.31
  C 118.74 83.49 114.95 85.38 110.68 87.16
  C 105.30 89.39 100.13 93.15 95.59 96.67
  Q 92.38 99.16 88.48 103.57
  C 80.74 112.32 75.45 123.58 73.80 134.73
  Q 68.53 170.29 94.50 194.26
  Q 96.79 196.37 104.02 201.05
  Q 106.64 202.74 109.20 203.89
  C 113.89 205.99 118.43 208.24 123.32 209.47
  C 128.47 210.76 133.56 212.26 138.88 212.63
  C 144.43 213.01 149.94 213.68 155.44 213.45
  Q 174.31 212.65 191.69 205.59
  Q 200.01 202.21 206.33 196.72
  A 2.01 1.99 -20.9 0 0 207.01 195.22
  L 207.00 143.75
  Q 207.00 143.25 206.50 143.25
  L 157.25 143.25
  Q 156.74 143.25 156.74 143.76
  L 156.74 164.49
  A 0.51 0.50 90.0 0 0 157.24 165.00
  L 175.63 165.00
  Q 176.26 165.00 176.26 165.63
  Z"
/>
<path fill="#ffffff" d="
  M 175.63 165.00
  L 157.24 165.00
  A 0.51 0.50 90.0 0 1 156.74 164.49
  L 156.74 143.76
  Q 156.74 143.25 157.25 143.25
  L 206.50 143.25
  Q 207.00 143.25 207.00 143.75
  L 207.01 195.22
  A 2.01 1.99 -20.9 0 1 206.33 196.72
  Q 200.01 202.21 191.69 205.59
  Q 174.31 212.65 155.44 213.45
  C 149.94 213.68 144.43 213.01 138.88 212.63
  C 133.56 212.26 128.47 210.76 123.32 209.47
  C 118.43 208.24 113.89 205.99 109.20 203.89
  Q 106.64 202.74 104.02 201.05
  Q 96.79 196.37 94.50 194.26
  Q 68.53 170.29 73.80 134.73
  C 75.45 123.58 80.74 112.32 88.48 103.57
  Q 92.38 99.16 95.59 96.67
  C 100.13 93.15 105.30 89.39 110.68 87.16
  C 114.95 85.38 118.74 83.49 123.27 82.31
  Q 132.02 80.04 136.10 79.51
  Q 165.40 75.67 193.76 84.70
  Q 196.85 85.68 203.82 88.67
  Q 204.25 88.86 204.26 89.34
  L 204.27 114.20
  Q 204.27 114.94 203.60 114.63
  C 192.37 109.31 180.13 105.56 168.20 104.07
  Q 153.86 102.27 141.60 104.43
  Q 138.52 104.98 135.25 105.92
  C 127.07 108.27 119.13 113.02 114.10 119.19
  Q 101.71 134.42 104.89 154.31
  Q 107.88 173.07 125.00 182.24
  C 134.68 187.42 145.89 188.99 156.97 188.45
  Q 165.57 188.04 175.71 183.59
  Q 176.26 183.35 176.26 182.76
  L 176.26 165.63
  Q 176.26 165.00 175.63 165.00
  Z"
/>
</svg>
