<svg xmlns="http://www.w3.org/2000/svg" version="1.1" viewBox="7.14 8.14 277.18 277.18"><rect id="backgroundrect" width="100%" height="100%" x="0" y="0" fill="none" stroke="none"/>









<g class="currentLayer" style=""><title>Layer 1</title><g stroke-width="2.00" fill="none" stroke-linecap="butt" id="svg_1">
<path stroke="#80cca4" vector-effect="non-scaling-stroke" d="   M 283.32 146.73   A 137.59 137.59 0.0 0 0 145.73 9.14   A 137.59 137.59 0.0 0 0 8.14 146.73   A 137.59 137.59 0.0 0 0 145.73 284.32   A 137.59 137.59 0.0 0 0 283.32 146.73" id="svg_2"/>
<path stroke="#0e5932" vector-effect="non-scaling-stroke" d="   M 208.27 161.98   Q 209.06 161.98 209.05 162.77   L 209.01 177.93   Q 209.01 178.52 208.49 178.79   C 201.51 182.45 193.01 181.56 187.36 175.87   Q 182.31 170.78 180.27 160.38   Q 179.99 158.97 179.65 157.30   Q 179.32 155.69 179.29 154.16   Q 179.15 147.30 179.29 140.19   C 179.33 137.93 180.04 135.58 180.44 133.29   C 182.07 123.97 187.67 115.13 196.80 111.84   C 198.92 111.08 201.32 110.86 203.57 110.51   Q 205.79 110.17 208.83 110.56   Q 211.79 110.95 214.41 111.53   C 221.05 112.99 227.46 117.93 232.89 122.32   Q 233.49 122.81 233.49 122.04   L 233.51 95.80   A 0.61 0.61 0.0 0 0 233.14 95.24   Q 226.06 92.17 218.91 88.86   Q 218.11 88.49 215.24 88.04   Q 210.05 87.23 204.51 86.44   Q 202.08 86.10 200.06 86.36   Q 197.60 86.69 195.34 86.81   Q 192.22 86.98 188.70 88.09   Q 178.40 91.34 172.03 96.50   Q 158.21 107.69 152.89 126.59   C 152.09 129.44 151.25 132.59 150.96 135.51   C 150.40 141.20 149.72 146.48 150.26 152.42   Q 150.79 158.26 151.27 160.95   Q 153.13 171.40 157.88 179.99   Q 162.99 189.25 171.36 195.73   Q 179.06 201.69 188.50 203.86   C 205.52 207.75 223.03 202.34 237.06 191.69   Q 237.49 191.36 237.49 190.82   L 237.49 140.29   Q 237.49 139.85 237.04 139.85   L 197.08 139.89   Q 196.51 139.89 196.51 140.47   L 196.51 161.25   Q 196.51 162.00 197.25 162.00   L 208.27 161.98" id="svg_3"/>
<path stroke="#0e5932" vector-effect="non-scaling-stroke" d="   M 93.57 157.49   Q 100.54 157.58 107.54 157.26   C 112.76 157.02 118.09 155.76 122.75 153.69   Q 135.96 147.82 139.97 133.42   C 143.32 121.42 140.73 108.26 132.18 99.06   C 125.29 91.64 114.67 87.88 104.62 87.81   Q 85.66 87.70 64.98 87.81   A 0.24 0.24 0.0 0 0 64.74 88.05   L 64.73 202.99   Q 64.73 203.99 65.74 203.99   L 92.23 203.97   A 0.95 0.94 90.0 0 0 93.17 203.02   L 93.23 157.82   A 0.33 0.33 0.0 0 1 93.57 157.49" id="svg_4"/>
<path stroke="#8e8c8c" vector-effect="non-scaling-stroke" d="   M 211.50 159.01   A 0.50 0.49 0.0 0 1 212.00 159.50   L 212.00 180.04   A 0.77 0.75 -15.0 0 1 211.61 180.70   C 204.78 184.49 196.04 185.30 189.31 181.24   C 180.89 176.17 177.44 165.37 176.51 155.85   C 174.59 136.24 178.31 109.43 203.20 107.55   C 213.63 106.76 221.91 110.01 230.04 116.39   Q 230.73 116.93 230.73 116.06   L 230.73 97.98   A 0.81 0.79 11.9 0 0 230.24 97.25   Q 225.47 95.24 220.96 93.05   Q 217.41 91.33 212.81 90.57   Q 205.18 89.32 201.20 89.38   Q 187.29 89.56 175.47 97.81   C 173.22 99.38 171.65 101.09 169.65 102.87   Q 167.54 104.76 165.81 107.09   Q 159.51 115.53 156.65 124.47   Q 151.34 141.10 153.95 158.58   Q 155.77 170.76 161.83 180.54   C 172.35 197.51 189.97 204.85 209.32 201.22   Q 222.22 198.79 234.19 190.09   Q 234.73 189.69 234.73 189.02   L 234.73 143.23   Q 234.73 142.73 234.23 142.73   L 199.77 142.73   Q 199.27 142.73 199.27 143.23   L 199.27 158.26   A 0.74 0.74 0.0 0 0 200.01 159.00   L 211.50 159.01" id="svg_5"/>
<path stroke="#8e8c8c" vector-effect="non-scaling-stroke" d="   M 91.06 154.67   C 107.19 155.22 127.35 154.71 135.26 137.57   C 140.57 126.07 139.16 112.23 131.11 102.46   Q 123.97 93.78 111.44 91.67   Q 104.62 90.52 102.49 90.52   Q 83.87 90.48 67.99 90.55   Q 67.51 90.55 67.51 91.03   L 67.51 200.52   A 0.51 0.51 0.0 0 0 68.02 201.03   L 89.77 201.03   Q 90.31 201.03 90.31 200.48   L 90.26 155.45   Q 90.26 154.64 91.06 154.67" id="svg_6"/>
<path stroke="#8e8c8c" vector-effect="non-scaling-stroke" d="   M 90.32 107.31   L 90.22 137.99   A 0.24 0.24 0.0 0 0 90.46 138.23   L 100.99 138.26   A 14.75 13.84 0.2 0 0 115.78 124.47   L 115.80 120.99   A 14.75 13.84 0.2 0 0 101.09 107.10   L 90.56 107.07   A 0.24 0.24 0.0 0 0 90.32 107.31" id="svg_7"/>
<path stroke="#0e5932" vector-effect="non-scaling-stroke" d="   M 93.21 110.36   L 93.21 135.06   A 0.28 0.28 0.0 0 0 93.49 135.34   L 100.66 135.34   A 12.09 10.90 0.0 0 0 112.75 124.44   L 112.75 120.98   A 12.09 10.90 -0.0 0 0 100.66 110.08   L 93.49 110.08   A 0.28 0.28 0.0 0 0 93.21 110.36" id="svg_8"/>
</g><path fill="#00994a" d="   M 283.32 146.73   A 137.59 137.59 0.0 0 1 145.73 284.32   A 137.59 137.59 0.0 0 1 8.14 146.73   A 137.59 137.59 0.0 0 1 145.73 9.14   A 137.59 137.59 0.0 0 1 283.32 146.73   Z   M 208.27 161.98   Q 209.06 161.98 209.05 162.77   L 209.01 177.93   Q 209.01 178.52 208.49 178.79   C 201.51 182.45 193.01 181.56 187.36 175.87   Q 182.31 170.78 180.27 160.38   Q 179.99 158.97 179.65 157.30   Q 179.32 155.69 179.29 154.16   Q 179.15 147.30 179.29 140.19   C 179.33 137.93 180.04 135.58 180.44 133.29   C 182.07 123.97 187.67 115.13 196.80 111.84   C 198.92 111.08 201.32 110.86 203.57 110.51   Q 205.79 110.17 208.83 110.56   Q 211.79 110.95 214.41 111.53   C 221.05 112.99 227.46 117.93 232.89 122.32   Q 233.49 122.81 233.49 122.04   L 233.51 95.80   A 0.61 0.61 0.0 0 0 233.14 95.24   Q 226.06 92.17 218.91 88.86   Q 218.11 88.49 215.24 88.04   Q 210.05 87.23 204.51 86.44   Q 202.08 86.10 200.06 86.36   Q 197.60 86.69 195.34 86.81   Q 192.22 86.98 188.70 88.09   Q 178.40 91.34 172.03 96.50   Q 158.21 107.69 152.89 126.59   C 152.09 129.44 151.25 132.59 150.96 135.51   C 150.40 141.20 149.72 146.48 150.26 152.42   Q 150.79 158.26 151.27 160.95   Q 153.13 171.40 157.88 179.99   Q 162.99 189.25 171.36 195.73   Q 179.06 201.69 188.50 203.86   C 205.52 207.75 223.03 202.34 237.06 191.69   Q 237.49 191.36 237.49 190.82   L 237.49 140.29   Q 237.49 139.85 237.04 139.85   L 197.08 139.89   Q 196.51 139.89 196.51 140.47   L 196.51 161.25   Q 196.51 162.00 197.25 162.00   L 208.27 161.98   Z   M 93.57 157.49   Q 100.54 157.58 107.54 157.26   C 112.76 157.02 118.09 155.76 122.75 153.69   Q 135.96 147.82 139.97 133.42   C 143.32 121.42 140.73 108.26 132.18 99.06   C 125.29 91.64 114.67 87.88 104.62 87.81   Q 85.66 87.70 64.98 87.81   A 0.24 0.24 0.0 0 0 64.74 88.05   L 64.73 202.99   Q 64.73 203.99 65.74 203.99   L 92.23 203.97   A 0.95 0.94 90.0 0 0 93.17 203.02   L 93.23 157.82   A 0.33 0.33 0.0 0 1 93.57 157.49   Z" id="svg_10"/><path fill="#1c1919" d="   M 208.27 161.98   L 197.25 162.00   Q 196.51 162.00 196.51 161.25   L 196.51 140.47   Q 196.51 139.89 197.08 139.89   L 237.04 139.85   Q 237.49 139.85 237.49 140.29   L 237.49 190.82   Q 237.49 191.36 237.06 191.69   C 223.03 202.34 205.52 207.75 188.50 203.86   Q 179.06 201.69 171.36 195.73   Q 162.99 189.25 157.88 179.99   Q 153.13 171.40 151.27 160.95   Q 150.79 158.26 150.26 152.42   C 149.72 146.48 150.40 141.20 150.96 135.51   C 151.25 132.59 152.09 129.44 152.89 126.59   Q 158.21 107.69 172.03 96.50   Q 178.40 91.34 188.70 88.09   Q 192.22 86.98 195.34 86.81   Q 197.60 86.69 200.06 86.36   Q 202.08 86.10 204.51 86.44   Q 210.05 87.23 215.24 88.04   Q 218.11 88.49 218.91 88.86   Q 226.06 92.17 233.14 95.24   A 0.61 0.61 0.0 0 1 233.51 95.80   L 233.49 122.04   Q 233.49 122.81 232.89 122.32   C 227.46 117.93 221.05 112.99 214.41 111.53   Q 211.79 110.95 208.83 110.56   Q 205.79 110.17 203.57 110.51   C 201.32 110.86 198.92 111.08 196.80 111.84   C 187.67 115.13 182.07 123.97 180.44 133.29   C 180.04 135.58 179.33 137.93 179.29 140.19   Q 179.15 147.30 179.29 154.16   Q 179.32 155.69 179.65 157.30   Q 179.99 158.97 180.27 160.38   Q 182.31 170.78 187.36 175.87   C 193.01 181.56 201.51 182.45 208.49 178.79   Q 209.01 178.52 209.01 177.93   L 209.05 162.77   Q 209.06 161.98 208.27 161.98   Z   M 211.50 159.01   A 0.50 0.49 0.0 0 1 212.00 159.50   L 212.00 180.04   A 0.77 0.75 -15.0 0 1 211.61 180.70   C 204.78 184.49 196.04 185.30 189.31 181.24   C 180.89 176.17 177.44 165.37 176.51 155.85   C 174.59 136.24 178.31 109.43 203.20 107.55   C 213.63 106.76 221.91 110.01 230.04 116.39   Q 230.73 116.93 230.73 116.06   L 230.73 97.98   A 0.81 0.79 11.9 0 0 230.24 97.25   Q 225.47 95.24 220.96 93.05   Q 217.41 91.33 212.81 90.57   Q 205.18 89.32 201.20 89.38   Q 187.29 89.56 175.47 97.81   C 173.22 99.38 171.65 101.09 169.65 102.87   Q 167.54 104.76 165.81 107.09   Q 159.51 115.53 156.65 124.47   Q 151.34 141.10 153.95 158.58   Q 155.77 170.76 161.83 180.54   C 172.35 197.51 189.97 204.85 209.32 201.22   Q 222.22 198.79 234.19 190.09   Q 234.73 189.69 234.73 189.02   L 234.73 143.23   Q 234.73 142.73 234.23 142.73   L 199.77 142.73   Q 199.27 142.73 199.27 143.23   L 199.27 158.26   A 0.74 0.74 0.0 0 0 200.01 159.00   L 211.50 159.01   Z" id="svg_11"/><path fill="#1c1919" d="   M 93.57 157.49   A 0.33 0.33 0.0 0 0 93.23 157.82   L 93.17 203.02   A 0.95 0.94 90.0 0 1 92.23 203.97   L 65.74 203.99   Q 64.73 203.99 64.73 202.99   L 64.74 88.05   A 0.24 0.24 0.0 0 1 64.98 87.81   Q 85.66 87.70 104.62 87.81   C 114.67 87.88 125.29 91.64 132.18 99.06   C 140.73 108.26 143.32 121.42 139.97 133.42   Q 135.96 147.82 122.75 153.69   C 118.09 155.76 112.76 157.02 107.54 157.26   Q 100.54 157.58 93.57 157.49   Z   M 91.06 154.67   C 107.19 155.22 127.35 154.71 135.26 137.57   C 140.57 126.07 139.16 112.23 131.11 102.46   Q 123.97 93.78 111.44 91.67   Q 104.62 90.52 102.49 90.52   Q 83.87 90.48 67.99 90.55   Q 67.51 90.55 67.51 91.03   L 67.51 200.52   A 0.51 0.51 0.0 0 0 68.02 201.03   L 89.77 201.03   Q 90.31 201.03 90.31 200.48   L 90.26 155.45   Q 90.26 154.64 91.06 154.67   Z" id="svg_12"/><path fill="#fffffe" d="   M 211.50 159.01   L 200.01 159.00   A 0.74 0.74 0.0 0 1 199.27 158.26   L 199.27 143.23   Q 199.27 142.73 199.77 142.73   L 234.23 142.73   Q 234.73 142.73 234.73 143.23   L 234.73 189.02   Q 234.73 189.69 234.19 190.09   Q 222.22 198.79 209.32 201.22   C 189.97 204.85 172.35 197.51 161.83 180.54   Q 155.77 170.76 153.95 158.58   Q 151.34 141.10 156.65 124.47   Q 159.51 115.53 165.81 107.09   Q 167.54 104.76 169.65 102.87   C 171.65 101.09 173.22 99.38 175.47 97.81   Q 187.29 89.56 201.20 89.38   Q 205.18 89.32 212.81 90.57   Q 217.41 91.33 220.96 93.05   Q 225.47 95.24 230.24 97.25   A 0.81 0.79 11.9 0 1 230.73 97.98   L 230.73 116.06   Q 230.73 116.93 230.04 116.39   C 221.91 110.01 213.63 106.76 203.20 107.55   C 178.31 109.43 174.59 136.24 176.51 155.85   C 177.44 165.37 180.89 176.17 189.31 181.24   C 196.04 185.30 204.78 184.49 211.61 180.70   A 0.77 0.75 -15.0 0 0 212.00 180.04   L 212.00 159.50   A 0.50 0.49 0.0 0 0 211.50 159.01   Z" id="svg_13"/><path fill="#fffffe" d="   M 90.26 155.45   L 90.31 200.48   Q 90.31 201.03 89.77 201.03   L 68.02 201.03   A 0.51 0.51 0.0 0 1 67.51 200.52   L 67.51 91.03   Q 67.51 90.55 67.99 90.55   Q 83.87 90.48 102.49 90.52   Q 104.62 90.52 111.44 91.67   Q 123.97 93.78 131.11 102.46   C 139.16 112.23 140.57 126.07 135.26 137.57   C 127.35 154.71 107.19 155.22 91.06 154.67   Q 90.26 154.64 90.26 155.45   Z   M 90.32 107.31   L 90.22 137.99   A 0.24 0.24 0.0 0 0 90.46 138.23   L 100.99 138.26   A 14.75 13.84 0.2 0 0 115.78 124.47   L 115.80 120.99   A 14.75 13.84 0.2 0 0 101.09 107.10   L 90.56 107.07   A 0.24 0.24 0.0 0 0 90.32 107.31   Z" id="svg_14"/><path fill="#1c1919" d="   M 90.32 107.31   A 0.24 0.24 0.0 0 1 90.56 107.07   L 101.09 107.10   A 14.75 13.84 0.2 0 1 115.80 120.99   L 115.78 124.47   A 14.75 13.84 0.2 0 1 100.99 138.26   L 90.46 138.23   A 0.24 0.24 0.0 0 1 90.22 137.99   L 90.32 107.31   Z   M 93.21 110.36   L 93.21 135.06   A 0.28 0.28 0.0 0 0 93.49 135.34   L 100.66 135.34   A 12.09 10.90 0.0 0 0 112.75 124.44   L 112.75 120.98   A 12.09 10.90 -0.0 0 0 100.66 110.08   L 93.49 110.08   A 0.28 0.28 0.0 0 0 93.21 110.36   Z" id="svg_15"/><path fill="#00994a" d="   M 93.21 110.36   A 0.28 0.28 0.0 0 1 93.49 110.08   L 100.66 110.08   A 12.09 10.90 -0.0 0 1 112.75 120.98   L 112.75 124.44   A 12.09 10.90 -0.0 0 1 100.66 135.34   L 93.49 135.34   A 0.28 0.28 0.0 0 1 93.21 135.06   L 93.21 110.36   Z" id="svg_16"/></g></svg>