<svg xmlns="http://www.w3.org/2000/svg" xmlns:xlink="http://www.w3.org/1999/xlink" version="1.1" id="Livello_1" x="0px" y="0px" style="enable-background:new 0 0 566.9 566.9;" xml:space="preserve" viewBox="26 26 514.9 514.9">
<style type="text/css">
	.st0{fill:#E00632;}
	.st1{fill:#FFFFFF;}
</style>
<g>
	<g>
		<g>
			<path class="st0" d="M283.5,540.9C141.5,540.9,26,425.4,26,283.5S141.5,26,283.5,26s257.4,115.5,257.4,257.4     S425.4,540.9,283.5,540.9z"/>
		</g>
		<g>
			<path class="st1" d="M135.7,265.6h-35.3v-46.4h90.4V435h-55.1L135.7,265.6L135.7,265.6z"/>
			<path class="st1" d="M203.1,274.9c0-28.9,23-59.8,73.2-59.8s73.2,30.9,73.2,60.1c0,24.2-14.3,35.6-21,41.1     c20.4,10.2,26.5,29.7,26.5,50.2c0,42.3-32.4,72.6-78.7,72.6s-78.7-30.3-78.7-72.6c0-20.4,6.1-39.9,26.5-50.2     c-6.7-5.5-21-16.9-21-41.1L203.1,274.9L203.1,274.9z M252.7,366.5c0,11.1,8.7,24.2,23.6,24.2s23.6-13.1,23.6-24.5     c0-11.7-8.5-24.8-23.6-24.8c-15.2,0-23.6,13.1-23.6,24.8L252.7,366.5L252.7,366.5z M256.4,279.9c0,11.4,9.3,19.5,19.8,19.5     s19.8-8.2,19.8-19.8s-9.3-19.8-19.8-19.8s-19.8,8.2-19.8,19.8V279.9z"/>
			<path class="st1" d="M431.5,333.3h35v32.6h-35v35.2h-32.6v-35.2h-35v-32.6h35v-35.2h32.6V333.3z"/>
		</g>
		<g>
			<path class="st1" d="M260.7,162.1l0.5-41.7l-12,41.7h-9.4l-12-41.7l0.4,41.7h-13v-55.5h18.2l11,36.6l11-36.6h18.3v55.5H260.7z"/>
			<path class="st1" d="M282.7,116v-9.5h12.5v9.5H282.7z M282.7,162.1v-41.6h12.5v41.6H282.7z"/>
			<path class="st1" d="M331,163.1c-16.2,0-29.2-12.7-29.2-29c0-16.2,12.9-28.7,29.1-28.7c10.2,0,19.2,4.7,24.6,13.4     c2.1,3.2,3,5,3.6,8.8h-14.8c-2.2-5.7-7.2-9.7-13.5-9.7c-9,0-14.8,7.7-14.8,16.2s5.8,16.5,14.9,16.5c6.3,0,10.7-3.8,13.4-9.3H359     C355.9,154.5,344.5,163.1,331,163.1z"/>
		</g>
	</g>
</g>
</svg>