<?xml version="1.0" encoding="utf-8"?>
<!-- Generator: Adobe Illustrator 22.1.0, SVG Export Plug-In . SVG Version: 6.00 Build 0)  -->
<svg version="1.1" id="Livello_1" xmlns="http://www.w3.org/2000/svg" xmlns:xlink="http://www.w3.org/1999/xlink" x="0px" y="0px"
	 viewBox="0 0 566.9 566.9" style="enable-background:new 0 0 566.9 566.9;" xml:space="preserve">
<style type="text/css">
	.st0{fill:#E65317;}
	.st1{fill:#FFFFFF;}
</style>
<g>
	<g>
		<g>
			<path class="st0" d="M283.5,540.9C141.5,540.9,26,425.4,26,283.5S141.5,26,283.5,26s257.4,115.5,257.4,257.4
				S425.4,540.9,283.5,540.9z"/>
		</g>
		<g>
			<path class="st1" d="M122.3,265.6H87v-46.4h90.4V435h-55.1C122.3,435,122.3,265.6,122.3,265.6z"/>
			<path class="st1" d="M278.9,397.1h-95.1v-40.2l96.5-137.6h51.3V354h23.9v43.2h-23.9V435h-52.8v-37.9H278.9z M282.4,353.9v-67.6
				l-43.2,67.6H282.4z"/>
			<path class="st1" d="M444.9,333.3h35v32.6h-35v35.2h-32.6v-35.2h-35v-32.6h35V298h32.6V333.3z"/>
		</g>
		<g>
			<path class="st1" d="M263,162l0.5-41.7l-12,41.7h-9.4l-12-41.7l0.4,41.7h-13v-55.5h18.2l11,36.6l11-36.6H276V162H263z"/>
			<path class="st1" d="M285,116v-9.5h12.5v9.5H285z M285,162v-41.6h12.5V162H285z"/>
			<path class="st1" d="M333.3,163.1c-16.2,0-29.2-12.7-29.2-29c0-16.2,12.9-28.7,29.1-28.7c10.2,0,19.2,4.7,24.6,13.4
				c2.1,3.2,3,5,3.6,8.8h-14.8c-2.2-5.7-7.2-9.7-13.5-9.7c-9,0-14.8,7.7-14.8,16.2c0,8.6,5.8,16.5,14.9,16.5
				c6.3,0,10.7-3.8,13.4-9.3h14.8C358.2,154.5,346.8,163.1,333.3,163.1z"/>
		</g>
	</g>
</g>
</svg>
