<svg xmlns="http://www.w3.org/2000/svg" xmlns:xlink="http://www.w3.org/1999/xlink" version="1.1" id="Livello_1" x="0px" y="0px" style="enable-background:new 0 0 566.9 566.9;" xml:space="preserve" viewBox="26 26 514.9 514.9">
<style type="text/css">
	.st0{fill:#05A358;}
	.st1{fill:#FFFFFF;}
</style>
<g>
	<g>
		<g>
			<path class="st0" d="M283.5,540.9C141.5,540.9,26,425.4,26,283.5S141.5,26,283.5,26s257.4,115.5,257.4,257.4     S425.4,540.9,283.5,540.9z"/>
		</g>
		<g>
			<path class="st1" d="M277.6,215.4l-39.1,53.4c-2.6,3.8-5.5,7.6-8.5,11.7c0.3,0.3,7-0.6,11.1-0.6c31.5,0,67.9,24.2,67.9,73.2     c0,49.3-38.2,82.2-83.7,82.2c-27.1,0-52.2-9.9-66.8-29.2c-13.7-15.5-18.4-37.6-18.4-54.2c0-21.9,9-41.1,19.8-57.7l53.7-78.7     L277.6,215.4L277.6,215.4z M194.5,357.2c0,19.8,15.7,29.7,29.2,29.7c16.3,0,30.3-12,30.3-29.2c0-14-10.5-29.5-30.3-29.5     c-17.5,0-29.2,13.4-29.2,28.6V357.2z"/>
			<path class="st1" d="M391.7,329.5h35v32.6h-35v35.2h-32.6v-35.2h-35v-32.6h35v-35.2h32.6V329.5z"/>
		</g>
		<g>
			<path class="st1" d="M258.7,162.1l0.5-41.7l-12,41.7h-9.4l-12-41.7l0.4,41.7h-13v-55.5h18.2l11,36.6l11-36.6h18.3v55.5H258.7z"/>
			<path class="st1" d="M280.7,116v-9.5h12.5v9.5H280.7z M280.7,162.1v-41.6h12.5v41.6H280.7z"/>
			<path class="st1" d="M329,163.1c-16.2,0-29.2-12.7-29.2-29c0-16.2,12.9-28.7,29.1-28.7c10.2,0,19.2,4.7,24.6,13.4     c2.1,3.2,3,5,3.6,8.8h-14.8c-2.2-5.7-7.2-9.7-13.5-9.7c-9,0-14.8,7.7-14.8,16.2s5.8,16.5,14.9,16.5c6.3,0,10.7-3.8,13.4-9.3H357     C353.8,154.5,342.4,163.1,329,163.1z"/>
		</g>
	</g>
</g>
</svg>