<svg xmlns="http://www.w3.org/2000/svg" xmlns:xlink="http://www.w3.org/1999/xlink" version="1.1" id="Livello_1" x="0px" y="0px" style="enable-background:new 0 0 566.9 566.9;" xml:space="preserve" viewBox="24.5 24.5 517.9 517.9">
<style type="text/css">
	.st0{fill:#FFFFFF;stroke:#000000;stroke-width:3;stroke-miterlimit:10;}
	.st1{fill:#020203;}
</style>
<g>
	<g>
		<g>
			<path class="st0" d="M283.5,540.9C141.5,540.9,26,425.4,26,283.5S141.5,26,283.5,26s257.4,115.5,257.4,257.4     S425.4,540.9,283.5,540.9z"/>
		</g>
		<g>
			<path class="st1" d="M256.1,263.8h-42.6v-48.4h140v48.4h-42.3v167.4h-55.1V263.8z"/>
		</g>
		<g>
			<path class="st1" d="M258.7,162l0.5-41.7l-12,41.7h-9.4l-12-41.7l0.4,41.7h-13v-55.5h18.2l11,36.6l11-36.6h18.3V162H258.7z"/>
			<path class="st1" d="M280.7,116v-9.5h12.5v9.5H280.7z M280.7,162v-41.6h12.5V162H280.7z"/>
			<path class="st1" d="M328.9,163.1c-16.2,0-29.2-12.7-29.2-29c0-16.2,12.9-28.7,29.1-28.7c10.2,0,19.2,4.7,24.6,13.4     c2.1,3.2,3,5,3.6,8.8h-14.8c-2.2-5.7-7.2-9.7-13.5-9.7c-9,0-14.8,7.7-14.8,16.2s5.8,16.5,14.9,16.5c6.3,0,10.7-3.8,13.4-9.3H357     C353.8,154.5,342.4,163.1,328.9,163.1z"/>
		</g>
	</g>
</g>
</svg>