<svg xmlns:svg="http://www.w3.org/2000/svg" xmlns="http://www.w3.org/2000/svg" viewBox="0 0 300 190.38" version="1.1"><g transform="translate(705.93493,-661.9555)"><path d="m-527.81 754.44 0-33.54-27.05 0 0 11.25 14.55 0 0 14.71c-4.78 2.98-9.54 4.2-15.94 4.2-7.41 0-12.52-1.97-16.36-6.51-4.24-4.98-6.39-11.79-6.39-21.5 0-9.6 2.26-16.57 6.94-21.46 3.58-3.68 8.77-5.75 14.31-5.75 5.29 0 9.03 0.91 11.84 3.08 1.68 1.15 4.11 3.39 6.18 8.15l10.9-5.27c-1.31-4.01-3.76-7.18-5.96-9.36-5.26-5-12.96-7.84-21.36-7.84-8.63 0-15.05 1.72-20.88 5.58-9.81 6.61-15.07 18.1-15.07 33.05 0 11.71 3.1 21.87 8.84 28.65 5.94 7.18 14.98 10.84 26.73 10.84 4.66 0 9.63-0.66 13.87-1.78 5-1.31 8.24-2.82 14.9-6.49l-0.04 0zm-75.72 74.21 0-9.12 8.3 0c-0.72 4.76-4.62 7.54-8.3 9.12m6.31-24.8 3.58 0 0 10.62-3.58 0 0-10.62zm11.16 10.62-3.56 0 0-10.62 3.56 0 0 10.62zm-24.72 1.99 3.8 0 0 11.3-3.8 0 0-11.3zm3.8-4.61-3.8 0 0-9.88 3.8 0 0 9.88zm18.92 7.68 8.3 0 0-5.06-2.82 0 0-15.23-7.05 0 0-3.81-4.01 0 0 3.81-7.07 0 0 15.23-2.82 0 0-17.13-10.75 0 0 35.01 10.75 0 0-2.12 2.81 3.33c5.41-3.1 7.89-8.01 8.93-13.15l0.32 0c1.04 5.14 3.52 10.05 8.93 13.15l3.81-4.51c-3.99-1.49-8.52-4.35-9.33-9.53m70.48-3.02 3.1 0 0 4.11-3.1 0 0-4.11zm6.17 0 3.02 0 0 4.11-3.02 0 0-4.11zm6.07 0 3.12 0 0 4.11-3.12 0 0-4.11zm-15.72 16.44 3.48 0 0-7.53 3.1 0 0 7.53 3.08 0 0-7.53 3.02 0 0 7.53 3.06 0 0-7.53 3.13 0 0 1.7c0 1.68-0.31 2.73-2.53 3.12l2.01 3.33c2.11-0.62 3.96-1.75 3.96-6.4l0-15.44-22.29 0 0 21.22zm10.8-34.98 0.71 0c1.11 2.58 2.81 4.88 4.71 6.79l-10.16 0c1.89-1.9 3.63-4.21 4.74-6.79m-6.49 8.42 0 3.04 13.67 0 0-3.04c1.36 1.13 2.71 2.08 4.01 2.76l3.13-4.18c-5.02-1.65-9.75-5.3-11.97-9.53l-3.99 0c-2.13 3.97-6.45 7.43-11.12 9.19 1.02-2.78 1.72-5.84 2.2-9.2l-3.62 0c-1.23 5.15-3.48 11.26-9.31 16.43l3.05 4.93c0.94-0.94 1.78-1.91 2.56-2.89l0 19.05 4.01 0 0-25.53c0.26-0.59 0.47-1.21 0.72-1.81l2.66 3.54c1.27-0.68 2.67-1.63 3.99-2.76m27.92 35.89-0.08 0.01-0.05 0.02c-2.85 0.49-16.12 0.81-33.33 0.98-37.02 0.37-92.24 0.05-100.66-0.99-32.49-1.47-59.35-24.69-69.56-56.64l273.15 0c-10.21 31.95-37.03 55.16-69.45 56.62M-622.99 671.98c9.09-1.46 121.73-1.46 134.03-0.02 41.58 1.88 74.07 39.3 74.07 85.19 0 6.93-0.83 13.62-2.23 20.07l-277.66 0c-1.4-6.44-2.23-13.14-2.23-20.07 0-45.89 32.51-83.29 74.02-85.17m217.06 85.17c0-49.25-35.11-90.62-79.89-94.12 0 0-2.17-0.11-3.45-0.17l0-0.05-0.03 0c-37.7-0.87-95.21-1.39-133.12-0.01l0 0.01-0.18 0 0 0.05c-1.13 0.06-3.41 0.17-3.41 0.17-44.81 3.51-79.9 44.87-79.9 94.12 0 50.71 37.25 92.58 83.32 94.23l0 0.08 0.05 0c37.79 0.88 95.37 1.4 133.16 0.03l0-0.03 0.14 0 0-0.08c46.09-1.65 83.35-43.52 83.35-94.23" fill="#00a650"/></g></svg>