<svg xmlns:svg="http://www.w3.org/2000/svg" xmlns="http://www.w3.org/2000/svg" viewBox="0 0 300 190.4" version="1.1"><g transform="translate(-540.10583,-627.65064)"><path d="m745.73 726.36 44.71 0 0-9.96-31.51-0.07c1.55-9.12 12.71-16.34 12.71-16.34 8.73-5.7 12.88-10.38 12.88-10.38 6.89-7.38 5.16-16.28 5.16-16.28-1.55-10.39-10.72-13.81-10.72-13.81-13.8-6.25-28.86-1.73-34.65 14.59 1.31 0.58 9.69 4.57 9.69 4.57 6.08-16.8 20.18-9.57 20.18-9.57 5.79 2.84 4.28 9.39 4.28 9.39-0.61 4.95-8.46 9.74-8.46 9.74-9.56 6.67-14.22 12.51-14.22 12.51-6.79 7.19-9.17 15.72-10.04 25.61m-123.35-32.76-13.57 0 0-24.25 13.57 0c0 0 9.7-0.13 9.73 12.25 0.03 12.33-9.73 12.01-9.73 12.01m20.66-13.39c-0.02-2.42-0.7-8.18-3.65-12.94 0 0-4.79-8.66-17.39-8.6l-23.96 0.01 0 67.69 10.76 0 0-22.11 13.59-0.02c12.59 0.07 16.99-8.54 16.99-8.54 3.84-6.17 3.64-14.02 3.63-14.05 0 0 0.03-0.59 0.02-1.45m70.79-21.52 0 10.26 9.07 0 0 57.45 11.42 0 0-67.71-20.49 0zm-52.77 3.74c-7.17 5.61-11.29 16.32-11.29 29.39 0 10.43 2.43 19.75 6.64 25.57 4.44 6.25 11.18 9.43 20.06 9.43 3.48 0 7.16-0.56 10.33-1.53 3.63-1.12 6.17-2.38 11.25-5.63l0-30.24-20.74 0 0 10.48 10.88 0 0 12.76 0.01-0.02c-3.43 2.44-6.87 3.5-11.51 3.5-5.43 0-9.1-1.68-11.87-5.49-3.1-4.21-4.67-10.59-4.67-18.97 0-8.37 1.76-14.94 5.06-18.96 2.58-3.07 6.35-4.83 10.35-4.83 3.92 0 6.54 0.8 8.51 2.59 1.84 1.41 3.35 3.73 4.51 6.89l0.14 0.37 8.62-4.89-0.08-0.24c-0.81-2.96-2.31-5.71-4.47-8.19-3.99-4.41-9.7-6.83-16.05-6.83-6.48 0-11.33 1.48-15.67 4.86m-19.4 131.93 0-9.12 8.31 0c-0.74 4.75-4.62 7.54-8.31 9.12m6.3-24.79 3.59 0 0 10.61-3.59 0 0-10.61zm11.17 10.61-3.57 0 0-10.61 3.57 0 0 10.61zm-24.74 1.99 3.8 0 0 11.29-3.8 0 0-11.29zm3.8-4.61-3.8 0 0-9.89 3.8 0 0 9.89zm18.94 7.67 8.29 0 0-5.06-2.83 0 0-15.23-7.03 0 0-3.82-4.01 0 0 3.82-7.08 0 0 15.23-2.81 0 0-17.12-10.74 0 0 35.01 10.74 0 0-2.12 2.79 3.34c5.42-3.1 7.91-8.01 8.93-13.16l0.32 0c1.07 5.15 3.51 10.06 8.93 13.16l3.8-4.52c-3.98-1.48-8.48-4.34-9.3-9.52m70.5-3.02 3.11 0 0 4.11-3.11 0 0-4.11zm6.17 0 3.01 0 0 4.11-3.01 0 0-4.11zm6.07 0 3.12 0 0 4.11-3.12 0 0-4.11zm-15.71 16.44 3.48 0 0-7.54 3.11 0 0 7.54 3.07 0 0-7.54 3.01 0 0 7.54 3.06 0 0-7.54 3.12 0 0 1.71c0 1.68-0.3 2.73-2.54 3.11l2.04 3.34c2.11-0.62 3.96-1.76 3.96-6.4l0-15.45-22.29 0 0 21.22zm10.78-34.98 0.73 0c1.1 2.57 2.8 4.89 4.71 6.78l-10.14 0c1.86-1.89 3.61-4.21 4.71-6.78m-6.48 8.41 0 3.05 13.69 0 0-3.05c1.34 1.13 2.7 2.08 4.02 2.76l3.12-4.19c-5.03-1.64-9.75-5.3-12-9.53l-3.97 0c-2.12 3.98-6.43 7.45-11.12 9.19 1.02-2.78 1.72-5.83 2.21-9.2l-3.63 0c-1.24 5.16-3.47 11.27-9.3 16.44l3.04 4.93c0.93-0.94 1.77-1.91 2.57-2.89l0 19.06 4 0 0-25.53c0.26-0.59 0.47-1.22 0.72-1.82l2.67 3.55c1.27-0.69 2.66-1.63 3.98-2.76m28.75 35.88-0.08 0.01-0.06 0.02c-2.82 0.5-16.11 0.81-33.31 0.99-37.03 0.37-92.26 0.04-100.67-0.99-32.51-1.46-59.35-24.69-69.59-56.64l273.2 0c-10.23 31.95-37.04 55.18-69.49 56.62M623.06 637.68c9.09-1.47 121.73-1.47 134-0.02 41.61 1.87 74.1 39.28 74.1 85.18 0 6.93-0.81 13.62-2.23 20.07l-277.7 0c-1.41-6.45-2.22-13.14-2.22-20.07 0-45.9 32.52-83.29 74.04-85.17m217.05 85.17c0-49.25-35.1-90.63-79.92-94.12 0 0-2.14-0.12-3.42-0.17l0-0.05-0.05 0c-37.69-0.87-95.22-1.39-133.12-0.01l0 0.01-0.16 0 0 0.05c-1.15 0.06-3.42 0.17-3.42 0.17-44.82 3.5-79.9 44.87-79.9 94.12 0 50.72 37.25 92.59 83.32 94.24l0 0.09 0.04 0c37.8 0.88 95.36 1.4 133.14 0.04l0-0.04 0.15 0 0-0.09c46.09-1.65 83.34-43.52 83.34-94.24" fill="#00adef"/></g></svg>