<svg xmlns:svg="http://www.w3.org/2000/svg" xmlns="http://www.w3.org/2000/svg" viewBox="0 0 300 210.84" version="1.1"><g transform="translate(-354.68889,-217.69162)"><path d="m432.29 279.78c-2.99 1.35-7.22 1.39-7.22 1.39l-0.01 0.01-15.82 0 0-22.94 15.97 0 0-0.01c6.01 0.08 8.58 2.08 8.58 2.08 2.76 1.89 3.54 4.41 3.54 4.41 2.05 5.05 0.07 10.21 0.07 10.21-1.36 3.3-5.12 4.85-5.12 4.85m11.74 18.22c-3.45-7.04-6.94-9.15-7.04-9.15 9.45-2.31 12.37-11.4 12.37-11.4 2.77-8.59 0.43-15.61 0.43-15.61-2.25-8.68-10.05-11.79-10.05-11.79-5.52-2.48-15.02-2.45-15.02-2.45l0 0.02-28.41 0.01 0 77.39 12.93 0 0-31.98 10.19 0c8.76 0.07 10.61 6 10.61 6 0 0 4.22 7.47 9.8 25.94l16 0c-5.49-15.1-11.77-26.92-11.81-26.98m184.35-17.77-23.2 0 0-23.19-11.69 0 0 23.19-23.18 0 0 11.67 23.18 0 0 24.56 11.69 0 0-24.56 23.2 0 0-11.67zm-70.7 6.74c0 0-5.77-12.41-23-12.2 0 0-6.88-0.27-13.04 3.78l1.61-17.66 33.81 0 0-11.57-44.69 0-3.57 44.05 11.36 1.16c0 0 1.05-4.41 5.84-7 0 0 5.81-3.57 13.4-0.89 0.02 0.01 4.75 1.69 7.57 7.36 0 0 2.9 6.08 0.53 13.15 0 0-1.47 5.41-7.16 8.04 0 0-4.52 2.47-12.08 0.47 0 0-6.94-2-9.87-9.36l-10.53 6.1c0 0 10.15 21.24 34.8 14.2 0 0 11.47-2.63 15.88-12.67 0 0 6.16-13.35-0.86-26.97m-90.52-37.73 0 11.66 9.44 0 0 63.98 12.81 0 0-75.64-22.25 0zm161.38 169.11-247.72 0c-8.8 0-15.98-7.17-15.98-15.96l0-46 279.66 0 0 46c0 8.8-7.16 15.96-15.96 15.96m-247.72-190.47 247.72 0c8.8 0 15.96 7.17 15.96 15.98l0 103.17-279.66 0 0-103.17c0-8.81 7.18-15.98 15.98-15.98m247.72-10.18-247.72 0c-14.41 0-26.15 11.74-26.15 26.16l0 158.52c0 14.41 11.74 26.15 26.15 26.15l247.72 0c14.4 0 26.13-11.74 26.13-26.15l0-158.52c0-14.43-11.74-26.16-26.13-26.16m-176.2 184.99 0-10.07 9.2 0c-0.82 5.26-5.14 8.32-9.2 10.07m6.97-27.44 3.95 0 0 11.74-3.95 0 0-11.74zm12.35 11.75-3.96 0 0-11.74 3.96 0 0 11.74zm-27.36 2.22 4.2 0 0 12.48-4.2 0 0-12.48zm4.2-5.11-4.2 0 0-10.95 4.2 0 0 10.95zm20.95 8.5 9.18 0 0-5.61-3.12 0 0-16.85-7.81 0 0-4.2-4.44 0 0 4.2-7.82 0 0 16.85-3.1 0 0-18.94-11.9 0 0 38.73 11.9 0 0-2.36 3.1 3.7c6-3.44 8.72-8.86 9.84-14.56l0.37 0c1.18 5.7 3.91 11.11 9.91 14.56l4.21-5c-4.42-1.64-9.44-4.81-10.32-10.52m77.98-3.35 3.42 0 0 4.54-3.42 0 0-4.54zm6.81 0 3.34 0 0 4.54-3.34 0 0-4.54zm6.73 0 3.46 0 0 4.54-3.46 0 0-4.54zm-17.41 18.18 3.86 0 0-8.33 3.42 0 0 8.33 3.39 0 0-8.33 3.34 0 0 8.33 3.38 0 0-8.33 3.45 0 0 1.89c0 1.84-0.33 3.02-2.8 3.43l2.23 3.7c2.34-0.7 4.38-1.96 4.38-7.08l0-17.1-24.68 0 0 23.49zm11.97-38.7 0.77 0c1.23 2.85 3.1 5.43 5.21 7.52l-11.25 0c2.1-2.08 4.04-4.66 5.27-7.52m-7.19 9.32 0 3.36 15.12 0 0-3.36c1.49 1.26 3 2.3 4.44 3.05l3.46-4.65c-5.55-1.8-10.77-5.84-13.25-10.52l-4.41 0c-2.35 4.39-7.13 8.23-12.28 10.17 1.1-3.09 1.87-6.47 2.42-10.17l-4.01 0c-1.35 5.69-3.82 12.43-10.29 18.17l3.38 5.44c1.03-1.02 1.97-2.1 2.84-3.2l0 21.08 4.43 0 0-28.23c0.29-0.67 0.52-1.35 0.79-2.03l2.96 3.93c1.42-0.75 2.94-1.8 4.42-3.05" fill="#ec008c"/></g></svg>