<svg xmlns:svg="http://www.w3.org/2000/svg" xmlns="http://www.w3.org/2000/svg" viewBox="0 0 300 210.83" version="1.1"><g transform="translate(-462.65006,109.69287)"><path d="m540.62-47.61c-3 1.34-7.21 1.38-7.21 1.38l-0.01 0.01-15.83 0 0-22.94 15.99 0 0-0.01c6 0.08 8.56 2.08 8.56 2.08 2.76 1.89 3.55 4.41 3.55 4.41 2.05 5.04 0.08 10.21 0.08 10.21-1.37 3.3-5.13 4.85-5.13 4.85m11.75 18.22c-3.47-7.05-6.94-9.15-7.05-9.15 9.46-2.31 12.37-11.4 12.37-11.4 2.77-8.59 0.43-15.61 0.43-15.61-2.24-8.68-10.06-11.79-10.06-11.79-5.52-2.49-15.01-2.45-15.01-2.45l0 0.02-28.42 0.01 0 77.39 12.93 0 0-31.99 10.19 0c8.78 0.07 10.64 6 10.64 6 0 0 4.2 7.47 9.77 25.93l16.01 0C558.67-17.51 552.41-29.32 552.37-29.39m184.34-17.79-23.18 0 0-23.19-11.67 0 0 23.19-23.19 0 0 11.67 23.19 0 0 24.56 11.67 0 0-24.56 23.18 0 0-11.67zm-161.2-31 0 11.65 9.42 0 0 63.99 12.82 0 0-75.64-22.24 0zm65.48 67.98c-9.89 0-14.87-4.41-14.87-12.39 0-5.99 3.16-10.23 8.92-11.94 3.69-1.19 6.72-1.32 10.57-0.41 6.8 1.34 10.54 5.68 10.54 12.25 0 8.17-4.93 12.5-15.16 12.5m0.2-61.29c8.01 0 12.31 4.29 12.31 11.44 0 6.61-3.62 10.68-10.19 11.49-0.02 0-0.35 0.03-0.35 0.03l-0.43 0.06c0.01 0-0.13 0-0.13 0l-0.28 0.03c-0.81 0.04-0.98 0.04-1.6 0.01-7.74-0.31-11.71-4.57-11.71-11.73 0-6.99 4.44-11.33 12.36-11.33m21.44 33.27c-2.6-2.41-4.76-3.85-6.84-4.55 6.71-2.56 9.97-8.44 9.97-17.91 0-3.57-0.87-7.12-2.47-9.99-3.99-7.12-11.33-10.88-22.11-10.88-15.4 0-24.5 8-24.5 20.87 0 5.18 1.64 9.99 4.5 13.21 0.01 0.01 0.7 0.77 0.7 0.77 1.84 2.06 3.09 3.4 5.08 4.27-2.61 0.91-4.1 1.79-6.12 3.56-4.94 4.24-7.34 9.67-7.34 16.61 0 5.92 1.96 11.39 5.33 15 5.36 5.6 11.61 7.98 22.07 7.98 9.23 0 15.88-2 20.72-5.95 4.8-3.93 7.23-9.68 7.23-17.12 0-6.89-2.1-12.21-6.23-15.85m73.87 129.17-247.69 0c-8.82 0-15.97-7.17-15.97-15.97l0-46 279.64 0 0 46c0 8.8-7.17 15.97-15.98 15.97m-247.69-190.48 247.69 0c8.81 0 15.98 7.16 15.98 15.98l0 103.17-279.64 0 0-103.17c0-8.82 7.15-15.98 15.97-15.98m247.69-10.17-247.69 0c-14.42 0-26.15 11.73-26.15 26.15l0 158.52c0 14.41 11.74 26.15 26.15 26.15l247.69 0c14.41 0 26.15-11.74 26.15-26.15l0-158.52c0-14.43-11.74-26.15-26.15-26.15m-176.18 184.99 0-10.08 9.17 0c-0.8 5.26-5.12 8.34-9.17 10.08m6.97-27.44 3.96 0 0 11.74-3.96 0 0-11.74zm12.36 11.74-3.96 0 0-11.74 3.96 0 0 11.74zm-27.37 2.22 4.21 0 0 12.48-4.21 0 0-12.48zm4.21-5.11-4.21 0 0-10.94 4.21 0 0 10.94zm20.95 8.5 9.17 0 0-5.62-3.12 0 0-16.85-7.79 0 0-4.21-4.44 0 0 4.21-7.83 0 0 16.85-3.1 0 0-18.94-11.92 0 0 38.74 11.92 0 0-2.35 3.1 3.7c5.98-3.45 8.73-8.87 9.86-14.57l0.36 0c1.16 5.7 3.9 11.12 9.89 14.57l4.21-5.01c-4.42-1.63-9.42-4.81-10.3-10.52m77.97-3.34 3.43 0 0 4.54-3.43 0 0-4.54zm6.83 0 3.33 0 0 4.54-3.33 0 0-4.54zm6.72 0 3.45 0 0 4.54-3.45 0 0-4.54zm-17.41 18.18 3.86 0 0-8.34 3.43 0 0 8.34 3.4 0 0-8.34 3.34 0 0 8.34 3.38 0 0-8.34 3.45 0 0 1.9c0 1.84-0.32 3.02-2.8 3.44l2.24 3.7c2.35-0.7 4.38-1.96 4.38-7.09l0-17.1-24.67 0 0 23.49zm11.96-38.7 0.78 0c1.23 2.86 3.1 5.42 5.21 7.51l-11.24 0c2.08-2.09 4.03-4.65 5.25-7.51m-7.18 9.32 0 3.37 15.12 0 0-3.37c1.5 1.25 3.01 2.29 4.44 3.06l3.48-4.64C673.79 47.26 668.57 43.23 666.1 38.54l-4.43 0c-2.33 4.41-7.11 8.24-12.28 10.17 1.11-3.08 1.89-6.47 2.44-10.17l-4.02 0c-1.34 5.7-3.82 12.44-10.27 18.17l3.37 5.44c1.03-1.03 1.97-2.09 2.84-3.2l0 21.09 4.42 0 0-28.25c0.3-0.65 0.52-1.34 0.8-2.01l2.94 3.93c1.41-0.77 2.95-1.81 4.42-3.06" fill="#ed1c24"/></g></svg>