<svg xmlns="http://www.w3.org/2000/svg" viewBox="0 0 87.2 87.2"><defs><style>.cls-1{fill:#fff;}</style></defs><g id="Layer_2" data-name="Layer 2"><g id="Layer_1-2" data-name="Layer 1"><circle class="cls-1" cx="43.6" cy="43.6" r="43.26"/><g id="Layer_2-2" data-name="Layer 2"><g id="Kijkw-2020"><path d="M0,43.6a43.51,43.51,0,1,1,0,.18Zm32.4,27v-54H25.2a4.25,4.25,0,0,0-1.9.3L15,19.8v5.3h6.8V70.6Zm14.6,0H62.4a2.56,2.56,0,0,0,2-.8l4-4a2.56,2.56,0,0,0,.8-2V48.4a2.45,2.45,0,0,0-.8-2l-3.8-3.7L68.4,39a2.45,2.45,0,0,0,.8-2V23.5a3,3,0,0,0-.8-2l-4-4.1a2.45,2.45,0,0,0-2-.8H46.9a2.45,2.45,0,0,0-2,.8L41,21.6a2.76,2.76,0,0,0-.8,1.9V37.1a2.45,2.45,0,0,0,.8,2l3.8,3.7L41,46.5a2.45,2.45,0,0,0-.8,2V63.9a2.45,2.45,0,0,0,.8,2l4,3.9A3,3,0,0,0,47,70.6Zm3.8-44.8h7.8V38.3H50.8Zm0,21.5h7.9V61.5H50.8Z"/></g></g></g></g></svg>