<?xml version="1.0" encoding="UTF-8" standalone="no"?>
<!-- Created with Inkscape (http://www.inkscape.org/) -->

<svg
   xmlns:svg="http://www.w3.org/2000/svg"
   xmlns="http://www.w3.org/2000/svg"
   version="1.1"
   width="183"
   height="183"
   id="svg3212">
  <defs
     id="defs3214" />
  <g
     transform="translate(-161.37482,-239.36343)"
     id="layer1">
    <path
       d="m 252.96851,422.36343 c -50.632,0 -91.59369,-41.00241 -91.59369,-91.49771 0,-50.68516 40.96169,-91.50229 91.59369,-91.50229 50.44005,0 91.40631,40.81713 91.40631,91.50229 0,50.4953 -40.96626,91.49771 -91.40631,91.49771"
       id="path2856"
       style="fill:#231f20;fill-opacity:1;fill-rule:nonzero;stroke:none" />
    <path
       d="m 206.50215,387.34954 0,-95.67001 -14.21755,0 0,-11.00946 18.96358,-6.65188 17.44402,0 0,113.33135 -22.19005,0 z m 60.30915,-29.61552 0,9.68961 38.49841,0 0,19.92591 -60.87584,0 0,-39.8564 38.88002,-32.27582 0,-21.82907 -16.31065,0 0,14.9919 -22.56937,0 0,-22.58621 11.75883,-11.77575 37.7375,0 11.75655,11.96332 0,39.2937 -38.87545,32.45881"
       id="path2858"
       style="fill:#ffffff;fill-opacity:1;fill-rule:nonzero;stroke:none" />
  </g>
</svg>
