<?xml version="1.0" encoding="UTF-8" standalone="no"?>
<!-- Created with Inkscape (http://www.inkscape.org/) -->

<svg
   xmlns:svg="http://www.w3.org/2000/svg"
   xmlns="http://www.w3.org/2000/svg"
   version="1.1"
   width="183"
   height="183"
   id="svg3284">
  <defs
     id="defs3286" />
  <g
     transform="translate(-247.08786,-330.792)"
     id="layer1">
    <path
       d="m 338.67926,513.792 c -50.63073,0 -91.5914,-41.00698 -91.5914,-91.49543 0,-50.69201 40.96067,-91.50457 91.5914,-91.50457 50.44336,0 91.4086,40.81256 91.4086,91.50457 0,50.48845 -40.96524,91.49543 -91.4086,91.49543"
       id="path2860"
       style="fill:#231f20;fill-opacity:1;fill-rule:nonzero;stroke:none" />
    <path
       d="m 291.27036,478.7804 0,-95.67687 -14.22404,0 0,-11.01175 19.15733,-6.65188 17.25621,0 0,113.3405 -22.1895,0 z m 87.23164,0 -37.35953,0 -11.75397,-11.76203 0,-89.41614 11.57118,-12.16233 37.54232,0 11.75855,11.9679 0,21.63692 -22.18494,0 0,-14.42233 -16.31252,0 0,32.84082 6.8344,-6.6496 19.90451,0 11.75855,11.59276 0,44.80186 -11.75855,11.57217 z m -26.73891,-19.17564 16.50217,0 0,-29.8008 -16.50217,0 0,29.8008 z"
       id="path2862"
       style="fill:#ffffff;fill-opacity:1;fill-rule:nonzero;stroke:none" />
  </g>
</svg>
