<?xml version="1.0" encoding="UTF-8" standalone="no"?>
<!-- Created with Inkscape (http://www.inkscape.org/) -->

<svg
   xmlns:svg="http://www.w3.org/2000/svg"
   xmlns="http://www.w3.org/2000/svg"
   version="1.1"
   width="183"
   height="183"
   id="svg3143">
  <defs
     id="defs3145" />
  <g
     transform="translate(178.62643,-96.50691)"
     id="layer1">
    <path
       d="m -87.035031,279.50691 c -50.630729,0 -91.591399,-41.00876 -91.591399,-91.49885 0,-50.68682 40.96067,-91.50115 91.591399,-91.50115 50.443361,0 91.408601,40.81433 91.408601,91.50115 0,50.49009 -40.96524,91.49885 -91.408601,91.49885"
       id="path2848"
       style="fill:#231f20;fill-opacity:1;fill-rule:nonzero;stroke:none" />
    <path
       d="m -105.23723,244.30818 0,-30.37458 -14.22633,0 0,30.37458 -21.05158,0 0,-101.56576 11.7654,-11.95632 32.9952,0 11.566602,12.14388 0,101.3782 -21.049292,0 z m -14.22633,-49.36469 14.22633,0 0,-44.98428 -14.22633,0 0,44.98428 z m 48.743332,49.36469 0,-113.52208 21.236665,0 0,95.86324 18.963104,0 0,17.65884 -40.199769,0"
       id="path2850"
       style="fill:#ffffff;fill-opacity:1;fill-rule:nonzero;stroke:none" />
  </g>
</svg>
