<?xml version="1.0" encoding="UTF-8" standalone="no"?>
<!DOCTYPE svg PUBLIC "-//W3C//DTD SVG 1.1//EN" "http://www.w3.org/Graphics/SVG/1.1/DTD/svg11.dtd">
<svg xmlns="http://www.w3.org/2000/svg" version="1.1" viewBox="0.00 0.00 255.00 255.00">
<g stroke-width="2.00" fill="none" stroke-linecap="butt">
<path stroke="#f18389" vector-effect="non-scaling-stroke" d="
  M 195.76 59.50
  A 0.50 0.50 0.0 0 0 195.26 59.00
  L 59.50 59.00
  A 0.50 0.50 0.0 0 0 59.00 59.50
  L 59.00 195.26
  A 0.50 0.50 0.0 0 0 59.50 195.76
  L 195.26 195.76
  A 0.50 0.50 0.0 0 0 195.76 195.26
  L 195.76 59.50"
/>
<path stroke="#808080" vector-effect="non-scaling-stroke" d="
  M 158.83 125.13
  C 166.13 120.94 173.01 114.78 172.22 105.66
  C 171.51 97.42 165.09 92.09 157.48 90.09
  Q 147.23 87.40 136.54 90.43
  Q 124.58 93.83 122.96 105.05
  C 121.63 114.21 127.31 120.53 134.55 125.41
  Q 135.22 125.86 134.51 126.24
  C 129.97 128.71 125.97 131.80 123.20 135.88
  C 118.98 142.11 118.71 151.64 123.20 157.75
  C 127.95 164.21 136.59 166.27 144.54 166.61
  C 157.95 167.19 174.19 163.16 174.59 146.45
  C 174.84 135.92 167.07 130.53 158.83 125.98
  Q 158.07 125.56 158.83 125.13"
/>
<path stroke="#808080" vector-effect="non-scaling-stroke" d="
  M 92.08 101.61
  A 0.32 0.32 0.0 0 1 92.40 101.93
  L 92.39 165.08
  A 0.32 0.32 0.0 0 0 92.71 165.40
  L 106.29 165.40
  A 0.32 0.32 0.0 0 0 106.61 165.08
  L 106.61 89.85
  A 0.32 0.32 0.0 0 0 106.28 89.53
  L 77.31 90.42
  A 0.32 0.32 0.0 0 0 77.00 90.74
  L 77.00 101.29
  A 0.32 0.32 0.0 0 0 77.32 101.61
  L 92.08 101.61"
/>
<path stroke="#808080" vector-effect="non-scaling-stroke" d="
  M 157.04 104.77
  C 154.82 99.00 146.82 98.64 141.91 100.73
  Q 137.61 102.56 137.02 107.58
  C 136.29 113.79 141.84 117.62 146.62 120.27
  Q 147.02 120.49 147.41 120.28
  C 153.30 117.05 160.10 112.70 157.04 104.77"
/>
<path stroke="#808080" vector-effect="non-scaling-stroke" d="
  M 134.82 141.70
  C 132.36 148.29 136.68 154.34 143.37 155.48
  C 151.62 156.90 160.26 154.55 160.04 144.42
  C 159.92 138.60 151.15 134.06 146.68 131.72
  Q 146.26 131.50 145.85 131.72
  C 141.78 133.90 136.46 137.29 134.82 141.70"
/>
</g>
<path fill="#e30613" d="
  M 16.66 0.00
  L 239.54 0.00
  Q 252.61 2.59 255.00 17.21
  L 255.00 238.50
  Q 253.29 250.52 241.75 254.00
  Q 240.46 254.38 237.38 255.00
  L 16.47 255.00
  Q 2.70 253.06 0.00 238.32
  L 0.00 15.46
  Q 2.54 2.43 16.66 0.00
  Z
  M 251.74 18.73
  A 15.49 15.49 0.0 0 0 236.25 3.24
  L 18.73 3.24
  A 15.49 15.49 0.0 0 0 3.24 18.73
  L 3.24 236.25
  A 15.49 15.49 0.0 0 0 18.73 251.74
  L 236.25 251.74
  A 15.49 15.49 0.0 0 0 251.74 236.25
  L 251.74 18.73
  Z"
/>
<path fill="#e30613" d="
  M 216.75 216.18
  A 0.57 0.57 0.0 0 1 216.18 216.75
  L 38.58 216.75
  A 0.57 0.57 0.0 0 1 38.01 216.18
  L 38.01 38.58
  A 0.57 0.57 0.0 0 1 38.58 38.01
  L 216.18 38.01
  A 0.57 0.57 0.0 0 1 216.75 38.58
  L 216.75 216.18
  Z
  M 195.76 59.50
  A 0.50 0.50 0.0 0 0 195.26 59.00
  L 59.50 59.00
  A 0.50 0.50 0.0 0 0 59.00 59.50
  L 59.00 195.26
  A 0.50 0.50 0.0 0 0 59.50 195.76
  L 195.26 195.76
  A 0.50 0.50 0.0 0 0 195.76 195.26
  L 195.76 59.50
  Z"
/>
<path fill="#ffffff" d="
  M 195.76 195.26
  A 0.50 0.50 0.0 0 1 195.26 195.76
  L 59.50 195.76
  A 0.50 0.50 0.0 0 1 59.00 195.26
  L 59.00 59.50
  A 0.50 0.50 0.0 0 1 59.50 59.00
  L 195.26 59.00
  A 0.50 0.50 0.0 0 1 195.76 59.50
  L 195.76 195.26
  Z
  M 158.83 125.13
  C 166.13 120.94 173.01 114.78 172.22 105.66
  C 171.51 97.42 165.09 92.09 157.48 90.09
  Q 147.23 87.40 136.54 90.43
  Q 124.58 93.83 122.96 105.05
  C 121.63 114.21 127.31 120.53 134.55 125.41
  Q 135.22 125.86 134.51 126.24
  C 129.97 128.71 125.97 131.80 123.20 135.88
  C 118.98 142.11 118.71 151.64 123.20 157.75
  C 127.95 164.21 136.59 166.27 144.54 166.61
  C 157.95 167.19 174.19 163.16 174.59 146.45
  C 174.84 135.92 167.07 130.53 158.83 125.98
  Q 158.07 125.56 158.83 125.13
  Z
  M 92.08 101.61
  A 0.32 0.32 0.0 0 1 92.40 101.93
  L 92.39 165.08
  A 0.32 0.32 0.0 0 0 92.71 165.40
  L 106.29 165.40
  A 0.32 0.32 0.0 0 0 106.61 165.08
  L 106.61 89.85
  A 0.32 0.32 0.0 0 0 106.28 89.53
  L 77.31 90.42
  A 0.32 0.32 0.0 0 0 77.00 90.74
  L 77.00 101.29
  A 0.32 0.32 0.0 0 0 77.32 101.61
  L 92.08 101.61
  Z"
/>
<path fill="#000000" d="
  M 158.83 125.98
  C 167.07 130.53 174.84 135.92 174.59 146.45
  C 174.19 163.16 157.95 167.19 144.54 166.61
  C 136.59 166.27 127.95 164.21 123.20 157.75
  C 118.71 151.64 118.98 142.11 123.20 135.88
  C 125.97 131.80 129.97 128.71 134.51 126.24
  Q 135.22 125.86 134.55 125.41
  C 127.31 120.53 121.63 114.21 122.96 105.05
  Q 124.58 93.83 136.54 90.43
  Q 147.23 87.40 157.48 90.09
  C 165.09 92.09 171.51 97.42 172.22 105.66
  C 173.01 114.78 166.13 120.94 158.83 125.13
  Q 158.07 125.56 158.83 125.98
  Z
  M 157.04 104.77
  C 154.82 99.00 146.82 98.64 141.91 100.73
  Q 137.61 102.56 137.02 107.58
  C 136.29 113.79 141.84 117.62 146.62 120.27
  Q 147.02 120.49 147.41 120.28
  C 153.30 117.05 160.10 112.70 157.04 104.77
  Z
  M 134.82 141.70
  C 132.36 148.29 136.68 154.34 143.37 155.48
  C 151.62 156.90 160.26 154.55 160.04 144.42
  C 159.92 138.60 151.15 134.06 146.68 131.72
  Q 146.26 131.50 145.85 131.72
  C 141.78 133.90 136.46 137.29 134.82 141.70
  Z"
/>
<path fill="#000000" d="
  M 92.08 101.61
  L 77.32 101.61
  A 0.32 0.32 0.0 0 1 77.00 101.29
  L 77.00 90.74
  A 0.32 0.32 0.0 0 1 77.31 90.42
  L 106.28 89.53
  A 0.32 0.32 0.0 0 1 106.61 89.85
  L 106.61 165.08
  A 0.32 0.32 0.0 0 1 106.29 165.40
  L 92.71 165.40
  A 0.32 0.32 0.0 0 1 92.39 165.08
  L 92.40 101.93
  A 0.32 0.32 0.0 0 0 92.08 101.61
  Z"
/>
<path fill="#ffffff" d="
  M 157.04 104.77
  C 160.10 112.70 153.30 117.05 147.41 120.28
  Q 147.02 120.49 146.62 120.27
  C 141.84 117.62 136.29 113.79 137.02 107.58
  Q 137.61 102.56 141.91 100.73
  C 146.82 98.64 154.82 99.00 157.04 104.77
  Z"
/>
<path fill="#ffffff" d="
  M 134.82 141.70
  C 136.46 137.29 141.78 133.90 145.85 131.72
  Q 146.26 131.50 146.68 131.72
  C 151.15 134.06 159.92 138.60 160.04 144.42
  C 160.26 154.55 151.62 156.90 143.37 155.48
  C 136.68 154.34 132.36 148.29 134.82 141.70
  Z"
/>
</svg>
