<?xml version="1.0" encoding="UTF-8" standalone="no"?>
<!DOCTYPE svg PUBLIC "-//W3C//DTD SVG 1.1//EN" "http://www.w3.org/Graphics/SVG/1.1/DTD/svg11.dtd">
<svg xmlns="http://www.w3.org/2000/svg" version="1.1" viewBox="0.00 0.00 255.00 255.00">
<g stroke-width="2.00" fill="none" stroke-linecap="butt">
<path stroke="#f1ec80" vector-effect="non-scaling-stroke" d="
  M 195.77 59.57
  A 0.58 0.58 0.0 0 0 195.19 58.99
  L 59.59 58.99
  A 0.58 0.58 0.0 0 0 59.01 59.57
  L 59.01 195.19
  A 0.58 0.58 0.0 0 0 59.59 195.77
  L 195.19 195.77
  A 0.58 0.58 0.0 0 0 195.77 195.19
  L 195.77 59.57"
/>
<path stroke="#808080" vector-effect="non-scaling-stroke" d="
  M 139.80 153.16
  C 147.72 146.39 155.53 139.22 161.64 131.05
  C 167.68 122.97 170.66 113.56 167.97 103.51
  C 163.57 87.04 143.41 86.81 130.00 90.82
  Q 126.72 91.81 123.42 93.96
  Q 122.98 94.24 123.20 94.72
  L 127.35 103.71
  A 0.70 0.69 -25.7 0 0 128.30 104.04
  Q 135.10 100.53 144.38 100.92
  C 149.69 101.15 153.07 103.50 154.20 108.94
  Q 155.08 113.15 153.60 116.81
  C 151.27 122.57 147.23 128.03 143.14 132.68
  Q 133.08 144.12 121.54 154.34
  A 2.24 2.21 69.6 0 0 120.79 156.01
  L 120.80 164.85
  Q 120.80 165.40 121.35 165.40
  L 171.53 165.40
  Q 172.21 165.40 172.21 164.72
  L 172.21 154.25
  A 0.46 0.46 0.0 0 0 171.75 153.79
  L 140.03 153.78
  Q 139.08 153.78 139.80 153.16"
/>
<path stroke="#808080" vector-effect="non-scaling-stroke" d="
  M 80.60 101.32
  A 0.30 0.30 0.0 0 0 80.90 101.62
  L 95.31 101.59
  A 0.30 0.30 0.0 0 1 95.61 101.89
  L 95.61 165.10
  A 0.30 0.30 0.0 0 0 95.91 165.40
  L 109.70 165.40
  A 0.30 0.30 0.0 0 0 110.00 165.10
  L 110.00 89.83
  A 0.30 0.30 0.0 0 0 109.69 89.53
  L 80.89 90.40
  A 0.30 0.30 0.0 0 0 80.60 90.70
  L 80.60 101.32"
/>
</g>
<path fill="#e3d800" d="
  M 16.67 0.00
  L 239.53 0.00
  Q 252.59 2.58 255.00 17.22
  L 255.00 238.49
  Q 253.34 250.30 242.13 253.88
  Q 240.58 254.37 237.37 255.00
  L 16.47 255.00
  Q 2.71 253.06 0.00 238.32
  L 0.00 15.47
  Q 2.55 2.44 16.67 0.00
  Z
  M 251.74 18.72
  A 15.48 15.48 0.0 0 0 236.26 3.24
  L 18.72 3.24
  A 15.48 15.48 0.0 0 0 3.24 18.72
  L 3.24 236.26
  A 15.48 15.48 0.0 0 0 18.72 251.74
  L 236.26 251.74
  A 15.48 15.48 0.0 0 0 251.74 236.26
  L 251.74 18.72
  Z"
/>
<path fill="#e3d800" d="
  M 216.75 216.30
  A 0.44 0.44 0.0 0 1 216.31 216.74
  L 38.45 216.74
  A 0.44 0.44 0.0 0 1 38.01 216.30
  L 38.01 38.44
  A 0.44 0.44 0.0 0 1 38.45 38.00
  L 216.31 38.00
  A 0.44 0.44 0.0 0 1 216.75 38.44
  L 216.75 216.30
  Z
  M 195.77 59.57
  A 0.58 0.58 0.0 0 0 195.19 58.99
  L 59.59 58.99
  A 0.58 0.58 0.0 0 0 59.01 59.57
  L 59.01 195.19
  A 0.58 0.58 0.0 0 0 59.59 195.77
  L 195.19 195.77
  A 0.58 0.58 0.0 0 0 195.77 195.19
  L 195.77 59.57
  Z"
/>
<path fill="#ffffff" d="
  M 195.77 195.19
  A 0.58 0.58 0.0 0 1 195.19 195.77
  L 59.59 195.77
  A 0.58 0.58 0.0 0 1 59.01 195.19
  L 59.01 59.57
  A 0.58 0.58 0.0 0 1 59.59 58.99
  L 195.19 58.99
  A 0.58 0.58 0.0 0 1 195.77 59.57
  L 195.77 195.19
  Z
  M 139.80 153.16
  C 147.72 146.39 155.53 139.22 161.64 131.05
  C 167.68 122.97 170.66 113.56 167.97 103.51
  C 163.57 87.04 143.41 86.81 130.00 90.82
  Q 126.72 91.81 123.42 93.96
  Q 122.98 94.24 123.20 94.72
  L 127.35 103.71
  A 0.70 0.69 -25.7 0 0 128.30 104.04
  Q 135.10 100.53 144.38 100.92
  C 149.69 101.15 153.07 103.50 154.20 108.94
  Q 155.08 113.15 153.60 116.81
  C 151.27 122.57 147.23 128.03 143.14 132.68
  Q 133.08 144.12 121.54 154.34
  A 2.24 2.21 69.6 0 0 120.79 156.01
  L 120.80 164.85
  Q 120.80 165.40 121.35 165.40
  L 171.53 165.40
  Q 172.21 165.40 172.21 164.72
  L 172.21 154.25
  A 0.46 0.46 0.0 0 0 171.75 153.79
  L 140.03 153.78
  Q 139.08 153.78 139.80 153.16
  Z
  M 80.60 101.32
  A 0.30 0.30 0.0 0 0 80.90 101.62
  L 95.31 101.59
  A 0.30 0.30 0.0 0 1 95.61 101.89
  L 95.61 165.10
  A 0.30 0.30 0.0 0 0 95.91 165.40
  L 109.70 165.40
  A 0.30 0.30 0.0 0 0 110.00 165.10
  L 110.00 89.83
  A 0.30 0.30 0.0 0 0 109.69 89.53
  L 80.89 90.40
  A 0.30 0.30 0.0 0 0 80.60 90.70
  L 80.60 101.32
  Z"
/>
<path fill="#000000" d="
  M 140.03 153.78
  L 171.75 153.79
  A 0.46 0.46 0.0 0 1 172.21 154.25
  L 172.21 164.72
  Q 172.21 165.40 171.53 165.40
  L 121.35 165.40
  Q 120.80 165.40 120.80 164.85
  L 120.79 156.01
  A 2.24 2.21 69.6 0 1 121.54 154.34
  Q 133.08 144.12 143.14 132.68
  C 147.23 128.03 151.27 122.57 153.60 116.81
  Q 155.08 113.15 154.20 108.94
  C 153.07 103.50 149.69 101.15 144.38 100.92
  Q 135.10 100.53 128.30 104.04
  A 0.70 0.69 -25.7 0 1 127.35 103.71
  L 123.20 94.72
  Q 122.98 94.24 123.42 93.96
  Q 126.72 91.81 130.00 90.82
  C 143.41 86.81 163.57 87.04 167.97 103.51
  C 170.66 113.56 167.68 122.97 161.64 131.05
  C 155.53 139.22 147.72 146.39 139.80 153.16
  Q 139.08 153.78 140.03 153.78
  Z"
/>
<path fill="#000000" d="
  M 80.60 101.32
  L 80.60 90.70
  A 0.30 0.30 0.0 0 1 80.89 90.40
  L 109.69 89.53
  A 0.30 0.30 0.0 0 1 110.00 89.83
  L 110.00 165.10
  A 0.30 0.30 0.0 0 1 109.70 165.40
  L 95.91 165.40
  A 0.30 0.30 0.0 0 1 95.61 165.10
  L 95.61 101.89
  A 0.30 0.30 0.0 0 0 95.31 101.59
  L 80.90 101.62
  A 0.30 0.30 0.0 0 1 80.60 101.32
  Z"
/>
</svg>
