<?xml version="1.0" encoding="UTF-8" standalone="no"?>
<!DOCTYPE svg PUBLIC "-//W3C//DTD SVG 1.1//EN" "http://www.w3.org/Graphics/SVG/1.1/DTD/svg11.dtd">
<svg xmlns="http://www.w3.org/2000/svg" version="1.1" viewBox="0.00 0.00 255.00 255.00">
<g stroke-width="2.00" fill="none" stroke-linecap="butt">
<path stroke="#f5ae92" vector-effect="non-scaling-stroke" d="
  M 195.75 59.48
  A 0.48 0.48 0.0 0 0 195.27 59.00
  L 59.47 59.00
  A 0.48 0.48 0.0 0 0 58.99 59.48
  L 58.99 195.28
  A 0.48 0.48 0.0 0 0 59.47 195.76
  L 195.27 195.76
  A 0.48 0.48 0.0 0 0 195.75 195.28
  L 195.75 59.48"
/>
<path stroke="#808080" vector-effect="non-scaling-stroke" d="
  M 79.38 101.31
  A 0.31 0.31 0.0 0 0 79.69 101.62
  L 94.30 101.60
  A 0.31 0.31 0.0 0 1 94.61 101.91
  L 94.61 165.09
  A 0.31 0.31 0.0 0 0 94.92 165.40
  L 108.69 165.39
  A 0.31 0.31 0.0 0 0 109.00 165.08
  L 109.00 89.84
  A 0.31 0.31 0.0 0 0 108.68 89.53
  L 79.68 90.41
  A 0.31 0.31 0.0 0 0 79.38 90.72
  L 79.38 101.31"
/>
<path stroke="#808080" vector-effect="non-scaling-stroke" d="
  M 139.61 118.46
  L 139.60 101.62
  A 0.23 0.22 -0.0 0 1 139.83 101.40
  L 167.75 101.40
  Q 168.41 101.40 168.40 100.75
  L 168.38 90.24
  Q 168.38 89.59 167.74 89.59
  L 126.57 89.61
  Q 126.00 89.61 126.00 90.18
  L 126.00 130.74
  Q 126.00 131.34 126.61 131.29
  Q 133.06 130.77 139.19 130.40
  C 147.30 129.91 156.09 130.37 157.48 140.16
  C 158.59 148.05 153.75 153.53 146.08 153.94
  Q 135.82 154.50 127.29 152.35
  Q 126.70 152.20 126.53 152.78
  L 123.40 163.48
  Q 123.25 164.02 123.79 164.18
  C 130.50 166.16 136.94 166.56 143.93 166.55
  C 158.12 166.53 170.31 159.60 171.89 144.67
  C 173.01 134.08 168.51 124.45 157.96 120.86
  C 151.86 118.78 146.38 118.96 140.19 119.03
  Q 139.61 119.04 139.61 118.46"
/>
</g>
<path fill="#eb5c24" d="
  M 16.66 0.00
  L 239.54 0.00
  Q 252.60 2.59 255.00 17.21
  L 255.00 238.49
  Q 253.29 250.52 241.75 254.00
  Q 240.50 254.37 237.37 255.00
  L 16.48 255.00
  Q 2.72 253.08 0.00 238.30
  L 0.00 15.46
  Q 2.55 2.43 16.66 0.00
  Z
  M 251.74 18.72
  A 15.48 15.48 0.0 0 0 236.26 3.24
  L 18.72 3.24
  A 15.48 15.48 0.0 0 0 3.24 18.72
  L 3.24 236.26
  A 15.48 15.48 0.0 0 0 18.72 251.74
  L 236.26 251.74
  A 15.48 15.48 0.0 0 0 251.74 236.26
  L 251.74 18.72
  Z"
/>
<path fill="#eb5c24" d="
  M 216.75 216.19
  A 0.56 0.56 0.0 0 1 216.19 216.75
  L 38.57 216.75
  A 0.56 0.56 0.0 0 1 38.01 216.19
  L 38.01 38.57
  A 0.56 0.56 0.0 0 1 38.57 38.01
  L 216.19 38.01
  A 0.56 0.56 0.0 0 1 216.75 38.57
  L 216.75 216.19
  Z
  M 195.75 59.48
  A 0.48 0.48 0.0 0 0 195.27 59.00
  L 59.47 59.00
  A 0.48 0.48 0.0 0 0 58.99 59.48
  L 58.99 195.28
  A 0.48 0.48 0.0 0 0 59.47 195.76
  L 195.27 195.76
  A 0.48 0.48 0.0 0 0 195.75 195.28
  L 195.75 59.48
  Z"
/>
<path fill="#ffffff" d="
  M 195.75 195.28
  A 0.48 0.48 0.0 0 1 195.27 195.76
  L 59.47 195.76
  A 0.48 0.48 0.0 0 1 58.99 195.28
  L 58.99 59.48
  A 0.48 0.48 0.0 0 1 59.47 59.00
  L 195.27 59.00
  A 0.48 0.48 0.0 0 1 195.75 59.48
  L 195.75 195.28
  Z
  M 79.38 101.31
  A 0.31 0.31 0.0 0 0 79.69 101.62
  L 94.30 101.60
  A 0.31 0.31 0.0 0 1 94.61 101.91
  L 94.61 165.09
  A 0.31 0.31 0.0 0 0 94.92 165.40
  L 108.69 165.39
  A 0.31 0.31 0.0 0 0 109.00 165.08
  L 109.00 89.84
  A 0.31 0.31 0.0 0 0 108.68 89.53
  L 79.68 90.41
  A 0.31 0.31 0.0 0 0 79.38 90.72
  L 79.38 101.31
  Z
  M 139.61 118.46
  L 139.60 101.62
  A 0.23 0.22 -0.0 0 1 139.83 101.40
  L 167.75 101.40
  Q 168.41 101.40 168.40 100.75
  L 168.38 90.24
  Q 168.38 89.59 167.74 89.59
  L 126.57 89.61
  Q 126.00 89.61 126.00 90.18
  L 126.00 130.74
  Q 126.00 131.34 126.61 131.29
  Q 133.06 130.77 139.19 130.40
  C 147.30 129.91 156.09 130.37 157.48 140.16
  C 158.59 148.05 153.75 153.53 146.08 153.94
  Q 135.82 154.50 127.29 152.35
  Q 126.70 152.20 126.53 152.78
  L 123.40 163.48
  Q 123.25 164.02 123.79 164.18
  C 130.50 166.16 136.94 166.56 143.93 166.55
  C 158.12 166.53 170.31 159.60 171.89 144.67
  C 173.01 134.08 168.51 124.45 157.96 120.86
  C 151.86 118.78 146.38 118.96 140.19 119.03
  Q 139.61 119.04 139.61 118.46
  Z"
/>
<path fill="#000000" d="
  M 79.38 101.31
  L 79.38 90.72
  A 0.31 0.31 0.0 0 1 79.68 90.41
  L 108.68 89.53
  A 0.31 0.31 0.0 0 1 109.00 89.84
  L 109.00 165.08
  A 0.31 0.31 0.0 0 1 108.69 165.39
  L 94.92 165.40
  A 0.31 0.31 0.0 0 1 94.61 165.09
  L 94.61 101.91
  A 0.31 0.31 0.0 0 0 94.30 101.60
  L 79.69 101.62
  A 0.31 0.31 0.0 0 1 79.38 101.31
  Z"
/>
<path fill="#000000" d="
  M 140.19 119.03
  C 146.38 118.96 151.86 118.78 157.96 120.86
  C 168.51 124.45 173.01 134.08 171.89 144.67
  C 170.31 159.60 158.12 166.53 143.93 166.55
  C 136.94 166.56 130.50 166.16 123.79 164.18
  Q 123.25 164.02 123.40 163.48
  L 126.53 152.78
  Q 126.70 152.20 127.29 152.35
  Q 135.82 154.50 146.08 153.94
  C 153.75 153.53 158.59 148.05 157.48 140.16
  C 156.09 130.37 147.30 129.91 139.19 130.40
  Q 133.06 130.77 126.61 131.29
  Q 126.00 131.34 126.00 130.74
  L 126.00 90.18
  Q 126.00 89.61 126.57 89.61
  L 167.74 89.59
  Q 168.38 89.59 168.38 90.24
  L 168.40 100.75
  Q 168.41 101.40 167.75 101.40
  L 139.83 101.40
  A 0.23 0.22 0.0 0 0 139.60 101.62
  L 139.61 118.46
  Q 139.61 119.04 140.19 119.03
  Z"
/>
</svg>
