<?xml version="1.0" encoding="UTF-8" standalone="no"?>
<!DOCTYPE svg PUBLIC "-//W3C//DTD SVG 1.1//EN" "http://www.w3.org/Graphics/SVG/1.1/DTD/svg11.dtd">
<svg xmlns="http://www.w3.org/2000/svg" version="1.1" viewBox="0.00 0.00 255.00 255.00">
<g stroke-width="2.00" fill="none" stroke-linecap="butt">
<path stroke="#b7d8aa" vector-effect="non-scaling-stroke" d="
  M 195.75 59.54
  A 0.29 0.29 0.0 0 0 195.46 59.25
  L 59.54 59.25
  A 0.29 0.29 0.0 0 0 59.25 59.54
  L 59.25 195.46
  A 0.29 0.29 0.0 0 0 59.54 195.75
  L 195.46 195.75
  A 0.29 0.29 0.0 0 0 195.75 195.46
  L 195.75 59.54"
/>
<path stroke="#808080" vector-effect="non-scaling-stroke" d="
  M 139.42 135.71
  C 142.06 143.55 138.92 154.83 128.91 154.97
  C 120.07 155.09 115.48 150.91 114.48 142.13
  Q 113.18 130.79 114.99 120.30
  C 116.77 110.01 122.16 101.45 133.75 101.06
  Q 139.63 100.86 145.55 102.19
  Q 146.14 102.32 146.31 101.74
  L 149.21 91.52
  A 0.55 0.55 0.0 0 0 148.83 90.84
  C 131.90 86.05 113.95 89.34 105.21 105.81
  C 99.60 116.37 98.65 130.47 100.19 142.43
  C 102.51 160.45 114.16 168.42 132.06 166.43
  Q 144.19 165.09 150.46 155.64
  C 157.67 144.78 156.25 124.50 142.40 119.10
  Q 131.00 114.66 117.43 118.40
  Q 116.82 118.57 116.80 119.21
  L 116.54 128.99
  Q 116.52 129.71 117.22 129.54
  C 125.14 127.56 136.08 125.77 139.42 135.71"
/>
</g>
<path fill="#6eb055" d="
  M 16.62 0.00
  L 239.24 0.00
  Q 249.80 1.92 253.45 11.75
  Q 254.36 14.18 255.00 17.88
  L 255.00 238.07
  Q 253.35 250.48 241.50 253.99
  Q 240.42 254.30 236.92 255.00
  L 16.94 255.00
  Q 2.75 253.20 0.00 238.07
  L 0.00 15.51
  Q 1.99 4.96 12.05 1.43
  Q 14.31 0.63 16.62 0.00
  Z
  M 251.50 18.52
  A 15.26 15.26 0.0 0 0 236.24 3.26
  L 18.52 3.26
  A 15.26 15.26 0.0 0 0 3.26 18.52
  L 3.26 236.24
  A 15.26 15.26 0.0 0 0 18.52 251.50
  L 236.24 251.50
  A 15.26 15.26 0.0 0 0 251.50 236.24
  L 251.50 18.52
  Z"
/>
<path fill="#6eb055" d="
  M 216.75 216.25
  A 0.50 0.50 0.0 0 1 216.25 216.75
  L 38.51 216.75
  A 0.50 0.50 0.0 0 1 38.01 216.25
  L 38.01 38.51
  A 0.50 0.50 0.0 0 1 38.51 38.01
  L 216.25 38.01
  A 0.50 0.50 0.0 0 1 216.75 38.51
  L 216.75 216.25
  Z
  M 195.75 59.54
  A 0.29 0.29 0.0 0 0 195.46 59.25
  L 59.54 59.25
  A 0.29 0.29 0.0 0 0 59.25 59.54
  L 59.25 195.46
  A 0.29 0.29 0.0 0 0 59.54 195.75
  L 195.46 195.75
  A 0.29 0.29 0.0 0 0 195.75 195.46
  L 195.75 59.54
  Z"
/>
<path fill="#ffffff" d="
  M 195.75 195.46
  A 0.29 0.29 0.0 0 1 195.46 195.75
  L 59.54 195.75
  A 0.29 0.29 0.0 0 1 59.25 195.46
  L 59.25 59.54
  A 0.29 0.29 0.0 0 1 59.54 59.25
  L 195.46 59.25
  A 0.29 0.29 0.0 0 1 195.75 59.54
  L 195.75 195.46
  Z
  M 139.42 135.71
  C 142.06 143.55 138.92 154.83 128.91 154.97
  C 120.07 155.09 115.48 150.91 114.48 142.13
  Q 113.18 130.79 114.99 120.30
  C 116.77 110.01 122.16 101.45 133.75 101.06
  Q 139.63 100.86 145.55 102.19
  Q 146.14 102.32 146.31 101.74
  L 149.21 91.52
  A 0.55 0.55 0.0 0 0 148.83 90.84
  C 131.90 86.05 113.95 89.34 105.21 105.81
  C 99.60 116.37 98.65 130.47 100.19 142.43
  C 102.51 160.45 114.16 168.42 132.06 166.43
  Q 144.19 165.09 150.46 155.64
  C 157.67 144.78 156.25 124.50 142.40 119.10
  Q 131.00 114.66 117.43 118.40
  Q 116.82 118.57 116.80 119.21
  L 116.54 128.99
  Q 116.52 129.71 117.22 129.54
  C 125.14 127.56 136.08 125.77 139.42 135.71
  Z"
/>
<path fill="#000000" d="
  M 128.91 154.97
  C 138.92 154.83 142.06 143.55 139.42 135.71
  C 136.08 125.77 125.14 127.56 117.22 129.54
  Q 116.52 129.71 116.54 128.99
  L 116.80 119.21
  Q 116.82 118.57 117.43 118.40
  Q 131.00 114.66 142.40 119.10
  C 156.25 124.50 157.67 144.78 150.46 155.64
  Q 144.19 165.09 132.06 166.43
  C 114.16 168.42 102.51 160.45 100.19 142.43
  C 98.65 130.47 99.60 116.37 105.21 105.81
  C 113.95 89.34 131.90 86.05 148.83 90.84
  A 0.55 0.55 0.0 0 1 149.21 91.52
  L 146.31 101.74
  Q 146.14 102.32 145.55 102.19
  Q 139.63 100.86 133.75 101.06
  C 122.16 101.45 116.77 110.01 114.99 120.30
  Q 113.18 130.79 114.48 142.13
  C 115.48 150.91 120.07 155.09 128.91 154.97
  Z"
/>
</svg>
