<?xml version="1.0" encoding="UTF-8" standalone="no"?>
<!DOCTYPE svg PUBLIC "-//W3C//DTD SVG 1.1//EN" "http://www.w3.org/Graphics/SVG/1.1/DTD/svg11.dtd">
<svg xmlns="http://www.w3.org/2000/svg" version="1.1" viewBox="0.00 0.00 255.00 255.00">
<g stroke-width="2.00" fill="none" stroke-linecap="butt">
<path stroke="#f1ec80" vector-effect="non-scaling-stroke" d="
  M 195.77 59.59
  A 0.38 0.38 0.0 0 0 195.39 59.21
  L 59.61 59.21
  A 0.38 0.38 0.0 0 0 59.23 59.59
  L 59.23 195.39
  A 0.38 0.38 0.0 0 0 59.61 195.77
  L 195.39 195.77
  A 0.38 0.38 0.0 0 0 195.77 195.39
  L 195.77 59.59"
/>
<path stroke="#808080" vector-effect="non-scaling-stroke" d="
  M 127.68 100.44
  C 137.65 101.21 140.41 108.94 140.78 117.48
  Q 141.35 130.88 138.90 139.77
  C 134.70 155.05 122.08 155.78 109.21 153.11
  Q 108.67 152.99 108.52 153.52
  L 105.61 163.62
  A 0.82 0.82 0.0 0 0 106.18 164.64
  Q 113.22 166.60 120.79 166.45
  C 142.31 166.02 152.65 152.68 154.91 133.01
  C 157.06 114.25 154.41 90.94 130.91 88.75
  C 118.48 87.58 106.41 92.30 101.86 104.52
  C 100.19 109.03 100.16 113.95 100.51 118.68
  C 101.36 129.94 108.60 136.40 119.59 137.89
  Q 128.99 139.17 137.85 136.47
  A 0.71 0.70 81.8 0 0 138.35 135.79
  L 138.43 125.73
  Q 138.43 125.27 137.99 125.41
  Q 131.71 127.50 124.58 126.84
  Q 117.53 126.17 115.47 119.33
  C 112.81 110.46 116.59 99.58 127.68 100.44"
/>
</g>
<path fill="#e3d800" d="
  M 16.63 0.00
  L 239.29 0.00
  Q 252.90 2.68 255.00 17.95
  L 255.00 238.03
  Q 253.37 250.47 241.47 253.88
  Q 239.21 254.52 236.89 255.00
  L 16.73 255.00
  Q 2.71 253.02 0.00 238.07
  L 0.00 15.51
  Q 2.00 4.96 12.05 1.44
  Q 14.31 0.64 16.63 0.00
  Z
  M 251.51 18.50
  A 15.24 15.24 0.0 0 0 236.27 3.26
  L 18.49 3.26
  A 15.24 15.24 0.0 0 0 3.25 18.50
  L 3.25 236.26
  A 15.24 15.24 0.0 0 0 18.49 251.50
  L 236.27 251.50
  A 15.24 15.24 0.0 0 0 251.51 236.26
  L 251.51 18.50
  Z"
/>
<path fill="#e3d800" d="
  M 216.75 216.30
  A 0.44 0.44 0.0 0 1 216.31 216.74
  L 38.45 216.74
  A 0.44 0.44 0.0 0 1 38.01 216.30
  L 38.01 38.44
  A 0.44 0.44 0.0 0 1 38.45 38.00
  L 216.31 38.00
  A 0.44 0.44 0.0 0 1 216.75 38.44
  L 216.75 216.30
  Z
  M 195.77 59.59
  A 0.38 0.38 0.0 0 0 195.39 59.21
  L 59.61 59.21
  A 0.38 0.38 0.0 0 0 59.23 59.59
  L 59.23 195.39
  A 0.38 0.38 0.0 0 0 59.61 195.77
  L 195.39 195.77
  A 0.38 0.38 0.0 0 0 195.77 195.39
  L 195.77 59.59
  Z"
/>
<path fill="#ffffff" d="
  M 195.77 195.39
  A 0.38 0.38 0.0 0 1 195.39 195.77
  L 59.61 195.77
  A 0.38 0.38 0.0 0 1 59.23 195.39
  L 59.23 59.59
  A 0.38 0.38 0.0 0 1 59.61 59.21
  L 195.39 59.21
  A 0.38 0.38 0.0 0 1 195.77 59.59
  L 195.77 195.39
  Z
  M 127.68 100.44
  C 137.65 101.21 140.41 108.94 140.78 117.48
  Q 141.35 130.88 138.90 139.77
  C 134.70 155.05 122.08 155.78 109.21 153.11
  Q 108.67 152.99 108.52 153.52
  L 105.61 163.62
  A 0.82 0.82 0.0 0 0 106.18 164.64
  Q 113.22 166.60 120.79 166.45
  C 142.31 166.02 152.65 152.68 154.91 133.01
  C 157.06 114.25 154.41 90.94 130.91 88.75
  C 118.48 87.58 106.41 92.30 101.86 104.52
  C 100.19 109.03 100.16 113.95 100.51 118.68
  C 101.36 129.94 108.60 136.40 119.59 137.89
  Q 128.99 139.17 137.85 136.47
  A 0.71 0.70 81.8 0 0 138.35 135.79
  L 138.43 125.73
  Q 138.43 125.27 137.99 125.41
  Q 131.71 127.50 124.58 126.84
  Q 117.53 126.17 115.47 119.33
  C 112.81 110.46 116.59 99.58 127.68 100.44
  Z"
/>
<path fill="#000000" d="
  M 140.78 117.48
  C 140.41 108.94 137.65 101.21 127.68 100.44
  C 116.59 99.58 112.81 110.46 115.47 119.33
  Q 117.53 126.17 124.58 126.84
  Q 131.71 127.50 137.99 125.41
  Q 138.43 125.27 138.43 125.73
  L 138.35 135.79
  A 0.71 0.70 81.8 0 1 137.85 136.47
  Q 128.99 139.17 119.59 137.89
  C 108.60 136.40 101.36 129.94 100.51 118.68
  C 100.16 113.95 100.19 109.03 101.86 104.52
  C 106.41 92.30 118.48 87.58 130.91 88.75
  C 154.41 90.94 157.06 114.25 154.91 133.01
  C 152.65 152.68 142.31 166.02 120.79 166.45
  Q 113.22 166.60 106.18 164.64
  A 0.82 0.82 0.0 0 1 105.61 163.62
  L 108.52 153.52
  Q 108.67 152.99 109.21 153.11
  C 122.08 155.78 134.70 155.05 138.90 139.77
  Q 141.35 130.88 140.78 117.48
  Z"
/>
</svg>
