<?xml version="1.0" encoding="UTF-8" standalone="no"?>
<!DOCTYPE svg PUBLIC "-//W3C//DTD SVG 1.1//EN" "http://www.w3.org/Graphics/SVG/1.1/DTD/svg11.dtd">
<svg xmlns="http://www.w3.org/2000/svg" version="1.1" viewBox="0.00 0.00 255.00 255.00">
<g stroke-width="2.00" fill="none" stroke-linecap="butt">
<path stroke="#b7d8aa" vector-effect="non-scaling-stroke" d="
  M 195.75 59.54
  A 0.29 0.29 0.0 0 0 195.46 59.25
  L 59.54 59.25
  A 0.29 0.29 0.0 0 0 59.25 59.54
  L 59.25 195.46
  A 0.29 0.29 0.0 0 0 59.54 195.75
  L 195.46 195.75
  A 0.29 0.29 0.0 0 0 195.75 195.46
  L 195.75 59.54"
/>
<path stroke="#808080" vector-effect="non-scaling-stroke" d="
  M 141.04 141.00
  A 0.32 0.32 0.0 0 1 141.34 141.22
  L 149.52 165.16
  A 0.32 0.32 0.0 0 0 149.82 165.38
  L 164.50 165.40
  A 0.32 0.32 0.0 0 0 164.80 164.97
  L 138.76 89.83
  A 0.32 0.32 0.0 0 0 138.46 89.61
  L 119.86 89.60
  A 0.32 0.32 0.0 0 0 119.56 89.80
  L 90.23 164.96
  A 0.32 0.32 0.0 0 0 90.53 165.40
  L 104.67 165.40
  A 0.32 0.32 0.0 0 0 104.97 165.19
  L 114.09 141.21
  A 0.32 0.32 0.0 0 1 114.39 141.00
  L 141.04 141.00"
/>
<path stroke="#808080" vector-effect="non-scaling-stroke" d="
  M 118.42 129.57
  A 0.33 0.33 0.0 0 0 118.74 130.00
  L 137.23 130.00
  A 0.33 0.33 0.0 0 0 137.54 129.58
  L 128.85 100.19
  A 0.33 0.33 0.0 0 0 128.22 100.18
  L 118.42 129.57"
/>
</g>
<path fill="#6eb055" d="
  M 16.63 0.00
  L 239.30 0.00
  Q 252.51 2.52 255.00 17.20
  L 255.00 238.48
  Q 253.49 249.04 244.00 253.20
  Q 241.92 254.12 237.37 255.00
  L 16.47 255.00
  Q 2.59 252.93 0.00 238.07
  L 0.00 15.52
  Q 1.80 5.69 10.75 1.79
  Q 12.67 0.95 16.63 0.00
  Z
  M 251.74 18.90
  A 15.66 15.66 0.0 0 0 236.08 3.24
  L 18.90 3.24
  A 15.66 15.66 0.0 0 0 3.24 18.90
  L 3.24 236.08
  A 15.66 15.66 0.0 0 0 18.90 251.74
  L 236.08 251.74
  A 15.66 15.66 0.0 0 0 251.74 236.08
  L 251.74 18.90
  Z"
/>
<path fill="#6eb055" d="
  M 216.75 216.25
  A 0.50 0.50 0.0 0 1 216.25 216.75
  L 38.51 216.75
  A 0.50 0.50 0.0 0 1 38.01 216.25
  L 38.01 38.51
  A 0.50 0.50 0.0 0 1 38.51 38.01
  L 216.25 38.01
  A 0.50 0.50 0.0 0 1 216.75 38.51
  L 216.75 216.25
  Z
  M 195.75 59.54
  A 0.29 0.29 0.0 0 0 195.46 59.25
  L 59.54 59.25
  A 0.29 0.29 0.0 0 0 59.25 59.54
  L 59.25 195.46
  A 0.29 0.29 0.0 0 0 59.54 195.75
  L 195.46 195.75
  A 0.29 0.29 0.0 0 0 195.75 195.46
  L 195.75 59.54
  Z"
/>
<path fill="#ffffff" d="
  M 195.75 195.46
  A 0.29 0.29 0.0 0 1 195.46 195.75
  L 59.54 195.75
  A 0.29 0.29 0.0 0 1 59.25 195.46
  L 59.25 59.54
  A 0.29 0.29 0.0 0 1 59.54 59.25
  L 195.46 59.25
  A 0.29 0.29 0.0 0 1 195.75 59.54
  L 195.75 195.46
  Z
  M 141.04 141.00
  A 0.32 0.32 0.0 0 1 141.34 141.22
  L 149.52 165.16
  A 0.32 0.32 0.0 0 0 149.82 165.38
  L 164.50 165.40
  A 0.32 0.32 0.0 0 0 164.80 164.97
  L 138.76 89.83
  A 0.32 0.32 0.0 0 0 138.46 89.61
  L 119.86 89.60
  A 0.32 0.32 0.0 0 0 119.56 89.80
  L 90.23 164.96
  A 0.32 0.32 0.0 0 0 90.53 165.40
  L 104.67 165.40
  A 0.32 0.32 0.0 0 0 104.97 165.19
  L 114.09 141.21
  A 0.32 0.32 0.0 0 1 114.39 141.00
  L 141.04 141.00
  Z"
/>
<path fill="#000000" d="
  M 141.04 141.00
  L 114.39 141.00
  A 0.32 0.32 0.0 0 0 114.09 141.21
  L 104.97 165.19
  A 0.32 0.32 0.0 0 1 104.67 165.40
  L 90.53 165.40
  A 0.32 0.32 0.0 0 1 90.23 164.96
  L 119.56 89.80
  A 0.32 0.32 0.0 0 1 119.86 89.60
  L 138.46 89.61
  A 0.32 0.32 0.0 0 1 138.76 89.83
  L 164.80 164.97
  A 0.32 0.32 0.0 0 1 164.50 165.40
  L 149.82 165.38
  A 0.32 0.32 0.0 0 1 149.52 165.16
  L 141.34 141.22
  A 0.32 0.32 0.0 0 0 141.04 141.00
  Z
  M 118.42 129.57
  A 0.33 0.33 0.0 0 0 118.74 130.00
  L 137.23 130.00
  A 0.33 0.33 0.0 0 0 137.54 129.58
  L 128.85 100.19
  A 0.33 0.33 0.0 0 0 128.22 100.18
  L 118.42 129.57
  Z"
/>
<path fill="#ffffff" d="
  M 118.42 129.57
  L 128.22 100.18
  A 0.33 0.33 0.0 0 1 128.85 100.19
  L 137.54 129.58
  A 0.33 0.33 0.0 0 1 137.23 130.00
  L 118.74 130.00
  A 0.33 0.33 0.0 0 1 118.42 129.57
  Z"
/>
</svg>
