<?xml version="1.0" encoding="UTF-8"?>
<svg id="a" width="209.36" height="95.488" version="1.1" viewBox="0 0 55.394 25.265" xmlns="http://www.w3.org/2000/svg">
 <path id="b" d="m3.817 0.13h47.76c2.0412 0 3.6845 1.6433 3.6845 3.6845v17.631c0 2.0412-1.6433 3.6845-3.6845 3.6845h-47.76c-2.0412 0-3.6845-1.6433-3.6845-3.6845v-17.631c0-2.0412 1.6433-3.6845 3.6845-3.6845z" fill="#fff" stroke-width=".44914"/>
 <path id="c" d="m23.371 0.13v25h2.9501v-25z" fill="#eeeeed" stroke-width=".44914"/>
 <path id="d" d="m3.817 0.13h47.76c2.0412 0 3.6845 1.6433 3.6845 3.6845v17.631c0 2.0412-1.6433 3.6845-3.6845 3.6845h-47.76c-2.0412 0-3.6845-1.6433-3.6845-3.6845v-17.631c0-2.0412 1.6433-3.6845 3.6845-3.6845z" fill="none" stroke="#000" stroke-width=".26458"/>
 <g id="e" transform="translate(-51.816,-126.2)" stroke-width=".016621" aria-label="Films, Videos, and Publications Classification Act 1993">
  <path id="f" d="m54.913 148.26h0.67448l-0.02582 0.11914h-0.54276l-0.06222 0.29521h0.47724l-0.02515 0.11583h-0.47724l-0.09333 0.44216h-0.13172z"/>
  <path id="g" d="m55.657 148.52h0.12113l-0.14959 0.7056h-0.12113zm0.05692-0.26674h0.12113l-0.02912 0.13502h-0.12113z"/>
  <path id="h" d="m56.019 148.26h0.11914l-0.20652 0.97234h-0.11914z"/>
  <path id="i" d="m56.262 148.52h0.11782l-0.02118 0.10061q0.05361-0.0523 0.09267-0.0761 0.06752-0.0404 0.14231-0.0404 0.08472 0 0.12775 0.0417 0.02383 0.0238 0.03773 0.0702 0.05229-0.0569 0.1112-0.0841 0.05957-0.0278 0.12642-0.0278 0.14297 0 0.17276 0.10326 0.01589 0.0556-4e-3 0.14959l-0.09995 0.47194h-0.12378l0.10458-0.49246q0.01456-0.0708-0.01522-0.0973-0.02979-0.0265-0.08075-0.0265-0.07016 0-0.13106 0.047-0.06023 0.047-0.0834 0.15687l-0.08737 0.41237h-0.12113l0.09796-0.46267q0.01522-0.0721 0.0053-0.10525-0.01655-0.0496-0.09068-0.0496-0.06752 0-0.13437 0.0523-0.06619 0.0523-0.09532 0.1893l-0.07943 0.37597h-0.11914z"/>
  <path id="j" d="m57.36 149.01q-0.0073 0.0596 0.01059 0.0913 0.03243 0.0576 0.14363 0.0576 0.06619 0 0.12245-0.0285 0.05692-0.0291 0.0695-0.0893 0.0099-0.0457-0.02581-0.0695-0.0225-0.0146-0.09465-0.0338l-0.08936-0.0238q-0.08605-0.0225-0.12312-0.0503-0.06685-0.0483-0.04832-0.13371 0.02118-0.10061 0.10657-0.16283 0.08605-0.0622 0.2085-0.0622 0.16018 0 0.21115 0.094 0.03177 0.0596 0.01589 0.12841h-0.11252q0.0053-0.0404-0.01324-0.0735-0.03111-0.047-0.13238-0.047-0.06751 0-0.10789 0.0258-0.03971 0.0258-0.04898 0.0682-0.0099 0.0463 0.02979 0.0741 0.02317 0.0166 0.07215 0.0291l0.0748 0.0192q0.12179 0.0311 0.15952 0.0602 0.05957 0.0457 0.03839 0.14364-0.01986 0.0947-0.10657 0.16349-0.08605 0.0688-0.23299 0.0688-0.1582 0-0.20916-0.0715-0.0503-0.0722-0.03243-0.17805z"/>
  <path id="k" d="m57.916 149.37q0.04766-8e-3 0.07811-0.0642 0.01589-0.0298 0.02184-0.0576 0.0013-5e-3 0.0013-9e-3 6.62e-4 -3e-3 6.62e-4 -8e-3h-0.07215l0.03045-0.1443h0.14165l-0.02846 0.13371q-0.01655 0.0788-0.06156 0.13834-0.04435 0.0596-0.1251 0.0735z"/>
  <path id="l" d="m58.975 148.26 0.10326 0.82804 0.45208-0.82804h0.14761l-0.5613 0.97234h-0.13966l-0.14761-0.97234z"/>
  <path id="m" d="m59.707 148.52h0.12113l-0.14959 0.7056h-0.12113zm0.05692-0.26674h0.12113l-0.02912 0.13502h-0.12113z"/>
  <path id="n" d="m60.154 149.15q0.08274 0 0.15092-0.0708 0.06818-0.0715 0.09664-0.20453 0.02846-0.13437-0.01258-0.19857-0.04104-0.0649-0.12179-0.0649-0.09002 0-0.16084 0.0688-0.07016 0.0688-0.09863 0.20254-0.02449 0.11385 0.0073 0.19063 0.03243 0.0768 0.139 0.0768zm0.2416-0.60829q0.0278 0.0199 0.05759 0.0695l0.07612-0.35809h0.11451l-0.20718 0.97565h-0.10723l0.02052-0.0986q-0.0556 0.0655-0.11914 0.0947-0.06288 0.0291-0.13635 0.0291-0.11848 0-0.18401-0.0993-0.06553-0.1-0.02979-0.26543 0.03243-0.15489 0.13569-0.26807 0.10326-0.11385 0.2502-0.11385 0.08141 0 0.12907 0.0344z"/>
  <path id="o" d="m61.29 148.63q0.02449 0.0536 0.02118 0.1251 6.62e-4 0.049-0.0225 0.15621h-0.5196q-0.01986 0.10789 0.0139 0.17342 0.03442 0.0649 0.13437 0.0649 0.09333 0 0.1615-0.0616 0.03972-0.0358 0.06288-0.0827h0.11716q-0.01324 0.0391-0.04964 0.0874-0.03574 0.0477-0.0748 0.0781-0.06553 0.053-0.14959 0.0715-0.04567 0.0106-0.09995 0.0106-0.13238 0-0.20387-0.096-0.07149-0.0966-0.03442-0.27005 0.03641-0.17078 0.15158-0.27734 0.11517-0.10657 0.26476-0.10657 0.07546 0 0.139 0.0357 0.06354 0.0351 0.08803 0.0913zm-0.10392 0.18665q0.0093-0.0774-0.0073-0.12377-0.03045-0.0861-0.14496-0.0861-0.08208 0-0.15025 0.0596-0.06818 0.0589-0.09134 0.15025z"/>
  <path id="p" d="m61.934 148.86q0.02118-0.0993 0.0026-0.1615-0.02979-0.098-0.1529-0.098-0.10922 0-0.17673 0.0834-0.06685 0.0834-0.09201 0.20122-0.02383 0.11318 0.0093 0.18864 0.03376 0.0755 0.14165 0.0755 0.11848 0 0.18136-0.0894 0.06354-0.09 0.08671-0.1999zm0.1251-3e-3q-0.03641 0.17144-0.14363 0.2833-0.10723 0.11186-0.28264 0.11186-0.14628 0-0.21115-0.0986-0.06487-0.0993-0.02979-0.26609 0.03839-0.17871 0.15158-0.28462 0.11319-0.1059 0.26609-0.1059 0.13702 0 0.21181 0.0913 0.07546 0.0913 0.03773 0.26873z"/>
  <path id="q" d="m62.242 149.01q-0.0073 0.0596 0.01059 0.0913 0.03243 0.0576 0.14363 0.0576 0.06619 0 0.12245-0.0285 0.05692-0.0291 0.0695-0.0893 0.0099-0.0457-0.02581-0.0695-0.02251-0.0146-0.09465-0.0338l-0.08936-0.0238q-0.08605-0.0225-0.12312-0.0503-0.06685-0.0483-0.04832-0.13371 0.02118-0.10061 0.10657-0.16283 0.08605-0.0622 0.2085-0.0622 0.16018 0 0.21115 0.094 0.03177 0.0596 0.01589 0.12841h-0.11252q0.0053-0.0404-0.01324-0.0735-0.03111-0.047-0.13238-0.047-0.06752 0-0.10789 0.0258-0.03972 0.0258-0.04898 0.0682-0.0099 0.0463 0.02978 0.0741 0.02317 0.0166 0.07215 0.0291l0.0748 0.0192q0.12179 0.0311 0.15952 0.0602 0.05957 0.0457 0.03839 0.14364-0.01986 0.0947-0.10657 0.16349-0.08605 0.0688-0.23299 0.0688-0.1582 0-0.20916-0.0715-0.0503-0.0722-0.03243-0.17805z"/>
  <path id="r" d="m62.798 149.37q0.04766-8e-3 0.07811-0.0642 0.01589-0.0298 0.02184-0.0576 0.0013-5e-3 0.0013-9e-3 6.62e-4 -3e-3 6.62e-4 -8e-3h-0.07215l0.03045-0.1443h0.14165l-0.02846 0.13371q-0.01655 0.0788-0.06156 0.13834-0.04435 0.0596-0.1251 0.0735z"/>
  <path id="s" d="m63.792 149.15q0.06288 0 0.12841-0.0291 0.10922-0.0483 0.13304-0.15819l0.01986-0.096q-0.02449 0.0139-0.0609 0.0232-0.03641 9e-3 -0.07016 0.0132l-0.07413 9e-3q-0.06685 9e-3 -0.10326 0.0271-0.06156 0.0311-0.07612 0.0993-0.01125 0.0516 0.01986 0.0814 0.03177 0.0298 0.0834 0.0298zm0.2363-0.35214q0.04236-5e-3 0.06288-0.0344 0.01125-0.0159 0.01721-0.0457 0.01324-0.0609-0.02449-0.088-0.03773-0.0278-0.11848-0.0278-0.09333 0-0.14297 0.0503-0.0278 0.0278-0.04567 0.0827h-0.1112q0.03111-0.13106 0.12378-0.18203 0.09267-0.0516 0.20056-0.0516 0.1251 0 0.19262 0.0476 0.06752 0.0477 0.04633 0.14827l-0.08671 0.4084q-4e-3 0.0185 6.62e-4 0.0298 0.0053 0.0113 0.02979 0.0113 0.0079 0 0.01787-6.7e-4 0.01059-1e-3 0.0225-3e-3l-0.01919 0.088q-0.02912 8e-3 -0.04435 0.01-0.01456 2e-3 -0.03972 2e-3 -0.06156 0-0.08009-0.0437-0.0099-0.0232-0.0066-0.0655-0.04699 0.0477-0.12245 0.0827-0.07546 0.0351-0.15753 0.0351-0.09862 0-0.14893-0.0596-0.04964-0.0602-0.03045-0.15026 0.02118-0.0986 0.09399-0.1529 0.07347-0.0543 0.17607-0.0668z"/>
  <path id="t" d="m64.463 148.52h0.11319l-0.02118 0.10061q0.06354-0.0622 0.1251-0.0894 0.06222-0.0271 0.13106-0.0271 0.15092 0 0.18136 0.10524 0.01721 0.0576-0.0053 0.16482l-0.09664 0.45473h-0.12113l0.09465-0.44679q0.0139-0.0649 0.0033-0.10458-0.01787-0.0662-0.10127-0.0662-0.04236 0-0.07149 9e-3 -0.05229 0.0146-0.09862 0.0583-0.03707 0.0351-0.05428 0.0728-0.01655 0.0371-0.03111 0.10657l-0.07877 0.37133h-0.11914z"/>
  <path id="u" d="m65.363 149.15q0.08274 0 0.15092-0.0708 0.06818-0.0715 0.09664-0.20453 0.02846-0.13437-0.01258-0.19857-0.04104-0.0649-0.12179-0.0649-0.09002 0-0.16084 0.0688-0.07016 0.0688-0.09862 0.20254-0.02449 0.11385 0.0073 0.19063 0.03243 0.0768 0.139 0.0768zm0.2416-0.60829q0.0278 0.0199 0.05759 0.0695l0.07612-0.35809h0.11451l-0.20718 0.97565h-0.10723l0.02052-0.0986q-0.0556 0.0655-0.11914 0.0947-0.06288 0.0291-0.13635 0.0291-0.11848 0-0.18401-0.0993-0.06553-0.1-0.02979-0.26543 0.03243-0.15489 0.13569-0.26807 0.10326-0.11385 0.2502-0.11385 0.08142 0 0.12907 0.0344z"/>
  <path id="v" d="m66.435 148.26h0.43752q0.12973 0 0.19328 0.0735 0.06421 0.0728 0.03574 0.20519-0.02383 0.11385-0.11319 0.19857-0.0887 0.0841-0.23564 0.0841h-0.3058l-0.08671 0.41105h-0.13172zm0.48518 0.1337q-0.03971-0.0205-0.11583-0.0205h-0.26212l-0.07149 0.33691h0.26212q0.0887 0 0.15158-0.0377 0.06354-0.0377 0.08406-0.13304 0.0225-0.10723-0.04832-0.14562z"/>
  <path id="w" d="m67.375 148.52-0.09995 0.47061q-0.01125 0.0543-0.0013 0.0887 0.01787 0.0635 0.10458 0.0635 0.12444 0 0.19328-0.1112 0.03707-0.0596 0.05891-0.16349l0.07413-0.34816h0.11914l-0.15025 0.7089h-0.11252l0.02317-0.10458q-0.03177 0.0404-0.07215 0.0682-0.08009 0.0556-0.17739 0.0556-0.15158 0-0.18467-0.10127-0.01853-0.0543 6.62e-4 -0.14496l0.1026-0.48186z"/>
  <path id="x" d="m68.058 148.25h0.11583l-0.0748 0.35279q0.04964-0.051 0.10922-0.0774 0.06023-0.0271 0.12378-0.0271 0.13238 0 0.19526 0.0914 0.06354 0.0907 0.02581 0.26807-0.03574 0.16812-0.14099 0.27932-0.10524 0.1112-0.24954 0.1112-0.08075 0-0.12775-0.0391-0.02846-0.0232-0.05494-0.0741l-0.0192 0.0907h-0.10988zm0.37199 0.61359q0.02383-0.11187-0.0086-0.18534-0.03243-0.0735-0.12576-0.0735-0.08142 0-0.15555 0.0602t-0.10326 0.19858q-0.02118 0.0999-0.0093 0.16216 0.02184 0.11716 0.15025 0.11716 0.09664 0 0.16084-0.0768 0.06421-0.0768 0.09134-0.20254z"/>
  <path id="y" d="m68.825 148.26h0.11914l-0.20652 0.97234h-0.11914z"/>
  <path id="z" d="m69.067 148.52h0.12113l-0.14959 0.7056h-0.12113zm0.05692-0.26674h0.12113l-0.02912 0.13502h-0.12113z"/>
  <path id="aa" d="m69.878 148.76h-0.11583q0.0033-0.0655-0.02515-0.10855-0.02846-0.0437-0.11186-0.0437-0.11385 0-0.18666 0.1112-0.047 0.0721-0.0695 0.17806-0.02317 0.10656 0.0066 0.17937 0.02979 0.0728 0.12642 0.0728 0.07413 0 0.12709-0.045 0.05295-0.0457 0.08605-0.12443h0.11583q-0.04964 0.14098-0.14297 0.20651-0.09333 0.0649-0.21711 0.0649-0.139 0-0.20056-0.10127-0.0609-0.10194-0.02846-0.25418 0.03972-0.18665 0.15224-0.29057 0.11319-0.10392 0.25351-0.10392 0.1198 0 0.18202 0.0582 0.06288 0.0583 0.04832 0.20056z"/>
  <path id="ab" d="m70.133 149.15q0.06288 0 0.12841-0.0291 0.10922-0.0483 0.13304-0.15819l0.01986-0.096q-0.02449 0.0139-0.0609 0.0232-0.0364 9e-3 -0.07016 0.0132l-0.07413 9e-3q-0.06685 9e-3 -0.10326 0.0271-0.06156 0.0311-0.07612 0.0993-0.01125 0.0516 0.01986 0.0814 0.03177 0.0298 0.0834 0.0298zm0.2363-0.35214q0.04236-5e-3 0.06288-0.0344 0.01125-0.0159 0.01721-0.0457 0.01324-0.0609-0.02449-0.088-0.03773-0.0278-0.11848-0.0278-0.09333 0-0.14297 0.0503-0.0278 0.0278-0.04567 0.0827h-0.1112q0.03111-0.13106 0.12378-0.18203 0.09267-0.0516 0.20056-0.0516 0.1251 0 0.19262 0.0476 0.06752 0.0477 0.04633 0.14827l-0.08671 0.4084q-4e-3 0.0185 6.62e-4 0.0298 0.0053 0.0113 0.02979 0.0113 0.0079 0 0.01787-6.7e-4 0.01059-1e-3 0.0225-3e-3l-0.01919 0.088q-0.02912 8e-3 -0.04435 0.01-0.01456 2e-3 -0.03972 2e-3 -0.06156 0-0.08009-0.0437-0.0099-0.0232-0.0066-0.0655-0.04699 0.0477-0.12245 0.0827-0.07546 0.0351-0.15753 0.0351-0.09862 0-0.14893-0.0596-0.04964-0.0602-0.03045-0.15026 0.02118-0.0986 0.09399-0.1529 0.07347-0.0543 0.17607-0.0668z"/>
  <path id="ac" d="m70.87 148.32h0.12047l-0.04236 0.19792h0.11319l-0.02052 0.0973h-0.11319l-0.09862 0.46267q-0.0079 0.0371 0.01456 0.0496 0.01258 7e-3 0.04501 7e-3 0.0086 0 0.01853 0 0.0099-6.6e-4 0.02383-2e-3l-0.01986 0.094q-0.02184 6e-3 -0.04501 9e-3 -0.02251 3e-3 -0.04832 3e-3 -0.0834 0-0.10458-0.0424-0.02052-0.043-6e-3 -0.1112l0.09995-0.46929h-0.09598l0.02052-0.0973h0.09598z"/>
  <path id="ad" d="m71.18 148.52h0.12113l-0.14959 0.7056h-0.12113zm0.05692-0.26674h0.12113l-0.02912 0.13502h-0.12113z"/>
  <path id="ae" d="m71.898 148.86q0.02118-0.0993 0.0026-0.1615-0.02979-0.098-0.1529-0.098-0.10922 0-0.17673 0.0834-0.06685 0.0834-0.09201 0.20122-0.02383 0.11318 0.0093 0.18864 0.03376 0.0755 0.14165 0.0755 0.11848 0 0.18136-0.0894 0.06354-0.09 0.08671-0.1999zm0.1251-3e-3q-0.0364 0.17144-0.14363 0.2833t-0.28263 0.11186q-0.14628 0-0.21115-0.0986-0.06487-0.0993-0.02979-0.26609 0.03839-0.17871 0.15158-0.28462 0.11319-0.1059 0.26609-0.1059 0.13702 0 0.21181 0.0913 0.07546 0.0913 0.03773 0.26873z"/>
  <path id="af" d="m72.238 148.52h0.11319l-0.02118 0.10061q0.06354-0.0622 0.1251-0.0894 0.06222-0.0271 0.13106-0.0271 0.15092 0 0.18136 0.10524 0.01721 0.0576-0.0053 0.16482l-0.09664 0.45473h-0.12113l0.09465-0.44679q0.0139-0.0649 0.0033-0.10458-0.01787-0.0662-0.10127-0.0662-0.04236 0-0.07149 9e-3 -0.05229 0.0146-0.09862 0.0583-0.03707 0.0351-0.05428 0.0728-0.01655 0.0371-0.03111 0.10657l-0.07877 0.37133h-0.11914z"/>
  <path id="ag" d="m72.96 149.01q-0.0073 0.0596 0.01059 0.0913 0.03243 0.0576 0.14363 0.0576 0.06619 0 0.12245-0.0285 0.05692-0.0291 0.0695-0.0893 0.0099-0.0457-0.02581-0.0695-0.0225-0.0146-0.09465-0.0338l-0.08936-0.0238q-0.08605-0.0225-0.12312-0.0503-0.06685-0.0483-0.04832-0.13371 0.02118-0.10061 0.10657-0.16283 0.08605-0.0622 0.2085-0.0622 0.16018 0 0.21115 0.094 0.03177 0.0596 0.01589 0.12841h-0.11252q0.0053-0.0404-0.01324-0.0735-0.03111-0.047-0.13238-0.047-0.06752 0-0.10789 0.0258-0.03971 0.0258-0.04898 0.0682-0.0099 0.0463 0.02979 0.0741 0.02317 0.0166 0.07215 0.0291l0.0748 0.0192q0.12179 0.0311 0.15952 0.0602 0.05957 0.0457 0.03839 0.14364-0.01986 0.0947-0.10657 0.16349-0.08605 0.0688-0.23299 0.0688-0.1582 0-0.20916-0.0715-0.0503-0.0722-0.03243-0.17805z"/>
  <path id="ah" d="m57.724 149.91h-0.12841q-2e-3 -0.094-0.0556-0.14893-0.05362-0.0549-0.17143-0.0549-0.14363 0-0.25351 0.10127-0.10922 0.10061-0.15356 0.30911-0.0364 0.17077 0.02052 0.27734 0.05759 0.10591 0.21578 0.10591 0.14562 0 0.24557-0.11187 0.05229-0.0589 0.09267-0.15488h0.12841q-0.04964 0.15356-0.16812 0.25748-0.14297 0.1251-0.33956 0.1251-0.16945 0-0.26278-0.1026-0.12245-0.13569-0.06222-0.41898 0.04567-0.21512 0.18864-0.3528 0.15489-0.14959 0.37133-0.14959 0.18467 0 0.26609 0.0973 0.08141 0.0973 0.06619 0.22108z"/>
  <path id="ai" d="m57.991 149.61h0.11914l-0.20652 0.97235h-0.11914z"/>
  <path id="aj" d="m58.364 150.51q0.06288 0 0.12841-0.0291 0.10921-0.0483 0.13304-0.1582l0.01986-0.096q-0.02449 0.0139-0.0609 0.0232-0.03641 9e-3 -0.07016 0.0132l-0.07413 9e-3q-0.06685 9e-3 -0.10326 0.0271-0.06156 0.0311-0.07612 0.0993-0.01125 0.0516 0.01986 0.0814 0.03177 0.0298 0.0834 0.0298zm0.2363-0.35213q0.04236-5e-3 0.06288-0.0344 0.01125-0.0159 0.01721-0.0457 0.01324-0.0609-0.02449-0.088-0.03773-0.0278-0.11848-0.0278-0.09333 0-0.14297 0.0503-0.0278 0.0278-0.04567 0.0827h-0.1112q0.03111-0.13106 0.12378-0.18203 0.09267-0.0516 0.20056-0.0516 0.1251 0 0.19262 0.0477t0.04633 0.14827l-0.08671 0.4084q-4e-3 0.0185 6.62e-4 0.0298 0.0053 0.0112 0.02979 0.0112 0.0079 0 0.01787-6.6e-4 0.01059-1e-3 0.02251-3e-3l-0.01919 0.088q-0.02912 8e-3 -0.04435 0.01-0.01456 2e-3 -0.03971 2e-3 -0.06156 0-0.08009-0.0437-0.0099-0.0232-0.0066-0.0655-0.047 0.0477-0.12245 0.0827-0.07546 0.0351-0.15753 0.0351-0.09862 0-0.14893-0.0596-0.04964-0.0602-0.03045-0.15025 0.02118-0.0986 0.09399-0.1529 0.07347-0.0543 0.17607-0.0668z"/>
  <path id="ak" d="m59.05 150.36q-0.0073 0.0596 0.01059 0.0913 0.03243 0.0576 0.14363 0.0576 0.06619 0 0.12245-0.0285 0.05692-0.0291 0.0695-0.0894 0.0099-0.0457-0.02581-0.0695-0.0225-0.0146-0.09465-0.0337l-0.08936-0.0238q-0.08605-0.0225-0.12312-0.0503-0.06685-0.0483-0.04832-0.1337 0.02118-0.10061 0.10657-0.16283 0.08605-0.0622 0.2085-0.0622 0.16018 0 0.21115 0.094 0.03177 0.0596 0.01589 0.12841h-0.11252q0.0053-0.0404-0.01324-0.0735-0.03111-0.047-0.13238-0.047-0.06752 0-0.10789 0.0258-0.03972 0.0258-0.04898 0.0682-0.0099 0.0463 0.02979 0.0741 0.02317 0.0165 0.07215 0.0291l0.0748 0.0192q0.12179 0.0311 0.15952 0.0602 0.05957 0.0457 0.03839 0.14364-0.01986 0.0947-0.10657 0.16349-0.08605 0.0688-0.23299 0.0688-0.1582 0-0.20916-0.0715-0.05031-0.0721-0.03243-0.17805z"/>
  <path id="al" d="m59.775 150.36q-0.0073 0.0596 0.01059 0.0913 0.03243 0.0576 0.14363 0.0576 0.06619 0 0.12245-0.0285 0.05692-0.0291 0.0695-0.0894 0.0099-0.0457-0.02581-0.0695-0.02251-0.0146-0.09465-0.0337l-0.08936-0.0238q-0.08605-0.0225-0.12312-0.0503-0.06685-0.0483-0.04832-0.1337 0.02118-0.10061 0.10657-0.16283 0.08605-0.0622 0.2085-0.0622 0.16018 0 0.21115 0.094 0.03177 0.0596 0.01589 0.12841h-0.11252q0.0053-0.0404-0.01324-0.0735-0.03111-0.047-0.13238-0.047-0.06752 0-0.10789 0.0258-0.03972 0.0258-0.04898 0.0682-0.0099 0.0463 0.02979 0.0741 0.02317 0.0165 0.07215 0.0291l0.0748 0.0192q0.12179 0.0311 0.15952 0.0602 0.05957 0.0457 0.03839 0.14364-0.01986 0.0947-0.10657 0.16349-0.08605 0.0688-0.23299 0.0688-0.1582 0-0.20916-0.0715-0.05031-0.0721-0.03243-0.17805z"/>
  <path id="am" d="m60.532 149.88h0.12113l-0.14959 0.7056h-0.12113zm0.05692-0.26675h0.12113l-0.02912 0.13503h-0.12113z"/>
  <path id="an" d="m60.984 149.66q0.05428-0.0609 0.17342-0.0609 0.01125 0 0.02317 6.7e-4 0.01191 6.6e-4 0.02648 2e-3l-0.02317 0.10855q-0.01787-1e-3 -0.02648-1e-3 -0.0079-6.6e-4 -0.01522-6.6e-4 -0.05428 0-0.07082 0.0285-0.01655 0.0278-0.04104 0.14297h0.11782l-0.01986 0.094h-0.11914l-0.12973 0.61161h-0.11782l0.12973-0.61161h-0.09862l0.01986-0.094h0.09863l0.02383-0.1112q0.01853-0.0741 0.04898-0.10855zm0.30646 0.088 0.02912-0.13503h0.11914l-0.02912 0.13503zm-0.0278 0.13172h0.11914l-0.14959 0.7056h-0.11914z"/>
  <path id="ao" d="m62.164 150.12h-0.11583q0.0033-0.0655-0.02515-0.10855-0.02846-0.0437-0.11186-0.0437-0.11385 0-0.18666 0.1112-0.047 0.0722-0.0695 0.17806-0.02317 0.10656 0.0066 0.17937 0.02979 0.0728 0.12642 0.0728 0.07413 0 0.12709-0.045 0.05295-0.0457 0.08605-0.12444h0.11583q-0.04964 0.14099-0.14297 0.20652-0.09333 0.0649-0.21711 0.0649-0.139 0-0.20056-0.10128-0.0609-0.10193-0.02846-0.25417 0.03971-0.18666 0.15224-0.29058 0.11319-0.10392 0.25351-0.10392 0.11981 0 0.18202 0.0583 0.06288 0.0582 0.04832 0.20056z"/>
  <path id="ap" d="m62.465 150.51q0.06288 0 0.12841-0.0291 0.10922-0.0483 0.13304-0.1582l0.01986-0.096q-0.02449 0.0139-0.0609 0.0232-0.03641 9e-3 -0.07016 0.0132l-0.07413 9e-3q-0.06685 9e-3 -0.10326 0.0271-0.06156 0.0311-0.07612 0.0993-0.01125 0.0516 0.01986 0.0814 0.03177 0.0298 0.0834 0.0298zm0.2363-0.35213q0.04236-5e-3 0.06288-0.0344 0.01125-0.0159 0.01721-0.0457 0.01324-0.0609-0.02449-0.088-0.03773-0.0278-0.11848-0.0278-0.09333 0-0.14297 0.0503-0.0278 0.0278-0.04567 0.0827h-0.1112q0.03111-0.13106 0.12378-0.18203 0.09267-0.0516 0.20056-0.0516 0.1251 0 0.19262 0.0477 0.06751 0.0477 0.04633 0.14827l-0.08671 0.4084q-4e-3 0.0185 6.62e-4 0.0298 0.0053 0.0112 0.02979 0.0112 0.0079 0 0.01787-6.6e-4 0.01059-1e-3 0.0225-3e-3l-0.0192 0.088q-0.02912 8e-3 -0.04435 0.01-0.01456 2e-3 -0.03971 2e-3 -0.06156 0-0.08009-0.0437-0.0099-0.0232-0.0066-0.0655-0.047 0.0477-0.12245 0.0827-0.07546 0.0351-0.15753 0.0351-0.09862 0-0.14893-0.0596-0.04964-0.0602-0.03045-0.15025 0.02118-0.0986 0.09399-0.1529 0.07347-0.0543 0.17607-0.0668z"/>
  <path id="aq" d="m63.249 149.68h0.12047l-0.04236 0.19791h0.11319l-0.02052 0.0973h-0.11319l-0.09862 0.46268q-0.0079 0.0371 0.01456 0.0496 0.01258 7e-3 0.04501 7e-3 0.0086 0 0.01853 0 0.0099-6.6e-4 0.02383-2e-3l-0.01986 0.094q-0.02184 6e-3 -0.04501 9e-3 -0.02251 3e-3 -0.04832 3e-3 -0.0834 0-0.10458-0.0424-0.02052-0.043-6e-3 -0.1112l0.09995-0.4693h-0.09598l0.02052-0.0973h0.09598z"/>
  <path id="ar" d="m63.606 149.88h0.12113l-0.14959 0.7056h-0.12113zm0.05692-0.26675h0.12113l-0.02912 0.13503h-0.12113z"/>
  <path id="as" d="m64.371 150.22q0.02118-0.0993 0.0026-0.1615-0.02979-0.098-0.1529-0.098-0.10922 0-0.17673 0.0834-0.06685 0.0834-0.09201 0.20122-0.02383 0.11319 0.0093 0.18865 0.03376 0.0755 0.14165 0.0755 0.11848 0 0.18136-0.0894 0.06354-0.09 0.08671-0.1999zm0.1251-3e-3q-0.03641 0.17144-0.14363 0.2833-0.10723 0.11186-0.28264 0.11186-0.14628 0-0.21115-0.0986-0.06487-0.0993-0.02979-0.26609 0.03839-0.17872 0.15158-0.28462 0.11319-0.10591 0.26609-0.10591 0.13702 0 0.21181 0.0914 0.07546 0.0913 0.03773 0.26873z"/>
  <path id="at" d="m64.757 149.88h0.11319l-0.02118 0.10061q0.06354-0.0622 0.1251-0.0894 0.06222-0.0271 0.13106-0.0271 0.15092 0 0.18136 0.10524 0.01721 0.0576-0.0053 0.16482l-0.09664 0.45473h-0.12113l0.09465-0.44679q0.0139-0.0649 0.0033-0.10458-0.01787-0.0662-0.10127-0.0662-0.04236 0-0.07149 9e-3 -0.05229 0.0146-0.09862 0.0582-0.03707 0.0351-0.05428 0.0728-0.01655 0.0371-0.03111 0.10657l-0.07877 0.37133h-0.11914z"/>
  <path id="au" d="m66.358 150.19-0.05626-0.42958-0.24822 0.42958zm-0.09399-0.57388h0.14893l0.14628 0.97235h-0.1443l-0.03707-0.29124h-0.38457l-0.1668 0.29124h-0.13503z"/>
  <path id="av" d="m67.37 150.12h-0.11583q0.0033-0.0655-0.02515-0.10855-0.02846-0.0437-0.11186-0.0437-0.11385 0-0.18666 0.1112-0.047 0.0722-0.0695 0.17806-0.02317 0.10656 0.0066 0.17937 0.02979 0.0728 0.12642 0.0728 0.07413 0 0.12709-0.045 0.05295-0.0457 0.08605-0.12444h0.11583q-0.04964 0.14099-0.14297 0.20652-0.09333 0.0649-0.21711 0.0649-0.139 0-0.20056-0.10128-0.0609-0.10193-0.02846-0.25417 0.03971-0.18666 0.15224-0.29058 0.11319-0.10392 0.25351-0.10392 0.11981 0 0.18202 0.0583 0.06288 0.0582 0.04832 0.20056z"/>
  <path id="aw" d="m67.653 149.68h0.12047l-0.04236 0.19791h0.11319l-0.02052 0.0973h-0.11319l-0.09862 0.46268q-0.0079 0.0371 0.01456 0.0496 0.01258 7e-3 0.04501 7e-3 0.0086 0 0.01853 0 0.0099-6.6e-4 0.02383-2e-3l-0.01986 0.094q-0.02184 6e-3 -0.04501 9e-3 -0.0225 3e-3 -0.04832 3e-3 -0.0834 0-0.10458-0.0424-0.02052-0.043-6e-3 -0.1112l0.09995-0.4693h-0.09598l0.02052-0.0973h0.09598z"/>
  <path id="ax" d="m68.47 149.91 0.0192-0.0913q0.13172-0.0126 0.18864-0.0417 0.05759-0.0298 0.10657-0.13966h0.09399l-0.20056 0.94388h-0.12709l0.14231-0.67118z"/>
  <path id="ay" d="m69.228 150.36q-0.01589 0.0986 0.047 0.13635 0.03243 0.0199 0.07811 0.0199 0.08539 0 0.16084-0.0708 0.07546-0.0715 0.14694-0.28925-0.05361 0.0629-0.11782 0.0887-0.06354 0.0252-0.13106 0.0252-0.13702 0-0.19857-0.0854-0.06156-0.0854-0.03309-0.21975 0.02714-0.12907 0.12642-0.22704 0.09995-0.098 0.25351-0.098 0.20718 0 0.24623 0.18666 0.02184 0.10259-0.01059 0.25682-0.03707 0.17408-0.11782 0.30845-0.13437 0.22372-0.34154 0.22372-0.139 0-0.19592-0.0728-0.05626-0.0728-0.0331-0.18268zm0.45473-0.40443q0.0225-0.10458-0.01986-0.15555-0.0417-0.0516-0.12312-0.0516-0.08737 0-0.15092 0.0589-0.06354 0.0583-0.08472 0.15621-0.0192 0.0927 0.0139 0.14761 0.03376 0.0543 0.13238 0.0543 0.07082 0 0.139-0.0463 0.06884-0.047 0.09333-0.16349z"/>
  <path id="az" d="m70.03 150.36q-0.01589 0.0986 0.047 0.13635 0.03243 0.0199 0.07811 0.0199 0.08539 0 0.16084-0.0708 0.07546-0.0715 0.14694-0.28925-0.05361 0.0629-0.11782 0.0887-0.06354 0.0252-0.13106 0.0252-0.13702 0-0.19857-0.0854-0.06156-0.0854-0.0331-0.21975 0.02714-0.12907 0.12642-0.22704 0.09995-0.098 0.25351-0.098 0.20718 0 0.24623 0.18666 0.02184 0.10259-0.01059 0.25682-0.03707 0.17408-0.11782 0.30845-0.13437 0.22372-0.34154 0.22372-0.139 0-0.19592-0.0728-0.05626-0.0728-0.0331-0.18268zm0.45473-0.40443q0.0225-0.10458-0.01986-0.15555-0.0417-0.0516-0.12312-0.0516-0.08737 0-0.15092 0.0589-0.06354 0.0583-0.08472 0.15621-0.0192 0.0927 0.0139 0.14761 0.03376 0.0543 0.13238 0.0543 0.07082 0 0.139-0.0463 0.06884-0.047 0.09333-0.16349z"/>
  <path id="ba" d="m70.697 150.29h0.12444q-0.01192 0.092 6e-3 0.1337 0.03045 0.0748 0.15158 0.0748 0.09399 0 0.1615-0.0503 0.06752-0.0503 0.08473-0.12973 0.02052-0.098-0.03111-0.13702-0.05163-0.0391-0.1582-0.0391-0.01192 0-0.02449 6.6e-4 -0.01191 0-0.02449 6.7e-4l0.0225-0.10525q0.01787 2e-3 0.03045 3e-3 0.01258 6.6e-4 0.02714 6.6e-4 0.06685 0 0.11451-0.0212 0.08274-0.0371 0.10326-0.13238 0.01522-0.0708-0.02714-0.10922-0.04236-0.0384-0.10922-0.0384-0.11914 0-0.18136 0.0794-0.03442 0.0437-0.05494 0.12444h-0.11782q0.0225-0.1059 0.08075-0.18004 0.10061-0.13238 0.28396-0.13238 0.14496 0 0.21049 0.0649 0.06619 0.0642 0.04038 0.18666-0.0192 0.0874-0.07744 0.14164-0.03641 0.0338-0.08671 0.053 0.07016 0.0205 0.09995 0.0794 0.02979 0.0582 0.01191 0.14297-0.02912 0.13569-0.13702 0.22108-0.10723 0.0854-0.27138 0.0854-0.16812 0-0.22439-0.092-0.0556-0.0927-0.0278-0.22505z"/>
 </g>
 <g id="bb" transform="matrix(.0098231 0 0 .0098231 -1.514 19.83)" aria-label="Suitable for Mature Audiences 16 Years and over.">
  <g id="bc">
   <path id="bd" d="m2995-1558q0.9133 16.309 7.6977 26.485 12.916 19.048 45.534 19.048 14.612 0 26.616-4.175 23.223-8.089 23.223-28.964 0-15.656-9.7851-22.31-9.9156-6.5234-31.052-11.351l-25.963-5.8711q-25.441-5.7406-36.009-12.655-18.266-12.003-18.266-35.879 0-25.833 17.874-42.402 17.874-16.57 50.622-16.57 30.138 0 51.144 14.612 21.136 14.482 21.136 46.447h-24.398q-1.9571-15.395-8.35-23.615-11.873-15.004-40.315-15.004-22.962 0-33.009 9.6547t-10.046 22.441q0 14.091 11.742 20.614 7.6977 4.175 34.835 10.438l26.876 6.132q19.44 4.4359 30.008 12.134 18.266 13.438 18.266 39.01 0 31.834-23.224 45.534-23.093 13.699-53.753 13.699-35.748 0-55.971-18.266-20.223-18.135-19.831-49.187z"/>
   <path id="be" d="m3170.7-1635.9v92.763q0 10.698 3.3922 17.483 6.2625 12.525 23.354 12.525 24.528 0 33.4-21.919 4.8273-11.742 4.8273-32.226v-68.626h23.484v139.73h-22.18l0.2609-20.614q-4.5664 7.9585-11.351 13.438-13.438 10.959-32.617 10.959-29.877 0-40.706-19.962-5.8711-10.698-5.8711-28.573v-94.981z"/>
   <path id="bf" d="m3289.9-1635.2h23.876v139.08h-23.876zm0-52.579h23.876v26.616h-23.876z"/>
   <path id="bg" d="m3348.1-1674.9h23.745v39.01h22.31v19.179h-22.31v91.198q0 7.3063 4.9578 9.7852 2.7398 1.4352 9.1328 1.4352 1.6961 0 3.6531 0 1.9571-0.1305 4.5664-0.3914v18.526q-4.0445 1.1742-8.4804 1.6961-4.3055 0.5219-9.3938 0.5219-16.439 0-22.31-8.35-5.8711-8.4805-5.8711-21.919v-92.502h-18.918v-19.179h18.918z"/>
   <path id="bh" d="m3429.7-1533.3q0 10.177 7.4368 16.048 7.4367 5.8711 17.613 5.8711 12.395 0 24.006-5.7407 19.57-9.5242 19.57-31.182v-18.918q-4.3055 2.7399-11.09 4.5664-6.7844 1.8266-13.308 2.6094l-14.221 1.8266q-12.786 1.6961-19.179 5.3492-10.829 6.132-10.829 19.57zm56.884-47.491q8.0891-1.0438 10.829-6.7844 1.5657-3.1312 1.5657-9.0023 0-12.003-8.611-17.352-8.4805-5.4797-24.398-5.4797-18.396 0-26.094 9.9157-4.3055 5.4797-5.6101 16.309h-21.919q0.6523-25.833 16.7-35.879 16.178-10.177 37.444-10.177 24.659 0 40.054 9.3937 15.265 9.3938 15.265 29.225v80.499q0 3.6531 1.4351 5.8711 1.5657 2.2179 6.393 2.2179 1.5656 0 3.5227-0.1304 1.957-0.261 4.175-0.6524v17.352q-5.4797 1.5656-8.35 1.957t-7.8282 0.3914q-12.134 0-17.613-8.6109-2.8704-4.5664-4.0446-12.916-7.1758 9.3937-20.614 16.308-13.438 6.9149-29.616 6.9149-19.44 0-31.834-11.742-12.264-11.873-12.264-29.616 0-19.44 12.134-30.138t31.834-13.177z"/>
   <path id="bi" d="m3552.5-1688.5h22.832v69.54q7.6977-10.046 18.396-15.265 10.698-5.3492 23.224-5.3492 26.094 0 42.272 18.005 16.309 17.874 16.309 52.84 0 33.139-16.048 55.058t-44.49 21.919q-15.917 0-26.877-7.6977-6.5235-4.5664-13.96-14.612v17.874h-21.658zm61.059 176q19.048 0 28.442-15.134 9.5242-15.134 9.5242-39.923 0-22.049-9.5242-36.531-9.3938-14.482-27.79-14.482-16.048 0-28.181 11.873-12.003 11.873-12.003 39.141 0 19.701 4.9578 31.965 9.2633 23.093 34.574 23.093z"/>
   <path id="bj" d="m3697.7-1687.8h23.484v191.66h-23.484z"/>
  </g>
  <path id="bk" d="m3808.7-1639q14.873 0 28.834 7.0453 13.96 6.9149 21.266 18.005 7.0453 10.568 9.3937 24.659 2.0875 9.6547 2.0875 30.791h-102.42q0.6524 21.266 10.046 34.183 9.3938 12.786 29.095 12.786 18.396 0 29.355-12.134 6.2625-7.0453 8.8719-16.309h23.093q-0.9133 7.6977-6.1321 17.222-5.0882 9.3937-11.481 15.395-10.698 10.438-26.485 14.091-8.4804 2.0875-19.179 2.0875-26.094 0-44.229-18.918-18.135-19.048-18.135-53.231 0-33.661 18.266-54.666t47.752-21.006zm37.444 61.842q-1.4352-15.265-6.6539-24.398-9.6547-16.961-32.226-16.961-16.178 0-27.138 11.742-10.959 11.612-11.612 29.616z"/>
  <path id="bl" d="m3967.3-1657.1q0.5219-14.612 5.0883-21.397 8.2195-12.003 31.704-12.003 2.218 0 4.5664 0.1304 2.3484 0.1305 5.3492 0.3914v21.397q-3.6531-0.2609-5.3492-0.2609-1.5656-0.1305-3.0008-0.1305-10.698 0-12.786 5.6102-2.0875 5.4797-2.0875 28.181h23.223v18.527h-23.484v120.55h-23.223v-120.55h-19.44v-18.527h19.44z"/>
  <path id="bm" d="m4085.2-1511.3q23.354 0 31.965-17.613 8.7414-17.744 8.7414-39.402 0-19.57-6.2625-31.834-9.9157-19.309-34.183-19.309-21.527 0-31.312 16.439-9.7852 16.439-9.7852 39.662 0 22.31 9.7852 37.184 9.7851 14.873 31.052 14.873zm0.9133-128.64q27.007 0 45.664 18.005t18.657 52.97q0 33.792-16.439 55.841t-51.013 22.049q-28.834 0-45.795-19.44-16.961-19.57-16.961-52.448 0-35.227 17.874-56.102t48.012-20.875z"/>
  <path id="bn" d="m4173.1-1635.9h22.31v24.137q2.7399-7.0453 13.438-17.091 10.698-10.177 24.659-10.177 0.6523 0 2.218 0.1305 1.5656 0.1305 5.3492 0.5219v24.789q-2.0875-0.3914-3.9141-0.5218-1.6961-0.1305-3.7836-0.1305-17.744 0-27.268 11.481-9.5243 11.351-9.5243 26.224v80.369h-23.484z"/>
  <path id="bo" d="m4326.3-1687.8h37.184l55.058 162.04 54.666-162.04h36.792v191.66h-24.659v-113.12q0-5.8711 0.2609-19.44 0.2609-13.569 0.2609-29.095l-54.666 161.65h-25.702l-55.058-161.65v5.8711q0 7.0453 0.2609 21.527 0.3914 14.352 0.3914 21.136v113.12h-24.789z"/>
  <path id="bp" d="m4555.8-1533.3q0 10.177 7.4367 16.048t17.613 5.8711q12.394 0 24.006-5.7407 19.57-9.5242 19.57-31.182v-18.918q-4.3055 2.7399-11.09 4.5664-6.7844 1.8266-13.308 2.6094l-14.221 1.8266q-12.786 1.6961-19.179 5.3492-10.829 6.132-10.829 19.57zm56.884-47.491q8.089-1.0438 10.829-6.7844 1.5656-3.1312 1.5656-9.0023 0-12.003-8.6109-17.352-8.4805-5.4797-24.398-5.4797-18.396 0-26.094 9.9157-4.3055 5.4797-5.6102 16.309h-21.919q0.6523-25.833 16.7-35.879 16.178-10.177 37.444-10.177 24.659 0 40.054 9.3937 15.265 9.3938 15.265 29.225v80.499q0 3.6531 1.4352 5.8711 1.5656 2.2179 6.393 2.2179 1.5656 0 3.5226-0.1304 1.957-0.261 4.175-0.6524v17.352q-5.4797 1.5656-8.35 1.957t-7.8281 0.3914q-12.134 0-17.613-8.6109-2.8703-4.5664-4.0445-12.916-7.1758 9.3937-20.614 16.308-13.438 6.9149-29.616 6.9149-19.44 0-31.834-11.742-12.264-11.873-12.264-29.616 0-19.44 12.134-30.138t31.834-13.177z"/>
  <path id="bq" d="m4682.5-1674.9h23.745v39.01h22.31v19.179h-22.31v91.198q0 7.3063 4.9578 9.7852 2.7399 1.4352 9.1329 1.4352 1.6961 0 3.6531 0 1.957-0.1305 4.5664-0.3914v18.526q-4.0445 1.1742-8.4805 1.6961-4.3054 0.5219-9.3937 0.5219-16.439 0-22.31-8.35-5.8711-8.4805-5.8711-21.919v-92.502h-18.918v-19.179h18.918z"/>
  <path id="br" d="m4766.9-1635.9v92.763q0 10.698 3.3922 17.483 6.2625 12.525 23.354 12.525 24.528 0 33.4-21.919 4.8273-11.742 4.8273-32.226v-68.626h23.484v139.73h-22.18l0.2609-20.614q-4.5664 7.9585-11.351 13.438-13.438 10.959-32.617 10.959-29.877 0-40.706-19.962-5.8711-10.698-5.8711-28.573v-94.981z"/>
  <path id="bs" d="m4884-1635.9h22.31v24.137q2.7398-7.0453 13.438-17.091 10.698-10.177 24.659-10.177 0.6524 0 2.218 0.1305t5.3492 0.5219v24.789q-2.0875-0.3914-3.914-0.5218-1.6961-0.1305-3.7836-0.1305-17.744 0-27.268 11.481-9.5242 11.351-9.5242 26.224v80.369h-23.484z"/>
  <path id="bt" d="m5021.9-1639q14.873 0 28.834 7.0453 13.96 6.9149 21.266 18.005 7.0453 10.568 9.3938 24.659 2.0875 9.6547 2.0875 30.791h-102.42q0.6523 21.266 10.046 34.183 9.3937 12.786 29.094 12.786 18.396 0 29.356-12.134 6.2625-7.0453 8.8719-16.309h23.093q-0.9133 7.6977-6.132 17.222-5.0883 9.3937-11.481 15.395-10.698 10.438-26.485 14.091-8.4805 2.0875-19.179 2.0875-26.094 0-44.229-18.918-18.135-19.048-18.135-53.231 0-33.661 18.266-54.666 18.266-21.006 47.752-21.006zm37.444 61.842q-1.4351-15.265-6.6539-24.398-9.6547-16.961-32.226-16.961-16.178 0-27.138 11.742-10.959 11.612-11.612 29.616z"/>
  <g id="bu">
   <path id="bv" d="m3076.5-1307.5-29.094-84.674-30.921 84.674zm-42.663-113.12h29.356l69.54 191.66h-28.442l-19.44-57.406h-75.802l-20.744 57.406h-26.616z"/>
   <path id="bw" d="m3169.1-1368.7v92.763q0 10.698 3.3922 17.483 6.2625 12.525 23.354 12.525 24.528 0 33.4-21.919 4.8273-11.742 4.8273-32.226v-68.627h23.484v139.73h-22.18l0.261-20.614q-4.5665 7.9586-11.351 13.438-13.438 10.959-32.617 10.959-29.877 0-40.706-19.962-5.8711-10.698-5.8711-28.573v-94.981z"/>
   <path id="bx" d="m3301.6-1297.2q0 22.441 9.5242 37.575 9.5243 15.134 30.53 15.134 16.309 0 26.746-13.96 10.568-14.091 10.568-40.315 0-26.485-10.829-39.141-10.829-12.786-26.746-12.786-17.744 0-28.834 13.569-10.959 13.569-10.959 39.923zm35.357-73.976q16.048 0 26.876 6.7844 6.2625 3.9141 14.221 13.699v-70.584h22.571v192.31h-21.136v-19.44q-8.2196 12.916-19.44 18.657-11.22 5.7406-25.702 5.7406-23.354 0-40.445-19.57-17.091-19.701-17.091-52.318 0-30.53 15.526-52.84 15.656-22.441 44.62-22.441z"/>
   <path id="by" d="m3427.8-1368h23.876v139.08h-23.876zm0-52.579h23.876v26.616h-23.876z"/>
   <path id="bz" d="m3537.8-1371.8q14.873 0 28.834 7.0453 13.96 6.9148 21.266 18.005 7.0453 10.568 9.3937 24.659 2.0875 9.6547 2.0875 30.791h-102.42q0.6524 21.266 10.046 34.183 9.3938 12.786 29.095 12.786 18.396 0 29.355-12.134 6.2625-7.0454 8.8719-16.309h23.093q-0.9133 7.6976-6.1321 17.222-5.0882 9.3938-11.481 15.395-10.698 10.438-26.485 14.091-8.4804 2.0875-19.179 2.0875-26.094 0-44.229-18.918-18.135-19.048-18.135-53.231 0-33.661 18.266-54.666t47.752-21.005zm37.444 61.842q-1.4352-15.265-6.6539-24.398-9.6547-16.961-32.226-16.961-16.178 0-27.138 11.742-10.959 11.612-11.612 29.616z"/>
   <path id="ca" d="m3620.6-1368.7h22.31v19.831q9.9156-12.264 21.005-17.613 11.09-5.3492 24.659-5.3492 29.747 0 40.184 20.744 5.7406 11.351 5.7406 32.487v89.632h-23.876v-88.066q0-12.786-3.7836-20.614-6.2625-13.047-22.702-13.047-8.35 0-13.699 1.6961-9.6547 2.8703-16.961 11.481-5.871 6.9148-7.6976 14.352-1.6961 7.3063-1.6961 21.006v73.193h-23.484z"/>
   <path id="cb" d="m3815.6-1372.7q23.615 0 38.358 11.481 14.874 11.481 17.874 39.532h-22.832q-2.0875-12.916-9.5242-21.397-7.4367-8.6109-23.876-8.6109-22.441 0-32.095 21.919-6.2625 14.221-6.2625 35.096 0 21.006 8.8719 35.357 8.8719 14.352 27.92 14.352 14.612 0 23.093-8.8719 8.6109-9.0023 11.873-24.528h22.832q-3.914 27.79-19.57 40.706-15.656 12.786-40.054 12.786-27.398 0-43.707-19.962-16.309-20.092-16.309-50.1 0-36.792 17.874-57.276t45.534-20.484z"/>
   <path id="cc" d="m3945.9-1371.8q14.873 0 28.834 7.0453 13.96 6.9148 21.266 18.005 7.0453 10.568 9.3938 24.659 2.0875 9.6547 2.0875 30.791h-102.42q0.6523 21.266 10.046 34.183 9.3937 12.786 29.094 12.786 18.396 0 29.356-12.134 6.2625-7.0454 8.8719-16.309h23.093q-0.9132 7.6976-6.132 17.222-5.0883 9.3938-11.481 15.395-10.698 10.438-26.485 14.091-8.4805 2.0875-19.179 2.0875-26.094 0-44.229-18.918-18.135-19.048-18.135-53.231 0-33.661 18.266-54.666t47.752-21.005zm37.444 61.842q-1.4351-15.265-6.6539-24.398-9.6547-16.961-32.226-16.961-16.178 0-27.138 11.742-10.959 11.612-11.612 29.616z"/>
  </g>
  <path id="cd" d="m4042.8-1272.8q1.0438 11.742 5.8711 18.005 8.8719 11.351 30.791 11.351 13.047 0 22.962-5.6101 9.9156-5.7406 9.9156-17.613 0-9.0023-7.9586-13.699-5.0883-2.8703-20.092-6.6539l-18.657-4.6969q-17.874-4.4359-26.355-9.9156-15.134-9.5243-15.134-26.355 0-19.831 14.221-32.095 14.352-12.264 38.488-12.264 31.573 0 45.534 18.527 8.7414 11.742 8.4804 25.311h-22.18q-0.6524-7.9586-5.6102-14.482-8.0891-9.2633-28.051-9.2633-13.308 0-20.223 5.0883-6.7844 5.0883-6.7844 13.438 0 9.1328 9.0023 14.612 5.2188 3.2617 15.395 5.7406l15.526 3.7836q25.311 6.132 33.922 11.873 13.699 9.0024 13.699 28.312 0 18.657-14.221 32.226-14.091 13.569-43.055 13.569-31.182 0-44.229-14.091-12.916-14.221-13.83-35.096z"/>
  <path id="ce" d="m4229.9-1361.2v-18.005q25.441-2.4789 35.488-8.2196 10.046-5.8711 15.004-27.529h18.526v186.05h-25.05v-132.3z"/>
  <path id="cf" d="m4423.6-1416.6q31.312 0 43.577 16.309 12.394 16.178 12.394 33.4h-23.223q-2.0875-11.09-6.6539-17.352-8.4805-11.742-25.702-11.742-19.701 0-31.312 18.266-11.612 18.135-12.916 52.057 8.0891-11.873 20.353-17.744 11.22-5.2188 25.05-5.2188 23.484 0 40.967 15.004t17.483 44.751q0 25.441-16.57 45.142-16.57 19.57-47.23 19.57-26.224 0-45.273-19.831-19.048-19.962-19.048-67.061 0-34.835 8.4805-59.102 16.309-46.447 59.624-46.447zm-1.6961 171.57q18.527 0 27.659-12.394 9.2633-12.525 9.2633-29.486 0-14.352-8.2195-27.268-8.2196-13.047-29.877-13.047-15.134 0-26.616 10.046-11.351 10.046-11.351 30.269 0 17.744 10.307 29.877 10.438 12.003 28.834 12.003z"/>
  <path id="cg" d="m4561.3-1420.6h30.269l55.058 92.111 55.058-92.111h30.399l-72.41 114.42v77.238h-25.963v-77.238z"/>
  <path id="ch" d="m4801.4-1371.8q14.874 0 28.834 7.0453 13.96 6.9148 21.266 18.005 7.0453 10.568 9.3937 24.659 2.0875 9.6547 2.0875 30.791h-102.42q0.6524 21.266 10.046 34.183 9.3938 12.786 29.095 12.786 18.396 0 29.355-12.134 6.2625-7.0454 8.8719-16.309h23.093q-0.9133 7.6976-6.1321 17.222-5.0882 9.3938-11.481 15.395-10.698 10.438-26.485 14.091-8.4804 2.0875-19.179 2.0875-26.094 0-44.229-18.918-18.135-19.048-18.135-53.231 0-33.661 18.266-54.666t47.752-21.005zm37.445 61.842q-1.4352-15.265-6.6539-24.398-9.6547-16.961-32.226-16.961-16.178 0-27.138 11.742-10.959 11.612-11.612 29.616z"/>
  <path id="ci" d="m4901.8-1266.1q0 10.176 7.4367 16.048t17.613 5.8711q12.394 0 24.006-5.7406 19.57-9.5242 19.57-31.182v-18.918q-4.3055 2.7398-11.09 4.5664-6.7843 1.8266-13.308 2.6094l-14.221 1.8265q-12.786 1.6961-19.179 5.3493-10.829 6.132-10.829 19.57zm56.884-47.491q8.0891-1.0437 10.829-6.7843 1.5656-3.1313 1.5656-9.0024 0-12.003-8.6109-17.352-8.4805-5.4797-24.398-5.4797-18.396 0-26.094 9.9156-4.3055 5.4797-5.6102 16.309h-21.919q0.6523-25.833 16.7-35.879 16.178-10.177 37.444-10.177 24.659 0 40.054 9.3938 15.265 9.3937 15.265 29.225v80.499q0 3.6531 1.4351 5.8711 1.5656 2.218 6.393 2.218 1.5656 0 3.5226-0.1305 1.9571-0.2609 4.175-0.6523v17.352q-5.4797 1.5656-8.35 1.957t-7.8281 0.3914q-12.134 0-17.613-8.6109-2.8703-4.5664-4.0445-12.916-7.1758 9.3938-20.614 16.309t-29.616 6.9148q-19.44 0-31.834-11.742-12.264-11.873-12.264-29.616 0-19.44 12.134-30.138t31.834-13.177z"/>
  <path id="cj" d="m5024.9-1368.7h22.31v24.137q2.7398-7.0453 13.438-17.091 10.698-10.176 24.659-10.176 0.6524 0 2.218 0.1304 1.5656 0.1305 5.3492 0.5219v24.789q-2.0875-0.3914-3.914-0.5219-1.6961-0.1305-3.7836-0.1305-17.744 0-27.268 11.481-9.5242 11.351-9.5242 26.224v80.369h-23.484z"/>
  <path id="ck" d="m5119.1-1272.8q1.0437 11.742 5.8711 18.005 8.8719 11.351 30.791 11.351 13.047 0 22.962-5.6101 9.9156-5.7406 9.9156-17.613 0-9.0023-7.9586-13.699-5.0882-2.8703-20.092-6.6539l-18.657-4.6969q-17.874-4.4359-26.355-9.9156-15.134-9.5243-15.134-26.355 0-19.831 14.221-32.095 14.352-12.264 38.488-12.264 31.574 0 45.534 18.527 8.7414 11.742 8.4805 25.311h-22.18q-0.6523-7.9586-5.6101-14.482-8.0891-9.2633-28.051-9.2633-13.308 0-20.223 5.0883-6.7844 5.0883-6.7844 13.438 0 9.1328 9.0024 14.612 5.2187 3.2617 15.395 5.7406l15.526 3.7836q25.311 6.132 33.922 11.873 13.699 9.0024 13.699 28.312 0 18.657-14.221 32.226-14.091 13.569-43.055 13.569-31.182 0-44.229-14.091-12.916-14.221-13.83-35.096z"/>
  <path id="cl" d="m2993-998.93q0 10.177 7.4367 16.048 7.4368 5.8711 17.613 5.8711 12.395 0 24.006-5.7406 19.57-9.5242 19.57-31.182v-18.918q-4.3055 2.7399-11.09 4.5665-6.7843 1.8265-13.308 2.6093l-14.221 1.8266q-12.786 1.6961-19.179 5.3492-10.829 6.132-10.829 19.57zm56.884-47.491q8.0891-1.0438 10.829-6.7844 1.5656-3.1312 1.5656-9.0023 0-12.003-8.6109-17.352-8.4805-5.4797-24.398-5.4797-18.396 0-26.094 9.9157-4.3055 5.4797-5.6102 16.309h-21.919q0.6523-25.833 16.7-35.879 16.178-10.177 37.444-10.177 24.659 0 40.054 9.3937 15.265 9.3938 15.265 29.225v80.499q0 3.6531 1.4351 5.8711 1.5656 2.218 6.393 2.218 1.5656 0 3.5227-0.13047 1.957-0.26094 4.175-0.65234v17.352q-5.4797 1.5656-8.3501 1.957-2.8703 0.39141-7.8281 0.39141-12.134 0-17.613-8.6109-2.8703-4.5664-4.0445-12.916-7.1758 9.3938-20.614 16.309-13.438 6.9148-29.616 6.9148-19.44 0-31.834-11.742-12.264-11.873-12.264-29.616 0-19.44 12.134-30.138t31.834-13.177z"/>
  <path id="cm" d="m3115.5-1101.5h22.31v19.831q9.9156-12.264 21.005-17.613 11.09-5.3492 24.659-5.3492 29.747 0 40.184 20.745 5.7406 11.351 5.7406 32.487v89.632h-23.876v-88.066q0-12.786-3.7835-20.614-6.2625-13.047-22.702-13.047-8.35 0-13.699 1.6961-9.6547 2.8703-16.961 11.481-5.8711 6.9149-7.6976 14.352-1.6961 7.3062-1.6961 21.005v73.193h-23.484z"/>
  <path id="cn" d="m3270.9-1030q0 22.441 9.5242 37.575 9.5243 15.134 30.53 15.134 16.309 0 26.746-13.96 10.568-14.091 10.568-40.315 0-26.485-10.829-39.141-10.829-12.786-26.746-12.786-17.744 0-28.834 13.569-10.959 13.569-10.959 39.924zm35.357-73.976q16.048 0 26.877 6.7843 6.2625 3.9141 14.221 13.699v-70.584h22.571v192.31h-21.136v-19.44q-8.2196 12.916-19.44 18.657-11.22 5.7406-25.702 5.7406-23.354 0-40.445-19.57-17.092-19.701-17.092-52.318 0-30.53 15.526-52.84 15.656-22.441 44.62-22.441z"/>
  <path id="co" d="m3523.5-976.88q23.354 0 31.965-17.613 8.7414-17.744 8.7414-39.402 0-19.57-6.2625-31.834-9.9157-19.309-34.183-19.309-21.527 0-31.312 16.439-9.7851 16.439-9.7851 39.662 0 22.31 9.7851 37.184 9.7852 14.873 31.052 14.873zm0.9133-128.64q27.007 0 45.664 18.005t18.657 52.97q0 33.791-16.439 55.841-16.439 22.049-51.013 22.049-28.834 0-45.794-19.44-16.961-19.57-16.961-52.448 0-35.227 17.874-56.102t48.012-20.875z"/>
  <path id="cp" d="m3620.1-1101.5 37.314 113.77 39.01-113.77h25.702l-52.709 139.73h-25.05l-51.535-139.73z"/>
  <path id="cq" d="m3792.3-1104.6q14.873 0 28.834 7.0453 13.96 6.9149 21.266 18.005 7.0453 10.568 9.3937 24.659 2.0875 9.6547 2.0875 30.791h-102.42q0.6523 21.266 10.046 34.183 9.3937 12.786 29.094 12.786 18.396 0 29.356-12.134 6.2625-7.0453 8.8718-16.309h23.093q-0.9133 7.6977-6.132 17.222-5.0883 9.3938-11.481 15.395-10.698 10.438-26.485 14.091-8.4805 2.0875-19.179 2.0875-26.094 0-44.229-18.918-18.135-19.048-18.135-53.231 0-33.661 18.266-54.666t47.752-21.006zm37.444 61.842q-1.4351-15.265-6.6539-24.398-9.6547-16.961-32.226-16.961-16.178 0-27.138 11.742-10.959 11.612-11.612 29.616z"/>
  <path id="cr" d="m3875.3-1101.5h22.31v24.137q2.7399-7.0453 13.438-17.091 10.698-10.177 24.659-10.177 0.6523 0 2.218 0.1305 1.5656 0.1305 5.3492 0.5219v24.789q-2.0875-0.3914-3.9141-0.5218-1.6961-0.1305-3.7836-0.1305-17.744 0-27.268 11.481-9.5243 11.351-9.5243 26.224v80.369h-23.484z"/>
  <path id="cs" d="m3957.3-990.19h27.268v28.442h-27.268z"/>
 </g>
 <circle id="ct" cx="666.08" cy="-54.556" r="0" fill="#0f0"/>
 <g id="ds" fill="#a2a093">
  <g id="dt" transform="rotate(260.97 19.099 119.26)">
   <g id="du" transform="matrix(.0065997 0 0 .008244 102.41 154.82)" aria-label="BODY">
    <path id="dv" d="m3060.1-1580.2c20.04 0 34.736 1.0688 34.736 17.902 0 14.429-11.757 17.635-27.254 17.635h-27.522v-35.538zm2.1376-67.067c13.36 0 25.651 0.2672 25.651 15.23 0 11.222-9.0848 16.834-21.643 16.834h-26.186v-32.064zm8.5504 147.49c49.966 0 82.832-14.963 82.832-57.982 0-20.842-11.222-38.744-32.064-44.088 12.291-7.7488 25.117-22.178 25.117-41.95 0-38.21-34.469-48.363-77.755-48.363h-91.917v192.38z"/>
    <path id="dw" d="m3276.2-1650.2c27.789-0.8016 38.477 26.987 38.477 53.173 0 31.797-10.688 55.31-37.942 55.31-30.194 0-37.675-30.728-37.675-55.31 0-24.315 8.5504-53.173 37.141-53.173zm0.5344-47.027c-59.853 0-100.73 39.278-100.73 99.666 0 65.464 40.347 102.87 100.73 102.87 56.914 0 101-36.874 101-102.34 0-50.768-32.331-100.2-101-100.2z"/>
    <path id="dx" d="m3468.6-1647.2h12.024c33.667 0 46.76 10.688 46.76 50.768 0 36.339-16.032 51.837-45.424 51.837h-13.36zm19.773 147.49c61.723 0 102.07-27.789 102.07-100.2 0-63.326-38.477-92.184-100.47-92.184h-84.435v192.38z"/>
    <path id="dy" d="m3731.5-1570.8 71.61-121.31h-69.472l-33.133 65.197-33.133-65.197h-70.541l71.61 122.38v70.006h63.059z"/>
   </g>
   <path id="dz" d="m119.73 140.92v1.586h0.74569v-0.37h-0.3297v-1.216z"/>
   <path id="ea" d="m121.13 142.29a0.20796 0.20796 0 0 1-0.20796 0.20797 0.20796 0.20796 0 0 1-0.20796-0.20797 0.20796 0.20796 0 0 1 0.20796-0.20796 0.20796 0.20796 0 0 1 0.20796 0.20796z"/>
  </g>
  <g id="eb" transform="rotate(260.97 15.633 115.2)">
   <g id="ec" transform="matrix(.0065997 0 0 .008244 102.41 154.82)" aria-label="BODY">
    <path id="ed" d="m3060.1-1580.2c20.04 0 34.736 1.0688 34.736 17.902 0 14.429-11.757 17.635-27.254 17.635h-27.522v-35.538zm2.1376-67.067c13.36 0 25.651 0.2672 25.651 15.23 0 11.222-9.0848 16.834-21.643 16.834h-26.186v-32.064zm8.5504 147.49c49.966 0 82.832-14.963 82.832-57.982 0-20.842-11.222-38.744-32.064-44.088 12.291-7.7488 25.117-22.178 25.117-41.95 0-38.21-34.469-48.363-77.755-48.363h-91.917v192.38z"/>
    <path id="ee" d="m3276.2-1650.2c27.789-0.8016 38.477 26.987 38.477 53.173 0 31.797-10.688 55.31-37.942 55.31-30.194 0-37.675-30.728-37.675-55.31 0-24.315 8.5504-53.173 37.141-53.173zm0.5344-47.027c-59.853 0-100.73 39.278-100.73 99.666 0 65.464 40.347 102.87 100.73 102.87 56.914 0 101-36.874 101-102.34 0-50.768-32.331-100.2-101-100.2z"/>
    <path id="ef" d="m3468.6-1647.2h12.024c33.667 0 46.76 10.688 46.76 50.768 0 36.339-16.032 51.837-45.424 51.837h-13.36zm19.773 147.49c61.723 0 102.07-27.789 102.07-100.2 0-63.326-38.477-92.184-100.47-92.184h-84.435v192.38z"/>
    <path id="eg" d="m3731.5-1570.8 71.61-121.31h-69.472l-33.133 65.197-33.133-65.197h-70.541l71.61 122.38v70.006h63.059z"/>
   </g>
   <path id="eh" d="m119.73 140.92v1.586h0.74569v-0.37h-0.3297v-1.216z"/>
   <path id="ei" d="m121.13 142.29a0.20796 0.20796 0 0 1-0.20796 0.20797 0.20796 0.20796 0 0 1-0.20796-0.20797 0.20796 0.20796 0 0 1 0.20796-0.20796 0.20796 0.20796 0 0 1 0.20796 0.20796z"/>
  </g>
  <g id="ej" transform="rotate(260.97 22.57 123.32)">
   <g id="ek" transform="matrix(.0065997 0 0 .008244 102.41 154.82)" aria-label="BODY">
    <path id="el" d="m3060.1-1580.2c20.04 0 34.736 1.0688 34.736 17.902 0 14.429-11.757 17.635-27.254 17.635h-27.522v-35.538zm2.1376-67.067c13.36 0 25.651 0.2672 25.651 15.23 0 11.222-9.0848 16.834-21.643 16.834h-26.186v-32.064zm8.5504 147.49c49.966 0 82.832-14.963 82.832-57.982 0-20.842-11.222-38.744-32.064-44.088 12.291-7.7488 25.117-22.178 25.117-41.95 0-38.21-34.469-48.363-77.755-48.363h-91.917v192.38z"/>
    <path id="em" d="m3276.2-1650.2c27.789-0.8016 38.477 26.987 38.477 53.173 0 31.797-10.688 55.31-37.942 55.31-30.194 0-37.675-30.728-37.675-55.31 0-24.315 8.5504-53.173 37.141-53.173zm0.5344-47.027c-59.853 0-100.73 39.278-100.73 99.666 0 65.464 40.347 102.87 100.73 102.87 56.914 0 101-36.874 101-102.34 0-50.768-32.331-100.2-101-100.2z"/>
    <path id="en" d="m3468.6-1647.2h12.024c33.667 0 46.76 10.688 46.76 50.768 0 36.339-16.032 51.837-45.424 51.837h-13.36zm19.773 147.49c61.723 0 102.07-27.789 102.07-100.2 0-63.326-38.477-92.184-100.47-92.184h-84.435v192.38z"/>
    <path id="eo" d="m3731.5-1570.8 71.61-121.31h-69.472l-33.133 65.197-33.133-65.197h-70.541l71.61 122.38v70.006h63.059z"/>
   </g>
   <path id="ep" d="m119.73 140.92v1.586h0.74569v-0.37h-0.3297v-1.216z"/>
   <path id="eq" d="m121.13 142.29a0.20796 0.20796 0 0 1-0.20796 0.20797 0.20796 0.20796 0 0 1-0.20796-0.20797 0.20796 0.20796 0 0 1 0.20796-0.20796 0.20796 0.20796 0 0 1 0.20796 0.20796z"/>
  </g>
 </g>
 <g id="er" transform="matrix(.99997 0 0 .99997 -23.613 -115.12)">
  <g id="es">
   <ellipse id="et" cx="35.918" cy="126.85" rx="9.6531" ry="9.6529" fill="#ffec00"/>
   <g id="eu" transform="matrix(.42512 0 0 .42512 20.083 120.61)" aria-label="M">
    <path id="ev" d="m42.512 0.26967h8.6523v28.789h-5.6055v-19.473q0-0.83984 0.01953-2.3438 0.01953-1.5234 0.01953-2.3438l-5.4492 24.16h-5.8398l-5.4102-24.16q0 0.82031 0.01953 2.3438 0.01953 1.5039 0.01953 2.3438v19.473h-5.6055v-28.789h8.75l5.2344 22.637z"/>
   </g>
  </g>
 </g>
</svg>
