<?xml version="1.0" encoding="UTF-8"?>
<svg id="a" width="209.36" height="95.488" version="1.1" viewBox="0 0 55.394 25.265" xmlns="http://www.w3.org/2000/svg">
 <path id="b" d="m3.817 0.13h47.76c2.0412 0 3.6845 1.6433 3.6845 3.6845v17.631c0 2.0412-1.6433 3.6845-3.6845 3.6845h-47.76c-2.0412 0-3.6845-1.6433-3.6845-3.6845v-17.631c0-2.0412 1.6433-3.6845 3.6845-3.6845z" fill="#fff" stroke-width=".44914"/>
 <path id="c" d="m23.371 0.13v25h2.9501v-25z" fill="#eeeeed" stroke-width=".44914"/>
 <path id="d" d="m3.817 0.13h47.76c2.0412 0 3.6845 1.6433 3.6845 3.6845v17.631c0 2.0412-1.6433 3.6845-3.6845 3.6845h-47.76c-2.0412 0-3.6845-1.6433-3.6845-3.6845v-17.631c0-2.0412 1.6433-3.6845 3.6845-3.6845z" fill="none" stroke="#000" stroke-width=".26458"/>
 <g id="e" transform="translate(-51.816,-126.2)" stroke-width=".016621" aria-label="Films, Videos, and Publications Classification Act 1993">
  <path id="f" d="m54.913 148.26h0.67448l-0.02582 0.11914h-0.54276l-0.06222 0.29521h0.47724l-0.02515 0.11583h-0.47724l-0.09333 0.44216h-0.13172z"/>
  <path id="g" d="m55.657 148.52h0.12113l-0.14959 0.7056h-0.12113zm0.05692-0.26674h0.12113l-0.02912 0.13502h-0.12113z"/>
  <path id="h" d="m56.019 148.26h0.11914l-0.20652 0.97234h-0.11914z"/>
  <path id="i" d="m56.262 148.52h0.11782l-0.02118 0.10061q0.05361-0.0523 0.09267-0.0761 0.06752-0.0404 0.14231-0.0404 0.08472 0 0.12775 0.0417 0.02383 0.0238 0.03773 0.0702 0.05229-0.0569 0.1112-0.0841 0.05957-0.0278 0.12642-0.0278 0.14297 0 0.17276 0.10326 0.01589 0.0556-4e-3 0.14959l-0.09995 0.47194h-0.12378l0.10458-0.49246q0.01456-0.0708-0.01522-0.0973-0.02979-0.0265-0.08075-0.0265-0.07016 0-0.13106 0.047-0.06023 0.047-0.0834 0.15687l-0.08737 0.41237h-0.12113l0.09796-0.46267q0.01522-0.0721 0.0053-0.10525-0.01655-0.0496-0.09068-0.0496-0.06752 0-0.13437 0.0523-0.06619 0.0523-0.09532 0.1893l-0.07943 0.37597h-0.11914z"/>
  <path id="j" d="m57.36 149.01q-0.0073 0.0596 0.01059 0.0913 0.03243 0.0576 0.14363 0.0576 0.06619 0 0.12245-0.0285 0.05692-0.0291 0.0695-0.0893 0.0099-0.0457-0.02581-0.0695-0.0225-0.0146-0.09465-0.0338l-0.08936-0.0238q-0.08605-0.0225-0.12312-0.0503-0.06685-0.0483-0.04832-0.13371 0.02118-0.10061 0.10657-0.16283 0.08605-0.0622 0.2085-0.0622 0.16018 0 0.21115 0.094 0.03177 0.0596 0.01589 0.12841h-0.11252q0.0053-0.0404-0.01324-0.0735-0.03111-0.047-0.13238-0.047-0.06751 0-0.10789 0.0258-0.03971 0.0258-0.04898 0.0682-0.0099 0.0463 0.02979 0.0741 0.02317 0.0166 0.07215 0.0291l0.0748 0.0192q0.12179 0.0311 0.15952 0.0602 0.05957 0.0457 0.03839 0.14364-0.01986 0.0947-0.10657 0.16349-0.08605 0.0688-0.23299 0.0688-0.1582 0-0.20916-0.0715-0.0503-0.0722-0.03243-0.17805z"/>
  <path id="k" d="m57.916 149.37q0.04766-8e-3 0.07811-0.0642 0.01589-0.0298 0.02184-0.0576 0.0013-5e-3 0.0013-9e-3 6.62e-4 -3e-3 6.62e-4 -8e-3h-0.07215l0.03045-0.1443h0.14165l-0.02846 0.13371q-0.01655 0.0788-0.06156 0.13834-0.04435 0.0596-0.1251 0.0735z"/>
  <path id="l" d="m58.975 148.26 0.10326 0.82804 0.45208-0.82804h0.14761l-0.5613 0.97234h-0.13966l-0.14761-0.97234z"/>
  <path id="m" d="m59.707 148.52h0.12113l-0.14959 0.7056h-0.12113zm0.05692-0.26674h0.12113l-0.02912 0.13502h-0.12113z"/>
  <path id="n" d="m60.154 149.15q0.08274 0 0.15092-0.0708 0.06818-0.0715 0.09664-0.20453 0.02846-0.13437-0.01258-0.19857-0.04104-0.0649-0.12179-0.0649-0.09002 0-0.16084 0.0688-0.07016 0.0688-0.09863 0.20254-0.02449 0.11385 0.0073 0.19063 0.03243 0.0768 0.139 0.0768zm0.2416-0.60829q0.0278 0.0199 0.05759 0.0695l0.07612-0.35809h0.11451l-0.20718 0.97565h-0.10723l0.02052-0.0986q-0.0556 0.0655-0.11914 0.0947-0.06288 0.0291-0.13635 0.0291-0.11848 0-0.18401-0.0993-0.06553-0.1-0.02979-0.26543 0.03243-0.15489 0.13569-0.26807 0.10326-0.11385 0.2502-0.11385 0.08141 0 0.12907 0.0344z"/>
  <path id="o" d="m61.29 148.63q0.02449 0.0536 0.02118 0.1251 6.62e-4 0.049-0.0225 0.15621h-0.5196q-0.01986 0.10789 0.0139 0.17342 0.03442 0.0649 0.13437 0.0649 0.09333 0 0.1615-0.0616 0.03972-0.0358 0.06288-0.0827h0.11716q-0.01324 0.0391-0.04964 0.0874-0.03574 0.0477-0.0748 0.0781-0.06553 0.053-0.14959 0.0715-0.04567 0.0106-0.09995 0.0106-0.13238 0-0.20387-0.096-0.07149-0.0966-0.03442-0.27005 0.03641-0.17078 0.15158-0.27734 0.11517-0.10657 0.26476-0.10657 0.07546 0 0.139 0.0357 0.06354 0.0351 0.08803 0.0913zm-0.10392 0.18665q0.0093-0.0774-0.0073-0.12377-0.03045-0.0861-0.14496-0.0861-0.08208 0-0.15025 0.0596-0.06818 0.0589-0.09134 0.15025z"/>
  <path id="p" d="m61.934 148.86q0.02118-0.0993 0.0026-0.1615-0.02979-0.098-0.1529-0.098-0.10922 0-0.17673 0.0834-0.06685 0.0834-0.09201 0.20122-0.02383 0.11318 0.0093 0.18864 0.03376 0.0755 0.14165 0.0755 0.11848 0 0.18136-0.0894 0.06354-0.09 0.08671-0.1999zm0.1251-3e-3q-0.03641 0.17144-0.14363 0.2833-0.10723 0.11186-0.28264 0.11186-0.14628 0-0.21115-0.0986-0.06487-0.0993-0.02979-0.26609 0.03839-0.17871 0.15158-0.28462 0.11319-0.1059 0.26609-0.1059 0.13702 0 0.21181 0.0913 0.07546 0.0913 0.03773 0.26873z"/>
  <path id="q" d="m62.242 149.01q-0.0073 0.0596 0.01059 0.0913 0.03243 0.0576 0.14363 0.0576 0.06619 0 0.12245-0.0285 0.05692-0.0291 0.0695-0.0893 0.0099-0.0457-0.02581-0.0695-0.02251-0.0146-0.09465-0.0338l-0.08936-0.0238q-0.08605-0.0225-0.12312-0.0503-0.06685-0.0483-0.04832-0.13371 0.02118-0.10061 0.10657-0.16283 0.08605-0.0622 0.2085-0.0622 0.16018 0 0.21115 0.094 0.03177 0.0596 0.01589 0.12841h-0.11252q0.0053-0.0404-0.01324-0.0735-0.03111-0.047-0.13238-0.047-0.06752 0-0.10789 0.0258-0.03972 0.0258-0.04898 0.0682-0.0099 0.0463 0.02978 0.0741 0.02317 0.0166 0.07215 0.0291l0.0748 0.0192q0.12179 0.0311 0.15952 0.0602 0.05957 0.0457 0.03839 0.14364-0.01986 0.0947-0.10657 0.16349-0.08605 0.0688-0.23299 0.0688-0.1582 0-0.20916-0.0715-0.0503-0.0722-0.03243-0.17805z"/>
  <path id="r" d="m62.798 149.37q0.04766-8e-3 0.07811-0.0642 0.01589-0.0298 0.02184-0.0576 0.0013-5e-3 0.0013-9e-3 6.62e-4 -3e-3 6.62e-4 -8e-3h-0.07215l0.03045-0.1443h0.14165l-0.02846 0.13371q-0.01655 0.0788-0.06156 0.13834-0.04435 0.0596-0.1251 0.0735z"/>
  <path id="s" d="m63.792 149.15q0.06288 0 0.12841-0.0291 0.10922-0.0483 0.13304-0.15819l0.01986-0.096q-0.02449 0.0139-0.0609 0.0232-0.03641 9e-3 -0.07016 0.0132l-0.07413 9e-3q-0.06685 9e-3 -0.10326 0.0271-0.06156 0.0311-0.07612 0.0993-0.01125 0.0516 0.01986 0.0814 0.03177 0.0298 0.0834 0.0298zm0.2363-0.35214q0.04236-5e-3 0.06288-0.0344 0.01125-0.0159 0.01721-0.0457 0.01324-0.0609-0.02449-0.088-0.03773-0.0278-0.11848-0.0278-0.09333 0-0.14297 0.0503-0.0278 0.0278-0.04567 0.0827h-0.1112q0.03111-0.13106 0.12378-0.18203 0.09267-0.0516 0.20056-0.0516 0.1251 0 0.19262 0.0476 0.06752 0.0477 0.04633 0.14827l-0.08671 0.4084q-4e-3 0.0185 6.62e-4 0.0298 0.0053 0.0113 0.02979 0.0113 0.0079 0 0.01787-6.7e-4 0.01059-1e-3 0.0225-3e-3l-0.01919 0.088q-0.02912 8e-3 -0.04435 0.01-0.01456 2e-3 -0.03972 2e-3 -0.06156 0-0.08009-0.0437-0.0099-0.0232-0.0066-0.0655-0.04699 0.0477-0.12245 0.0827-0.07546 0.0351-0.15753 0.0351-0.09862 0-0.14893-0.0596-0.04964-0.0602-0.03045-0.15026 0.02118-0.0986 0.09399-0.1529 0.07347-0.0543 0.17607-0.0668z"/>
  <path id="t" d="m64.463 148.52h0.11319l-0.02118 0.10061q0.06354-0.0622 0.1251-0.0894 0.06222-0.0271 0.13106-0.0271 0.15092 0 0.18136 0.10524 0.01721 0.0576-0.0053 0.16482l-0.09664 0.45473h-0.12113l0.09465-0.44679q0.0139-0.0649 0.0033-0.10458-0.01787-0.0662-0.10127-0.0662-0.04236 0-0.07149 9e-3 -0.05229 0.0146-0.09862 0.0583-0.03707 0.0351-0.05428 0.0728-0.01655 0.0371-0.03111 0.10657l-0.07877 0.37133h-0.11914z"/>
  <path id="u" d="m65.363 149.15q0.08274 0 0.15092-0.0708 0.06818-0.0715 0.09664-0.20453 0.02846-0.13437-0.01258-0.19857-0.04104-0.0649-0.12179-0.0649-0.09002 0-0.16084 0.0688-0.07016 0.0688-0.09862 0.20254-0.02449 0.11385 0.0073 0.19063 0.03243 0.0768 0.139 0.0768zm0.2416-0.60829q0.0278 0.0199 0.05759 0.0695l0.07612-0.35809h0.11451l-0.20718 0.97565h-0.10723l0.02052-0.0986q-0.0556 0.0655-0.11914 0.0947-0.06288 0.0291-0.13635 0.0291-0.11848 0-0.18401-0.0993-0.06553-0.1-0.02979-0.26543 0.03243-0.15489 0.13569-0.26807 0.10326-0.11385 0.2502-0.11385 0.08142 0 0.12907 0.0344z"/>
  <path id="v" d="m66.435 148.26h0.43752q0.12973 0 0.19328 0.0735 0.06421 0.0728 0.03574 0.20519-0.02383 0.11385-0.11319 0.19857-0.0887 0.0841-0.23564 0.0841h-0.3058l-0.08671 0.41105h-0.13172zm0.48518 0.1337q-0.03971-0.0205-0.11583-0.0205h-0.26212l-0.07149 0.33691h0.26212q0.0887 0 0.15158-0.0377 0.06354-0.0377 0.08406-0.13304 0.0225-0.10723-0.04832-0.14562z"/>
  <path id="w" d="m67.375 148.52-0.09995 0.47061q-0.01125 0.0543-0.0013 0.0887 0.01787 0.0635 0.10458 0.0635 0.12444 0 0.19328-0.1112 0.03707-0.0596 0.05891-0.16349l0.07413-0.34816h0.11914l-0.15025 0.7089h-0.11252l0.02317-0.10458q-0.03177 0.0404-0.07215 0.0682-0.08009 0.0556-0.17739 0.0556-0.15158 0-0.18467-0.10127-0.01853-0.0543 6.62e-4 -0.14496l0.1026-0.48186z"/>
  <path id="x" d="m68.058 148.25h0.11583l-0.0748 0.35279q0.04964-0.051 0.10922-0.0774 0.06023-0.0271 0.12378-0.0271 0.13238 0 0.19526 0.0914 0.06354 0.0907 0.02581 0.26807-0.03574 0.16812-0.14099 0.27932-0.10524 0.1112-0.24954 0.1112-0.08075 0-0.12775-0.0391-0.02846-0.0232-0.05494-0.0741l-0.0192 0.0907h-0.10988zm0.37199 0.61359q0.02383-0.11187-0.0086-0.18534-0.03243-0.0735-0.12576-0.0735-0.08142 0-0.15555 0.0602t-0.10326 0.19858q-0.02118 0.0999-0.0093 0.16216 0.02184 0.11716 0.15025 0.11716 0.09664 0 0.16084-0.0768 0.06421-0.0768 0.09134-0.20254z"/>
  <path id="y" d="m68.825 148.26h0.11914l-0.20652 0.97234h-0.11914z"/>
  <path id="z" d="m69.067 148.52h0.12113l-0.14959 0.7056h-0.12113zm0.05692-0.26674h0.12113l-0.02912 0.13502h-0.12113z"/>
  <path id="aa" d="m69.878 148.76h-0.11583q0.0033-0.0655-0.02515-0.10855-0.02846-0.0437-0.11186-0.0437-0.11385 0-0.18666 0.1112-0.047 0.0721-0.0695 0.17806-0.02317 0.10656 0.0066 0.17937 0.02979 0.0728 0.12642 0.0728 0.07413 0 0.12709-0.045 0.05295-0.0457 0.08605-0.12443h0.11583q-0.04964 0.14098-0.14297 0.20651-0.09333 0.0649-0.21711 0.0649-0.139 0-0.20056-0.10127-0.0609-0.10194-0.02846-0.25418 0.03972-0.18665 0.15224-0.29057 0.11319-0.10392 0.25351-0.10392 0.1198 0 0.18202 0.0582 0.06288 0.0583 0.04832 0.20056z"/>
  <path id="ab" d="m70.133 149.15q0.06288 0 0.12841-0.0291 0.10922-0.0483 0.13304-0.15819l0.01986-0.096q-0.02449 0.0139-0.0609 0.0232-0.0364 9e-3 -0.07016 0.0132l-0.07413 9e-3q-0.06685 9e-3 -0.10326 0.0271-0.06156 0.0311-0.07612 0.0993-0.01125 0.0516 0.01986 0.0814 0.03177 0.0298 0.0834 0.0298zm0.2363-0.35214q0.04236-5e-3 0.06288-0.0344 0.01125-0.0159 0.01721-0.0457 0.01324-0.0609-0.02449-0.088-0.03773-0.0278-0.11848-0.0278-0.09333 0-0.14297 0.0503-0.0278 0.0278-0.04567 0.0827h-0.1112q0.03111-0.13106 0.12378-0.18203 0.09267-0.0516 0.20056-0.0516 0.1251 0 0.19262 0.0476 0.06752 0.0477 0.04633 0.14827l-0.08671 0.4084q-4e-3 0.0185 6.62e-4 0.0298 0.0053 0.0113 0.02979 0.0113 0.0079 0 0.01787-6.7e-4 0.01059-1e-3 0.0225-3e-3l-0.01919 0.088q-0.02912 8e-3 -0.04435 0.01-0.01456 2e-3 -0.03972 2e-3 -0.06156 0-0.08009-0.0437-0.0099-0.0232-0.0066-0.0655-0.04699 0.0477-0.12245 0.0827-0.07546 0.0351-0.15753 0.0351-0.09862 0-0.14893-0.0596-0.04964-0.0602-0.03045-0.15026 0.02118-0.0986 0.09399-0.1529 0.07347-0.0543 0.17607-0.0668z"/>
  <path id="ac" d="m70.87 148.32h0.12047l-0.04236 0.19792h0.11319l-0.02052 0.0973h-0.11319l-0.09862 0.46267q-0.0079 0.0371 0.01456 0.0496 0.01258 7e-3 0.04501 7e-3 0.0086 0 0.01853 0 0.0099-6.6e-4 0.02383-2e-3l-0.01986 0.094q-0.02184 6e-3 -0.04501 9e-3 -0.02251 3e-3 -0.04832 3e-3 -0.0834 0-0.10458-0.0424-0.02052-0.043-6e-3 -0.1112l0.09995-0.46929h-0.09598l0.02052-0.0973h0.09598z"/>
  <path id="ad" d="m71.18 148.52h0.12113l-0.14959 0.7056h-0.12113zm0.05692-0.26674h0.12113l-0.02912 0.13502h-0.12113z"/>
  <path id="ae" d="m71.898 148.86q0.02118-0.0993 0.0026-0.1615-0.02979-0.098-0.1529-0.098-0.10922 0-0.17673 0.0834-0.06685 0.0834-0.09201 0.20122-0.02383 0.11318 0.0093 0.18864 0.03376 0.0755 0.14165 0.0755 0.11848 0 0.18136-0.0894 0.06354-0.09 0.08671-0.1999zm0.1251-3e-3q-0.0364 0.17144-0.14363 0.2833t-0.28263 0.11186q-0.14628 0-0.21115-0.0986-0.06487-0.0993-0.02979-0.26609 0.03839-0.17871 0.15158-0.28462 0.11319-0.1059 0.26609-0.1059 0.13702 0 0.21181 0.0913 0.07546 0.0913 0.03773 0.26873z"/>
  <path id="af" d="m72.238 148.52h0.11319l-0.02118 0.10061q0.06354-0.0622 0.1251-0.0894 0.06222-0.0271 0.13106-0.0271 0.15092 0 0.18136 0.10524 0.01721 0.0576-0.0053 0.16482l-0.09664 0.45473h-0.12113l0.09465-0.44679q0.0139-0.0649 0.0033-0.10458-0.01787-0.0662-0.10127-0.0662-0.04236 0-0.07149 9e-3 -0.05229 0.0146-0.09862 0.0583-0.03707 0.0351-0.05428 0.0728-0.01655 0.0371-0.03111 0.10657l-0.07877 0.37133h-0.11914z"/>
  <path id="ag" d="m72.96 149.01q-0.0073 0.0596 0.01059 0.0913 0.03243 0.0576 0.14363 0.0576 0.06619 0 0.12245-0.0285 0.05692-0.0291 0.0695-0.0893 0.0099-0.0457-0.02581-0.0695-0.0225-0.0146-0.09465-0.0338l-0.08936-0.0238q-0.08605-0.0225-0.12312-0.0503-0.06685-0.0483-0.04832-0.13371 0.02118-0.10061 0.10657-0.16283 0.08605-0.0622 0.2085-0.0622 0.16018 0 0.21115 0.094 0.03177 0.0596 0.01589 0.12841h-0.11252q0.0053-0.0404-0.01324-0.0735-0.03111-0.047-0.13238-0.047-0.06752 0-0.10789 0.0258-0.03971 0.0258-0.04898 0.0682-0.0099 0.0463 0.02979 0.0741 0.02317 0.0166 0.07215 0.0291l0.0748 0.0192q0.12179 0.0311 0.15952 0.0602 0.05957 0.0457 0.03839 0.14364-0.01986 0.0947-0.10657 0.16349-0.08605 0.0688-0.23299 0.0688-0.1582 0-0.20916-0.0715-0.0503-0.0722-0.03243-0.17805z"/>
  <path id="ah" d="m57.724 149.91h-0.12841q-2e-3 -0.094-0.0556-0.14893-0.05362-0.0549-0.17143-0.0549-0.14363 0-0.25351 0.10127-0.10922 0.10061-0.15356 0.30911-0.0364 0.17077 0.02052 0.27734 0.05759 0.10591 0.21578 0.10591 0.14562 0 0.24557-0.11187 0.05229-0.0589 0.09267-0.15488h0.12841q-0.04964 0.15356-0.16812 0.25748-0.14297 0.1251-0.33956 0.1251-0.16945 0-0.26278-0.1026-0.12245-0.13569-0.06222-0.41898 0.04567-0.21512 0.18864-0.3528 0.15489-0.14959 0.37133-0.14959 0.18467 0 0.26609 0.0973 0.08141 0.0973 0.06619 0.22108z"/>
  <path id="ai" d="m57.991 149.61h0.11914l-0.20652 0.97235h-0.11914z"/>
  <path id="aj" d="m58.364 150.51q0.06288 0 0.12841-0.0291 0.10921-0.0483 0.13304-0.1582l0.01986-0.096q-0.02449 0.0139-0.0609 0.0232-0.03641 9e-3 -0.07016 0.0132l-0.07413 9e-3q-0.06685 9e-3 -0.10326 0.0271-0.06156 0.0311-0.07612 0.0993-0.01125 0.0516 0.01986 0.0814 0.03177 0.0298 0.0834 0.0298zm0.2363-0.35213q0.04236-5e-3 0.06288-0.0344 0.01125-0.0159 0.01721-0.0457 0.01324-0.0609-0.02449-0.088-0.03773-0.0278-0.11848-0.0278-0.09333 0-0.14297 0.0503-0.0278 0.0278-0.04567 0.0827h-0.1112q0.03111-0.13106 0.12378-0.18203 0.09267-0.0516 0.20056-0.0516 0.1251 0 0.19262 0.0477t0.04633 0.14827l-0.08671 0.4084q-4e-3 0.0185 6.62e-4 0.0298 0.0053 0.0112 0.02979 0.0112 0.0079 0 0.01787-6.6e-4 0.01059-1e-3 0.02251-3e-3l-0.01919 0.088q-0.02912 8e-3 -0.04435 0.01-0.01456 2e-3 -0.03971 2e-3 -0.06156 0-0.08009-0.0437-0.0099-0.0232-0.0066-0.0655-0.047 0.0477-0.12245 0.0827-0.07546 0.0351-0.15753 0.0351-0.09862 0-0.14893-0.0596-0.04964-0.0602-0.03045-0.15025 0.02118-0.0986 0.09399-0.1529 0.07347-0.0543 0.17607-0.0668z"/>
  <path id="ak" d="m59.05 150.36q-0.0073 0.0596 0.01059 0.0913 0.03243 0.0576 0.14363 0.0576 0.06619 0 0.12245-0.0285 0.05692-0.0291 0.0695-0.0894 0.0099-0.0457-0.02581-0.0695-0.0225-0.0146-0.09465-0.0337l-0.08936-0.0238q-0.08605-0.0225-0.12312-0.0503-0.06685-0.0483-0.04832-0.1337 0.02118-0.10061 0.10657-0.16283 0.08605-0.0622 0.2085-0.0622 0.16018 0 0.21115 0.094 0.03177 0.0596 0.01589 0.12841h-0.11252q0.0053-0.0404-0.01324-0.0735-0.03111-0.047-0.13238-0.047-0.06752 0-0.10789 0.0258-0.03972 0.0258-0.04898 0.0682-0.0099 0.0463 0.02979 0.0741 0.02317 0.0165 0.07215 0.0291l0.0748 0.0192q0.12179 0.0311 0.15952 0.0602 0.05957 0.0457 0.03839 0.14364-0.01986 0.0947-0.10657 0.16349-0.08605 0.0688-0.23299 0.0688-0.1582 0-0.20916-0.0715-0.05031-0.0721-0.03243-0.17805z"/>
  <path id="al" d="m59.775 150.36q-0.0073 0.0596 0.01059 0.0913 0.03243 0.0576 0.14363 0.0576 0.06619 0 0.12245-0.0285 0.05692-0.0291 0.0695-0.0894 0.0099-0.0457-0.02581-0.0695-0.02251-0.0146-0.09465-0.0337l-0.08936-0.0238q-0.08605-0.0225-0.12312-0.0503-0.06685-0.0483-0.04832-0.1337 0.02118-0.10061 0.10657-0.16283 0.08605-0.0622 0.2085-0.0622 0.16018 0 0.21115 0.094 0.03177 0.0596 0.01589 0.12841h-0.11252q0.0053-0.0404-0.01324-0.0735-0.03111-0.047-0.13238-0.047-0.06752 0-0.10789 0.0258-0.03972 0.0258-0.04898 0.0682-0.0099 0.0463 0.02979 0.0741 0.02317 0.0165 0.07215 0.0291l0.0748 0.0192q0.12179 0.0311 0.15952 0.0602 0.05957 0.0457 0.03839 0.14364-0.01986 0.0947-0.10657 0.16349-0.08605 0.0688-0.23299 0.0688-0.1582 0-0.20916-0.0715-0.05031-0.0721-0.03243-0.17805z"/>
  <path id="am" d="m60.532 149.88h0.12113l-0.14959 0.7056h-0.12113zm0.05692-0.26675h0.12113l-0.02912 0.13503h-0.12113z"/>
  <path id="an" d="m60.984 149.66q0.05428-0.0609 0.17342-0.0609 0.01125 0 0.02317 6.7e-4 0.01191 6.6e-4 0.02648 2e-3l-0.02317 0.10855q-0.01787-1e-3 -0.02648-1e-3 -0.0079-6.6e-4 -0.01522-6.6e-4 -0.05428 0-0.07082 0.0285-0.01655 0.0278-0.04104 0.14297h0.11782l-0.01986 0.094h-0.11914l-0.12973 0.61161h-0.11782l0.12973-0.61161h-0.09862l0.01986-0.094h0.09863l0.02383-0.1112q0.01853-0.0741 0.04898-0.10855zm0.30646 0.088 0.02912-0.13503h0.11914l-0.02912 0.13503zm-0.0278 0.13172h0.11914l-0.14959 0.7056h-0.11914z"/>
  <path id="ao" d="m62.164 150.12h-0.11583q0.0033-0.0655-0.02515-0.10855-0.02846-0.0437-0.11186-0.0437-0.11385 0-0.18666 0.1112-0.047 0.0722-0.0695 0.17806-0.02317 0.10656 0.0066 0.17937 0.02979 0.0728 0.12642 0.0728 0.07413 0 0.12709-0.045 0.05295-0.0457 0.08605-0.12444h0.11583q-0.04964 0.14099-0.14297 0.20652-0.09333 0.0649-0.21711 0.0649-0.139 0-0.20056-0.10128-0.0609-0.10193-0.02846-0.25417 0.03971-0.18666 0.15224-0.29058 0.11319-0.10392 0.25351-0.10392 0.11981 0 0.18202 0.0583 0.06288 0.0582 0.04832 0.20056z"/>
  <path id="ap" d="m62.465 150.51q0.06288 0 0.12841-0.0291 0.10922-0.0483 0.13304-0.1582l0.01986-0.096q-0.02449 0.0139-0.0609 0.0232-0.03641 9e-3 -0.07016 0.0132l-0.07413 9e-3q-0.06685 9e-3 -0.10326 0.0271-0.06156 0.0311-0.07612 0.0993-0.01125 0.0516 0.01986 0.0814 0.03177 0.0298 0.0834 0.0298zm0.2363-0.35213q0.04236-5e-3 0.06288-0.0344 0.01125-0.0159 0.01721-0.0457 0.01324-0.0609-0.02449-0.088-0.03773-0.0278-0.11848-0.0278-0.09333 0-0.14297 0.0503-0.0278 0.0278-0.04567 0.0827h-0.1112q0.03111-0.13106 0.12378-0.18203 0.09267-0.0516 0.20056-0.0516 0.1251 0 0.19262 0.0477 0.06751 0.0477 0.04633 0.14827l-0.08671 0.4084q-4e-3 0.0185 6.62e-4 0.0298 0.0053 0.0112 0.02979 0.0112 0.0079 0 0.01787-6.6e-4 0.01059-1e-3 0.0225-3e-3l-0.0192 0.088q-0.02912 8e-3 -0.04435 0.01-0.01456 2e-3 -0.03971 2e-3 -0.06156 0-0.08009-0.0437-0.0099-0.0232-0.0066-0.0655-0.047 0.0477-0.12245 0.0827-0.07546 0.0351-0.15753 0.0351-0.09862 0-0.14893-0.0596-0.04964-0.0602-0.03045-0.15025 0.02118-0.0986 0.09399-0.1529 0.07347-0.0543 0.17607-0.0668z"/>
  <path id="aq" d="m63.249 149.68h0.12047l-0.04236 0.19791h0.11319l-0.02052 0.0973h-0.11319l-0.09862 0.46268q-0.0079 0.0371 0.01456 0.0496 0.01258 7e-3 0.04501 7e-3 0.0086 0 0.01853 0 0.0099-6.6e-4 0.02383-2e-3l-0.01986 0.094q-0.02184 6e-3 -0.04501 9e-3 -0.02251 3e-3 -0.04832 3e-3 -0.0834 0-0.10458-0.0424-0.02052-0.043-6e-3 -0.1112l0.09995-0.4693h-0.09598l0.02052-0.0973h0.09598z"/>
  <path id="ar" d="m63.606 149.88h0.12113l-0.14959 0.7056h-0.12113zm0.05692-0.26675h0.12113l-0.02912 0.13503h-0.12113z"/>
  <path id="as" d="m64.371 150.22q0.02118-0.0993 0.0026-0.1615-0.02979-0.098-0.1529-0.098-0.10922 0-0.17673 0.0834-0.06685 0.0834-0.09201 0.20122-0.02383 0.11319 0.0093 0.18865 0.03376 0.0755 0.14165 0.0755 0.11848 0 0.18136-0.0894 0.06354-0.09 0.08671-0.1999zm0.1251-3e-3q-0.03641 0.17144-0.14363 0.2833-0.10723 0.11186-0.28264 0.11186-0.14628 0-0.21115-0.0986-0.06487-0.0993-0.02979-0.26609 0.03839-0.17872 0.15158-0.28462 0.11319-0.10591 0.26609-0.10591 0.13702 0 0.21181 0.0914 0.07546 0.0913 0.03773 0.26873z"/>
  <path id="at" d="m64.757 149.88h0.11319l-0.02118 0.10061q0.06354-0.0622 0.1251-0.0894 0.06222-0.0271 0.13106-0.0271 0.15092 0 0.18136 0.10524 0.01721 0.0576-0.0053 0.16482l-0.09664 0.45473h-0.12113l0.09465-0.44679q0.0139-0.0649 0.0033-0.10458-0.01787-0.0662-0.10127-0.0662-0.04236 0-0.07149 9e-3 -0.05229 0.0146-0.09862 0.0582-0.03707 0.0351-0.05428 0.0728-0.01655 0.0371-0.03111 0.10657l-0.07877 0.37133h-0.11914z"/>
  <path id="au" d="m66.358 150.19-0.05626-0.42958-0.24822 0.42958zm-0.09399-0.57388h0.14893l0.14628 0.97235h-0.1443l-0.03707-0.29124h-0.38457l-0.1668 0.29124h-0.13503z"/>
  <path id="av" d="m67.37 150.12h-0.11583q0.0033-0.0655-0.02515-0.10855-0.02846-0.0437-0.11186-0.0437-0.11385 0-0.18666 0.1112-0.047 0.0722-0.0695 0.17806-0.02317 0.10656 0.0066 0.17937 0.02979 0.0728 0.12642 0.0728 0.07413 0 0.12709-0.045 0.05295-0.0457 0.08605-0.12444h0.11583q-0.04964 0.14099-0.14297 0.20652-0.09333 0.0649-0.21711 0.0649-0.139 0-0.20056-0.10128-0.0609-0.10193-0.02846-0.25417 0.03971-0.18666 0.15224-0.29058 0.11319-0.10392 0.25351-0.10392 0.11981 0 0.18202 0.0583 0.06288 0.0582 0.04832 0.20056z"/>
  <path id="aw" d="m67.653 149.68h0.12047l-0.04236 0.19791h0.11319l-0.02052 0.0973h-0.11319l-0.09862 0.46268q-0.0079 0.0371 0.01456 0.0496 0.01258 7e-3 0.04501 7e-3 0.0086 0 0.01853 0 0.0099-6.6e-4 0.02383-2e-3l-0.01986 0.094q-0.02184 6e-3 -0.04501 9e-3 -0.0225 3e-3 -0.04832 3e-3 -0.0834 0-0.10458-0.0424-0.02052-0.043-6e-3 -0.1112l0.09995-0.4693h-0.09598l0.02052-0.0973h0.09598z"/>
  <path id="ax" d="m68.47 149.91 0.0192-0.0913q0.13172-0.0126 0.18864-0.0417 0.05759-0.0298 0.10657-0.13966h0.09399l-0.20056 0.94388h-0.12709l0.14231-0.67118z"/>
  <path id="ay" d="m69.228 150.36q-0.01589 0.0986 0.047 0.13635 0.03243 0.0199 0.07811 0.0199 0.08539 0 0.16084-0.0708 0.07546-0.0715 0.14694-0.28925-0.05361 0.0629-0.11782 0.0887-0.06354 0.0252-0.13106 0.0252-0.13702 0-0.19857-0.0854-0.06156-0.0854-0.03309-0.21975 0.02714-0.12907 0.12642-0.22704 0.09995-0.098 0.25351-0.098 0.20718 0 0.24623 0.18666 0.02184 0.10259-0.01059 0.25682-0.03707 0.17408-0.11782 0.30845-0.13437 0.22372-0.34154 0.22372-0.139 0-0.19592-0.0728-0.05626-0.0728-0.0331-0.18268zm0.45473-0.40443q0.0225-0.10458-0.01986-0.15555-0.0417-0.0516-0.12312-0.0516-0.08737 0-0.15092 0.0589-0.06354 0.0583-0.08472 0.15621-0.0192 0.0927 0.0139 0.14761 0.03376 0.0543 0.13238 0.0543 0.07082 0 0.139-0.0463 0.06884-0.047 0.09333-0.16349z"/>
  <path id="az" d="m70.03 150.36q-0.01589 0.0986 0.047 0.13635 0.03243 0.0199 0.07811 0.0199 0.08539 0 0.16084-0.0708 0.07546-0.0715 0.14694-0.28925-0.05361 0.0629-0.11782 0.0887-0.06354 0.0252-0.13106 0.0252-0.13702 0-0.19857-0.0854-0.06156-0.0854-0.0331-0.21975 0.02714-0.12907 0.12642-0.22704 0.09995-0.098 0.25351-0.098 0.20718 0 0.24623 0.18666 0.02184 0.10259-0.01059 0.25682-0.03707 0.17408-0.11782 0.30845-0.13437 0.22372-0.34154 0.22372-0.139 0-0.19592-0.0728-0.05626-0.0728-0.0331-0.18268zm0.45473-0.40443q0.0225-0.10458-0.01986-0.15555-0.0417-0.0516-0.12312-0.0516-0.08737 0-0.15092 0.0589-0.06354 0.0583-0.08472 0.15621-0.0192 0.0927 0.0139 0.14761 0.03376 0.0543 0.13238 0.0543 0.07082 0 0.139-0.0463 0.06884-0.047 0.09333-0.16349z"/>
  <path id="ba" d="m70.697 150.29h0.12444q-0.01192 0.092 6e-3 0.1337 0.03045 0.0748 0.15158 0.0748 0.09399 0 0.1615-0.0503 0.06752-0.0503 0.08473-0.12973 0.02052-0.098-0.03111-0.13702-0.05163-0.0391-0.1582-0.0391-0.01192 0-0.02449 6.6e-4 -0.01191 0-0.02449 6.7e-4l0.0225-0.10525q0.01787 2e-3 0.03045 3e-3 0.01258 6.6e-4 0.02714 6.6e-4 0.06685 0 0.11451-0.0212 0.08274-0.0371 0.10326-0.13238 0.01522-0.0708-0.02714-0.10922-0.04236-0.0384-0.10922-0.0384-0.11914 0-0.18136 0.0794-0.03442 0.0437-0.05494 0.12444h-0.11782q0.0225-0.1059 0.08075-0.18004 0.10061-0.13238 0.28396-0.13238 0.14496 0 0.21049 0.0649 0.06619 0.0642 0.04038 0.18666-0.0192 0.0874-0.07744 0.14164-0.03641 0.0338-0.08671 0.053 0.07016 0.0205 0.09995 0.0794 0.02979 0.0582 0.01191 0.14297-0.02912 0.13569-0.13702 0.22108-0.10723 0.0854-0.27138 0.0854-0.16812 0-0.22439-0.092-0.0556-0.0927-0.0278-0.22505z"/>
 </g>
 <g id="bb" transform="matrix(.0098231 0 0 .0098231 -1.514 19.83)" aria-label="Parental Guidance Recommended for Younger Viewers.">
  <path id="bc" d="m2980.6-1687.8h86.24q25.572 0 41.228 14.482 15.656 14.352 15.656 40.445 0 22.441-13.96 39.141-13.96 16.57-42.924 16.57h-60.276v81.021h-25.963zm116.9 55.058q0-21.136-15.656-28.703-8.6109-4.0445-23.615-4.0445h-51.666v66.409h51.666q17.483 0 28.312-7.4368 10.959-7.4367 10.959-26.224z"/>
  <path id="bd" d="m3167.9-1533.3q0 10.177 7.4367 16.048t17.613 5.8711q12.394 0 24.006-5.7407 19.57-9.5242 19.57-31.182v-18.918q-4.3054 2.7399-11.09 4.5664-6.7844 1.8266-13.308 2.6094l-14.221 1.8266q-12.786 1.6961-19.179 5.3492-10.829 6.132-10.829 19.57zm56.884-47.491q8.0891-1.0438 10.829-6.7844 1.5656-3.1312 1.5656-9.0023 0-12.003-8.611-17.352-8.4804-5.4797-24.398-5.4797-18.396 0-26.094 9.9157-4.3054 5.4797-5.6101 16.309h-21.919q0.6524-25.833 16.7-35.879 16.178-10.177 37.445-10.177 24.659 0 40.054 9.3937 15.265 9.3938 15.265 29.225v80.499q0 3.6531 1.4352 5.8711 1.5656 2.2179 6.3929 2.2179 1.5657 0 3.5227-0.1304 1.957-0.261 4.175-0.6524v17.352q-5.4797 1.5656-8.35 1.957t-7.8281 0.3914q-12.134 0-17.613-8.6109-2.8703-4.5664-4.0445-12.916-7.1758 9.3937-20.614 16.308-13.438 6.9149-29.616 6.9149-19.44 0-31.834-11.742-12.264-11.873-12.264-29.616 0-19.44 12.134-30.138t31.834-13.177z"/>
  <path id="be" d="m3296-1635.9h22.31v24.137q2.7399-7.0453 13.438-17.091 10.698-10.177 24.659-10.177 0.6524 0 2.218 0.1305t5.3492 0.5219v24.789q-2.0875-0.3914-3.9141-0.5218-1.6961-0.1305-3.7836-0.1305-17.744 0-27.268 11.481-9.5242 11.351-9.5242 26.224v80.369h-23.484z"/>
  <path id="bf" d="m3439.2-1639q14.873 0 28.834 7.0453 13.96 6.9149 21.266 18.005 7.0453 10.568 9.3937 24.659 2.0875 9.6547 2.0875 30.791h-102.42q0.6523 21.266 10.046 34.183 9.3937 12.786 29.094 12.786 18.396 0 29.356-12.134 6.2625-7.0453 8.8718-16.309h23.093q-0.9133 7.6977-6.132 17.222-5.0883 9.3937-11.481 15.395-10.698 10.438-26.485 14.091-8.4805 2.0875-19.179 2.0875-26.094 0-44.229-18.918-18.135-19.048-18.135-53.231 0-33.661 18.266-54.666 18.266-21.006 47.752-21.006zm37.444 61.842q-1.4351-15.265-6.6539-24.398-9.6547-16.961-32.226-16.961-16.178 0-27.138 11.742-10.959 11.612-11.612 29.616z"/>
  <path id="bg" d="m3526.4-1635.9h22.31v19.831q9.9156-12.264 21.006-17.613 11.09-5.3492 24.659-5.3492 29.747 0 40.184 20.745 5.7406 11.351 5.7406 32.487v89.632h-23.876v-88.066q0-12.786-3.7836-20.614-6.2625-13.047-22.702-13.047-8.35 0-13.699 1.6961-9.6547 2.8703-16.961 11.481-5.8711 6.9149-7.6977 14.352-1.6961 7.3062-1.6961 21.005v73.193h-23.484z"/>
  <path id="bh" d="m3676.5-1674.9h23.745v39.01h22.31v19.179h-22.31v91.198q0 7.3063 4.9578 9.7852 2.7399 1.4352 9.1328 1.4352 1.6961 0 3.6532 0 1.957-0.1305 4.5664-0.3914v18.526q-4.0446 1.1742-8.4805 1.6961-4.3055 0.5219-9.3937 0.5219-16.439 0-22.31-8.35-5.8711-8.4805-5.8711-21.919v-92.502h-18.918v-19.179h18.918z"/>
  <path id="bi" d="m3760.8-1533.3q0 10.177 7.4368 16.048 7.4367 5.8711 17.613 5.8711 12.395 0 24.006-5.7407 19.57-9.5242 19.57-31.182v-18.918q-4.3055 2.7399-11.09 4.5664-6.7844 1.8266-13.308 2.6094l-14.221 1.8266q-12.786 1.6961-19.179 5.3492-10.829 6.132-10.829 19.57zm56.884-47.491q8.0891-1.0438 10.829-6.7844 1.5656-3.1312 1.5656-9.0023 0-12.003-8.6109-17.352-8.4805-5.4797-24.398-5.4797-18.396 0-26.094 9.9157-4.3055 5.4797-5.6102 16.309h-21.919q0.6523-25.833 16.7-35.879 16.178-10.177 37.444-10.177 24.659 0 40.054 9.3937 15.265 9.3938 15.265 29.225v80.499q0 3.6531 1.4351 5.8711 1.5657 2.2179 6.393 2.2179 1.5656 0 3.5227-0.1304 1.957-0.261 4.175-0.6524v17.352q-5.4797 1.5656-8.35 1.957-2.8704 0.3914-7.8282 0.3914-12.134 0-17.613-8.6109-2.8704-4.5664-4.0446-12.916-7.1758 9.3937-20.614 16.308-13.438 6.9149-29.616 6.9149-19.44 0-31.834-11.742-12.264-11.873-12.264-29.616 0-19.44 12.134-30.138t31.834-13.177z"/>
  <path id="bj" d="m3888.8-1687.8h23.484v191.66h-23.484z"/>
  <path id="bk" d="m4110.3-1692.8q27.007 0 46.708 10.438 28.573 15.004 34.966 52.579h-25.702q-4.6968-21.006-19.44-30.53-14.743-9.6547-37.184-9.6547-26.616 0-44.881 19.962-18.135 19.962-18.135 59.494 0 34.183 15.004 55.71 15.004 21.397 48.926 21.397 25.963 0 42.924-15.004 17.091-15.134 17.483-48.795h-60.016v-21.527h84.152v102.55h-16.7l-6.2625-24.659q-13.177 14.482-23.354 20.092-17.091 9.6547-43.446 9.6547-34.052 0-58.58-22.049-26.746-27.659-26.746-75.933 0-48.143 26.094-76.585 24.789-27.138 64.191-27.138z"/>
  <path id="bl" d="m4252.4-1635.9v92.763q0 10.698 3.3922 17.483 6.2625 12.525 23.354 12.525 24.528 0 33.4-21.919 4.8274-11.742 4.8274-32.226v-68.626h23.484v139.73h-22.18l0.261-20.614q-4.5664 7.9585-11.351 13.438-13.438 10.959-32.617 10.959-29.877 0-40.706-19.962-5.8711-10.698-5.8711-28.573v-94.981z"/>
  <path id="bm" d="m4374.3-1635.2h23.876v139.08h-23.876zm0-52.579h23.876v26.616h-23.876z"/>
  <path id="bn" d="m4445.3-1564.4q0 22.441 9.5242 37.575t30.53 15.134q16.309 0 26.746-13.96 10.568-14.091 10.568-40.315 0-26.485-10.829-39.141-10.829-12.786-26.746-12.786-17.744 0-28.834 13.569-10.959 13.569-10.959 39.924zm35.357-73.976q16.048 0 26.877 6.7843 6.2625 3.9141 14.221 13.699v-70.584h22.571v192.31h-21.136v-19.44q-8.2195 12.916-19.44 18.657t-25.702 5.7406q-23.354 0-40.445-19.57-17.091-19.701-17.091-52.318 0-30.53 15.526-52.84 15.656-22.441 44.62-22.441z"/>
  <path id="bo" d="m4593.8-1533.3q0 10.177 7.4368 16.048 7.4367 5.8711 17.613 5.8711 12.395 0 24.006-5.7407 19.57-9.5242 19.57-31.182v-18.918q-4.3055 2.7399-11.09 4.5664-6.7844 1.8266-13.308 2.6094l-14.221 1.8266q-12.786 1.6961-19.179 5.3492-10.829 6.132-10.829 19.57zm56.884-47.491q8.0891-1.0438 10.829-6.7844 1.5657-3.1312 1.5657-9.0023 0-12.003-8.611-17.352-8.4805-5.4797-24.398-5.4797-18.396 0-26.094 9.9157-4.3055 5.4797-5.6101 16.309h-21.919q0.6523-25.833 16.7-35.879 16.178-10.177 37.444-10.177 24.659 0 40.054 9.3937 15.265 9.3938 15.265 29.225v80.499q0 3.6531 1.4351 5.8711 1.5657 2.2179 6.393 2.2179 1.5656 0 3.5227-0.1304 1.957-0.261 4.175-0.6524v17.352q-5.4797 1.5656-8.35 1.957t-7.8282 0.3914q-12.134 0-17.613-8.6109-2.8704-4.5664-4.0446-12.916-7.1758 9.3937-20.614 16.308-13.438 6.9149-29.616 6.9149-19.44 0-31.834-11.742-12.264-11.873-12.264-29.616 0-19.44 12.134-30.138t31.834-13.177z"/>
  <path id="bp" d="m4721.2-1635.9h22.31v19.831q9.9156-12.264 21.006-17.613 11.09-5.3492 24.659-5.3492 29.747 0 40.184 20.745 5.7406 11.351 5.7406 32.487v89.632h-23.876v-88.066q0-12.786-3.7836-20.614-6.2625-13.047-22.702-13.047-8.35 0-13.699 1.6961-9.6547 2.8703-16.961 11.481-5.8711 6.9149-7.6977 14.352-1.6961 7.3062-1.6961 21.005v73.193h-23.484z"/>
  <path id="bq" d="m4920.4-1639.9q23.615 0 38.358 11.481 14.873 11.481 17.874 39.532h-22.832q-2.0875-12.916-9.5242-21.397-7.4368-8.611-23.876-8.611-22.441 0-32.095 21.919-6.2625 14.221-6.2625 35.096 0 21.005 8.8718 35.357 8.8719 14.352 27.92 14.352 14.612 0 23.093-8.8719 8.611-9.0024 11.873-24.528h22.832q-3.914 27.79-19.57 40.706-15.656 12.786-40.054 12.786-27.398 0-43.707-19.962-16.309-20.092-16.309-50.1 0-36.792 17.874-57.276t45.534-20.484z"/>
  <path id="br" d="m5055.1-1639q14.873 0 28.834 7.0453 13.96 6.9149 21.266 18.005 7.0453 10.568 9.3937 24.659 2.0875 9.6547 2.0875 30.791h-102.42q0.6524 21.266 10.046 34.183 9.3938 12.786 29.095 12.786 18.396 0 29.355-12.134 6.2625-7.0453 8.8719-16.309h23.093q-0.9133 7.6977-6.1321 17.222-5.0882 9.3937-11.481 15.395-10.698 10.438-26.485 14.091-8.4804 2.0875-19.179 2.0875-26.094 0-44.229-18.918-18.135-19.048-18.135-53.231 0-33.661 18.266-54.666t47.752-21.006zm37.444 61.842q-1.4352-15.265-6.6539-24.398-9.6547-16.961-32.226-16.961-16.178 0-27.138 11.742-10.959 11.612-11.612 29.616z"/>
  <path id="bs" d="m3067.2-1332.8q18.266 0 28.834-7.3062 10.698-7.3063 10.698-26.355 0-20.484-14.874-27.92-7.9586-3.9141-21.266-3.9141h-63.408v65.495zm-85.979-87.805h88.719q21.919 0 36.14 6.3929 27.007 12.264 27.007 45.273 0 17.222-7.1758 28.181-7.0453 10.959-19.831 17.613 11.22 4.5664 16.83 12.003 5.7406 7.4368 6.393 24.137l0.9133 25.702q0.3914 10.959 1.8265 16.309 2.3485 9.1328 8.35 11.742v4.3055h-31.834q-1.3046-2.4789-2.0875-6.393-0.7828-3.9141-1.3046-15.134l-1.5657-31.965q-0.9132-18.788-13.96-25.18-7.4367-3.5227-23.354-3.5227h-59.102v82.195h-25.963z"/>
  <path id="bt" d="m3223.4-1371.8q14.873 0 28.834 7.0453 13.96 6.9148 21.266 18.005 7.0453 10.568 9.3938 24.659 2.0875 9.6547 2.0875 30.791h-102.42q0.6523 21.266 10.046 34.183 9.3937 12.786 29.094 12.786 18.396 0 29.356-12.134 6.2625-7.0454 8.8719-16.309h23.093q-0.9133 7.6976-6.132 17.222-5.0883 9.3938-11.481 15.395-10.698 10.438-26.485 14.091-8.4805 2.0875-19.179 2.0875-26.094 0-44.229-18.918-18.135-19.048-18.135-53.231 0-33.661 18.266-54.666t47.752-21.005zm37.444 61.842q-1.4351-15.265-6.6539-24.398-9.6547-16.961-32.226-16.961-16.178 0-27.138 11.742-10.959 11.612-11.612 29.616z"/>
  <path id="bu" d="m3365-1372.7q23.615 0 38.358 11.481 14.873 11.481 17.874 39.532h-22.832q-2.0875-12.916-9.5242-21.397-7.4368-8.6109-23.876-8.6109-22.441 0-32.095 21.919-6.2625 14.221-6.2625 35.096 0 21.006 8.8718 35.357 8.8719 14.352 27.92 14.352 14.612 0 23.093-8.8719 8.611-9.0023 11.873-24.528h22.832q-3.9141 27.79-19.57 40.706-15.656 12.786-40.054 12.786-27.398 0-43.707-19.962-16.309-20.092-16.309-50.1 0-36.792 17.874-57.276t45.534-20.484z"/>
  <path id="bv" d="m3497.5-1244.1q23.354 0 31.965-17.613 8.7414-17.744 8.7414-39.402 0-19.57-6.2625-31.834-9.9157-19.309-34.183-19.309-21.527 0-31.312 16.439-9.7852 16.439-9.7852 39.662 0 22.31 9.7852 37.184 9.7851 14.873 31.052 14.873zm0.9133-128.64q27.007 0 45.664 18.005t18.657 52.97q0 33.791-16.439 55.841-16.439 22.049-51.013 22.049-28.834 0-45.795-19.44-16.961-19.57-16.961-52.448 0-35.227 17.874-56.102t48.012-20.875z"/>
  <path id="bw" d="m3587.9-1368.7h23.224v19.831q8.35-10.307 15.134-15.004 11.612-7.9586 26.355-7.9586 16.7 0 26.877 8.2195 5.7406 4.6969 10.438 13.83 7.8281-11.22 18.396-16.57 10.568-5.4797 23.745-5.4797 28.181 0 38.358 20.353 5.4797 10.959 5.4797 29.486v93.024h-24.398v-97.069q0-13.96-7.0454-19.179-6.9148-5.2187-16.961-5.2187-13.83 0-23.876 9.2632-9.9156 9.2633-9.9156 30.921v81.282h-23.876v-91.198q0-14.221-3.3922-20.744-5.3492-9.7852-19.962-9.7852-13.308 0-24.267 10.307-10.829 10.307-10.829 37.314v74.106h-23.484z"/>
  <path id="bx" d="m3807.8-1368.7h23.223v19.831q8.35-10.307 15.134-15.004 11.612-7.9586 26.355-7.9586 16.7 0 26.876 8.2195 5.7407 4.6969 10.438 13.83 7.8282-11.22 18.396-16.57 10.568-5.4797 23.745-5.4797 28.181 0 38.358 20.353 5.4796 10.959 5.4796 29.486v93.024h-24.398v-97.069q0-13.96-7.0453-19.179-6.9149-5.2187-16.961-5.2187-13.83 0-23.876 9.2632-9.9156 9.2633-9.9156 30.921v81.282h-23.876v-91.198q0-14.221-3.3921-20.744-5.3493-9.7852-19.962-9.7852-13.308 0-24.267 10.307-10.829 10.307-10.829 37.314v74.106h-23.484z"/>
  <path id="by" d="m4085.9-1371.8q14.873 0 28.834 7.0453 13.96 6.9148 21.266 18.005 7.0453 10.568 9.3937 24.659 2.0875 9.6547 2.0875 30.791h-102.42q0.6524 21.266 10.046 34.183 9.3938 12.786 29.095 12.786 18.396 0 29.355-12.134 6.2625-7.0454 8.8719-16.309h23.093q-0.9133 7.6976-6.1321 17.222-5.0882 9.3938-11.481 15.395-10.698 10.438-26.485 14.091-8.4804 2.0875-19.179 2.0875-26.094 0-44.229-18.918-18.135-19.048-18.135-53.231 0-33.661 18.266-54.666t47.752-21.005zm37.444 61.842q-1.4352-15.265-6.6539-24.398-9.6547-16.961-32.226-16.961-16.178 0-27.138 11.742-10.959 11.612-11.612 29.616z"/>
  <path id="bz" d="m4173.6-1368.7h22.31v19.831q9.9157-12.264 21.006-17.613 11.09-5.3492 24.659-5.3492 29.747 0 40.184 20.744 5.7406 11.351 5.7406 32.487v89.632h-23.876v-88.066q0-12.786-3.7836-20.614-6.2625-13.047-22.702-13.047-8.35 0-13.699 1.6961-9.6547 2.8703-16.961 11.481-5.8711 6.9148-7.6976 14.352-1.6961 7.3063-1.6961 21.006v73.193h-23.484z"/>
  <path id="ca" d="m4334.4-1297.2q0 22.441 9.5242 37.575 9.5243 15.134 30.53 15.134 16.309 0 26.746-13.96 10.568-14.091 10.568-40.315 0-26.485-10.829-39.141-10.829-12.786-26.746-12.786-17.744 0-28.834 13.569-10.959 13.569-10.959 39.923zm35.357-73.976q16.048 0 26.876 6.7844 6.2625 3.9141 14.221 13.699v-70.584h22.571v192.31h-21.136v-19.44q-8.2196 12.916-19.44 18.657-11.22 5.7406-25.702 5.7406-23.354 0-40.445-19.57-17.091-19.701-17.091-52.318 0-30.53 15.526-52.84 15.656-22.441 44.62-22.441z"/>
  <path id="cb" d="m4523.6-1371.8q14.873 0 28.834 7.0453 13.96 6.9148 21.266 18.005 7.0453 10.568 9.3937 24.659 2.0875 9.6547 2.0875 30.791h-102.42q0.6523 21.266 10.046 34.183 9.3937 12.786 29.094 12.786 18.396 0 29.356-12.134 6.2625-7.0454 8.8718-16.309h23.093q-0.9133 7.6976-6.132 17.222-5.0883 9.3938-11.481 15.395-10.698 10.438-26.485 14.091-8.4805 2.0875-19.179 2.0875-26.094 0-44.229-18.918-18.135-19.048-18.135-53.231 0-33.661 18.266-54.666t47.752-21.005zm37.444 61.842q-1.4351-15.265-6.6539-24.398-9.6547-16.961-32.226-16.961-16.178 0-27.138 11.742-10.959 11.612-11.612 29.616z"/>
  <path id="cc" d="m4626.2-1297.2q0 22.441 9.5242 37.575t30.53 15.134q16.309 0 26.746-13.96 10.568-14.091 10.568-40.315 0-26.485-10.829-39.141-10.829-12.786-26.746-12.786-17.744 0-28.834 13.569-10.959 13.569-10.959 39.923zm35.357-73.976q16.048 0 26.877 6.7844 6.2625 3.9141 14.221 13.699v-70.584h22.571v192.31h-21.136v-19.44q-8.2195 12.916-19.44 18.657-11.22 5.7406-25.702 5.7406-23.354 0-40.445-19.57-17.091-19.701-17.091-52.318 0-30.53 15.526-52.84 15.656-22.441 44.62-22.441z"/>
  <path id="cd" d="m4843.7-1389.9q0.5219-14.612 5.0883-21.397 8.2195-12.003 31.704-12.003 2.218 0 4.5664 0.1305 2.3485 0.1305 5.3492 0.3914v21.397q-3.6531-0.261-5.3492-0.261-1.5656-0.1304-3.0008-0.1304-10.698 0-12.786 5.6101-2.0875 5.4797-2.0875 28.181h23.223v18.526h-23.484v120.55h-23.224v-120.55h-19.44v-18.526h19.44z"/>
  <path id="ce" d="m4964.8-1244.1q23.354 0 31.965-17.613 8.7414-17.744 8.7414-39.402 0-19.57-6.2625-31.834-9.9156-19.309-34.183-19.309-21.527 0-31.312 16.439-9.7851 16.439-9.7851 39.662 0 22.31 9.7851 37.184 9.7852 14.873 31.052 14.873zm0.9133-128.64q27.007 0 45.664 18.005t18.657 52.97q0 33.791-16.439 55.841t-51.013 22.049q-28.834 0-45.794-19.44-16.961-19.57-16.961-52.448 0-35.227 17.874-56.102t48.012-20.875z"/>
  <path id="cf" d="m5055.9-1368.7h22.31v24.137q2.7399-7.0453 13.438-17.091 10.698-10.176 24.659-10.176 0.6524 0 2.218 0.1304 1.5656 0.1305 5.3492 0.5219v24.789q-2.0875-0.3914-3.9141-0.5219-1.696-0.1305-3.7835-0.1305-17.744 0-27.268 11.481-9.5242 11.351-9.5242 26.224v80.369h-23.484z"/>
  <path id="cg" d="m2963.2-1153.4h30.269l55.058 92.111 55.058-92.111h30.399l-72.41 114.42v77.238h-25.963v-77.238z"/>
  <path id="ch" d="m3178.7-976.88q23.354 0 31.965-17.613 8.7414-17.744 8.7414-39.402 0-19.57-6.2625-31.834-9.9156-19.309-34.183-19.309-21.527 0-31.312 16.439-9.7851 16.439-9.7851 39.662 0 22.31 9.7851 37.184 9.7852 14.873 31.052 14.873zm0.9133-128.64q27.007 0 45.664 18.005t18.657 52.97q0 33.791-16.439 55.841-16.439 22.049-51.013 22.049-28.834 0-45.794-19.44-16.961-19.57-16.961-52.448 0-35.227 17.874-56.102t48.012-20.875z"/>
  <path id="ci" d="m3290-1101.5v92.763q0 10.698 3.3922 17.483 6.2625 12.525 23.354 12.525 24.528 0 33.4-21.919 4.8273-11.742 4.8273-32.226v-68.626h23.484v139.73h-22.18l0.261-20.614q-4.5664 7.9586-11.351 13.438-13.438 10.959-32.617 10.959-29.877 0-40.706-19.962-5.8711-10.698-5.8711-28.573v-94.981z"/>
  <path id="cj" d="m3409.7-1101.5h22.31v19.831q9.9157-12.264 21.006-17.613 11.09-5.3492 24.659-5.3492 29.747 0 40.184 20.745 5.7406 11.351 5.7406 32.487v89.632h-23.876v-88.066q0-12.786-3.7836-20.614-6.2625-13.047-22.702-13.047-8.35 0-13.699 1.6961-9.6546 2.8703-16.961 11.481-5.8711 6.9149-7.6977 14.352-1.696 7.3062-1.696 21.005v73.193h-23.484z"/>
  <path id="ck" d="m3602.2-1104q16.439 0 28.703 8.089 6.6539 4.5664 13.569 13.308v-17.613h21.658v127.08q0 26.616-7.8282 42.011-14.612 28.442-55.188 28.442-22.571 0-37.966-10.177-15.395-10.046-17.222-31.573h23.876q1.6961 9.3938 6.7843 14.482 7.9586 7.8281 25.05 7.8281 27.007 0 35.357-19.048 4.9578-11.22 4.5664-40.054-7.0453 10.698-16.961 15.917-9.9156 5.2188-26.224 5.2188-22.702 0-39.793-16.048-16.961-16.178-16.961-53.362 0-35.096 17.091-54.797 17.222-19.701 41.489-19.701zm42.272 71.758q0-25.963-10.698-38.488t-27.268-12.525q-24.789 0-33.922 23.223-4.8274 12.395-4.8274 32.487 0 23.615 9.5243 36.009 9.6546 12.264 25.833 12.264 25.311 0 35.618-22.832 5.7407-12.916 5.7407-30.138z"/>
  <path id="cl" d="m3754.3-1104.6q14.874 0 28.834 7.0453 13.96 6.9149 21.266 18.005 7.0454 10.568 9.3938 24.659 2.0875 9.6547 2.0875 30.791h-102.42q0.6524 21.266 10.046 34.183 9.3938 12.786 29.094 12.786 18.396 0 29.356-12.134 6.2625-7.0453 8.8719-16.309h23.093q-0.9133 7.6977-6.1321 17.222-5.0883 9.3938-11.481 15.395-10.698 10.438-26.485 14.091-8.4804 2.0875-19.179 2.0875-26.094 0-44.229-18.918-18.135-19.048-18.135-53.231 0-33.661 18.266-54.666 18.266-21.006 47.752-21.006zm37.445 61.842q-1.4352-15.265-6.6539-24.398-9.6547-16.961-32.226-16.961-16.178 0-27.138 11.742-10.959 11.612-11.612 29.616z"/>
  <path id="cm" d="m3840-1101.5h22.31v24.137q2.7398-7.0453 13.438-17.091 10.698-10.177 24.659-10.177 0.6523 0 2.2179 0.1305 1.5657 0.1305 5.3493 0.5219v24.789q-2.0875-0.3914-3.9141-0.5218-1.6961-0.1305-3.7836-0.1305-17.744 0-27.268 11.481-9.5242 11.351-9.5242 26.224v80.369h-23.484z"/>
  <path id="cn" d="m4019-1153.4 55.058 163.22 54.406-163.22h29.094l-69.931 191.66h-27.529l-69.801-191.66z"/>
  <path id="co" d="m4168.9-1100.8h23.876v139.08h-23.876zm0-52.579h23.876v26.616h-23.876z"/>
  <path id="cp" d="m4281.1-1104.6q14.874 0 28.834 7.0453 13.96 6.9149 21.266 18.005 7.0453 10.568 9.3938 24.659 2.0875 9.6547 2.0875 30.791h-102.42q0.6523 21.266 10.046 34.183 9.3937 12.786 29.094 12.786 18.396 0 29.356-12.134 6.2625-7.0453 8.8719-16.309h23.093q-0.9132 7.6977-6.132 17.222-5.0883 9.3938-11.481 15.395-10.698 10.438-26.485 14.091-8.4805 2.0875-19.179 2.0875-26.094 0-44.229-18.918-18.135-19.048-18.135-53.231 0-33.661 18.266-54.666 18.266-21.006 47.752-21.006zm37.444 61.842q-1.4351-15.265-6.6539-24.398-9.6546-16.961-32.226-16.961-16.178 0-27.138 11.742-10.959 11.612-11.612 29.616z"/>
  <path id="cq" d="m4376.9-1101.5 26.876 110.12 27.268-110.12h26.355l27.398 109.46 28.573-109.46h23.484l-40.576 139.73h-24.398l-28.442-108.16-27.529 108.16h-24.398l-40.315-139.73z"/>
  <path id="cr" d="m4611.9-1104.6q14.874 0 28.834 7.0453 13.96 6.9149 21.266 18.005 7.0453 10.568 9.3938 24.659 2.0875 9.6547 2.0875 30.791h-102.42q0.6524 21.266 10.046 34.183 9.3938 12.786 29.094 12.786 18.396 0 29.356-12.134 6.2625-7.0453 8.8719-16.309h23.093q-0.9133 7.6977-6.1321 17.222-5.0883 9.3938-11.481 15.395-10.698 10.438-26.485 14.091-8.4805 2.0875-19.179 2.0875-26.094 0-44.229-18.918-18.135-19.048-18.135-53.231 0-33.661 18.266-54.666 18.266-21.006 47.752-21.006zm37.445 61.842q-1.4352-15.265-6.6539-24.398-9.6547-16.961-32.226-16.961-16.178 0-27.138 11.742-10.959 11.612-11.612 29.616z"/>
  <path id="cs" d="m4697.6-1101.5h22.31v24.137q2.7398-7.0453 13.438-17.091 10.698-10.177 24.659-10.177 0.6523 0 2.2179 0.1305 1.5657 0.1305 5.3492 0.5219v24.789q-2.0875-0.3914-3.914-0.5218-1.6961-0.1305-3.7836-0.1305-17.744 0-27.268 11.481-9.5242 11.351-9.5242 26.224v80.369h-23.484z"/>
  <path id="ct" d="m4794.5-1005.6q1.0438 11.742 5.8711 18.005 8.8719 11.351 30.791 11.351 13.047 0 22.962-5.6102 9.9157-5.7406 9.9157-17.613 0-9.0024-7.9586-13.699-5.0883-2.8703-20.092-6.6539l-18.657-4.6969q-17.874-4.4359-26.355-9.9156-15.134-9.5242-15.134-26.355 0-19.831 14.221-32.095 14.352-12.264 38.488-12.264 31.573 0 45.534 18.526 8.7414 11.742 8.4804 25.311h-22.18q-0.6523-7.9586-5.6101-14.482-8.0891-9.2633-28.051-9.2633-13.308 0-20.223 5.0883-6.7843 5.0883-6.7843 13.438 0 9.1328 9.0023 14.612 5.2188 3.2617 15.395 5.7406l15.526 3.7836q25.311 6.1321 33.922 11.873 13.699 9.0023 13.699 28.312 0 18.657-14.221 32.226-14.091 13.569-43.055 13.569-31.182 0-44.229-14.091-12.916-14.221-13.83-35.096z"/>
  <path id="cu" d="m4914.3-990.19h27.268v28.442h-27.268z"/>
 </g>
 <circle id="cv" cx="666.08" cy="-54.556" r="0" fill="#0f0"/>
 <g id="du" fill="#a2a093">
  <g id="dv" transform="rotate(260.97 19.099 119.26)">
   <g id="dw" transform="matrix(.0065997 0 0 .008244 102.41 154.82)" aria-label="BODY">
    <path id="dx" d="m3060.1-1580.2c20.04 0 34.736 1.0688 34.736 17.902 0 14.429-11.757 17.635-27.254 17.635h-27.522v-35.538zm2.1376-67.067c13.36 0 25.651 0.2672 25.651 15.23 0 11.222-9.0848 16.834-21.643 16.834h-26.186v-32.064zm8.5504 147.49c49.966 0 82.832-14.963 82.832-57.982 0-20.842-11.222-38.744-32.064-44.088 12.291-7.7488 25.117-22.178 25.117-41.95 0-38.21-34.469-48.363-77.755-48.363h-91.917v192.38z"/>
    <path id="dy" d="m3276.2-1650.2c27.789-0.8016 38.477 26.987 38.477 53.173 0 31.797-10.688 55.31-37.942 55.31-30.194 0-37.675-30.728-37.675-55.31 0-24.315 8.5504-53.173 37.141-53.173zm0.5344-47.027c-59.853 0-100.73 39.278-100.73 99.666 0 65.464 40.347 102.87 100.73 102.87 56.914 0 101-36.874 101-102.34 0-50.768-32.331-100.2-101-100.2z"/>
    <path id="dz" d="m3468.6-1647.2h12.024c33.667 0 46.76 10.688 46.76 50.768 0 36.339-16.032 51.837-45.424 51.837h-13.36zm19.773 147.49c61.723 0 102.07-27.789 102.07-100.2 0-63.326-38.477-92.184-100.47-92.184h-84.435v192.38z"/>
    <path id="ea" d="m3731.5-1570.8 71.61-121.31h-69.472l-33.133 65.197-33.133-65.197h-70.541l71.61 122.38v70.006h63.059z"/>
   </g>
   <path id="eb" d="m119.73 140.92v1.586h0.74569v-0.37h-0.3297v-1.216z"/>
   <path id="ec" d="m121.13 142.29a0.20796 0.20796 0 0 1-0.20796 0.20797 0.20796 0.20796 0 0 1-0.20796-0.20797 0.20796 0.20796 0 0 1 0.20796-0.20796 0.20796 0.20796 0 0 1 0.20796 0.20796z"/>
  </g>
  <g id="ed" transform="rotate(260.97 15.633 115.2)">
   <g id="ee" transform="matrix(.0065997 0 0 .008244 102.41 154.82)" aria-label="BODY">
    <path id="ef" d="m3060.1-1580.2c20.04 0 34.736 1.0688 34.736 17.902 0 14.429-11.757 17.635-27.254 17.635h-27.522v-35.538zm2.1376-67.067c13.36 0 25.651 0.2672 25.651 15.23 0 11.222-9.0848 16.834-21.643 16.834h-26.186v-32.064zm8.5504 147.49c49.966 0 82.832-14.963 82.832-57.982 0-20.842-11.222-38.744-32.064-44.088 12.291-7.7488 25.117-22.178 25.117-41.95 0-38.21-34.469-48.363-77.755-48.363h-91.917v192.38z"/>
    <path id="eg" d="m3276.2-1650.2c27.789-0.8016 38.477 26.987 38.477 53.173 0 31.797-10.688 55.31-37.942 55.31-30.194 0-37.675-30.728-37.675-55.31 0-24.315 8.5504-53.173 37.141-53.173zm0.5344-47.027c-59.853 0-100.73 39.278-100.73 99.666 0 65.464 40.347 102.87 100.73 102.87 56.914 0 101-36.874 101-102.34 0-50.768-32.331-100.2-101-100.2z"/>
    <path id="eh" d="m3468.6-1647.2h12.024c33.667 0 46.76 10.688 46.76 50.768 0 36.339-16.032 51.837-45.424 51.837h-13.36zm19.773 147.49c61.723 0 102.07-27.789 102.07-100.2 0-63.326-38.477-92.184-100.47-92.184h-84.435v192.38z"/>
    <path id="ei" d="m3731.5-1570.8 71.61-121.31h-69.472l-33.133 65.197-33.133-65.197h-70.541l71.61 122.38v70.006h63.059z"/>
   </g>
   <path id="ej" d="m119.73 140.92v1.586h0.74569v-0.37h-0.3297v-1.216z"/>
   <path id="ek" d="m121.13 142.29a0.20796 0.20796 0 0 1-0.20796 0.20797 0.20796 0.20796 0 0 1-0.20796-0.20797 0.20796 0.20796 0 0 1 0.20796-0.20796 0.20796 0.20796 0 0 1 0.20796 0.20796z"/>
  </g>
  <g id="el" transform="rotate(260.97 22.57 123.32)">
   <g id="em" transform="matrix(.0065997 0 0 .008244 102.41 154.82)" aria-label="BODY">
    <path id="en" d="m3060.1-1580.2c20.04 0 34.736 1.0688 34.736 17.902 0 14.429-11.757 17.635-27.254 17.635h-27.522v-35.538zm2.1376-67.067c13.36 0 25.651 0.2672 25.651 15.23 0 11.222-9.0848 16.834-21.643 16.834h-26.186v-32.064zm8.5504 147.49c49.966 0 82.832-14.963 82.832-57.982 0-20.842-11.222-38.744-32.064-44.088 12.291-7.7488 25.117-22.178 25.117-41.95 0-38.21-34.469-48.363-77.755-48.363h-91.917v192.38z"/>
    <path id="eo" d="m3276.2-1650.2c27.789-0.8016 38.477 26.987 38.477 53.173 0 31.797-10.688 55.31-37.942 55.31-30.194 0-37.675-30.728-37.675-55.31 0-24.315 8.5504-53.173 37.141-53.173zm0.5344-47.027c-59.853 0-100.73 39.278-100.73 99.666 0 65.464 40.347 102.87 100.73 102.87 56.914 0 101-36.874 101-102.34 0-50.768-32.331-100.2-101-100.2z"/>
    <path id="ep" d="m3468.6-1647.2h12.024c33.667 0 46.76 10.688 46.76 50.768 0 36.339-16.032 51.837-45.424 51.837h-13.36zm19.773 147.49c61.723 0 102.07-27.789 102.07-100.2 0-63.326-38.477-92.184-100.47-92.184h-84.435v192.38z"/>
    <path id="eq" d="m3731.5-1570.8 71.61-121.31h-69.472l-33.133 65.197-33.133-65.197h-70.541l71.61 122.38v70.006h63.059z"/>
   </g>
   <path id="er" d="m119.73 140.92v1.586h0.74569v-0.37h-0.3297v-1.216z"/>
   <path id="es" d="m121.13 142.29a0.20796 0.20796 0 0 1-0.20796 0.20797 0.20796 0.20796 0 0 1-0.20796-0.20797 0.20796 0.20796 0 0 1 0.20796-0.20796 0.20796 0.20796 0 0 1 0.20796 0.20796z"/>
  </g>
 </g>
 <g id="et" transform="matrix(1 0 0 1 -23.614 -115.12)">
  <g id="eu">
   <ellipse id="ev" cx="35.918" cy="126.85" rx="9.6531" ry="9.6529" fill="#ffec00"/>
   <g id="ew" transform="matrix(.72207 0 0 .72206 12.813 111.78)" aria-label="PG">
    <path id="ex" d="m28.373 18.694q0-0.93193-0.49433-1.329-0.48623-0.39708-1.3695-0.39708h-2.3258v3.517h2.3258q0.88331 0 1.3695-0.4295 0.49433-0.4295 0.49433-1.3614zm2.4716-0.01621q0 2.1151-1.0697 2.9903t-3.0551 0.87521h-2.5365v4.295h-2.4798v-11.945h5.2026q1.799 0 2.8687 0.92383t1.0697 2.8606z"/>
    <path id="ey" d="m39.795 18.621q-0.28363-1.2237-1.3857-1.7099-0.61589-0.26742-1.3695-0.26742-1.4425 0-2.3744 1.094-0.92383 1.0859-0.92383 3.2739 0 2.2042 1.0049 3.12 1.0049 0.91573 2.2853 0.91573 1.2561 0 2.0584-0.72124 0.80227-0.72934 0.98866-1.9044h-2.7634v-1.9935h4.9757v6.4101h-1.6532l-0.25122-1.4911q-0.72124 0.8509-1.2966 1.1994-0.98866 0.60778-2.4311 0.60778-2.3744 0-3.8898-1.6451-1.5802-1.6532-1.5802-4.5219 0-2.9012 1.5964-4.6516t4.2221-1.7504q2.2772 0 3.6548 1.1588 1.3857 1.1507 1.5883 2.8768z"/>
   </g>
  </g>
 </g>
</svg>
