<?xml version="1.0" encoding="UTF-8" standalone="no"?>
<!-- Created with Inkscape (http://www.inkscape.org/) -->

<svg
   width="190.30782"
   height="91.09597"
   viewBox="0 0 50.35303 24.102836"
   version="1.1"
   id="svg1"
   xmlns="http://www.w3.org/2000/svg"
   xmlns:svg="http://www.w3.org/2000/svg">
  <defs
     id="defs1">
    <clipPath
       clipPathUnits="userSpaceOnUse"
       id="clipPath848">
      <path
         d="M 0,0 H 595.276 V 841.89 H 0 Z"
         id="path848" />
    </clipPath>
    <clipPath
       clipPathUnits="userSpaceOnUse"
       id="clipPath850">
      <path
         d="M 0,0 H 595.276 V 841.89 H 0 Z"
         transform="matrix(1,0,0,-1,-53.241202,263.73391)"
         id="path850" />
    </clipPath>
    <clipPath
       clipPathUnits="userSpaceOnUse"
       id="clipPath852">
      <path
         d="M 0,0 H 595.276 V 841.89 H 0 Z"
         transform="matrix(1,0,0,-1,-60.837902,258.93391)"
         id="path852" />
    </clipPath>
    <clipPath
       clipPathUnits="userSpaceOnUse"
       id="clipPath854">
      <path
         d="M 0,0 H 595.276 V 841.89 H 0 Z"
         transform="matrix(1,0,0,-1,-122.8071,312.57341)"
         id="path854" />
    </clipPath>
    <clipPath
       clipPathUnits="userSpaceOnUse"
       id="clipPath856">
      <path
         d="M 0,0 H 595.276 V 841.89 H 0 Z"
         transform="matrix(1,0,0,-1,-122.8071,302.97341)"
         id="path856" />
    </clipPath>
    <clipPath
       clipPathUnits="userSpaceOnUse"
       id="clipPath858">
      <path
         d="M 0,0 H 595.276 V 841.89 H 0 Z"
         transform="matrix(1,0,0,-1,-122.8071,293.3734)"
         id="path858" />
    </clipPath>
    <clipPath
       clipPathUnits="userSpaceOnUse"
       id="clipPath860">
      <path
         d="M 0,0 H 595.276 V 841.89 H 0 Z"
         id="path860" />
    </clipPath>
    <clipPath
       clipPathUnits="userSpaceOnUse"
       id="clipPath862">
      <path
         d="M 0,0 H 595.276 V 841.89 H 0 Z"
         transform="matrix(1,0,0,-1,-64.747301,275.08791)"
         id="path862" />
    </clipPath>
    <clipPath
       clipPathUnits="userSpaceOnUse"
       id="clipPath864">
      <path
         d="M 0,0 H 595.276 V 841.89 H 0 Z"
         id="path864" />
    </clipPath>
    <clipPath
       clipPathUnits="userSpaceOnUse"
       id="clipPath866">
      <path
         d="M 0,0 H 595.276 V 841.89 H 0 Z"
         transform="matrix(1,0,0,-1,-56.834201,310.22401)"
         id="path866" />
    </clipPath>
    <clipPath
       clipPathUnits="userSpaceOnUse"
       id="clipPath868">
      <path
         d="M 0,0 H 595.276 V 841.89 H 0 Z"
         transform="matrix(1,0,0,-1,-62.752202,310.22401)"
         id="path868" />
    </clipPath>
    <clipPath
       clipPathUnits="userSpaceOnUse"
       id="clipPath870">
      <path
         d="M 0,0 H 595.276 V 841.89 H 0 Z"
         transform="matrix(1,0,0,-1,-99.240002,310.22401)"
         id="path870" />
    </clipPath>
  </defs>
  <g
     id="layer1"
     transform="translate(-79.639582,-137.08335)">
    <g
       id="g1">
      <path
         id="path847"
         d="m 58.98,323.358 c 0,0 -12,0 -12,-12 v -43.323 c 0,0 0,-12 12,-12 h 117.733 c 0,0 12,0 12,12 v 43.323 c 0,0 0,12 -12,12 z"
         style="fill:#ffffff;stroke:#000000;stroke-width:1;stroke-linecap:butt;stroke-linejoin:miter;stroke-miterlimit:4;stroke-dasharray:none;stroke-opacity:1"
         transform="matrix(0.35277776,0,0,-0.35277776,63.242473,251.33325)"
         clip-path="url(#clipPath848)" />
      <path
         id="path849"
         d="M 0.17579219,1.5e-4 0.77344844,-2.859225 H 2.6367297 L 2.5664172,-2.5311 H 1.0898547 L 0.90235469,-1.6287563 H 2.4023547 l -0.058594,0.328125 H 0.83204219 L 0.56251094,1.5e-4 Z M 3.0761828,-2.4607875 3.1582141,-2.859225 h 0.3515625 l -0.082031,0.3984375 z M 2.5605578,1.5e-4 2.9941516,-2.0740688 H 3.3457141 L 2.9121203,1.5e-4 Z m 0.8759766,0 0.5976562,-2.859375 H 4.3857531 L 3.7880969,1.5e-4 Z m 0.9111328,0 0.4335937,-2.0742188 h 0.3515625 l -0.070312,0.3398438 c 0.131836,-0.1464844 0.2490235,-0.2490234 0.3515625,-0.3046875 0.099609,-0.052734 0.2138672,-0.082031 0.3398438,-0.082031 0.1230469,0 0.2285156,0.035156 0.3164062,0.1054688 0.09375,0.070312 0.1523438,0.1640625 0.1757813,0.28125 0.099609,-0.1230469 0.2109375,-0.2167969 0.328125,-0.28125 0.1171875,-0.070312 0.2402344,-0.1054688 0.375,-0.1054688 0.1699219,0 0.2988281,0.043945 0.3867187,0.1289063 0.084961,0.079102 0.1289063,0.1933594 0.1289063,0.3398437 0,0.064453 -0.017578,0.1699219 -0.046875,0.3164063 L 7.1367297,1.5e-4 H 6.7851672 l 0.2929687,-1.3710938 c 0.023437,-0.1083984 0.035156,-0.1875 0.035156,-0.234375 0,-0.070312 -0.023437,-0.1230468 -0.070312,-0.1640625 -0.041016,-0.038086 -0.099609,-0.058594 -0.1757813,-0.058594 -0.1113281,0 -0.2197265,0.032227 -0.328125,0.09375 -0.1113281,0.064453 -0.196289,0.1494141 -0.2578125,0.2578125 -0.055664,0.1025391 -0.1054687,0.2578125 -0.1523437,0.46875 L 5.9179797,1.5e-4 H 5.5664172 l 0.2929687,-1.3945313 c 0.023437,-0.099609 0.035156,-0.1699218 0.035156,-0.2109375 0,-0.061523 -0.023437,-0.1113281 -0.070312,-0.1523437 -0.041016,-0.046875 -0.09375,-0.070312 -0.1640625,-0.070312 -0.1025391,0 -0.2080078,0.032227 -0.3164063,0.09375 -0.1113281,0.064453 -0.1992187,0.1523437 -0.2695312,0.2695312 -0.070312,0.1113282 -0.1259766,0.2695313 -0.1640625,0.4804688 L 4.6992297,1.5e-4 Z m 3.3691406,-0.703125 0.3515625,-0.0234375 c 0,0.10253906 0.014648,0.1875 0.046875,0.2578125 0.029297,0.0703125 0.087891,0.12890625 0.1757813,0.17578125 0.084961,0.046875 0.1816406,0.0703125 0.2929687,0.0703125 0.1552735,0 0.272461,-0.0292969 0.3515625,-0.09375 0.076172,-0.0615234 0.1171875,-0.13476563 0.1171875,-0.22265625 0,-0.0615234 -0.023437,-0.12011719 -0.070312,-0.17578125 -0.046875,-0.0527344 -0.1640625,-0.12011719 -0.3515625,-0.19921875 -0.1875,-0.0761719 -0.3105469,-0.1347656 -0.3632812,-0.1757813 -0.087891,-0.046875 -0.1523438,-0.1054687 -0.1992188,-0.1757812 -0.041016,-0.076172 -0.058594,-0.1640625 -0.058594,-0.2578125 0,-0.1640625 0.061523,-0.3046875 0.1875,-0.421875 0.1318359,-0.1171875 0.3164062,-0.1757813 0.5507812,-0.1757813 0.2636719,0 0.4628906,0.064453 0.5976563,0.1875 0.1318359,0.1171875 0.2021484,0.2753907 0.2109375,0.46875 L 9.216808,-1.4412568 C 9.208018,-1.5643036 9.161144,-1.663913 9.076183,-1.7342255 8.997081,-1.8103975 8.879894,-1.851413 8.7246205,-1.851413 c -0.1259765,0 -0.2226562,0.032227 -0.2929687,0.09375 -0.064453,0.055664 -0.09375,0.1142578 -0.09375,0.1757812 0,0.064453 0.029297,0.1230469 0.09375,0.1757813 0.038086,0.032227 0.1347656,0.082031 0.2929687,0.1523437 0.272461,0.1171875 0.4453125,0.2109375 0.515625,0.28125005 0.1083985,0.11132812 0.1640625,0.24023437 0.1640625,0.38671875 0,0.11132812 -0.032227,0.21679687 -0.09375,0.31640625 -0.064453,0.09375 -0.1611328,0.17285156 -0.2929687,0.234375 C 8.8916125,0.01772812 8.7421984,0.047025 8.5722766,0.047025 c -0.2431641,0 -0.4511719,-0.05859375 -0.6210938,-0.17578125 -0.1640625,-0.1171875 -0.243164,-0.30761719 -0.234375,-0.57421875 z m 2.0449219,0.703125 0.09375,-0.3984375 h 0.3984373 l -0.07031,0.3515625 c -0.04688,0.20214844 -0.11719,0.3515625 -0.2109398,0.4453125 -0.09375,0.0996094 -0.2050781,0.15820312 -0.328125,0.17578125 L 9.6796984,0.422025 C 9.8349719,0.38100937 9.9375109,0.24038437 9.9843859,1.5e-4 Z m 3.0585933,0 -0.550781,-2.859375 h 0.375 l 0.328125,1.6992187 c 0.06152,0.31347661 0.09961,0.56250005 0.117188,0.75000005 C 13.212902,-0.65024063 13.312511,-0.8436 13.382823,-0.984225 l 1.019532,-1.875 h 0.398437 L 13.23048,1.5e-4 Z M 15.00587,-2.4607875 15.0879,-2.859225 h 0.351562 l -0.08203,0.3984375 z M 14.490245,1.5e-4 14.923839,-2.0740688 h 0.351563 L 14.841808,1.5e-4 Z m 2.305664,-0.3046875 c -0.205078,0.234375 -0.416015,0.3515625 -0.632812,0.3515625 -0.205078,0 -0.37207,-0.0703125 -0.503906,-0.2109375 -0.125977,-0.14648438 -0.1875,-0.35742188 -0.1875,-0.6328125 0,-0.2578125 0.0498,-0.4863281 0.152343,-0.6914063 0.09961,-0.2109375 0.228516,-0.3662109 0.386719,-0.46875 0.155274,-0.1083984 0.310547,-0.1640625 0.46875,-0.1640625 0.257813,0 0.451172,0.1259766 0.585938,0.375 l 0.234375,-1.1132812 h 0.351562 L 17.053722,1.5e-4 h -0.328125 z m -0.972656,-0.5625 c 0,0.140625 0.01172,0.25488281 0.03516,0.33984375 0.0293,0.0878906 0.08203,0.15820312 0.152344,0.2109375 0.07031,0.0556641 0.152344,0.0820313 0.246094,0.0820313 0.164062,0 0.307617,-0.0820313 0.433594,-0.24609375 0.178711,-0.22558594 0.269531,-0.49804688 0.269531,-0.8203125 0,-0.1640625 -0.04395,-0.2929687 -0.128906,-0.3867187 -0.08789,-0.09375 -0.196289,-0.140625 -0.328125,-0.140625 -0.08789,0 -0.164063,0.020508 -0.234375,0.058594 -0.07031,0.041016 -0.140625,0.1054688 -0.210938,0.1992188 -0.06445,0.087891 -0.117187,0.1992187 -0.164062,0.3398437 -0.04687,0.1347657 -0.07031,0.25488281 -0.07031,0.36328125 z m 3.313477,0.1640625 0.351562,0.0351563 c -0.05566,0.17285156 -0.172851,0.33691406 -0.351562,0.4921875 -0.172852,0.14941406 -0.383789,0.22265625 -0.632813,0.22265625 -0.149414,0 -0.290039,-0.03515625 -0.421875,-0.10546875 -0.125976,-0.0703125 -0.222656,-0.16992188 -0.292969,-0.3046875 -0.06445,-0.140625 -0.09375,-0.29589844 -0.09375,-0.46875 0,-0.2255859 0.04981,-0.4453125 0.152344,-0.65625 0.09961,-0.2109375 0.234375,-0.3662109 0.398438,-0.46875 0.169922,-0.1083985 0.354492,-0.1640626 0.550781,-0.1640626 0.249023,0 0.445312,0.079102 0.585937,0.2343751 0.146485,0.1494141 0.222657,0.3574219 0.222657,0.6210938 0,0.1025391 -0.0088,0.2080078 -0.02344,0.3164062 h -1.523437 c -0.0088,0.0410156 -0.01172,0.0761719 -0.01172,0.10546875 0,0.19628906 0.04102,0.34570312 0.128906,0.4453125 0.09375,0.10253906 0.202149,0.15234375 0.328125,0.15234375 0.123047,0 0.246094,-0.0380859 0.363281,-0.1171875 0.117188,-0.0761719 0.205079,-0.19042969 0.269532,-0.33984375 z M 18.117198,-1.2186 h 1.160157 c 0,-0.038086 0,-0.064453 0,-0.082031 0,-0.1699218 -0.04687,-0.3046875 -0.140625,-0.3984375 -0.08789,-0.09375 -0.196289,-0.140625 -0.328125,-0.140625 -0.158203,0 -0.298828,0.052734 -0.421875,0.1523438 -0.125977,0.1025391 -0.216797,0.2578125 -0.269532,0.4687497 z m 1.79004,0.43359375 c 0,-0.40429685 0.117187,-0.74121095 0.351562,-1.00781255 0.193359,-0.2167968 0.451172,-0.328125 0.773438,-0.328125 0.249023,0 0.448242,0.079102 0.597656,0.234375 0.155273,0.1582032 0.234375,0.3691407 0.234375,0.6328125 0,0.2431641 -0.04687,0.46582036 -0.140625,0.6679688 -0.09375,0.20507812 -0.231446,0.36035156 -0.410156,0.46875 -0.181641,0.11132812 -0.369141,0.1640625 -0.5625,0.1640625 -0.164063,0 -0.313477,-0.03515625 -0.445313,-0.10546875 -0.134766,-0.0703125 -0.234375,-0.16699219 -0.304687,-0.29296875 -0.06445,-0.12304688 -0.09375,-0.26953125 -0.09375,-0.43359375 z M 20.2588,-0.8201625 c 0,0.19628906 0.04687,0.34570312 0.140625,0.4453125 0.09375,0.10253906 0.210938,0.15234375 0.351563,0.15234375 0.07617,0 0.152343,-0.0146484 0.222656,-0.046875 0.07617,-0.0292969 0.146484,-0.0761719 0.210937,-0.140625 0.06152,-0.0615234 0.117188,-0.13183594 0.164063,-0.2109375 0.04687,-0.0849609 0.08203,-0.16992188 0.105469,-0.2578125 0.03808,-0.13183595 0.05859,-0.25781255 0.05859,-0.37500005 0,-0.1875 -0.04687,-0.3310546 -0.140625,-0.4335937 -0.09375,-0.1083984 -0.210937,-0.1640625 -0.351562,-0.1640625 -0.111328,0 -0.210938,0.029297 -0.304688,0.082031 -0.09375,0.055664 -0.175781,0.1347657 -0.246093,0.234375 -0.07031,0.1025391 -0.125977,0.2197266 -0.164063,0.3515625 -0.03223,0.1347657 -0.04687,0.25488286 -0.04687,0.3632813 z m 1.836914,0.1171875 0.351563,-0.0234375 c 0,0.10253906 0.01465,0.1875 0.04687,0.2578125 0.0293,0.0703125 0.08789,0.12890625 0.175781,0.17578125 0.08496,0.046875 0.18164,0.0703125 0.292969,0.0703125 0.155273,0 0.272461,-0.0292969 0.351562,-0.09375 0.07617,-0.0615234 0.117188,-0.13476563 0.117188,-0.22265625 0,-0.0615234 -0.02344,-0.12011719 -0.07031,-0.17578125 -0.04687,-0.0527344 -0.164062,-0.12011719 -0.351562,-0.19921875 -0.1875,-0.0761719 -0.310547,-0.1347656 -0.363282,-0.1757813 -0.08789,-0.046875 -0.152343,-0.1054687 -0.199218,-0.1757812 -0.04102,-0.076172 -0.05859,-0.1640625 -0.05859,-0.2578125 0,-0.1640625 0.06152,-0.3046875 0.1875,-0.421875 0.131836,-0.1171875 0.316406,-0.1757813 0.550781,-0.1757813 0.263672,0 0.462891,0.064453 0.597656,0.1875 0.131836,0.1171875 0.202149,0.2753907 0.210938,0.46875 l -0.339844,0.023437 c -0.0088,-0.1230468 -0.05566,-0.2226562 -0.140625,-0.2929687 -0.0791,-0.076172 -0.196289,-0.1171875 -0.351562,-0.1171875 -0.125977,0 -0.222657,0.032227 -0.292969,0.09375 -0.06445,0.055664 -0.09375,0.1142578 -0.09375,0.1757812 0,0.064453 0.0293,0.1230469 0.09375,0.1757813 0.03809,0.032227 0.134765,0.082031 0.292969,0.1523437 0.272461,0.1171875 0.445312,0.2109375 0.515625,0.28125005 0.108398,0.11132812 0.164062,0.24023437 0.164062,0.38671875 0,0.11132812 -0.03223,0.21679687 -0.09375,0.31640625 -0.06445,0.09375 -0.161133,0.17285156 -0.292969,0.234375 -0.125976,0.05273437 -0.27539,0.08203125 -0.445312,0.08203125 -0.243164,0 -0.451172,-0.05859375 -0.621094,-0.17578125 -0.164062,-0.1171875 -0.243164,-0.30761719 -0.234375,-0.57421875 z m 2.047852,0.703125 0.09375,-0.3984375 h 0.398437 l -0.07031,0.3515625 c -0.04687,0.20214844 -0.117188,0.3515625 -0.210938,0.4453125 -0.09375,0.0996094 -0.205078,0.15820312 -0.328125,0.17578125 L 24.061534,0.422025 C 24.216808,0.38100937 24.319347,0.24038437 24.366222,1.5e-4 Z m 3.547851,-0.2578125 c -0.125976,0.11132812 -0.246094,0.1875 -0.363281,0.234375 -0.111328,0.046875 -0.231445,0.0703125 -0.363281,0.0703125 -0.1875,0 -0.339844,-0.05273438 -0.457032,-0.1640625 -0.117187,-0.1171875 -0.175781,-0.26074219 -0.175781,-0.43359375 0,-0.1171875 0.02344,-0.21679688 0.07031,-0.3046875 0.05273,-0.09375 0.123047,-0.16699215 0.210937,-0.22265625 0.09375,-0.052734 0.202149,-0.09375 0.328125,-0.1171875 0.07617,-0.014648 0.225586,-0.026367 0.445313,-0.035156 0.225586,-0.00586 0.386718,-0.029297 0.480468,-0.070312 0.0293,-0.09375 0.04687,-0.1699218 0.04687,-0.234375 0,-0.084961 -0.03223,-0.1523437 -0.09375,-0.1992187 -0.0791,-0.061523 -0.199218,-0.09375 -0.363281,-0.09375 -0.149414,0 -0.269531,0.035156 -0.363281,0.1054687 -0.09375,0.064453 -0.161133,0.1523438 -0.199219,0.2695313 l -0.363281,-0.035156 c 0.07617,-0.2021484 0.193359,-0.3574218 0.351562,-0.46875 0.155274,-0.1083984 0.354493,-0.1640625 0.597657,-0.1640625 0.257812,0 0.459961,0.064453 0.609375,0.1875 0.108398,0.087891 0.164062,0.2050782 0.164062,0.3515625 0,0.1113282 -0.01758,0.2402344 -0.04687,0.3867188 l -0.105469,0.515625 c -0.04101,0.1640625 -0.05859,0.29882812 -0.05859,0.3984375 0,0.0644531 0.01465,0.15820312 0.04687,0.28125 h -0.363282 c -0.01758,-0.0703125 -0.0293,-0.15527344 -0.03516,-0.2578125 z m 0.128906,-0.796875 c -0.05566,0.023437 -0.111328,0.043945 -0.164062,0.0585937 -0.05566,0.008789 -0.149414,0.0175781 -0.28125,0.0234375 -0.205078,0.0175781 -0.348633,0.0410156 -0.433594,0.0703125 -0.08789,0.0322266 -0.152344,0.0791016 -0.199219,0.140625 -0.04101,0.0556641 -0.05859,0.12304687 -0.05859,0.19921875 0,0.09375 0.0293,0.17578125 0.09375,0.24609375 0.07031,0.0644531 0.169922,0.09375 0.304687,0.09375 0.117188,0 0.225586,-0.0292969 0.328125,-0.09375 0.108399,-0.0615234 0.19336,-0.14648438 0.257813,-0.2578125 0.06152,-0.10839844 0.111328,-0.26953125 0.152343,-0.4804687 z M 28.5088,1.5e-4 28.942394,-2.0740688 h 0.328125 l -0.08203,0.3632813 c 0.140625,-0.140625 0.269531,-0.2402344 0.386718,-0.3046875 0.123047,-0.070312 0.249024,-0.1054688 0.375,-0.1054688 0.169922,0 0.304688,0.046875 0.398438,0.140625 0.09375,0.087891 0.140625,0.2080079 0.140625,0.3632813 0,0.079102 -0.01758,0.1992187 -0.04687,0.3632812 L 30.172863,1.5e-4 H 29.8213 l 0.28125,-1.3125 c 0.02344,-0.1230469 0.03516,-0.2167969 0.03516,-0.28125 0,-0.070312 -0.02344,-0.1230469 -0.07031,-0.1640625 -0.04687,-0.046875 -0.117188,-0.070312 -0.210938,-0.070312 -0.18164,0 -0.339843,0.067383 -0.480468,0.1992187 -0.140625,0.1259766 -0.243165,0.3486329 -0.304688,0.6679688 L 28.860363,1.5e-4 Z m 3.629883,-0.3046875 c -0.205078,0.234375 -0.416016,0.3515625 -0.632813,0.3515625 -0.205078,0 -0.37207,-0.0703125 -0.503906,-0.2109375 -0.125976,-0.14648438 -0.1875,-0.35742188 -0.1875,-0.6328125 0,-0.2578125 0.0498,-0.4863281 0.152344,-0.6914063 0.09961,-0.2109375 0.228515,-0.3662109 0.386719,-0.46875 0.155273,-0.1083984 0.310546,-0.1640625 0.46875,-0.1640625 0.257812,0 0.451171,0.1259766 0.585937,0.375 l 0.234375,-1.1132812 h 0.351563 L 32.396495,1.5e-4 H 32.06837 Z m -0.972656,-0.5625 c 0,0.140625 0.01172,0.25488281 0.03516,0.33984375 0.0293,0.0878906 0.08203,0.15820312 0.152344,0.2109375 0.07031,0.0556641 0.152343,0.0820313 0.246093,0.0820313 0.164063,0 0.307618,-0.0820313 0.433594,-0.24609375 0.178711,-0.22558594 0.269531,-0.49804688 0.269531,-0.8203125 0,-0.1640625 -0.04395,-0.2929687 -0.128906,-0.3867187 -0.08789,-0.09375 -0.196289,-0.140625 -0.328125,-0.140625 -0.08789,0 -0.164062,0.020508 -0.234375,0.058594 -0.07031,0.041016 -0.140625,0.1054688 -0.210937,0.1992188 -0.06445,0.087891 -0.117188,0.1992187 -0.164063,0.3398437 -0.04687,0.1347657 -0.07031,0.25488281 -0.07031,0.36328125 z M 34.116222,1.5e-4 34.713878,-2.859225 h 1.195313 c 0.202148,0 0.354492,0.023437 0.457031,0.070312 0.108398,0.046875 0.193359,0.1289062 0.257812,0.2460937 0.07031,0.1171875 0.105469,0.2460938 0.105469,0.3867188 0,0.1171875 -0.02344,0.2402344 -0.07031,0.3632812 -0.04687,0.1171875 -0.111328,0.2197266 -0.1875,0.3046875 -0.07031,0.079102 -0.146485,0.1376954 -0.222657,0.1757813 -0.0791,0.041016 -0.161132,0.067383 -0.246093,0.082031 -0.181641,0.046875 -0.363282,0.070312 -0.550782,0.070312 H 34.737316 L 34.491222,1.5e-4 Z m 0.691406,-1.4882813 h 0.632813 c 0.240234,0 0.416015,-0.023437 0.527343,-0.070312 0.117188,-0.052734 0.210938,-0.1347656 0.28125,-0.2460937 0.07031,-0.1083984 0.105469,-0.2226563 0.105469,-0.3398438 0,-0.09375 -0.02051,-0.1669921 -0.05859,-0.2226562 -0.04102,-0.061523 -0.09375,-0.1083984 -0.164062,-0.140625 -0.06445,-0.029297 -0.1875,-0.046875 -0.375,-0.046875 h -0.726563 z m 3.348633,1.1132813 c -0.251953,0.28125 -0.503906,0.421875 -0.761719,0.421875 -0.164062,0 -0.298828,-0.04394531 -0.398437,-0.12890625 -0.09375,-0.09375 -0.140625,-0.20507813 -0.140625,-0.33984375 0,-0.09375 0.02344,-0.24609375 0.07031,-0.45703125 l 0.246094,-1.19531255 h 0.351562 L 37.253917,-0.74985 c -0.02344,0.11132812 -0.03516,0.19628906 -0.03516,0.2578125 0,0.0791016 0.02344,0.140625 0.07031,0.1875 0.04687,0.0410156 0.117188,0.0585938 0.210938,0.0585938 0.09375,0 0.1875,-0.0234375 0.28125,-0.0703125 0.09961,-0.046875 0.181641,-0.10839844 0.246094,-0.1875 0.07031,-0.0849609 0.128906,-0.18164063 0.175781,-0.29296875 0.02344,-0.0703125 0.05273,-0.19335938 0.09375,-0.37499995 l 0.1875,-0.9023439 h 0.351562 L 38.402355,1.5e-4 H 38.07423 Z m 0.805664,0.375 0.597656,-2.859375 h 0.351563 l -0.210938,1.0195312 c 0.117188,-0.099609 0.216797,-0.1699218 0.304688,-0.2109375 0.09375,-0.046875 0.190429,-0.070312 0.292969,-0.070312 0.1875,0 0.342773,0.076172 0.46875,0.2226563 0.131835,0.140625 0.199218,0.3486328 0.199218,0.6210937 0,0.1875 -0.0293,0.36035161 -0.08203,0.51562505 -0.04687,0.14941406 -0.111328,0.27539062 -0.1875,0.375 -0.07031,0.10253906 -0.149414,0.18457031 -0.234375,0.24609375 -0.0791,0.06445312 -0.161133,0.11132812 -0.246094,0.140625 -0.08789,0.02929687 -0.172851,0.046875 -0.257812,0.046875 -0.134766,0 -0.254883,-0.03515625 -0.363281,-0.10546875 -0.10254,-0.0703125 -0.181641,-0.17871094 -0.234375,-0.328125 L 39.278331,1.5e-4 Z m 0.527344,-0.85546875 v 0.0703125 c 0,0.18164062 0.03809,0.31640625 0.117187,0.41015625 0.08496,0.0878906 0.19336,0.12890625 0.328125,0.12890625 0.117188,0 0.225586,-0.0410156 0.328125,-0.12890625 0.108399,-0.0849609 0.19336,-0.21679688 0.257813,-0.3984375 0.07031,-0.1875 0.105469,-0.3574219 0.105469,-0.515625 0,-0.1699219 -0.04395,-0.3046875 -0.128907,-0.3984375 -0.08789,-0.099609 -0.1875,-0.1523438 -0.304687,-0.1523438 -0.134766,0 -0.254883,0.052734 -0.363281,0.1523438 -0.10254,0.1025391 -0.1875,0.2548828 -0.257813,0.4570312 -0.05566,0.1494141 -0.08203,0.27539067 -0.08203,0.37500005 z M 41.16212,1.5e-4 41.759777,-2.859225 h 0.351562 L 41.513683,1.5e-4 Z m 1.415039,-2.4609375 0.08203,-0.3984375 h 0.351562 l -0.08203,0.3984375 z M 42.061534,1.5e-4 42.495128,-2.0740688 h 0.351563 L 42.413097,1.5e-4 Z m 2.329102,-0.75 0.363281,0.0351563 c -0.09375,0.2578125 -0.222656,0.45117187 -0.386719,0.57421875 -0.164062,0.12597656 -0.348632,0.1875 -0.550781,0.1875 -0.228515,0 -0.410156,-0.0703125 -0.550781,-0.2109375 -0.140625,-0.14648438 -0.210938,-0.35449219 -0.210938,-0.62109375 0,-0.2255859 0.04102,-0.4482421 0.128907,-0.6679687 0.09375,-0.2167969 0.222656,-0.3808594 0.386718,-0.4921875 0.169922,-0.1171875 0.363282,-0.1757814 0.574219,-0.1757814 0.225586,0 0.401367,0.064453 0.527344,0.1875001 0.131836,0.1259766 0.199219,0.2929688 0.199219,0.5039063 L 44.531261,-1.4061 c -0.0088,-0.1318359 -0.05273,-0.234375 -0.128906,-0.3046875 -0.07031,-0.076172 -0.164063,-0.1171875 -0.28125,-0.1171875 -0.149414,0 -0.275391,0.046875 -0.375,0.140625 -0.102539,0.087891 -0.184571,0.2226562 -0.246094,0.4101562 -0.05566,0.1816407 -0.08203,0.35156255 -0.08203,0.51562505 0,0.18164062 0.03809,0.31640625 0.117187,0.41015625 0.07617,0.0878906 0.169922,0.12890625 0.28125,0.12890625 0.117188,0 0.225586,-0.0410156 0.328125,-0.12890625 0.108399,-0.09375 0.19043,-0.22558594 0.246093,-0.3984375 z m 1.977539,0.4921875 c -0.125977,0.11132812 -0.246094,0.1875 -0.363281,0.234375 -0.111328,0.046875 -0.231446,0.0703125 -0.363281,0.0703125 -0.1875,0 -0.339844,-0.05273438 -0.457032,-0.1640625 C 45.067394,-0.234225 45.0088,-0.37777969 45.0088,-0.55063125 c 0,-0.1171875 0.02344,-0.21679688 0.07031,-0.3046875 0.05273,-0.09375 0.123046,-0.16699215 0.210937,-0.22265625 0.09375,-0.052734 0.202148,-0.09375 0.328125,-0.1171875 0.07617,-0.014648 0.225586,-0.026367 0.445313,-0.035156 0.225585,-0.00586 0.386718,-0.029297 0.480468,-0.070312 0.0293,-0.09375 0.04687,-0.1699218 0.04687,-0.234375 0,-0.084961 -0.03223,-0.1523437 -0.09375,-0.1992187 -0.0791,-0.061523 -0.199218,-0.09375 -0.363281,-0.09375 -0.149414,0 -0.269531,0.035156 -0.363281,0.1054687 -0.09375,0.064453 -0.161133,0.1523438 -0.199219,0.2695313 l -0.363281,-0.035156 c 0.07617,-0.2021484 0.193359,-0.3574218 0.351562,-0.46875 0.155274,-0.1083984 0.354492,-0.1640625 0.597657,-0.1640625 0.257812,0 0.45996,0.064453 0.609375,0.1875 0.108398,0.087891 0.164062,0.2050782 0.164062,0.3515625 0,0.1113282 -0.01758,0.2402344 -0.04687,0.3867188 l -0.105469,0.515625 c -0.04102,0.1640625 -0.05859,0.29882812 -0.05859,0.3984375 0,0.0644531 0.01465,0.15820312 0.04687,0.28125 h -0.363282 c -0.01758,-0.0703125 -0.0293,-0.15527344 -0.03516,-0.2578125 z m 0.128906,-0.796875 c -0.05566,0.023437 -0.111328,0.043945 -0.164062,0.0585937 -0.05566,0.008789 -0.149414,0.0175781 -0.28125,0.0234375 -0.205078,0.0175781 -0.348633,0.0410156 -0.433594,0.0703125 -0.08789,0.0322266 -0.152344,0.0791016 -0.199219,0.140625 -0.04102,0.0556641 -0.05859,0.12304687 -0.05859,0.19921875 0,0.09375 0.0293,0.17578125 0.09375,0.24609375 0.07031,0.0644531 0.169921,0.09375 0.304687,0.09375 0.117188,0 0.225586,-0.0292969 0.328125,-0.09375 0.108398,-0.0615234 0.193359,-0.14648438 0.257813,-0.2578125 0.06152,-0.10839844 0.111328,-0.26953125 0.152343,-0.4804687 z M 48.017589,-0.2811 47.958995,1.5e-4 c -0.08789,0.0234375 -0.169922,0.03515625 -0.246093,0.03515625 -0.140625,0 -0.254883,-0.03515625 -0.339844,-0.10546875 -0.06445,-0.046875 -0.09375,-0.1171875 -0.09375,-0.2109375 0,-0.046875 0.01465,-0.15234375 0.04687,-0.31640625 L 47.58399,-1.8045375 h -0.28125 l 0.05859,-0.2695313 h 0.28125 l 0.105469,-0.5039062 0.398437,-0.2460938 -0.152343,0.75 h 0.351562 l -0.05859,0.2695313 H 47.935558 L 47.701183,-0.6561 c -0.03223,0.14941406 -0.04687,0.24023437 -0.04687,0.26953125 0,0.0410156 0.01172,0.0703125 0.03516,0.09375 0.02344,0.0234375 0.06152,0.0351563 0.117188,0.0351563 0.07617,0 0.146484,-0.005859 0.210937,-0.0234375 z m 0.782227,-2.1796875 0.08203,-0.3984375 h 0.351562 l -0.08203,0.3984375 z M 48.284191,1.5e-4 48.717784,-2.0740688 h 0.351563 L 48.635753,1.5e-4 Z m 0.969726,-0.78515625 c 0,-0.40429685 0.117188,-0.74121095 0.351563,-1.00781255 0.193359,-0.2167968 0.451172,-0.328125 0.773437,-0.328125 0.249024,0 0.448242,0.079102 0.597656,0.234375 0.155274,0.1582032 0.234375,0.3691407 0.234375,0.6328125 0,0.2431641 -0.04687,0.46582036 -0.140625,0.6679688 -0.09375,0.20507812 -0.231445,0.36035156 -0.410156,0.46875 -0.18164,0.11132812 -0.36914,0.1640625 -0.5625,0.1640625 -0.164062,0 -0.313476,-0.03515625 -0.445312,-0.10546875 -0.134766,-0.0703125 -0.234375,-0.16699219 -0.304688,-0.29296875 -0.06445,-0.12304688 -0.09375,-0.26953125 -0.09375,-0.43359375 z m 0.351563,-0.0351563 c 0,0.19628906 0.04687,0.34570312 0.140625,0.4453125 0.09375,0.10253906 0.210937,0.15234375 0.351562,0.15234375 0.07617,0 0.152344,-0.0146484 0.222656,-0.046875 0.07617,-0.0292969 0.146485,-0.0761719 0.210938,-0.140625 0.06152,-0.0615234 0.117187,-0.13183594 0.164062,-0.2109375 0.04687,-0.0849609 0.08203,-0.16992188 0.105469,-0.2578125 0.03809,-0.1318359 0.05859,-0.2578125 0.05859,-0.375 0,-0.1875 -0.04687,-0.3310547 -0.140625,-0.4335937 -0.09375,-0.1083985 -0.210938,-0.1640625 -0.351563,-0.1640625 -0.111328,0 -0.210937,0.029297 -0.304687,0.082031 -0.09375,0.055664 -0.175781,0.1347656 -0.246094,0.234375 -0.07031,0.102539 -0.125976,0.2197265 -0.164062,0.3515625 -0.03223,0.1347656 -0.04687,0.25488281 -0.04687,0.36328125 z M 51.410167,1.5e-4 51.843761,-2.0740688 h 0.328125 l -0.08203,0.3632813 c 0.140625,-0.140625 0.269531,-0.2402344 0.386718,-0.3046875 0.123047,-0.070312 0.249024,-0.1054688 0.375,-0.1054688 0.169922,0 0.304688,0.046875 0.398438,0.140625 0.09375,0.087891 0.140625,0.2080079 0.140625,0.3632813 0,0.079102 -0.01758,0.1992187 -0.04687,0.3632812 L 53.07423,1.5e-4 h -0.351563 l 0.28125,-1.3125 c 0.02344,-0.1230469 0.03516,-0.2167969 0.03516,-0.28125 0,-0.070312 -0.02344,-0.1230469 -0.07031,-0.1640625 -0.04687,-0.046875 -0.117188,-0.070312 -0.210938,-0.070312 -0.18164,0 -0.339843,0.067383 -0.480468,0.1992187 -0.140625,0.1259766 -0.243164,0.3486329 -0.304688,0.6679688 L 51.76173,1.5e-4 Z m 2.258789,-0.703125 0.351563,-0.0234375 c 0,0.10253906 0.01465,0.1875 0.04687,0.2578125 0.0293,0.0703125 0.08789,0.12890625 0.175781,0.17578125 0.08496,0.046875 0.181641,0.0703125 0.292969,0.0703125 0.155273,0 0.272461,-0.0292969 0.351562,-0.09375 0.07617,-0.0615234 0.117188,-0.13476563 0.117188,-0.22265625 0,-0.0615234 -0.02344,-0.12011719 -0.07031,-0.17578125 -0.04687,-0.0527344 -0.164062,-0.12011719 -0.351562,-0.19921875 -0.1875,-0.0761719 -0.310547,-0.1347656 -0.363281,-0.1757813 -0.08789,-0.046875 -0.152344,-0.1054687 -0.199219,-0.1757812 -0.04102,-0.076172 -0.05859,-0.1640625 -0.05859,-0.2578125 0,-0.1640625 0.06152,-0.3046875 0.1875,-0.421875 0.131836,-0.1171875 0.316406,-0.1757813 0.550781,-0.1757813 0.263672,0 0.462891,0.064453 0.597657,0.1875 0.131835,0.1171875 0.202148,0.2753907 0.210937,0.46875 l -0.339844,0.023437 c -0.0088,-0.1230468 -0.05566,-0.2226562 -0.140625,-0.2929687 -0.0791,-0.076172 -0.196289,-0.1171875 -0.351562,-0.1171875 -0.125977,0 -0.222656,0.032227 -0.292969,0.09375 -0.06445,0.055664 -0.09375,0.1142578 -0.09375,0.1757812 0,0.064453 0.0293,0.1230469 0.09375,0.1757813 0.03809,0.032227 0.134766,0.082031 0.292969,0.1523437 0.272461,0.1171875 0.445312,0.2109375 0.515625,0.28125005 0.108398,0.11132812 0.164062,0.24023437 0.164062,0.38671875 0,0.11132812 -0.03223,0.21679687 -0.09375,0.31640625 -0.06445,0.09375 -0.161133,0.17285156 -0.292968,0.234375 -0.125977,0.05273437 -0.275391,0.08203125 -0.445313,0.08203125 -0.243164,0 -0.451172,-0.05859375 -0.621094,-0.17578125 -0.164062,-0.1171875 -0.243164,-0.30761719 -0.234375,-0.57421875 z m 0,0"
         style="fill:#000000;fill-opacity:1;fill-rule:nonzero;stroke:none"
         aria-label="Films, Videos, and Publications "
         transform="matrix(0.35277776,0,0,0.35277776,82.024785,158.29379)"
         clip-path="url(#clipPath850)" />
      <path
         id="path851"
         d="m 2.4140531,-1.0088344 0.375,0.0585938 c -0.1171875,0.328125 -0.2929687,0.58007813 -0.5273437,0.75 -0.2285156,0.1640625 -0.4804688,0.24609375 -0.7617188,0.24609375 -0.3515625,0 -0.62988279,-0.10546875 -0.83203122,-0.31640625 -0.20507813,-0.2109375 -0.3046875,-0.515625 -0.3046875,-0.9140625 0,-0.515625 0.15527343,-0.9404297 0.46875,-1.2773438 0.27246092,-0.2958984 0.61230472,-0.4453125 1.01953122,-0.4453125 0.3046875,0 0.5507813,0.082031 0.7382813,0.2460938 0.1875,0.1582031 0.2958984,0.375 0.328125,0.65625 l -0.3515625,0.023437 c -0.041016,-0.202148 -0.1171875,-0.3544917 -0.234375,-0.4570308 -0.1171875,-0.099609 -0.2695313,-0.1523437 -0.4570313,-0.1523437 -0.3515625,0 -0.6386718,0.1582031 -0.8554687,0.46875 -0.18750002,0.2666015 -0.28125002,0.5830078 -0.28125002,0.9492187 0,0.29882815 0.0703125,0.52441409 0.2109375,0.67968752 0.14648442,0.14941407 0.33984372,0.22265625 0.57421872,0.22265625 0.1933594,0 0.3691407,-0.0615234 0.5273438,-0.1875 0.1640625,-0.13183593 0.2841797,-0.31640625 0.3632812,-0.55078127 z M 2.9941313,-0.00102188 3.5917875,-2.8603969 H 3.94335 l -0.5976562,2.85937502 z m 2.3173828,-0.2578125 c -0.1259766,0.11132813 -0.2460938,0.1875 -0.3632813,0.234375 -0.1113281,0.046875 -0.2314453,0.0703125 -0.3632812,0.0703125 -0.1875,0 -0.3398438,-0.05273437 -0.4570313,-0.1640625 -0.1171875,-0.1171875 -0.1757812,-0.26074218 -0.1757812,-0.43359375 0,-0.1171875 0.023437,-0.21679687 0.070312,-0.3046875 0.052734,-0.09375 0.1230468,-0.16699217 0.2109375,-0.22265627 0.09375,-0.052734 0.2021484,-0.09375 0.328125,-0.1171875 0.076172,-0.014648 0.2255859,-0.026367 0.4453125,-0.035156 0.2255859,-0.00586 0.3867187,-0.029297 0.4804687,-0.070312 0.029297,-0.09375 0.046875,-0.1699219 0.046875,-0.234375 0,-0.084961 -0.032227,-0.1523438 -0.09375,-0.1992188 -0.079102,-0.061523 -0.1992187,-0.09375 -0.3632812,-0.09375 -0.1494141,0 -0.2695313,0.035156 -0.3632813,0.1054688 -0.09375,0.064453 -0.1611328,0.1523437 -0.1992187,0.2695312 l -0.3632813,-0.035156 c 0.076172,-0.2021485 0.1933594,-0.3574219 0.3515625,-0.46875 0.1552735,-0.1083985 0.3544922,-0.1640625 0.5976563,-0.1640625 0.2578125,0 0.4599609,0.064453 0.609375,0.1875 0.1083984,0.087891 0.1640625,0.2050781 0.1640625,0.3515625 0,0.1113281 -0.017578,0.2402343 -0.046875,0.3867187 l -0.1054688,0.51562502 c -0.041016,0.1640625 -0.058594,0.29882813 -0.058594,0.3984375 0,0.0644531 0.014648,0.15820313 0.046875,0.28125 H 5.3466703 c -0.017578,-0.0703125 -0.029297,-0.15527343 -0.035156,-0.2578134 z M 5.4404203,-1.0557094 c -0.055664,0.023437 -0.1113281,0.043945 -0.1640625,0.0585938 -0.055664,0.008789 -0.149414,0.0175781 -0.28125,0.0234375 -0.2050781,0.0175781 -0.3486328,0.0410156 -0.4335937,0.0703125 -0.087891,0.0322266 -0.1523438,0.0791016 -0.1992188,0.140625 -0.041016,0.0556641 -0.058594,0.12304688 -0.058594,0.19921875 0,0.09375 0.029297,0.17578125 0.09375,0.24609375 0.070312,0.0644531 0.1699218,0.09375 0.3046875,0.09375 0.1171875,0 0.2255859,-0.0292969 0.328125,-0.09375 0.1083984,-0.0615234 0.1933593,-0.14648437 0.2578125,-0.2578125 0.061524,-0.10839846 0.1113284,-0.26953128 0.152344,-0.4804688 z m 0.7236328,0.35156252 0.3515625,-0.0234375 c 0,0.10253907 0.014648,0.1875 0.046875,0.2578125 0.029297,0.0703125 0.087891,0.12890625 0.1757813,0.17578125 0.084961,0.046875 0.1816406,0.0703125 0.2929687,0.0703125 0.1552735,0 0.272461,-0.0292969 0.3515625,-0.09375 0.076172,-0.0615234 0.1171875,-0.13476562 0.1171875,-0.22265625 0,-0.0615234 -0.023437,-0.12011718 -0.070312,-0.17578125 C 7.3828031,-0.7686 7.2656156,-0.83598281 7.0781156,-0.91508438 6.8906156,-0.99125625 6.7675688,-1.04985 6.7148344,-1.0908656 6.6269438,-1.1377406 6.5624906,-1.1963344 6.5156156,-1.2666469 6.4746,-1.3428188 6.4570219,-1.4307094 6.4570219,-1.5244594 c 0,-0.1640625 0.061523,-0.3046875 0.1875,-0.421875 0.1318359,-0.1171875 0.3164062,-0.1757812 0.5507812,-0.1757812 0.2636719,0 0.4628907,0.064453 0.5976563,0.1875 0.1318359,0.1171875 0.2021484,0.2753906 0.2109375,0.46875 l -0.3398438,0.023437 c -0.00879,-0.1230469 -0.055664,-0.2226563 -0.140625,-0.2929688 -0.079102,-0.076172 -0.196289,-0.1171875 -0.3515625,-0.1171875 -0.1259765,0 -0.2226562,0.032227 -0.2929687,0.09375 -0.064453,0.055664 -0.09375,0.1142578 -0.09375,0.1757813 0,0.064453 0.029297,0.1230468 0.09375,0.1757812 0.038086,0.032227 0.1347656,0.082031 0.2929687,0.1523438 0.272461,0.1171875 0.4453125,0.2109375 0.515625,0.28124997 0.1083985,0.11132813 0.1640625,0.24023438 0.1640625,0.38671875 0,0.11132813 -0.032227,0.21679688 -0.09375,0.31640625 -0.064453,0.09375 -0.1611328,0.17285157 -0.2929687,0.234375 -0.1259766,0.05273438 -0.2753906,0.08203125 -0.4453125,0.08203125 -0.2431641,0 -0.4511719,-0.05859375 -0.6210938,-0.17578125 -0.1640625,-0.1171875 -0.243164,-0.30761718 -0.234375,-0.57421825 z m 2.0009766,0 0.3515625,-0.0234375 c 0,0.10253907 0.014648,0.1875 0.046875,0.2578125 0.029297,0.0703125 0.087891,0.12890625 0.1757812,0.17578125 0.084961,0.046875 0.1816407,0.0703125 0.2929688,0.0703125 0.1552734,0 0.2724609,-0.0292969 0.3515625,-0.09375 0.076172,-0.0615234 0.1171875,-0.13476562 0.1171875,-0.22265625 0,-0.0615234 -0.023437,-0.12011718 -0.070312,-0.17578125 C 9.3837797,-0.7686 9.2665922,-0.83598281 9.0790922,-0.91508438 8.8915922,-0.99125625 8.7685453,-1.04985 8.7158109,-1.0908656 8.6279203,-1.1377406 8.5634672,-1.1963344 8.5165922,-1.2666469 c -0.041016,-0.076172 -0.058594,-0.1640625 -0.058594,-0.2578125 0,-0.1640625 0.061524,-0.3046875 0.1875,-0.421875 0.131836,-0.1171875 0.3164063,-0.1757812 0.5507813,-0.1757812 0.2636719,0 0.4628906,0.064453 0.5976562,0.1875 0.131836,0.1171875 0.2021485,0.2753906 0.2109373,0.46875 l -0.3398435,0.023437 c -0.00879,-0.1230469 -0.055664,-0.2226563 -0.140625,-0.2929688 -0.079102,-0.076172 -0.1962891,-0.1171875 -0.3515625,-0.1171875 -0.1259766,0 -0.2226563,0.032227 -0.2929688,0.09375 -0.064453,0.055664 -0.09375,0.1142578 -0.09375,0.1757813 0,0.064453 0.029297,0.1230468 0.09375,0.1757812 0.038086,0.032227 0.1347657,0.082031 0.2929688,0.1523438 0.2724609,0.1171875 0.4453125,0.2109375 0.515625,0.28124997 0.1083984,0.11132813 0.1640625,0.24023438 0.1640625,0.38671875 0,0.11132813 -0.032227,0.21679688 -0.09375,0.31640625 -0.064453,0.09375 -0.1611328,0.17285157 -0.2929688,0.234375 -0.1259765,0.05273438 -0.2753906,0.08203125 -0.4453125,0.08203125 -0.243164,0 -0.4511718,-0.05859375 -0.6210937,-0.17578125 C 8.235342,-0.24711613 8.1562404,-0.43754581 8.1650297,-0.70414688 Z m 2.4667973,-1.75781252 0.08203,-0.3984375 h 0.351562 l -0.08203,0.3984375 z m -0.515625,2.46093752 0.433593,-2.07421872 h 0.351563 l -0.433594,2.07421872 z m 0.981445,0 0.386719,-1.80468752 h -0.328125 l 0.05859,-0.2695312 h 0.316407 l 0.07031,-0.2929688 c 0.0293,-0.1464844 0.05859,-0.2460937 0.08203,-0.2929687 0.0293,-0.076172 0.08496,-0.1347657 0.164063,-0.1757813 0.07617,-0.046875 0.181641,-0.070312 0.316406,-0.070312 0.123047,0 0.251953,0.020508 0.386719,0.058594 l -0.07031,0.3046875 c -0.125976,-0.038086 -0.228515,-0.058594 -0.304687,-0.058594 -0.04687,0 -0.08789,0.011719 -0.117188,0.035156 -0.03223,0.017578 -0.05859,0.046875 -0.08203,0.09375 -0.0088,0.023437 -0.02344,0.09082 -0.04687,0.1992187 l -0.03516,0.1992188 h 0.398437 l -0.05859,0.2695312 H 11.83593 l -0.375,1.80468752 z m 1.523437,-2.44921872 0.09375,-0.4101563 h 0.351563 l -0.09375,0.4101563 z m -0.503906,2.44921872 0.433594,-2.07421872 h 0.351562 l -0.433593,2.07421872 z m 2.329102,-0.75 0.363281,0.0351563 c -0.09375,0.2578125 -0.222656,0.45117188 -0.386719,0.57421875 -0.164062,0.12597657 -0.348633,0.1875 -0.550781,0.1875 -0.228516,0 -0.410156,-0.0703125 -0.550781,-0.2109375 -0.140625,-0.14648437 -0.210938,-0.35449218 -0.210938,-0.62109375 0,-0.22558592 0.04102,-0.44824222 0.128906,-0.66796882 0.09375,-0.2167969 0.222657,-0.3808594 0.386719,-0.4921874 0.169922,-0.1171876 0.363281,-0.1757813 0.574219,-0.1757813 0.225586,0 0.401367,0.064453 0.527344,0.1875 0.131836,0.1259765 0.199218,0.2929687 0.199218,0.5039062 l -0.339843,0.023437 c -0.0088,-0.1318359 -0.05274,-0.234375 -0.128907,-0.3046875 -0.07031,-0.076172 -0.164062,-0.1171875 -0.28125,-0.1171875 -0.149414,0 -0.27539,0.046875 -0.375,0.140625 -0.102539,0.087891 -0.18457,0.2226563 -0.246093,0.4101563 -0.05566,0.1816406 -0.08203,0.35156252 -0.08203,0.51562502 0,0.18164063 0.03809,0.31640625 0.117188,0.41015625 0.07617,0.0878906 0.169922,0.12890625 0.28125,0.12890625 0.117187,0 0.225586,-0.0410156 0.328125,-0.12890625 0.108398,-0.09375 0.19043,-0.22558593 0.246094,-0.3984375 z m 1.977539,0.4921875 c -0.125977,0.11132813 -0.246094,0.1875 -0.363281,0.234375 -0.111329,0.046875 -0.231446,0.0703125 -0.363282,0.0703125 -0.1875,0 -0.339843,-0.05273437 -0.457031,-0.1640625 -0.117187,-0.1171875 -0.175781,-0.26074218 -0.175781,-0.43359375 0,-0.1171875 0.02344,-0.21679687 0.07031,-0.3046875 0.05274,-0.09375 0.123047,-0.16699217 0.210938,-0.22265627 0.09375,-0.052734 0.202148,-0.09375 0.328125,-0.1171875 0.07617,-0.014648 0.225586,-0.026367 0.445312,-0.035156 0.225586,-0.00586 0.386719,-0.029297 0.480469,-0.070312 0.0293,-0.09375 0.04687,-0.1699219 0.04687,-0.234375 0,-0.084961 -0.03223,-0.1523438 -0.09375,-0.1992188 -0.0791,-0.061523 -0.199219,-0.09375 -0.363281,-0.09375 -0.149414,0 -0.269531,0.035156 -0.363281,0.1054688 -0.09375,0.064453 -0.161133,0.1523437 -0.199219,0.2695312 l -0.363281,-0.035156 c 0.07617,-0.2021485 0.193359,-0.3574219 0.351562,-0.46875 0.155273,-0.1083985 0.354492,-0.1640625 0.597656,-0.1640625 0.257813,0 0.459961,0.064453 0.609375,0.1875 0.108399,0.087891 0.164063,0.2050781 0.164063,0.3515625 0,0.1113281 -0.01758,0.2402343 -0.04687,0.3867187 l -0.105469,0.51562502 c -0.04102,0.1640625 -0.05859,0.29882813 -0.05859,0.3984375 0,0.0644531 0.01465,0.15820313 0.04687,0.28125 h -0.363281 c -0.01758,-0.0703125 -0.0293,-0.15527343 -0.03516,-0.2578125 z m 0.128906,-0.79687502 c -0.05566,0.023437 -0.111328,0.043945 -0.164062,0.0585938 -0.05567,0.008789 -0.149415,0.0175781 -0.28125,0.0234375 -0.205079,0.0175781 -0.348633,0.0410156 -0.433594,0.0703125 -0.08789,0.0322266 -0.152344,0.0791016 -0.199219,0.140625 -0.04102,0.0556641 -0.05859,0.12304688 -0.05859,0.19921875 0,0.09375 0.0293,0.17578125 0.09375,0.24609375 0.07031,0.0644531 0.169922,0.09375 0.304688,0.09375 0.117187,0 0.225586,-0.0292969 0.328125,-0.09375 0.108398,-0.0615234 0.193359,-0.14648437 0.257812,-0.2578125 0.06152,-0.10839843 0.111328,-0.26953125 0.152344,-0.4804688 z m 1.520508,0.77343752 -0.05859,0.28125 c -0.08789,0.0234375 -0.169922,0.03515625 -0.246094,0.03515625 -0.140625,0 -0.254882,-0.03515625 -0.339843,-0.10546875 -0.06445,-0.046875 -0.09375,-0.1171875 -0.09375,-0.2109375 0,-0.046875 0.01465,-0.15234375 0.04687,-0.31640625 l 0.257812,-1.20703127 h -0.28125 l 0.05859,-0.2695312 h 0.28125 l 0.105469,-0.5039063 0.398437,-0.2460937 -0.152344,0.75 h 0.351563 l -0.05859,0.2695312 h -0.351562 l -0.234375,1.14843752 c -0.03223,0.14941407 -0.04687,0.24023438 -0.04687,0.26953125 0,0.0410156 0.01172,0.0703125 0.03516,0.09375 0.02344,0.0234375 0.06152,0.0351563 0.117187,0.0351563 0.07617,0 0.146485,-0.005859 0.210938,-0.0234375 z m 0.782226,-2.17968752 0.08203,-0.3984375 h 0.351562 l -0.08203,0.3984375 z m -0.515625,2.46093752 0.433594,-2.07421872 h 0.351563 l -0.433594,2.07421872 z m 0.972657,-0.78515625 c 0,-0.40429687 0.117187,-0.74121097 0.351562,-1.00781247 0.19336,-0.2167969 0.451172,-0.328125 0.773438,-0.328125 0.249023,0 0.448242,0.079101 0.597656,0.234375 0.155273,0.1582031 0.234375,0.3691406 0.234375,0.6328125 0,0.243164 -0.04687,0.46582029 -0.140625,0.66796872 -0.09375,0.20507813 -0.231445,0.36035157 -0.410156,0.46875 -0.181641,0.11132813 -0.369141,0.1640625 -0.5625,0.1640625 -0.164063,0 -0.313477,-0.03515625 -0.445313,-0.10546875 -0.134765,-0.0703125 -0.234375,-0.16699218 -0.304687,-0.29296875 -0.06445,-0.12304687 -0.09375,-0.26953125 -0.09375,-0.43359375 z m 0.351562,-0.0351563 c 0,0.19628907 0.04687,0.34570313 0.140625,0.4453125 0.09375,0.10253907 0.210938,0.15234375 0.351563,0.15234375 0.07617,0 0.152343,-0.0146484 0.222656,-0.046875 0.07617,-0.0292969 0.146484,-0.0761719 0.210937,-0.140625 0.06152,-0.0615234 0.117188,-0.13183593 0.164063,-0.2109375 0.04687,-0.0849609 0.08203,-0.16992187 0.105469,-0.2578125 0.03809,-0.13183602 0.05859,-0.25781252 0.05859,-0.37500002 0,-0.1875 -0.04687,-0.3310547 -0.140625,-0.4335938 -0.09375,-0.1083984 -0.210937,-0.1640625 -0.351562,-0.1640625 -0.111328,0 -0.210938,0.029297 -0.304688,0.082031 -0.09375,0.055664 -0.175781,0.1347656 -0.246093,0.234375 -0.07031,0.102539 -0.125977,0.2197265 -0.164063,0.3515625 -0.03223,0.1347656 -0.04687,0.25488284 -0.04687,0.36328127 z m 1.801758,0.8203125 0.433594,-2.07421877 h 0.328125 l -0.08203,0.3632812 c 0.140625,-0.140625 0.269532,-0.2402344 0.386719,-0.3046875 0.123047,-0.070312 0.249024,-0.1054687 0.375,-0.1054687 0.169922,0 0.304688,0.046875 0.398438,0.1406251 0.09375,0.087891 0.140625,0.2080078 0.140625,0.3632812 0,0.079102 -0.01758,0.1992188 -0.04687,0.3632813 l -0.269532,1.25390617 h -0.351562 l 0.28125,-1.31250007 c 0.02344,-0.1230469 0.03516,-0.2167969 0.03516,-0.28125 0,-0.070312 -0.02344,-0.1230469 -0.07031,-0.1640625 -0.04687,-0.046875 -0.117188,-0.070312 -0.210938,-0.070312 -0.18164,0 -0.339844,0.067383 -0.480469,0.1992188 -0.140625,0.1259765 -0.243164,0.3486328 -0.304687,0.66796877 l -0.210938,0.9609375 z m 2.979492,0 1.628906,-2.85937507 h 0.445313 l 0.46875,2.85937507 h -0.363281 l -0.140625,-0.8203125 h -1.160157 l -0.457031,0.8203125 z m 1.042969,-1.11328117 h 0.949219 l -0.117188,-0.7265625 c -0.04101,-0.2812501 -0.06445,-0.5156251 -0.07031,-0.7031251 -0.07031,0.1640625 -0.169922,0.3574218 -0.292969,0.5742187 z m 3.266601,0.36328117 0.363282,0.0351563 c -0.09375,0.2578125 -0.222657,0.45117188 -0.386719,0.57421875 -0.164063,0.12597657 -0.348633,0.1875 -0.550781,0.1875 -0.228516,0 -0.410157,-0.0703125 -0.550782,-0.2109375 -0.140625,-0.14648437 -0.210937,-0.35449218 -0.210937,-0.62109375 0,-0.22558597 0.04102,-0.44824217 0.128906,-0.66796877 0.09375,-0.2167969 0.222656,-0.3808594 0.386719,-0.4921875 0.169922,-0.1171875 0.363281,-0.1757812 0.574219,-0.1757812 0.225586,0 0.401367,0.064453 0.527343,0.1875 0.131836,0.1259765 0.199219,0.2929687 0.199219,0.5039062 l -0.339844,0.023437 c -0.0088,-0.1318359 -0.05273,-0.234375 -0.128906,-0.3046875 -0.07031,-0.076172 -0.164062,-0.1171875 -0.28125,-0.1171875 -0.149414,0 -0.27539,0.046875 -0.375,0.140625 -0.102539,0.087891 -0.18457,0.2226563 -0.246094,0.4101563 -0.05566,0.1816406 -0.08203,0.35156247 -0.08203,0.51562497 0,0.18164063 0.03809,0.31640625 0.117188,0.41015625 0.07617,0.0878906 0.169922,0.12890625 0.28125,0.12890625 0.117187,0 0.225586,-0.0410156 0.328125,-0.12890625 0.108398,-0.09375 0.190429,-0.22558593 0.246093,-0.3984375 z m 1.403321,0.46875 -0.05859,0.28125 c -0.08789,0.0234375 -0.169922,0.03515625 -0.246094,0.03515625 -0.140625,0 -0.254883,-0.03515625 -0.339843,-0.10546875 -0.06445,-0.046875 -0.09375,-0.1171875 -0.09375,-0.2109375 0,-0.046875 0.01465,-0.15234375 0.04687,-0.31640625 L 29.7246,-1.8057094 h -0.28125 l 0.05859,-0.2695312 h 0.28125 l 0.105469,-0.5039063 0.398437,-0.2460937 -0.152344,0.75 h 0.351563 l -0.05859,0.2695312 h -0.351562 l -0.234375,1.14843752 c -0.03223,0.14941407 -0.04687,0.24023438 -0.04687,0.26953125 0,0.0410156 0.01172,0.0703125 0.03516,0.09375 0.02344,0.0234375 0.06152,0.0351563 0.117187,0.0351563 0.07617,0 0.146485,-0.005859 0.210938,-0.0234375 z m 2.223633,0.28125 0.457031,-2.15625007 c -0.196289,0.1494141 -0.47461,0.2695313 -0.832031,0.3632813 l 0.07031,-0.3164063 c 0.178711,-0.070312 0.351563,-0.1582031 0.515625,-0.2695312 0.169922,-0.1171875 0.298828,-0.2167969 0.386719,-0.3046875 0.05273,-0.052734 0.105469,-0.1171875 0.152344,-0.1875 h 0.210937 l -0.609375,2.87109377 z m 1.532226,-0.65625 0.328125,-0.0351563 c 0.02344,0.1640625 0.07031,0.28125 0.140625,0.3515625 0.07031,0.0644531 0.152344,0.09375 0.246094,0.09375 0.131836,0 0.257812,-0.0585937 0.375,-0.17578125 0.169922,-0.16992187 0.295898,-0.41601562 0.375,-0.73828122 -0.117188,0.087891 -0.222656,0.149414 -0.316406,0.18749997 -0.08789,0.0410156 -0.181641,0.0585938 -0.28125,0.0585938 -0.172852,0 -0.328125,-0.0585938 -0.46875,-0.17578127 -0.181641,-0.1552735 -0.269532,-0.375 -0.269532,-0.65625 0,-0.319336 0.105469,-0.5976563 0.316407,-0.8320313 0.178711,-0.1933594 0.401367,-0.2929687 0.667968,-0.2929687 0.234375,0 0.427735,0.09082 0.585938,0.2695312 0.155273,0.1728516 0.234375,0.4189453 0.234375,0.7382814 0,0.3046875 -0.05273,0.609375 -0.152344,0.91406242 -0.125976,0.36035157 -0.292969,0.62695313 -0.503906,0.796875 -0.172852,0.13476563 -0.369141,0.19921875 -0.585938,0.19921875 -0.196289,0 -0.357421,-0.05859375 -0.480468,-0.17578125 -0.125977,-0.12304687 -0.196289,-0.29882812 -0.210938,-0.52734375 z m 0.46875,-1.13671867 c 0,0.1816405 0.04687,0.3251953 0.140625,0.4335937 0.09961,0.1113281 0.213867,0.1640625 0.339844,0.1640625 0.09961,0 0.199219,-0.029297 0.292969,-0.09375 0.09961,-0.070312 0.18164,-0.1699219 0.246093,-0.3046875 0.07031,-0.1318359 0.105469,-0.2695312 0.105469,-0.4101563 0,-0.1083985 -0.02344,-0.2109375 -0.07031,-0.3046875 -0.04102,-0.09375 -0.102539,-0.1640625 -0.1875,-0.2109375 -0.0791,-0.046875 -0.158203,-0.070312 -0.234375,-0.070312 -0.0791,0 -0.158203,0.023437 -0.234375,0.070312 -0.07031,0.041016 -0.140625,0.099609 -0.210938,0.1757812 -0.06445,0.079102 -0.111328,0.1728516 -0.140625,0.28125 -0.03223,0.1025391 -0.04687,0.1933594 -0.04687,0.2695313 z m 1.754883,1.13671867 0.328125,-0.0351563 c 0.02344,0.1640625 0.07031,0.28125 0.140625,0.3515625 0.07031,0.0644531 0.152344,0.09375 0.246094,0.09375 0.131836,0 0.257812,-0.0585937 0.375,-0.17578125 0.169922,-0.16992187 0.295898,-0.41601562 0.375,-0.73828122 -0.117188,0.087891 -0.222657,0.149414 -0.316407,0.18749997 -0.08789,0.0410156 -0.18164,0.0585938 -0.28125,0.0585938 -0.172851,0 -0.328125,-0.0585938 -0.46875,-0.17578127 -0.18164,-0.1552735 -0.269531,-0.375 -0.269531,-0.65625 0,-0.319336 0.105469,-0.5976563 0.316406,-0.8320313 0.178711,-0.1933594 0.401368,-0.2929687 0.667969,-0.2929687 0.234375,0 0.427735,0.09082 0.585938,0.2695312 0.155273,0.1728516 0.234375,0.4189453 0.234375,0.7382814 0,0.3046875 -0.05273,0.609375 -0.152344,0.91406242 -0.125977,0.36035157 -0.292969,0.62695313 -0.503906,0.796875 -0.172852,0.13476563 -0.369141,0.19921875 -0.585938,0.19921875 -0.196289,0 -0.357422,-0.05859375 -0.480469,-0.17578125 -0.125976,-0.12304687 -0.196289,-0.29882812 -0.210937,-0.52734375 z m 0.46875,-1.13671867 c 0,0.1816405 0.04687,0.3251953 0.140625,0.4335937 0.09961,0.1113281 0.213867,0.1640625 0.339844,0.1640625 0.09961,0 0.199218,-0.029297 0.292968,-0.09375 0.09961,-0.070312 0.181641,-0.1699219 0.246094,-0.3046875 0.07031,-0.1318359 0.105469,-0.2695312 0.105469,-0.4101563 0,-0.1083985 -0.02344,-0.2109375 -0.07031,-0.3046875 -0.04102,-0.09375 -0.102539,-0.1640625 -0.1875,-0.2109375 -0.0791,-0.046875 -0.158203,-0.070312 -0.234375,-0.070312 -0.0791,0 -0.158203,0.023437 -0.234375,0.070312 -0.07031,0.041016 -0.140625,0.099609 -0.210937,0.1757812 -0.06445,0.079102 -0.111328,0.1728516 -0.140625,0.28125 -0.03223,0.1025391 -0.04687,0.1933594 -0.04687,0.2695313 z m 1.708008,1.04296867 0.339844,-0.046875 c 0.02344,0.20507813 0.07617,0.34863282 0.164062,0.43359375 0.09375,0.0878906 0.213867,0.12890625 0.363281,0.12890625 0.169922,0 0.319336,-0.0615234 0.445313,-0.1875 0.123047,-0.12304687 0.1875,-0.26367187 0.1875,-0.421875 0,-0.140625 -0.04687,-0.25781257 -0.140625,-0.35156257 -0.09375,-0.09375 -0.219727,-0.140625 -0.375,-0.140625 -0.02344,0 -0.06445,0.00586 -0.117188,0.011719 l 0.05859,-0.2929688 c 0.0293,0 0.06152,0 0.09375,0 0.202148,0 0.357422,-0.046875 0.46875,-0.140625 0.108398,-0.099609 0.164063,-0.2226561 0.164063,-0.3632812 0,-0.1318359 -0.04687,-0.2402343 -0.140625,-0.328125 -0.08789,-0.09375 -0.19336,-0.140625 -0.316407,-0.140625 -0.125976,0 -0.240234,0.046875 -0.339843,0.140625 -0.10254,0.09375 -0.169922,0.2226562 -0.199219,0.3867187 l -0.351563,-0.070312 c 0.06152,-0.234375 0.169922,-0.4130859 0.328125,-0.5390625 0.164063,-0.1318359 0.357422,-0.1992186 0.585938,-0.1992186 0.234375,0 0.421875,0.070312 0.5625,0.2109375 0.146484,0.140625 0.222656,0.3164061 0.222656,0.5273436 0,0.1494142 -0.04102,0.2812501 -0.117187,0.3984376 -0.0791,0.1113281 -0.19629,0.1992188 -0.351563,0.2695313 0.108398,0.070312 0.19043,0.1523437 0.246094,0.2460937 0.05273,0.09375 0.08203,0.1992188 0.08203,0.31640622 0,0.2578125 -0.09961,0.48046875 -0.292969,0.66796875 -0.1875,0.1875 -0.416015,0.28125 -0.679687,0.28125 -0.257813,0 -0.46875,-0.0703125 -0.632813,-0.2109375 -0.158203,-0.14648437 -0.243164,-0.34277343 -0.257812,-0.5859375 z m 0,0"
         style="fill:#000000;fill-opacity:1;fill-rule:nonzero;stroke:none"
         aria-label="Classifcation Act 1993"
         transform="matrix(0.35277776,0,0,0.35277776,84.704732,159.98712)"
         clip-path="url(#clipPath852)" />
      <path
         id="path853"
         d="M 0.50344688,-0.00117031 V -5.7316391 H 2.5893844 c 0.4277344,0 0.7441406,0.055664 0.9492187,0.1640625 0.2109375,0.1025391 0.3808594,0.2783203 0.515625,0.5273438 0.140625,0.2519531 0.2109375,0.5390625 0.2109375,0.8671875 0,0.4394531 -0.1142578,0.7910156 -0.3398437,1.0546875 -0.2285156,0.2666015 -0.5566406,0.4394531 -0.984375,0.515625 0.1699219,0.102539 0.3046875,0.2080078 0.3984375,0.3164062 0.1787109,0.2197266 0.3398437,0.4628907 0.4804687,0.7265625 l 0.8320313,1.55859379 H 3.8667281 L 3.2339156,-1.1964828 c -0.243164,-0.459961 -0.4277343,-0.7734375 -0.5507812,-0.9375 -0.1171875,-0.1640625 -0.234375,-0.272461 -0.3515625,-0.328125 -0.1171875,-0.052734 -0.28125,-0.082031 -0.4921875,-0.082031 H 1.1245406 v 2.54296879 z M 1.1245406,-3.2003891 h 1.3359375 c 0.2871094,0 0.506836,-0.035156 0.65625,-0.1054687 0.1552735,-0.070312 0.2753907,-0.178711 0.3632813,-0.328125 0.09375,-0.1552735 0.140625,-0.3339844 0.140625,-0.5390625 0,-0.2871094 -0.087891,-0.515625 -0.2578125,-0.6796875 -0.1728516,-0.1640625 -0.421875,-0.2460938 -0.75,-0.2460938 H 1.1245406 Z m 6.366211,1.8632813 0.5859375,0.09375 c -0.09375,0.43945311 -0.2753907,0.7705078 -0.5390625,0.99609374 -0.2578125,0.22851562 -0.5800782,0.33984375 -0.9609375,0.33984375 -0.4775391,0 -0.8671875,-0.18164063 -1.171875,-0.55078125 C 5.1059859,-0.8244125 4.9595016,-1.3517563 4.9595016,-2.0402328 c 0,-0.7177735 0.1464843,-1.265625 0.4453125,-1.640625 0.3046875,-0.375 0.6855468,-0.5625 1.1484375,-0.5625 0.4453125,0 0.8115234,0.1875 1.1015625,0.5625 0.2958984,0.3691406 0.4453125,0.899414 0.4453125,1.59375 v 0.1875 H 5.5571578 c 0.023437,0.46875 0.1289063,0.8261719 0.3164063,1.06640624 0.1933593,0.234375 0.4335937,0.3515625 0.7148437,0.3515625 0.4277344,0 0.7294922,-0.28417969 0.9023438,-0.85546874 z M 5.5923141,-2.4738266 H 7.4907516 C 7.4673141,-2.8312484 7.3882125,-3.1007797 7.2563766,-3.2824203 7.0747359,-3.5402328 6.8403609,-3.6691391 6.5532516,-3.6691391 c -0.2578125,0 -0.4804688,0.1113282 -0.6679688,0.328125 -0.1816406,0.2109375 -0.2783203,0.5009766 -0.2929687,0.8671875 z m 2.9912109,1.2304688 0.5742188,-0.1054688 c 0.029297,0.2900391 0.1201171,0.50976566 0.2695312,0.65625004 0.1552734,0.140625 0.3574219,0.2109375 0.609375,0.2109375 0.249023,0 0.439453,-0.0615234 0.574219,-0.1875 0.140625,-0.12304688 0.210937,-0.28125 0.210937,-0.46875004 0,-0.1640625 -0.05859,-0.2929687 -0.175781,-0.3867187 -0.0791,-0.061523 -0.275391,-0.140625 -0.585937,-0.234375 C 9.614775,-1.8996078 9.3130172,-2.0167953 9.1577438,-2.1105453 9.0083297,-2.2042953 8.8911422,-2.3332016 8.8061813,-2.4972641 8.7270797,-2.6613266 8.6889938,-2.8429672 8.6889938,-3.0480453 c 0,-0.3515625 0.1113281,-0.6357422 0.3398437,-0.8554688 0.2255859,-0.2255859 0.5390625,-0.3398437 0.9375,-0.3398437 0.2490235,0 0.4687505,0.046875 0.6562505,0.140625 0.193359,0.087891 0.342773,0.2080078 0.445312,0.3632812 0.09961,0.1582032 0.169922,0.375 0.210938,0.65625 l -0.5625,0.09375 c -0.04687,-0.4511718 -0.292969,-0.6796875 -0.7382817,-0.6796875 -0.2519532,0 -0.4394532,0.052734 -0.5625,0.1523438 -0.1171875,0.102539 -0.1757813,0.2314453 -0.1757813,0.3867187 0,0.1582032 0.058594,0.2783203 0.1757813,0.3632813 0.070312,0.055664 0.2753906,0.1376953 0.6210937,0.2460937 0.474609,0.1582032 0.785156,0.28125 0.925781,0.375 0.140625,0.087891 0.249024,0.2080078 0.328125,0.3632813 0.07617,0.1582031 0.117188,0.3398437 0.117188,0.5507812 0,0.39843754 -0.125977,0.72070316 -0.375,0.96093754 -0.251953,0.24316406 -0.594727,0.36328125 -1.03125,0.36328125 -0.8144534,0 -1.2861331,-0.4453125 -1.417969,-1.33593749 z m 4.790039,0.60937499 0.07031,0.62109375 c -0.158204,0.046875 -0.298829,0.0703125 -0.421875,0.0703125 -0.205079,0 -0.369141,-0.04101563 -0.492188,-0.1171875 -0.117187,-0.08496094 -0.199219,-0.19335938 -0.246094,-0.328125 -0.04687,-0.140625 -0.07031,-0.41601563 -0.07031,-0.83203124 v -2.3789063 h -0.421875 v -0.5507812 h 0.421875 v -1.03125 l 0.574219,-0.421875 v 1.453125 h 0.585937 v 0.5507812 h -0.585937 v 2.4257813 c 0,0.21972655 0.01465,0.36328124 0.04687,0.43359374 0.05273,0.09375 0.146484,0.140625 0.28125,0.140625 0.06152,0 0.146484,-0.0117188 0.257812,-0.0351563 z m 0.536133,0.6328125 V -4.1496078 h 0.515625 v 0.6328125 c 0.131836,-0.2958985 0.251953,-0.4921875 0.363281,-0.5859375 0.117188,-0.09375 0.240235,-0.140625 0.375,-0.140625 0.19336,0 0.392578,0.076172 0.597656,0.2226562 l -0.199218,0.65625 c -0.140625,-0.099609 -0.28125,-0.1523437 -0.421875,-0.1523437 -0.117188,0 -0.228516,0.043945 -0.328125,0.1289062 -0.102539,0.087891 -0.175782,0.2080078 -0.222657,0.3632813 -0.07031,0.2666015 -0.105468,0.5507812 -0.105468,0.8554687 v 2.16796879 z m 2.185547,-4.92187499 v -0.8085938 h 0.574219 v 0.8085938 z m 0,4.92187499 V -4.1496078 h 0.574219 v 4.14843749 z m 3.682617,-1.52343749 0.574219,0.09375 c -0.07031,0.49218749 -0.240235,0.87304686 -0.503907,1.13671874 -0.257812,0.2578125 -0.571289,0.38671875 -0.9375,0.38671875 -0.445312,0 -0.814453,-0.18164063 -1.101562,-0.55078125 -0.28125,-0.36621094 -0.421875,-0.90527344 -0.421875,-1.61718754 0,-0.7265625 0.143555,-1.2685547 0.433594,-1.6289062 0.287109,-0.3574219 0.659179,-0.5390625 1.113281,-0.5390625 0.351562,0 0.647461,0.1113281 0.890625,0.328125 0.240234,0.2197265 0.398437,0.5478515 0.46875,0.984375 l -0.5625,0.1054687 c -0.05566,-0.28125 -0.152344,-0.4921875 -0.292969,-0.6328125 -0.134765,-0.140625 -0.292969,-0.2109375 -0.480469,-0.2109375 -0.28125,0 -0.515625,0.1289063 -0.703125,0.3867188 -0.1875,0.2519531 -0.28125,0.6503906 -0.28125,1.1953125 0,0.5625 0.08789,0.9726562 0.269532,1.23046874 0.178711,0.25195312 0.404297,0.375 0.679687,0.375 0.216797,0 0.404297,-0.0820313 0.5625,-0.24609375 0.155274,-0.16992188 0.251953,-0.43652349 0.292969,-0.79687499 z m 2.34082,0.89062499 0.07031,0.62109375 c -0.158203,0.046875 -0.298828,0.0703125 -0.421875,0.0703125 -0.205078,0 -0.369141,-0.04101563 -0.492188,-0.1171875 -0.117187,-0.08496094 -0.199218,-0.19335938 -0.246093,-0.328125 -0.04687,-0.140625 -0.07031,-0.41601563 -0.07031,-0.83203124 V -3.5988266 H 20.53665 v -0.5507812 h 0.421875 v -1.03125 l 0.574219,-0.421875 v 1.453125 h 0.585937 v 0.5507812 h -0.585937 v 2.4257813 c 0,0.21972655 0.01465,0.36328124 0.04687,0.43359374 0.05273,0.09375 0.146484,0.140625 0.28125,0.140625 0.06152,0 0.146484,-0.0117188 0.257812,-0.0351563 z m 2.868164,-0.70312499 0.585938,0.09375 c -0.09375,0.43945311 -0.275391,0.7705078 -0.539063,0.99609374 -0.257812,0.22851562 -0.580078,0.33984375 -0.960937,0.33984375 -0.477539,0 -0.867188,-0.18164063 -1.171875,-0.55078125 -0.298828,-0.36621094 -0.445313,-0.89355474 -0.445313,-1.58203124 0,-0.7177735 0.146485,-1.265625 0.445313,-1.640625 0.304687,-0.375 0.685547,-0.5625 1.148437,-0.5625 0.445313,0 0.811524,0.1875 1.101563,0.5625 0.295898,0.3691406 0.445312,0.899414 0.445312,1.59375 v 0.1875 h -2.542968 c 0.02344,0.46875 0.128906,0.8261719 0.316406,1.06640624 0.193359,0.234375 0.433594,0.3515625 0.714844,0.3515625 0.427734,0 0.729492,-0.28417969 0.902343,-0.85546874 z m -1.898437,-1.1367188 h 1.898437 c -0.02344,-0.3574218 -0.102539,-0.6269531 -0.234375,-0.8085937 -0.18164,-0.2578125 -0.416015,-0.3867188 -0.703125,-0.3867188 -0.257812,0 -0.480468,0.1113282 -0.667968,0.328125 -0.181641,0.2109375 -0.278321,0.5009766 -0.292969,0.8671875 z m 5.416992,2.47265629 v -0.52734375 c -0.102539,0.20507812 -0.234375,0.36035156 -0.398437,0.46875 -0.164063,0.09960937 -0.339844,0.15234375 -0.527344,0.15234375 -0.407227,0 -0.758789,-0.1875 -1.054688,-0.5625 -0.290039,-0.38085938 -0.433593,-0.91699219 -0.433593,-1.60546879 0,-0.46875 0.06445,-0.8671875 0.199218,-1.1953125 0.131836,-0.328125 0.304688,-0.5683593 0.515625,-0.7265625 0.216797,-0.1640625 0.459961,-0.2460937 0.726563,-0.2460937 0.193359,0 0.36914,0.052734 0.527344,0.1523437 0.164062,0.1025391 0.298828,0.2431641 0.410156,0.421875 v -2.0625 h 0.574219 v 5.73046879 z M 26.688994,-2.0753891 c 0,0.5390625 0.08789,0.9433594 0.269531,1.20703129 0.1875,0.2578125 0.404297,0.38671875 0.65625,0.38671875 0.240234,0 0.451172,-0.12304688 0.632813,-0.375 0.17871,-0.24902344 0.269531,-0.62695314 0.269531,-1.13671874 0,-0.5771485 -0.09082,-0.9990235 -0.269531,-1.265625 -0.181641,-0.272461 -0.407227,-0.4101563 -0.679688,-0.4101563 -0.243164,0 -0.451172,0.1289063 -0.621094,0.3867188 -0.172851,0.2578125 -0.257812,0.6621094 -0.257812,1.2070312 z m 6.375,1.44140629 0.07031,0.62109375 c -0.158203,0.046875 -0.298828,0.0703125 -0.421875,0.0703125 -0.205078,0 -0.36914,-0.04101563 -0.492187,-0.1171875 -0.117188,-0.08496094 -0.199219,-0.19335938 -0.246094,-0.328125 -0.04687,-0.140625 -0.07031,-0.41601563 -0.07031,-0.83203124 v -2.3789063 h -0.421875 v -0.5507812 h 0.421875 v -1.03125 l 0.574218,-0.421875 v 1.453125 h 0.585938 v 0.5507812 h -0.585938 v 2.4257813 c 0,0.21972655 0.01465,0.36328124 0.04687,0.43359374 0.05273,0.09375 0.146485,0.140625 0.28125,0.140625 0.06152,0 0.146485,-0.0117188 0.257813,-0.0351563 z m 0.322265,-1.44140629 c 0,-0.7177734 0.146485,-1.2568359 0.445313,-1.6171875 0.304687,-0.3662109 0.685547,-0.5507812 1.148437,-0.5507812 0.451172,0 0.832032,0.1845703 1.136719,0.5507812 0.304688,0.3603516 0.457031,0.8847657 0.457031,1.5703125 0,0.75 -0.152343,1.30957035 -0.457031,1.67578129 -0.298828,0.36035156 -0.676758,0.5390625 -1.136719,0.5390625 -0.46289,0 -0.84375,-0.18164063 -1.148437,-0.55078125 C 33.532744,-0.8244125 33.386259,-1.363475 33.386259,-2.0753891 Z m 0.585938,0 c 0,0.5390625 0.09668,0.9433594 0.292969,1.20703129 0.193359,0.2578125 0.436523,0.38671875 0.726562,0.38671875 0.272461,0 0.503906,-0.13183594 0.691406,-0.3984375 0.19336,-0.26367184 0.292969,-0.66210934 0.292969,-1.19531254 0,-0.5302734 -0.09961,-0.9257812 -0.292969,-1.1835937 -0.196289,-0.2636719 -0.439453,-0.3984375 -0.726562,-0.3984375 -0.275391,0 -0.509766,0.1347656 -0.703125,0.3984375 -0.1875,0.2578125 -0.28125,0.6533203 -0.28125,1.1835937 z m 7.3125,1.55859379 c -0.1875,0.20507812 -0.386719,0.35742187 -0.597656,0.45703125 -0.210938,0.09960937 -0.427735,0.15234375 -0.644532,0.15234375 -0.360351,0 -0.644531,-0.10546875 -0.855468,-0.31640625 -0.210938,-0.21679688 -0.316407,-0.50683594 -0.316407,-0.86718754 0,-0.2402343 0.0498,-0.4511718 0.152344,-0.6328125 0.09961,-0.1875 0.237305,-0.3310547 0.410156,-0.4335937 0.169922,-0.1083985 0.427735,-0.1875 0.773438,-0.234375 0.46875,-0.070312 0.811523,-0.1523438 1.03125,-0.2460938 l 0.01172,-0.1757812 c 0,-0.28125 -0.05273,-0.4804688 -0.152344,-0.5976563 -0.149414,-0.1640625 -0.37207,-0.2460937 -0.667969,-0.2460937 -0.266601,0 -0.46582,0.055664 -0.597656,0.1640625 -0.134766,0.1113281 -0.231445,0.3164062 -0.292969,0.6210937 l -0.5625,-0.09375 c 0.07617,-0.4453125 0.237305,-0.7675781 0.480469,-0.9726562 0.249023,-0.2021485 0.603516,-0.3046875 1.066406,-0.3046875 0.351563,0 0.626953,0.067383 0.832031,0.1992187 0.202149,0.1347657 0.331055,0.3017578 0.386719,0.5039063 0.05273,0.196289 0.08203,0.4863281 0.08203,0.8671875 v 0.9375 c 0,0.65625 0.01172,1.07226561 0.03516,1.24218749 0.02344,0.1640625 0.07324,0.328125 0.152343,0.4921875 h -0.609375 c -0.05566,-0.140625 -0.09375,-0.31054688 -0.117187,-0.515625 z m -0.04687,-1.57031249 c -0.210938,0.1113281 -0.524414,0.1992187 -0.9375,0.2695312 -0.243164,0.041016 -0.416016,0.087891 -0.515625,0.140625 -0.09375,0.055664 -0.169922,0.1347657 -0.222656,0.234375 -0.04687,0.09375 -0.07031,0.2050782 -0.07031,0.328125 0,0.20507816 0.05859,0.36328129 0.175781,0.48046879 0.123047,0.1171875 0.295899,0.17578125 0.515625,0.17578125 0.202149,0 0.386719,-0.0498047 0.550782,-0.15234375 0.169922,-0.10839844 0.295898,-0.25195313 0.375,-0.43359379 0.08496,-0.1787109 0.128906,-0.4394531 0.128906,-0.7851562 z m 0,0"
         style="fill:#000000 icc-color(sRGB-IEC61966-2, 0.1, 0, 0, 0);fill-opacity:1;fill-rule:nonzero;stroke:none"
         aria-label="Restricted to a "
         transform="matrix(0.35277776,0,0,0.35277776,106.56609,141.0643)"
         clip-path="url(#clipPath854)" />
      <path
         id="path855"
         d="m 0.42141563,1.5931656 v -5.7421875 h 0.52734375 v 0.5390625 C 1.0805953,-3.8355453 1.22415,-3.9966781 1.3823531,-4.0904281 c 0.1552735,-0.099609 0.3398438,-0.1523438 0.5507813,-0.1523438 0.2636719,0 0.5039062,0.082031 0.7148437,0.2460938 0.2167969,0.1582031 0.3925782,0.3984375 0.5273438,0.7265625 0.1318359,0.3222656 0.1992187,0.7089843 0.1992187,1.1601562 0,0.703125 -0.149414,1.2480469 -0.4453125,1.62890627 C 2.6304,-0.09726406 2.2846969,0.09316562 1.8862594,0.09316562 c -0.1728516,0 -0.3369141,-0.04394531 -0.4921875,-0.12890625 -0.1582031,-0.09375 -0.2900391,-0.22558593 -0.39843752,-0.3984375 V 1.5931656 Z m 0.515625,-3.6445312 c 0,0.5390625 0.0878907,0.9375 0.26953127,1.19531247 0.1787109,0.25195313 0.3984375,0.375 0.65625,0.375 0.2402344,0 0.4570312,-0.13183593 0.6445312,-0.3984375 0.1875,-0.26367187 0.28125,-0.67089847 0.28125,-1.21874997 0,-0.5390625 -0.09082,-0.9375 -0.2695312,-1.1953125 -0.1816406,-0.2636719 -0.3984375,-0.3984375 -0.65625,-0.3984375 -0.234375,0 -0.4511719,0.140625 -0.6445313,0.421875 -0.1875,0.28125 -0.28124997,0.6884765 -0.28124997,1.21875 z m 5.34667967,1.53515622 c -0.1875,0.20507813 -0.3867187,0.35742188 -0.5976562,0.45703125 -0.2109375,0.09960938 -0.4277344,0.15234375 -0.6445313,0.15234375 -0.3603515,0 -0.6445312,-0.10546875 -0.8554687,-0.31640625 C 3.9751266,-0.4400375 3.8696578,-0.73007656 3.8696578,-1.0904281 c 0,-0.2402344 0.049805,-0.4511719 0.1523438,-0.6328125 0.099609,-0.1875 0.2373047,-0.3310547 0.4101562,-0.4335938 0.1699219,-0.1083984 0.4277344,-0.1875 0.7734375,-0.234375 0.46875,-0.070312 0.8115235,-0.1523437 1.03125,-0.2460937 l 0.011719,-0.1757813 c 0,-0.28125 -0.052734,-0.4804687 -0.1523438,-0.5976562 -0.149414,-0.1640625 -0.3720703,-0.2460938 -0.6679687,-0.2460938 -0.2666016,0 -0.4658203,0.055664 -0.5976563,0.1640625 -0.1347656,0.1113281 -0.2314453,0.3164063 -0.2929687,0.6210938 l -0.5625,-0.09375 c 0.076172,-0.4453125 0.2373047,-0.7675782 0.4804687,-0.9726563 0.2490235,-0.2021484 0.6035156,-0.3046875 1.0664063,-0.3046875 0.3515625,0 0.6269531,0.067383 0.8320312,0.1992188 0.2021485,0.1347656 0.3310547,0.3017578 0.3867188,0.5039062 0.052734,0.1962891 0.082031,0.4863281 0.082031,0.8671875 v 0.9375 c 0,0.65625 0.011719,1.07226565 0.035156,1.24218752 0.023437,0.1640625 0.073242,0.328125 0.1523437,0.492187505 H 6.4009078 C 6.3452438,-0.14120938 6.3071578,-0.31113125 6.2837203,-0.51620938 Z M 6.2368453,-2.0865219 c -0.2109375,0.1113281 -0.524414,0.1992188 -0.9375,0.2695313 -0.243164,0.041016 -0.4160156,0.087891 -0.515625,0.140625 -0.09375,0.055664 -0.1699219,0.1347656 -0.2226562,0.234375 -0.046875,0.09375 -0.070312,0.2050781 -0.070312,0.328125 0,0.2050781 0.058594,0.36328122 0.1757812,0.48046872 0.1230469,0.1171875 0.2958985,0.17578125 0.515625,0.17578125 0.2021485,0 0.3867188,-0.0498047 0.5507813,-0.15234375 0.1699218,-0.10839843 0.2958984,-0.25195312 0.375,-0.43359372 0.084961,-0.178711 0.1289062,-0.4394532 0.1289062,-0.7851563 z M 7.7192672,-5.84375e-4 V -4.1490219 h 0.515625 v 0.6328125 c 0.1318359,-0.2958984 0.2519531,-0.4921875 0.3632812,-0.5859375 0.1171875,-0.09375 0.2402344,-0.140625 0.375,-0.140625 0.1933594,0 0.3925782,0.076172 0.5976563,0.2226563 l -0.1992188,0.65625 c -0.140625,-0.099609 -0.28125,-0.1523438 -0.421875,-0.1523438 -0.1171875,0 -0.2285156,0.043945 -0.328125,0.1289063 -0.102539,0.087891 -0.1757812,0.2080078 -0.2226562,0.3632812 -0.070312,0.2666016 -0.1054688,0.5507813 -0.1054688,0.8554688 v 2.167968725 z m 3.4716798,-0.632812505 0.07031,0.62109375 c -0.158203,0.046875 -0.298828,0.0703125 -0.421875,0.0703125 -0.205078,0 -0.36914,-0.04101562 -0.492187,-0.1171875 -0.117188,-0.08496093 -0.199219,-0.19335937 -0.246094,-0.328125 -0.04687,-0.140625 -0.07031,-0.41601562 -0.07031,-0.83203127 V -3.5982406 H 9.6089156 v -0.5507813 h 0.4218754 v -1.03125 l 0.574218,-0.421875 v 1.453125 h 0.585938 v 0.5507813 h -0.585938 v 2.4257812 c 0,0.21972659 0.01465,0.36328127 0.04687,0.43359377 0.05273,0.09375 0.146485,0.140625 0.28125,0.140625 0.06152,0 0.146485,-0.0117188 0.257813,-0.0351563 z M 11.72708,-4.9224594 v -0.8085937 h 0.574218 v 0.8085937 z m 0,4.921875025 V -4.1490219 h 0.574218 v 4.148437525 z m 3.682617,-1.523437525 0.574219,0.09375 c -0.07031,0.49218752 -0.240235,0.8730469 -0.503907,1.13671877 -0.257812,0.2578125 -0.571289,0.38671875 -0.9375,0.38671875 -0.445312,0 -0.814453,-0.18164062 -1.101562,-0.55078125 -0.28125,-0.36621093 -0.421875,-0.90527347 -0.421875,-1.61718747 0,-0.7265625 0.143555,-1.2685547 0.433594,-1.6289063 0.287109,-0.3574219 0.659179,-0.5390625 1.113281,-0.5390625 0.351562,0 0.647461,0.1113281 0.890625,0.328125 0.240234,0.2197266 0.398437,0.5478516 0.46875,0.984375 l -0.5625,0.1054688 c -0.05566,-0.28125 -0.152344,-0.4921875 -0.292969,-0.6328125 -0.134765,-0.140625 -0.292969,-0.2109375 -0.480469,-0.2109375 -0.28125,0 -0.515625,0.1289062 -0.703125,0.3867187 -0.1875,0.2519531 -0.28125,0.6503906 -0.28125,1.1953125 0,0.5625 0.08789,0.9726563 0.269532,1.23046877 0.178711,0.25195313 0.404297,0.375 0.679687,0.375 0.216797,0 0.404297,-0.0820313 0.5625,-0.24609375 0.155274,-0.16992187 0.251953,-0.43652342 0.292969,-0.79687502 z m 3.27832,1.523437525 V -0.60995938 c -0.134765,0.234375 -0.290039,0.41015625 -0.46875,0.52734375 -0.18164,0.1171875 -0.383789,0.17578125 -0.609375,0.17578125 -0.266601,0 -0.498047,-0.0703125 -0.691406,-0.2109375 -0.1875,-0.14648437 -0.313477,-0.33105468 -0.375,-0.55078125 -0.06445,-0.22558593 -0.09375,-0.53027347 -0.09375,-0.91406247 v -2.5664063 h 0.574219 v 2.296875 c 0,0.4306641 0.01758,0.7207031 0.05859,0.86718752 0.04687,0.140625 0.128907,0.25488282 0.246094,0.33984375 0.117188,0.0878906 0.249024,0.12890625 0.398438,0.12890625 0.272461,0 0.498047,-0.11132812 0.679687,-0.33984375 0.146485,-0.19335937 0.222656,-0.55078127 0.222656,-1.06640627 v -2.2265625 h 0.574219 v 4.148437525 z m 1.40918,0 V -5.7310531 h 0.574219 v 5.730468725 z m 3.682617,-0.515625005 c -0.1875,0.20507813 -0.386719,0.35742188 -0.597656,0.45703125 -0.210938,0.09960938 -0.427735,0.15234375 -0.644531,0.15234375 -0.360352,0 -0.644532,-0.10546875 -0.855469,-0.31640625 -0.210938,-0.21679687 -0.316406,-0.50683593 -0.316406,-0.86718747 0,-0.2402344 0.0498,-0.4511719 0.152343,-0.6328125 0.09961,-0.1875 0.237305,-0.3310547 0.410157,-0.4335938 0.169921,-0.1083984 0.427734,-0.1875 0.773437,-0.234375 0.46875,-0.070312 0.811524,-0.1523437 1.03125,-0.2460937 l 0.01172,-0.1757813 c 0,-0.28125 -0.05274,-0.4804687 -0.152344,-0.5976562 -0.149414,-0.1640625 -0.37207,-0.2460938 -0.667969,-0.2460938 -0.266601,0 -0.46582,0.055664 -0.597656,0.1640625 -0.134766,0.1113281 -0.231445,0.3164063 -0.292969,0.6210938 l -0.5625,-0.09375 c 0.07617,-0.4453125 0.237305,-0.7675782 0.480469,-0.9726563 0.249024,-0.2021484 0.603516,-0.3046875 1.066406,-0.3046875 0.351563,0 0.626953,0.067383 0.832032,0.1992188 0.202148,0.1347656 0.331054,0.3017578 0.386718,0.5039062 0.05274,0.1962891 0.08203,0.4863281 0.08203,0.8671875 v 0.9375 c 0,0.65625 0.01172,1.07226565 0.03516,1.24218752 0.02344,0.1640625 0.07324,0.328125 0.152344,0.492187505 H 23.897002 C 23.841338,-0.14120938 23.803252,-0.31113125 23.779814,-0.51620938 Z m -0.04687,-1.57031252 c -0.210937,0.1113281 -0.524414,0.1992188 -0.9375,0.2695313 -0.243164,0.041016 -0.416016,0.087891 -0.515625,0.140625 -0.09375,0.055664 -0.169922,0.1347656 -0.222656,0.234375 -0.04687,0.09375 -0.07031,0.2050781 -0.07031,0.328125 0,0.2050781 0.05859,0.36328122 0.175782,0.48046872 0.123046,0.1171875 0.295898,0.17578125 0.515625,0.17578125 0.202148,0 0.386718,-0.0498047 0.550781,-0.15234375 0.169922,-0.10839843 0.295898,-0.25195312 0.375,-0.43359372 0.08496,-0.178711 0.128906,-0.4394532 0.128906,-0.7851563 z m 1.479492,2.085937525 V -4.1490219 h 0.515625 v 0.6328125 c 0.131836,-0.2958984 0.251953,-0.4921875 0.363282,-0.5859375 0.117187,-0.09375 0.240234,-0.140625 0.375,-0.140625 0.193359,0 0.392578,0.076172 0.597656,0.2226563 l -0.199219,0.65625 c -0.140625,-0.099609 -0.28125,-0.1523438 -0.421875,-0.1523438 -0.117187,0 -0.228516,0.043945 -0.328125,0.1289063 -0.102539,0.087891 -0.175781,0.2080078 -0.222656,0.3632812 -0.07031,0.2666016 -0.105469,0.5507813 -0.105469,0.8554688 v 2.167968725 z m 3.905274,0.339843745 0.5625,0.10546875 c 0.02344,0.21679688 0.09668,0.38085938 0.222656,0.4921875 0.131836,0.10839848 0.316406,0.16406248 0.550781,0.16406248 0.249024,0 0.448242,-0.064453 0.597656,-0.18749998 0.155274,-0.1171875 0.260743,-0.29882812 0.316407,-0.5390625 0.0293,-0.140625 0.04687,-0.4453125 0.04687,-0.9140625 -0.125977,0.18164063 -0.266602,0.31640625 -0.421875,0.41015625 C 30.834502,-0.0416 30.66458,-5.84375e-4 30.47708,-5.84375e-4 c -0.407227,0 -0.747071,-0.169921875 -1.019532,-0.515625005 -0.304687,-0.3984375 -0.457031,-0.92871092 -0.457031,-1.59375002 0,-0.4453125 0.06445,-0.8320312 0.199219,-1.1601562 0.140625,-0.3339844 0.319336,-0.5800782 0.539062,-0.7382813 0.216797,-0.1552734 0.462891,-0.234375 0.738282,-0.234375 0.202148,0 0.386718,0.052734 0.550781,0.1523438 0.164062,0.09375 0.307617,0.243164 0.433594,0.4453125 v -0.5039063 h 0.539062 v 3.58593752 c 0,0.63867188 -0.05566,1.09277344 -0.164062,1.359375 -0.102539,0.27246098 -0.275391,0.48632808 -0.515625,0.64453128 -0.234375,0.1640625 -0.515625,0.2460937 -0.84375,0.2460937 -0.445313,0 -0.785157,-0.1230469 -1.019532,-0.3632812 -0.234375,-0.234375 -0.348632,-0.56250003 -0.339843,-0.98437503 z m 0.480468,-2.48437497 c 0,0.5390625 0.08789,0.9345703 0.269532,1.18359372 0.178711,0.25195313 0.398437,0.375 0.65625,0.375 0.257812,0 0.474609,-0.12011718 0.65625,-0.36328125 0.1875,-0.24023437 0.28125,-0.63281247 0.28125,-1.17187497 0,-0.515625 -0.09375,-0.8964844 -0.28125,-1.1484375 -0.1875,-0.2578125 -0.416016,-0.3867188 -0.679688,-0.3867188 -0.243164,0 -0.454101,0.1289063 -0.632812,0.3867188 -0.181641,0.2519531 -0.269532,0.6269531 -0.269532,1.125 z m 3.272461,2.144531225 V -4.1490219 h 0.515625 v 0.6328125 c 0.131836,-0.2958984 0.251954,-0.4921875 0.363282,-0.5859375 0.117187,-0.09375 0.240234,-0.140625 0.375,-0.140625 0.193359,0 0.392578,0.076172 0.597656,0.2226563 l -0.199219,0.65625 c -0.140625,-0.099609 -0.28125,-0.1523438 -0.421875,-0.1523438 -0.117187,0 -0.228515,0.043945 -0.328125,0.1289063 -0.102539,0.087891 -0.175781,0.2080078 -0.222656,0.3632812 -0.07031,0.2666016 -0.105469,0.5507813 -0.105469,0.8554688 v 2.167968725 z m 1.97168,-2.074218725 c 0,-0.7177735 0.146484,-1.256836 0.445313,-1.6171875 0.304687,-0.366211 0.685546,-0.5507813 1.148437,-0.5507813 0.451172,0 0.832031,0.1845703 1.136719,0.5507813 0.304687,0.3603515 0.457031,0.8847656 0.457031,1.5703125 0,0.75 -0.152344,1.30957029 -0.457031,1.67578122 -0.298828,0.36035157 -0.676758,0.5390625 -1.136719,0.5390625 -0.462891,0 -0.84375,-0.18164062 -1.148437,-0.55078125 -0.298829,-0.36621093 -0.445313,-0.90527347 -0.445313,-1.61718747 z m 0.585938,0 c 0,0.5390625 0.09668,0.9433593 0.292968,1.20703122 0.19336,0.2578125 0.436524,0.38671875 0.726563,0.38671875 0.272461,0 0.503906,-0.13183593 0.691406,-0.3984375 0.193359,-0.26367187 0.292969,-0.66210937 0.292969,-1.19531247 0,-0.5302735 -0.09961,-0.9257813 -0.292969,-1.1835938 -0.196289,-0.2636719 -0.439453,-0.3984375 -0.726562,-0.3984375 -0.275391,0 -0.509766,0.1347656 -0.703125,0.3984375 -0.1875,0.2578125 -0.28125,0.6533203 -0.28125,1.1835938 z M 40.92728,-5.84375e-4 V -0.60995938 c -0.134766,0.234375 -0.290039,0.41015625 -0.46875,0.52734375 -0.181641,0.1171875 -0.383789,0.17578125 -0.609375,0.17578125 -0.266602,0 -0.498047,-0.0703125 -0.691406,-0.2109375 -0.1875,-0.14648437 -0.313477,-0.33105468 -0.375,-0.55078125 -0.06445,-0.22558593 -0.09375,-0.53027347 -0.09375,-0.91406247 v -2.5664063 h 0.574219 v 2.296875 c 0,0.4306641 0.01758,0.7207031 0.05859,0.86718752 0.04687,0.140625 0.128907,0.25488282 0.246094,0.33984375 0.117188,0.0878906 0.249023,0.12890625 0.398438,0.12890625 0.27246,0 0.498046,-0.11132812 0.679687,-0.33984375 0.146484,-0.19335937 0.222656,-0.55078127 0.222656,-1.06640627 V -4.1490219 H 41.4429 V -5.84375e-4 Z M 42.351103,1.5931656 v -5.7421875 h 0.527344 v 0.5390625 c 0.131836,-0.2255859 0.275391,-0.3867187 0.433594,-0.4804687 0.155273,-0.099609 0.339843,-0.1523438 0.550781,-0.1523438 0.263672,0 0.503906,0.082031 0.714844,0.2460938 0.216797,0.1582031 0.392578,0.3984375 0.527343,0.7265625 0.131836,0.3222656 0.199219,0.7089843 0.199219,1.1601562 0,0.703125 -0.149414,1.2480469 -0.445312,1.62890627 -0.298828,0.38378907 -0.644532,0.57421875 -1.042969,0.57421875 -0.172852,0 -0.336914,-0.04394531 -0.492188,-0.12890625 -0.158203,-0.09375 -0.290039,-0.22558593 -0.398437,-0.3984375 V 1.5931656 Z m 0.515625,-3.6445312 c 0,0.5390625 0.08789,0.9375 0.269531,1.19531247 0.178711,0.25195313 0.398438,0.375 0.65625,0.375 0.240235,0 0.457032,-0.13183593 0.644532,-0.3984375 0.1875,-0.26367187 0.28125,-0.67089847 0.28125,-1.21874997 0,-0.5390625 -0.09082,-0.9375 -0.269532,-1.1953125 -0.18164,-0.2636719 -0.398437,-0.3984375 -0.65625,-0.3984375 -0.234375,0 -0.451171,0.140625 -0.644531,0.421875 -0.1875,0.28125 -0.28125,0.6884765 -0.28125,1.21875 z m 4.743164,-0.023437 c 0,-0.7177735 0.146485,-1.256836 0.445313,-1.6171875 0.304687,-0.366211 0.685547,-0.5507813 1.148437,-0.5507813 0.451172,0 0.832031,0.1845703 1.136719,0.5507813 0.304687,0.3603515 0.457031,0.8847656 0.457031,1.5703125 0,0.75 -0.152344,1.30957029 -0.457031,1.67578122 -0.298828,0.36035157 -0.676758,0.5390625 -1.136719,0.5390625 -0.46289,0 -0.84375,-0.18164062 -1.148437,-0.55078125 -0.298828,-0.36621093 -0.445313,-0.90527347 -0.445313,-1.61718747 z m 0.585938,0 c 0,0.5390625 0.09668,0.9433593 0.292968,1.20703122 0.19336,0.2578125 0.436524,0.38671875 0.726563,0.38671875 0.272461,0 0.503906,-0.13183593 0.691406,-0.3984375 0.19336,-0.26367187 0.292969,-0.66210937 0.292969,-1.19531247 0,-0.5302735 -0.09961,-0.9257813 -0.292969,-1.1835938 -0.196289,-0.2636719 -0.439453,-0.3984375 -0.726562,-0.3984375 -0.275391,0 -0.509766,0.1347656 -0.703125,0.3984375 -0.1875,0.2578125 -0.28125,0.6533203 -0.28125,1.1835938 z m 3.27539,2.074218725 V -4.1490219 h 0.515625 v 0.6328125 c 0.131836,-0.2958984 0.251953,-0.4921875 0.363282,-0.5859375 0.117187,-0.09375 0.240234,-0.140625 0.375,-0.140625 0.193359,0 0.392578,0.076172 0.597656,0.2226563 l -0.199219,0.65625 c -0.140625,-0.099609 -0.28125,-0.1523438 -0.421875,-0.1523438 -0.117187,0 -0.228516,0.043945 -0.328125,0.1289063 -0.102539,0.087891 -0.175781,0.2080078 -0.222656,0.3632812 -0.07031,0.2666016 -0.105469,0.5507813 -0.105469,0.8554688 v 2.167968725 z m 0,0"
         style="fill:#000000 icc-color(sRGB-IEC61966-2, 0.1, 0, 0, 0);fill-opacity:1;fill-rule:nonzero;stroke:none"
         aria-label="particular group or "
         transform="matrix(0.35277776,0,0,0.35277776,106.56609,144.45097)"
         clip-path="url(#clipPath856)" />
      <path
         id="path857"
         d="m 0.42141563,1.5937516 v -5.7421875 h 0.52734375 v 0.5390625 C 1.0805953,-3.8349594 1.22415,-3.9960922 1.3823531,-4.0898422 c 0.1552735,-0.099609 0.3398438,-0.1523437 0.5507813,-0.1523437 0.2636719,0 0.5039062,0.082031 0.7148437,0.2460937 0.2167969,0.1582031 0.3925782,0.3984375 0.5273438,0.7265625 0.1318359,0.3222656 0.1992187,0.7089844 0.1992187,1.1601563 0,0.703125 -0.149414,1.24804684 -0.4453125,1.62890621 C 2.6304,-0.09667812 2.2846969,0.09375156 1.8862594,0.09375156 c -0.1728516,0 -0.3369141,-0.04394531 -0.4921875,-0.12890625 -0.1582031,-0.09375 -0.2900391,-0.22558593 -0.39843752,-0.3984375 V 1.5937516 Z m 0.515625,-3.6445313 c 0,0.5390625 0.0878907,0.9375 0.26953127,1.19531251 0.1787109,0.25195313 0.3984375,0.375 0.65625,0.375 0.2402344,0 0.4570312,-0.13183593 0.6445312,-0.3984375 0.1875,-0.26367191 0.28125,-0.67089841 0.28125,-1.21875001 0,-0.5390625 -0.09082,-0.9375 -0.2695312,-1.1953125 -0.1816406,-0.2636719 -0.3984375,-0.3984375 -0.65625,-0.3984375 -0.234375,0 -0.4511719,0.140625 -0.6445313,0.421875 -0.1875,0.28125 -0.28124997,0.6884766 -0.28124997,1.21875 z M 6.2954391,1.5625001e-6 V -0.60937344 C 6.1606734,-0.37499844 6.0054,-0.19921719 5.8266891,-0.08202969 5.6450484,0.03515781 5.4429,0.09375156 5.2173141,0.09375156 c -0.2666016,0 -0.4980469,-0.0703125 -0.6914063,-0.2109375 -0.1875,-0.14648437 -0.3134765,-0.33105468 -0.375,-0.55078125 -0.064453,-0.22558593 -0.09375,-0.53027341 -0.09375,-0.91406251 v -2.5664062 h 0.5742188 v 2.296875 c 0,0.430664 0.017578,0.7207031 0.058594,0.86718746 0.046875,0.140625 0.1289063,0.25488282 0.2460938,0.33984375 0.1171875,0.0878906 0.2490234,0.12890625 0.3984375,0.12890625 0.2724609,0 0.4980468,-0.11132812 0.6796875,-0.33984375 C 6.1606734,-1.0488266 6.2368453,-1.4062484 6.2368453,-1.9218734 V -4.1484359 H 6.8110641 V 1.5625001e-6 Z m 1.4238281,0 V -4.1484359 h 0.515625 v 0.6328125 c 0.1318359,-0.2958985 0.2519531,-0.4921875 0.3632812,-0.5859375 0.1171875,-0.09375 0.2402344,-0.140625 0.375,-0.140625 0.1933594,0 0.3925782,0.076172 0.5976563,0.2226562 l -0.1992188,0.65625 c -0.140625,-0.099609 -0.28125,-0.1523437 -0.421875,-0.1523437 -0.1171875,0 -0.2285156,0.043945 -0.328125,0.1289062 -0.102539,0.087891 -0.1757812,0.2080078 -0.2226562,0.3632813 -0.070312,0.2666015 -0.1054688,0.5507812 -0.1054688,0.8554687 V 1.5625001e-6 Z M 9.9018844,1.5937516 v -5.7421875 h 0.5273436 v 0.5390625 c 0.131836,-0.225586 0.275391,-0.3867188 0.433594,-0.4804688 0.155273,-0.099609 0.339844,-0.1523437 0.550781,-0.1523437 0.263672,0 0.503906,0.082031 0.714844,0.2460937 0.216797,0.1582031 0.392578,0.3984375 0.527344,0.7265625 0.131836,0.3222656 0.199218,0.7089844 0.199218,1.1601563 0,0.703125 -0.149414,1.24804684 -0.445312,1.62890621 -0.298828,0.38378907 -0.644531,0.57421875 -1.042969,0.57421875 -0.172851,0 -0.336914,-0.04394531 -0.492187,-0.12890625 -0.158203,-0.09375 -0.290039,-0.22558593 -0.398438,-0.3984375 V 1.5937516 Z m 0.5156246,-3.6445313 c 0,0.5390625 0.08789,0.9375 0.269532,1.19531251 0.178711,0.25195313 0.398437,0.375 0.65625,0.375 0.240234,0 0.457031,-0.13183593 0.644531,-0.3984375 0.1875,-0.26367191 0.28125,-0.67089841 0.28125,-1.21875001 0,-0.5390625 -0.09082,-0.9375 -0.269531,-1.1953125 -0.181641,-0.2636719 -0.398438,-0.3984375 -0.65625,-0.3984375 -0.234375,0 -0.451172,0.140625 -0.644532,0.421875 -0.1875,0.28125 -0.28125,0.6884766 -0.28125,1.21875 z m 2.920899,-0.023437 c 0,-0.7177734 0.146484,-1.2568359 0.445312,-1.6171875 0.304688,-0.3662109 0.685547,-0.5507812 1.148438,-0.5507812 0.451172,0 0.832031,0.1845703 1.136719,0.5507812 0.304687,0.3603516 0.457031,0.8847656 0.457031,1.5703125 0,0.75 -0.152344,1.30957033 -0.457031,1.67578126 -0.298829,0.36035157 -0.676758,0.5390625 -1.136719,0.5390625 -0.462891,0 -0.84375,-0.18164062 -1.148438,-0.55078125 -0.298828,-0.36621093 -0.445312,-0.90527341 -0.445312,-1.61718751 z m 0.585937,0 c 0,0.5390625 0.09668,0.9433594 0.292969,1.20703126 0.193359,0.2578125 0.436524,0.38671875 0.726563,0.38671875 0.272461,0 0.503906,-0.13183593 0.691406,-0.3984375 0.193359,-0.26367191 0.292969,-0.66210941 0.292969,-1.19531251 0,-0.5302734 -0.09961,-0.9257812 -0.292969,-1.1835937 -0.196289,-0.2636719 -0.439453,-0.3984375 -0.726563,-0.3984375 -0.27539,0 -0.509765,0.1347656 -0.703125,0.3984375 -0.1875,0.2578125 -0.28125,0.6533203 -0.28125,1.1835937 z m 3.049805,0.8320313 0.574219,-0.1054688 c 0.0293,0.2900391 0.120117,0.50976564 0.269531,0.65625001 0.155273,0.140625 0.357422,0.2109375 0.609375,0.2109375 0.249023,0 0.439453,-0.0615234 0.574219,-0.1875 0.140625,-0.12304687 0.210937,-0.28125 0.210937,-0.46875001 0,-0.1640625 -0.05859,-0.2929687 -0.175781,-0.3867187 -0.0791,-0.061524 -0.275391,-0.140625 -0.585937,-0.234375 -0.445313,-0.140625 -0.747071,-0.2578125 -0.902344,-0.3515625 -0.149414,-0.09375 -0.266602,-0.2226563 -0.351563,-0.3867188 -0.0791,-0.1640625 -0.117187,-0.3457031 -0.117187,-0.5507812 0,-0.3515625 0.111328,-0.6357422 0.339844,-0.8554688 0.225585,-0.2255859 0.539062,-0.3398437 0.9375,-0.3398437 0.249023,0 0.46875,0.046875 0.65625,0.140625 0.193359,0.087891 0.342773,0.2080078 0.445312,0.3632812 0.09961,0.1582031 0.169922,0.375 0.210938,0.65625 l -0.5625,0.09375 c -0.04687,-0.4511719 -0.292969,-0.6796875 -0.738282,-0.6796875 -0.251953,0 -0.439453,0.052734 -0.5625,0.1523438 -0.117187,0.102539 -0.175781,0.2314453 -0.175781,0.3867187 0,0.1582031 0.05859,0.2783203 0.175781,0.3632813 0.07031,0.055664 0.275391,0.1376953 0.621094,0.2460937 0.474609,0.1582031 0.785156,0.28125 0.925781,0.375 0.140625,0.087891 0.249024,0.2080078 0.328125,0.3632813 0.07617,0.1582031 0.117188,0.3398437 0.117188,0.5507812 0,0.39843751 -0.125977,0.72070314 -0.375,0.96093751 -0.251953,0.24316407 -0.594727,0.36328125 -1.03125,0.36328125 -0.814453,0 -1.286133,-0.4453125 -1.417969,-1.33593746 z m 5.835938,-0.09375 0.585937,0.09375 c -0.09375,0.43945309 -0.275391,0.77050778 -0.539062,0.99609371 -0.257813,0.22851563 -0.580079,0.33984375 -0.960938,0.33984375 -0.477539,0 -0.867187,-0.18164062 -1.171875,-0.55078125 -0.298828,-0.36621093 -0.445312,-0.89355471 -0.445312,-1.58203121 0,-0.7177735 0.146484,-1.265625 0.445312,-1.640625 0.304688,-0.375 0.685547,-0.5625 1.148438,-0.5625 0.445312,0 0.811523,0.1875 1.101562,0.5625 0.295898,0.3691406 0.445313,0.899414 0.445313,1.59375 v 0.1875 h -2.542969 c 0.02344,0.46875 0.128906,0.8261718 0.316406,1.06640621 0.193359,0.234375 0.433594,0.3515625 0.714844,0.3515625 0.427734,0 0.729492,-0.28417968 0.902344,-0.85546871 z M 20.91165,-2.4726547 h 1.898438 c -0.02344,-0.3574219 -0.10254,-0.6269531 -0.234375,-0.8085937 -0.181641,-0.2578125 -0.416016,-0.3867188 -0.703125,-0.3867188 -0.257813,0 -0.480469,0.1113281 -0.667969,0.328125 -0.181641,0.2109375 -0.278321,0.5009766 -0.292969,0.8671875 z M 24.313017,1.5625001e-6 V -0.79687344 h 0.65625 V 1.5625001e-6 Z m 0,0"
         style="fill:#000000 icc-color(sRGB-IEC61966-2, 0.1, 0, 0, 0);fill-opacity:1;fill-rule:nonzero;stroke:none"
         aria-label="purpose."
         transform="matrix(0.35277776,0,0,0.35277776,106.56609,147.83763)"
         clip-path="url(#clipPath858)" />
      <path
         id="path859"
         d="m 51.941,268.791 h 58.11 v 45.354 h -58.11 z"
         style="fill:#e2001a;fill-opacity:1;fill-rule:nonzero;stroke:none"
         transform="matrix(0.35277776,0,0,-0.35277776,63.242473,251.33325)"
         clip-path="url(#clipPath860)" />
      <path
         id="path861"
         d="M 3.2917625,-0.00131875 V -32.216162 H 16.979262 c 3.445313,0 5.944336,0.290039 7.5,0.867187 1.561524,0.580078 2.8125,1.611328 3.75,3.09375 0.9375,1.476563 1.40625,3.169922 1.40625,5.074219 0,2.414062 -0.711914,4.412109 -2.132812,5.988281 -1.415039,1.570313 -3.536133,2.563477 -6.363281,2.976563 1.40625,0.820312 2.566406,1.722656 3.480468,2.707031 0.914063,0.978515 2.147461,2.7187498 3.703125,5.2265623 l 3.9375,6.28124995 h -7.78125 L 19.780044,-7.0091312 c -1.672852,-2.5078125 -2.81836,-4.0839848 -3.433594,-4.7343748 -0.618164,-0.65625 -1.271484,-1.104492 -1.957031,-1.347656 -0.688477,-0.240235 -1.778321,-0.363282 -3.269532,-0.363282 H 9.7956687 V -0.00131875 Z M 9.7956687,-18.587256 h 4.8164063 c 3.117187,0 5.0625,-0.131836 5.835937,-0.398438 0.779297,-0.263672 1.388672,-0.717773 1.828125,-1.359375 0.445313,-0.647461 0.667969,-1.456054 0.667969,-2.425781 0,-1.078125 -0.292969,-1.948242 -0.878906,-2.613281 -0.580078,-0.670899 -1.394531,-1.092774 -2.449219,-1.265625 -0.524414,-0.07617 -2.106445,-0.117188 -4.746094,-0.117188 H 9.7956687 Z m 0,0"
         style="fill:#000000;fill-opacity:1;fill-rule:nonzero;stroke:none"
         aria-label="R"
         transform="matrix(0.35277776,0,0,0.35277776,86.083881,154.28835)"
         clip-path="url(#clipPath862)" />
      <path
         id="path863"
         d="m 51.941,308.622 h 58.11 v 10.484 h -58.11 z"
         style="fill:#e2001a;fill-opacity:1;fill-rule:nonzero;stroke:none"
         transform="matrix(0.35277776,0,0,-0.35277776,63.242473,251.33325)"
         clip-path="url(#clipPath864)" />
      <path
         id="path865"
         d="M 0.59646406,-9.609375e-4 V -7.1611172 H 3.0925578 c 0.6386719,0 1.0957031,0.067383 1.3710938,0.1992188 0.2724609,0.1259765 0.4951172,0.3486328 0.6679687,0.6679687 0.178711,0.3222656 0.2695313,0.7001953 0.2695313,1.1367188 0,0.5625 -0.1376953,1.0166015 -0.4101563,1.359375 -0.2666015,0.336914 -0.6445312,0.5507812 -1.1367187,0.6445312 0.2490234,0.1816406 0.4570312,0.3808594 0.6210937,0.5976563 0.1699219,0.2109375 0.3984375,0.5976562 0.6796875,1.1601562 l 0.7148438,1.3945312625 h -1.40625 L 3.5964641,-1.5595547 C 3.2917766,-2.1220547 3.0808391,-2.4736172 2.9636516,-2.6142422 2.8523234,-2.7548672 2.7351359,-2.8515469 2.6120891,-2.9072109 2.4949016,-2.9599453 2.2986125,-2.9892422 2.0261516,-2.9892422 H 1.7800578 V -9.609375e-4 Z M 1.7800578,-4.1259609 h 0.8789063 c 0.5390625,0 0.8789062,-0.023437 1.0195312,-0.070312 0.1464844,-0.046875 0.2695313,-0.140625 0.3632813,-0.28125 0.09375,-0.1464844 0.140625,-0.3398438 0.140625,-0.5742188 0,-0.234375 -0.046875,-0.4160156 -0.140625,-0.5507812 -0.09375,-0.140625 -0.2197266,-0.2373047 -0.375,-0.2929688 -0.1113282,-0.029297 -0.4306641,-0.046875 -0.9609375,-0.046875 H 1.7800578 Z m 0,0"
         style="fill:#000000;fill-opacity:1;fill-rule:nonzero;stroke:none"
         aria-label="R"
         transform="matrix(0.35277776,0,0,0.35277776,83.292315,141.89311)"
         clip-path="url(#clipPath866)" />
      <path
         id="path867"
         d="M 0.58471406,-9.609375e-4 V -6.4462734 H 4.4050266 v 0.7617187 H 1.2878391 v 1.96875 h 2.9179687 v 0.7617188 H 1.2878391 v 2.19140621 h 3.234375 V -9.609375e-4 Z M 5.263425,-2.0751797 l 0.65625,-0.070312 c 0.029297,0.3603516 0.1083984,0.6386719 0.234375,0.8320313 0.1230469,0.196289 0.2988281,0.35742184 0.5273437,0.48046871 0.234375,0.1171875 0.4980469,0.17578125 0.796875,0.17578125 0.413086,0 0.7324219,-0.0996094 0.9609375,-0.3046875 0.234375,-0.20214846 0.3515625,-0.46874996 0.3515625,-0.79687496 0,-0.1875 -0.043945,-0.3515625 -0.1289062,-0.4921875 -0.087891,-0.1406255 -0.2167969,-0.257813 -0.3867188,-0.351563 -0.1640625,-0.09375 -0.524414,-0.2226563 -1.078125,-0.3867188 C 6.6960422,-3.1298672 6.34155,-3.2734219 6.1306125,-3.4228359 5.919675,-3.5781094 5.7556125,-3.7685391 5.638425,-3.9970547 5.5212375,-4.2314297 5.4626437,-4.4921719 5.4626437,-4.7822109 c 0,-0.515625 0.1669922,-0.9375 0.5039063,-1.265625 0.3339844,-0.3339844 0.7880859,-0.5039063 1.359375,-0.5039063 0.3896484,0 0.7324219,0.079102 1.03125,0.234375 0.2958984,0.1582031 0.5214844,0.3808594 0.6796875,0.6679688 0.1640625,0.290039 0.2519531,0.6298828 0.2695312,1.0195312 L 8.638425,-4.5712734 C 8.5974094,-4.9843594 8.4685031,-5.2919766 8.2517062,-5.4970547 8.0407687,-5.6992031 7.7390109,-5.8017422 7.3493625,-5.8017422 c -0.3984375,0 -0.703125,0.09082 -0.9140625,0.2695313 -0.2050781,0.1728515 -0.3046875,0.3984375 -0.3046875,0.6796875 0,0.2666015 0.076172,0.46875 0.234375,0.609375 0.1464844,0.140625 0.4863281,0.2871093 1.0195312,0.4335937 0.5214844,0.1494141 0.890625,0.2753906 1.1015625,0.375 0.319336,0.1640625 0.5625,0.3837891 0.7265625,0.65625 0.1640625,0.2666016 0.2460938,0.5830078 0.2460938,0.9492188 0,0.375 -0.087891,0.7148437 -0.2578125,1.01953121 -0.1728516,0.29882813 -0.4072266,0.52734375 -0.703125,0.69140625 -0.2988281,0.15527344 -0.65625,0.234375 -1.078125,0.234375 -0.6503906,0 -1.1689453,-0.19335937 -1.5585938,-0.5859375 C 5.4685031,-0.86814844 5.2692844,-1.4013516 5.263425,-2.0751797 Z m 6.503906,2.0742187625 V -5.6845547 h -1.734375 v -0.7617187 h 4.183594 v 0.7617187 h -1.746094 v 5.6835937625 z m 3.149414,0 V -6.4462734 h 2.34375 c 0.492188,0 0.855469,0.064453 1.089844,0.1875 0.234375,0.1171875 0.424805,0.3164062 0.574219,0.5976562 0.146484,0.28125 0.222656,0.6064453 0.222656,0.9726563 0,0.4863281 -0.128906,0.8789062 -0.386719,1.1835937 -0.251953,0.2988281 -0.618164,0.4892578 -1.101562,0.5742188 0.193359,0.1171875 0.342773,0.234375 0.445312,0.3515625 0.210938,0.2519531 0.392578,0.524414 0.550782,0.8203125 l 0.925781,1.7578124625 H 18.701902 L 17.998777,-1.3368984 c -0.275391,-0.5302735 -0.480469,-0.8847657 -0.621094,-1.0664063 -0.140625,-0.1787109 -0.278321,-0.2988281 -0.410156,-0.3632812 -0.125977,-0.061524 -0.304688,-0.09375 -0.539063,-0.09375 H 15.61987 V -9.609375e-4 Z M 15.61987,-3.5986172 h 1.5 c 0.328125,0 0.577149,-0.038086 0.75,-0.1171875 0.169922,-0.076172 0.304688,-0.2021484 0.398438,-0.375 0.09961,-0.1699219 0.152344,-0.3691406 0.152344,-0.5976562 0,-0.319336 -0.09375,-0.5742188 -0.28125,-0.7617188 -0.1875,-0.1875 -0.46875,-0.28125 -0.84375,-0.28125 H 15.61987 Z m 4.766602,3.5976562625 V -6.4462734 h 0.703125 v 6.4453124625 z m 5.671875,-2.2617187625 0.703125,0.2226563 c -0.158203,0.7207031 -0.430664,1.25976559 -0.820313,1.61718746 -0.392578,0.3515625 -0.864257,0.52734375 -1.417968,0.52734375 -0.486329,0 -0.902344,-0.1171875 -1.253907,-0.3515625 -0.345703,-0.24023437 -0.629882,-0.62402344 -0.855468,-1.14843751 -0.219727,-0.5302734 -0.328125,-1.1542969 -0.328125,-1.875 0,-0.703125 0.108398,-1.3007812 0.328125,-1.7929687 0.225586,-0.4921875 0.527343,-0.8613282 0.902343,-1.1132813 0.375,-0.2490234 0.796875,-0.375 1.265625,-0.375 0.506836,0 0.94336,0.1611328 1.3125,0.4804688 0.366211,0.3134765 0.624024,0.7792968 0.773438,1.3945312 l -0.691406,0.1992188 c -0.234375,-0.8964844 -0.703125,-1.3476563 -1.40625,-1.3476563 -0.351563,0 -0.65625,0.09082 -0.914063,0.2695313 -0.257812,0.1816406 -0.46582,0.4628906 -0.621094,0.84375 -0.149414,0.383789 -0.222656,0.8642578 -0.222656,1.4414062 0,0.8847656 0.152344,1.546875 0.457031,1.9921875 0.310547,0.43945314 0.726563,0.65625001 1.242188,0.65625001 0.380859,0 0.708984,-0.13183594 0.984375,-0.39843751 0.28125,-0.2724609 0.46875,-0.6855469 0.5625,-1.2421875 z m 2.926758,2.2617187625 V -5.6845547 H 27.25073 v -0.7617187 h 4.183593 v 0.7617187 H 29.68823 v 5.6835937625 z m 3.172851,0 V -6.4462734 h 3.820313 v 0.7617187 h -3.117188 v 1.96875 h 2.917969 v 0.7617188 h -2.917969 v 2.19140621 h 3.234375 v 0.7617187525 z m 0,0"
         style="fill:#000000;fill-opacity:1;fill-rule:nonzero;stroke:none"
         aria-label="ESTRICTE"
         transform="matrix(0.35277776,0,0,0.35277776,85.380054,141.89311)"
         clip-path="url(#clipPath868)" />
      <path
         id="path869"
         d="M 0.58617188,-7.1611172 H 2.7541406 c 0.5449219,0 0.9550782,0.064453 1.2304688,0.1875 0.28125,0.1259766 0.5390625,0.3339844 0.7734375,0.6210938 0.234375,0.290039 0.4160156,0.665039 0.5507812,1.125 0.131836,0.4628906 0.1992188,1.0371093 0.1992188,1.7226562 0,0.6181641 -0.070312,1.1572266 -0.2109375,1.6171875 -0.140625,0.4541016 -0.3222656,0.8144531 -0.5390625,1.07812501 -0.2109375,0.26660156 -0.46875,0.46875 -0.7734375,0.609375 -0.2988281,0.13476563 -0.6884766,0.1992187525 -1.171875,0.1992187525 H 0.58617188 Z m 1.18359372,1.21875 v 4.734375 h 0.890625 c 0.3808594,0 0.65625,-0.035156 0.8203125,-0.1054687 0.1699219,-0.070312 0.3105469,-0.1757813 0.421875,-0.3164063 0.1083985,-0.1464844 0.1992188,-0.3779297 0.2695313,-0.6914062 0.076172,-0.3105469 0.1171875,-0.7265625 0.1171875,-1.2421875 0,-0.5302735 -0.041016,-0.9492188 -0.1171875,-1.2539063 -0.070312,-0.3046875 -0.1845703,-0.5419922 -0.3398438,-0.7148437 -0.1582031,-0.178711 -0.3457031,-0.2958985 -0.5625,-0.3515625 -0.1640625,-0.038086 -0.4863281,-0.058594 -0.9609375,-0.058594 z m 0,0"
         style="fill:#000000;fill-opacity:1;fill-rule:nonzero;stroke:none"
         aria-label="D"
         transform="matrix(0.35277776,0,0,0.35277776,98.252139,141.89311)"
         clip-path="url(#clipPath870)" />
    </g>
  </g>
  <g
     id="dd"
     transform="matrix(0.03712687,0,0,0.03463504,-1.6983294,18.457282)"
     fill="#a2a093">
    <path
       id="c"
       d="m 23.37,0.19834 v 24.868 h 2.9501 v -24.868 z"
       fill="#eeeeed"
       stroke-width="0.44797"
       transform="matrix(26.934576,0,0,26.934576,48.387966,-525.60131)" />
    <path
       id="cz"
       d="m 23.842,18.429 v 0.46457 h 0.77588 v 0.6104 h 0.40316 v -0.60298 h 0.2813 v 0.60298 h 0.44003 v -1.075 z"
       fill="#a2a093"
       stroke-width="0.037127"
       transform="matrix(26.934576,0,0,26.934576,48.387966,-525.60131)" />
    <path
       id="da"
       d="m 25.742,19.938 v 0.46457 c -0.5631,0 -0.77098,0.0074 -1.4604,0.0074 v 0.60298 h -0.44003 v -1.075 z"
       fill="#a2a093"
       stroke-width="0.037127"
       transform="matrix(26.934576,0,0,26.934576,48.387966,-525.60131)" />
    <path
       id="db"
       d="M 25.613,16.911 A 0.76756,0.76756 0 0 1 24.84544,17.67856 0.76756,0.76756 0 0 1 24.07788,16.911 0.76756,0.76756 0 0 1 24.84544,16.14344 0.76756,0.76756 0 0 1 25.613,16.911 Z"
       fill="none"
       stroke="#a2a093"
       stroke-width="0.472"
       transform="matrix(26.934576,0,0,26.934576,48.387966,-525.60131)" />
    <path
       id="de"
       d="m 717.59,46.66 c -14.853,0 -27.029,12.178 -27.029,27.031 0,5.537 1.6928,10.702 4.5847,15.003 l 10.994,-6.3469 c -1.8028,-2.3947 -2.866,-5.3865 -2.866,-8.6558 0,-7.9828 6.3336,-14.319 14.316,-14.319 7.9828,0 14.318,6.3357 14.318,14.319 0,3.8631 -1.4867,7.3374 -3.9228,9.8976 l 11.111,6.4151 c 3.4614,-4.5436 5.5247,-10.201 5.5247,-16.313 0,-14.853 -12.178,-27.031 -27.031,-27.031 z"
       color="#000000"
       color-rendering="auto"
       dominant-baseline="auto"
       image-rendering="auto"
       shape-rendering="auto"
       solid-color="#000000"
       style="font-variant-ligatures:normal;font-variant-position:normal;font-variant-caps:normal;font-variant-numeric:normal;font-variant-alternates:normal;font-feature-settings:normal;text-indent:0;text-decoration-line:none;text-decoration-style:solid;text-decoration-color:#000000;text-transform:none;text-orientation:mixed;white-space:normal;shape-padding:0;isolation:auto;mix-blend-mode:normal" />
    <path
       id="di"
       d="m 24.846,8.4966 c -0.55145,0 -1.0035,0.45213 -1.0035,1.0036 0,0.20557 0.06285,0.39733 0.17022,0.55702 L 24.4209,9.82158 C 24.35397,9.732672 24.31449,9.6216 24.31449,9.50022 c 0,-0.29638 0.23515,-0.53162 0.53151,-0.53162 0.29638,0 0.53158,0.23523 0.53158,0.53162 0,0.14343 -0.0552,0.27242 -0.14564,0.36747 l 0.41252,0.23817 c 0.12851,-0.16869 0.20512,-0.37873 0.20512,-0.60565 0,-0.55145 -0.45213,-1.0036 -1.0036,-1.0036 z"
       color="#000000"
       color-rendering="auto"
       dominant-baseline="auto"
       fill="#a2a093"
       image-rendering="auto"
       shape-rendering="auto"
       solid-color="#000000"
       stroke-width="0.037127"
       style="font-variant-ligatures:normal;font-variant-position:normal;font-variant-caps:normal;font-variant-numeric:normal;font-variant-alternates:normal;font-feature-settings:normal;text-indent:0;text-decoration-line:none;text-decoration-style:solid;text-decoration-color:#000000;text-transform:none;text-orientation:mixed;white-space:normal;shape-padding:0;isolation:auto;mix-blend-mode:normal"
       transform="matrix(26.934576,0,0,26.934576,48.387966,-525.60131)" />
    <path
       id="dg"
       d="m 741.75,-332 v 12.513 c -15.167,0 -20.766,0.1995 -39.334,0.1995 v 16.241 h -11.852 v -28.954 z" />
    <path
       id="df"
       d="m 690.56,-372.63 v 12.513 h 20.898 v 16.441 h 10.859 v -16.241 h 7.5768 v 16.241 h 11.852 v -28.954 z" />
    <path
       id="dh"
       d="M 25.613,4.1612 A 0.76756,0.76756 0 0 1 24.84544,4.92876 0.76756,0.76756 0 0 1 24.07788,4.1612 0.76756,0.76756 0 0 1 24.84544,3.39364 0.76756,0.76756 0 0 1 25.613,4.1612 Z"
       fill="none"
       stroke="#a2a093"
       stroke-width="0.472"
       transform="matrix(26.934576,0,0,26.934576,48.387966,-525.60131)" />
  </g>
</svg>
