<?xml version="1.0" encoding="UTF-8"?>
<svg id="a" width="209.36" height="95.488" version="1.1" viewBox="0 0 55.394 25.265" xmlns="http://www.w3.org/2000/svg">
 <path id="b" d="m3.817 0.13h47.76c2.0412 0 3.6845 1.6433 3.6845 3.6845v17.631c0 2.0412-1.6433 3.6845-3.6845 3.6845h-47.76c-2.0412 0-3.6845-1.6433-3.6845-3.6845v-17.631c0-2.0412 1.6433-3.6845 3.6845-3.6845z" fill="#fff" stroke-width=".44914"/>
 <path id="c" d="m23.371 0.13v25h2.9501v-25z" fill="#eeeeed" stroke-width=".44914"/>
 <g id="i" transform="translate(-51.816,-126.2)" letter-spacing="0px" word-spacing="0px">
  <g id="j" stroke-width=".016621" aria-label="Films, Videos, and Publications Classification Act 1993">
   <path id="k" d="m54.913 148.26h0.67449l-0.02581 0.11914h-0.54277l-0.06222 0.29522h0.47724l-0.02515 0.11583h-0.47724l-0.09333 0.44216h-0.13173z"/>
   <path id="l" d="m55.657 148.52h0.12113l-0.14959 0.7056h-0.12113zm0.05692-0.26675h0.12113l-0.02913 0.13503h-0.12113z"/>
   <path id="m" d="m56.019 148.26h0.11914l-0.20652 0.97235h-0.11914z"/>
   <path id="n" d="m56.262 148.52h0.11782l-0.02118 0.10061q0.05362-0.0523 0.09267-0.0761 0.06752-0.0404 0.14231-0.0404 0.08472 0 0.12775 0.0417 0.02383 0.0238 0.03773 0.0702 0.05229-0.0569 0.1112-0.0841 0.05957-0.0278 0.12643-0.0278 0.14297 0 0.17276 0.10326 0.01589 0.0556-4e-3 0.14959l-0.09995 0.47195h-0.12378l0.10458-0.49247q0.01456-0.0708-0.01522-0.0973-0.02979-0.0265-0.08075-0.0265-0.07016 0-0.13106 0.047-0.06023 0.047-0.0834 0.15688l-0.08737 0.41237h-0.12113l0.09796-0.46268q0.01522-0.0722 0.0053-0.10524-0.01655-0.0497-0.09068-0.0497-0.06752 0-0.13437 0.0523-0.06619 0.0523-0.09531 0.18931l-0.07943 0.37597h-0.11914z"/>
   <path id="o" d="m57.36 149.01q-0.0073 0.0596 0.01059 0.0913 0.03243 0.0576 0.14364 0.0576 0.06619 0 0.12245-0.0285 0.05692-0.0291 0.0695-0.0893 0.0099-0.0457-0.02581-0.0695-0.02251-0.0146-0.09465-0.0337l-0.08936-0.0238q-0.08605-0.0225-0.12312-0.0503-0.06685-0.0483-0.04832-0.1337 0.02118-0.10061 0.10657-0.16283 0.08605-0.0622 0.2085-0.0622 0.16018 0 0.21115 0.094 0.03177 0.0596 0.01589 0.12841h-0.11253q0.0053-0.0404-0.01324-0.0735-0.03111-0.047-0.13238-0.047-0.06752 0-0.10789 0.0258-0.03972 0.0258-0.04898 0.0682-0.0099 0.0463 0.02979 0.0741 0.02317 0.0165 0.07215 0.0291l0.0748 0.0192q0.12179 0.0311 0.15952 0.0602 0.05957 0.0457 0.03839 0.14364-0.01986 0.0947-0.10657 0.16349-0.08605 0.0688-0.23299 0.0688-0.1582 0-0.20916-0.0715-0.05031-0.0722-0.03243-0.17805z"/>
   <path id="p" d="m57.916 149.37q0.04766-8e-3 0.07811-0.0642 0.01589-0.0298 0.02184-0.0576 0.0013-5e-3 0.0013-9e-3 6.62e-4 -3e-3 6.62e-4 -8e-3h-0.07215l0.03045-0.1443h0.14165l-0.02846 0.13371q-0.01655 0.0788-0.06156 0.13834-0.04435 0.0596-0.1251 0.0735z"/>
   <path id="q" d="m58.975 148.26 0.10326 0.82805 0.45209-0.82805h0.14761l-0.5613 0.97235h-0.13966l-0.14761-0.97235z"/>
   <path id="r" d="m59.707 148.52h0.12113l-0.14959 0.7056h-0.12113zm0.05692-0.26675h0.12113l-0.02913 0.13503h-0.12113z"/>
   <path id="s" d="m60.154 149.15q0.08274 0 0.15092-0.0708 0.06818-0.0715 0.09664-0.20454 0.02846-0.13436-0.01258-0.19857-0.04104-0.0649-0.12179-0.0649-0.09002 0-0.16084 0.0688-0.07016 0.0688-0.09863 0.20255-0.02449 0.11385 0.0073 0.19063 0.03243 0.0768 0.139 0.0768zm0.2416-0.6083q0.0278 0.0199 0.05759 0.0695l0.07612-0.35809h0.11451l-0.20718 0.97566h-0.10723l0.02052-0.0986q-0.0556 0.0655-0.11914 0.0947-0.06288 0.0291-0.13635 0.0291-0.11848 0-0.18401-0.0993-0.06553-0.0999-0.02979-0.26542 0.03243-0.15489 0.13569-0.26808 0.10326-0.11385 0.2502-0.11385 0.08141 0 0.12907 0.0344z"/>
   <path id="t" d="m61.29 148.63q0.02449 0.0536 0.02118 0.1251 6.61e-4 0.049-0.02251 0.15621h-0.5196q-0.01986 0.1079 0.0139 0.17343 0.03442 0.0649 0.13437 0.0649 0.09333 0 0.16151-0.0616 0.03972-0.0357 0.06288-0.0827h0.11716q-0.01324 0.0391-0.04964 0.0874-0.03574 0.0477-0.0748 0.0781-0.06553 0.053-0.14959 0.0715-0.04567 0.0106-0.09995 0.0106-0.13238 0-0.20387-0.096-0.07149-0.0966-0.03442-0.27006 0.03641-0.17077 0.15158-0.27734 0.11517-0.10657 0.26477-0.10657 0.07546 0 0.139 0.0358 0.06354 0.0351 0.08803 0.0913zm-0.10392 0.18666q0.0093-0.0774-0.0073-0.12378-0.03045-0.0861-0.14496-0.0861-0.08208 0-0.15026 0.0596-0.06818 0.0589-0.09134 0.15025z"/>
   <path id="u" d="m61.934 148.86q0.02118-0.0993 0.0026-0.16151-0.02979-0.098-0.1529-0.098-0.10922 0-0.17673 0.0834-0.06685 0.0834-0.09201 0.20122-0.02383 0.11319 0.0093 0.18865 0.03376 0.0755 0.14165 0.0755 0.11848 0 0.18136-0.0894 0.06354-0.09 0.08671-0.1999zm0.1251-3e-3q-0.03641 0.17144-0.14364 0.2833-0.10723 0.11186-0.28264 0.11186-0.14628 0-0.21115-0.0986-0.06487-0.0993-0.02979-0.26609 0.03839-0.17872 0.15158-0.28462 0.11319-0.10591 0.26609-0.10591 0.13702 0 0.21181 0.0913 0.07546 0.0913 0.03773 0.26874z"/>
   <path id="w" d="m62.242 149.01q-0.0073 0.0596 0.01059 0.0913 0.03243 0.0576 0.14364 0.0576 0.06619 0 0.12246-0.0285 0.05692-0.0291 0.0695-0.0893 0.0099-0.0457-0.02582-0.0695-0.02251-0.0146-0.09465-0.0337l-0.08936-0.0238q-0.08605-0.0225-0.12312-0.0503-0.06685-0.0483-0.04832-0.1337 0.02118-0.10061 0.10657-0.16283 0.08605-0.0622 0.2085-0.0622 0.16018 0 0.21115 0.094 0.03177 0.0596 0.01589 0.12841h-0.11253q0.0053-0.0404-0.01324-0.0735-0.03111-0.047-0.13238-0.047-0.06752 0-0.10789 0.0258-0.03971 0.0258-0.04898 0.0682-0.0099 0.0463 0.02979 0.0741 0.02317 0.0165 0.07215 0.0291l0.0748 0.0192q0.12179 0.0311 0.15952 0.0602 0.05957 0.0457 0.03839 0.14364-0.01986 0.0947-0.10657 0.16349-0.08605 0.0688-0.23299 0.0688-0.1582 0-0.20916-0.0715-0.05031-0.0722-0.03243-0.17805z"/>
   <path id="x" d="m62.798 149.37q0.04766-8e-3 0.07811-0.0642 0.01589-0.0298 0.02184-0.0576 0.0013-5e-3 0.0013-9e-3 6.62e-4 -3e-3 6.62e-4 -8e-3h-0.07215l0.03045-0.1443h0.14165l-0.02846 0.13371q-0.01655 0.0788-0.06156 0.13834-0.04435 0.0596-0.1251 0.0735z"/>
   <path id="y" d="m63.792 149.15q0.06288 0 0.12841-0.0291 0.10922-0.0483 0.13304-0.1582l0.01986-0.096q-0.02449 0.0139-0.0609 0.0232-0.03641 9e-3 -0.07016 0.0132l-0.07413 9e-3q-0.06685 9e-3 -0.10326 0.0271-0.06156 0.0311-0.07612 0.0993-0.01125 0.0516 0.01986 0.0814 0.03177 0.0298 0.0834 0.0298zm0.2363-0.35213q0.04236-5e-3 0.06288-0.0344 0.01125-0.0159 0.01721-0.0457 0.01324-0.0609-0.02449-0.088-0.03773-0.0278-0.11848-0.0278-0.09333 0-0.14297 0.0503-0.0278 0.0278-0.04567 0.0827h-0.1112q0.03111-0.13105 0.12378-0.18202 0.09267-0.0516 0.20056-0.0516 0.1251 0 0.19262 0.0477 0.06752 0.0477 0.04633 0.14827l-0.08671 0.4084q-4e-3 0.0185 6.62e-4 0.0298 0.0053 0.0113 0.02979 0.0113 0.0079 0 0.01787-6.7e-4 0.01059-1e-3 0.02251-3e-3l-0.0192 0.088q-0.02912 8e-3 -0.04435 0.01-0.01456 2e-3 -0.03972 2e-3 -0.06156 0-0.08009-0.0437-0.0099-0.0232-0.0066-0.0655-0.047 0.0477-0.12245 0.0827-0.07546 0.0351-0.15754 0.0351-0.09863 0-0.14893-0.0596-0.04964-0.0602-0.03045-0.15026 0.02118-0.0986 0.09399-0.1529 0.07347-0.0543 0.17607-0.0668z"/>
   <path id="z" d="m64.463 148.52h0.11319l-0.02118 0.10061q0.06354-0.0622 0.1251-0.0894 0.06222-0.0271 0.13106-0.0271 0.15092 0 0.18136 0.10525 0.01721 0.0576-0.0053 0.16481l-0.09664 0.45474h-0.12113l0.09465-0.44679q0.0139-0.0649 0.0033-0.10459-0.01787-0.0662-0.10127-0.0662-0.04236 0-0.07149 9e-3 -0.05229 0.0146-0.09862 0.0583-0.03707 0.0351-0.05428 0.0728-0.01655 0.0371-0.03111 0.10657l-0.07877 0.37133h-0.11914z"/>
   <path id="aa" d="m65.363 149.15q0.08274 0 0.15092-0.0708 0.06818-0.0715 0.09664-0.20454 0.02846-0.13436-0.01258-0.19857-0.04104-0.0649-0.12179-0.0649-0.09002 0-0.16084 0.0688-0.07016 0.0688-0.09862 0.20255-0.02449 0.11385 0.0073 0.19063 0.03243 0.0768 0.139 0.0768zm0.2416-0.6083q0.0278 0.0199 0.05759 0.0695l0.07612-0.35809h0.11451l-0.20718 0.97566h-0.10723l0.02052-0.0986q-0.0556 0.0655-0.11914 0.0947-0.06288 0.0291-0.13635 0.0291-0.11848 0-0.18401-0.0993-0.06553-0.0999-0.02979-0.26542 0.03243-0.15489 0.13569-0.26808 0.10326-0.11385 0.2502-0.11385 0.08142 0 0.12907 0.0344z"/>
   <path id="ab" d="m66.435 148.26h0.43752q0.12974 0 0.19328 0.0735 0.06421 0.0728 0.03574 0.20519-0.02383 0.11385-0.11319 0.19858-0.0887 0.0841-0.23564 0.0841h-0.3058l-0.08671 0.41105h-0.13172zm0.48518 0.1337q-0.03971-0.0205-0.11584-0.0205h-0.26212l-0.07149 0.33692h0.26212q0.0887 0 0.15158-0.0377 0.06354-0.0377 0.08406-0.13305 0.02251-0.10723-0.04832-0.14562z"/>
   <path id="ac" d="m67.375 148.52-0.09995 0.47062q-0.01125 0.0543-0.0013 0.0887 0.01787 0.0635 0.10458 0.0635 0.12444 0 0.19328-0.1112 0.03707-0.0596 0.05891-0.16349l0.07413-0.34817h0.11914l-0.15025 0.70891h-0.11253l0.02317-0.10458q-0.03177 0.0404-0.07215 0.0682-0.08009 0.0556-0.17739 0.0556-0.15158 0-0.18467-0.10127-0.01853-0.0543 6.62e-4 -0.14496l0.1026-0.48187z"/>
   <path id="ad" d="m68.058 148.25h0.11584l-0.0748 0.3528q0.04964-0.051 0.10922-0.0774 0.06023-0.0271 0.12378-0.0271 0.13238 0 0.19526 0.0913 0.06354 0.0907 0.02581 0.26807-0.03574 0.16813-0.14099 0.27933-0.10524 0.1112-0.24954 0.1112-0.08075 0-0.12775-0.0391-0.02846-0.0232-0.05494-0.0741l-0.0192 0.0907h-0.10988zm0.372 0.61359q0.02383-0.11186-0.0086-0.18533-0.03243-0.0735-0.12576-0.0735-0.08142 0-0.15555 0.0602t-0.10326 0.19857q-0.02118 0.1-0.0093 0.16217 0.02184 0.11716 0.15026 0.11716 0.09664 0 0.16084-0.0768 0.06421-0.0768 0.09134-0.20255z"/>
   <path id="ae" d="m68.825 148.26h0.11914l-0.20652 0.97235h-0.11914z"/>
   <path id="af" d="m69.067 148.52h0.12113l-0.14959 0.7056h-0.12113zm0.05693-0.26675h0.12113l-0.02912 0.13503h-0.12113z"/>
   <path id="ag" d="m69.878 148.76h-0.11584q0.0033-0.0655-0.02515-0.10856-0.02846-0.0437-0.11186-0.0437-0.11385 0-0.18666 0.1112-0.047 0.0721-0.0695 0.17805-0.02317 0.10657 0.0066 0.17938 0.02979 0.0728 0.12643 0.0728 0.07413 0 0.12709-0.045 0.05295-0.0457 0.08605-0.12444h0.11584q-0.04964 0.14099-0.14297 0.20652-0.09333 0.0649-0.21711 0.0649-0.139 0-0.20056-0.10127-0.0609-0.10194-0.02846-0.25418 0.03972-0.18666 0.15224-0.29058 0.11319-0.10392 0.25351-0.10392 0.11981 0 0.18203 0.0582 0.06288 0.0583 0.04832 0.20056z"/>
   <path id="ah" d="m70.133 149.15q0.06288 0 0.12841-0.0291 0.10922-0.0483 0.13304-0.1582l0.01986-0.096q-0.02449 0.0139-0.0609 0.0232-0.03641 9e-3 -0.07016 0.0132l-0.07414 9e-3q-0.06685 9e-3 -0.10326 0.0271-0.06156 0.0311-0.07612 0.0993-0.01125 0.0516 0.01986 0.0814 0.03177 0.0298 0.0834 0.0298zm0.2363-0.35213q0.04236-5e-3 0.06288-0.0344 0.01125-0.0159 0.01721-0.0457 0.01324-0.0609-0.02449-0.088-0.03773-0.0278-0.11848-0.0278-0.09333 0-0.14297 0.0503-0.0278 0.0278-0.04567 0.0827h-0.1112q0.03111-0.13105 0.12378-0.18202 0.09267-0.0516 0.20056-0.0516 0.1251 0 0.19262 0.0477 0.06752 0.0477 0.04633 0.14827l-0.08671 0.4084q-4e-3 0.0185 6.62e-4 0.0298 0.0053 0.0113 0.02979 0.0113 0.0079 0 0.01787-6.7e-4 0.01059-1e-3 0.0225-3e-3l-0.0192 0.088q-0.02912 8e-3 -0.04435 0.01-0.01456 2e-3 -0.03972 2e-3 -0.06156 0-0.08009-0.0437-0.0099-0.0232-0.0066-0.0655-0.047 0.0477-0.12245 0.0827-0.07546 0.0351-0.15754 0.0351-0.09862 0-0.14893-0.0596-0.04964-0.0602-0.03045-0.15026 0.02118-0.0986 0.09399-0.1529 0.07347-0.0543 0.17607-0.0668z"/>
   <path id="ai" d="m70.87 148.32h0.12047l-0.04236 0.19791h0.11319l-0.02052 0.0973h-0.11319l-0.09862 0.46268q-0.0079 0.0371 0.01456 0.0496 0.01258 7e-3 0.04501 7e-3 0.0086 0 0.01853 0 0.0099-6.6e-4 0.02383-2e-3l-0.01986 0.094q-0.02184 6e-3 -0.04501 9e-3 -0.02251 3e-3 -0.04832 3e-3 -0.0834 0-0.10458-0.0424-0.02052-0.043-6e-3 -0.1112l0.09995-0.4693h-0.09598l0.02052-0.0973h0.09598z"/>
   <path id="aj" d="m71.18 148.52h0.12113l-0.14959 0.7056h-0.12113zm0.05692-0.26675h0.12113l-0.02912 0.13503h-0.12113z"/>
   <path id="ak" d="m71.898 148.86q0.02118-0.0993 0.0026-0.16151-0.02979-0.098-0.1529-0.098-0.10922 0-0.17673 0.0834-0.06685 0.0834-0.09201 0.20122-0.02383 0.11319 0.0093 0.18865 0.03376 0.0755 0.14165 0.0755 0.11848 0 0.18136-0.0894 0.06354-0.09 0.08671-0.1999zm0.1251-3e-3q-0.0364 0.17144-0.14364 0.2833-0.10723 0.11186-0.28264 0.11186-0.14628 0-0.21115-0.0986-0.06487-0.0993-0.02979-0.26609 0.03839-0.17872 0.15158-0.28462 0.11319-0.10591 0.26609-0.10591 0.13702 0 0.21181 0.0913 0.07546 0.0913 0.03773 0.26874z"/>
   <path id="au" d="m72.238 148.52h0.11319l-0.02118 0.10061q0.06354-0.0622 0.1251-0.0894 0.06222-0.0271 0.13106-0.0271 0.15092 0 0.18136 0.10525 0.01721 0.0576-0.0053 0.16481l-0.09664 0.45474h-0.12113l0.09465-0.44679q0.0139-0.0649 0.0033-0.10459-0.01787-0.0662-0.10127-0.0662-0.04236 0-0.07149 9e-3 -0.05229 0.0146-0.09863 0.0583-0.03707 0.0351-0.05428 0.0728-0.01655 0.0371-0.03111 0.10657l-0.07877 0.37133h-0.11914z"/>
   <path id="av" d="m72.961 149.01q-0.0073 0.0596 0.01059 0.0913 0.03243 0.0576 0.14364 0.0576 0.06619 0 0.12245-0.0285 0.05693-0.0291 0.0695-0.0893 0.0099-0.0457-0.02582-0.0695-0.0225-0.0146-0.09465-0.0337l-0.08936-0.0238q-0.08605-0.0225-0.12312-0.0503-0.06685-0.0483-0.04832-0.1337 0.02118-0.10061 0.10657-0.16283 0.08605-0.0622 0.2085-0.0622 0.16018 0 0.21115 0.094 0.03177 0.0596 0.01589 0.12841h-0.11252q0.0053-0.0404-0.01324-0.0735-0.03111-0.047-0.13238-0.047-0.06752 0-0.10789 0.0258-0.03971 0.0258-0.04898 0.0682-0.0099 0.0463 0.02979 0.0741 0.02317 0.0165 0.07215 0.0291l0.0748 0.0192q0.12179 0.0311 0.15952 0.0602 0.05957 0.0457 0.03839 0.14364-0.01986 0.0947-0.10657 0.16349-0.08605 0.0688-0.23299 0.0688-0.1582 0-0.20916-0.0715-0.05031-0.0722-0.03243-0.17805z"/>
   <path id="aw" d="m57.748 149.91h-0.12841q-2e-3 -0.094-0.0556-0.14893-0.05362-0.0549-0.17144-0.0549-0.14364 0-0.25351 0.10128-0.10922 0.10061-0.15356 0.30911-0.03641 0.17077 0.02052 0.27734 0.05759 0.10591 0.21578 0.10591 0.14562 0 0.24557-0.11187 0.05229-0.0589 0.09267-0.15488h0.12841q-0.04964 0.15356-0.16813 0.25748-0.14297 0.1251-0.33956 0.1251-0.16945 0-0.26278-0.10259-0.12245-0.1357-0.06222-0.419 0.04567-0.21512 0.18865-0.3528 0.15489-0.14959 0.37133-0.14959 0.18467 0 0.26609 0.0973 0.08141 0.0973 0.06619 0.22108z"/>
   <path id="ax" d="m58.015 149.61h0.11914l-0.20652 0.97235h-0.11914z"/>
   <path id="az" d="m58.388 150.51q0.06288 0 0.12841-0.0291 0.10922-0.0483 0.13304-0.1582l0.01986-0.096q-0.02449 0.0139-0.0609 0.0232-0.03641 9e-3 -0.07016 0.0132l-0.07413 9e-3q-0.06685 9e-3 -0.10326 0.0271-0.06156 0.0311-0.07612 0.0993-0.01125 0.0516 0.01986 0.0814 0.03177 0.0298 0.0834 0.0298zm0.2363-0.35214q0.04236-5e-3 0.06288-0.0344 0.01125-0.0159 0.01721-0.0457 0.01324-0.0609-0.02449-0.088-0.03773-0.0278-0.11848-0.0278-0.09333 0-0.14297 0.0503-0.0278 0.0278-0.04567 0.0827h-0.1112q0.03111-0.13106 0.12378-0.18203 0.09267-0.0516 0.20056-0.0516 0.1251 0 0.19262 0.0477 0.06752 0.0477 0.04633 0.14827l-0.08671 0.4084q-4e-3 0.0185 6.62e-4 0.0298 0.0053 0.0113 0.02979 0.0113 0.0079 0 0.01787-6.7e-4 0.01059-1e-3 0.0225-3e-3l-0.01919 0.088q-0.02913 8e-3 -0.04435 0.01-0.01456 2e-3 -0.03972 2e-3 -0.06156 0-0.08009-0.0437-0.0099-0.0232-0.0066-0.0655-0.047 0.0477-0.12245 0.0827-0.07546 0.0351-0.15754 0.0351-0.09863 0-0.14893-0.0596-0.04964-0.0602-0.03045-0.15026 0.02118-0.0986 0.09399-0.1529 0.07347-0.0543 0.17607-0.0668z"/>
   <path id="ba" d="m59.073 150.36q-0.0073 0.0596 0.01059 0.0913 0.03243 0.0576 0.14364 0.0576 0.06619 0 0.12245-0.0285 0.05692-0.0291 0.0695-0.0894 0.0099-0.0457-0.02582-0.0695-0.02251-0.0146-0.09465-0.0338l-0.08936-0.0238q-0.08605-0.0225-0.12312-0.0503-0.06685-0.0483-0.04832-0.1337 0.02118-0.10061 0.10657-0.16283 0.08605-0.0622 0.2085-0.0622 0.16018 0 0.21115 0.094 0.03177 0.0596 0.01589 0.12841h-0.11252q0.0053-0.0404-0.01324-0.0735-0.03111-0.047-0.13238-0.047-0.06752 0-0.10789 0.0258-0.03972 0.0258-0.04898 0.0682-0.0099 0.0463 0.02979 0.0741 0.02317 0.0165 0.07215 0.0291l0.0748 0.0192q0.12179 0.0311 0.15952 0.0602 0.05957 0.0457 0.03839 0.14364-0.01986 0.0947-0.10657 0.16349-0.08605 0.0688-0.23299 0.0688-0.1582 0-0.20916-0.0715-0.05031-0.0721-0.03243-0.17805z"/>
   <path id="bb" d="m59.799 150.36q-0.0073 0.0596 0.01059 0.0913 0.03243 0.0576 0.14364 0.0576 0.06619 0 0.12245-0.0285 0.05692-0.0291 0.0695-0.0894 0.0099-0.0457-0.02581-0.0695-0.02251-0.0146-0.09465-0.0338l-0.08936-0.0238q-0.08605-0.0225-0.12312-0.0503-0.06685-0.0483-0.04832-0.1337 0.02118-0.10061 0.10657-0.16283 0.08605-0.0622 0.2085-0.0622 0.16018 0 0.21115 0.094 0.03177 0.0596 0.01589 0.12841h-0.11252q0.0053-0.0404-0.01324-0.0735-0.03111-0.047-0.13238-0.047-0.06752 0-0.10789 0.0258-0.03972 0.0258-0.04898 0.0682-0.0099 0.0463 0.02979 0.0741 0.02317 0.0165 0.07215 0.0291l0.0748 0.0192q0.12179 0.0311 0.15952 0.0602 0.05957 0.0457 0.03839 0.14364-0.01986 0.0947-0.10657 0.16349-0.08605 0.0688-0.23299 0.0688-0.1582 0-0.20916-0.0715-0.05031-0.0721-0.03243-0.17805z"/>
   <path id="bc" d="m60.556 149.88h0.12113l-0.14959 0.7056h-0.12113zm0.05692-0.26675h0.12113l-0.02912 0.13503h-0.12113z"/>
   <path id="bd" d="m61.008 149.66q0.05428-0.0609 0.17342-0.0609 0.01125 0 0.02317 6.6e-4 0.01191 6.6e-4 0.02648 2e-3l-0.02317 0.10855q-0.01787-1e-3 -0.02648-1e-3 -0.0079-6.7e-4 -0.01522-6.7e-4 -0.05428 0-0.07082 0.0285-0.01655 0.0278-0.04104 0.14297h0.11782l-0.01986 0.094h-0.11914l-0.12974 0.61161h-0.11782l0.12974-0.61161h-0.09862l0.01986-0.094h0.09862l0.02383-0.1112q0.01853-0.0741 0.04898-0.10856zm0.30647 0.088 0.02912-0.13503h0.11914l-0.02912 0.13503zm-0.0278 0.13172h0.11914l-0.14959 0.7056h-0.11914z"/>
   <path id="be" d="m62.188 150.12h-0.11583q0.0033-0.0655-0.02515-0.10856-0.02846-0.0437-0.11186-0.0437-0.11385 0-0.18666 0.1112-0.047 0.0722-0.0695 0.17805-0.02317 0.10657 0.0066 0.17938 0.02979 0.0728 0.12642 0.0728 0.07413 0 0.12709-0.045 0.05295-0.0457 0.08605-0.12444h0.11584q-0.04964 0.14099-0.14297 0.20652-0.09333 0.0649-0.21711 0.0649-0.139 0-0.20056-0.10127-0.0609-0.10194-0.02846-0.25418 0.03972-0.18666 0.15224-0.29058 0.11319-0.10392 0.25351-0.10392 0.11981 0 0.18203 0.0583 0.06288 0.0582 0.04832 0.20056z"/>
   <path id="bf" d="m62.489 150.51q0.06288 0 0.12841-0.0291 0.10922-0.0483 0.13304-0.1582l0.01986-0.096q-0.02449 0.0139-0.0609 0.0232-0.03641 9e-3 -0.07016 0.0132l-0.07413 9e-3q-0.06685 9e-3 -0.10326 0.0271-0.06156 0.0311-0.07612 0.0993-0.01125 0.0516 0.01986 0.0814 0.03177 0.0298 0.0834 0.0298zm0.2363-0.35214q0.04236-5e-3 0.06288-0.0344 0.01125-0.0159 0.01721-0.0457 0.01324-0.0609-0.02449-0.088-0.03773-0.0278-0.11848-0.0278-0.09333 0-0.14297 0.0503-0.0278 0.0278-0.04567 0.0827h-0.1112q0.03111-0.13106 0.12378-0.18203 0.09267-0.0516 0.20056-0.0516 0.1251 0 0.19262 0.0477 0.06752 0.0477 0.04633 0.14827l-0.08671 0.4084q-4e-3 0.0185 6.62e-4 0.0298 0.0053 0.0113 0.02979 0.0113 0.0079 0 0.01787-6.7e-4 0.01059-1e-3 0.0225-3e-3l-0.01919 0.088q-0.02913 8e-3 -0.04435 0.01-0.01456 2e-3 -0.03971 2e-3 -0.06156 0-0.08009-0.0437-0.0099-0.0232-0.0066-0.0655-0.047 0.0477-0.12245 0.0827-0.07546 0.0351-0.15754 0.0351-0.09862 0-0.14893-0.0596-0.04964-0.0602-0.03045-0.15026 0.02118-0.0986 0.09399-0.1529 0.07347-0.0543 0.17607-0.0668z"/>
   <path id="bg" d="m63.273 149.68h0.12047l-0.04236 0.19791h0.11319l-0.02052 0.0973h-0.11319l-0.09863 0.46268q-0.0079 0.0371 0.01456 0.0496 0.01258 7e-3 0.04501 7e-3 0.0086 0 0.01853 0 0.0099-6.6e-4 0.02383-2e-3l-0.01986 0.094q-0.02184 6e-3 -0.04501 9e-3 -0.0225 3e-3 -0.04832 3e-3 -0.0834 0-0.10458-0.0424-0.02052-0.043-6e-3 -0.1112l0.09995-0.4693h-0.09598l0.02052-0.0973h0.09598z"/>
   <path id="bh" d="m63.63 149.88h0.12113l-0.14959 0.7056h-0.12113zm0.05692-0.26675h0.12113l-0.02912 0.13503h-0.12113z"/>
   <path id="bi" d="m64.395 150.22q0.02118-0.0993 0.0026-0.16151-0.02979-0.098-0.1529-0.098-0.10922 0-0.17673 0.0834-0.06685 0.0834-0.09201 0.20122-0.02383 0.11319 0.0093 0.18865 0.03376 0.0755 0.14165 0.0755 0.11848 0 0.18136-0.0894 0.06354-0.09 0.08671-0.1999zm0.1251-3e-3q-0.03641 0.17144-0.14364 0.2833-0.10723 0.11186-0.28264 0.11186-0.14628 0-0.21115-0.0986-0.06487-0.0993-0.02979-0.26609 0.03839-0.17872 0.15158-0.28462 0.11319-0.10591 0.26609-0.10591 0.13702 0 0.21181 0.0913 0.07546 0.0914 0.03773 0.26874z"/>
   <path id="bj" d="m64.781 149.88h0.11319l-0.02118 0.10061q0.06354-0.0622 0.1251-0.0894 0.06222-0.0271 0.13106-0.0271 0.15092 0 0.18136 0.10525 0.01721 0.0576-0.0053 0.16481l-0.09664 0.45474h-0.12113l0.09465-0.44679q0.0139-0.0649 0.0033-0.10458-0.01787-0.0662-0.10127-0.0662-0.04236 0-0.07149 9e-3 -0.05229 0.0146-0.09862 0.0582-0.03707 0.0351-0.05428 0.0728-0.01655 0.0371-0.03111 0.10657l-0.07877 0.37133h-0.11912z"/>
   <path id="bk" d="m66.382 150.19-0.05626-0.42958-0.24822 0.42958zm-0.09399-0.57388h0.14893l0.14628 0.97235h-0.1443l-0.03707-0.29124h-0.38457l-0.1668 0.29124h-0.13503z"/>
   <path id="bl" d="m67.393 150.12h-0.11584q0.0033-0.0655-0.02515-0.10856-0.02846-0.0437-0.11186-0.0437-0.11385 0-0.18666 0.1112-0.047 0.0722-0.0695 0.17805-0.02317 0.10657 0.0066 0.17938 0.02979 0.0728 0.12643 0.0728 0.07413 0 0.12709-0.045 0.05295-0.0457 0.08605-0.12444h0.11584q-0.04964 0.14099-0.14297 0.20652-0.09333 0.0649-0.21711 0.0649-0.139 0-0.20056-0.10127-0.0609-0.10194-0.02846-0.25418 0.03972-0.18666 0.15224-0.29058 0.11319-0.10392 0.25351-0.10392 0.11981 0 0.18203 0.0583 0.06288 0.0582 0.04832 0.20056z"/>
   <path id="bm" d="m67.677 149.68h0.12047l-0.04236 0.19791h0.11319l-0.02052 0.0973h-0.11319l-0.09862 0.46268q-0.0079 0.0371 0.01456 0.0496 0.01258 7e-3 0.04501 7e-3 0.0086 0 0.01853 0 0.0099-6.6e-4 0.02383-2e-3l-0.01986 0.094q-0.02184 6e-3 -0.04501 9e-3 -0.0225 3e-3 -0.04832 3e-3 -0.0834 0-0.10458-0.0424-0.02052-0.043-6e-3 -0.1112l0.09995-0.4693h-0.09598l0.02052-0.0973h0.09598z"/>
   <path id="bn" d="m68.494 149.91 0.0192-0.0914q0.13172-0.0126 0.18864-0.0417 0.05759-0.0298 0.10657-0.13966h0.09399l-0.20056 0.94389h-0.12709l0.14231-0.67118z"/>
   <path id="bo" d="m69.252 150.36q-0.01589 0.0986 0.047 0.13635 0.03243 0.0199 0.07811 0.0199 0.08539 0 0.16084-0.0708 0.07546-0.0715 0.14694-0.28925-0.05361 0.0629-0.11782 0.0887-0.06354 0.0252-0.13106 0.0252-0.13702 0-0.19857-0.0854-0.06156-0.0854-0.0331-0.21976 0.02714-0.12907 0.12642-0.22703 0.09995-0.098 0.25351-0.098 0.20718 0 0.24623 0.18666 0.02184 0.1026-0.01059 0.25683-0.03707 0.17408-0.11782 0.30845-0.13437 0.22373-0.34155 0.22373-0.139 0-0.19593-0.0728-0.05626-0.0728-0.0331-0.18269zm0.45474-0.40443q0.0225-0.10458-0.01986-0.15555-0.0417-0.0516-0.12312-0.0516-0.08737 0-0.15092 0.0589-0.06354 0.0583-0.08472 0.15621-0.01919 0.0927 0.0139 0.14761 0.03376 0.0543 0.13238 0.0543 0.07082 0 0.139-0.0463 0.06884-0.047 0.09333-0.16349z"/>
   <path id="bp" d="m70.053 150.36q-0.01589 0.0986 0.047 0.13635 0.03243 0.0199 0.07811 0.0199 0.08539 0 0.16084-0.0708 0.07546-0.0715 0.14694-0.28925-0.05362 0.0629-0.11782 0.0887-0.06354 0.0252-0.13106 0.0252-0.13702 0-0.19857-0.0854-0.06156-0.0854-0.0331-0.21976 0.02714-0.12907 0.12643-0.22703 0.09995-0.098 0.25351-0.098 0.20718 0 0.24623 0.18666 0.02184 0.1026-0.01059 0.25683-0.03707 0.17408-0.11782 0.30845-0.13437 0.22373-0.34155 0.22373-0.139 0-0.19593-0.0728-0.05626-0.0728-0.0331-0.18269zm0.45474-0.40443q0.02251-0.10458-0.01986-0.15555-0.0417-0.0516-0.12312-0.0516-0.08737 0-0.15092 0.0589-0.06354 0.0583-0.08473 0.15621-0.01919 0.0927 0.0139 0.14761 0.03376 0.0543 0.13238 0.0543 0.07082 0 0.139-0.0463 0.06884-0.047 0.09333-0.16349z"/>
   <path id="bq" d="m70.721 150.29h0.12444q-0.01191 0.092 6e-3 0.1337 0.03045 0.0748 0.15158 0.0748 0.09399 0 0.16151-0.0503 0.06752-0.0503 0.08472-0.12973 0.02052-0.098-0.03111-0.13702-0.05163-0.0391-0.1582-0.0391-0.01192 0-0.02449 6.6e-4 -0.01191 0-0.02449 6.6e-4l0.0225-0.10524q0.01787 2e-3 0.03045 3e-3 0.01258 6.6e-4 0.02714 6.6e-4 0.06685 0 0.11451-0.0212 0.08274-0.0371 0.10326-0.13238 0.01522-0.0708-0.02714-0.10922-0.04236-0.0384-0.10922-0.0384-0.11914 0-0.18136 0.0794-0.03442 0.0437-0.05494 0.12444h-0.11782q0.0225-0.10591 0.08075-0.18004 0.10061-0.13239 0.28396-0.13239 0.14496 0 0.21049 0.0649 0.06619 0.0642 0.04038 0.18666-0.01919 0.0874-0.07744 0.14165-0.03641 0.0338-0.08671 0.0529 0.07016 0.0205 0.09995 0.0794 0.02979 0.0583 0.01191 0.14298-0.02912 0.13569-0.13702 0.22108-0.10723 0.0854-0.27138 0.0854-0.16813 0-0.22439-0.092-0.0556-0.0927-0.0278-0.22505z"/>
  </g>
 </g>
 <path id="br" d="m2.652 2.08h19.306v19.306h-19.306z" fill="#f00"/>
 <path id="bs" d="m23.842 18.43v0.46456h0.77587v0.61038h0.40316v-0.60298h0.2813v0.60299h0.44003v-1.075z" fill="#a2a093"/>
 <path id="bt" d="m25.742 19.94v0.46456c-0.5631 0-0.77097 7e-3 -1.4603 7e-3v0.60299h-0.44003v-1.075z" fill="#a2a093"/>
 <path id="bu" d="m25.614 16.91a0.76757 0.76757 0 0 1-0.76757 0.76757 0.76757 0.76757 0 0 1-0.76757-0.76757 0.76757 0.76757 0 0 1 0.76757-0.76757 0.76757 0.76757 0 0 1 0.76757 0.76757z" fill="none" stroke="#a2a093" stroke-width=".47199"/>
 <circle id="bv" cx="666.08" cy="-54.556" r="0" fill="#0f0"/>
 <g id="bw" transform="translate(-51.816,-126.2)" fill="#a2a093">
  <path id="bx" d="m76.662 147.45c-0.55146 0-1.0035 0.45213-1.0035 1.0036 0 0.20557 0.06285 0.39731 0.17022 0.557l0.40818-0.23564c-0.06693-0.0889-0.1064-0.19998-0.1064-0.32136 0-0.29638 0.23515-0.5316 0.53152-0.5316 0.29638 0 0.53158 0.23522 0.53158 0.5316 0 0.14343-0.0552 0.27241-0.14564 0.36746l0.41251 0.23818c0.12851-0.16869 0.20511-0.37874 0.20511-0.60564 0-0.55146-0.45211-1.0036-1.0036-1.0036z" color="#000000" color-rendering="auto" dominant-baseline="auto" image-rendering="auto" shape-rendering="auto" solid-color="#000000" style="font-feature-settings:normal;font-variant-alternates:normal;font-variant-caps:normal;font-variant-ligatures:normal;font-variant-numeric:normal;font-variant-position:normal;isolation:auto;mix-blend-mode:normal;shape-padding:0;text-decoration-color:#000000;text-decoration-line:none;text-decoration-style:solid;text-indent:0;text-orientation:mixed;text-transform:none;white-space:normal"/>
  <path id="by" d="m75.658 131.88v0.46456h0.77587v0.61038h0.40316v-0.60298h0.2813v0.60299h0.44003v-1.075z"/>
  <path id="bz" d="m77.558 133.39v0.46456c-0.5631 0-0.77097 7e-3 -1.4603 7e-3v0.60299h-0.44003v-1.075z"/>
 </g>
 <path id="ca" d="m25.614 4.16a0.76757 0.76757 0 0 1-0.76757 0.76757 0.76757 0.76757 0 0 1-0.76757-0.76757 0.76757 0.76757 0 0 1 0.76757-0.76757 0.76757 0.76757 0 0 1 0.76757 0.76757z" fill="none" stroke="#a2a093" stroke-width=".47199"/>
 <path id="cb" d="m24.846 8.5c-0.55146 0-1.0035 0.45213-1.0035 1.0036 0 0.20557 0.06285 0.39731 0.17022 0.557l0.40818-0.23564c-0.06693-0.0889-0.1064-0.19998-0.1064-0.32136 0-0.29638 0.23515-0.5316 0.53152-0.5316 0.29638 0 0.53158 0.23522 0.53158 0.5316 0 0.14343-0.0552 0.27241-0.14564 0.36746l0.41251 0.23818c0.12851-0.16869 0.20511-0.37874 0.20511-0.60564 0-0.55146-0.45211-1.0036-1.0036-1.0036z" color="#000000" color-rendering="auto" dominant-baseline="auto" fill="#a2a093" image-rendering="auto" shape-rendering="auto" solid-color="#000000" style="font-feature-settings:normal;font-variant-alternates:normal;font-variant-caps:normal;font-variant-ligatures:normal;font-variant-numeric:normal;font-variant-position:normal;isolation:auto;mix-blend-mode:normal;shape-padding:0;text-decoration-color:#000000;text-decoration-line:none;text-decoration-style:solid;text-indent:0;text-orientation:mixed;text-transform:none;white-space:normal"/>
 <path id="cc" d="m3.817 0.13h47.76c2.0412 0 3.6845 1.6433 3.6845 3.6845v17.631c0 2.0412-1.6433 3.6845-3.6845 3.6845h-47.76c-2.0412 0-3.6845-1.6433-3.6845-3.6845v-17.631c0-2.0412 1.6433-3.6845 3.6845-3.6845z" fill="none" stroke="#000" stroke-width=".26458"/>
 <g id="cd" transform="translate(-51.816 -126.2)">
  <g id="ce" transform="scale(.95445 1.0477)" stroke-width=".25253" aria-label="RP 13">
   <path id="cf" d="m61.692 124.44v2.0834h1.8361q0.54716 0 0.82074-0.12626 0.48402-0.22097 0.48402-0.87335 0-0.70499-0.46824-0.947-0.26306-0.13679-0.78917-0.13679zm2.2202-1.3468q0.81547 0.0158 1.2521 0.19993 0.44193 0.18414 0.74708 0.54189 0.25253 0.29462 0.39985 0.65238 0.14731 0.35776 0.14731 0.81547 0 0.55242-0.27884 1.0891-0.27884 0.53137-0.9207 0.75234 0.53664 0.2157 0.7576 0.61555 0.22623 0.39458 0.22623 1.2101v0.52085q0 0.53137 0.04209 0.72077 0.06313 0.29989 0.29462 0.44194v0.19466h-1.7835q-0.07366-0.2578-0.10522-0.41563-0.06313-0.32619-0.06839-0.66816l-0.01052-0.72078q-0.01052-0.74182-0.27358-0.98909-0.2578-0.24727-0.97331-0.24727h-1.673v3.0409h-1.5836v-7.7549z"/>
   <path id="cg" d="m72.648 125.56q0-0.60503-0.32093-0.86282-0.31567-0.2578-0.88913-0.2578h-1.5099v2.2833h1.5099q0.57346 0 0.88913-0.27884 0.32093-0.27884 0.32093-0.88387zm1.6046-0.0105q0 1.3732-0.69447 1.9414t-1.9834 0.5682h-1.6467v2.7884h-1.6099v-7.7549h3.3776q1.168 0 1.8624 0.59977t0.69447 1.8572z"/>
   <path id="ch" d="m61.489 134.74v-1.0207q0.71025-0.0316 0.99435-0.0947 0.45246-0.1 0.73656-0.39985 0.19466-0.20518 0.29462-0.54715 0.05787-0.20519 0.05787-0.30515h1.2469v7.6286h-1.5362v-5.2611z"/>
   <path id="ci" d="m68.921 137.66q0 0.45772 0.14731 0.7576 0.27358 0.55242 0.99435 0.55242 0.44193 0 0.76812-0.29989 0.33145-0.30514 0.33145-0.87334 0-0.75234-0.61029-1.0049-0.34723-0.14205-1.0943-0.14205v-1.0733q0.7313-0.0105 1.0207-0.14205 0.49981-0.22096 0.49981-0.89439 0-0.43667-0.2578-0.71025-0.25253-0.27358-0.71551-0.27358-0.53137 0-0.78391 0.33672-0.24727 0.33671-0.23675 0.89965h-1.3995q0.02104-0.5682 0.19466-1.0785 0.18414-0.4472 0.57872-0.826 0.29462-0.26832 0.69973-0.41037t0.99435-0.14205q1.0943 0 1.7625 0.5682 0.67342 0.56294 0.67342 1.5152 0 0.67342-0.39984 1.1364-0.25253 0.28936-0.52611 0.39458 0.20518 0 0.58925 0.3525 0.57346 0.53137 0.57346 1.4521 0 0.96805-0.67342 1.7046-0.66816 0.7313-1.9834 0.7313-1.6204 0-2.2518-1.0575-0.33145-0.56294-0.36828-1.4731z"/>
  </g>
 </g>
 <g id="cj" transform="matrix(.0098231 0 0 .0098231 -1.5141 19.834)" aria-label="Restricted to persons 13 Years and over unless accompanied by a Parent/Guardian.">
  <path id="ck" d="m3067.2-1587.7q18.266 0 28.834-7.3063 10.698-7.3062 10.698-26.355 0-20.484-14.874-27.92-7.9586-3.914-21.266-3.914h-63.408v65.495zm-85.979-87.806h88.719q21.919 0 36.14 6.393 27.007 12.264 27.007 45.273 0 17.222-7.1758 28.181-7.0453 10.959-19.831 17.613 11.22 4.5664 16.83 12.003 5.7406 7.4367 6.393 24.137l0.9133 25.702q0.3914 10.959 1.8265 16.309 2.3485 9.1328 8.35 11.742v4.3055h-31.834q-1.3046-2.4789-2.0875-6.393-0.7828-3.914-1.3046-15.134l-1.5657-31.965q-0.9132-18.788-13.96-25.18-7.4367-3.5227-23.354-3.5227h-59.102v82.195h-25.963z"/>
  <path id="cl" d="m3216.7-1626.7q14.873 0 28.834 7.0453 13.96 6.9149 21.266 18.005 7.0453 10.568 9.3938 24.659 2.0875 9.6547 2.0875 30.791h-102.42q0.6523 21.266 10.046 34.183 9.3937 12.786 29.094 12.786 18.396 0 29.356-12.134 6.2625-7.0453 8.8719-16.309h23.093q-0.9133 7.6977-6.132 17.222-5.0883 9.3937-11.481 15.395-10.698 10.438-26.485 14.091-8.4805 2.0875-19.179 2.0875-26.094 0-44.229-18.918-18.135-19.048-18.135-53.231 0-33.661 18.266-54.666 18.266-21.006 47.752-21.006zm37.444 61.842q-1.4351-15.265-6.6539-24.398-9.6547-16.961-32.226-16.961-16.178 0-27.138 11.742-10.959 11.612-11.612 29.616z"/>
  <path id="cm" d="m3311.6-1527.7q1.0438 11.742 5.8711 18.005 8.8719 11.351 30.791 11.351 13.047 0 22.962-5.6102 9.9157-5.7406 9.9157-17.613 0-9.0023-7.9586-13.699-5.0883-2.8703-20.092-6.6539l-18.657-4.6969q-17.874-4.4359-26.355-9.9156-15.134-9.5242-15.134-26.355 0-19.831 14.221-32.095 14.352-12.264 38.488-12.264 31.573 0 45.534 18.526 8.7414 11.742 8.4804 25.311h-22.18q-0.6523-7.9586-5.6101-14.482-8.0891-9.2633-28.051-9.2633-13.308 0-20.223 5.0883-6.7844 5.0883-6.7844 13.438 0 9.1328 9.0023 14.612 5.2188 3.2617 15.395 5.7406l15.526 3.7836q25.311 6.1321 33.922 11.873 13.699 9.0023 13.699 28.312 0 18.657-14.221 32.226-14.091 13.569-43.055 13.569-31.182 0-44.229-14.091-12.916-14.221-13.83-35.096z"/>
  <path id="cn" d="m3426.5-1662.6h23.745v39.01h22.31v19.179h-22.31v91.198q0 7.3063 4.9578 9.7852 2.7398 1.4352 9.1328 1.4352 1.6961 0 3.6531 0 1.9571-0.1305 4.5664-0.3914v18.526q-4.0445 1.1742-8.4804 1.6961-4.3055 0.5219-9.3938 0.5219-16.439 0-22.31-8.35-5.8711-8.4805-5.8711-21.919v-92.502h-18.918v-19.179h18.918z"/>
  <path id="co" d="m3487.3-1623.6h22.31v24.137q2.7399-7.0453 13.438-17.091 10.698-10.177 24.659-10.177 0.6524 0 2.218 0.1305t5.3492 0.5219v24.789q-2.0875-0.3914-3.9141-0.5218-1.6961-0.1305-3.7836-0.1305-17.744 0-27.268 11.481-9.5243 11.351-9.5243 26.224v80.369h-23.484z"/>
  <path id="cp" d="m3566.2-1622.9h23.876v139.08h-23.876zm0-52.579h23.876v26.616h-23.876z"/>
  <path id="cq" d="m3670-1627.6q23.615 0 38.358 11.481 14.873 11.481 17.874 39.532h-22.832q-2.0875-12.916-9.5242-21.397-7.4368-8.611-23.876-8.611-22.441 0-32.095 21.919-6.2625 14.221-6.2625 35.096 0 21.005 8.8718 35.357 8.8719 14.352 27.92 14.352 14.612 0 23.093-8.8719 8.611-9.0024 11.873-24.528h22.832q-3.9141 27.79-19.57 40.706-15.656 12.786-40.054 12.786-27.398 0-43.707-19.962-16.309-20.092-16.309-50.1 0-36.792 17.874-57.276t45.534-20.484z"/>
  <path id="cr" d="m3745-1662.6h23.745v39.01h22.31v19.179h-22.31v91.198q0 7.3063 4.9578 9.7852 2.7398 1.4352 9.1328 1.4352 1.6961 0 3.6531 0 1.957-0.1305 4.5664-0.3914v18.526q-4.0445 1.1742-8.4805 1.6961-4.3054 0.5219-9.3937 0.5219-16.439 0-22.31-8.35-5.8711-8.4805-5.8711-21.919v-92.502h-18.918v-19.179h18.918z"/>
  <path id="cs" d="m3863.3-1626.7q14.873 0 28.834 7.0453 13.96 6.9149 21.266 18.005 7.0453 10.568 9.3938 24.659 2.0875 9.6547 2.0875 30.791h-102.42q0.6523 21.266 10.046 34.183 9.3937 12.786 29.094 12.786 18.396 0 29.356-12.134 6.2625-7.0453 8.8719-16.309h23.093q-0.9133 7.6977-6.132 17.222-5.0883 9.3937-11.481 15.395-10.698 10.438-26.485 14.091-8.4805 2.0875-19.179 2.0875-26.094 0-44.229-18.918-18.135-19.048-18.135-53.231 0-33.661 18.266-54.666 18.266-21.006 47.752-21.006zm37.444 61.842q-1.4351-15.265-6.6539-24.398-9.6547-16.961-32.226-16.961-16.178 0-27.138 11.742-10.959 11.612-11.612 29.616z"/>
  <path id="ct" d="m3959.2-1552.1q0 22.441 9.5242 37.575 9.5242 15.134 30.53 15.134 16.309 0 26.746-13.96 10.568-14.091 10.568-40.315 0-26.485-10.829-39.141-10.829-12.786-26.746-12.786-17.744 0-28.834 13.569-10.959 13.569-10.959 39.924zm35.357-73.976q16.048 0 26.877 6.7843 6.2625 3.9141 14.221 13.699v-70.584h22.571v192.31h-21.136v-19.44q-8.2195 12.916-19.44 18.657t-25.702 5.7406q-23.354 0-40.445-19.57-17.091-19.701-17.091-52.318 0-30.53 15.526-52.84 15.656-22.441 44.62-22.441z"/>
  <path id="cu" d="m4153-1662.6h23.745v39.01h22.31v19.179h-22.31v91.198q0 7.3063 4.9578 9.7852 2.7398 1.4352 9.1328 1.4352 1.6961 0 3.6531 0 1.957-0.1305 4.5664-0.3914v18.526q-4.0445 1.1742-8.4805 1.6961-4.3054 0.5219-9.3937 0.5219-16.439 0-22.31-8.35-5.8711-8.4805-5.8711-21.919v-92.502h-18.918v-19.179h18.918z"/>
  <path id="cv" d="m4268.5-1499q23.354 0 31.965-17.613 8.7414-17.744 8.7414-39.402 0-19.57-6.2625-31.834-9.9156-19.309-34.183-19.309-21.527 0-31.312 16.439-9.7852 16.439-9.7852 39.662 0 22.31 9.7852 37.184 9.7851 14.873 31.052 14.873zm0.9133-128.64q27.007 0 45.664 18.005 18.657 18.005 18.657 52.97 0 33.791-16.439 55.841-16.439 22.049-51.013 22.049-28.834 0-45.795-19.44-16.961-19.57-16.961-52.448 0-35.227 17.874-56.102t48.012-20.875z"/>
  <path id="cw" d="m4476-1499.6q16.439 0 27.268-13.699 10.959-13.83 10.959-41.228 0-16.7-4.8274-28.703-9.1328-23.093-33.4-23.093-24.398 0-33.4 24.398-4.8273 13.047-4.8273 33.139 0 16.178 4.8273 27.529 9.1328 21.658 33.4 21.658zm-60.798-123.29h22.832v18.527q7.0453-9.5242 15.395-14.743 11.873-7.8281 27.92-7.8281 23.745 0 40.315 18.266 16.57 18.135 16.57 51.927 0 45.664-23.876 65.234-15.134 12.394-35.226 12.394-15.787 0-26.485-6.9149-6.2625-3.914-13.96-13.438v71.366h-23.484z"/>
  <path id="cx" d="m4614.4-1626.7q14.873 0 28.834 7.0453 13.96 6.9149 21.266 18.005 7.0453 10.568 9.3937 24.659 2.0875 9.6547 2.0875 30.791h-102.42q0.6524 21.266 10.046 34.183 9.3938 12.786 29.095 12.786 18.396 0 29.355-12.134 6.2625-7.0453 8.8719-16.309h23.093q-0.9133 7.6977-6.132 17.222-5.0883 9.3937-11.481 15.395-10.698 10.438-26.485 14.091-8.4804 2.0875-19.179 2.0875-26.094 0-44.229-18.918-18.135-19.048-18.135-53.231 0-33.661 18.266-54.666t47.752-21.006zm37.444 61.842q-1.4352-15.265-6.6539-24.398-9.6547-16.961-32.226-16.961-16.178 0-27.138 11.742-10.959 11.612-11.612 29.616z"/>
  <path id="cy" d="m4696.1-1623.6h22.31v24.137q2.7399-7.0453 13.438-17.091 10.698-10.177 24.659-10.177 0.6524 0 2.218 0.1305t5.3492 0.5219v24.789q-2.0875-0.3914-3.9141-0.5218-1.6961-0.1305-3.7836-0.1305-17.744 0-27.268 11.481-9.5242 11.351-9.5242 26.224v80.369h-23.484z"/>
  <path id="cz" d="m4788.9-1527.7q1.0438 11.742 5.8711 18.005 8.8719 11.351 30.791 11.351 13.047 0 22.962-5.6102 9.9156-5.7406 9.9156-17.613 0-9.0023-7.9585-13.699-5.0883-2.8703-20.092-6.6539l-18.657-4.6969q-17.874-4.4359-26.355-9.9156-15.134-9.5242-15.134-26.355 0-19.831 14.221-32.095 14.352-12.264 38.488-12.264 31.574 0 45.534 18.526 8.7414 11.742 8.4805 25.311h-22.18q-0.6523-7.9586-5.6101-14.482-8.0891-9.2633-28.051-9.2633-13.308 0-20.223 5.0883-6.7843 5.0883-6.7843 13.438 0 9.1328 9.0023 14.612 5.2187 3.2617 15.395 5.7406l15.526 3.7836q25.311 6.1321 33.922 11.873 13.699 9.0023 13.699 28.312 0 18.657-14.221 32.226-14.091 13.569-43.055 13.569-31.182 0-44.229-14.091-12.916-14.221-13.83-35.096z"/>
  <path id="da" d="m4954.6-1499q23.354 0 31.965-17.613 8.7414-17.744 8.7414-39.402 0-19.57-6.2625-31.834-9.9156-19.309-34.183-19.309-21.527 0-31.312 16.439-9.7851 16.439-9.7851 39.662 0 22.31 9.7851 37.184 9.7852 14.873 31.052 14.873zm0.9133-128.64q27.007 0 45.664 18.005 18.657 18.005 18.657 52.97 0 33.791-16.439 55.841t-51.013 22.049q-28.834 0-45.794-19.44-16.961-19.57-16.961-52.448 0-35.227 17.874-56.102t48.012-20.875z"/>
  <path id="db" d="m5038.3-1623.6h22.31v19.831q9.9156-12.264 21.006-17.613 11.09-5.3492 24.659-5.3492 29.747 0 40.184 20.745 5.7406 11.351 5.7406 32.487v89.632h-23.876v-88.066q0-12.786-3.7836-20.614-6.2625-13.047-22.702-13.047-8.35 0-13.699 1.6961-9.6547 2.8703-16.961 11.481-5.8711 6.9149-7.6977 14.352-1.6961 7.3062-1.6961 21.005v73.193h-23.484z"/>
  <path id="dc" d="m5191.5-1527.7q1.0438 11.742 5.8711 18.005 8.8719 11.351 30.791 11.351 13.047 0 22.962-5.6102 9.9157-5.7406 9.9157-17.613 0-9.0023-7.9586-13.699-5.0883-2.8703-20.092-6.6539l-18.657-4.6969q-17.874-4.4359-26.355-9.9156-15.134-9.5242-15.134-26.355 0-19.831 14.221-32.095 14.352-12.264 38.488-12.264 31.573 0 45.534 18.526 8.7414 11.742 8.4804 25.311h-22.18q-0.6523-7.9586-5.6101-14.482-8.0891-9.2633-28.051-9.2633-13.308 0-20.223 5.0883-6.7843 5.0883-6.7843 13.438 0 9.1328 9.0023 14.612 5.2188 3.2617 15.395 5.7406l15.526 3.7836q25.311 6.1321 33.922 11.873 13.699 9.0023 13.699 28.312 0 18.657-14.221 32.226-14.091 13.569-43.055 13.569-31.182 0-44.229-14.091-12.916-14.221-13.83-35.096z"/>
  <path id="dd" d="m2983.3-1324.4v-18.005q25.441-2.4789 35.488-8.2196 10.046-5.871 15.004-27.529h18.527v186.05h-25.05v-132.3z"/>
  <path id="de" d="m3160.9-1187q-33.139 0-48.143-18.135-14.873-18.266-14.873-44.359h24.528q1.5656 18.135 6.7844 26.355 9.1328 14.743 33.009 14.743 18.527 0 29.747-9.9156 11.22-9.9157 11.22-25.572 0-19.309-11.873-27.007-11.742-7.6977-32.748-7.6977-2.3485 0-4.8274 0.1305-2.3484 0-4.8273 0.1304v-20.744q3.6531 0.3914 6.132 0.5219t5.3492 0.1305q13.177 0 21.658-4.175 14.874-7.3063 14.874-26.094 0-13.96-9.9156-21.527-9.9157-7.5672-23.093-7.5672-23.484 0-32.487 15.656-4.9578 8.611-5.6102 24.528h-23.223q0-20.875 8.35-35.488 14.352-26.094 50.491-26.094 28.573 0 44.229 12.786 15.656 12.656 15.656 36.792 0 17.222-9.2632 27.92-5.7407 6.6539-14.874 10.438 14.743 4.0446 22.962 15.656 8.35 11.481 8.35 28.181 0 26.746-17.613 43.577-17.613 16.83-49.97 16.83z"/>
  <path id="df" d="m3286.5-1383.7h30.269l55.058 92.111 55.058-92.111h30.399l-72.41 114.42v77.238h-25.963v-77.238z"/>
  <path id="dg" d="m3519.8-1334.9q14.874 0 28.834 7.0453 13.96 6.9149 21.266 18.005 7.0453 10.568 9.3938 24.659 2.0875 9.6547 2.0875 30.791h-102.42q0.6524 21.266 10.046 34.183 9.3938 12.786 29.094 12.786 18.396 0 29.356-12.134 6.2625-7.0453 8.8719-16.309h23.093q-0.9133 7.6976-6.1321 17.222-5.0883 9.3937-11.481 15.395-10.698 10.438-26.485 14.091-8.4805 2.0875-19.179 2.0875-26.094 0-44.229-18.918-18.135-19.048-18.135-53.231 0-33.661 18.266-54.666 18.266-21.006 47.752-21.006zm37.445 61.842q-1.4352-15.265-6.6539-24.398-9.6547-16.961-32.226-16.961-16.178 0-27.138 11.742-10.959 11.612-11.612 29.616z"/>
  <path id="dh" d="m3613.5-1229.3q0 10.177 7.4367 16.048 7.4367 5.8711 17.613 5.8711 12.394 0 24.006-5.7406 19.57-9.5242 19.57-31.182v-18.918q-4.3055 2.7399-11.09 4.5664-6.7844 1.8266-13.308 2.6094l-14.221 1.8266q-12.786 1.6961-19.179 5.3492-10.829 6.132-10.829 19.57zm56.884-47.491q8.089-1.0438 10.829-6.7844 1.5656-3.1313 1.5656-9.0024 0-12.003-8.6109-17.352-8.4805-5.4797-24.398-5.4797-18.396 0-26.094 9.9156-4.3054 5.4797-5.6101 16.309h-21.919q0.6524-25.833 16.7-35.879 16.178-10.176 37.445-10.176 24.659 0 40.054 9.3937 15.265 9.3938 15.265 29.225v80.499q0 3.6532 1.4352 5.8711 1.5656 2.218 6.393 2.218 1.5656 0 3.5226-0.1305 1.957-0.2609 4.175-0.6523v17.352q-5.4797 1.5657-8.35 1.9571t-7.8281 0.3914q-12.134 0-17.613-8.611-2.8703-4.5664-4.0445-12.916-7.1758 9.3938-20.614 16.309-13.438 6.9149-29.616 6.9149-19.44 0-31.834-11.742-12.264-11.873-12.264-29.616 0-19.44 12.134-30.138 12.134-10.698 31.834-13.177z"/>
  <path id="di" d="m3729.9-1331.8h22.31v24.137q2.7398-7.0453 13.438-17.091 10.698-10.177 24.659-10.177 0.6523 0 2.2179 0.1305 1.5657 0.1304 5.3493 0.5218v24.789q-2.0875-0.3914-3.9141-0.5219-1.6961-0.1304-3.7836-0.1304-17.744 0-27.268 11.481-9.5242 11.351-9.5242 26.224v80.369h-23.484z"/>
  <path id="dj" d="m3817.4-1235.9q1.0437 11.742 5.8711 18.005 8.8718 11.351 30.791 11.351 13.047 0 22.962-5.6102 9.9156-5.7406 9.9156-17.613 0-9.0023-7.9586-13.699-5.0883-2.8703-20.092-6.6539l-18.657-4.6969q-17.874-4.4359-26.355-9.9156-15.134-9.5242-15.134-26.355 0-19.831 14.221-32.095 14.352-12.264 38.488-12.264 31.574 0 45.534 18.527 8.7414 11.742 8.4805 25.311h-22.18q-0.6523-7.9586-5.6102-14.482-8.089-9.2633-28.051-9.2633-13.308 0-20.223 5.0883-6.7844 5.0883-6.7844 13.438 0 9.1328 9.0024 14.612 5.2187 3.2617 15.395 5.7406l15.526 3.7836q25.311 6.132 33.922 11.873 13.699 9.0023 13.699 28.312 0 18.657-14.221 32.226-14.091 13.569-43.055 13.569-31.182 0-44.229-14.091-12.916-14.221-13.83-35.096z"/>
  <path id="dk" d="m3999.6-1229.3q0 10.177 7.4368 16.048 7.4367 5.8711 17.613 5.8711 12.395 0 24.006-5.7406 19.57-9.5242 19.57-31.182v-18.918q-4.3055 2.7399-11.09 4.5664-6.7844 1.8266-13.308 2.6094l-14.221 1.8266q-12.786 1.6961-19.179 5.3492-10.829 6.132-10.829 19.57zm56.884-47.491q8.0891-1.0438 10.829-6.7844 1.5657-3.1313 1.5657-9.0024 0-12.003-8.611-17.352-8.4805-5.4797-24.398-5.4797-18.396 0-26.094 9.9156-4.3055 5.4797-5.6101 16.309h-21.919q0.6523-25.833 16.7-35.879 16.178-10.176 37.444-10.176 24.659 0 40.054 9.3937 15.265 9.3938 15.265 29.225v80.499q0 3.6532 1.4351 5.8711 1.5657 2.218 6.393 2.218 1.5656 0 3.5227-0.1305 1.957-0.2609 4.175-0.6523v17.352q-5.4797 1.5657-8.35 1.9571t-7.8282 0.3914q-12.134 0-17.613-8.611-2.8704-4.5664-4.0446-12.916-7.1758 9.3938-20.614 16.309-13.438 6.9149-29.616 6.9149-19.44 0-31.834-11.742-12.264-11.873-12.264-29.616 0-19.44 12.134-30.138 12.134-10.698 31.834-13.177z"/>
  <path id="dl" d="m4115.4-1331.8h22.31v19.831q9.9156-12.264 21.006-17.613 11.09-5.3492 24.659-5.3492 29.747 0 40.184 20.744 5.7407 11.351 5.7407 32.487v89.632h-23.876v-88.066q0-12.786-3.7836-20.614-6.2625-13.047-22.702-13.047-8.35 0-13.699 1.6961-9.6547 2.8703-16.961 11.481-5.8711 6.9148-7.6977 14.352-1.6961 7.3063-1.6961 21.006v73.193h-23.484z"/>
  <path id="dm" d="m4264.1-1260.3q0 22.441 9.5242 37.575 9.5242 15.134 30.53 15.134 16.309 0 26.746-13.96 10.568-14.091 10.568-40.315 0-26.485-10.829-39.141-10.829-12.786-26.746-12.786-17.744 0-28.834 13.569-10.959 13.569-10.959 39.923zm35.357-73.976q16.048 0 26.877 6.7844 6.2625 3.9141 14.221 13.699v-70.584h22.571v192.31h-21.136v-19.44q-8.2195 12.916-19.44 18.657-11.22 5.7406-25.702 5.7406-23.354 0-40.445-19.57-17.091-19.701-17.091-52.318 0-30.53 15.526-52.84 15.656-22.441 44.62-22.441z"/>
  <path id="dn" d="m4497.9-1207.2q23.354 0 31.965-17.613 8.7414-17.744 8.7414-39.402 0-19.57-6.2625-31.834-9.9156-19.309-34.183-19.309-21.527 0-31.312 16.439-9.7852 16.439-9.7852 39.662 0 22.31 9.7852 37.184 9.7851 14.873 31.052 14.873zm0.9133-128.64q27.007 0 45.664 18.005t18.657 52.97q0 33.791-16.439 55.841-16.439 22.049-51.013 22.049-28.834 0-45.795-19.44-16.961-19.57-16.961-52.448 0-35.227 17.874-56.102t48.012-20.875z"/>
  <path id="do" d="m4587.7-1331.8 37.314 113.77 39.01-113.77h25.702l-52.709 139.73h-25.05l-51.535-139.73z"/>
  <path id="dp" d="m4753.2-1334.9q14.873 0 28.834 7.0453 13.96 6.9149 21.266 18.005 7.0453 10.568 9.3937 24.659 2.0875 9.6547 2.0875 30.791h-102.42q0.6523 21.266 10.046 34.183 9.3938 12.786 29.095 12.786 18.396 0 29.356-12.134 6.2625-7.0453 8.8718-16.309h23.093q-0.9133 7.6976-6.132 17.222-5.0883 9.3937-11.481 15.395-10.698 10.438-26.485 14.091-8.4805 2.0875-19.179 2.0875-26.094 0-44.229-18.918-18.135-19.048-18.135-53.231 0-33.661 18.266-54.666 18.266-21.006 47.752-21.006zm37.444 61.842q-1.4351-15.265-6.6539-24.398-9.6547-16.961-32.226-16.961-16.178 0-27.138 11.742-10.959 11.612-11.612 29.616z"/>
  <path id="dq" d="m4829.4-1331.8h22.31v24.137q2.7398-7.0453 13.438-17.091 10.698-10.177 24.659-10.177 0.6523 0 2.218 0.1305 1.5656 0.1304 5.3492 0.5218v24.789q-2.0875-0.3914-3.9141-0.5219-1.6961-0.1304-3.7836-0.1304-17.744 0-27.268 11.481-9.5242 11.351-9.5242 26.224v80.369h-23.484z"/>
  <path id="dr" d="m2998.4-1040v92.763q0 10.698 3.3922 17.483 6.2625 12.525 23.354 12.525 24.528 0 33.4-21.919 4.8274-11.742 4.8274-32.226v-68.627h23.484v139.73h-22.18l0.261-20.614q-4.5664 7.9586-11.351 13.438-13.438 10.959-32.617 10.959-29.877 0-40.706-19.962-5.8711-10.698-5.8711-28.573v-94.981z"/>
  <path id="ds" d="m3112.2-1040h22.31v19.831q9.9156-12.264 21.006-17.613 11.09-5.3492 24.659-5.3492 29.747 0 40.184 20.744 5.7407 11.351 5.7407 32.487v89.632h-23.876v-88.066q0-12.786-3.7836-20.614-6.2625-13.047-22.702-13.047-8.35 0-13.699 1.6961-9.6547 2.8703-16.961 11.481-5.8711 6.9148-7.6977 14.352-1.6961 7.3062-1.6961 21.005v73.193h-23.484z"/>
  <path id="dt" d="m3250.2-1091.9h23.484v191.66h-23.484z"/>
  <path id="du" d="m3355.8-1043.2q14.874 0 28.834 7.0453 13.96 6.9148 21.266 18.005 7.0454 10.568 9.3938 24.659 2.0875 9.6547 2.0875 30.791h-102.42q0.6524 21.266 10.046 34.183 9.3938 12.786 29.094 12.786 18.396 0 29.356-12.134 6.2625-7.0453 8.8719-16.309h23.093q-0.9133 7.6976-6.1321 17.222-5.0882 9.3938-11.481 15.395-10.698 10.438-26.485 14.091-8.4804 2.0875-19.179 2.0875-26.094 0-44.229-18.918-18.135-19.048-18.135-53.231 0-33.661 18.266-54.666 18.266-21.005 47.752-21.005zm37.445 61.842q-1.4352-15.265-6.6539-24.398-9.6547-16.961-32.226-16.961-16.178 0-27.138 11.742-10.959 11.612-11.612 29.616z"/>
  <path id="dv" d="m3448.8-944.13q1.0438 11.742 5.8711 18.005 8.8719 11.351 30.791 11.351 13.047 0 22.962-5.6102 9.9157-5.7406 9.9157-17.613 0-9.0024-7.9586-13.699-5.0883-2.8703-20.092-6.6539l-18.657-4.6969q-17.874-4.4359-26.355-9.9156-15.134-9.5242-15.134-26.355 0-19.831 14.221-32.095 14.352-12.264 38.488-12.264 31.573 0 45.534 18.527 8.7414 11.742 8.4804 25.311h-22.18q-0.6523-7.9586-5.6101-14.482-8.0891-9.2633-28.051-9.2633-13.308 0-20.223 5.0883-6.7844 5.0882-6.7844 13.438 0 9.1329 9.0023 14.613 5.2188 3.2617 15.395 5.7406l15.526 3.7836q25.311 6.132 33.922 11.873 13.699 9.0024 13.699 28.312 0 18.657-14.221 32.226-14.091 13.569-43.055 13.569-31.182 0-44.229-14.091-12.916-14.221-13.83-35.096z"/>
  <path id="dw" d="m3571.1-944.13q1.0438 11.742 5.8711 18.005 8.8719 11.351 30.791 11.351 13.047 0 22.962-5.6102 9.9157-5.7406 9.9157-17.613 0-9.0024-7.9586-13.699-5.0883-2.8703-20.092-6.6539l-18.657-4.6969q-17.874-4.4359-26.355-9.9156-15.134-9.5242-15.134-26.355 0-19.831 14.221-32.095 14.352-12.264 38.488-12.264 31.573 0 45.534 18.527 8.7414 11.742 8.4804 25.311h-22.18q-0.6523-7.9586-5.6101-14.482-8.0891-9.2633-28.051-9.2633-13.308 0-20.223 5.0883-6.7843 5.0882-6.7843 13.438 0 9.1329 9.0023 14.613 5.2188 3.2617 15.395 5.7406l15.526 3.7836q25.311 6.132 33.922 11.873 13.699 9.0024 13.699 28.312 0 18.657-14.221 32.226-14.091 13.569-43.055 13.569-31.182 0-44.229-14.091-12.916-14.221-13.83-35.096z"/>
  <path id="dx" d="m3760.4-937.47q0 10.177 7.4367 16.048 7.4368 5.8711 17.613 5.8711 12.395 0 24.006-5.7406 19.57-9.5242 19.57-31.182v-18.918q-4.3055 2.7398-11.09 4.5664-6.7843 1.8266-13.308 2.6094l-14.221 1.8266q-12.786 1.6961-19.179 5.3492-10.829 6.132-10.829 19.57zm56.884-47.491q8.0891-1.0438 10.829-6.7844 1.5656-3.1312 1.5656-9.0024 0-12.003-8.6109-17.352-8.4805-5.4797-24.398-5.4797-18.396 0-26.094 9.9156-4.3055 5.4797-5.6102 16.309h-21.919q0.6523-25.833 16.7-35.879 16.178-10.177 37.444-10.177 24.659 0 40.054 9.3938 15.265 9.3937 15.265 29.225v80.499q0 3.6531 1.4351 5.8711 1.5657 2.218 6.393 2.218 1.5656 0 3.5227-0.13047 1.957-0.26094 4.175-0.65234v17.352q-5.4797 1.5656-8.35 1.957-2.8704 0.39141-7.8282 0.39141-12.134 0-17.613-8.6109-2.8703-4.5664-4.0445-12.916-7.1758 9.3938-20.614 16.309-13.438 6.9148-29.616 6.9148-19.44 0-31.834-11.742-12.264-11.873-12.264-29.616 0-19.44 12.134-30.138 12.134-10.698 31.834-13.177z"/>
  <path id="dy" d="m3933.5-1044.1q23.615 0 38.358 11.481 14.873 11.481 17.874 39.532h-22.832q-2.0875-12.916-9.5243-21.397-7.4367-8.6109-23.876-8.6109-22.441 0-32.095 21.919-6.2625 14.221-6.2625 35.096 0 21.005 8.8719 35.357 8.8719 14.352 27.92 14.352 14.612 0 23.093-8.8719 8.6109-9.0024 11.873-24.528h22.832q-3.9141 27.79-19.57 40.706-15.656 12.786-40.054 12.786-27.398 0-43.707-19.962-16.309-20.092-16.309-50.1 0-36.792 17.874-57.276 17.874-20.484 45.534-20.484z"/>
  <path id="dz" d="m4055.8-1044.1q23.615 0 38.358 11.481 14.874 11.481 17.874 39.532h-22.832q-2.0875-12.916-9.5242-21.397-7.4367-8.6109-23.876-8.6109-22.441 0-32.095 21.919-6.2625 14.221-6.2625 35.096 0 21.005 8.8719 35.357 8.8718 14.352 27.92 14.352 14.612 0 23.093-8.8719 8.6109-9.0024 11.873-24.528h22.832q-3.914 27.79-19.57 40.706-15.656 12.786-40.054 12.786-27.398 0-43.707-19.962-16.309-20.092-16.309-50.1 0-36.792 17.874-57.276t45.534-20.484z"/>
  <path id="ea" d="m4179.7-915.42q23.354 0 31.965-17.613 8.7414-17.744 8.7414-39.402 0-19.57-6.2625-31.834-9.9156-19.309-34.183-19.309-21.527 0-31.312 16.439-9.7851 16.439-9.7851 39.663 0 22.31 9.7851 37.184 9.7852 14.873 31.052 14.873zm0.9133-128.64q27.007 0 45.664 18.005 18.657 18.005 18.657 52.97 0 33.791-16.439 55.841t-51.013 22.049q-28.834 0-45.794-19.44-16.961-19.57-16.961-52.448 0-35.227 17.874-56.102 17.874-20.875 48.012-20.875z"/>
  <path id="eb" d="m4261.5-1040h23.224v19.831q8.35-10.307 15.134-15.004 11.612-7.9586 26.355-7.9586 16.7 0 26.876 8.2195 5.7406 4.6969 10.438 13.83 7.8281-11.22 18.396-16.57 10.568-5.4797 23.745-5.4797 28.181 0 38.358 20.353 5.4797 10.959 5.4797 29.486v93.024h-24.398v-97.069q0-13.96-7.0453-19.179-6.9149-5.2188-16.961-5.2188-13.83 0-23.876 9.2633-9.9156 9.2633-9.9156 30.921v81.282h-23.876v-91.198q0-14.221-3.3922-20.744-5.3492-9.7852-19.962-9.7852-13.308 0-24.267 10.307-10.829 10.307-10.829 37.314v74.106h-23.484z"/>
  <path id="ec" d="m4531.8-916.07q16.439 0 27.268-13.699 10.959-13.83 10.959-41.228 0-16.7-4.8274-28.703-9.1328-23.093-33.4-23.093-24.398 0-33.4 24.398-4.8273 13.047-4.8273 33.139 0 16.178 4.8273 27.529 9.1328 21.658 33.4 21.658zm-60.798-123.29h22.832v18.526q7.0453-9.5242 15.395-14.743 11.873-7.8282 27.92-7.8282 23.745 0 40.315 18.266 16.57 18.135 16.57 51.927 0 45.664-23.876 65.234-15.134 12.395-35.226 12.395-15.787 0-26.485-6.9148-6.2625-3.9141-13.96-13.438v71.366h-23.484z"/>
  <path id="ed" d="m4628.1-937.47q0 10.177 7.4367 16.048t17.613 5.8711q12.394 0 24.006-5.7406 19.57-9.5242 19.57-31.182v-18.918q-4.3055 2.7398-11.09 4.5664t-13.308 2.6094l-14.221 1.8266q-12.786 1.6961-19.179 5.3492-10.829 6.132-10.829 19.57zm56.884-47.491q8.089-1.0438 10.829-6.7844 1.5656-3.1312 1.5656-9.0024 0-12.003-8.6109-17.352-8.4805-5.4797-24.398-5.4797-18.396 0-26.094 9.9156-4.3054 5.4797-5.6101 16.309h-21.919q0.6524-25.833 16.7-35.879 16.178-10.177 37.445-10.177 24.659 0 40.054 9.3938 15.265 9.3937 15.265 29.225v80.499q0 3.6531 1.4352 5.8711 1.5656 2.218 6.393 2.218 1.5656 0 3.5226-0.13047 1.957-0.26094 4.175-0.65234v17.352q-5.4797 1.5656-8.35 1.957-2.8703 0.39141-7.8281 0.39141-12.134 0-17.613-8.6109-2.8703-4.5664-4.0445-12.916-7.1758 9.3938-20.614 16.309-13.438 6.9148-29.616 6.9148-19.44 0-31.834-11.742-12.264-11.873-12.264-29.616 0-19.44 12.134-30.138 12.134-10.698 31.834-13.177z"/>
  <path id="ee" d="m4747.4-1040h22.31v19.831q9.9156-12.264 21.006-17.613 11.09-5.3492 24.659-5.3492 29.747 0 40.184 20.744 5.7406 11.351 5.7406 32.487v89.632h-23.876v-88.066q0-12.786-3.7836-20.614-6.2625-13.047-22.702-13.047-8.35 0-13.699 1.6961-9.6547 2.8703-16.961 11.481-5.8711 6.9148-7.6977 14.352-1.6961 7.3062-1.6961 21.005v73.193h-23.484z"/>
  <path id="ef" d="m4884.7-1039.4h23.876v139.08h-23.876zm0-52.579h23.876v26.616h-23.876z"/>
  <path id="eg" d="m4990.9-1043.2q14.874 0 28.834 7.0453 13.96 6.9148 21.266 18.005 7.0454 10.568 9.3938 24.659 2.0875 9.6547 2.0875 30.791h-102.42q0.6524 21.266 10.046 34.183 9.3938 12.786 29.094 12.786 18.396 0 29.356-12.134 6.2625-7.0453 8.8719-16.309h23.093q-0.9133 7.6976-6.1321 17.222-5.0882 9.3938-11.481 15.395-10.698 10.438-26.485 14.091-8.4804 2.0875-19.179 2.0875-26.094 0-44.229-18.918-18.135-19.048-18.135-53.231 0-33.661 18.266-54.666 18.266-21.005 47.752-21.005zm37.445 61.842q-1.4352-15.265-6.6539-24.398-9.6547-16.961-32.226-16.961-16.178 0-27.138 11.742-10.959 11.612-11.612 29.616z"/>
  <path id="eh" d="m5084.9-968.52q0 22.441 9.5242 37.575t30.53 15.134q16.309 0 26.746-13.96 10.568-14.091 10.568-40.315 0-26.485-10.829-39.141-10.829-12.786-26.746-12.786-17.744 0-28.834 13.569-10.959 13.569-10.959 39.923zm35.357-73.976q16.048 0 26.877 6.7844 6.2625 3.9141 14.221 13.699v-70.584h22.571v192.31h-21.136v-19.44q-8.2195 12.916-19.44 18.657-11.22 5.7406-25.702 5.7406-23.354 0-40.445-19.57-17.091-19.701-17.091-52.318 0-30.53 15.526-52.84 15.656-22.441 44.62-22.441z"/>
  <path id="ei" d="m2973.1-800.82h22.832v69.54q7.6977-10.046 18.396-15.265 10.698-5.3492 23.223-5.3492 26.094 0 42.272 18.005 16.309 17.874 16.309 52.84 0 33.139-16.048 55.058-16.048 21.919-44.49 21.919-15.917 0-26.877-7.6977-6.5234-4.5664-13.96-14.612v17.874h-21.658zm61.059 176q19.048 0 28.442-15.134 9.5243-15.134 9.5243-39.923 0-22.049-9.5243-36.531-9.3937-14.482-27.79-14.482-16.048 0-28.181 11.873-12.003 11.873-12.003 39.141 0 19.701 4.9578 31.965 9.2633 23.093 34.574 23.093z"/>
  <path id="ej" d="m3199.3-748.24h25.963q-4.9579 13.438-22.049 61.32-12.786 36.009-21.397 58.711-20.353 53.492-28.703 65.234-8.35 11.742-28.703 11.742-4.9578 0-7.6976-0.39141-2.6094-0.3914-6.5235-1.4352v-21.397q6.132 1.6961 8.8719 2.0875 2.7398 0.39141 4.8273 0.39141 6.5235 0 9.5243-2.218 3.1312-2.0875 5.2187-5.2188 0.6524-1.0438 4.6969-10.698t5.8711-14.352l-51.666-143.78h26.616l37.444 113.77z"/>
  <path id="ek" d="m3314.6-645.69q0 10.177 7.4367 16.048 7.4367 5.8711 17.613 5.8711 12.394 0 24.006-5.7406 19.57-9.5242 19.57-31.182v-18.918q-4.3054 2.7398-11.09 4.5664t-13.308 2.6094l-14.221 1.8266q-12.786 1.6961-19.179 5.3492-10.829 6.132-10.829 19.57zm56.884-47.491q8.0891-1.0438 10.829-6.7844 1.5657-3.1312 1.5657-9.0023 0-12.003-8.611-17.352-8.4804-5.4797-24.398-5.4797-18.396 0-26.094 9.9156-4.3054 5.4797-5.6101 16.309h-21.919q0.6524-25.833 16.7-35.879 16.178-10.177 37.444-10.177 24.659 0 40.054 9.3938 15.265 9.3938 15.265 29.225v80.499q0 3.6531 1.4352 5.8711 1.5656 2.218 6.3929 2.218 1.5657 0 3.5227-0.13047 1.957-0.26094 4.175-0.65234v17.352q-5.4797 1.5656-8.35 1.957-2.8703 0.39141-7.8281 0.39141-12.134 0-17.613-8.6109-2.8703-4.5664-4.0446-12.916-7.1757 9.3938-20.614 16.309-13.438 6.9148-29.616 6.9148-19.44 0-31.834-11.742-12.264-11.873-12.264-29.616 0-19.44 12.134-30.138 12.134-10.698 31.834-13.177z"/>
  <path id="el" d="m3501.9-800.16h86.24q25.572 0 41.228 14.482 15.656 14.352 15.656 40.445 0 22.441-13.96 39.141-13.96 16.57-42.924 16.57h-60.277v81.021h-25.963zm116.9 55.058q0-21.136-15.656-28.703-8.6109-4.0445-23.615-4.0445h-51.666v66.409h51.666q17.483 0 28.312-7.4367 10.959-7.4367 10.959-26.224z"/>
  <path id="em" d="m3681-645.69q0 10.177 7.4367 16.048 7.4367 5.8711 17.613 5.8711 12.394 0 24.006-5.7406 19.57-9.5242 19.57-31.182v-18.918q-4.3055 2.7398-11.09 4.5664t-13.308 2.6094l-14.221 1.8266q-12.786 1.6961-19.179 5.3492-10.829 6.132-10.829 19.57zm56.884-47.491q8.089-1.0438 10.829-6.7844 1.5656-3.1312 1.5656-9.0023 0-12.003-8.6109-17.352-8.4805-5.4797-24.398-5.4797-18.396 0-26.094 9.9156-4.3055 5.4797-5.6102 16.309h-21.919q0.6524-25.833 16.7-35.879 16.178-10.177 37.445-10.177 24.659 0 40.054 9.3938 15.265 9.3938 15.265 29.225v80.499q0 3.6531 1.4352 5.8711 1.5656 2.218 6.393 2.218 1.5656 0 3.5226-0.13047 1.957-0.26094 4.175-0.65234v17.352q-5.4797 1.5656-8.35 1.957-2.8703 0.39141-7.8281 0.39141-12.134 0-17.613-8.6109-2.8703-4.5664-4.0445-12.916-7.1758 9.3938-20.614 16.309-13.438 6.9148-29.616 6.9148-19.44 0-31.834-11.742-12.264-11.873-12.264-29.616 0-19.44 12.134-30.138 12.134-10.698 31.834-13.177z"/>
  <path id="en" d="m3800.6-748.24h22.31v24.137q2.7398-7.0453 13.438-17.091 10.698-10.177 24.659-10.177 0.6523 0 2.2179 0.13047t5.3492 0.52187v24.789q-2.0875-0.39141-3.914-0.52188-1.6961-0.13047-3.7836-0.13047-17.744 0-27.268 11.481-9.5242 11.351-9.5242 26.224v80.369h-23.484z"/>
  <path id="eo" d="m3935.6-751.37q14.874 0 28.834 7.0453 13.96 6.9148 21.266 18.005 7.0454 10.568 9.3938 24.659 2.0875 9.6547 2.0875 30.791h-102.42q0.6524 21.266 10.046 34.183 9.3938 12.786 29.095 12.786 18.396 0 29.355-12.134 6.2625-7.0453 8.8719-16.309h23.093q-0.9133 7.6976-6.1321 17.222-5.0882 9.3938-11.481 15.395-10.698 10.438-26.485 14.091-8.4804 2.0875-19.179 2.0875-26.094 0-44.229-18.918-18.135-19.048-18.135-53.231 0-33.661 18.266-54.666t47.752-21.005zm37.445 61.842q-1.4352-15.265-6.6539-24.398-9.6547-16.961-32.226-16.961-16.178 0-27.138 11.742-10.959 11.612-11.612 29.616z"/>
  <path id="ep" d="m4014.4-748.24h22.31v19.831q9.9156-12.264 21.006-17.613 11.09-5.3492 24.659-5.3492 29.747 0 40.184 20.745 5.7406 11.351 5.7406 32.487v89.632h-23.876v-88.066q0-12.786-3.7836-20.614-6.2625-13.047-22.702-13.047-8.35 0-13.699 1.6961-9.6547 2.8703-16.961 11.481-5.8711 6.9148-7.6977 14.352-1.6961 7.3062-1.6961 21.005v73.193h-23.484z"/>
  <path id="eq" d="m4156.1-787.25h23.745v39.01h22.31v19.179h-22.31v91.198q0 7.3062 4.9578 9.7852 2.7399 1.4352 9.1328 1.4352 1.6961 0 3.6532 0 1.957-0.13047 4.5664-0.39141v18.527q-4.0446 1.1742-8.4805 1.6961-4.3055 0.52188-9.3937 0.52188-16.439 0-22.31-8.35-5.8711-8.4805-5.8711-21.919v-92.502h-18.918v-19.179h18.918z"/>
  <path id="er" d="m4257.7-800.16h19.831l-60.798 191.66h-19.831z"/>
  <path id="es" d="m4362.7-805.12q27.007 0 46.708 10.438 28.573 15.004 34.966 52.579h-25.702q-4.6969-21.005-19.44-30.53-14.743-9.6547-37.184-9.6547-26.616 0-44.881 19.962-18.135 19.962-18.135 59.494 0 34.183 15.004 55.71 15.004 21.397 48.926 21.397 25.963 0 42.924-15.004 17.092-15.134 17.483-48.795h-60.016v-21.527h84.152v102.55h-16.7l-6.2625-24.659q-13.177 14.482-23.354 20.092-17.091 9.6547-43.446 9.6547-34.052 0-58.58-22.049-26.746-27.659-26.746-75.933 0-48.143 26.094-76.585 24.789-27.138 64.191-27.138z"/>
  <path id="et" d="m4496.5-748.24v92.763q0 10.698 3.3922 17.483 6.2625 12.525 23.354 12.525 24.528 0 33.4-21.919 4.8274-11.742 4.8274-32.226v-68.627h23.484v139.73h-22.18l0.261-20.614q-4.5664 7.9586-11.351 13.438-13.438 10.959-32.617 10.959-29.877 0-40.706-19.962-5.8711-10.698-5.8711-28.573v-94.981z"/>
  <path id="eu" d="m4628-645.69q0 10.177 7.4367 16.048 7.4367 5.8711 17.613 5.8711 12.394 0 24.006-5.7406 19.57-9.5242 19.57-31.182v-18.918q-4.3055 2.7398-11.09 4.5664t-13.308 2.6094l-14.221 1.8266q-12.786 1.6961-19.179 5.3492-10.829 6.132-10.829 19.57zm56.884-47.491q8.089-1.0438 10.829-6.7844 1.5656-3.1312 1.5656-9.0023 0-12.003-8.6109-17.352-8.4805-5.4797-24.398-5.4797-18.396 0-26.094 9.9156-4.3055 5.4797-5.6102 16.309h-21.919q0.6523-25.833 16.7-35.879 16.178-10.177 37.444-10.177 24.659 0 40.054 9.3938 15.265 9.3938 15.265 29.225v80.499q0 3.6531 1.4352 5.8711 1.5656 2.218 6.393 2.218 1.5656 0 3.5226-0.13047 1.9571-0.26094 4.175-0.65234v17.352q-5.4797 1.5656-8.35 1.957-2.8703 0.39141-7.8281 0.39141-12.134 0-17.613-8.6109-2.8703-4.5664-4.0445-12.916-7.1758 9.3938-20.614 16.309-13.438 6.9148-29.616 6.9148-19.44 0-31.834-11.742-12.264-11.873-12.264-29.616 0-19.44 12.134-30.138 12.134-10.698 31.834-13.177z"/>
  <path id="ev" d="m4747.7-748.24h22.31v24.137q2.7398-7.0453 13.438-17.091 10.698-10.177 24.659-10.177 0.6523 0 2.2179 0.13047 1.5657 0.13047 5.3492 0.52187v24.789q-2.0875-0.39141-3.914-0.52188-1.6961-0.13047-3.7836-0.13047-17.744 0-27.268 11.481-9.5242 11.351-9.5242 26.224v80.369h-23.484z"/>
  <path id="ew" d="m4839.3-676.74q0 22.441 9.5242 37.575 9.5243 15.134 30.53 15.134 16.309 0 26.746-13.96 10.568-14.091 10.568-40.315 0-26.485-10.829-39.141-10.829-12.786-26.746-12.786-17.744 0-28.834 13.569-10.959 13.569-10.959 39.923zm35.357-73.976q16.048 0 26.876 6.7844 6.2625 3.9141 14.221 13.699v-70.584h22.571v192.31h-21.136v-19.44q-8.2196 12.916-19.44 18.657-11.22 5.7406-25.702 5.7406-23.354 0-40.445-19.57-17.091-19.701-17.091-52.318 0-30.53 15.526-52.84 15.656-22.441 44.62-22.441z"/>
  <path id="ex" d="m4961.4-747.58h23.876v139.08h-23.876zm0-52.579h23.876v26.616h-23.876z"/>
  <path id="ey" d="m5027.2-645.69q0 10.177 7.4367 16.048 7.4367 5.8711 17.613 5.8711 12.394 0 24.006-5.7406 19.57-9.5242 19.57-31.182v-18.918q-4.3055 2.7398-11.09 4.5664t-13.308 2.6094l-14.221 1.8266q-12.786 1.6961-19.179 5.3492-10.829 6.132-10.829 19.57zm56.884-47.491q8.089-1.0438 10.829-6.7844 1.5656-3.1312 1.5656-9.0023 0-12.003-8.6109-17.352-8.4805-5.4797-24.398-5.4797-18.396 0-26.094 9.9156-4.3055 5.4797-5.6102 16.309h-21.919q0.6523-25.833 16.7-35.879 16.178-10.177 37.444-10.177 24.659 0 40.054 9.3938 15.265 9.3938 15.265 29.225v80.499q0 3.6531 1.4352 5.8711 1.5656 2.218 6.393 2.218 1.5656 0 3.5226-0.13047 1.9571-0.26094 4.175-0.65234v17.352q-5.4797 1.5656-8.35 1.957-2.8703 0.39141-7.8281 0.39141-12.134 0-17.613-8.6109-2.8703-4.5664-4.0445-12.916-7.1758 9.3938-20.614 16.309-13.438 6.9148-29.616 6.9148-19.44 0-31.834-11.742-12.264-11.873-12.264-29.616 0-19.44 12.134-30.138 12.134-10.698 31.834-13.177z"/>
  <path id="ez" d="m5146.3-748.24h22.31v19.831q9.9157-12.264 21.006-17.613 11.09-5.3492 24.659-5.3492 29.747 0 40.184 20.745 5.7406 11.351 5.7406 32.487v89.632h-23.876v-88.066q0-12.786-3.7836-20.614-6.2625-13.047-22.702-13.047-8.35 0-13.699 1.6961-9.6546 2.8703-16.961 11.481-5.8711 6.9148-7.6976 14.352-1.6961 7.3062-1.6961 21.005v73.193h-23.484z"/>
  <path id="fa" d="m5288.9-636.95h27.268v28.442h-27.268z"/>
 </g>
</svg>
