<?xml version="1.0" encoding="UTF-8"?>
<svg id="a" width="209.36" height="95.488" version="1.1" viewBox="0 0 55.394 25.265" xmlns="http://www.w3.org/2000/svg">
 <path id="b" d="m3.8168 0.13222h47.76c2.0412 0 3.6845 1.6433 3.6845 3.6845v17.631c0 2.0412-1.6433 3.6845-3.6845 3.6845h-47.76c-2.0412 0-3.6845-1.6433-3.6845-3.6845v-17.631c0-2.0412 1.6433-3.6845 3.6845-3.6845z" fill="#fff" stroke-width=".037127"/>
 <path id="c" d="m23.37 0.13222v25h2.9501v-25z" fill="#eeeeed" stroke-width=".037127"/>
 <g id="d" transform="matrix(.037127 0 0 .037127 -1.7965 19.514)" stroke-width=".44769" aria-label="Films, Videos, and Publications Classification Act 1993">
  <path id="e" d="m131.8 68.467h18.167l-0.69531 3.2091h-14.619l-1.6759 7.9515h12.854l-0.67748 3.12h-12.854l-2.5138 11.909h-3.5478z"/>
  <path id="f" d="m151.83 75.651h3.2626l-4.0292 19.005h-3.2626zm1.5332-7.1848h3.2626l-0.78445 3.637h-3.2626z"/>
  <path id="g" d="m161.59 68.467h3.2091l-5.5625 26.19h-3.2091z"/>
  <path id="h" d="m168.13 75.562h3.1734l-0.5705 2.7099q1.4441-1.4084 2.496-2.0503 1.8185-1.0875 3.8331-1.0875 2.282 0 3.4409 1.1232 0.64182 0.64182 1.0162 1.8898 1.4084-1.5332 2.9952-2.2642 1.6046-0.74879 3.4052-0.74879 3.8509 0 4.6532 2.7812 0.42788 1.4976-0.10697 4.0292l-2.6921 12.712h-3.3339l2.8169-13.264q0.39223-1.9076-0.41005-2.6208t-2.1751-0.71314q-1.8898 0-3.53 1.2658-1.6224 1.2658-2.2464 4.2253l-2.3534 11.107h-3.2626l2.6386-12.462q0.41005-1.9433 0.14263-2.8347-0.44571-1.3371-2.4425-1.3371-1.8185 0-3.6192 1.4084-1.7828 1.4084-2.5673 5.0989l-2.1394 10.127h-3.2091z"/>
  <path id="i" d="m197.7 88.666q-0.19612 1.6046 0.28525 2.4603 0.87359 1.5511 3.8688 1.5511 1.7828 0 3.2982-0.76662 1.5332-0.78445 1.872-2.4068 0.26743-1.2302-0.6953-1.872-0.60617-0.39222-2.5495-0.90925l-2.4068-0.64182q-2.3177-0.60616-3.3161-1.355-1.8007-1.3015-1.3015-3.6013 0.57051-2.7099 2.8704-4.3858 2.3177-1.6759 5.6159-1.6759 4.3145 0 5.6872 2.5316 0.85576 1.6046 0.42788 3.4587h-3.0308q0.14263-1.0875-0.35656-1.979-0.83794-1.2658-3.5657-1.2658-1.8185 0-2.906 0.69531-1.0697 0.69531-1.3193 1.8363-0.26743 1.248 0.80228 1.9968 0.62399 0.44571 1.9433 0.78445l2.0146 0.51702q3.2804 0.83793 4.2966 1.6224 1.6046 1.2302 1.034 3.8688-0.53485 2.5495-2.8704 4.4036-2.3177 1.8542-6.2756 1.8542-4.261 0-5.6338-1.9255-1.355-1.9433-0.87359-4.7958z"/>
  <path id="j" d="m212.68 98.383q1.2836-0.21394 2.1038-1.7294 0.42788-0.80228 0.58834-1.5511 0.0357-0.1248 0.0357-0.23177 0.0178-0.08914 0.0178-0.21394h-1.9433l0.82011-3.8866h3.8153l-0.76662 3.6013q-0.44571 2.1216-1.658 3.7261-1.1945 1.6046-3.3696 1.9789z"/>
  <path id="k" d="m241.21 68.467 2.7812 22.303 12.177-22.303h3.9757l-15.118 26.19h-3.7618l-3.9757-26.19z"/>
  <path id="l" d="m260.91 75.651h3.2626l-4.0292 19.005h-3.2626zm1.5332-7.1848h3.2626l-0.78444 3.637h-3.2626z"/>
  <path id="m" d="m272.97 92.535q2.2285 0 4.0649-1.9076 1.8363-1.9255 2.603-5.509 0.76662-3.6192-0.33874-5.3485-1.1054-1.7472-3.2804-1.7472-2.4247 0-4.3323 1.8542-1.8898 1.8542-2.6564 5.4555-0.65965 3.0665 0.19611 5.1346 0.87359 2.0681 3.744 2.0681zm6.5074-16.384q0.74879 0.53485 1.5511 1.872l2.0503-9.6451h3.0843l-5.5803 26.279h-2.8882l0.55268-2.6564q-1.4976 1.765-3.2091 2.5495-1.6937 0.78445-3.6726 0.78445-3.1913 0-4.9563-2.6743-1.765-2.6921-0.80228-7.1492 0.87359-4.1718 3.6548-7.2205 2.7812-3.0665 6.7391-3.0665 2.1929 0 3.4765 0.92708z"/>
  <path id="n" d="m303.56 78.557q0.65965 1.4441 0.57051 3.3696 0.0178 1.3193-0.60617 4.2075h-13.995q-0.53485 2.906 0.3744 4.671 0.92707 1.7472 3.6192 1.7472 2.5138 0 4.3501-1.658 1.0697-0.96273 1.6937-2.2285h3.1556q-0.35657 1.0519-1.3371 2.3533-0.96273 1.2836-2.0146 2.1037-1.765 1.4263-4.0292 1.9255-1.2302 0.28525-2.6921 0.28525-3.5657 0-5.4911-2.5851-1.9255-2.6029-0.92708-7.274 0.98057-4.5997 4.0827-7.4701 3.1021-2.8704 7.1314-2.8704 2.0324 0 3.744 0.96273 1.7115 0.9449 2.3712 2.4603zm-2.799 5.0276q0.24959-2.0859-0.19611-3.3339-0.82011-2.3177-3.9044-2.3177-2.2107 0-4.047 1.6046-1.8363 1.5867-2.4603 4.047z"/>
  <path id="o" d="m320.91 84.797q0.57051-2.6743 0.0713-4.3501-0.80227-2.6386-4.1184-2.6386-2.9417 0-4.7602 2.2464-1.8007 2.2464-2.4782 5.4198-0.64182 3.0487 0.2496 5.0811 0.90925 2.0324 3.8153 2.0324 3.1913 0 4.885-2.4068 1.7115-2.4247 2.3355-5.3842zm3.3696-0.08914q-0.98056 4.6175-3.8688 7.6305-2.8882 3.013-7.6127 3.013-3.9401 0-5.6872-2.6564-1.7472-2.6743-0.80228-7.167 1.034-4.8137 4.0827-7.6662 3.0486-2.8525 7.167-2.8525 3.6905 0 5.7051 2.4603 2.0324 2.4603 1.0162 7.2383z"/>
  <path id="p" d="m329.2 88.666q-0.19611 1.6046 0.28525 2.4603 0.87359 1.5511 3.8688 1.5511 1.7828 0 3.2982-0.76662 1.5332-0.78445 1.872-2.4068 0.26742-1.2302-0.69531-1.872-0.60616-0.39222-2.5495-0.90925l-2.4068-0.64182q-2.3177-0.60616-3.3161-1.355-1.8007-1.3015-1.3015-3.6013 0.5705-2.7099 2.8704-4.3858 2.3177-1.6759 5.6159-1.6759 4.3145 0 5.6872 2.5316 0.85576 1.6046 0.42788 3.4587h-3.0308q0.14263-1.0875-0.35657-1.979-0.83793-1.2658-3.5657-1.2658-1.8185 0-2.906 0.69531-1.0697 0.69531-1.3193 1.8363-0.26742 1.248 0.80228 1.9968 0.62399 0.44571 1.9433 0.78445l2.0146 0.51702q3.2804 0.83793 4.2966 1.6224 1.6046 1.2302 1.034 3.8688-0.53485 2.5495-2.8704 4.4036-2.3177 1.8542-6.2756 1.8542-4.261 0-5.6338-1.9255-1.355-1.9433-0.87359-4.7958z"/>
  <path id="q" d="m344.18 98.383q1.2836-0.21394 2.1038-1.7294 0.42788-0.80228 0.58833-1.5511 0.0357-0.1248 0.0357-0.23177 0.0178-0.08914 0.0178-0.21394h-1.9433l0.8201-3.8866h3.8153l-0.76662 3.6013q-0.44571 2.1216-1.658 3.7261-1.1945 1.6046-3.3696 1.9789z"/>
  <path id="r" d="m370.96 92.57q1.6937 0 3.4587-0.78445 2.9417-1.3015 3.5835-4.261l0.53485-2.5851q-0.65965 0.3744-1.6402 0.62399-0.98056 0.2496-1.8898 0.35657l-1.9968 0.2496q-1.8007 0.23177-2.7812 0.73096-1.658 0.83793-2.0503 2.6743-0.30308 1.3906 0.53485 2.1929 0.85576 0.80228 2.2464 0.80228zm6.3647-9.4847q1.141-0.14263 1.6937-0.92708 0.30308-0.42788 0.46354-1.2302 0.35656-1.6402-0.65965-2.3712-1.0162-0.74879-3.1913-0.74879-2.5138 0-3.8509 1.355-0.74879 0.74879-1.2302 2.2285h-2.9952q0.83793-3.53 3.3339-4.9028 2.496-1.3906 5.402-1.3906 3.3696 0 5.1881 1.2836t1.248 3.9936l-2.3355 11q-0.10697 0.49919 0.0178 0.80228 0.14263 0.30308 0.80228 0.30308 0.21394 0 0.48137-0.01783 0.28525-0.03566 0.60616-0.08914l-0.51702 2.3712q-0.78445 0.21394-1.1945 0.26742-0.39223 0.05349-1.0697 0.05349-1.658 0-2.1572-1.1767-0.26742-0.62399-0.17828-1.765-1.2658 1.2836-3.2982 2.2285t-4.2432 0.9449q-2.6564 0-4.0114-1.6046-1.3371-1.6224-0.8201-4.047 0.57051-2.6564 2.5316-4.1184 1.979-1.4619 4.7423-1.8007z"/>
  <path id="s" d="m389.03 75.562h3.0487l-0.57051 2.7099q1.7115-1.6759 3.3696-2.4068 1.6759-0.73096 3.53-0.73096 4.0649 0 4.885 2.8347 0.46354 1.5511-0.14263 4.4393l-2.6029 12.248h-3.2626l2.5495-12.034q0.37439-1.7472 0.0891-2.8169-0.48137-1.7828-2.7277-1.7828-1.141 0-1.9255 0.23177-1.4084 0.39222-2.6564 1.5689-0.99839 0.9449-1.4619 1.9611-0.44571 0.99839-0.83793 2.8704l-2.1216 10.002h-3.2091z"/>
  <path id="t" d="m413.26 92.535q2.2285 0 4.0649-1.9076 1.8363-1.9255 2.603-5.509 0.76662-3.6192-0.33874-5.3485-1.1054-1.7472-3.2804-1.7472-2.4247 0-4.3323 1.8542-1.8898 1.8542-2.6564 5.4555-0.65965 3.0665 0.19611 5.1346 0.87359 2.0681 3.744 2.0681zm6.5074-16.384q0.74879 0.53485 1.5511 1.872l2.0503-9.6451h3.0843l-5.5803 26.279h-2.8882l0.55268-2.6564q-1.4976 1.765-3.2091 2.5495-1.6937 0.78445-3.6726 0.78445-3.1913 0-4.9563-2.6743-1.765-2.6921-0.80227-7.1492 0.87359-4.1718 3.6548-7.2205 2.7812-3.0665 6.7391-3.0665 2.1929 0 3.4765 0.92708z"/>
  <path id="u" d="m442.15 68.467h11.785q3.4944 0 5.2059 1.979 1.7294 1.9611 0.96273 5.5268-0.64182 3.0665-3.0486 5.3485-2.389 2.2642-6.3469 2.2642h-8.2367l-2.3355 11.071h-3.5478zm13.068 3.6013q-1.0697-0.55268-3.12-0.55268h-7.06l-1.9255 9.0746h7.06q2.389 0 4.0827-1.0162 1.7115-1.0162 2.2642-3.5835 0.60616-2.8882-1.3015-3.9222z"/>
  <path id="v" d="m467.45 75.562-2.6921 12.676q-0.30308 1.4619-0.0356 2.389 0.48136 1.7115 2.8169 1.7115 3.3517 0 5.2059-2.9952 0.99839-1.6046 1.5867-4.4036l1.9968-9.3777h3.2091l-4.047 19.094h-3.0308l0.62399-2.8169q-0.85576 1.0875-1.9433 1.8363-2.1572 1.4976-4.778 1.4976-4.0827 0-4.9741-2.7277-0.49919-1.4619 0.0178-3.9044l2.7634-12.979z"/>
  <path id="w" d="m485.86 68.377h3.12l-2.0146 9.5025q1.3371-1.3728 2.9417-2.0859 1.6224-0.73096 3.3339-0.73096 3.5657 0 5.2594 2.4603 1.7115 2.4425 0.6953 7.2205-0.96273 4.5284-3.7974 7.5236-2.8347 2.9952-6.7213 2.9952-2.1751 0-3.4409-1.0519-0.76662-0.62399-1.4798-1.9968l-0.51702 2.4425h-2.9595zm10.02 16.527q0.64182-3.013-0.23177-4.9919t-3.3874-1.9789q-2.1929 0-4.1897 1.6224t-2.7812 5.3485q-0.5705 2.6921-0.24959 4.368 0.58833 3.1556 4.047 3.1556 2.6029 0 4.3323-2.0681t2.4603-5.4555z"/>
  <path id="x" d="m506.51 68.467h3.2091l-5.5625 26.19h-3.2091z"/>
  <path id="y" d="m513.03 75.651h3.2626l-4.0292 19.005h-3.2626zm1.5332-7.1848h3.2626l-0.78445 3.637h-3.2626z"/>
  <path id="z" d="m534.88 81.98h-3.12q0.0892-1.765-0.67747-2.9239-0.76662-1.1767-3.013-1.1767-3.0665 0-5.0276 2.9952-1.2658 1.9433-1.872 4.7958-0.62399 2.8704 0.17828 4.8315 0.80228 1.9611 3.4052 1.9611 1.9968 0 3.423-1.2123 1.4263-1.2302 2.3177-3.3517h3.12q-1.3371 3.7974-3.8509 5.5625-2.5138 1.7472-5.8477 1.7472-3.744 0-5.402-2.7277-1.6402-2.7456-0.76662-6.8461 1.0697-5.0276 4.1005-7.8267 3.0486-2.7991 6.8283-2.7991 3.2269 0 4.9028 1.5689 1.6937 1.5689 1.3015 5.402z"/>
  <path id="aa" d="m541.73 92.57q1.6937 0 3.4587-0.78445 2.9417-1.3015 3.5835-4.261l0.53486-2.5851q-0.65965 0.3744-1.6402 0.62399-0.98056 0.2496-1.8898 0.35657l-1.9968 0.2496q-1.8007 0.23177-2.7812 0.73096-1.658 0.83793-2.0503 2.6743-0.30308 1.3906 0.53485 2.1929 0.85576 0.80228 2.2464 0.80228zm6.3647-9.4847q1.141-0.14263 1.6937-0.92708 0.30308-0.42788 0.46354-1.2302 0.35657-1.6402-0.65965-2.3712-1.0162-0.74879-3.1913-0.74879-2.5138 0-3.8509 1.355-0.74879 0.74879-1.2302 2.2285h-2.9952q0.83793-3.53 3.3339-4.9028 2.496-1.3906 5.402-1.3906 3.3696 0 5.1881 1.2836t1.248 3.9936l-2.3355 11q-0.10697 0.49919 0.0178 0.80228 0.14263 0.30308 0.80228 0.30308 0.21394 0 0.48137-0.01783 0.28525-0.03566 0.60616-0.08914l-0.51702 2.3712q-0.78445 0.21394-1.1945 0.26742-0.39223 0.05349-1.0697 0.05349-1.658 0-2.1572-1.1767-0.26742-0.62399-0.17828-1.765-1.2658 1.2836-3.2982 2.2285t-4.2432 0.9449q-2.6564 0-4.0114-1.6046-1.3371-1.6224-0.8201-4.047 0.57051-2.6564 2.5316-4.1184 1.979-1.4619 4.7423-1.8007z"/>
  <path id="ab" d="m561.58 70.232h3.2448l-1.141 5.3307h3.0486l-0.55268 2.6208h-3.0486l-2.6564 12.462q-0.21394 0.99839 0.39222 1.3371 0.33874 0.19611 1.2123 0.19611 0.23177 0 0.4992 0 0.26742-0.01783 0.64182-0.05349l-0.53485 2.5316q-0.58834 0.16046-1.2123 0.23177-0.60617 0.07131-1.3015 0.07131-2.2464 0-2.8169-1.141-0.55268-1.1588-0.16045-2.9952l2.6921-12.64h-2.5851l0.55268-2.6208h2.5851z"/>
  <path id="ac" d="m569.95 75.651h3.2626l-4.0292 19.005h-3.2626zm1.5332-7.1848h3.2626l-0.78445 3.637h-3.2626z"/>
  <path id="ad" d="m589.29 84.797q0.57051-2.6743 0.0713-4.3501-0.80228-2.6386-4.1184-2.6386-2.9417 0-4.7602 2.2464-1.8007 2.2464-2.4782 5.4198-0.64182 3.0487 0.2496 5.0811 0.90925 2.0324 3.8153 2.0324 3.1913 0 4.885-2.4068 1.7115-2.4247 2.3355-5.3842zm3.3696-0.08914q-0.98057 4.6175-3.8688 7.6305-2.8882 3.013-7.6127 3.013-3.9401 0-5.6872-2.6564-1.7472-2.6743-0.80227-7.167 1.034-4.8137 4.0827-7.6662t7.167-2.8525q3.6905 0 5.7051 2.4603 2.0324 2.4603 1.0162 7.2383z"/>
  <path id="ae" d="m598.44 75.562h3.0486l-0.5705 2.7099q1.7115-1.6759 3.3696-2.4068 1.6759-0.73096 3.53-0.73096 4.0649 0 4.885 2.8347 0.46354 1.5511-0.14263 4.4393l-2.6029 12.248h-3.2626l2.5494-12.034q0.3744-1.7472 0.0892-2.8169-0.48137-1.7828-2.7277-1.7828-1.141 0-1.9255 0.23177-1.4084 0.39222-2.6564 1.5689-0.99838 0.9449-1.4619 1.9611-0.44571 0.99839-0.83794 2.8704l-2.1216 10.002h-3.2091z"/>
  <path id="af" d="m617.9 88.666q-0.19611 1.6046 0.28525 2.4603 0.87359 1.5511 3.8688 1.5511 1.7828 0 3.2982-0.76662 1.5332-0.78445 1.872-2.4068 0.26742-1.2302-0.69531-1.872-0.60616-0.39222-2.5495-0.90925l-2.4068-0.64182q-2.3177-0.60616-3.3161-1.355-1.8007-1.3015-1.3015-3.6013 0.5705-2.7099 2.8704-4.3858 2.3177-1.6759 5.6159-1.6759 4.3145 0 5.6872 2.5316 0.85576 1.6046 0.42788 3.4587h-3.0308q0.14263-1.0875-0.35657-1.979-0.83793-1.2658-3.5657-1.2658-1.8185 0-2.906 0.69531-1.0697 0.69531-1.3193 1.8363-0.26742 1.248 0.80228 1.9968 0.62399 0.44571 1.9433 0.78445l2.0146 0.51702q3.2804 0.83793 4.2966 1.6224 1.6046 1.2302 1.034 3.8688-0.53485 2.5495-2.8704 4.4036-2.3177 1.8542-6.2756 1.8542-4.261 0-5.6338-1.9255-1.355-1.9433-0.87359-4.7958z"/>
  <path id="ag" d="m207.52 112.84h-3.4587q-0.0535-2.5316-1.4976-4.0114t-4.6176-1.4798q-3.8688 0-6.8283 2.7277-2.9417 2.7099-4.1362 8.3258-0.98056 4.5997 0.55268 7.4701 1.5511 2.8525 5.812 2.8525 3.9222 0 6.6143-3.013 1.4084-1.5867 2.496-4.1718h3.4587q-1.3371 4.1362-4.5284 6.9352-3.8509 3.3696-9.146 3.3696-4.5641 0-7.0779-2.7634-3.2982-3.6548-1.6759-11.285 1.2302-5.7942 5.0811-9.5025 4.1718-4.0292 10.002-4.0292 4.9741 0 7.167 2.6208t1.7828 5.9547z"/>
  <path id="ah" d="m214.71 104.98h3.2091l-5.5624 26.19h-3.2091z"/>
  <path id="ai" d="m224.76 129.08q1.6937 0 3.4587-0.78445 2.9417-1.3015 3.5835-4.261l0.53486-2.5851q-0.65965 0.37439-1.6402 0.62399t-1.8898 0.35657l-1.9968 0.24959q-1.8007 0.23177-2.7812 0.73097-1.658 0.83793-2.0503 2.6742-0.30308 1.3906 0.53485 2.1929 0.85576 0.80228 2.2464 0.80228zm6.3647-9.4847q1.141-0.14263 1.6937-0.92708 0.30308-0.42788 0.46354-1.2302 0.35657-1.6402-0.65965-2.3712-1.0162-0.74879-3.1913-0.74879-2.5138 0-3.8509 1.355-0.74879 0.7488-1.2302 2.2286h-2.9952q0.83793-3.53 3.3339-4.9028 2.496-1.3906 5.402-1.3906 3.3696 0 5.1881 1.2836t1.248 3.9936l-2.3355 11q-0.10697 0.49919 0.0178 0.80228 0.14263 0.30308 0.80228 0.30308 0.21394 0 0.48137-0.0178 0.28525-0.0357 0.60616-0.0891l-0.51702 2.3712q-0.78445 0.21394-1.1945 0.26743-0.39223 0.0535-1.0697 0.0535-1.658 0-2.1572-1.1767-0.26742-0.62399-0.17828-1.765-1.2658 1.2836-3.2982 2.2286-2.0324 0.9449-4.2432 0.9449-2.6564 0-4.0114-1.6046-1.3371-1.6224-0.8201-4.047 0.57051-2.6564 2.5316-4.1184 1.979-1.4619 4.7424-1.8007z"/>
  <path id="aj" d="m243.22 125.18q-0.19611 1.6046 0.28526 2.4603 0.87359 1.5511 3.8688 1.5511 1.7828 0 3.2982-0.76662 1.5332-0.78445 1.872-2.4068 0.26743-1.2302-0.69531-1.872-0.60616-0.39222-2.5494-0.90925l-2.4068-0.64182q-2.3177-0.60616-3.3161-1.355-1.8007-1.3015-1.3015-3.6013 0.57051-2.7099 2.8704-4.3858 2.3177-1.6759 5.6159-1.6759 4.3145 0 5.6872 2.5316 0.85577 1.6046 0.42789 3.4587h-3.0308q0.14263-1.0875-0.35657-1.979-0.83793-1.2658-3.5657-1.2658-1.8185 0-2.906 0.69531-1.0697 0.6953-1.3193 1.8363-0.26743 1.248 0.80227 1.9968 0.624 0.44571 1.9433 0.78445l2.0146 0.51703q3.2804 0.83793 4.2966 1.6224 1.6046 1.2302 1.034 3.8688-0.53485 2.5495-2.8704 4.4036-2.3177 1.8542-6.2756 1.8542-4.261 0-5.6338-1.9255-1.355-1.9433-0.87359-4.7958z"/>
  <path id="ak" d="m262.76 125.18q-0.19611 1.6046 0.28526 2.4603 0.87359 1.5511 3.8688 1.5511 1.7828 0 3.2982-0.76662 1.5332-0.78445 1.872-2.4068 0.26743-1.2302-0.69531-1.872-0.60616-0.39222-2.5494-0.90925l-2.4068-0.64182q-2.3177-0.60616-3.3161-1.355-1.8007-1.3015-1.3015-3.6013 0.57051-2.7099 2.8704-4.3858 2.3177-1.6759 5.6159-1.6759 4.3145 0 5.6872 2.5316 0.85577 1.6046 0.42788 3.4587h-3.0308q0.14263-1.0875-0.35657-1.979-0.83793-1.2658-3.5657-1.2658-1.8185 0-2.906 0.69531-1.0697 0.6953-1.3193 1.8363-0.26743 1.248 0.80227 1.9968 0.624 0.44571 1.9433 0.78445l2.0146 0.51703q3.2804 0.83793 4.2966 1.6224 1.6046 1.2302 1.034 3.8688-0.53485 2.5495-2.8704 4.4036-2.3177 1.8542-6.2756 1.8542-4.261 0-5.6338-1.9255-1.355-1.9433-0.87359-4.7958z"/>
  <path id="al" d="m283.16 112.16h3.2626l-4.0292 19.005h-3.2626zm1.5332-7.1848h3.2626l-0.78445 3.637h-3.2626z"/>
  <path id="am" d="m295.32 106.24q1.4619-1.6402 4.671-1.6402 0.30308 0 0.62399 0.0178t0.71313 0.0535l-0.62399 2.9238q-0.48137-0.0357-0.71313-0.0357-0.21394-0.0178-0.41006-0.0178-1.4619 0-1.9076 0.76662-0.44571 0.74879-1.1054 3.8509h3.1734l-0.53485 2.5316h-3.2091l-3.4944 16.473h-3.1734l3.4944-16.473h-2.6564l0.53485-2.5316h2.6564l0.64182-2.9952q0.4992-1.9968 1.3193-2.9238zm8.2545 2.3712 0.78445-3.637h3.2091l-0.78444 3.637zm-0.74879 3.5478h3.2091l-4.0292 19.005h-3.2091z"/>
  <path id="an" d="m327.09 118.49h-3.12q0.0891-1.765-0.67748-2.9239-0.76662-1.1767-3.013-1.1767-3.0665 0-5.0276 2.9952-1.2658 1.9433-1.872 4.7958-0.624 2.8704 0.17828 4.8315t3.4052 1.9611q1.9968 0 3.423-1.2123 1.4263-1.2302 2.3177-3.3517h3.12q-1.3371 3.7974-3.8509 5.5624-2.5138 1.7472-5.8477 1.7472-3.744 0-5.402-2.7277-1.6402-2.7456-0.76662-6.8461 1.0697-5.0276 4.1005-7.8266 3.0486-2.7991 6.8283-2.7991 3.2269 0 4.9028 1.5689 1.6937 1.5689 1.3015 5.402z"/>
  <path id="ao" d="m335.21 129.08q1.6937 0 3.4587-0.78445 2.9417-1.3015 3.5835-4.261l0.53485-2.5851q-0.65965 0.37439-1.6402 0.62399t-1.8898 0.35657l-1.9968 0.24959q-1.8007 0.23177-2.7812 0.73097-1.658 0.83793-2.0503 2.6742-0.30308 1.3906 0.53485 2.1929 0.85577 0.80228 2.2464 0.80228zm6.3647-9.4847q1.141-0.14263 1.6937-0.92708 0.30309-0.42788 0.46354-1.2302 0.35657-1.6402-0.65965-2.3712-1.0162-0.74879-3.1913-0.74879-2.5138 0-3.8509 1.355-0.74879 0.7488-1.2302 2.2286h-2.9952q0.83793-3.53 3.3339-4.9028 2.496-1.3906 5.402-1.3906 3.3696 0 5.1881 1.2836t1.248 3.9936l-2.3355 11q-0.10697 0.49919 0.0178 0.80228 0.14262 0.30308 0.80227 0.30308 0.21394 0 0.48137-0.0178 0.28525-0.0357 0.60616-0.0891l-0.51702 2.3712q-0.78445 0.21394-1.1945 0.26743-0.39222 0.0535-1.0697 0.0535-1.658 0-2.1572-1.1767-0.26742-0.62399-0.17828-1.765-1.2658 1.2836-3.2982 2.2286-2.0324 0.9449-4.2432 0.9449-2.6564 0-4.0114-1.6046-1.3371-1.6224-0.82011-4.047 0.57051-2.6564 2.5316-4.1184 1.979-1.4619 4.7424-1.8007z"/>
  <path id="ap" d="m356.32 106.74h3.2448l-1.141 5.3307h3.0486l-0.55268 2.6208h-3.0486l-2.6564 12.462q-0.21394 0.99838 0.39222 1.3371 0.33874 0.19612 1.2123 0.19612 0.23177 0 0.49919 0 0.26743-0.0178 0.64182-0.0535l-0.53485 2.5316q-0.58833 0.16045-1.2123 0.23177-0.60616 0.0713-1.3015 0.0713-2.2464 0-2.8169-1.141-0.55268-1.1588-0.16045-2.9952l2.6921-12.64h-2.5851l0.55268-2.6208h2.5851z"/>
  <path id="aq" d="m365.95 112.16h3.2626l-4.0292 19.005h-3.2626zm1.5332-7.1848h3.2626l-0.78445 3.637h-3.2626z"/>
  <path id="ar" d="m386.54 121.31q0.57051-2.6743 0.0713-4.3501-0.80228-2.6386-4.1184-2.6386-2.9417 0-4.7602 2.2464-1.8007 2.2464-2.4781 5.4198-0.64183 3.0486 0.24959 5.0811 0.90925 2.0324 3.8153 2.0324 3.1913 0 4.885-2.4068 1.7115-2.4247 2.3355-5.3842zm3.3696-0.0891q-0.98056 4.6176-3.8688 7.6305-2.8882 3.013-7.6127 3.013-3.9401 0-5.6873-2.6564-1.7472-2.6743-0.80227-7.167 1.034-4.8137 4.0827-7.6662 3.0486-2.8525 7.167-2.8525 3.6905 0 5.7051 2.4603 2.0324 2.4603 1.0162 7.2383z"/>
  <path id="as" d="m396.96 112.07h3.0486l-0.57051 2.7099q1.7115-1.6759 3.3696-2.4068 1.6759-0.73097 3.53-0.73097 4.0649 0 4.885 2.8347 0.46354 1.5511-0.14262 4.4393l-2.6029 12.248h-3.2626l2.5495-12.034q0.3744-1.7472 0.0891-2.8169-0.48136-1.7828-2.7277-1.7828-1.141 0-1.9255 0.23177-1.4084 0.39222-2.6564 1.5689-0.99839 0.94491-1.4619 1.9611-0.44571 0.99838-0.83793 2.8704l-2.1216 10.002h-3.2091z"/>
  <path id="at" d="m440.07 120.44-1.5154-11.571-6.6856 11.571zm-2.5316-15.457h4.0114l3.9401 26.19h-3.8866l-0.99839-7.8445h-10.358l-4.4928 7.8445h-3.637z"/>
  <path id="au" d="m467.31 118.49h-3.12q0.0892-1.765-0.67747-2.9239-0.76662-1.1767-3.013-1.1767-3.0665 0-5.0276 2.9952-1.2658 1.9433-1.872 4.7958-0.62399 2.8704 0.17829 4.8315 0.80227 1.9611 3.4052 1.9611 1.9968 0 3.423-1.2123 1.4263-1.2302 2.3177-3.3517h3.12q-1.3371 3.7974-3.8509 5.5624-2.5138 1.7472-5.8477 1.7472-3.744 0-5.402-2.7277-1.6402-2.7456-0.76662-6.8461 1.0697-5.0276 4.1005-7.8266 3.0486-2.7991 6.8283-2.7991 3.2269 0 4.9028 1.5689 1.6937 1.5689 1.3015 5.402z"/>
  <path id="av" d="m474.95 106.74h3.2448l-1.141 5.3307h3.0486l-0.55268 2.6208h-3.0486l-2.6564 12.462q-0.21394 0.99838 0.39223 1.3371 0.33874 0.19612 1.2123 0.19612 0.23177 0 0.49919 0 0.26743-0.0178 0.64182-0.0535l-0.53485 2.5316q-0.58834 0.16045-1.2123 0.23177-0.60616 0.0713-1.3015 0.0713-2.2464 0-2.8169-1.141-0.55268-1.1588-0.16046-2.9952l2.6921-12.64h-2.5851l0.55268-2.6208h2.5851z"/>
  <path id="aw" d="m496.95 113.09 0.51703-2.4603q3.5478-0.33874 5.0811-1.1232 1.5511-0.80228 2.8704-3.7618h2.5316l-5.402 25.423h-3.423l3.8331-18.078z"/>
  <path id="ax" d="m517.37 125q-0.42788 2.6564 1.2658 3.6726 0.87359 0.53485 2.1038 0.53485 2.2999 0 4.3323-1.9076 2.0324-1.9255 3.9579-7.791-1.4441 1.6937-3.1734 2.389-1.7115 0.67747-3.53 0.67747-3.6905 0-5.3485-2.2999t-0.89142-5.919q0.73097-3.4765 3.4052-6.1151 2.6921-2.6386 6.8283-2.6386 5.5803 0 6.6322 5.0276 0.58834 2.7634-0.28525 6.9174-0.99839 4.6889-3.1734 8.308-3.6192 6.026-9.1994 6.026-3.744 0-5.2772-1.9611-1.5154-1.9611-0.89142-4.9206zm12.248-10.893q0.60616-2.8169-0.53485-4.1897-1.1232-1.3906-3.3161-1.3906-2.3533 0-4.0649 1.5867-1.7115 1.5689-2.282 4.2075-0.51702 2.496 0.3744 3.9757 0.90924 1.4619 3.5657 1.4619 1.9076 0 3.744-1.248 1.8542-1.2658 2.5138-4.4036z"/>
  <path id="ay" d="m538.96 125q-0.42788 2.6564 1.2658 3.6726 0.87359 0.53485 2.1038 0.53485 2.2999 0 4.3323-1.9076 2.0324-1.9255 3.9579-7.791-1.4441 1.6937-3.1734 2.389-1.7115 0.67747-3.53 0.67747-3.6905 0-5.3485-2.2999t-0.89142-5.919q0.73097-3.4765 3.4052-6.1151 2.6921-2.6386 6.8283-2.6386 5.5803 0 6.6322 5.0276 0.58834 2.7634-0.28525 6.9174-0.99839 4.6889-3.1734 8.308-3.6192 6.026-9.1994 6.026-3.744 0-5.2772-1.9611-1.5154-1.9611-0.89142-4.9206zm12.248-10.893q0.60616-2.8169-0.53486-4.1897-1.1232-1.3906-3.3161-1.3906-2.3534 0-4.0649 1.5867-1.7115 1.5689-2.282 4.2075-0.51703 2.496 0.37439 3.9757 0.90925 1.4619 3.5657 1.4619 1.9076 0 3.744-1.248 1.8542-1.2658 2.5138-4.4036z"/>
  <path id="az" d="m556.93 123.32h3.3517q-0.32091 2.4781 0.16045 3.6013 0.82011 2.0146 4.0827 2.0146 2.5316 0 4.3501-1.355t2.282-3.4944q0.55268-2.6386-0.83793-3.6905-1.3906-1.0519-4.261-1.0519-0.32091 0-0.65965 0.0178-0.32091 0-0.65965 0.0178l0.60616-2.8347q0.48137 0.0535 0.82011 0.0713t0.73096 0.0178q1.8007 0 3.0843-0.57051 2.2286-0.99839 2.7812-3.5657 0.41005-1.9076-0.73097-2.9417-1.141-1.034-2.9417-1.034-3.2091 0-4.885 2.1394-0.92708 1.1767-1.4798 3.3517h-3.1734q0.60617-2.8525 2.1751-4.8493 2.7099-3.5657 7.6484-3.5657 3.9044 0 5.6694 1.7472 1.7828 1.7294 1.0875 5.0276-0.51702 2.3533-2.0859 3.8153-0.98056 0.90924-2.3355 1.4263 1.8898 0.55268 2.6921 2.1394 0.80227 1.5689 0.32091 3.8509-0.78445 3.6548-3.6905 5.9547-2.8882 2.2999-7.3096 2.2999-4.5284 0-6.0438-2.4782-1.4976-2.496-0.74879-6.0616z"/>
 </g>
 <path id="ba" d="m2.6517 2.0755h19.306v19.306h-19.306z" fill="#f00" stroke-width=".037127"/>
 <g id="bb" transform="matrix(.037127 0 0 .037127 -1.7965 19.514)">
  <g id="bc" transform="matrix(.26458 0 0 .26458 7.6054 8.5922)" aria-label="Restricted to persons 18 Years and over.">
   <path id="bd" d="m3067.2-1600q18.266 0 28.834-7.3063 10.698-7.3062 10.698-26.355 0-20.484-14.874-27.92-7.9586-3.914-21.266-3.914h-63.408v65.495zm-85.979-87.806h88.719q21.919 0 36.14 6.393 27.007 12.264 27.007 45.273 0 17.222-7.1758 28.181-7.0453 10.959-19.831 17.613 11.22 4.5664 16.83 12.003 5.7406 7.4367 6.393 24.137l0.9133 25.702q0.3914 10.959 1.8265 16.309 2.3485 9.1328 8.35 11.742v4.3055h-31.834q-1.3046-2.4789-2.0875-6.393-0.7828-3.914-1.3046-15.134l-1.5657-31.965q-0.9132-18.788-13.96-25.18-7.4367-3.5227-23.354-3.5227h-59.102v82.195h-25.963z"/>
   <path id="be" d="m3226.1-1639q14.873 0 28.834 7.0453 13.96 6.9149 21.266 18.005 7.0453 10.568 9.3937 24.659 2.0875 9.6547 2.0875 30.791h-102.42q0.6523 21.266 10.046 34.183 9.3937 12.786 29.094 12.786 18.396 0 29.356-12.134 6.2625-7.0453 8.8718-16.309h23.093q-0.9133 7.6977-6.132 17.222-5.0883 9.3937-11.481 15.395-10.698 10.438-26.485 14.091-8.4805 2.0875-19.179 2.0875-26.094 0-44.229-18.918-18.135-19.048-18.135-53.231 0-33.661 18.266-54.666 18.266-21.006 47.752-21.006zm37.444 61.842q-1.4351-15.265-6.6539-24.398-9.6547-16.961-32.226-16.961-16.178 0-27.138 11.742-10.959 11.612-11.612 29.616z"/>
   <path id="bf" d="m3330.5-1540q1.0437 11.742 5.8711 18.005 8.8719 11.351 30.791 11.351 13.047 0 22.962-5.6102 9.9156-5.7406 9.9156-17.613 0-9.0023-7.9586-13.699-5.0882-2.8703-20.092-6.6539l-18.657-4.6969q-17.874-4.4359-26.355-9.9156-15.134-9.5242-15.134-26.355 0-19.831 14.221-32.095 14.352-12.264 38.488-12.264 31.574 0 45.534 18.526 8.7414 11.742 8.4805 25.311h-22.18q-0.6523-7.9586-5.6101-14.482-8.0891-9.2633-28.051-9.2633-13.308 0-20.223 5.0883-6.7844 5.0883-6.7844 13.438 0 9.1328 9.0024 14.612 5.2187 3.2617 15.395 5.7406l15.526 3.7836q25.311 6.1321 33.922 11.873 13.699 9.0023 13.699 28.312 0 18.657-14.221 32.226-14.091 13.569-43.055 13.569-31.182 0-44.229-14.091-12.916-14.221-13.83-35.096z"/>
   <path id="bg" d="m3454.8-1674.9h23.745v39.01h22.31v19.179h-22.31v91.198q0 7.3063 4.9578 9.7852 2.7399 1.4352 9.1329 1.4352 1.6961 0 3.6531 0 1.957-0.1305 4.5664-0.3914v18.526q-4.0445 1.1742-8.4805 1.6961-4.3054 0.5219-9.3937 0.5219-16.439 0-22.31-8.35-5.8711-8.4805-5.8711-21.919v-92.502h-18.918v-19.179h18.918z"/>
   <path id="bh" d="m3525-1635.9h22.31v24.137q2.7398-7.0453 13.438-17.091 10.698-10.177 24.658-10.177 0.6524 0 2.218 0.1305t5.3492 0.5219v24.789q-2.0875-0.3914-3.914-0.5218-1.6961-0.1305-3.7836-0.1305-17.744 0-27.268 11.481-9.5242 11.351-9.5242 26.224v80.369h-23.484z"/>
   <path id="bi" d="m3613.3-1635.2h23.876v139.08h-23.876zm0-52.579h23.876v26.616h-23.876z"/>
   <path id="bj" d="m3726.6-1639.9q23.615 0 38.358 11.481 14.874 11.481 17.874 39.532h-22.832q-2.0875-12.916-9.5242-21.397-7.4367-8.611-23.876-8.611-22.441 0-32.095 21.919-6.2625 14.221-6.2625 35.096 0 21.005 8.8719 35.357t27.92 14.352q14.612 0 23.093-8.8719 8.6109-9.0024 11.873-24.528h22.832q-3.9141 27.79-19.57 40.706-15.656 12.786-40.054 12.786-27.398 0-43.707-19.962-16.309-20.092-16.309-50.1 0-36.792 17.874-57.276t45.534-20.484z"/>
   <path id="bk" d="m3811-1674.9h23.745v39.01h22.31v19.179h-22.31v91.198q0 7.3063 4.9578 9.7852 2.7398 1.4352 9.1328 1.4352 1.6961 0 3.6531 0 1.957-0.1305 4.5664-0.3914v18.526q-4.0445 1.1742-8.4805 1.6961-4.3054 0.5219-9.3937 0.5219-16.439 0-22.31-8.35-5.8711-8.4805-5.8711-21.919v-92.502h-18.918v-19.179h18.918z"/>
   <path id="bl" d="m3938.7-1639q14.874 0 28.834 7.0453 13.96 6.9149 21.266 18.005 7.0453 10.568 9.3938 24.659 2.0875 9.6547 2.0875 30.791h-102.42q0.6523 21.266 10.046 34.183 9.3937 12.786 29.094 12.786 18.396 0 29.356-12.134 6.2625-7.0453 8.8719-16.309h23.093q-0.9132 7.6977-6.132 17.222-5.0883 9.3937-11.481 15.395-10.698 10.438-26.485 14.091-8.4805 2.0875-19.179 2.0875-26.094 0-44.229-18.918-18.135-19.048-18.135-53.231 0-33.661 18.266-54.666 18.266-21.006 47.752-21.006zm37.445 61.842q-1.4352-15.265-6.654-24.398-9.6546-16.961-32.226-16.961-16.178 0-27.138 11.742-10.959 11.612-11.612 29.616z"/>
   <path id="bm" d="m4044-1564.4q0 22.441 9.5242 37.575t30.53 15.134q16.309 0 26.746-13.96 10.568-14.091 10.568-40.315 0-26.485-10.829-39.141-10.829-12.786-26.746-12.786-17.744 0-28.834 13.569-10.959 13.569-10.959 39.924zm35.357-73.976q16.048 0 26.877 6.7843 6.2625 3.9141 14.221 13.699v-70.584h22.571v192.31h-21.136v-19.44q-8.2195 12.916-19.44 18.657t-25.702 5.7406q-23.354 0-40.445-19.57-17.091-19.701-17.091-52.318 0-30.53 15.526-52.84 15.656-22.441 44.62-22.441z"/>
   <path id="bn" d="m4256.7-1674.9h23.745v39.01h22.31v19.179h-22.31v91.198q0 7.3063 4.9578 9.7852 2.7399 1.4352 9.1329 1.4352 1.696 0 3.6531 0 1.957-0.1305 4.5664-0.3914v18.526q-4.0445 1.1742-8.4805 1.6961-4.3055 0.5219-9.3937 0.5219-16.439 0-22.31-8.35-5.8711-8.4805-5.8711-21.919v-92.502h-18.918v-19.179h18.918z"/>
   <path id="bo" d="m4381.7-1511.3q23.354 0 31.965-17.613 8.7414-17.744 8.7414-39.402 0-19.57-6.2625-31.834-9.9156-19.309-34.183-19.309-21.527 0-31.312 16.439-9.7852 16.439-9.7852 39.662 0 22.31 9.7852 37.184 9.7851 14.873 31.052 14.873zm0.9132-128.64q27.007 0 45.664 18.005t18.657 52.97q0 33.792-16.439 55.841t-51.013 22.049q-28.834 0-45.795-19.44-16.961-19.57-16.961-52.448 0-35.227 17.874-56.102t48.012-20.875z"/>
   <path id="bp" d="m4608-1511.9q16.439 0 27.268-13.699 10.959-13.83 10.959-41.228 0-16.7-4.8274-28.703-9.1328-23.093-33.4-23.093-24.398 0-33.4 24.398-4.8273 13.047-4.8273 33.139 0 16.178 4.8273 27.529 9.1328 21.658 33.4 21.658zm-60.798-123.29h22.832v18.527q7.0453-9.5242 15.395-14.743 11.873-7.8281 27.92-7.8281 23.745 0 40.315 18.266 16.57 18.135 16.57 51.927 0 45.664-23.876 65.234-15.134 12.394-35.226 12.394-15.787 0-26.485-6.9149-6.2625-3.914-13.96-13.438v71.366h-23.484z"/>
   <path id="bq" d="m4755.8-1639q14.873 0 28.834 7.0453 13.96 6.9149 21.266 18.005 7.0453 10.568 9.3937 24.659 2.0875 9.6547 2.0875 30.791h-102.42q0.6523 21.266 10.046 34.183 9.3938 12.786 29.095 12.786 18.396 0 29.356-12.134 6.2625-7.0453 8.8718-16.309h23.093q-0.9133 7.6977-6.132 17.222-5.0883 9.3937-11.481 15.395-10.698 10.438-26.485 14.091-8.4805 2.0875-19.179 2.0875-26.094 0-44.229-18.918-18.135-19.048-18.135-53.231 0-33.661 18.266-54.666t47.752-21.006zm37.444 61.842q-1.4351-15.265-6.6539-24.398-9.6547-16.961-32.226-16.961-16.178 0-27.138 11.742-10.959 11.612-11.612 29.616z"/>
   <path id="br" d="m4846.9-1635.9h22.31v24.137q2.7398-7.0453 13.438-17.091 10.698-10.177 24.659-10.177 0.6523 0 2.2179 0.1305 1.5657 0.1305 5.3493 0.5219v24.789q-2.0875-0.3914-3.9141-0.5218-1.6961-0.1305-3.7836-0.1305-17.744 0-27.268 11.481-9.5242 11.351-9.5242 26.224v80.369h-23.484z"/>
   <path id="bs" d="m4949.2-1540q1.0437 11.742 5.8711 18.005 8.8719 11.351 30.791 11.351 13.047 0 22.962-5.6102 9.9156-5.7406 9.9156-17.613 0-9.0023-7.9586-13.699-5.0882-2.8703-20.092-6.6539l-18.657-4.6969q-17.874-4.4359-26.355-9.9156-15.134-9.5242-15.134-26.355 0-19.831 14.221-32.095 14.352-12.264 38.488-12.264 31.574 0 45.534 18.526 8.7414 11.742 8.4805 25.311h-22.18q-0.6523-7.9586-5.6101-14.482-8.0891-9.2633-28.051-9.2633-13.308 0-20.223 5.0883-6.7844 5.0883-6.7844 13.438 0 9.1328 9.0024 14.612 5.2187 3.2617 15.395 5.7406l15.526 3.7836q25.311 6.1321 33.922 11.873 13.699 9.0023 13.699 28.312 0 18.657-14.221 32.226-14.091 13.569-43.055 13.569-31.182 0-44.229-14.091-12.916-14.221-13.83-35.096z"/>
   <path id="bt" d="m5124.3-1511.3q23.354 0 31.965-17.613 8.7414-17.744 8.7414-39.402 0-19.57-6.2625-31.834-9.9156-19.309-34.183-19.309-21.527 0-31.312 16.439-9.7852 16.439-9.7852 39.662 0 22.31 9.7852 37.184 9.7851 14.873 31.052 14.873zm0.9133-128.64q27.007 0 45.664 18.005t18.657 52.97q0 33.792-16.439 55.841t-51.013 22.049q-28.834 0-45.795-19.44-16.961-19.57-16.961-52.448 0-35.227 17.874-56.102t48.012-20.875z"/>
   <path id="bu" d="m5217.4-1635.9h22.31v19.831q9.9156-12.264 21.005-17.613 11.09-5.3492 24.659-5.3492 29.747 0 40.184 20.745 5.7406 11.351 5.7406 32.487v89.632h-23.876v-88.066q0-12.786-3.7836-20.614-6.2625-13.047-22.702-13.047-8.35 0-13.699 1.6961-9.6547 2.8703-16.961 11.481-5.8711 6.9149-7.6976 14.352-1.6961 7.3062-1.6961 21.005v73.193h-23.484z"/>
   <path id="bv" d="m5380-1540q1.0438 11.742 5.8711 18.005 8.8719 11.351 30.791 11.351 13.047 0 22.962-5.6102 9.9157-5.7406 9.9157-17.613 0-9.0023-7.9586-13.699-5.0883-2.8703-20.092-6.6539l-18.657-4.6969q-17.874-4.4359-26.355-9.9156-15.134-9.5242-15.134-26.355 0-19.831 14.221-32.095 14.352-12.264 38.488-12.264 31.573 0 45.534 18.526 8.7414 11.742 8.4804 25.311h-22.18q-0.6523-7.9586-5.6101-14.482-8.0891-9.2633-28.051-9.2633-13.308 0-20.223 5.0883-6.7844 5.0883-6.7844 13.438 0 9.1328 9.0023 14.612 5.2188 3.2617 15.395 5.7406l15.526 3.7836q25.311 6.1321 33.922 11.873 13.699 9.0023 13.699 28.312 0 18.657-14.221 32.226-14.091 13.569-43.055 13.569-31.182 0-44.229-14.091-12.916-14.221-13.83-35.096z"/>
   <path id="bw" d="m2983.3-1361.2v-18.005q25.441-2.4789 35.488-8.2196 10.046-5.8711 15.004-27.529h18.527v186.05h-25.05v-132.3z"/>
   <path id="bx" d="m3179-1337.5q15.526 0 24.267-8.611 8.7414-8.7414 8.7414-20.744 0-10.438-8.35-19.179t-25.441-8.7414q-16.961 0-24.528 8.7414t-7.5672 20.484q0 13.177 9.7852 20.614 9.7852 7.4368 23.093 7.4368zm1.4351 92.502q16.309 0 27.007-8.7414 10.829-8.8719 10.829-26.355 0-18.135-11.09-27.529-11.09-9.3937-28.442-9.3937-16.83 0-27.529 9.6546-10.568 9.5243-10.568 26.485 0 14.612 9.6546 25.311 9.7852 10.568 30.138 10.568zm-33.4-83.5q-9.7851-4.175-15.265-9.7852-10.307-10.438-10.307-27.138 0-20.875 15.134-35.879t42.924-15.004q26.877 0 42.142 14.221 15.265 14.091 15.265 33.009 0 17.483-8.8719 28.312-4.9578 6.1321-15.395 12.003 11.612 5.3492 18.266 12.264 12.395 13.047 12.395 33.922 0 24.659-16.57 41.88-16.57 17.091-46.838 17.091-27.268 0-46.186-14.743-18.788-14.873-18.788-43.055 0-16.57 8.0891-28.573 8.089-12.134 24.006-18.527z"/>
   <path id="by" d="m3335.7-1420.6h30.269l55.058 92.111 55.058-92.111h30.399l-72.41 114.42v77.238h-25.963v-77.238z"/>
   <path id="bz" d="m3583.8-1371.8q14.873 0 28.834 7.0453 13.96 6.9148 21.266 18.005 7.0453 10.568 9.3937 24.659 2.0875 9.6547 2.0875 30.791h-102.42q0.6524 21.266 10.046 34.183 9.3938 12.786 29.095 12.786 18.396 0 29.355-12.134 6.2625-7.0454 8.8719-16.309h23.093q-0.9133 7.6976-6.1321 17.222-5.0882 9.3938-11.481 15.395-10.698 10.438-26.485 14.091-8.4804 2.0875-19.179 2.0875-26.094 0-44.229-18.918-18.135-19.048-18.135-53.231 0-33.661 18.266-54.666t47.752-21.005zm37.444 61.842q-1.4352-15.265-6.6539-24.398-9.6547-16.961-32.226-16.961-16.178 0-27.138 11.742-10.959 11.612-11.612 29.616z"/>
   <path id="ca" d="m3692.2-1266.1q0 10.176 7.4367 16.048 7.4368 5.8711 17.613 5.8711 12.395 0 24.006-5.7406 19.57-9.5242 19.57-31.182v-18.918q-4.3055 2.7398-11.09 4.5664-6.7843 1.8266-13.308 2.6094l-14.221 1.8265q-12.786 1.6961-19.179 5.3493-10.829 6.132-10.829 19.57zm56.884-47.491q8.0891-1.0437 10.829-6.7843 1.5656-3.1313 1.5656-9.0024 0-12.003-8.6109-17.352-8.4805-5.4797-24.398-5.4797-18.396 0-26.094 9.9156-4.3055 5.4797-5.6102 16.309h-21.919q0.6523-25.833 16.7-35.879 16.178-10.177 37.444-10.177 24.659 0 40.054 9.3938 15.265 9.3937 15.265 29.225v80.499q0 3.6531 1.4351 5.8711 1.5656 2.218 6.393 2.218 1.5656 0 3.5226-0.1305 1.9571-0.2609 4.175-0.6523v17.352q-5.4796 1.5656-8.35 1.957-2.8703 0.3914-7.8281 0.3914-12.134 0-17.613-8.6109-2.8703-4.5664-4.0445-12.916-7.1758 9.3938-20.614 16.309-13.438 6.9148-29.616 6.9148-19.44 0-31.834-11.742-12.264-11.873-12.264-29.616 0-19.44 12.134-30.138t31.834-13.177z"/>
   <path id="cb" d="m3821.5-1368.7h22.31v24.137q2.7399-7.0453 13.438-17.091 10.698-10.176 24.659-10.176 0.6523 0 2.218 0.1304 1.5656 0.1305 5.3492 0.5219v24.789q-2.0875-0.3914-3.9141-0.5219-1.6961-0.1305-3.7836-0.1305-17.744 0-27.268 11.481-9.5243 11.351-9.5243 26.224v80.369h-23.484z"/>
   <path id="cc" d="m3921.8-1272.8q1.0438 11.742 5.8711 18.005 8.8719 11.351 30.791 11.351 13.047 0 22.962-5.6101 9.9157-5.7406 9.9157-17.613 0-9.0023-7.9586-13.699-5.0883-2.8703-20.092-6.6539l-18.657-4.6969q-17.874-4.4359-26.355-9.9156-15.134-9.5243-15.134-26.355 0-19.831 14.221-32.095 14.352-12.264 38.488-12.264 31.573 0 45.534 18.527 8.7414 11.742 8.4804 25.311h-22.18q-0.6523-7.9586-5.6101-14.482-8.0891-9.2633-28.051-9.2633-13.308 0-20.223 5.0883-6.7843 5.0883-6.7843 13.438 0 9.1328 9.0023 14.612 5.2188 3.2617 15.395 5.7406l15.526 3.7836q25.311 6.132 33.922 11.873 13.699 9.0024 13.699 28.312 0 18.657-14.221 32.226-14.091 13.569-43.055 13.569-31.182 0-44.229-14.091-12.916-14.221-13.83-35.096z"/>
   <path id="cd" d="m4136.6-1266.1q0 10.176 7.4367 16.048 7.4368 5.8711 17.613 5.8711 12.394 0 24.006-5.7406 19.57-9.5242 19.57-31.182v-18.918q-4.3055 2.7398-11.09 4.5664-6.7843 1.8266-13.308 2.6094l-14.221 1.8265q-12.786 1.6961-19.179 5.3493-10.829 6.132-10.829 19.57zm56.884-47.491q8.0891-1.0437 10.829-6.7843 1.5656-3.1313 1.5656-9.0024 0-12.003-8.6109-17.352-8.4805-5.4797-24.398-5.4797-18.396 0-26.094 9.9156-4.3055 5.4797-5.6102 16.309h-21.919q0.6523-25.833 16.7-35.879 16.178-10.177 37.444-10.177 24.659 0 40.054 9.3938 15.265 9.3937 15.265 29.225v80.499q0 3.6531 1.4351 5.8711 1.5656 2.218 6.393 2.218 1.5656 0 3.5226-0.1305 1.9571-0.2609 4.175-0.6523v17.352q-5.4797 1.5656-8.35 1.957t-7.8281 0.3914q-12.134 0-17.613-8.6109-2.8703-4.5664-4.0445-12.916-7.1758 9.3938-20.614 16.309-13.438 6.9148-29.616 6.9148-19.44 0-31.834-11.742-12.264-11.873-12.264-29.616 0-19.44 12.134-30.138t31.834-13.177z"/>
   <path id="ce" d="m4266.2-1368.7h22.31v19.831q9.9156-12.264 21.005-17.613 11.09-5.3492 24.659-5.3492 29.747 0 40.184 20.744 5.7406 11.351 5.7406 32.487v89.632h-23.876v-88.066q0-12.786-3.7835-20.614-6.2625-13.047-22.702-13.047-8.35 0-13.699 1.6961-9.6547 2.8703-16.961 11.481-5.8711 6.9148-7.6976 14.352-1.6961 7.3063-1.6961 21.006v73.193h-23.484z"/>
   <path id="cf" d="m4428.7-1297.2q0 22.441 9.5243 37.575 9.5242 15.134 30.53 15.134 16.309 0 26.746-13.96 10.568-14.091 10.568-40.315 0-26.485-10.829-39.141-10.829-12.786-26.746-12.786-17.744 0-28.834 13.569-10.959 13.569-10.959 39.923zm35.357-73.976q16.048 0 26.876 6.7844 6.2625 3.9141 14.221 13.699v-70.584h22.571v192.31h-21.136v-19.44q-8.2195 12.916-19.44 18.657-11.22 5.7406-25.702 5.7406-23.354 0-40.445-19.57-17.091-19.701-17.091-52.318 0-30.53 15.526-52.84 15.656-22.441 44.62-22.441z"/>
   <path id="cg" d="m4691.1-1244.1q23.354 0 31.965-17.613 8.7414-17.744 8.7414-39.402 0-19.57-6.2625-31.834-9.9157-19.309-34.183-19.309-21.527 0-31.312 16.439-9.7851 16.439-9.7851 39.662 0 22.31 9.7851 37.184 9.7852 14.873 31.052 14.873zm0.9133-128.64q27.007 0 45.664 18.005t18.657 52.97q0 33.791-16.439 55.841-16.439 22.049-51.013 22.049-28.834 0-45.794-19.44-16.961-19.57-16.961-52.448 0-35.227 17.874-56.102t48.012-20.875z"/>
   <path id="ch" d="m4795.8-1368.7 37.314 113.77 39.01-113.77h25.702l-52.709 139.73h-25.05l-51.535-139.73z"/>
   <path id="ci" d="m4976.1-1371.8q14.874 0 28.834 7.0453 13.96 6.9148 21.266 18.005 7.0453 10.568 9.3938 24.659 2.0875 9.6547 2.0875 30.791h-102.42q0.6524 21.266 10.046 34.183 9.3938 12.786 29.094 12.786 18.396 0 29.356-12.134 6.2625-7.0454 8.8719-16.309h23.093q-0.9133 7.6976-6.1321 17.222-5.0883 9.3938-11.481 15.395-10.698 10.438-26.485 14.091-8.4805 2.0875-19.179 2.0875-26.094 0-44.229-18.918-18.135-19.048-18.135-53.231 0-33.661 18.266-54.666t47.752-21.005zm37.445 61.842q-1.4352-15.265-6.6539-24.398-9.6547-16.961-32.226-16.961-16.178 0-27.138 11.742-10.959 11.612-11.612 29.616z"/>
   <path id="cj" d="m5067.1-1368.7h22.31v24.137q2.7399-7.0453 13.438-17.091 10.698-10.176 24.659-10.176 0.6524 0 2.218 0.1304 1.5656 0.1305 5.3492 0.5219v24.789q-2.0875-0.3914-3.914-0.5219-1.6961-0.1305-3.7836-0.1305-17.744 0-27.268 11.481-9.5242 11.351-9.5242 26.224v80.369h-23.484z"/>
   <path id="ck" d="m5159.5-1257.4h27.268v28.442h-27.268z"/>
  </g>
  <g id="cl" transform="matrix(.15203 0 0 .14123 90.607 -161.02)" aria-label="ESTRICTE">
   <path id="cm" d="m1015.3-1508h-203.65v-393.85h203.65v57.189h-131.97v100.66h121.88v57.447h-121.88v121.36h131.97z"/>
   <path id="cn" d="m1314.4-1781.5h-69.868q0-20.961-2.8465-35.711-2.8465-15.009-12.162-24.324t-27.43-9.3158q-19.925 0-30.535 8.2807-10.351 8.2807-10.351 28.206 0 13.715 5.4343 23.29 5.4342 9.5746 12.421 15.268 3.364 2.5878 19.408 13.456 16.303 10.868 25.877 17.338 9.5745 6.4693 28.982 19.667 15.785 10.868 32.605 27.689 17.079 16.561 27.689 38.298 10.868 21.737 10.868 47.873 0 54.342-32.864 83.842-32.605 29.241-87.465 29.241-42.439 0-69.092-14.75-26.395-15.009-38.298-41.921t-11.904-63.658v-27.689h73.232v22.254q0 31.311 10.351 49.167 10.351 17.596 35.71 17.596 21.737 0 33.123-12.421t11.386-31.053q0-15.268-7.5043-30.276-7.5044-15.009-19.926-24.324-3.8816-2.8465-25.618-17.596-21.478-14.75-39.851-27.689-18.114-12.939-25.618-19.408-18.89-16.044-31.311-37.522-12.68-21.737-12.68-49.167 0-33.382 12.421-56.671 12.68-23.29 38.298-35.193 25.877-12.162 63.917-12.162 51.237 0 76.079 20.702 25.101 20.702 31.311 47.873 6.2105 26.912 6.2105 60.811z"/>
   <path id="co" d="m1375.4-1844.6v-57.189h242.73v57.189h-84.877v336.66h-73.232v-336.66z"/>
   <path id="cp" d="m1755-1677.2v169.24h-71.68v-393.85h136.89q51.237 0 80.737 21.996t29.5 72.974q0 39.333-10.868 61.07-10.61 21.478-23.548 28.206-12.939 6.7281-22.513 6.7281-0.7763 0-1.5526 0-0.5176-0.2588-0.7763-0.2588 30.535 3.6228 43.215 21.996 7.7631 11.386 10.092 24.583 2.3289 12.939 2.3289 36.746 0 102.21 16.303 112.31v7.5044h-80.478q-6.9868-26.136-6.9868-99.11-1.0351-22.772-1.8114-32.088-1.0351-9.5746-6.4693-19.667-5.4342-10.351-17.079-13.715-18.373-4.6579-75.303-4.6579zm0-167.43v109.72h58.482q20.184-1.5526 31.311-17.338 11.386-15.785 11.386-37.263 0-21.996-12.162-38.039-11.904-16.303-33.899-17.079z"/>
   <path id="cq" d="m2091-1508h-71.68v-393.85h71.68z"/>
   <path id="cr" d="m2338.6-1647.5h74.268l-2.0701 21.219q-2.5877 60.294-27.43 94.193-24.583 33.64-81.254 33.64-42.439 0-68.575-13.197-25.877-13.197-38.298-37.004-12.421-24.066-16.044-54.601-3.8816-30.794-3.8816-77.114v-55.636q1.8114-47.096 5.693-75.82 4.1404-28.465 16.303-51.237 12.421-22.772 37.522-35.193 25.36-12.68 67.281-12.68 48.908 0.7763 75.561 25.877 26.912 25.36 30.794 75.82 2.329 19.149 2.329 30.276h-72.197q-2.8465-35.193-6.2105-46.838-3.364-10.868-10.61-17.855-7.2456-7.2456-19.667-7.2456-32.605 0-42.439 24.583-6.2105 16.303-8.2807 31.57-1.8114 15.268-1.8114 41.921v109.72q0 22.254 3.364 40.627 3.1053 18.114 14.75 31.57 11.645 13.456 34.417 13.456 13.715 0 21.478-9.5745 7.7632-9.8334 10.61-23.807 3.1053-14.232 3.6228-30.535t0.7763-26.136z"/>
   <path id="cs" d="m2466.6-1844.6v-57.189h242.73v57.189h-84.877v336.66h-73.232v-336.66z"/>
   <path id="ct" d="m2972.7-1508h-203.65v-393.85h203.65v57.189h-131.97v100.66h121.88v57.447h-121.88v121.36h131.97z"/>
  </g>
  <g id="cu" transform="matrix(.23289 0 0 .20127 20.572 -49.054)" aria-label="R">
   <path id="cv" d="m595.76-1725.8v170.31h-72.135v-396.35h137.76q51.562 0 81.25 22.135t29.688 73.438q0 39.583-10.938 61.458-10.677 21.614-23.698 28.385-13.021 6.7708-22.656 6.7708-0.78125 0-1.5625 0-0.52083-0.2604-0.78125-0.2604 30.729 3.6458 43.49 22.135 7.8125 11.458 10.156 24.74 2.3438 13.021 2.3438 36.979 0 102.86 16.406 113.02v7.5521h-80.99q-7.0312-26.302-7.0312-99.74-1.0417-22.917-1.8229-32.292-1.0417-9.6354-6.5104-19.792-5.4688-10.417-17.188-13.802-18.49-4.6875-75.781-4.6875zm0-168.49v110.42h58.854q20.312-1.5625 31.51-17.448 11.458-15.885 11.458-37.5 0-22.135-12.24-38.281-11.979-16.406-34.115-17.188z"/>
  </g>
  <g id="cw" transform="matrix(.23289 0 0 .20127 432.6 -48.946)" aria-label="D">
   <path id="cx" d="m599.14-1613h32.031q24.74 0 38.802-7.2917 14.062-7.5521 20.833-23.958 6.7708-16.667 8.5937-43.229t1.8229-75.521q0-38.021-2.3438-61.979-2.0833-23.698-7.8125-39.062-5.7292-15.625-16.146-22.917-10.156-7.2917-26.823-7.2917h-48.958zm62.24 57.552h-134.37v-396.35h152.08q41.667 0 63.021 29.167 21.615 29.167 27.344 67.969 5.9896 38.802 5.9896 84.635 0 53.646-2.8646 89.062-2.8646 35.417-15.885 67.188-13.021 31.51-40.885 47.656-17.188 10.677-54.427 10.677z"/>
  </g>
 </g>
 <path id="cy" d="m23.842 18.429v0.46457h0.77588v0.6104h0.40316v-0.60298h0.2813v0.60298h0.44003v-1.075z" fill="#a2a093" stroke-width=".037127"/>
 <path id="cz" d="m25.742 19.938v0.46457c-0.5631 0-0.77098 0.0074-1.4604 0.0074v0.60298h-0.44003v-1.075z" fill="#a2a093" stroke-width=".037127"/>
 <path id="da" d="m25.613 16.911a0.76756 0.76756 0 0 1-0.76756 0.76756 0.76756 0.76756 0 0 1-0.76756-0.76756 0.76756 0.76756 0 0 1 0.76756-0.76756 0.76756 0.76756 0 0 1 0.76756 0.76756z" fill="none" stroke="#a2a093" stroke-width=".472"/>
 <circle id="db" cx="24.857" cy="22.174" r="0" fill="#0f0" stroke-width=".037127"/>
 <g id="dc" transform="matrix(.037127 0 0 .037127 -1.7965 19.514)" fill="#a2a093">
  <path id="dd" d="m717.59 46.66c-14.853 0-27.029 12.178-27.029 27.031 0 5.537 1.6928 10.702 4.5847 15.003l10.994-6.3469c-1.8028-2.3947-2.866-5.3865-2.866-8.6558 0-7.9828 6.3336-14.319 14.316-14.319 7.9828 0 14.318 6.3357 14.318 14.319 0 3.8631-1.4867 7.3374-3.9228 9.8976l11.111 6.4151c3.4614-4.5436 5.5247-10.201 5.5247-16.313 0-14.853-12.178-27.031-27.031-27.031z" color="#000000" color-rendering="auto" dominant-baseline="auto" image-rendering="auto" shape-rendering="auto" solid-color="#000000" style="font-feature-settings:normal;font-variant-alternates:normal;font-variant-caps:normal;font-variant-ligatures:normal;font-variant-numeric:normal;font-variant-position:normal;isolation:auto;mix-blend-mode:normal;shape-padding:0;text-decoration-color:#000000;text-decoration-line:none;text-decoration-style:solid;text-indent:0;text-orientation:mixed;text-transform:none;white-space:normal"/>
  <path id="de" d="m690.56-372.63v12.513h20.898v16.441h10.859v-16.241h7.5768v16.241h11.852v-28.954z"/>
  <path id="df" d="m741.75-332v12.513c-15.167 0-20.766 0.1995-39.334 0.1995v16.241h-11.852v-28.954z"/>
 </g>
 <path id="dg" d="m25.613 4.1612a0.76756 0.76756 0 0 1-0.76756 0.76756 0.76756 0.76756 0 0 1-0.76756-0.76756 0.76756 0.76756 0 0 1 0.76756-0.76756 0.76756 0.76756 0 0 1 0.76756 0.76756z" fill="none" stroke="#a2a093" stroke-width=".472"/>
 <path id="dh" d="m24.846 8.4966c-0.55145 0-1.0035 0.45213-1.0035 1.0036 0 0.20557 0.06285 0.39733 0.17022 0.55702l0.40818-0.23564c-0.06693-0.088908-0.10641-0.19998-0.10641-0.32136 0-0.29638 0.23515-0.53162 0.53151-0.53162 0.29638 0 0.53158 0.23523 0.53158 0.53162 0 0.14343-0.0552 0.27242-0.14564 0.36747l0.41252 0.23817c0.12851-0.16869 0.20512-0.37873 0.20512-0.60565 0-0.55145-0.45213-1.0036-1.0036-1.0036z" color="#000000" color-rendering="auto" dominant-baseline="auto" fill="#a2a093" image-rendering="auto" shape-rendering="auto" solid-color="#000000" stroke-width=".037127" style="font-feature-settings:normal;font-variant-alternates:normal;font-variant-caps:normal;font-variant-ligatures:normal;font-variant-numeric:normal;font-variant-position:normal;isolation:auto;mix-blend-mode:normal;shape-padding:0;text-decoration-color:#000000;text-decoration-line:none;text-decoration-style:solid;text-indent:0;text-orientation:mixed;text-transform:none;white-space:normal"/>
 <g id="di" transform="matrix(.037127 0 0 .037127 20.316 24.212)">
  <g id="dj" transform="matrix(.59787 0 0 .59787 -430.07 1001.6)" aria-label="18">
   <path id="dk" d="m4.041-2250.2v-75.781q52.734-2.3437 73.828-7.0312 33.594-7.4219 54.687-29.688 14.453-15.234 21.875-40.625 4.2969-15.234 4.2969-22.656h92.578v566.41h-114.06v-390.62z"/>
   <path id="dl" d="m446.3-2024q0 41.797 21.484 64.844 21.875 23.047 60.156 23.047t59.766-23.047q21.875-23.047 21.875-64.844 0-43.359-22.266-65.625-21.875-22.656-59.375-22.656t-59.766 22.656q-21.875 22.266-21.875 65.625zm-115.62 7.4219q0-47.656 21.484-86.328 21.875-38.672 63.672-58.203-41.016-27.344-53.516-58.984-12.109-32.031-12.109-59.766 0-61.719 46.484-105.08 46.484-43.75 131.25-43.75t131.25 43.75q46.484 43.359 46.484 105.08 0 27.734-12.5 59.766-12.109 31.641-53.125 55.078 41.797 23.438 62.891 62.109t21.094 86.328q0 71.484-53.125 121.88-52.734 50-147.66 50-94.922 0-143.75-50-48.828-50.391-48.828-121.88zm125.78-250.78q0 30.859 18.75 50.391 19.141 19.531 52.734 19.531 33.984 0 52.344-19.531 18.75-19.531 18.75-50.391 0-33.594-18.75-52.344-18.359-19.141-52.344-19.141-33.594 0-52.734 19.141-18.75 18.75-18.75 52.344z"/>
  </g>
 </g>
 <path id="dm" d="m3.8168 0.13222h47.76c2.0412 0 3.6845 1.6433 3.6845 3.6845v17.631c0 2.0412-1.6433 3.6845-3.6845 3.6845h-47.76c-2.0412 0-3.6845-1.6433-3.6845-3.6845v-17.631c0-2.0412 1.6433-3.6845 3.6845-3.6845z" fill="none" stroke="#000" stroke-width=".26459"/>
</svg>
