<?xml version="1.0" encoding="UTF-8" standalone="no"?>
<svg xmlns="http://www.w3.org/2000/svg"
     version="1.1"
     width="180.02124"
     height="91.99707"
     viewBox="-4 -2 188 95"
     id="svg8">

    <path d="M 179.53735,-0.1933594 H -0.4838867 V 91.803711 H 179.53735 Z m -7.8369,87.2851564 H 7.3364746 V 4.430664 H 171.70045 Z"
          id="path4"
          style="stroke-width:1.30116642"/>

    <path d="m 89.265136,69.245118 -0.09033,7.216797 c 6.655274,-0.375977 31.345214,-0.375977 38.652344,0 l -0.18555,-7.119141 c -10.81543,0.273437 -9.79981,-2.041016 -9.79981,-5.273438 V 49.831055 l 13.40332,15.527344 c 2.58789,2.96875 4.72168,6.660156 7.30469,10.917969 24.6875,0 27.73438,0.185547 27.73438,0.185547 v -6.938477 c -7.94434,-0.737305 -9.24317,-1.479492 -12.01172,-4.716797 L 137.16308,44.748047 c 10.63477,-1.298828 17.29493,-6.845703 17.19727,-15.815429 -0.0879,-15.717774 -14.41895,-15.073243 -29.58496,-15.34668 -5.08545,-0.09766 -29.123535,0.08789 -35.600586,0.08789 l 0.09033,7.211914 c 9.89502,0 9.064942,0.922851 9.064942,4.80957 v 38.374023 c 0,2.495117 1.291507,5.917969 -9.064942,5.175782 z M 117.84179,21.447266 c 1.47461,-0.09766 2.77344,-0.283203 4.15772,-0.283203 7.30224,0 11.92627,2.77832 11.92627,8.789062 h -0.0928 c 0.0928,8.222657 -6.84571,10.634766 -15.99121,10.908203 V 21.447266 Z"
          id="path6"/>

    <path style="stroke-width:3.00129199"
          d="m 34.58602,75.345543 c -0.26413,0.444191 -0.708306,0.708306 -1.503649,0.708306 H 15.632858 c -0.708304,0 -1.593684,-0.17706 -1.152495,-1.683725 l 0.531229,-1.683725 c 0.354152,-1.149493 1.062458,-1.239535 1.683725,-1.41661 2.214953,-0.438188 4.516946,-2.034876 4.516946,-5.840515 V 24.863807 c -1.593687,-1.860803 -5.048174,-4.429909 -8.148508,-5.756479 -1.683726,-0.621267 -1.860804,-1.416609 -1.503649,-2.301991 l 0.708306,-2.037878 c 0.26711,-0.354153 0.708302,-0.708306 1.506647,-0.708306 h 22.230572 c 2.214954,0.17709 3.36745,1.770765 4.958135,3.631566 l 27.011627,35.781407 h 0.177091 V 24.686729 c 0,-4.339868 -1.32657,-4.958132 -5.669444,-6.020591 -1.149504,-0.177091 -1.326582,-1.062457 -0.975431,-1.860801 l 0.711307,-2.037878 c 0.2641,-0.444192 0.708303,-0.708306 1.503646,-0.708306 h 17.446513 c 0.708309,0 1.593699,0.17709 1.152509,1.683726 l -0.531241,1.683724 c -0.354153,1.149496 -1.062458,1.239535 -1.683724,1.416613 -2.214954,0.44119 -4.516946,2.037875 -4.516946,5.843513 v 48.446862 c 0,1.770762 -0.798346,2.92326 -2.392029,2.92326 H 62.92422 c -0.441192,0 -0.972419,-0.621266 -3.718601,-3.985715 L 28.829541,31.064475 h -0.177092 v 34.364799 c 0,4.339869 1.326571,4.958136 5.669441,6.020592 1.149496,0.177091 1.326571,1.062459 0.972418,1.860803 z"
          id="path5"/>
</svg>
