<?xml version="1.0" encoding="UTF-8" standalone="no"?>
<svg xmlns="http://www.w3.org/2000/svg"
     id="svg901"
     width="221"
     height="136"
     viewBox="-15 -19 240 136"
     version="1.0">

    <path style="clip-rule:evenodd;fill-opacity:1;fill-rule:evenodd"
          id="path881"
          d="m -7.692,89.00542 v -2.075 c 0.366,-2.544 1.455,-5.088003 2.373,-6.963003 0.347,-0.703 0.562,-1.519 1.187,-1.934 h 24.751 c -4.248,8.394003 7.773,8.857003 15.269,8.301003 6.328,-0.464 12.29,-2.119 15.415,-5.034003 1.167,-1.094 2.964,-3.433 2.52,-5.483 -0.322,-1.45 -2.495,-2.28 -4.453,-2.671 -6.514,-1.289 -14.302,0.054 -21.045,-0.444 2.095,-3.604 3.662,-6.089 5.781,-9.487 0.459,-0.728 1.396,-2.686 2.227,-2.964 1.03,-0.342 3.164,0 4.888,0 8.56,0 16.934,0.84 22.085,-2.515 1.406,-0.918 4.365,-3.525 3.853,-6.079 -0.313,-1.553 -2.515,-2.319 -4.741,-2.666 -9.028,-1.401 -17.891,0.293 -22.378,3.706 -0.894,0.674 -1.479,1.587 -2.378,1.772 -1.802,0.376 -4.141,0 -6.221,0 H 12.464 c 10.65,-15.127 36.431,-20.044 63.584,-17.783 7.456,0.625 17.627,2.119 19.121,8.301 0.728,3.003 -0.918,6.563 -2.373,8.745 -4.263,6.387 -11.499,10.386 -19.863,11.709 4.78,1.074 9.082,2.9 8.301,9.038 -0.396,3.14 -2.69,6.45 -4.888,9.043003 -10.64,12.549 -30.444,16.597 -53.506,16.597 -9.419,0 -18.364,-0.732 -24.453,-3.701 -2.925,-1.426 -5.654,-3.79 -6.079,-7.413"/>

    <path style="clip-rule:evenodd;fill-opacity:1;fill-rule:evenodd"
          id="path883"
          d="m 115.472,36.686417 h 36.909 c 13.623,0 30.083,-1.504 36.753,5.337 1.313,1.348 2.686,3.745 2.964,6.226 0.713,6.318 -2.515,12.295 -4.746,16.304 -10,18.013003 -24.941,30.972003 -49.204,34.385003 -6.26,0.879 -12.939,0.742 -20.151,0.742 H 76.2 c -0.581,0 0.098,-0.854 0.293,-1.187 1.626,-2.759 3.818,-5.776 5.63,-8.594 6.274,-9.746003 12.446,-20.127003 18.975,-29.648003 h 24.458 c 0.542,0.273 -0.347,1.094 -0.596,1.484 -4.893,7.676 -10.278,15.991 -15.264,23.711003 h 20.449 c 12.749,0 20.947,-6.099003 26.831,-13.779003 1.44,-1.885 2.744,-3.833 3.999,-6.226 1.396,-2.661 3.135,-6.509 1.924,-9.785 -2.402,-6.514 -16.504,-4.888 -25.64,-4.888 h -30.381 c -0.542,-0.273 0.298,-1.162 0.591,-1.631 1.05,-1.685 2.144,-3.394 3.262,-5.19 1.572,-2.52 3.086,-5.108 4.741,-7.261"/>

    <path id="path885"
          d="m 68.459,-13.420583 c -0.772,0 -3.022,0.717 -5.172,3.886 -2.214,3.17 -11.796,19.021 -13.633,21.974 -1.846,2.926 -1.231,4.354 0.708,4.354 h 4.318 c 2.104,0 3.775,-2.416 4.676,-3.835 0.91,-1.506 12.356,-19.917 13.991,-22.626 1.663,-2.729 0.588,-3.753 -0.524,-3.753 h -4.364"/>

    <path id="path887"
          d="m 29.664,16.707417 c 7.202,-0.303 12.135,-0.395 17.804,-10.95 2.508,-4.694 -4.501,-4.956 -4.501,-4.956 -0.891,0 6.366,0.358 10.289,-7.854 3.574,-7.386 -2.857,-6.812 -4.023,-6.909 -5.328,-0.579 -15.406,-0.579 -23.049,0.023 -1.663,0 -3.417,2.146 -4.345,3.432 -0.911,1.353 -12.56,20.356 -14.287,23.217 -1.773,2.765 -0.174,3.9 1.847,3.996 5.318,0.313 12.199,0.359 20.265,0.001 m 6.173,-9.908 c -1.948,4.12 -5.696,4.217 -7.708,4.217 h -5.621 c -0.735,0 -1.58,0 -0.662,-1.419 0.918,-1.433 2.306,-3.643 2.939,-4.575 0.625,-1.015 1.158,-1.213 2.278,-1.213 h 6.173 c 1.205,0 4.099,-0.134 2.601,2.99 m 5.42,-12.218 c -1.947,4.083 -5.916,4.185 -7.91,4.185 h -3.252 c -0.716,0 -1.543,0 -0.597,-1.428 0.9,-1.419 2.177,-3.638 2.811,-4.616 0.597,-0.951 1.194,-1.208 2.278,-1.208 h 4.088 c 1.204,-0.002 4.089,-0.066 2.582,3.067"/>

    <path id="path889"
          d="m 111.7,1.585417 c -2.168,0 -2.958,1.543 -3.353,2.154 -0.386,0.647 -0.818,1.061 -1.286,2.003 -0.478,0.951 -0.349,2.071 0.331,2.071 h 6.118 c 1.635,0 2.71,-0.556 3.289,-1.451 0.551,-0.882 0.79,-1.332 1.626,-2.678 0.808,-1.3 -0.23,-2.099 -1.084,-2.099 H 111.7"/>

    <path id="path891"
          d="m 155.098,2.853417 c -3.574,0 -4.686,0.207 -7.938,0.313 -1.185,0 -2.802,1.08 -3.61,2.389 l -3.05,5.126 c -3.702,5.861 4.4,6.293 10.62,6.293 10.068,0 14.873,-2.747 14.873,-2.747 1.185,-0.647 2.765,-2.264 3.574,-3.546 l 6.477,-10.477 c 0.827,-1.282 0.983,-3.303 0.358,-4.469 0,0 -0.946,-1.847 -11.015,-1.847 -9.949,0 -13.862,1.612 -13.862,1.612 -1.204,0.432 -2.499,1.419 -2.912,2.113 -0.469,0.717 0.156,1.213 1.313,1.213 h 14.8 c 1.194,0 1.598,0.992 0.873,2.016 -1.194,1.842 -3.344,2.012 -3.344,2.012 h -7.157 m 5.704,6.848 -0.101,0.152 c -0.946,1.534 -2.783,2.729 -4.116,2.729 l -2.958,0.17 -2.6,-0.17 c -1.323,0 -1.672,-1.194 -0.726,-2.729 l 0.11,-0.152 c 0.965,-1.543 2.802,-2.792 4.125,-2.792 h 5.549 c 1.351,-10e-4 1.673,1.249 0.717,2.792"/>

    <path id="path893"
          d="m 135.539,1.066417 c 0.809,-1.336 2.462,-2.37 3.656,-2.37 h 4.566 c 0.634,0 2.765,-0.115 2.986,-1.598 0.331,-2.37 -4.731,-2.963 -6.348,-2.963 -6.78,0 -10.537,0.45 -14.451,6.104 -2.875,4.58 -5.732,9.311 -7.753,12.719 -1.791,3.045 -0.156,3.835 0.79,3.835 h 4.088 c 1.598,0 2.811,-0.138 5.153,-3.835 l 7.313,-11.892"/>

    <path id="path895"
          d="m 105.83,-1.955583 -6.514,10.611 c -0.735,1.346 -0.009,1.911 0.744,1.911 h 2.131 c 0.864,0 1.948,0.753 1.121,2.145 -0.808,1.295 -1.056,1.842 -1.626,2.729 -0.56,0.909 -1.635,1.41 -3.289,1.41 h -2.802 c -1.792,0 -0.836,-2.843 -0.836,-2.843 -2.618,2.977 -9.04,3.013 -15.507,3.013 -6.127,0 -14.331,0.046 -10.564,-6.284 l 7.818,-12.747 c 1.488,-2.26 2.397,-2.935 3.583,-3.651 0,0 0.404,-0.234 3.813,-0.234 2.141,0 5.227,-0.179 2.646,3.886 l -7.175,11.653 c -0.836,1.328 -0.523,2.389 0.662,2.389 h 5.199 c 1.167,0 2.765,-1.061 3.601,-2.389 0,0 3.785,-6.141 7.102,-11.598 0.799,-1.364 2.939,-4.12 5.145,-4.12 h 3.592 c 1.514,-0.001 3.333,0.509 1.156,4.119"/>

    <path id="path897"
          d="m 170.448,22.715417 11.667,0.037 2.59,0.009 c 1.158,0 2.793,-1.061 3.583,-2.425 l 2.242,-3.537 c -1.47,0.12 -3.032,0.179 -4.787,0.179 -6.155,0 -14.377,0.083 -10.583,-6.292 l 7.662,-12.361 c 0.817,-1.346 2.425,-2.958 3.573,-3.615 0,0 0.414,-0.271 3.803,-0.271 2.15,0 5.53,-0.643 2.664,3.886 l -7,11.313 c -0.827,1.318 -0.569,2.37 0.634,2.37 h 4.805 c 1.148,0 2.774,-1.052 3.574,-2.37 l 7.027,-11.313 c 0.809,-1.346 2.407,-2.889 3.537,-3.542 0,0 0.588,-0.344 3.923,-0.344 1.874,0 5.512,-0.689 2.544,3.886 l -5.999,9.632 -0.615,1.107 -7.671,12.402 c -0.799,1.286 -2.389,2.875 -3.546,3.564 0,0 -4.887,2.71 -14.928,2.71 l -1.25,-0.032 c -9.232,-0.037 -8.938,-0.703 -9.499,-1.052 -0.523,-0.308 -1.157,-1.061 -1.029,-2.2 0.176,-1.057 1.462,-1.741 3.079,-1.741"/>

    <path style="clip-rule:evenodd;fill-opacity:1;fill-rule:evenodd"
          id="path899"
          d="M 139.632,111.97942 H 25.809 c -0.039,-0.117 -0.127,-0.171 -0.298,-0.151 -8.906,-0.425 -18.901,-0.674 -24.312,-4.443 -1.323,-0.928 -2.646,-2.334 -2.964,-3.999 9.404,1.841 19.634,1.333 29.941,1.333 h 93.965 c 10.728,0 19.644,-0.991 27.715,-3.56 15.986,-5.083 27.441,-14.233 36.313,-26.382003 4.375,-5.986 8.521,-12.803 10.522,-20.898 7.202,5.503 2.388,16.748 -0.591,22.378 -3.55,6.699003 -8.203,12.803003 -13.047,17.642003 -10.266,10.268 -24.466,17.045 -43.421,18.08"/>
</svg>
