<?xml version="1.0" encoding="UTF-8" standalone="no"?>
<svg xmlns="http://www.w3.org/2000/svg"
     width="2000"
     height="700"
     viewBox="-5 -5 200 70"
     version="1.1"
     id="svg889">

    <path d="M 0.238,10.586 0.357,60.068 13.406,11.062 Z"
          id="path877"
          style="clip-rule:evenodd;fill-opacity:1;fill-rule:evenodd;stroke:none;stroke-opacity:1"/>

    <path stroke-miterlimit="2.613"
          d="M 0.238,10.586 0.357,60.068 13.406,11.062 Z"
          id="path879"
          style="stroke-miterlimit:2.61299992"/>

    <path d="M 19.101,10.824 5.458,60.068 h 30.845 l 1.661,-0.119 1.542,-0.119 1.661,-0.238 1.542,-0.356 1.424,-0.357 2.966,-0.952 2.728,-1.189 1.305,-0.715 1.305,-0.713 2.491,-1.666 2.255,-1.902 2.017,-2.022 0.948,-1.07 1.661,-2.262 0.831,-1.189 0.712,-1.309 0.593,-1.187 0.593,-1.309 0.474,-1.308 0.475,-1.309 0.356,-1.309 0.356,-1.427 0.237,-1.309 0.119,-1.428 0.118,-1.425 V 30.57 l -0.118,-1.428 -0.119,-1.427 -0.119,-1.428 -0.236,-1.308 -0.712,-2.736 -0.357,-1.308 -1.067,-2.617 -0.593,-1.19 -0.594,-1.189 -0.712,-1.19 -0.83,-1.189 -1.661,-2.26 -0.949,-1.071 -2.135,-2.0219999 -2.254,-1.784 -1.305,-0.833 -1.305,-0.832 -1.424,-0.714 -1.424,-0.714 -2.372,-0.951 -1.543,-0.476 L 42.235,1.189 39.506,0.594 36.777,0.238 34.76,0 H 1.424 L 0,6.0660001 l 35.117,0.119 1.067,0.238 1.068,0.357 0.949,0.238 1.779,0.832 0.831,0.476 0.83,0.595 1.543,1.1899999 1.305,1.427 1.186,1.427 0.593,0.833 0.949,1.784 0.831,1.903 0.593,1.903 0.593,2.022 0.356,2.142 0.237,2.141 0.119,2.14 v 1.19 l -0.119,2.141 -0.119,2.26 -0.474,2.14 -0.475,2.143 -0.711,2.021 -0.831,1.903 -0.949,1.785 -1.186,1.664 -1.187,1.666 -1.305,1.428 -1.423,1.308 -1.424,1.07 -1.542,1.071 -0.83,0.357 -1.661,0.832 -0.95,0.239 -1.779,0.474 -0.83,0.119 -1.78,0.119 -5.22,-0.119 -0.83,-1.07 10.796,-41.988 z"
          id="path881"
          style="clip-rule:evenodd;fill-opacity:1;fill-rule:evenodd"/>

    <path stroke-miterlimit="2.613"
          d="M 19.101,10.824 5.458,60.068 h 30.845 l 1.661,-0.119 1.542,-0.119 1.661,-0.238 1.542,-0.356 1.424,-0.357 2.966,-0.952 2.728,-1.189 1.305,-0.715 1.305,-0.713 2.491,-1.666 2.255,-1.902 2.017,-2.022 0.948,-1.07 1.661,-2.262 0.831,-1.189 0.712,-1.309 0.593,-1.187 0.593,-1.309 0.474,-1.308 0.475,-1.309 0.356,-1.309 0.356,-1.427 0.237,-1.309 0.119,-1.428 0.118,-1.425 V 30.57 l -0.118,-1.428 -0.119,-1.427 -0.119,-1.428 -0.236,-1.308 -0.712,-2.736 -0.357,-1.308 -1.067,-2.617 -0.593,-1.19 -0.594,-1.189 -0.712,-1.19 -0.83,-1.189 -1.661,-2.26 -0.949,-1.071 -2.135,-2.0219999 -2.254,-1.784 -1.305,-0.833 -1.305,-0.832 -1.424,-0.714 -1.424,-0.714 -2.372,-0.951 -1.543,-0.476 L 42.235,1.189 39.506,0.594 36.777,0.238 34.76,0 H 1.424 L 0,6.0660001 l 35.117,0.119 1.067,0.238 1.068,0.357 0.949,0.238 1.779,0.832 0.831,0.476 0.83,0.595 1.543,1.1899999 1.305,1.427 1.186,1.427 0.593,0.833 0.949,1.784 0.831,1.903 0.593,1.903 0.593,2.022 0.356,2.142 0.237,2.141 0.119,2.14 v 1.19 l -0.119,2.141 -0.119,2.26 -0.474,2.14 -0.475,2.143 -0.711,2.021 -0.831,1.903 -0.949,1.785 -1.186,1.664 -1.187,1.666 -1.305,1.428 -1.423,1.308 -1.424,1.07 -1.542,1.071 -0.83,0.357 -1.661,0.832 -0.95,0.239 -1.779,0.474 -0.83,0.119 -1.78,0.119 -5.22,-0.119 -0.83,-1.07 10.796,-41.988 z"
          id="path883"
          style="stroke-miterlimit:2.61299992"/>

    <path d="M 143.668,6.3040001 H 133.346 V 36.16 H 122.551 V 6.3040001 H 112.348 V 37.588 l -1.899,2.736 h 1.899 v 12.727 h 9.964 v -12.61 h 4.508 l 0.713,-0.117 0.83,-0.119 0.949,-0.358 0.831,-0.238 0.949,-0.357 0.83,-0.475 0.83,-0.357 0.475,-0.358 v 14.989 h 10.441 z M 96.451,39.371 88.146,6.3040001 H 77.351 L 89.095,53.289 h 10.559 l -0.119,-0.715 -0.355,-1.545 -0.356,-2.023 0.117,-1.428 0.594,-2.26 1.069,-4.877 1.541,-6.541 1.779,-7.494 1.662,-7.375 1.424,-6.422 1.066,-4.5209999 0.358,-1.784 h -6.289 l 0.357,2.141 0.117,2.0219999 v 1.784 l -0.355,1.547 z m 82.569,-29.26 1.542,-3.8069999 h -15.421 l -2.018,0.119 -2.135,0.238 -2.254,0.476 -2.254,0.595 -2.136,0.951 -1.899,1.4279999 -1.541,1.427 -1.304,1.665 -0.95,1.427 -0.593,1.547 -0.83,2.735 v 2.26 l 0.119,1.071 0.236,1.189 0.355,1.19 0.356,1.189 1.543,2.617 0.949,1.071 1.186,1.071 2.847,1.783 4.746,1.785 1.305,0.237 2.492,0.834 0.83,0.119 2.016,0.594 1.068,0.357 0.95,0.594 0.83,0.595 0.713,0.833 0.591,0.951 0.475,1.072 0.238,1.187 v 1.666 l -0.357,1.547 -0.711,1.428 -0.711,0.832 -0.949,0.713 -0.83,0.715 -1.543,0.594 -1.069,0.238 h -15.777 l 1.541,3.807 h 16.135 l 3.203,-0.715 1.779,-0.594 1.899,-1.07 1.423,-1.071 0.831,-0.595 1.66,-1.664 0.593,-1.073 0.594,-1.07 0.83,-2.022 0.475,-1.902 0.236,-1.785 -0.236,-2.498 -0.356,-1.428 -0.593,-1.426 -0.594,-1.189 -0.83,-1.189 -0.711,-0.954 -0.83,-0.951 -0.594,-0.594 -0.594,-0.357 -0.711,-0.476 -0.832,-0.595 -2.015,-0.832 -4.153,-1.19 -1.543,-0.238 -1.66,-0.594 -1.543,-0.476 -1.422,-0.595 -1.187,-0.594 -0.949,-0.833 -0.83,-0.833 -0.594,-0.951 -0.236,-0.952 -0.239,-1.784 0.239,-1.784 0.474,-1.428 1.424,-1.784 0.711,-0.714 1.66,-1.07 1.662,-0.714 1.424,-0.238 0.711,-0.118 z"
          id="path885"
          style="clip-rule:evenodd;fill-opacity:1;fill-rule:evenodd"/>

    <path d="M 128.244,1.9030001 H 73.198 V 58.047 H 185.309 V 1.9030001 H 128.244 V 0 h 58.844 V 59.83 H 71.3 V 0 h 56.944 z"
          id="path887"
          style="clip-rule:evenodd;fill-opacity:1;fill-rule:evenodd"/>
</svg>
