<?xml version="1.0" encoding="UTF-8" standalone="no"?>
<svg xmlns="http://www.w3.org/2000/svg"
     width="2003"
     height="1338.262"
     viewBox="-20 -20 2180 1469"
     version="1.1"
     id="svg909">

    <polygon points="2140.37,0.505989 1906.73,492.257 1356.29,492.257 1589.92,0.505989 "
             id="polygon886"/>

    <polygon points="962.546,742.543 1315.73,0 1039.52,0 569.154,990.044 1669.99,990.044 1787.25,742.543 "
             id="polygon888"/>

    <polygon points="77.5589,1374.64 207.796,1374.64 184.979,1422.06 0,1422.06 126.019,1160.11 180.757,1160.11 "
             id="polygon890"/>

    <path d="m 257.731,1422.06 h -57.6436 l 224.067,-261.951 h 60.5458 l -33.7044,261.951 h -59.4594 l 8.63588,-56.0575 h -96.6893 l -45.7523,56.0575 z m 79.5349,-94.8332 h 68.0991 l 19.1393,-108.037 h -0.73942 l -86.4989,108.037 z"
          id="path892"/>
    <polygon
            points="760.331,1375.73 903.005,1375.73 880.694,1422.06 681.847,1422.06 807.863,1160.11 1003.11,1160.11 980.791,1206.44 841.798,1206.44 815.302,1261.53 937.829,1261.53 915.556,1307.86 792.988,1307.86 "
            id="polygon894"/>
    <path
            d="m 1134.85,1362.91 c -14.9475,34.2811 -18.3203,45.6311 -19.3323,50.7844 -1.041,5.1495 -0.4984,8.2536 -0.4984,8.2536 0,0 -50.2797,0.2271 -50.2797,0 0,-0.2751 -0.7748,-3.3691 -0.7748,-10.3065 0,-8.7911 9.0182,-30.912 13.7437,-40.9069 16.545,-35.0596 7.0145,-53.732 -17.1166,-53.732 h -51.2134 l -49.31187,105.098 h -56.5963 l 123.30397,-261.99 h 127.521 c 66.7527,0 59.3105,54.1964 49.9768,74.0725 -12.2775,26.0704 -40.1321,49.5466 -83.4478,62.4083 9.3425,5.345 41.6463,8.4453 14.1462,66.8991 l -47.1504,-88.056 c 31.577,0 50.5976,-19.4774 58.2279,-35.7864 7.822,-16.627 2.4416,-35.8344 -20.8036,-35.8344 h -62.6316 l -33.5126,71.6246 h 58.72 l 47.0305,87.4793 z"
            id="path896"/>

    <path d="m 1355.2,1160.11 h 104.832 c 96.1833,0 73.2523,95.6875 58.6468,126.061 -34.3202,71.3167 -89.4869,135.894 -191.485,135.894 h -98.013 l 126.019,-261.951 z m -47.5251,216.748 h 50.1648 c 47.8406,0 78.7917,-35.9479 102.809,-85.8869 36.5322,-76.0081 -14.3696,-85.6106 -24.6408,-85.6106 h -45.8646 l -82.4686,171.501 z"
          id="path898"/>

    <polygon points="1602.35,1160.11 1657.09,1160.11 1531.07,1422.06 1476.34,1422.06 "
             id="polygon900"/>

    <path d="m 1644.58,1342.45 c -9.1848,20.1134 -11.5873,44.9409 35.0949,44.9409 22.5096,0 58.3793,-7.5949 71.0467,-33.9341 9.8397,-20.4604 -6.1968,-31.0672 -30.7593,-37.6539 l -24.9487,-6.5514 c -37.5795,-9.8775 -74.9217,-18.8225 -47.2235,-76.4662 14.068,-29.2086 57.5654,-81.1576 142.599,-81.1576 80.2706,0 78.5999,50.9787 63.5338,83.097 h -52.5661 c 4.1804,-11.6642 13.1254,-39.4015 -34.676,-39.4015 -19.9872,0 -47.5327,3.8751 -62.2556,34.4754 -9.8397,20.415 4.8441,24.796 14.5702,27.3512 l 58.3768,15.1872 c 22.584,6.2751 60.0474,18.9841 35.2931,70.4271 -37.8836,78.7955 -126.712,87.2787 -149.725,87.2787 -95.5726,0 -86.5443,-55.0847 -70.9331,-87.5891 h 52.5724 z"
          id="path902"/>

    <path d="m 2058.97,1241.73 c 3.2593,-15.6894 9.7261,-49.3876 -36.6848,-49.3876 -18.7077,0 -78.0573,12.2005 -115.984,89.02 -23.2402,47.0646 -25.0269,102.27 22.5096,102.27 31.1089,0 62.8322,-14.5652 85.4188,-46.6797 h 56.1724 c -39.3246,56.908 -98.7095,92.0446 -166.115,92.0446 -71.5501,0 -98.5934,-54.2733 -53.8885,-144.766 45.2059,-91.5815 122.531,-133.15 191.838,-133.15 80.5027,0 84.3715,51.9491 68.2581,90.6503 h -51.5251 z"
          id="path904"/>

    <path d="m 532.389,1342.45 c -9.1772,20.1134 -11.581,44.9409 35.1025,44.9409 22.5058,0 58.373,-7.5949 71.0429,-33.9341 9.84344,-20.4604 -6.20057,-31.0672 -30.7556,-37.6539 l -24.9512,-6.5514 c -37.5769,-9.8775 -74.9192,-18.8225 -47.1832,-76.4662 14.0264,-29.2086 57.5667,-81.1576 142.561,-81.1576 80.3021,0 78.5999,50.9787 63.5262,83.097 h -52.5257 c 4.14381,-11.6642 13.0914,-39.4015 -34.7101,-39.4015 -19.9897,0 -47.5314,3.8751 -62.2543,34.4754 -9.80054,20.415 4.87945,24.796 14.6055,27.3512 l 58.3376,15.1872 c 22.5878,6.2751 60.0865,18.9841 35.336,70.4271 -37.9303,78.7955 -126.758,87.2787 -149.731,87.2787 -95.6067,0 -86.5784,-55.0847 -70.9306,-87.5891 h 52.5295 z"
          id="path906"/>

</svg>
