<?xml version="1.0" encoding="UTF-8" standalone="no"?>
<svg
        xmlns:dc="http://purl.org/dc/elements/1.1/"
        xmlns:cc="http://creativecommons.org/ns#"
        xmlns:rdf="http://www.w3.org/1999/02/22-rdf-syntax-ns#"
        xmlns="http://www.w3.org/2000/svg"
        xmlns:sodipodi="http://sodipodi.sourceforge.net/DTD/sodipodi-0.dtd"
        xmlns:inkscape="http://www.inkscape.org/namespaces/inkscape"
        id="vide_codec"
        width="253"
        height="75"
        viewBox="-10 -10 262.50235 75"
        version="1.1"
        sodipodi:docname="tc.svg"
        inkscape:version="0.92.5 (2060ec1f9f, 2020-04-08)">
  <metadata
          id="metadata11">
    <rdf:RDF>
      <cc:Work
              rdf:about="">
        <dc:format>image/svg+xml</dc:format>
        <dc:type
                rdf:resource="http://purl.org/dc/dcmitype/StillImage"/>
        <dc:title></dc:title>
      </cc:Work>
    </rdf:RDF>
  </metadata>
  <defs
          id="defs9"/>
  <sodipodi:namedview
          pagecolor="#ffffff"
          bordercolor="#666666"
          borderopacity="1"
          objecttolerance="10"
          gridtolerance="10"
          guidetolerance="10"
          inkscape:pageopacity="0"
          inkscape:pageshadow="2"
          inkscape:window-width="1856"
          inkscape:window-height="1023"
          id="namedview7"
          showgrid="false"
          inkscape:zoom="1.9671362"
          inkscape:cx="-0.2541748"
          inkscape:cy="16.149166"
          inkscape:window-x="64"
          inkscape:window-y="27"
          inkscape:window-maximized="1"
          inkscape:current-layer="vide_codec"/>
  <g
          transform="translate(123.08451,-32)"
          id="g4">
    <g
            aria-label="TELECINE"
            style="font-weight:bold;font-size:46px;text-anchor:middle;display:inline;stroke-width:2.8499999"
            id="text">
      <path
              d="m -121.94043,42.46582 h 30.90625 v 6.536133 h -11.11816 V 76 h -8.64746 V 49.001953 h -11.14063 z"
              style="font-weight:bold;font-size:46px;text-anchor:middle;display:inline;stroke-width:2.8499999"
              id="path8"/>
      <path
              d="m -86.564453,42.46582 h 23.336914 v 6.536133 h -14.689453 v 6.244141 h 13.813476 v 6.536133 h -13.813476 v 7.68164 h 15.183594 V 76 h -23.831055 z"
              style="font-weight:bold;font-size:46px;text-anchor:middle;display:inline;stroke-width:2.8499999"
              id="path10"/>
      <path
              d="m -55.141602,42.46582 h 8.647461 v 26.998047 h 15.183594 V 76 h -23.831055 z"
              style="font-weight:bold;font-size:46px;text-anchor:middle;display:inline;stroke-width:2.8499999"
              id="path12"/>
      <path
              d="m -25.830078,42.46582 h 23.3369139 v 6.536133 H -17.182617 v 6.244141 h 13.8134764 v 6.536133 H -17.182617 v 7.68164 H -1.9990234 V 76 H -25.830078 Z"
              style="font-weight:bold;font-size:46px;text-anchor:middle;display:inline;stroke-width:2.8499999"
              id="path14"/>
      <path
              d="m 32.186523,74.158203 q -2.380859,1.235352 -4.963867,1.864258 -2.583008,0.628906 -5.390625,0.628906 -8.377929,0 -13.2744138,-4.671875 -4.8964844,-4.694336 -4.8964844,-12.71289 0,-8.041016 4.8964844,-12.712891 4.8964848,-4.694336 13.2744138,-4.694336 2.807617,0 5.390625,0.628906 2.583008,0.628906 4.963867,1.864258 v 6.94043 q -2.40332,-1.639649 -4.739257,-2.403321 -2.335938,-0.763671 -4.918946,-0.763671 -4.626953,0 -7.277343,2.964843 -2.650391,2.964844 -2.650391,8.175782 0,5.188476 2.650391,8.15332 2.65039,2.964844 7.277343,2.964844 2.583008,0 4.918946,-0.763672 2.335937,-0.763672 4.739257,-2.403321 z"
              style="font-weight:bold;font-size:46px;text-anchor:middle;display:inline;stroke-width:2.8499999"
              id="path16"/>
      <path
              d="m 39.351562,42.46582 h 8.647461 V 76 h -8.647461 z"
              style="font-weight:bold;font-size:46px;text-anchor:middle;display:inline;stroke-width:2.8499999"
              id="path18"/>
      <path
              d="M 56.466797,42.46582 H 66.125 l 12.196289,23 v -23 h 8.198242 V 76 H 76.861328 L 64.665039,53 v 23 h -8.198242 z"
              style="font-weight:bold;font-size:46px;text-anchor:middle;display:inline;stroke-width:2.8499999"
              id="path20"/>
      <path
              d="m 94.964844,42.46582 h 23.336916 v 6.536133 H 103.6123 v 6.244141 h 13.81348 v 6.536133 H 103.6123 v 7.68164 h 15.1836 V 76 H 94.964844 Z"
              style="font-weight:bold;font-size:46px;text-anchor:middle;display:inline;stroke-width:2.8499999"
              id="path22"/>
    </g>
  </g>
</svg>
