<?xml version="1.0" encoding="UTF-8" standalone="no"?>
<svg
        xmlns:dc="http://purl.org/dc/elements/1.1/"
        xmlns:cc="http://creativecommons.org/ns#"
        xmlns:rdf="http://www.w3.org/1999/02/22-rdf-syntax-ns#"
        xmlns="http://www.w3.org/2000/svg"
        xmlns:sodipodi="http://sodipodi.sourceforge.net/DTD/sodipodi-0.dtd"
        xmlns:inkscape="http://www.inkscape.org/namespaces/inkscape"
        id="vide_codec"
        width="275"
        height="75"
        viewBox="-10 -10 285.32864 75"
        version="1.1"
        sodipodi:docname="ts.svg"
        inkscape:version="0.92.5 (2060ec1f9f, 2020-04-08)">
  <metadata
          id="metadata11">
    <rdf:RDF>
      <cc:Work
              rdf:about="">
        <dc:format>image/svg+xml</dc:format>
        <dc:type
                rdf:resource="http://purl.org/dc/dcmitype/StillImage"/>
        <dc:title></dc:title>
      </cc:Work>
    </rdf:RDF>
  </metadata>
  <defs
          id="defs9"/>
  <sodipodi:namedview
          pagecolor="#ffffff"
          bordercolor="#666666"
          borderopacity="1"
          objecttolerance="10"
          gridtolerance="10"
          guidetolerance="10"
          inkscape:pageopacity="0"
          inkscape:pageshadow="2"
          inkscape:window-width="1856"
          inkscape:window-height="1023"
          id="namedview7"
          showgrid="false"
          inkscape:zoom="1.9671362"
          inkscape:cx="60.748212"
          inkscape:cy="-4.1849633"
          inkscape:window-x="64"
          inkscape:window-y="27"
          inkscape:window-maximized="1"
          inkscape:current-layer="vide_codec"/>
  <g
          transform="translate(133.46011,-32)"
          id="g4">
    <g
            aria-label="TELESYNC"
            style="font-weight:bold;font-size:46px;text-anchor:middle;display:inline;stroke-width:2.8499999"
            id="text">
      <path
              d="m -130.89111,42.46582 h 30.906247 v 6.536133 H -111.10303 V 76 h -8.64746 V 49.001953 h -11.14062 z"
              style="font-weight:bold;font-size:46px;text-anchor:middle;display:inline;stroke-width:2.8499999"
              id="path8"/>
      <path
              d="m -95.515137,42.46582 h 23.336914 v 6.536133 h -14.689453 v 6.244141 h 13.813477 v 6.536133 h -13.813477 v 7.68164 h 15.183594 V 76 h -23.831055 z"
              style="font-weight:bold;font-size:46px;text-anchor:middle;display:inline;stroke-width:2.8499999"
              id="path10"/>
      <path
              d="m -64.092285,42.46582 h 8.647461 V 69.463867 H -40.26123 V 76 h -23.831055 z"
              style="font-weight:bold;font-size:46px;text-anchor:middle;display:inline;stroke-width:2.8499999"
              id="path12"/>
      <path
              d="m -34.780762,42.46582 h 23.336914 v 6.536133 h -14.689453 v 6.244141 h 13.813477 v 6.536133 h -13.813477 v 7.68164 h 15.183594 V 76 h -23.831055 z"
              style="font-weight:bold;font-size:46px;text-anchor:middle;display:inline;stroke-width:2.8499999"
              id="path14"/>
      <path
              d="m 19.979004,43.521484 v 7.097657 q -2.762695,-1.235352 -5.390625,-1.864258 -2.62793,-0.628906 -4.9638673,-0.628906 -3.0996094,0 -4.5820312,0.853515 -1.4824219,0.853516 -1.4824219,2.650391 0,1.347656 0.9882812,2.111328 1.0107422,0.741211 3.6386719,1.280273 l 3.6835933,0.741211 q 5.592774,1.123047 7.951172,3.414063 2.358399,2.291015 2.358399,6.513672 0,5.547851 -3.301758,8.265625 -3.279297,2.695312 -10.0400391,2.695312 -3.1894531,0 -6.4013672,-0.606445 -3.21191404,-0.606445 -6.4238281,-1.796875 v -7.299805 q 3.21191406,1.707031 6.1992187,2.583008 3.0097657,0.853516 5.7949219,0.853516 2.8300778,0 4.3349608,-0.94336 1.504883,-0.943359 1.504883,-2.695312 0,-1.572266 -1.033203,-2.425782 -1.010742,-0.853515 -4.0654298,-1.527343 L 5.4018555,62.051758 q -5.03125003,-1.078125 -7.3671875,-3.436524 -2.3134766,-2.358398 -2.3134766,-6.356445 0,-5.008789 3.234375,-7.704102 3.234375,-2.695312 9.2988281,-2.695312 2.7626955,0 5.6826175,0.426758 2.919922,0.404297 6.041992,1.235351 z"
              style="font-weight:bold;font-size:46px;text-anchor:middle;display:inline;stroke-width:2.8499999"
              id="path16"/>
      <path
              d="m 25.100098,42.46582 h 9.456054 L 42.192871,54.415039 49.82959,42.46582 h 9.478515 L 46.527832,61.87207 V 76 H 37.880371 V 61.87207 Z"
              style="font-weight:bold;font-size:46px;text-anchor:middle;display:inline;stroke-width:2.8499999"
              id="path18"/>
      <path
              d="m 63.081543,42.46582 h 9.658203 l 12.196289,23 v -23 h 8.198242 V 76 H 83.476074 L 71.279785,53 v 23 h -8.198242 z"
              style="font-weight:bold;font-size:46px;text-anchor:middle;display:inline;stroke-width:2.8499999"
              id="path20"/>
      <path
              d="m 128.17334,74.158203 q -2.38086,1.235352 -4.96387,1.864258 -2.58301,0.628906 -5.39062,0.628906 -8.37793,0 -13.27442,-4.671875 -4.896481,-4.694336 -4.896481,-12.71289 0,-8.041016 4.896481,-12.712891 4.89649,-4.694336 13.27442,-4.694336 2.80761,0 5.39062,0.628906 2.58301,0.628906 4.96387,1.864258 v 6.94043 q -2.40332,-1.639649 -4.73926,-2.403321 -2.33594,-0.763671 -4.91894,-0.763671 -4.62696,0 -7.27735,2.964843 -2.65039,2.964844 -2.65039,8.175782 0,5.188476 2.65039,8.15332 2.65039,2.964844 7.27735,2.964844 2.583,0 4.91894,-0.763672 2.33594,-0.763672 4.73926,-2.403321 z"
              style="font-weight:bold;font-size:46px;text-anchor:middle;display:inline;stroke-width:2.8499999"
              id="path22"/>
    </g>
  </g>
</svg>
