<?xml version="1.0" encoding="UTF-8" standalone="no"?>
<svg xmlns="http://www.w3.org/2000/svg"
     version="1.0"
     width="190"
     height="77"
     viewBox="-2 -2 156 65"
     preserveAspectRatio="xMidYMid meet"
     id="svg2">

    <g transform="matrix(0.01717345,0,0,-0.02060009,-3.2629555,66.33229)"
       id="g6">

        <path d="m 255,3208 c -26,-15 -39,-29 -53,-55 -9,-16 -12,-240 -12,-843 v -822 l 33,-33 c 24,-24 46,-35 78,-39 24,-4 1981,-5 4349,-4 3803,3 4308,5 4334,18 16,8 39,28 50,43 21,28 21,35 24,824 2,725 1,800 -14,840 -10,24 -28,53 -42,63 -24,20 -76,20 -4376,20 -3271,-1 -4356,-3 -4371,-12 z m 795,-748 c 3,-201 9,-371 14,-379 5,-7 27,-22 50,-32 36,-16 67,-19 252,-19 129,0 223,4 243,11 63,22 65,35 71,429 l 5,355 119,3 c 81,2 123,-1 133,-9 12,-11 14,-71 11,-398 -3,-354 -5,-390 -22,-431 -11,-25 -27,-53 -37,-62 -9,-9 -19,-21 -20,-25 -7,-16 -73,-51 -129,-68 -44,-14 -106,-19 -313,-22 -450,-9 -539,15 -615,160 l -37,72 -3,379 c -2,208 -1,385 2,392 5,12 31,14 138,12 l 133,-3 z m 5068,358 c 9,-9 12,-135 12,-505 v -493 h -123 c -82,0 -127,4 -135,12 -9,9 -12,133 -12,498 0,268 3,490 7,493 12,13 238,8 251,-5 z m 931,-2 c 8,-9 10,-149 9,-502 l -3,-489 -124,-3 c -82,-2 -128,1 -137,9 -11,9 -14,51 -14,198 v 186 h -287 c -159,0 -296,3 -306,7 -20,8 -25,-3 76,155 l 46,71 108,7 c 59,4 160,5 223,3 63,-3 121,-3 128,-1 9,4 12,49 12,182 0,98 3,181 7,184 3,4 61,7 128,7 91,0 125,-3 134,-14 z m 1206,-2 c 83,-21 138,-56 174,-109 51,-76 56,-107 56,-385 0,-226 -2,-261 -19,-305 -25,-67 -69,-124 -125,-160 l -46,-30 -362,-3 c -410,-4 -389,-9 -329,75 19,27 44,67 55,89 l 22,42 207,4 c 174,3 213,6 244,22 70,34 73,45 73,277 0,294 19,280 -389,279 l -286,-1 -2,-392 -3,-392 h -135 -135 l -3,490 c -1,270 0,496 3,503 3,9 107,12 473,12 390,0 478,-3 527,-16 z M 4370,2650 c 90,-22 124,-79 125,-205 0,-95 -13,-132 -60,-164 -39,-26 -45,-47 -15,-56 10,-3 31,-20 45,-36 23,-28 25,-39 25,-120 v -89 h -98 c -63,0 -102,4 -110,12 -7,7 -12,39 -12,74 0,92 -5,94 -212,94 -170,0 -194,5 -163,36 8,9 23,30 31,47 34,64 36,65 192,69 164,3 162,2 162,92 0,97 1,96 -225,96 -135,0 -195,-4 -203,-12 -9,-9 -12,-80 -12,-260 v -248 h -105 -105 l 2,343 3,342 320,5 c 176,3 331,2 345,-2 14,-4 45,-12 70,-18 z m -2002,-237 2,-253 h 224 c 180,0 226,-3 235,-14 7,-9 11,-42 9,-88 l -3,-73 -324,-3 c -230,-2 -328,1 -337,9 -11,9 -14,74 -14,339 0,179 3,330 7,334 4,4 50,5 103,4 l 95,-3 z m 1141,243 c 7,-9 11,-42 9,-88 l -3,-73 -142,-3 c -79,-1 -144,-4 -145,-5 -1,-1 -5,-114 -8,-252 l -5,-250 -99,-3 c -62,-2 -103,1 -110,8 -7,7 -11,77 -12,194 -1,101 -4,188 -8,195 -4,6 -2,11 3,11 18,0 13,87 -5,94 -9,3 -71,6 -138,6 -82,0 -126,4 -134,12 -13,13 -17,149 -5,161 3,4 183,7 398,7 325,0 395,-2 404,-14 z m 1752,-28 c 12,-24 32,-57 45,-75 13,-17 24,-36 24,-42 0,-5 14,-30 30,-54 17,-25 30,-51 30,-59 0,-7 15,-36 33,-63 18,-28 39,-66 47,-85 12,-30 43,-84 111,-199 9,-15 20,-37 23,-49 7,-22 6,-22 -96,-22 -57,0 -108,4 -114,8 -6,4 -23,31 -38,60 l -26,52 h -225 -225 l -30,-60 -31,-61 -112,3 c -131,3 -129,-1 -63,110 23,40 53,96 66,123 13,28 27,52 31,55 7,5 30,48 75,140 15,30 31,57 36,58 4,2 8,8 8,13 0,5 15,32 33,61 18,29 41,70 51,91 l 17,37 h 139 140 z"
              id="path10"/>

        <path d="m 5080,2480 c 0,-5 -13,-32 -30,-58 -16,-27 -30,-56 -30,-64 0,-8 -11,-28 -25,-44 -14,-16 -25,-39 -25,-51 0,-21 3,-22 130,-22 h 130 v 24 c 0,22 -13,50 -57,120 -7,11 -22,39 -33,63 -14,28 -27,42 -40,42 -11,0 -20,-4 -20,-10 z"
              id="path12"/>

    </g>

    <path d="m 60.268627,43.12922 c -0.286796,0 -1.122666,0.3204 -1.921381,1.73651 -0.82249,1.41655 -4.382166,8.49975 -5.064603,9.81933 -0.685782,1.30753 -0.457314,1.94565 0.263014,1.94565 h 1.604121 c 0.781629,0 1.4024,-1.07962 1.737115,-1.71372 0.338063,-0.67297 4.59021,-8.90015 5.197602,-10.1107 0.617801,-1.21949 0.21844,-1.67707 -0.194662,-1.67707 h -1.621206"
          id="path8"/>

    <path d="m 45.856434,56.59228 c 2.675515,-0.1354 4.508103,-0.17651 6.614115,-4.89314 0.931714,-2.09758 -1.672101,-2.21465 -1.672101,-2.21465 -0.331005,0 2.364944,0.15998 3.822322,-3.50965 1.327726,-3.30053 -1.061365,-3.04402 -1.494528,-3.08737 -1.979331,-0.25873 -5.723265,-0.25873 -8.562616,0.0103 -0.617794,0 -1.269398,0.95897 -1.614151,1.53363 -0.338429,0.6046 -4.66599,9.09632 -5.307559,10.37479 -0.658666,1.23558 -0.06464,1.74276 0.686154,1.78566 1.975613,0.13987 4.531881,0.16043 7.528364,3.5e-4 m 2.293246,-4.42751 c -0.723676,1.84108 -2.116039,1.88442 -2.863494,1.88442 h -2.088175 c -0.273049,0 -0.586965,0 -0.245932,-0.6341 0.341032,-0.64035 0.856672,-1.62792 1.091825,-2.04439 0.232188,-0.45357 0.430195,-0.54204 0.846272,-0.54204 h 2.29324 c 0.447656,0 1.522765,-0.0599 0.966264,1.33611 m 2.013509,-5.45976 c -0.723301,1.82451 -2.197774,1.87009 -2.938533,1.87009 h -1.208104 c -0.26599,0 -0.57322,0 -0.221788,-0.63812 0.334349,-0.6341 0.808753,-1.62568 1.044278,-2.06272 0.221782,-0.42496 0.443567,-0.5398 0.846266,-0.5398 h 1.518678 c 0.447284,-9.6e-4 1.519048,-0.0295 0.959203,1.37052"
          id="path10-1"/>

    <path d="m 76.33248,49.83483 c -0.805401,0 -1.09888,0.68951 -1.245626,0.96254 -0.143395,0.28912 -0.303879,0.47412 -0.477742,0.89506 -0.177572,0.42497 -0.129647,0.92545 0.122965,0.92545 h 2.272813 c 0.607395,0 1.006752,-0.24845 1.221851,-0.64838 0.204693,-0.39415 0.293479,-0.59523 0.60405,-1.19671 0.300169,-0.58091 -0.08544,-0.93796 -0.402702,-0.93796 H 76.33248"
          id="path12-7"/>

    <path d="m 92.454672,50.40145 c -1.32773,0 -1.74083,0.0925 -2.948939,0.13987 -0.440222,0 -1.040934,0.48262 -1.341106,1.06755 l -1.133055,2.29062 c -1.375284,2.61905 1.634578,2.81209 3.94528,2.81209 3.74023,0 5.52527,-1.22752 5.52527,-1.22752 0.44022,-0.28912 1.02718,-1.0117 1.32772,-1.58457 l 2.406178,-4.68178 c 0.30723,-0.57287 0.36518,-1.47598 0.133,-1.99702 0,0 -0.35144,-0.82536 -4.092028,-0.82536 -3.69602,0 -5.14968,0.72035 -5.14968,0.72035 -0.44728,0.19304 -0.92837,0.63409 -1.0818,0.94422 -0.17423,0.3204 0.0579,0.54204 0.48778,0.54204 h 5.49814 c 0.44356,0 0.59365,0.44329 0.32432,0.90087 -0.44357,0.82312 -1.24228,0.89909 -1.24228,0.89909 h -2.6588 m 2.11901,3.06011 -0.0375,0.0679 c -0.35144,0.68548 -1.03388,1.21948 -1.52908,1.21948 l -1.09889,0.076 -0.96588,-0.076 c -0.49149,0 -0.62115,-0.53355 -0.26971,-1.21948 l 0.0409,-0.0679 c 0.35849,-0.68951 1.04093,-1.24764 1.53241,-1.24764 h 2.06144 c 0.50189,-3.5e-4 0.62151,0.55813 0.26636,1.24764"
          id="path14-1"/>

    <path d="m 85.188574,49.60291 c 0.300544,-0.59701 0.914629,-1.05906 1.358192,-1.05906 h 1.696251 c 0.235526,0 1.027183,-0.0513 1.109287,-0.71409 0.122964,-1.05906 -1.757546,-1.32405 -2.358262,-1.32405 -2.518741,0 -3.914449,0.20109 -5.368485,2.72764 -1.068047,2.04663 -2.129414,4.16073 -2.880211,5.68364 -0.665348,1.3607 -0.05795,1.71372 0.293486,1.71372 h 1.518678 c 0.593644,0 1.044269,-0.0617 1.914313,-1.71372 l 2.716751,-5.31408"
          id="path16-1"/>

    <path d="m 74.151805,48.25249 -2.419928,4.74165 c -0.273049,0.60148 -0.0034,0.85396 0.276393,0.85396 h 0.791657 c 0.320978,0 0.72368,0.33649 0.41645,0.95851 -0.300168,0.57869 -0.392299,0.82312 -0.60405,1.21949 -0.20804,0.4062 -0.607398,0.63007 -1.221851,0.63007 h -1.040934 c -0.665724,0 -0.310575,-1.27043 -0.310575,-1.27043 -0.972571,1.33031 -3.358324,1.3464 -5.760784,1.3464 -2.276158,0 -5.323911,0.0205 -3.924487,-2.80807 l 2.904355,-5.69615 c 0.55279,-1.00991 0.890478,-1.31154 1.331072,-1.6315 0,0 0.150087,-0.10457 1.416513,-0.10457 0.795374,0 1.941812,-0.08 0.982981,1.73652 l -2.665484,5.20727 c -0.310568,0.59343 -0.194293,1.06756 0.245929,1.06756 h 1.931411 c 0.433533,0 1.027183,-0.47413 1.337754,-1.06756 0,0 1.406114,-2.74418 2.638365,-5.1827 0.296827,-0.60952 1.091829,-1.84107 1.911347,-1.84107 h 1.334416 c 0.562442,-3.5e-4 1.238193,0.22745 0.42945,1.84062"
          id="path18-5"/>

    <path d="m 98.157132,59.27703 4.334248,0.0165 0.96217,0.004 c 0.43019,0 1.03759,-0.47413 1.33107,-1.08365 l 0.8329,-1.58055 c -0.54611,0.0536 -1.12638,0.08 -1.77836,0.08 -2.28656,0 -5.340997,0.0371 -3.931537,-2.81166 l 2.846397,-5.52366 c 0.30351,-0.60147 0.90088,-1.32181 1.32736,-1.6154 0,0 0.15379,-0.1211 1.4128,-0.1211 0.79871,0 2.05437,-0.28732 0.98966,1.7365 l -2.60047,5.05536 c -0.30722,0.58896 -0.21138,1.05905 0.23553,1.05905 h 1.78504 c 0.42647,0 1.03053,-0.47009 1.32773,-1.05905 l 2.6105,-5.05536 c 0.30053,-0.60147 0.89419,-1.29098 1.31398,-1.58278 0,0 0.21844,-0.15372 1.45738,-0.15372 0.69618,0 2.04768,-0.30789 0.94508,1.7365 l -2.2286,4.30418 -0.22847,0.49467 -2.84975,5.54199 c -0.29683,0.57467 -0.8875,1.28473 -1.31732,1.59261 0,0 -1.8155,1.211 -5.5457,1.211 l -0.46437,-0.0144 c -3.429648,-0.0165 -3.320428,-0.31414 -3.528838,-0.47009 -0.19429,-0.13763 -0.42982,-0.47412 -0.38226,-0.9831 0.0654,-0.47234 0.54312,-0.77799 1.14383,-0.77799"
          id="path20-2"/>

    <path d="m 3.9480913,37.11952 c -2.71849,-0.0628 -2.608573,-0.0338 -3.410715,-0.90074 l -0.506107,-0.54703 0.0072,-12.77737 c 0.004,-7.02757 0.03521,-14.7184402 0.06943,-17.0908402 0.06052,-4.195524 0.06738,-4.322054 0.25104,-4.627384 0.103852,-0.17265 0.331276,-0.45583 0.505388,-0.62929 l 0.316567,-0.3153702 6.796731,-0.0683 c 10.2423967,-0.10285 136.3282647,-0.0954 139.8806547,0.009 1.64594,0.048 3.09993,0.12958 3.23109,0.18123 0.28092,0.1106102 0.62094,0.6104702 0.87856,1.2915602 0.17383,0.45956 0.18841,0.72763 0.24869,4.571174 0.0868,5.5368902 -0.0494,28.5307402 -0.17248,29.1189802 -0.0515,0.24606 -0.14979,0.53573 -0.2184,0.64368 -0.23452,0.36895 -0.75898,0.81423 -1.04309,0.88558 -0.77959,0.19578 -15.88541,0.25004 -77.740071,0.27921 -36.694899,0.0173 -67.7874207,0.007 -69.0944957,-0.0234 v 0 z M 23.758173,28.94614 c 1.870227,-0.0982 2.65984,-0.24949 3.533203,-0.67704 0.97819,-0.47887 1.385142,-0.80973 1.822548,-1.48178 0.526076,-0.80828 0.834954,-1.61396 0.943273,-2.46045 0.102494,-0.80094 0.215035,-14.5097202 0.126142,-15.3653802 -0.03281,-0.31582 -0.09554,-0.63416 -0.139401,-0.70742 -0.06584,-0.10998 -0.45449,-0.13792 -2.229259,-0.16032 l -2.149509,-0.0271 -0.05198,2.9759402 c -0.195882,11.21538 -0.243097,12.14791 -0.643717,12.71329 -0.372709,0.52601 -0.62213,0.57751 -3.270036,0.67529 -3.047172,0.11254 -5.050192,0.006 -5.687069,-0.30267 -0.229803,-0.11136 -0.546768,-0.32891 -0.704367,-0.48348 -0.284458,-0.27896 -0.286941,-0.28893 -0.3413,-1.3698 -0.03011,-0.59884 -0.100562,-4.02854 -0.156545,-7.62155 -0.05598,-3.59303 -0.108674,-6.5415602 -0.117089,-6.5523102 -0.0084,-0.0108 -0.983775,-0.0311 -2.167466,-0.0453 -1.635907,-0.0196 -2.200005,0.003 -2.3516,0.0916 l -0.1994357,0.11728 0.0234,8.0485702 0.0234,8.04859 0.629333,1.31561 c 0.747075,1.56176 1.208473,2.10646 2.187257,2.58211 0.770294,0.37433 1.232191,0.49187 2.508527,0.63832 1.214559,0.13936 6.13663,0.16748 8.411689,0.048 z M 102.02176,18.80466 c -0.0224,-6.11707 -0.0702,-10.1531502 -0.122,-10.3157102 -0.116,-0.36389 -0.31305,-0.40635 -2.187577,-0.47136 -1.898971,-0.0658 -2.167811,-0.0152 -2.261911,0.42592 -0.0827,0.38789 -0.10004,18.0568102 -0.0188,19.1986102 0.0325,0.45666 0.0884,0.87923 0.12429,0.93907 0.11984,0.19988 0.646291,0.25349 2.581478,0.26285 l 1.92139,0.01 -0.0369,-10.04865 v 0 z m 15.15247,9.98942 0.80959,-0.0592 -0.0259,-10.08015 c -0.0205,-7.97987 -0.0494,-10.1224702 -0.13847,-10.2832402 -0.0619,-0.11168 -0.22034,-0.23417 -0.35207,-0.27219 -0.42043,-0.12133 -4.04487,-0.0842 -4.16795,0.0426 -0.08,0.0824 -0.12444,1.04555 -0.1696,3.6746802 -0.0336,1.9596 -0.0924,3.64065 -0.13064,3.73564 -0.0662,0.16472 -0.15546,0.17007 -1.92287,0.11541 -1.76047,-0.0545 -5.12529,0.0602 -5.76427,0.19642 -0.28111,0.0599 -0.35452,0.17004 -1.3415,2.01237 -1.13732,2.12296 -1.29797,2.49645 -1.14267,2.65653 0.11526,0.11881 3.62873,0.22841 7.64457,0.23848 l 2.66256,0.007 0.005,3.2437 c 0.005,3.30301 0.0603,4.3902 0.23396,4.56925 0.0535,0.0552 0.22967,0.13255 0.39149,0.17199 0.37242,0.0907 2.34729,0.10875 3.40925,0.0311 h 3e-5 z m 19.93348,-9.5e-4 2.18814,-0.06 0.68569,-0.57743 c 1.32236,-1.11358 2.1666,-2.65338 2.37138,-4.32518 0.13549,-1.10598 0.18066,-4.77634 0.0973,-7.9065 -0.0898,-3.37243 -0.16567,-3.86976 -0.77242,-5.06293 -0.78493,-1.5435702 -2.14633,-2.4277202 -4.18023,-2.7148402 -0.92809,-0.13101 -14.78289,-0.1675 -15.65824,-0.0413 l -0.4936,0.0712 -0.0565,0.68926 c -0.0742,0.90427 -0.0728,15.3812602 0.002,17.9238102 l 0.0578,1.97344 h 2.30432 2.30432 l 0.058,-2.51783 c 0.0319,-1.38482 0.0581,-5.01866 0.0582,-8.07523 v -5.55738 h 4.35054 c 2.55683,0 4.63442,0.0395 5.03906,0.0957 1.17973,0.16396 1.71549,0.56387 1.98697,1.48314 0.0803,0.2719 0.10984,1.39672 0.10984,4.1827 0,4.79674 -0.0292,4.93594 -1.16809,5.56167 -0.65209,0.35828 -1.43777,0.4382 -5.14526,0.52336 l -2.61658,0.0601 -0.52297,1.10114 c -0.28764,0.60562 -0.66953,1.34611 -0.84866,1.64553 -0.51549,0.86168 -0.60898,1.13154 -0.44906,1.2964 0.0728,0.0751 0.28366,0.16668 0.46849,0.20354 0.43465,0.0866 7.00019,0.10506 9.82972,0.0276 h 1.2e-4 z M 45.445603,25.43559 c 0.02244,-0.0211 0.04225,-0.72047 0.04401,-1.55399 0.0036,-1.68715 -0.04235,-1.86717 -0.50047,-1.96251 -0.158676,-0.033 -1.922342,-0.0836 -3.919263,-0.11229 l -3.63076,-0.0522 v -4.97351 c 0,-3.04102 -0.03365,-5.06473 -0.08658,-5.20826 l -0.08658,-0.23474 -1.647912,0.0246 -1.647913,0.0247 -0.07411,0.36293 c -0.04076,0.19962 -0.06231,3.29104 -0.04788,6.86983 0.02458,6.10211 0.036,6.51698 0.183233,6.66886 0.140484,0.14492 0.404416,0.16674 2.508529,0.20733 2.483693,0.0479 8.836409,0.005 8.905702,-0.0608 z m 6.505562,0.007 c 0.01815,-0.0161 0.06611,-1.79692 0.106563,-3.9573 0.04046,-2.16039 0.09873,-4.46426 0.129501,-5.11973 l 0.05594,-1.19176 0.321591,-0.0548 c 0.176879,-0.0301 0.741124,-0.0553 1.25388,-0.0558 0.512755,-5.6e-4 1.473254,-0.0278 2.134445,-0.0605 l 1.202169,-0.0594 v -1.57376 c 0,-1.85553 -0.009,-1.8765 -0.845361,-1.96544 -1.704505,-0.18127 -12.938258,-0.12903 -13.121915,0.061 -0.09057,0.0938 -0.09445,2.74098 -0.0045,3.07272 0.03681,0.13579 0.155589,0.29618 0.263942,0.3564 0.125551,0.0698 0.962446,0.13701 2.307536,0.18536 1.700693,0.0611 2.136544,0.10266 2.244471,0.21388 0.186591,0.1923 0.245719,1.59388 0.07346,1.74125 -0.09428,0.0806 -0.107257,0.26053 -0.05858,0.81213 0.03439,0.38969 0.06746,1.40263 0.0735,2.25098 0.01852,2.60378 0.142308,5.1263 0.257392,5.24534 0.05736,0.0593 0.42925,0.12967 0.826414,0.15629 0.688947,0.0462 2.71015,0.005 2.779549,-0.0569 h 6e-6 z m 10.781521,-4.82304 c 0.03351,-2.73219 0.08444,-5.08115 0.113137,-5.21989 0.02871,-0.13875 0.135835,-0.29842 0.238092,-0.35483 0.279619,-0.15426 5.205672,-0.21894 6.010494,-0.0789 0.974322,0.16952 1.037681,0.27389 1.067834,1.75916 0.02776,1.36673 -0.03823,1.59294 -0.510809,1.75117 -0.168094,0.0563 -1.196807,0.14452 -2.286036,0.19607 -1.089228,0.0515 -2.09917,0.14104 -2.244308,0.19886 -0.401362,0.1599 -0.5619,0.34904 -0.925665,1.09057 -0.183602,0.37427 -0.436653,0.83541 -0.562339,1.02477 -0.514323,0.77485 -0.396528,0.81282 2.764108,0.89104 1.51311,0.0375 2.73618,0.10778 2.931194,0.16858 0.526727,0.16421 0.640974,0.44933 0.709496,1.77066 0.06373,1.22881 0.133354,1.52827 0.379415,1.63183 0.08842,0.0372 0.907028,0.0895 1.819121,0.11605 l 1.658346,0.0484 -0.03104,-1.85027 c -0.02661,-1.58417 -0.05445,-1.89595 -0.193737,-2.16785 -0.204571,-0.39933 -0.728261,-0.97235 -1.045477,-1.14397 -0.373152,-0.20187 -0.305517,-0.44742 0.292517,-1.06199 0.294017,-0.30214 0.610015,-0.70179 0.702221,-0.88811 0.263207,-0.53183 0.374547,-1.53432 0.321445,-2.89429 -0.07343,-1.88066 -0.390377,-2.79107 -1.190741,-3.42035 -0.487717,-0.38346 -1.864731,-0.82908 -2.788002,-0.90222 -0.858165,-0.068 -10.638106,0.0564 -10.761087,0.13687 -0.05643,0.0369 -0.101048,2.57045 -0.125263,7.11183 l -0.03761,7.05447 h 1.816873 1.816873 l 0.06096,-4.96761 v 0 z m 17.317479,3.74273 0.496059,-1.17953 3.83248,-0.0236 3.832484,-0.0237 0.534432,1.13313 c 0.449081,0.95216 0.573247,1.14415 0.777459,1.2022 0.405693,0.11531 3.343353,0.0863 3.460643,-0.0342 0.15669,-0.16096 -0.0945,-0.84378 -0.99245,-2.69763 -0.43246,-0.89285 -1.00372,-2.13817 -1.26946,-2.76734 -0.26575,-0.6292 -0.65379,-1.47062 -0.86232,-1.86985 -0.208533,-0.39922 -0.448179,-0.95042 -0.532544,-1.22489 -0.08438,-0.27446 -0.324692,-0.84608 -0.534052,-1.27026 -0.209351,-0.42417 -0.765445,-1.57762 -1.235752,-2.56319 L 86.70204,11.25144 H 84.3072 81.91236 l -0.157176,0.43098 c -0.08645,0.23704 -0.441423,1.02301 -0.78884,1.7466 -0.347414,0.7236 -0.686615,1.45854 -0.753776,1.63319 -0.06716,0.17467 -0.207881,0.44869 -0.312711,0.60895 -0.104829,0.16027 -0.456136,0.91561 -0.780678,1.67857 -0.324546,0.76293 -0.73777,1.67298 -0.918274,2.02229 -0.180508,0.34933 -0.579494,1.20675 -0.886636,1.90539 -0.307142,0.69865 -0.789896,1.75559 -1.072779,2.34877 -0.540342,1.13303 -0.639041,1.61035 -0.360305,1.7424 0.221531,0.10497 1.48771,0.19138 2.661632,0.18165 l 1.011289,-0.009 0.496059,-1.17953 v -10e-6 z"
          id="path3082"/>

    <path d="m 82.548585,20.06204 c -0.345095,-0.0541 -0.351899,-0.0624 -0.343257,-0.4181 0.0059,-0.24357 0.112964,-0.54197 0.325491,-0.90733 0.17417,-0.29942 0.420823,-0.84393 0.548124,-1.21001 0.127298,-0.36609 0.386812,-0.99679 0.576697,-1.40156 0.189886,-0.40477 0.345247,-0.78438 0.345247,-0.84358 0,-0.0592 0.08514,-0.13058 0.189212,-0.15864 0.136533,-0.0368 0.259057,0.0261 0.440093,0.22585 0.137985,0.15227 0.250882,0.31375 0.250882,0.35885 0,0.0451 0.35349,0.84717 0.785533,1.78238 0.53482,1.15767 0.804331,1.85241 0.844437,2.17673 l 0.0589,0.47634 -1.83464,-0.0128 c -1.009054,-0.007 -1.993078,-0.0378 -2.186717,-0.0681 z"
          id="path3084"/>
</svg>
