<?xml version="1.0" encoding="UTF-8" standalone="no"?>
<svg xmlns="http://www.w3.org/2000/svg"
     id="svg853"
     version="1.1"
     width="348"
     height="159"
     viewBox="-2 -2 352 159">

    <g transform="translate(-27,-24)"
       id="Layer 1">

        <rect id="rect838"
              height="154"
              width="33"
              y="24"
              x="145"/>

        <rect id="rect840"
              height="154"
              width="33"
              y="24"
              x="216"/>

        <path id="path842"
              d="m 27,24 h 37 l 39,155 H 66 Z"/>

        <path id="path844"
              d="m 131,24 h -20 c -1,1 -1,4 0,5 2,6 1,13 0,19 L 81,179 h 15 z"/>

        <path id="path846"
              d="m 220,123 h -73 l -9,14 h 58 c 9,0 21,-7 24,-14 z"/>

        <path id="path848"
              d="M 327,89 C 276,79 293,37 322,37 h 47 l 6,-13 h -61 c -18,0 -57,18 -52,53 2,23 18,32 47,40 50,12 34,48 12,48 h -54 l 6,14 h 51 c 27,0 51,-19 51,-46 -1,-28 -16,-38 -48,-44 z"/>
    </g>
</svg>
