<?xml version="1.0" encoding="UTF-8" standalone="no"?>
<svg
        xmlns:dc="http://purl.org/dc/elements/1.1/"
        xmlns:cc="http://creativecommons.org/ns#"
        xmlns:rdf="http://www.w3.org/1999/02/22-rdf-syntax-ns#"
        xmlns="http://www.w3.org/2000/svg"
        xmlns:sodipodi="http://sodipodi.sourceforge.net/DTD/sodipodi-0.dtd"
        xmlns:inkscape="http://www.inkscape.org/namespaces/inkscape"
        id="vide_codec"
        width="213"
        height="75"
        viewBox="-10 -10 221 75"
        version="1.1"
        sodipodi:docname="web_dl.svg"
        inkscape:version="0.92.5 (2060ec1f9f, 2020-04-08)">
    <metadata
            id="metadata11">
        <rdf:RDF>
            <cc:Work
                    rdf:about="">
                <dc:format>image/svg+xml</dc:format>
                <dc:type
                        rdf:resource="http://purl.org/dc/dcmitype/StillImage"/>
            </cc:Work>
        </rdf:RDF>
    </metadata>
    <defs
            id="defs9"/>
    <sodipodi:namedview
            pagecolor="#ffffff"
            bordercolor="#666666"
            borderopacity="1"
            objecttolerance="10"
            gridtolerance="10"
            guidetolerance="10"
            inkscape:pageopacity="0"
            inkscape:pageshadow="2"
            inkscape:window-width="1856"
            inkscape:window-height="1023"
            id="namedview7"
            showgrid="false"
            inkscape:zoom="1.9671362"
            inkscape:cx="94.636439"
            inkscape:cy="36.483295"
            inkscape:window-x="64"
            inkscape:window-y="27"
            inkscape:window-maximized="1"
            inkscape:current-layer="vide_codec"/>
    <g
            transform="translate(100.25819,-32)"
            id="g4">
        <g
                aria-label="WEB-DL"
                style="font-weight:bold;font-size:46px;text-anchor:middle;display:inline;stroke-width:2.8499999"
                id="text">
            <path
                    d="m -100.53516,42.46582 h 8.28809 l 5.794922,24.370117 5.75,-24.370117 h 8.333007 l 5.75,24.370117 5.794922,-24.370117 h 8.220703 L -60.509766,76 h -9.972656 L -76.569336,50.506836 -82.588867,76 h -9.972656 z"
                    style="font-weight:bold;font-size:46px;text-anchor:middle;display:inline;stroke-width:2.8499999"
                    id="path8"/>
            <path
                    d="m -46.943359,42.46582 h 23.336914 v 6.536133 h -14.689453 v 6.244141 h 13.813476 v 6.536133 h -13.813476 v 7.68164 h 15.183593 V 76 h -23.831054 z"
                    style="font-weight:bold;font-size:46px;text-anchor:middle;display:inline;stroke-width:2.8499999"
                    id="path10"/>
            <path
                    d="m -2.0888672,55.448242 q 2.04394533,0 3.0996094,-0.898437 1.0556641,-0.898438 1.0556641,-2.650391 0,-1.729492 -1.0556641,-2.62793 -1.05566407,-0.920898 -3.0996094,-0.920898 h -4.7841797 v 7.097656 z m 0.2919922,14.666992 q 2.60546875,0 3.9082031,-1.100586 1.3251953,-1.100586 1.3251953,-3.324218 0,-2.178711 -1.3027343,-3.256836 -1.30273441,-1.100586 -3.9306641,-1.100586 h -5.0761719 v 8.782226 z M 6.2441406,58.053711 q 2.7851563,0.808594 4.3125004,2.987305 1.527343,2.178711 1.527343,5.345703 0,4.851562 -3.2792965,7.232422 Q 5.5253906,76 -1.1679687,76 H -15.520508 V 42.46582 h 12.9824221 q 6.9853515,0 10.1074218,2.111328 3.1445311,2.111329 3.1445311,6.760743 0,2.448242 -1.1455076,4.177734 -1.1455078,1.707031 -3.3242188,2.538086 z"
                    style="font-weight:bold;font-size:46px;text-anchor:middle;display:inline;stroke-width:2.8499999"
                    id="path12"/>
            <path
                    d="m 17.811523,59.491211 h 14.105469 v 6.536133 H 17.811523 Z"
                    style="font-weight:bold;font-size:46px;text-anchor:middle;display:inline;stroke-width:2.8499999"
                    id="path14"/>
            <path
                    d="m 47.280273,49.001953 v 20.461914 h 3.09961 q 5.300781,0 8.085937,-2.62793 2.807617,-2.627929 2.807617,-7.636718 0,-4.986328 -2.785156,-7.591797 -2.785156,-2.605469 -8.108398,-2.605469 z M 38.632812,42.46582 h 9.119141 q 7.636719,0 11.365234,1.100586 3.750977,1.078125 6.423829,3.683594 2.358398,2.268555 3.503906,5.233398 1.145508,2.964844 1.145508,6.715821 0,3.795898 -1.145508,6.783203 -1.145508,2.964844 -3.503906,5.233398 -2.695313,2.605469 -6.46875,3.706055 Q 55.298828,76 47.751953,76 h -9.119141 z"
                    style="font-weight:bold;font-size:46px;text-anchor:middle;display:inline;stroke-width:2.8499999"
                    id="path16"/>
            <path
                    d="m 76.816406,42.46582 h 8.647461 V 69.463867 H 100.64746 V 76 H 76.816406 Z"
                    style="font-weight:bold;font-size:46px;text-anchor:middle;display:inline;stroke-width:2.8499999"
                    id="path18"/>
        </g>
    </g>
</svg>
