<?xml version="1.0" encoding="UTF-8" standalone="no"?>
<svg
        xmlns:dc="http://purl.org/dc/elements/1.1/"
        xmlns:cc="http://creativecommons.org/ns#"
        xmlns:rdf="http://www.w3.org/1999/02/22-rdf-syntax-ns#"
        xmlns="http://www.w3.org/2000/svg"
        xmlns:sodipodi="http://sodipodi.sourceforge.net/DTD/sodipodi-0.dtd"
        xmlns:inkscape="http://www.inkscape.org/namespaces/inkscape"
        id="vide_codec"
        width="213"
        height="75"
        viewBox="-10 -10 221 75"
        version="1.1"
        sodipodi:docname="webrip.svg"
        inkscape:version="0.92.5 (2060ec1f9f, 2020-04-08)">
    <metadata
            id="metadata11">
        <rdf:RDF>
            <cc:Work
                    rdf:about="">
                <dc:format>image/svg+xml</dc:format>
                <dc:type
                        rdf:resource="http://purl.org/dc/dcmitype/StillImage"/>
            </cc:Work>
        </rdf:RDF>
    </metadata>
    <defs
            id="defs9"/>
    <sodipodi:namedview
            pagecolor="#ffffff"
            bordercolor="#666666"
            borderopacity="1"
            objecttolerance="10"
            gridtolerance="10"
            guidetolerance="10"
            inkscape:pageopacity="0"
            inkscape:pageshadow="2"
            inkscape:window-width="1856"
            inkscape:window-height="1023"
            id="namedview7"
            showgrid="false"
            inkscape:zoom="1.9671362"
            inkscape:cx="142.03185"
            inkscape:cy="16.149166"
            inkscape:window-x="64"
            inkscape:window-y="27"
            inkscape:window-maximized="1"
            inkscape:current-layer="vide_codec"/>
    <g
            transform="translate(100.25819,-32)"
            id="g4">
        <g
                aria-label="WEBRIP"
                style="font-weight:bold;font-size:46px;text-anchor:middle;display:inline;stroke-width:2.8499999"
                id="text">
            <path
                    d="m -100.3667,42.46582 h 8.288087 l 5.794922,24.370117 5.75,-24.370117 h 8.333007 l 5.75,24.370117 5.794922,-24.370117 h 8.220703 L -60.341309,76 h -9.972656 L -76.400879,50.506836 -82.42041,76 h -9.972656 z"
                    style="font-weight:bold;font-size:46px;text-anchor:middle;display:inline;stroke-width:2.8499999"
                    id="path3711"/>
            <path
                    d="m -46.774902,42.46582 h 23.336914 v 6.536133 h -14.689453 v 6.244141 h 13.813476 v 6.536133 h -13.813476 v 7.68164 h 15.183593 V 76 h -23.831054 z"
                    style="font-weight:bold;font-size:46px;text-anchor:middle;display:inline;stroke-width:2.8499999"
                    id="path3713"/>
            <path
                    d="m -1.9204102,55.448242 q 2.04394536,0 3.0996094,-0.898437 1.0556641,-0.898438 1.0556641,-2.650391 0,-1.729492 -1.0556641,-2.62793 -1.05566404,-0.920898 -3.0996094,-0.920898 h -4.7841796 v 7.097656 z m 0.2919922,14.666992 q 2.60546878,0 3.9082032,-1.100586 1.3251953,-1.100586 1.3251953,-3.324218 0,-2.178711 -1.3027344,-3.256836 -1.30273438,-1.100586 -3.9306641,-1.100586 h -5.0761718 v 8.782226 z M 6.4125977,58.053711 q 2.7851562,0.808594 4.3125003,2.987305 1.527343,2.178711 1.527343,5.345703 0,4.851562 -3.2792965,7.232422 Q 5.6938477,76 -0.99951172,76 H -15.352051 V 42.46582 h 12.9824221 q 6.9853516,0 10.1074219,2.111328 3.144531,2.111329 3.144531,6.760743 0,2.448242 -1.1455076,4.177734 -1.1455078,1.707031 -3.3242187,2.538086 z"
                    style="font-weight:bold;font-size:46px;text-anchor:middle;display:inline;stroke-width:2.8499999"
                    id="path3715"/>
            <path
                    d="m 31.995605,57.334961 q 2.717774,0 3.885743,-1.010742 Q 37.071777,55.313477 37.071777,53 q 0,-2.291016 -1.190429,-3.279297 -1.167969,-0.988281 -3.885743,-0.988281 h -3.638671 v 8.602539 z M 28.356934,63.30957 V 76 H 19.709473 V 42.46582 h 13.207031 q 6.625976,0 9.703125,2.223633 3.099609,2.223633 3.099609,7.030274 0,3.324218 -1.617187,5.458007 -1.594727,2.133789 -4.829102,3.144532 1.774414,0.404296 3.166992,1.841796 1.415039,1.41504 2.852539,4.3125 L 49.986816,76 H 40.777832 L 36.689941,67.666992 Q 35.45459,65.151367 34.174316,64.230469 32.916504,63.30957 30.805176,63.30957 Z"
                    style="font-weight:bold;font-size:46px;text-anchor:middle;display:inline;stroke-width:2.8499999"
                    id="path3717"/>
            <path
                    d="m 55.130371,42.46582 h 8.647461 V 76 h -8.647461 z"
                    style="font-weight:bold;font-size:46px;text-anchor:middle;display:inline;stroke-width:2.8499999"
                    id="path3719"/>
            <path
                    d="m 72.245605,42.46582 h 14.35254 q 6.401367,0 9.815429,2.852539 3.436524,2.830078 3.436524,8.085938 0,5.27832 -3.436524,8.130859 -3.414062,2.830078 -9.815429,2.830078 H 80.893066 V 76 h -8.647461 z m 8.647461,6.266602 v 9.366211 h 4.78418 q 2.515625,0 3.885742,-1.212891 1.370117,-1.235351 1.370117,-3.481445 0,-2.246094 -1.370117,-3.458985 -1.370117,-1.21289 -3.885742,-1.21289 z"
                    style="font-weight:bold;font-size:46px;text-anchor:middle;display:inline;stroke-width:2.8499999"
                    id="path3721"/>
        </g>
    </g>
</svg>
