<?xml version="1.0" standalone="no"?>
<!DOCTYPE svg PUBLIC "-//W3C//DTD SVG 20010904//EN"
        "http://www.w3.org/TR/2001/REC-SVG-20010904/DTD/svg10.dtd">
<svg version="1.0" xmlns="http://www.w3.org/2000/svg"
     width="1051.000000pt" height="393.000000pt" viewBox="-50 -50 1151.000000 493.000000"
     preserveAspectRatio="xMidYMid meet">

    <g transform="translate(0.000000,393.000000) scale(0.100000,-0.100000)"
       fill="#000000" stroke="none">
        <path d="M50 2905 l0 -1017 223 5 c146 4 244 11 287 21 361 85 638 334 753
677 39 116 50 211 44 366 -7 200 -52 340 -163 511 -130 199 -329 344 -574 419
-79 24 -102 26 -327 31 l-243 4 0 -1017z"/>
        <path d="M2436 3904 c-443 -95 -762 -453 -806 -905 -30 -308 86 -611 320 -832
104 -99 212 -165 345 -213 133 -47 253 -64 468 -64 l177 0 0 1015 0 1015 -217
-1 c-152 0 -239 -5 -287 -15z"/>
        <path d="M3552 2908 l3 -1013 425 0 c309 0 443 4 490 13 213 43 407 148 550
299 119 124 194 255 247 428 25 84 27 103 27 270 1 158 -2 189 -22 259 -72
251 -221 458 -424 590 -97 63 -170 97 -288 134 l-85 26 -463 4 -462 3 2 -1013z
m825 701 c165 -22 283 -81 404 -199 227 -223 279 -550 133 -831 -70 -133 -176
-234 -319 -304 -132 -65 -197 -75 -490 -75 l-245 0 0 703 c0 387 3 707 7 710
11 11 425 8 510 -4z"/>
        <path d="M7070 2905 l0 -1015 155 0 155 0 0 1015 0 1015 -155 0 -155 0 0
-1015z"/>
        <path d="M7640 2905 l0 -1015 150 0 150 0 0 60 c0 33 2 60 5 60 2 0 33 -15 67
-34 202 -110 433 -113 648 -9 79 38 108 59 180 132 72 71 95 102 134 181 102
207 102 414 1 625 -120 251 -394 411 -670 391 -115 -8 -225 -42 -307 -93 -21
-13 -42 -23 -48 -23 -7 0 -10 125 -10 370 l0 370 -150 0 -150 0 0 -1015z m832
95 c219 -67 348 -310 280 -527 -62 -198 -268 -328 -466 -295 -96 15 -168 52
-235 119 -131 132 -164 311 -87 478 27 60 101 145 158 181 100 63 234 80 350
44z"/>
        <path d="M6035 3286 c-253 -49 -460 -232 -542 -481 -23 -70 -26 -96 -26 -210
0 -114 3 -140 26 -210 37 -113 90 -198 177 -286 84 -85 170 -138 288 -177 67
-22 94 -26 207 -26 113 0 140 4 207 26 119 39 204 92 288 177 87 89 140 174
177 286 22 67 26 99 27 200 1 137 -14 207 -69 320 -134 277 -457 440 -760 381z
m252 -284 c117 -37 206 -114 260 -229 121 -253 -38 -548 -321 -595 -258 -43
-503 183 -483 447 20 271 287 457 544 377z"/>
        <path d="M9059 3258 c10 -24 138 -312 285 -642 l266 -598 -72 -162 c-39 -88
-78 -171 -86 -183 -37 -58 -132 -80 -208 -48 l-35 14 -18 -42 c-10 -23 -37
-84 -60 -135 -23 -52 -39 -97 -36 -102 3 -4 40 -23 83 -41 70 -31 86 -34 177
-34 93 0 105 2 167 33 76 37 149 104 180 166 29 57 799 1777 805 1799 5 16 -6
17 -161 15 l-167 -3 -185 -415 c-102 -228 -192 -431 -200 -450 l-15 -35 -201
453 -201 452 -168 0 -168 0 18 -42z"/>
        <path d="M2650 968 c0 -2 81 -211 179 -463 l179 -460 59 -3 59 -3 178 453 c98
249 180 459 183 466 4 9 -13 12 -65 12 -47 0 -71 -4 -74 -12 -3 -7 -65 -176
-138 -375 -73 -200 -136 -363 -139 -363 -3 0 -67 168 -142 373 l-136 372 -72
3 c-39 2 -71 1 -71 0z"/>
        <path d="M3805 958 c-3 -7 -4 -215 -3 -463 l3 -450 63 -3 62 -3 0 466 0 465
-60 0 c-39 0 -62 -4 -65 -12z"/>
        <path d="M4580 960 c-97 -16 -178 -72 -211 -145 -23 -50 -24 -143 -3 -193 32
-77 91 -117 244 -167 99 -32 146 -64 166 -112 28 -65 -11 -149 -83 -179 -78
-33 -212 -1 -261 61 l-19 24 -48 -43 -48 -42 43 -37 c121 -103 347 -112 462
-17 54 44 88 120 88 194 -1 130 -79 213 -242 256 -24 7 -71 25 -104 41 -48 22
-66 37 -79 65 -32 67 -5 138 65 174 73 37 193 18 244 -39 l20 -22 43 43 c41
40 42 43 25 61 -27 30 -102 64 -167 76 -64 12 -70 12 -135 1z"/>
        <path d="M5320 505 l0 -465 65 0 65 0 0 465 0 465 -65 0 -65 0 0 -465z"/>
        <path d="M6210 960 c-147 -25 -264 -114 -328 -249 -32 -65 -36 -84 -40 -175
-7 -161 33 -271 135 -367 140 -132 360 -164 541 -77 227 108 316 395 198 634
-88 177 -290 271 -506 234z m232 -132 c100 -46 165 -136 188 -261 20 -106 -18
-237 -88 -310 -101 -105 -245 -132 -377 -73 -74 33 -120 79 -157 154 -31 62
-33 74 -33 167 0 87 4 107 26 155 64 137 173 204 320 196 43 -2 85 -12 121
-28z"/>
        <path d="M7135 958 c-3 -7 -4 -215 -3 -463 l3 -450 63 -3 62 -3 0 376 c0 207
3 374 8 371 4 -2 115 -171 247 -375 l240 -371 78 0 77 0 0 465 0 465 -60 0
-60 0 -2 -372 -3 -372 -241 370 -241 369 -82 3 c-59 2 -83 -1 -86 -10z"/>
    </g>
</svg>
