<?xml version="1.0" encoding="UTF-8" standalone="no"?>
<!-- Generator: Adobe Illustrator 23.0.3, SVG Export Plug-In . SVG Version: 6.00 Build 0)  -->

<svg
		version="1.1"
		id="Layer_1"
		x="0px"
		y="0px"
		width="200"
		height="102.7"
		viewBox="0 0 200 102.7"
		xml:space="preserve"
		sodipodi:docname="hdr.svg"
		inkscape:version="1.2.1 (9c6d41e, 2022-07-14)"
		xmlns:inkscape="http://www.inkscape.org/namespaces/inkscape"
		xmlns:sodipodi="http://sodipodi.sourceforge.net/DTD/sodipodi-0.dtd"
		xmlns="http://www.w3.org/2000/svg"
><defs
   id="defs19" />
	<sodipodi:namedview
			id="namedview17"
			pagecolor="#505050"
			bordercolor="#eeeeee"
			borderopacity="1"
			inkscape:showpageshadow="0"
			inkscape:pageopacity="0"
			inkscape:pagecheckerboard="0"
			inkscape:deskcolor="#505050"
			showgrid="false"
			inkscape:zoom="2.2979553"
			inkscape:cx="150.35105"
			inkscape:cy="54.396185"
			inkscape:window-width="1344"
			inkscape:window-height="712"
			inkscape:window-x="113"
			inkscape:window-y="198"
			inkscape:window-maximized="0"
			inkscape:current-layer="Layer_1"/>
	<g
			id="g12">
	<path
			d="M 36.4,22.8 V 44.9 H 59.7 V 22.8 h 10 v 55.1 h -10 V 53.6 H 36.4 v 24.3 h -10 V 22.8 Z"
			id="path2"/>
		<path
				d="m 79.6,23.5 c 4.4,-0.7 10,-1.1 16,-1.1 10.3,0 17.4,2.1 22.5,6.4 5.3,4.3 8.6,10.9 8.6,20.3 0,9.8 -3.3,17.2 -8.6,21.9 -5.5,5 -14.2,7.5 -24.9,7.5 -5.9,0 -10.3,-0.3 -13.6,-0.7 z m 10,46.6 c 1.4,0.2 3.5,0.2 5.6,0.2 13.1,0.1 20.8,-7.1 20.8,-21.1 0.1,-12.2 -6.9,-19.1 -19.5,-19.1 -3.2,0 -5.5,0.2 -6.9,0.6 z"
				id="path4"/>
		<path
				d="m 133.8,23.5 c 3.8,-0.7 9.4,-1.1 15.2,-1.1 7.9,0 13.3,1.3 17,4.4 3,2.5 4.7,6.4 4.7,11 0,7.1 -4.8,11.9 -10,13.8 v 0.2 c 3.9,1.5 6.3,5.3 7.7,10.6 1.7,6.9 3.2,13.2 4.3,15.4 h -10.4 c -0.8,-1.6 -2.1,-6.1 -3.7,-13 -1.6,-7.2 -4.2,-9.5 -9.9,-9.6 h -5.1 v 22.6 h -10 V 23.5 Z m 10,24.3 h 6 c 6.8,0 11,-3.6 11,-9.1 0,-6 -4.2,-8.8 -10.8,-8.8 -3.2,0 -5.2,0.2 -6.2,0.5 z"
				id="path6"/>
	
	
</g>
	<path
			d="M 172,101 H 25.7 C 13.3,101 7.4,94.4 4.7,88.9 1.8,83 1.8,77.3 1.8,77 V 26.2 C 1.8,13.8 8.4,7.9 13.9,5.2 19.7,2.3 25.5,2.3 25.8,2.3 H 172 c 23.7,0 24,23.7 24,24 V 77 c 0,12.4 -6.6,18.3 -12.1,21 -5.9,3 -11.6,3 -11.9,3 z M 25.8,7.4 C 24.9,7.4 7,7.8 7,26.2 V 77 c 0,0.8 0.3,18.8 18.8,18.8 H 172 c 0.8,0 18.8,-0.3 18.8,-18.8 V 26.2 C 190.8,25.4 190.5,7.4 172,7.4 Z"
			id="path14"
			inkscape:label="path14"
			sodipodi:nodetypes="sscsscsssscssssssssss"/>
</svg>
