<?xml version="1.0" encoding="utf-8"?>
<!-- Generator: Adobe Illustrator 23.0.3, SVG Export Plug-In . SVG Version: 6.00 Build 0)  -->
<svg version="1.1" id="Layer_1" xmlns="http://www.w3.org/2000/svg" x="0px"
	 y="0px"
	 width="288px" height="102.7px" viewBox="0 0 288 102.7" style="enable-background:new 0 0 288 102.7;"
	 xml:space="preserve">
<g>
	<g>
		<path d="M32.4,25.9v19.3h20.4V25.9h8.8v48.2h-8.8V52.8H32.4V74h-8.8V25.9H32.4z"/>
		<path d="M70.2,26.5c3.9-0.6,8.8-1,14-1c9,0,15.2,1.9,19.7,5.6c4.6,3.8,7.5,9.5,7.5,17.7c0,8.6-2.9,15-7.5,19.2
			c-4.8,4.4-12.4,6.6-21.8,6.6c-5.1,0-9-0.3-11.9-0.6C70.2,74,70.2,26.5,70.2,26.5z M79,67.4c1.2,0.2,3.1,0.2,4.9,0.2
			c11.4,0.1,18.2-6.2,18.2-18.4c0-10.7-6.1-16.8-17.1-16.8c-2.8,0-4.8,0.2-6,0.5V67.4z"/>
		<path d="M117.7,26.5c3.3-0.6,8.2-1,13.3-1c6.9,0,11.7,1.1,14.9,3.9c2.6,2.2,4.1,5.6,4.1,9.7c0,6.2-4.2,10.4-8.7,12.1v0.2
			c3.4,1.3,5.5,4.6,6.7,9.3c1.5,6,2.8,11.6,3.8,13.4h-9.1c-0.7-1.4-1.9-5.4-3.2-11.4c-1.4-6.3-3.6-8.3-8.7-8.4h-4.4v19.8h-8.7
			C117.7,74.1,117.7,26.5,117.7,26.5z M126.4,47.8h5.2c5.9,0,9.7-3.1,9.7-7.9c0-5.3-3.7-7.7-9.4-7.7c-2.8,0-4.6,0.2-5.4,0.4v15.2
			H126.4z"/>
		<path d="M180.7,35.5h-0.1l-8.5,4.3l-1.5-6.6l11.3-5.6h7.4v46.5h-8.5L180.7,35.5L180.7,35.5z"/>
		<path d="M231,50.6c0,14.9-5.9,24.3-16.9,24.3c-10.7,0-16.4-9.7-16.5-23.9c0-14.4,6.1-24.2,17-24.2C225.7,26.8,231,36.8,231,50.6z
			 M206.4,51c-0.1,11.3,3.1,17.2,7.9,17.2c5.1,0,7.9-6.3,7.9-17.4c0-10.8-2.6-17.2-7.9-17.2C209.6,33.5,206.3,39.3,206.4,51z"/>
	</g>
	<path d="M260.7,94.3H26c-12.3,0-18.2-5.8-21-10.6c-2.9-5.1-2.9-10.2-2.9-10.4V28.9c0-20.8,23.7-21,23.9-21h234.7
		c12.3,0,18.2,5.8,21,10.6c2.9,5.1,2.9,10.2,2.9,10.4v44.5c0,10.8-6.6,16-12.1,18.4C266.7,94.3,260.9,94.3,260.7,94.3z M26,12.5
		c-0.8,0-18.7,0.3-18.7,16.4v44.5C7.3,74,7.6,89.8,26,89.8h234.7c0.8,0,18.7-0.3,18.7-16.4V28.9c0-0.7-0.3-16.4-18.7-16.4H26
		L26,12.5z"/>
</g>
	<g>
	<path d="M254.5,36.2v12.1h11.6v5.2h-11.6v12.2h-5.4V53.5h-11.6v-5.2h11.6V36.2H254.5z"/>
</g>
</svg>
