<?xml version="1.0" encoding="utf-8"?>
<!-- Generator: Adobe Illustrator 23.0.3, SVG Export Plug-In . SVG Version: 6.00 Build 0)  -->
<svg version="1.1" id="Layer_1" xmlns="http://www.w3.org/2000/svg" x="0px"
     y="0px"
     width="288px" height="102.7px" viewBox="0 0 288 102.7" style="enable-background:new 0 0 288 102.7;"
     xml:space="preserve">
<g>
	<path d="M36.4,22.8v22.1h23.3V22.8h10v55.1h-10V53.6H36.4v24.3h-10V22.8H36.4z"/>
    <path d="M79.6,23.5c4.4-0.7,10-1.1,16-1.1c10.3,0,17.4,2.1,22.5,6.4c5.3,4.3,8.6,10.9,8.6,20.3c0,9.8-3.3,17.2-8.6,21.9
		c-5.5,5-14.2,7.5-24.9,7.5c-5.9,0-10.3-0.3-13.6-0.7V23.5z M89.6,70.1c1.4,0.2,3.5,0.2,5.6,0.2c13.1,0.1,20.8-7.1,20.8-21.1
		c0.1-12.2-6.9-19.1-19.5-19.1c-3.2,0-5.5,0.2-6.9,0.6V70.1z"/>
    <path d="M133.8,23.5c3.8-0.7,9.4-1.1,15.2-1.1c7.9,0,13.3,1.3,17,4.4c3,2.5,4.7,6.4,4.7,11c0,7.1-4.8,11.9-10,13.8v0.2
		c3.9,1.5,6.3,5.3,7.7,10.6c1.7,6.9,3.2,13.2,4.3,15.4h-10.4c-0.8-1.6-2.1-6.1-3.7-13c-1.6-7.2-4.2-9.5-9.9-9.6h-5.1v22.6h-10V23.5
		H133.8z M143.8,47.8h6c6.8,0,11-3.6,11-9.1c0-6-4.2-8.8-10.8-8.8c-3.2,0-5.2,0.2-6.2,0.5V47.8z"/>
    <path d="M205.9,33.8h-0.2l-9.7,4.9l-1.7-7.6l12.9-6.4h8.4v53.1h-9.7V33.8z"/>
    <path d="M263.3,51c0,17.1-6.7,27.8-19.4,27.8c-12.3,0-18.8-11.1-18.9-27.3c0-16.5,7-27.6,19.4-27.6C257.3,23.8,263.3,35.3,263.3,51
		z M235.2,51.4c-0.1,12.9,3.5,19.6,9.1,19.6c5.9,0,9-7.2,9-19.9c0-12.3-2.9-19.6-9-19.6C238.9,31.5,235.1,38.1,235.2,51.4z"/>
</g>
    <path d="M261,101H25.7c-12.4,0-18.3-6.6-21-12.1C1.8,83,1.8,77.3,1.8,77V26.2c0-12.4,6.6-18.3,12.1-21c5.8-2.9,11.6-2.9,11.9-2.9
	H261c23.7,0,24,23.7,24,24V77c0,12.4-6.6,18.3-12.1,21C267,101,261.3,101,261,101z M25.8,7.4C24.9,7.4,7,7.8,7,26.2V77
	c0,0.8,0.3,18.8,18.8,18.8H261c0.8,0,18.8-0.3,18.8-18.8V26.2c0-0.8-0.3-18.8-18.8-18.8L25.8,7.4L25.8,7.4z"/>
</svg>
