<svg version="1.1"
	 id="Layer_1"
	 xmlns="http://www.w3.org/2000/svg"
	 xmlns:xlink="http://www.w3.org/1999/xlink"
	 width="503"
	 height="267"
	 viewBox="0 0 450 260">
<path d="
M172.016922,28.682167 
	C197.718384,33.657410 229.321274,47.218113 238.485291,55.512867 
	C235.256393,54.169090 232.009399,52.867001 228.801529,51.474747 
	C208.201660,42.534206 187.133087,35.641842 164.241852,36.989223 
	C156.822067,37.425949 149.692856,39.174294 143.720566,43.842350 
	C131.883286,53.094620 131.422562,65.554260 134.584808,78.720284 
	C138.874466,96.580360 148.267044,111.956657 159.629089,125.969437 
	C198.558350,173.980789 246.594421,209.406342 305.466064,229.298737 
	C320.208099,234.279968 335.406799,236.958984 351.143921,235.016785 
	C366.005890,233.182602 375.752075,224.968719 378.380493,211.276581 
	C379.072144,210.839859 379.501831,211.005051 379.931519,211.170242 
	C379.286926,215.845398 378.642334,220.520569 377.799591,225.841476 
	C377.367310,227.312836 377.133148,228.138428 376.626068,229.175293 
	C372.035187,238.550705 364.552826,243.985291 355.144775,246.868057 
	C341.944885,250.912674 328.454803,250.351776 315.273529,247.400909 
	C302.562469,244.555267 290.155060,240.353485 277.397461,236.483887 
	C276.117126,235.870499 275.053558,235.520721 273.676849,234.975830 
	C269.058746,233.068115 264.753784,231.355515 260.384247,229.634506 
	C260.319702,229.626099 260.287262,229.500000 260.131409,229.183548 
	C249.347626,223.159256 238.719666,217.451431 227.958832,211.476166 
	C227.280777,210.970016 226.735596,210.731323 225.953400,210.240158 
	C216.746414,203.884521 207.776428,197.781326 198.611420,191.380936 
	C166.049835,166.246155 137.586975,137.873917 117.598495,101.828384 
	C112.698326,91.462639 108.056786,81.013596 106.833214,69.423569 
	C104.192627,44.410992 117.479126,28.445868 142.763763,27.118885 
	C151.503342,26.660219 160.324890,27.763393 169.732071,28.338890 
	C170.909073,28.577143 171.462997,28.629654 172.016922,28.682167 
z"/>
<path d="
M390.633118,105.403709 
	C404.564148,124.557877 402.103699,144.946472 384.024139,161.766846 
	C390.861847,173.299179 397.727936,184.840622 404.508881,196.431885 
	C404.843811,197.004425 404.436249,198.011353 404.331909,199.369049 
	C394.696686,199.369049 385.255615,199.471939 375.822662,199.241440 
	C374.616394,199.211960 373.071198,197.675552 372.330963,196.446899 
	C367.524994,188.469925 362.645172,180.517395 358.331268,172.273407 
	C356.470062,168.716599 354.267517,167.580551 350.538116,167.958572 
	C347.765930,168.239563 344.942352,168.013885 341.771057,168.013885 
	C341.771057,178.474991 341.771057,188.555252 341.771057,199.014755 
	C332.520508,199.014755 323.638275,199.014755 314.475220,199.014755 
	C314.475220,163.748459 314.475220,128.546722 314.475220,92.852577 
	C324.450623,92.852577 334.227966,92.849327 344.005280,92.853752 
	C350.333801,92.856613 356.664062,92.778328 362.990417,92.900330 
	C373.827789,93.109329 383.051056,97.054428 390.633118,105.403709 
M343.662628,117.068222 
	C342.995453,117.608795 341.755310,118.140732 341.747040,118.691223 
	C341.622833,126.936295 341.661102,135.183823 341.661102,143.392380 
	C342.609802,143.621414 343.073700,143.828598 343.538788,143.831223 
	C349.179688,143.863220 354.823334,143.977036 360.461121,143.846619 
	C367.636230,143.680649 372.210449,138.542862 372.380127,130.722992 
	C372.557465,122.551842 368.152466,117.351242 360.564575,117.094124 
	C355.261444,116.914436 349.947266,117.061783 343.662628,117.068222 
z"/>
<path d="
M242.521225,131.999664 
	C242.521255,118.852859 242.521255,106.206055 242.521255,93.202789 
	C264.657013,93.202789 286.517273,93.202789 308.619263,93.202789 
	C308.619263,101.080124 308.619263,108.824188 308.619263,116.983582 
	C295.839508,116.983582 283.250977,116.983582 270.379517,116.983582 
	C270.379517,124.806786 270.379517,132.222687 270.379517,140.157928 
	C281.396271,140.157928 292.453217,140.157928 303.879272,140.157928 
	C303.879272,148.548813 303.879272,156.435028 303.879272,164.765991 
	C292.820160,164.765991 281.728760,164.765991 270.174011,164.765991 
	C270.174011,176.437469 270.174011,187.684082 270.174011,199.282242 
	C261.355530,199.302887 252.923798,200.747162 245.606659,194.580460 
	C243.469727,192.779495 242.453415,191.266602 242.468567,188.498856 
	C242.570618,169.832932 242.521423,151.166168 242.521225,131.999664 
z"/>
<path d="
M236.499695,167.999680 
	C236.499664,174.786758 236.499664,181.074020 236.499664,188.594940 
	C230.339554,184.113541 224.878326,180.233612 219.519089,176.217606 
	C213.224136,171.500412 205.217957,167.730545 209.307755,157.397369 
	C207.818161,156.989044 207.166916,156.583160 206.622330,156.695282 
	C198.241821,158.420868 192.738083,154.037979 187.296005,148.442062 
	C173.094040,133.838516 159.824936,118.556206 149.935074,100.625618 
	C148.745239,98.468422 148.279419,95.911880 147.308395,93.038467 
	C157.320023,93.038467 166.275681,93.038467 175.832550,93.038467 
	C175.832550,105.658340 175.832550,118.358543 175.832550,131.115509 
	C187.018921,131.115509 197.604279,131.115509 208.695679,131.115509 
	C208.695679,118.337952 208.695679,105.782639 208.695679,93.030540 
	C218.135803,93.030540 227.067917,93.030540 236.499710,93.030540 
	C236.499710,117.964226 236.499710,142.732056 236.499695,167.999680 
z"/>
<path d="
M381.920044,234.028442 
	C379.031006,238.316544 376.830719,243.361694 373.115540,246.741745 
	C364.241211,254.815567 352.932861,257.315399 341.282135,257.942108 
	C315.442322,259.332123 291.224762,252.374329 267.674805,242.748108 
	C235.404114,229.557220 206.356079,210.981567 179.498749,188.873871 
	C178.628510,188.157532 177.734695,187.469833 176.159973,186.219345 
	C176.159973,190.926270 176.159973,194.947220 176.159973,199.184937 
	C166.500488,199.184937 157.397690,199.184937 147.976730,199.184937 
	C147.976730,188.314514 147.735168,177.662888 148.085373,167.030762 
	C148.244690,162.193375 146.880295,158.744263 143.530350,155.165604 
	C126.034531,136.475311 110.804764,116.176529 101.501579,92.021049 
	C96.280197,78.463921 93.455017,64.546021 97.008873,50.042141 
	C100.710960,34.933228 115.874908,22.175577 130.872833,21.993382 
	C131.736267,22.352474 131.880661,22.680740 132.025070,23.009007 
	C111.066231,27.513945 98.567642,44.920288 100.480919,66.622421 
	C101.715797,80.629463 106.595863,93.391525 113.426987,106.244820 
	C133.590668,142.041275 161.288666,170.121552 193.401123,194.632843 
	C194.662277,195.625687 195.731384,196.354553 196.954437,197.370804 
	C198.028503,198.212814 198.948654,198.767426 200.050201,199.598587 
	C205.809052,203.618271 211.386536,207.361389 217.079041,211.384079 
	C217.744003,211.906326 218.293945,212.149017 219.049408,212.651215 
	C235.175507,221.345871 251.096069,229.780991 267.226074,238.490677 
	C269.150665,239.416336 270.865814,240.067429 272.885468,240.860168 
	C274.728638,241.654037 276.246460,242.361557 277.809082,242.950012 
	C295.623016,249.658447 313.801849,254.898148 332.981720,255.417191 
	C345.783417,255.763641 358.235413,254.160675 369.405121,246.381073 
	C370.417755,245.641388 371.144745,245.010147 372.177673,244.213470 
	C374.735291,241.399429 376.987000,238.750839 379.503387,235.965607 
	C380.485413,235.228790 381.202728,234.628616 381.920044,234.028442 
z"/>
<path d="
M386.448608,217.533997 
	C386.414673,217.476974 386.482574,217.591034 386.448608,217.533997 
z"/>
</svg>