<?xml version="1.0" encoding="utf-8"?>
<!-- Generator: Adobe Illustrator 23.0.3, SVG Export Plug-In . SVG Version: 6.00 Build 0)  -->
<svg version="1.1" id="Layer_1" xmlns="http://www.w3.org/2000/svg" x="0px"
     y="0px"
     width="288px" height="102.7px" viewBox="0 0 288 102.7" style="enable-background:new 0 0 288 102.7;"
     xml:space="preserve">
	<defs/>
    <g>
		<g/>
        <path d="M260.7,94.3H26c-12.3,0-18.2-5.8-21-10.6c-2.9-5.1-2.9-10.2-2.9-10.4V28.9c0-20.8,23.7-21,23.9-21h234.7
		c12.3,0,18.2,5.8,21,10.6c2.9,5.1,2.9,10.2,2.9,10.4v44.5c0,10.8-6.6,16-12.1,18.4C266.7,94.3,260.9,94.3,260.7,94.3z M26,12.5
		c-0.8,0-18.7,0.3-18.7,16.4v44.5C7.3,74,7.6,89.8,26,89.8h234.7c0.8,0,18.7-0.3,18.7-16.4V28.9c0-0.7-0.3-16.4-18.7-16.4H26
		L26,12.5z"/>
	</g>
    <g>
		<text style="fill: rgb(51, 51, 51); font-family: Arial, sans-serif; font-size: 75px; font-weight: 700; white-space: pre;"
              x="66.605"
              y="74.948"
              transform="matrix(1, 0, 0, 1.069768, 0, -0.497165)">HLG</text>
	</g>
</svg>
