<?xml version="1.0" encoding="UTF-8" standalone="no"?>
<svg xmlns="http://www.w3.org/2000/svg"
     id="video_format"
     width="160"
     height="97"
     viewBox="-12 -5 164 97"
     version="1.1">

    <text id="text"
          y="39"
          style="font-size: 42px;
                 text-anchor: middle;
                 font-weight: bold;
                 font-style: italic;
                 display:inline;
                 stroke-width:2.85;"/>
    <path d="m -5,52.705079 c -2.77,0 -5,2.23 -5,5 v 30 c 0,2.77 2.23,5 5,5 h 150 c 2.77,0 5,-2.23 5,-5 v -30 c 0,-2.77 -2.23,-5 -5,-5 z m 113.625,8.148438 c 2.83333,0 5.11979,0.880208 6.85938,2.640624 1.75,1.760417 2.625,4.093751 2.625,7 0,2.416668 -0.56771,4.755208 -1.70313,7.015628 -1.13541,2.26041 -2.67708,3.99999 -4.625,5.21875 -1.94791,1.21874 -4.15104,1.82812 -6.60937,1.82812 -2.13542,0 -3.92709,-0.48438 -5.375,-1.45312 -1.44792,-0.96876 -2.47396,-2.16667 -3.07813,-3.59375 -0.60417,-1.4375 -0.90625,-2.88542 -0.90625,-4.34375 0,-1.35417 0.20312,-2.781252 0.60938,-4.281252 0.53124,-2.010417 1.33854,-3.755209 2.42187,-5.234376 1.09375,-1.479166 2.46875,-2.645833 4.125,-3.5 1.65625,-0.864583 3.54167,-1.296874 5.65625,-1.296874 z M 21.890625,61.244141 H 26.59375 L 29.5,78.572269 38.984375,61.244141 h 4.671875 l -12.625,22.906248 H 26 Z m 23.65625,0 H 50.25 L 45.46875,84.150389 H 40.75 Z m 9.15625,0 H 60.875 c 1.718753,0 2.817708,0.02604 3.296875,0.07813 0.947913,0.09375 1.791663,0.286458 2.53125,0.578124 0.75,0.291667 1.427083,0.703125 2.03125,1.234376 0.61458,0.520833 1.140628,1.151041 1.578125,1.890624 0.44792,0.739584 0.79167,1.59375 1.03125,2.5625 0.23959,0.958334 0.35937,2.010417 0.35937,3.15625 1e-5,2.468748 -0.47395,4.661458 -1.42187,6.578128 -0.937497,1.90625 -2.119795,3.42187 -3.546875,4.54687 -1.093753,0.875 -2.505208,1.52084 -4.234375,1.9375 -0.979167,0.22917 -2.484378,0.34375 -4.515625,0.34375 H 49.90625 Z m 23.031255,0 h 16.98437 l -0.79687,3.828126 H 81.65625 L 80.5625,70.275391 H 92.42188 L 91.625,74.103519 H 79.76562 l -1.4375,6.21875 h 13.32813 l -0.8125,3.82812 H 72.95312 Z M 108.25,64.791017 c -2.30208,0 -4.17708,1.072916 -5.625,3.21875 -1.4375,2.145833 -2.15625,4.499999 -2.15625,7.062502 0,1.57291 0.47917,2.89062 1.4375,3.95312 0.95833,1.0625 2.21875,1.59375 3.78125,1.59375 1.27083,0 2.48958,-0.41666 3.65625,-1.25 1.17709,-0.84374 2.14584,-2.11458 2.90625,-3.8125 0.77083,-1.70833 1.15625,-3.369792 1.15625,-4.984372 0,-1.802084 -0.48438,-3.213542 -1.45313,-4.234376 -0.96875,-1.03125 -2.20312,-1.546874 -3.70312,-1.546874 z m -49.640625,0.234374 -3.21875,15.437498 h 2.390625 c 1.729167,0 2.979167,-0.10416 3.75,-0.3125 0.781253,-0.21874 1.494792,-0.61979 2.140625,-1.20312 0.92708,-0.84376 1.70833,-1.96876 2.34375,-3.375 0.635413,-1.40626 0.953125,-3.062505 0.953125,-4.968752 0,-1.625 -0.265628,-2.84375 -0.796875,-3.65625 -0.520833,-0.822917 -1.166667,-1.369792 -1.9375,-1.640626 -0.541667,-0.1875 -1.505205,-0.28125 -2.890625,-0.28125 z"
          id="rect3764"/>
</svg>
