<?xml version="1.0" encoding="UTF-8" standalone="no"?>
<svg
        xmlns="http://www.w3.org/2000/svg"
        height="203.075"
        width="600.04999"
        xml:space="preserve"
        viewBox="0 0 600.04999 203.075"
        y="0px"
        x="0px"
        id="layer"
        version="1.1">
    <path
            id="path4"
            d="m 395.25,44.175 c 1,0.1 2.1,0.1 3.1,0.2 7.9,0.5 15.5,2.4 22.5,6.1 5.1,2.6 9.5,6 13.5,10.1 4.3,4.4 7.9,9.3 10.6,14.9 2,4.1 3.4,8.4 4.3,12.8 1.2,5.4 1.6,10.9 1.3,16.5 -0.4,8.9 -2.3,17.4 -6.5,25.3 -2.9,5.5 -6.7,10.3 -11.3,14.6 -7.3,6.9 -15.8,11.3 -25.5,13.4 -3.6,0.8 -7.3,1.2 -11,1.4 -0.2,0 -0.3,0.1 -0.5,0.1 -1.5,0 -2.9,0 -4.4,0 -0.9,-0.1 -1.9,-0.1 -2.8,-0.2 -11.3,-0.8 -21.7,-4.3 -30.6,-11.4 -7.1,-5.6 -12.6,-12.5 -16.4,-20.7 -1.9,-4.2 -3.2,-8.6 -4.1,-13.1 -1,-5.1 -1.3,-10.3 -1,-15.5 0.5,-10.9 3.4,-21.1 9.8,-30.1 7.4,-10.6 17.1,-18.1 29.6,-21.7 3.8,-1.1 7.7,-1.8 11.7,-2.1 1.3,-0.1 2.5,-0.1 3.8,-0.2 0.2,0 0.4,-0.1 0.6,-0.1 1.1,-0.3 2.2,-0.3 3.3,-0.3 z m -1.8,100.4 c 4,0 7.9,-0.4 11.7,-1.3 8.3,-2.1 15.2,-6.4 20.7,-13 5.6,-6.7 8.5,-14.5 9.3,-23.2 0.3,-3 0.3,-5.9 0.1,-8.9 -0.2,-3.2 -0.6,-6.4 -1.5,-9.5 -2.7,-9.7 -8.1,-17.5 -16.5,-23.1 -6.3,-4.2 -13.3,-6.1 -20.8,-6.5 -4.1,-0.2 -8.2,0 -12.2,0.7 -7.1,1.3 -13.3,4.2 -18.8,8.9 -5.3,4.6 -9,10.2 -11.4,16.8 -1.8,5 -2.5,10.1 -2.6,15.4 -0.1,4.1 0.2,8.1 1.1,12.1 1.6,7.2 4.8,13.6 9.9,19 4.5,4.8 9.8,8.2 16,10.3 5,1.7 10,2.3 15,2.3 z"/>
    <path
            id="path6"
            d="m 599.95,156.775 c -0.4,1 -0.8,1.2 -1.9,1.2 -3.8,0 -7.6,0 -11.4,0 -1.3,0 -1.8,-0.5 -1.8,-1.8 0,-36.3 0,-72.5 0,-108.8 0,-1.4 0.5,-1.9 1.9,-1.9 3.8,0 7.6,0 11.4,0 0.5,0 1,0.2 1.4,0.4 0.2,0.2 0.3,0.6 0.5,0.9 -0.1,36.7 -0.1,73.4 -0.1,110 z"/>
    <path
            id="path8"
            d="m 290.05,91.175 c 1.9,2.5 3.8,5.1 5.7,7.6 4,5.4 8.1,10.7 12.1,16.1 5.2,6.9 10.4,13.8 15.5,20.6 5.1,6.7 10.1,13.5 15.2,20.2 0.4,0.5 0.5,1 0.3,1.6 -0.3,0.6 -0.8,0.8 -1.4,0.8 -0.3,0 -0.6,0 -0.8,0 -4.7,0 -9.4,0 -14,0 -0.8,0 -1.4,-0.3 -1.9,-0.9 -8.8,-11.8 -17.7,-23.6 -26.5,-35.4 -5,-6.7 -10,-13.4 -15.1,-20.1 0,-0.1 -0.1,-0.1 -0.2,-0.2 -0.6,0.6 -1.2,1.1 -1.8,1.7 -4.1,3.8 -8.1,7.6 -12.2,11.4 -2.2,2.1 -4.5,4.2 -6.7,6.3 -0.3,0.3 -0.4,0.5 -0.4,0.9 0,11.4 0,22.8 0,34.2 0,0.1 0,0.3 0,0.4 0,1 -0.6,1.6 -1.6,1.6 -4,0 -8,0 -12,0 -1,0 -1.5,-0.6 -1.6,-1.6 0,-0.1 0,-0.2 0,-0.4 0,-36.2 0,-72.4 0,-108.6 0,0 0,-0.1 0,-0.1 0,-1.4 0.5,-1.9 1.9,-1.9 3.6,0 7.3,0 10.9,0 0.2,0 0.5,0 0.7,0 1.1,0 1.6,0.6 1.6,1.6 0,0.2 0,0.3 0,0.5 0,17.5 0,35.1 0,52.6 0,0.2 0,0.4 0,0.7 0.9,-0.8 1.7,-1.6 2.5,-2.4 4.8,-4.5 9.6,-9 14.4,-13.5 6.3,-5.9 12.6,-11.8 18.9,-17.7 5.3,-5 10.6,-9.9 15.9,-14.9 2.2,-2.1 4.5,-4.2 6.7,-6.3 0.5,-0.4 1,-0.7 1.6,-0.7 5.6,0 11.2,0 16.7,0 0.9,0 1.5,0.3 1.7,1.1 0.2,0.6 -0.1,1 -0.5,1.4 -1.6,1.5 -3.2,3.1 -4.8,4.6 -2.9,2.7 -5.7,5.4 -8.6,8.1 -4,3.7 -7.9,7.5 -11.9,11.2 -4.1,3.8 -8.1,7.7 -12.2,11.5 -2.6,2.8 -5.3,5.4 -8.1,8 z"/>
    <path
            id="path10"
            d="m 467.95,101.775 c 0,-18.1 0,-36.1 0,-54.2 0,-0.2 0,-0.3 0,-0.5 0,-1 0.5,-1.6 1.6,-1.6 0.1,0 0.1,0 0.2,0 15.5,0 31,0 46.5,0 7.1,0 13.9,1.6 20.4,4.5 5.7,2.5 10.6,6.1 14.9,10.5 7,7.2 11.7,15.8 14,25.6 1.3,5.7 1.9,11.4 1.7,17.2 -0.2,7.8 -1.5,15.4 -4.5,22.6 -2.5,6 -6,11.4 -10.4,16.2 -6.8,7.3 -15.1,12.1 -24.8,14.5 -4.2,1 -8.4,1.5 -12.8,1.5 -15,0 -30,0 -45,0 -0.3,0 -0.5,0 -0.8,-0.1 -0.6,-0.1 -0.9,-0.4 -1,-1 0,-0.3 -0.1,-0.6 -0.1,-0.9 0.1,-18 0.1,-36.2 0.1,-54.3 z m 15.1,41.8 c 0.3,0 0.5,0 0.7,0 10.1,0 20.2,0 30.3,0 1.8,0 3.6,-0.1 5.4,-0.2 3.7,-0.3 7.3,-1.3 10.7,-2.9 4.5,-2 8.2,-5 11.4,-8.7 3,-3.4 5.4,-7.2 7.1,-11.5 1.9,-4.5 2.9,-9.2 3.2,-14 0.3,-4.4 0.2,-8.8 -0.5,-13.2 -0.8,-5.2 -2.5,-10 -5.1,-14.6 -2.9,-5 -6.6,-9.4 -11.4,-12.7 -5.7,-4 -12.1,-5.9 -19.1,-5.9 -10.8,-0.1 -21.6,0 -32.4,0 -0.2,0 -0.4,0 -0.6,0 0.3,28 0.3,55.8 0.3,83.7 z"/>
    <path
            id="path12"
            d="m 183.65,103.075 c -0.6,1.9 -1.9,3.3 -3.3,4.7 -9.3,9.3 -18.6,18.6 -27.9,27.9 -3.3,3.4 -6.9,3.3 -10.3,0 -9.6,-9.6 -19.2,-19.2 -28.8,-28.8 -3.3,-3.3 -3.3,-6.8 0,-10.1 9.6,-9.7 19.3,-19.3 28.9,-29 3.1,-3.1 6.8,-3.1 10,0 9.4,9.4 18.7,18.7 28.1,28.1 1.4,1.4 2.7,2.8 3.3,4.7 0,0.8 0,1.6 0,2.5 z"
            style="fill:#17B2E7;"/>
    <path
            id="path14"
            d="m 91.15,192.975 c -1.9,-0.6 -3.3,-1.9 -4.7,-3.3 -9.3,-9.3 -18.6,-18.6 -27.9,-27.9 -3.3,-3.3 -3.3,-6.9 0,-10.2 9.6,-9.6 19.2,-19.3 28.9,-28.9 3.2,-3.2 6.9,-3.2 10,0 9.6,9.6 19.2,19.3 28.9,28.9 3.3,3.3 3.3,6.9 0,10.2 -9.4,9.4 -18.8,18.8 -28.1,28.2 -1.3,1.3 -2.7,2.6 -4.6,3.1 -0.8,-0.1 -1.6,-0.1 -2.5,-0.1 z"
            style="fill:#17B2E7;"/>
    <path
            id="path16"
            d="m 57.45,78.675 c 0,-10.7 0.1,-21.4 -0.1,-32.1 0,-3.1 0.7,-5.5 3.1,-7.6 1.9,-1.6 3.6,-3.5 5.4,-5.3 7.1,-7.1 14.1,-14.1 21.2,-21.2 3.3,-3.3 6.9,-3.3 10.2,0 9.6,9.6 19.2,19.2 28.8,28.8 3.3,3.3 3.3,6.9 0,10.2 -11.3,11.4 -22.7,22.7 -34,34.1 -10,10 -20,20.1 -30.1,30.1 -1.9,1.9 -3.5,1.4 -4.2,-1.1 -0.2,-0.8 -0.2,-1.7 -0.2,-2.5 -0.2,-11.1 -0.1,-22.2 -0.1,-33.4 z"
            style="fill:#17B2E7;"/>
    <path
            id="path18"
            d="m 34.45,101.875 c 0,9.8 0,19.7 0,29.5 0,0.9 -0.2,1.9 -0.5,2.8 -0.7,1.7 -1.9,1.9 -3.2,0.6 -4.5,-4.5 -9,-9 -13.5,-13.6 -5.2,-5.2 -10.4,-10.4 -15.6,-15.7 -2.2,-2.2 -2.2,-5.2 0,-7.3 9.6,-9.7 19.2,-19.4 28.8,-29.1 0.6,-0.6 1.2,-1.5 2.3,-1.1 1,0.4 1.4,1.3 1.6,2.4 0.1,0.6 0.2,1.3 0.2,1.9 -0.1,9.9 -0.1,19.8 -0.1,29.6 0,0 0,0 0,0 z"
            style="fill:#17B2E7;"/>
</svg>
