<?xml version="1.0" encoding="UTF-8" standalone="no"?>
<svg
        xmlns:dc="http://purl.org/dc/elements/1.1/"
        xmlns:cc="http://creativecommons.org/ns#"
        xmlns:rdf="http://www.w3.org/1999/02/22-rdf-syntax-ns#"
        xmlns="http://www.w3.org/2000/svg"
        xmlns:sodipodi="http://sodipodi.sourceforge.net/DTD/sodipodi-0.dtd"
        xmlns:inkscape="http://www.inkscape.org/namespaces/inkscape"
        inkscape:version="1.0 (4035a4fb49, 2020-05-01)"
        sodipodi:docname="ofdb_de.svg"
        id="svg2"
        height="544.35858"
        width="714.39441"
        version="1.0">
  <metadata
          id="metadata18">
    <rdf:RDF>
      <cc:Work
              rdf:about="">
        <dc:format>image/svg+xml</dc:format>
        <dc:type
                rdf:resource="http://purl.org/dc/dcmitype/StillImage"/>
        <dc:title></dc:title>
      </cc:Work>
    </rdf:RDF>
  </metadata>
  <sodipodi:namedview
          inkscape:current-layer="svg2"
          inkscape:window-maximized="0"
          inkscape:window-y="31"
          inkscape:window-x="53"
          inkscape:cy="276.20327"
          inkscape:cx="361.64516"
          inkscape:zoom="1.53625"
          fit-margin-bottom="40"
          fit-margin-right="0"
          fit-margin-left="0"
          fit-margin-top="40"
          showgrid="false"
          id="namedview16"
          inkscape:window-height="1175"
          inkscape:window-width="1942"
          inkscape:pageshadow="2"
          inkscape:pageopacity="0"
          guidetolerance="10"
          gridtolerance="10"
          objecttolerance="10"
          borderopacity="1"
          bordercolor="#666666"
          pagecolor="#ffffff"/>
  <defs
          id="defs4"/>
  <path
          style="opacity:1;fill:#398acd;fill-opacity:1;fill-rule:nonzero;stroke:#0d2f4c;stroke-width:8.21058;stroke-linecap:butt;stroke-linejoin:miter;stroke-miterlimit:4;stroke-dasharray:none;stroke-dashoffset:0;stroke-opacity:1"
          id="path3412"
          d="M 408.64519,149.15923 A 110.30425,143.11961 30.516969 1 1 169.38472,209.9791 110.30425,143.11961 30.516969 1 1 408.64519,149.15923 Z"/>
  <path
          style="fill:#0d2f4c;fill-opacity:1;fill-rule:evenodd;stroke:#0d2f4c;stroke-width:8.21057px;stroke-linecap:butt;stroke-linejoin:miter;stroke-opacity:1"
          id="path3424"
          d="M 244.79143,294.09673 C 169.20842,263.03753 116.4527,260.58947 107.5852,322.44513 100.4879,371.95251 50.629523,377.3907 3.263056,342.85596 l 80.509515,105.45611 c 39.389729,-3.24195 70.272159,-23.60351 88.446999,-69.17014 21.79759,-54.64957 61.81839,-70.02051 125.86685,-34.01805 z"/>
  <path
          style="fill:#76b3e7;fill-opacity:1;fill-rule:evenodd;stroke:#0d2f4c;stroke-width:8.21057px;stroke-linecap:butt;stroke-linejoin:miter;stroke-opacity:1"
          id="path3426"
          d="m 152.00941,273.31864 c -21.28304,2.63642 -35.99975,14.4103 -42.30055,38.45644 l 68.63038,53.97852 c 6.81592,-12.99758 15.0219,-23.00175 24.73525,-29.76784 z"/>
  <path
          style="fill:#76b3e7;fill-opacity:1;fill-rule:evenodd;stroke:#0d2f4c;stroke-width:8.21057px;stroke-linecap:butt;stroke-linejoin:miter;stroke-opacity:1"
          id="path3428"
          d="m 80.171821,361.49347 c -20.372894,8.1485 -49.071228,1.65878 -76.908765,-18.63751 l 80.509515,105.45611 c 21.796279,-1.79393 40.987669,-8.82982 56.862489,-22.4776 z"/>
  <path
          style="opacity:1;fill:#0d2f4c;fill-opacity:1;fill-rule:nonzero;stroke:none;stroke-width:7.16499;stroke-linecap:butt;stroke-linejoin:miter;stroke-miterlimit:4;stroke-dasharray:none;stroke-dashoffset:0;stroke-opacity:1"
          id="path3451"
          d="M 393.41062,153.03192 A 96.257412,124.89386 30.516971 1 1 184.61908,206.1066 96.257412,124.89386 30.516971 1 1 393.41062,153.03192 Z"/>
  <path
          style="font-style:normal;font-variant:normal;font-weight:normal;font-stretch:normal;font-size:24.8091px;line-height:100%;font-family:Haettenschweiler;-inkscape-font-specification:Haettenschweiler;text-align:start;writing-mode:lr-tb;text-anchor:start;fill:#000000;fill-opacity:1;stroke:none;stroke-width:1px;stroke-linecap:butt;stroke-linejoin:miter;stroke-opacity:1"
          id="text3399"
          d="m 192.4636,479.70314 v -87.19069 c 0,-17.57031 12.63651,-26.35546 37.90969,-26.35562 24.92392,1.6e-4 37.38589,8.72238 37.38597,26.16667 v 87.19069 c -8e-5,7.87208 -3.47334,13.9336 -10.41987,18.18448 -6.94669,4.25088 -16.00524,6.37632 -27.17557,6.37632 -25.13348,0 -37.70022,-8.12395 -37.70022,-24.37185 z m 43.04103,1.41699 v -92.29181 c 0,-2.70788 -1.78032,-4.06186 -5.34081,-4.06193 -3.70028,7e-5 -5.55037,1.35405 -5.55028,4.06193 v 92.29181 c -9e-5,2.70803 1.85,4.06201 5.55028,4.06193 3.56049,8e-5 5.34081,-1.3539 5.34081,-4.06193 z m 98.06373,-96.25931 h -17.34279 v 36.55774 h 17.34279 v 16.43686 h -17.34279 v 64.99154 H 283.23786 V 367.38487 h 50.3305 z m 16.27315,117.98614 V 367.38487 h 41.05141 c 8.93623,1.6e-4 16.89515,2.18853 23.87677,6.56528 6.98144,4.37698 10.47217,11.0997 10.47225,20.16815 v 81.99523 c -8e-5,8.43884 -3.26396,15.00411 -9.79155,19.69582 -6.52776,4.69171 -14.64376,7.03761 -24.34809,7.03761 z m 42.20334,-24.56074 v -86.34054 c -9e-5,-4.72313 -3.07196,-7.08478 -9.21562,-7.08486 v 100.6047 c 6.14366,0 9.21553,-2.39315 9.21562,-7.1793 z m 74.47941,20.87661 -2.51333,3.68413 H 441.49556 V 367.38487 h 29.7413 v 29.09507 c 3.56048,-2.70788 9.73916,-4.06185 18.53586,-4.06193 5.37574,8e-5 10.31518,1.3068 14.8183,3.92024 4.50304,2.61361 6.75452,6.37649 6.75461,11.28849 v 78.78336 c -9e-5,5.54193 -2.68796,9.91883 -8.06361,13.13063 -5.37583,3.21179 -11.83374,4.81764 -19.37374,4.81764 -5.86452,0 -11.6592,-1.73187 -17.38402,-5.19554 z m 15.08016,-16.81466 v -67.91995 c -9e-5,-3.33765 -1.71056,-5.00652 -5.13144,-5.00667 -3.49081,1.5e-4 -5.23621,1.60601 -5.23612,4.81772 v 68.1089 c -9e-5,3.33773 1.74531,5.00659 5.23612,5.00659 3.42088,0 5.13135,-1.66886 5.13144,-5.00659 z"/>
  <path
          style="font-style:normal;font-variant:normal;font-weight:normal;font-stretch:normal;font-size:25.3886px;line-height:100%;font-family:Haettenschweiler;-inkscape-font-specification:Haettenschweiler;text-align:start;writing-mode:lr-tb;text-anchor:start;fill:#76b3e7;fill-opacity:1;stroke:none;stroke-width:1px;stroke-linecap:butt;stroke-linejoin:miter;stroke-opacity:1"
          id="text3403"
          d="m 549.93475,502.84712 h -28.51468 v -19.74313 h 28.51468 z m 79.62172,0 h -23.5794 l -2.6321,-3.68417 c -5.33746,3.46372 -11.40592,5.19561 -18.20558,5.19561 -7.96947,0 -14.75081,-1.60593 -20.34412,-4.81772 -5.59322,-3.2118 -8.38988,-7.58863 -8.38988,-13.13057 v -78.78338 c 0,-4.66014 2.21171,-8.36 6.6352,-11.09958 4.4234,-2.73934 9.779,-4.10906 16.06687,-4.10921 8.62749,1.5e-4 15.0616,1.35409 19.30223,4.06197 v -29.09504 h 31.14678 z m -31.14678,-20.49881 v -68.10893 c 0,-3.21164 -1.7913,-4.81758 -5.37391,-4.81765 -3.65576,7e-5 -5.4836,1.66895 -5.4836,5.00663 v 67.91995 c 0,3.33775 1.82784,5.00662 5.4836,5.00662 3.58261,0 5.37391,-1.66887 5.37391,-5.00662 z m 115.98474,-25.97774 h -42.0043 v 25.59985 c 0,3.71564 1.82783,5.57341 5.48359,5.57341 3.58252,0 5.37382,-1.85777 5.37399,-5.57341 v -22.10467 h 31.14672 v 22.29366 c -8e-5,14.79943 -12.24672,22.19915 -36.7401,22.19915 -24.2739,0 -36.41093,-7.71465 -36.41093,-23.14382 v -65.65282 c 0,-15.42909 12.13703,-23.14367 36.41093,-23.14382 24.49338,1.5e-4 36.74002,7.39979 36.7401,22.19916 z m -31.14672,-16.43684 v -25.12757 c -1.7e-4,-3.58952 -1.79147,-5.38436 -5.37399,-5.38443 -3.65576,7e-5 -5.48359,1.79491 -5.48359,5.38443 v 25.12757 z"/>
  <path
          style="opacity:1;fill:#d2e6f6;fill-opacity:1;fill-rule:nonzero;stroke:#0d2f4c;stroke-width:8.21058;stroke-linecap:butt;stroke-linejoin:miter;stroke-miterlimit:4;stroke-dasharray:none;stroke-dashoffset:0;stroke-opacity:1"
          id="path3410"
          d="M 468.17679,186.01233 A 110.30425,143.11961 30.516969 1 1 228.91632,246.8322 110.30425,143.11961 30.516969 1 1 468.17679,186.01233 Z"/>
  <path
          style="fill:#134066;fill-opacity:1;fill-rule:evenodd;stroke:none;stroke-width:0.1;stroke-linecap:butt;stroke-linejoin:miter;stroke-miterlimit:4;stroke-dasharray:none;stroke-opacity:1"
          id="path3414"
          d="m 333.31898,214.52675 h -80.50943 c -7.76039,37.71494 -1.2903,74.16488 24.94659,108.85783 l 62.36645,-74.83978 c -5.79905,-8.16131 -8.55747,-19.05912 -6.80361,-34.01805 z"/>
  <path
          style="opacity:1;fill:#134066;fill-opacity:1;fill-rule:nonzero;stroke:none;stroke-width:2.31777;stroke-linecap:butt;stroke-linejoin:miter;stroke-miterlimit:4;stroke-dasharray:none;stroke-dashoffset:0;stroke-opacity:1"
          id="path3416"
          d="m 366.4617,218.38707 a 9.6482228,12.518556 30.516979 1 1 -20.92792,5.31987 9.6482228,12.518556 30.516979 1 1 20.92792,-5.31987 z"/>
  <path
          style="fill:#134066;fill-opacity:1;fill-rule:evenodd;stroke:none;stroke-width:0.1;stroke-linecap:butt;stroke-linejoin:miter;stroke-miterlimit:4;stroke-dasharray:none;stroke-opacity:1"
          id="path3418"
          d="m 359.96647,243.7256 30.61633,50.17662 c 29.92688,-16.90819 42.71132,-44.87595 49.32616,-76.82411 h -60.66554 c -1.51198,11.5283 -7.93749,20.41091 -19.27695,26.64749 z"/>
  <path
          style="fill:#134066;fill-opacity:1;fill-rule:evenodd;stroke:none;stroke-width:0.1;stroke-linecap:butt;stroke-linejoin:miter;stroke-miterlimit:4;stroke-dasharray:none;stroke-opacity:1"
          id="path3420"
          d="m 346.07574,195.53332 c 10.47267,-4.01185 21.04223,-8.8955 30.04931,0.28343 L 430.554,132.31634 c -30.87939,-33.599966 -66.07261,-37.362132 -106.02296,-8.221 z"/>
</svg>
