<?xml version="1.0" encoding="UTF-8" standalone="no"?>
<svg
        xmlns="http://www.w3.org/2000/svg"
        xmlns:xlink="http://www.w3.org/1999/xlink"
        width="1258.2767"
        height="353.10703"
        viewBox="0 0 332.91905 93.426234"
        version="1.1"
        id="svg18">
    <defs
            id="defs10">
        <radialGradient
                xlink:href="#a"
                id="b"
                cx="125.255"
                cy="16.735001"
                fx="125.255"
                fy="16.735001"
                r="254"
                gradientTransform="matrix(0,0.34812104,-1.1465522,0,101.27293,-20.089175)"/>
        <linearGradient
                id="a">
            <stop
                    style="stop-color:#505050;stop-opacity:1"
                    offset="0"
                    id="stop3"/>
            <stop
                    style="stop-color:#3c3c3c;stop-opacity:1"
                    offset="1"
                    id="stop5"/>
        </linearGradient>
        <style
                id="style8"/>
    </defs>
    <path
            style="opacity:0.98000004;fill:url(#b);fill-opacity:1;stroke-width:1.22473097"
            d="M 0,0 H 332.91906 V 93.426235 H 0 Z"
            id="path12"/>
    <path
            d="m 47.41493,7.669321 c -21.838472,0 -39.7063764,17.868605 -39.7063764,39.706376 0,21.839873 17.8686044,39.707778 39.7063764,39.707778 21.839873,0 39.707777,-17.868605 39.707777,-39.707778 0,-21.837771 -17.867904,-39.706376 -39.707777,-39.706376 z m 30.810596,51.261576 c -0.429345,5.057588 -4.645753,9.479914 -8.971424,9.726454 a 427.33785,427.33785 0 0 1 -43.677644,0 c -4.32567,-0.24654 -8.541378,-4.668866 -8.971424,-9.726454 a 145.47728,145.47728 0 0 1 0,-23.110399 c 0.429346,-5.057588 4.645754,-9.479914 8.971424,-9.725054 a 426.93722,426.93722 0 0 1 43.677644,0 c 4.325671,0.246541 8.541378,4.667466 8.971424,9.725054 0.61285,7.7044 0.61285,15.407399 0,23.110399 z"
            style="fill:#fefefe;fill-opacity:1;stroke-width:0;stroke-miterlimit:4;stroke-dasharray:none"
            id="path14"/>
    <path
            d="M 70.24727,55.635515 H 24.583291 c -0.546312,0 -0.993167,0.447555 -0.993167,0.993167 v 0.993167 c 0,0.545612 0.446855,0.991766 0.993167,0.991766 h 45.663278 a 0.994568,0.994568 0 0 0 0.992467,-0.991766 V 56.628682 A 0.9952684,0.9952684 0 0 0 70.24727,55.635515 Z m -7.940435,5.956201 H 32.525126 c -0.546312,0 -0.993167,0.447556 -0.993167,0.993167 v 0.993168 c 0,0.545611 0.446855,0.991766 0.993167,0.991766 h 29.781709 a 0.994568,0.994568 0 0 0 0.992467,-0.991766 v -0.993168 c 0,-0.545611 -0.446856,-0.993167 -0.992467,-0.993167 z M 113.41152,34.849744 c -5.71526,0 -9.68303,4.404815 -9.68303,12.037074 0,7.733117 3.93415,11.902598 9.68303,11.902598 5.7832,0 9.68303,-4.303958 9.68303,-11.936917 0,-7.800355 -3.93345,-12.002755 -9.68303,-12.002755 z m 0,21.517689 c -3.89983,0 -6.58936,-2.756775 -6.58936,-9.481315 0,-6.791779 2.6223,-9.615792 6.58936,-9.615792 4.06862,0 6.59006,2.823313 6.59006,9.581472 0,6.759561 -2.55576,9.515635 -6.59006,9.515635 z m 22.82674,-16.070678 c -2.08509,0 -3.96777,1.042195 -5.2453,2.857632 l -0.23533,-2.454202 h -2.42059 v 24.779452 l 2.82402,-0.336192 v -8.43912 c 1.10943,1.377687 2.72385,2.085091 4.70739,2.085091 4.53859,0 6.89263,-3.866909 6.89263,-9.2803 0,-5.615807 -1.88337,-9.212361 -6.52282,-9.212361 z m -1.00858,16.172236 c -1.71458,0 -3.12658,-0.841181 -4.06862,-2.253187 v -8.84255 c 0.97565,-1.479945 2.4549,-2.824713 4.40481,-2.824713 2.75678,0 4.16878,2.253186 4.16878,6.960575 7e-4,4.741007 -1.5794,6.959875 -4.50497,6.959875 z m 18.92691,-16.172236 c -4.50567,0 -7.26245,3.866208 -7.26245,9.412675 0,5.615807 2.85834,9.079285 7.73312,9.079285 2.42128,0 4.3705,-0.84118 6.08577,-2.220268 l -1.24461,-1.679559 c -1.54578,1.075114 -2.85763,1.580103 -4.63945,1.580103 -2.68953,0 -4.63945,-1.68096 -4.94272,-5.952 h 11.39761 c 0.0336,-0.36911 0.0679,-0.941337 0.0679,-1.545782 7e-4,-5.346154 -2.4542,-8.674454 -7.19521,-8.674454 z m 4.40482,8.136546 h -8.67516 c 0.23534,-4.136562 1.88268,-5.88476 4.33688,-5.88476 2.92557,0 4.33758,2.052172 4.33758,5.615807 v 0.268953 z m 16.23807,-8.136546 c -2.38696,0 -4.23672,1.24321 -5.54857,3.058646 l -0.23533,-2.655216 h -2.41989 v 17.6851 h 2.82332 V 45.776684 c 1.21099,-1.950614 2.62229,-3.261062 4.70739,-3.261062 1.81613,0 2.92557,0.874099 2.92557,3.597955 v 12.271708 h 2.82401 V 45.709446 c 0,-3.36192 -1.84976,-5.412691 -5.0765,-5.412691 z m 27.19653,4.707388 c -4.16948,-1.27753 -5.14444,-2.253187 -5.14444,-4.303958 0,-2.253187 1.84976,-3.429158 4.30396,-3.429158 1.94992,0 3.56434,0.604445 5.2453,2.08369 l 1.64734,-1.848356 c -1.88268,-1.71528 -3.86691,-2.656617 -7.02712,-2.656617 -4.2024,0 -7.16159,2.488521 -7.16159,5.950598 0,3.530717 2.25319,5.244595 6.79178,6.623683 3.96707,1.210992 5.11082,2.253187 5.11082,4.64015 0,2.857632 -2.2868,4.303958 -5.11082,4.303958 -2.55506,0 -4.43843,-0.908419 -6.01853,-2.421283 l -1.71458,1.883376 c 1.91629,1.848355 4.47205,2.95919 7.76673,2.95919 5.0772,0 8.10293,-2.790394 8.10293,-6.826099 0,-4.336876 -2.99281,-5.816822 -6.79178,-6.959174 z m 21.718,8.37048 c -1.10943,1.849757 -2.58797,3.161606 -4.60583,3.161606 -2.01785,0 -2.89195,-0.941338 -2.89195,-3.463478 V 40.700185 h -2.82331 v 12.674438 c 0,3.463478 1.81544,5.414092 4.94272,5.414092 2.55506,0 4.23602,-1.110834 5.54717,-3.262463 l 0.23534,2.859033 h 2.42128 v -17.6851 h -2.82471 v 12.674438 z m 17.28027,-13.077868 c -2.18524,0 -3.8669,1.007875 -5.0765,2.655216 v -9.716649 l -2.82471,0.336192 v 24.813771 h 2.4542 l 0.30328,-1.983533 c 1.21099,1.444925 2.75747,2.386963 4.77462,2.386963 4.30396,0 6.89194,-3.698812 6.89194,-9.2803 -7e-4,-5.88336 -2.52144,-9.21166 -6.52283,-9.21166 z m -1.00857,16.239474 c -1.68096,0 -3.12729,-1.009276 -4.06863,-2.454202 v -8.708773 c 0.94134,-1.479945 2.28611,-2.824713 4.30396,-2.824713 2.58798,0 4.26964,1.883375 4.26964,6.960575 0,4.907703 -1.81544,7.027113 -4.50497,7.027113 z m 18.15296,-0.101558 c -1.5801,0 -2.21886,-0.874099 -2.21886,-2.723856 V 42.884733 h 3.96706 l 0.30328,-2.184548 h -4.27034 v -4.371897 l -2.82402,0.303974 v 4.068623 h -3.05934 v 2.184548 h 3.05934 v 10.96126 c 0,3.226743 1.7482,4.942723 4.67377,4.942723 1.47855,0 2.75678,-0.403431 3.89983,-1.178073 l -1.07581,-1.949213 c -0.8748,0.537207 -1.61372,0.772541 -2.45491,0.772541 z m 8.16877,-24.073448 c -1.17667,0 -1.98353,0.84118 -1.98353,1.950614 0,1.109433 0.80686,1.949213 1.98353,1.949213 1.21099,0 2.01785,-0.83978 2.01785,-1.949213 0,-1.109434 -0.80686,-1.950614 -2.01785,-1.950614 z m -1.37769,8.338962 h 2.82402 v 17.6851 h -2.82402 z m 14.55712,15.734486 c -1.58011,0 -2.21887,-0.874099 -2.21887,-2.723856 V 42.884733 h 3.96777 l 0.30257,-2.184548 H 277.268 v -4.371897 l -2.82401,0.303974 v 4.068623 h -3.05935 v 2.184548 h 3.05935 v 10.96126 c 0,3.226743 1.7482,4.942723 4.67377,4.942723 1.47924,0 2.75677,-0.403431 3.89982,-1.178073 l -1.07581,-1.949213 c -0.8741,0.537207 -1.61442,0.772541 -2.4549,0.772541 z m 10.62296,0 c -0.8741,0 -1.17667,-0.504988 -1.17667,-1.478544 V 33.235322 l -2.82401,0.336192 v 21.416831 c 0,2.522841 1.24321,3.80037 3.39554,3.80037 a 5.757288,5.757288 0 0 0 2.48852,-0.571526 l -0.74032,-1.983533 c -0.3362,0.133777 -0.70601,0.201015 -1.14306,0.201015 z m 11.56501,-16.137916 c -4.50567,0 -7.26245,3.866208 -7.26245,9.412675 0,5.615807 2.85763,9.079285 7.73312,9.079285 2.42058,0 4.37049,-0.84118 6.08507,-2.220268 l -1.24321,-1.679559 c -1.54718,1.075114 -2.85833,1.580103 -4.64015,1.580103 -2.68953,0 -4.63945,-1.68096 -4.94272,-5.952 h 11.39761 c 0.0336,-0.36911 0.0672,-0.941337 0.0672,-1.545782 0,-5.346154 -2.4542,-8.674454 -7.19451,-8.674454 z m 4.40411,8.136546 h -8.67445 c 0.23533,-4.136562 1.88267,-5.88476 4.33688,-5.88476 2.92557,0 4.33687,2.052172 4.33687,5.615807 v 0.268953 z m 13.31251,-0.43775 c -2.92557,-0.773241 -3.93345,-1.445625 -3.93345,-2.95919 0,-1.513564 1.34477,-2.488521 3.42916,-2.488521 1.68026,0 3.02573,0.504989 4.57221,1.648742 l 1.24391,-1.883376 c -1.68096,-1.277529 -3.4971,-2.016451 -5.91768,-2.016451 -3.59795,0 -6.25387,2.016451 -6.25387,4.773926 0,2.52144 1.51286,4.100842 5.31253,5.110819 3.4964,0.941337 4.40412,1.613021 4.40412,3.563635 0,1.647341 -1.5801,2.756774 -3.93345,2.756774 -1.98353,0 -3.59795,-0.671683 -4.97564,-1.815436 l -1.5808,1.782518 c 1.54718,1.344768 3.63157,2.320425 6.62368,2.320425 3.56434,0 6.8254,-1.71528 6.8254,-5.313235 7e-4,-3.093666 -2.08369,-4.504972 -5.81612,-5.48063 z"
            style="fill:#ffffff;fill-opacity:1;stroke-width:0;stroke-miterlimit:4;stroke-dasharray:none"
            id="path16"/>
</svg>
