<?xml version="1.0" encoding="UTF-8" standalone="no"?>
<svg
        xmlns="http://www.w3.org/2000/svg"
        height="59.570324"
        width="273.42001"
        id="svg17"
        version="1.1"
        viewBox="0 0 273.42 59.570323">
    <defs
            id="defs9">
        <linearGradient
                gradientUnits="userSpaceOnUse"
                y2="17.76"
                x2="273.42001"
                y1="17.76"
                id="linear-gradient">
            <stop
                    id="stop2"
                    stop-color="#90cea1"
                    offset="0"/>
            <stop
                    id="stop4"
                    stop-color="#3cbec9"
                    offset="0.56"/>
            <stop
                    id="stop6"
                    stop-color="#00b3e5"
                    offset="1"/>
        </linearGradient>
    </defs>
    <title
            id="title11">Asset 3
    </title>
    <g
            transform="translate(0,12)"
            id="Layer_2">
        <g
                id="Layer_1-2">
            <path
                    id="path13"
                    d="m 191.85,35.37 h 63.9 A 17.67,17.67 0 0 0 273.42,17.7 v 0 A 17.67,17.67 0 0 0 255.75,0 h -63.9 a 17.67,17.67 0 0 0 -17.67,17.7 v 0 a 17.67,17.67 0 0 0 17.67,17.67 z M 10.1,35.42 h 7.8 V 6.92 H 28 V 0 H 0 v 6.9 h 10.1 z m 28.1,0 H 46 V 8.25 h 0.1 l 8.95,27.15 h 6 L 70.3,8.25 h 0.1 V 35.4 h 7.8 V 0 H 66.45 l -8.2,23.1 h -0.1 L 50,0 H 38.2 Z M 89.14,0.12 h 11.7 a 33.56,33.56 0 0 1 8.08,1 18.52,18.52 0 0 1 6.67,3.08 15.09,15.09 0 0 1 4.53,5.52 18.5,18.5 0 0 1 1.67,8.25 16.91,16.91 0 0 1 -1.62,7.58 16.3,16.3 0 0 1 -4.38,5.5 19.24,19.24 0 0 1 -6.35,3.37 24.53,24.53 0 0 1 -7.55,1.15 H 89.14 Z m 7.8,28.2 h 4 a 21.66,21.66 0 0 0 5,-0.55 10.58,10.58 0 0 0 4.06,-1.77 8.73,8.73 0 0 0 2.68,-3.35 11.9,11.9 0 0 0 1,-5.08 9.87,9.87 0 0 0 -1,-4.52 A 9.17,9.17 0 0 0 110.05,9.87 11.61,11.61 0 0 0 106.22,8 17.06,17.06 0 0 0 101.54,7.37 h -4.6 z m 36.15,-28.2 h 13.2 a 32.87,32.87 0 0 1 4.63,0.33 12.66,12.66 0 0 1 4.17,1.3 7.94,7.94 0 0 1 3,2.72 8.34,8.34 0 0 1 1.15,4.65 7.48,7.48 0 0 1 -1.67,5 9.13,9.13 0 0 1 -4.43,2.82 V 17 a 10.28,10.28 0 0 1 3.18,1 8.51,8.51 0 0 1 2.45,1.85 7.79,7.79 0 0 1 1.57,2.62 9.16,9.16 0 0 1 0.55,3.2 8.52,8.52 0 0 1 -1.2,4.68 9.32,9.32 0 0 1 -3.1,3 13.38,13.38 0 0 1 -4.27,1.65 22.5,22.5 0 0 1 -4.73,0.5 h -14.5 z m 7.8,14.15 h 5.65 a 7.65,7.65 0 0 0 1.78,-0.2 4.78,4.78 0 0 0 1.57,-0.65 3.43,3.43 0 0 0 1.13,-1.2 3.63,3.63 0 0 0 0.42,-1.8 A 3.3,3.3 0 0 0 151,8.6 3.42,3.42 0 0 0 149.77,7.47 6.07,6.07 0 0 0 148,6.9 9.9,9.9 0 0 0 146.15,6.72 h -5.3 z m 0,14.65 h 7 a 8.27,8.27 0 0 0 1.83,-0.2 4.67,4.67 0 0 0 1.67,-0.7 3.93,3.93 0 0 0 1.23,-1.3 3.8,3.8 0 0 0 0.47,-1.95 3.16,3.16 0 0 0 -0.62,-2 4,4 0 0 0 -1.58,-1.18 8.23,8.23 0 0 0 -2,-0.55 15.12,15.12 0 0 0 -2.05,-0.15 h -5.9 z"
                    style="fill:url(#linear-gradient)"
                    class="cls-1"/>
        </g>
    </g>
</svg>
