<?xml version="1.0" encoding="UTF-8" standalone="no"?>
<svg
        xmlns="http://www.w3.org/2000/svg"
        height="118.2"
        width="288.79999"
        xml:space="preserve"
        enable-background="new 0 0 288.8 98.1"
        viewBox="0 0 288.8 118.2"
        y="0px"
        x="0px"
        id="Layer_1"
        version="1.1">
<circle
        id="circle2"
        r="49.099998"
        cy="59.099998"
        cx="49.099998"
        fill="#ffffff"/>
    <path
            id="path4"
            d="m 20,85.8 c 7.2,7.8 17.6,12.8 29.1,12.8 5.9,0 11.5,-1.3 16.5,-3.6 L 38.2,67.6 Z"
            fill="#ed2224"/>
    <path
            id="path6"
            d="M 38,51.1 17.3,71.8 14.5,69 36.3,47.2 v 0 L 61.8,21.7 C 57.8,20.3 53.5,19.6 49,19.6 27.3,19.6 9.6,37.2 9.6,59.1 c 0,8.9 2.9,17.1 7.9,23.7 L 38.2,62.1 39.6,63.5 69.2,93 c 0.6,-0.3 1.2,-0.7 1.7,-1.1 L 38.2,59.2 18.3,79.1 15.5,76.3 38.2,53.6 39.6,55 74.1,89.5 c 0.5,-0.4 1,-0.9 1.5,-1.3 L 38.4,51.1 Z"
            fill="#ed2224"/>
    <path
            id="path8"
            d="M 78.4,85.5 C 84.7,78.5 88.6,69.2 88.6,59 88.6,43.2 79.3,29.5 65.8,23.2 L 41,48.1 Z M 50.5,55.3 47.7,52.5 67.3,33 70.1,35.8 Z M 69.1,28.4 46.5,51 43.7,48.2 66.3,25.6 Z"
            fill="#ed1c24"/>
    <g
            transform="translate(0,10)"
            id="g20">
	<path
            id="path10"
            d="M 38.2,52.1 17.5,72.8 c 0.8,1.1 1.6,2.1 2.5,3 L 38.2,57.6 65.5,85 c 1.3,-0.6 2.5,-1.2 3.7,-1.9 L 39.6,53.4 Z"
            fill="#ffffff"/>
        <path
                id="path12"
                d="M 38.2,43.7 15.5,66.4 18.3,69.2 38.2,49.3 70.9,82 c 1.1,-0.7 2.2,-1.5 3.2,-2.4 L 39.6,45.1 Z"
                fill="#ffffff"/>
        <path
                id="path14"
                d="M 41,38.1 65.8,13.3 c -1.3,-0.6 -2.6,-1.1 -4,-1.6 L 36.3,37.1 v 0 L 14.5,59 17.3,61.8 38,41.1 h 0.4 l 37.2,37.2 c 1,-0.9 1.9,-1.8 2.8,-2.8 z"
                fill="#ffffff"/>

        <rect
                id="rect16"
                height="3.9000001"
                width="32"
                fill="#ffffff"
                transform="matrix(-0.7071,0.7071,-0.7071,-0.7071,116.2221,8.4015)"
                y="26.299999"
                x="40.400002"/>

        <rect
                id="rect18"
                height="27.700001"
                width="3.9000001"
                fill="#ffffff"
                transform="matrix(-0.7071,-0.7071,0.7071,-0.7071,76.3804,99.8893)"
                y="20.299999"
                x="56.900002"/>
</g>
    <g
            transform="translate(0,10)"
            id="g26">
	<g
            id="g24">
		<path
                id="path22"
                d="M 49.1,98.1 C 22,98.1 0,76.1 0,49.1 0,22 22,0 49.1,0 c 27.1,0 49.1,22 49.1,49.1 -0.1,27 -22.1,49 -49.1,49 z m 0,-93.2 C 24.7,4.9 4.9,24.7 4.9,49.1 4.9,73.5 24.7,93.2 49,93.2 73.3,93.2 93.1,73.4 93.1,49.1 93.1,24.8 73.4,4.9 49.1,4.9 Z"
                fill="#ed2224"/>
	</g>
</g>
    <g
            transform="translate(0,10)"
            id="g38">
	<path
            id="path28"
            d="M 124.8,61.7 V 36.8 h -9 V 31 h 24.5 v 5.8 h -8.9 v 24.9 z"
            fill="#010101"/>
        <path
                id="path30"
                d="m 168.8,61.7 -6,-10.9 H 158 v 10.9 h -6.5 V 31 h 14.4 c 6.4,0 10.3,4.2 10.3,9.9 0,5.4 -3.4,8.3 -6.7,9.1 l 6.9,11.7 z m 0.7,-20.8 c 0,-2.6 -2,-4.1 -4.6,-4.1 H 158 V 45 h 6.9 c 2.6,0 4.6,-1.5 4.6,-4.1 z"
                fill="#010101"/>
        <path
                id="path32"
                d="m 210.7,61.7 -1.9,-5.2 h -13.2 l -1.9,5.2 h -7.5 L 198.1,31 h 8.2 l 11.8,30.7 z m -8.5,-24.2 -4.8,13.2 h 9.6 z"
                fill="#010101"/>
        <path
                id="path34"
                d="m 247,61.7 -9.3,-12.3 -2.4,2.9 v 9.4 h -6.5 V 31 h 6.5 V 44.7 L 246.1,31 h 8.1 L 242,45.4 255,61.7 Z"
                fill="#010101"/>
        <path
                id="path36"
                d="M 273.3,61.7 V 36.8 h -9 V 31 h 24.5 v 5.8 h -8.9 v 24.9 z"
                fill="#010101"/>
</g>
</svg>
