<!--
  - Copyright 2012 - 2022 Manuel Laggner
  -
  - Licensed under the Apache License, Version 2.0 (the "License");
  - you may not use this file except in compliance with the License.
  - You may obtain a copy of the License at
  -
  -     http://www.apache.org/licenses/LICENSE-2.0
  -
  - Unless required by applicable law or agreed to in writing, software
  - distributed under the License is distributed on an "AS IS" BASIS,
  - WITHOUT WARRANTIES OR CONDITIONS OF ANY KIND, either express or implied.
  - See the License for the specific language governing permissions and
  - limitations under the License.
  -->

<svg xmlns="http://www.w3.org/2000/svg"
     viewBox="0 0 448 512"><!--! Font Awesome Pro 6.1.1 by @fontawesome - https://fontawesome.com License - https://fontawesome.com/license (Commercial License) Copyright 2022 Fonticons, Inc. -->
    <path d="M96 280C96 266.7 106.7 256 120 256H328C341.3 256 352 266.7 352 280C352 293.3 341.3 304 328 304H120C106.7 304 96 293.3 96 280zM232 352C245.3 352 256 362.7 256 376C256 389.3 245.3 400 232 400H120C106.7 400 96 389.3 96 376C96 362.7 106.7 352 120 352H232zM152 64H296V24C296 10.75 306.7 0 320 0C333.3 0 344 10.75 344 24V64H384C419.3 64 448 92.65 448 128V448C448 483.3 419.3 512 384 512H64C28.65 512 0 483.3 0 448V128C0 92.65 28.65 64 64 64H104V24C104 10.75 114.7 0 128 0C141.3 0 152 10.75 152 24V64zM48 448C48 456.8 55.16 464 64 464H384C392.8 464 400 456.8 400 448V192H48V448z"/>
</svg>
