<!--
  - Copyright 2012 - 2022 Manuel Laggner
  -
  - Licensed under the Apache License, Version 2.0 (the "License");
  - you may not use this file except in compliance with the License.
  - You may obtain a copy of the License at
  -
  -     http://www.apache.org/licenses/LICENSE-2.0
  -
  - Unless required by applicable law or agreed to in writing, software
  - distributed under the License is distributed on an "AS IS" BASIS,
  - WITHOUT WARRANTIES OR CONDITIONS OF ANY KIND, either express or implied.
  - See the License for the specific language governing permissions and
  - limitations under the License.
  -->

<svg xmlns="http://www.w3.org/2000/svg"
     viewBox="0 0 448 512"><!--! Font Awesome Pro 6.1.1 by @fontawesome - https://fontawesome.com License - https://fontawesome.com/license (Commercial License) Copyright 2022 Fonticons, Inc. -->
    <path d="M56.59 265.3L224 105.2l167.4 160.1C396.1 269.8 402 272 408 272c6.312 0 12.62-2.469 17.34-7.406c9.156-9.594 8.812-24.78-.75-33.94l-184-176c-9.312-8.875-23.88-8.875-33.19 0l-184 176C13.84 239.8 13.49 255 22.65 264.6S46.1 274.5 56.59 265.3zM240.6 246.7c-9.312-8.875-23.88-8.875-33.19 0l-184 176c-9.562 9.156-9.906 24.34-.75 33.94s24.35 9.875 33.94 .75L224 297.2l167.4 160.1C396.1 461.8 402 464 408 464c6.312 0 12.62-2.469 17.34-7.406c9.156-9.594 8.812-24.78-.75-33.94L240.6 246.7z"/>
</svg>
