<?xml version="1.0" encoding="UTF-8" standalone="no"?>
<svg width="100%" height="100%" viewBox="0 0 26 26" version="1.1" xmlns="http://www.w3.org/2000/svg"
     xml:space="preserve"
     xmlns:xlink="http://www.w3.org/1999/xlink"
     style="fill-rule:evenodd;clip-rule:evenodd;stroke-linejoin:round;stroke-miterlimit:2;">
    <defs
            id="defs9"><linearGradient
     id="linearGradient12"><stop
       id="stop8"
       offset="0"
       style="stop-color:#7e7e7e;stop-opacity:1;" /><stop
            id="stop10"
            offset="1"
            style="stop-color:#9e9e9e;stop-opacity:1;"/></linearGradient>
        <linearGradient
                gradientUnits="userSpaceOnUse"
                x1="775.3056"
                y2="589.59747"
                x2="775.45184"
                y1="615.27655"
                id="linearGradient14"
                xlink:href="#linearGradient12"/></defs>
    <g transform="matrix(1,0,0,1,-762.52,-589.606)">
        <g transform="matrix(0.323656,0,0,0.323656,670.775,493.316)">
            <g transform="matrix(3.0897,0,0,3.0897,-2072.49,-1524.2)">
                <path d="M762.52,591.031L762.52,613.878C762.52,614.665 763.157,615.303 763.944,615.303L767.553,615.303L767.553,614.809C767.553,614.58 767.644,614.361 767.806,614.199C767.967,614.037 768.187,613.946 768.416,613.946C771.149,613.946 779.595,613.946 782.328,613.946C782.557,613.946 782.776,614.037 782.938,614.199C783.1,614.361 783.191,614.58 783.191,614.809L783.191,615.303L786.8,615.303C787.586,615.303 788.224,614.665 788.224,613.878L788.224,591.031C788.224,590.244 787.586,589.606 786.8,589.606L783.191,589.606L783.191,590.1C783.191,590.328 783.1,590.548 782.938,590.71C782.776,590.872 782.557,590.963 782.328,590.963C779.595,590.963 771.149,590.963 768.416,590.963C768.187,590.963 767.967,590.872 767.806,590.71C767.644,590.548 767.553,590.328 767.553,590.1L767.553,589.606L763.944,589.606C763.157,589.606 762.52,590.244 762.52,591.031ZM783.191,604.063C783.191,603.834 783.1,603.615 782.938,603.453C782.776,603.291 782.557,603.2 782.328,603.2C779.595,603.2 771.149,603.2 768.416,603.2C768.187,603.2 767.967,603.291 767.806,603.453C767.644,603.615 767.553,603.834 767.553,604.063C767.553,606.229 767.553,609.515 767.553,611.681C767.553,611.91 767.644,612.13 767.806,612.292C767.967,612.453 768.187,612.544 768.416,612.544C771.149,612.544 779.595,612.544 782.328,612.544C782.557,612.544 782.776,612.453 782.938,612.292C783.1,612.13 783.191,611.91 783.191,611.681L783.191,604.063ZM766.332,610.996C766.332,610.84 766.205,610.713 766.049,610.713C765.54,610.713 764.479,610.713 763.971,610.713C763.815,610.713 763.688,610.84 763.688,610.996C763.688,611.336 763.688,611.903 763.688,612.243C763.688,612.4 763.815,612.527 763.971,612.527C764.479,612.527 765.54,612.527 766.049,612.527C766.205,612.527 766.332,612.4 766.332,612.243C766.332,611.903 766.332,611.336 766.332,610.996ZM787.03,610.996C787.03,610.84 786.904,610.713 786.747,610.713C786.239,610.713 785.178,610.713 784.67,610.713C784.513,610.713 784.386,610.84 784.386,610.996C784.386,611.336 784.386,611.903 784.386,612.243C784.386,612.4 784.513,612.527 784.67,612.527C785.178,612.527 786.239,612.527 786.747,612.527C786.904,612.527 787.03,612.4 787.03,612.243C787.03,611.903 787.03,611.336 787.03,610.996ZM766.332,607.37C766.332,607.213 766.205,607.086 766.049,607.086C765.54,607.086 764.479,607.086 763.971,607.086C763.815,607.086 763.688,607.213 763.688,607.37C763.688,607.71 763.688,608.277 763.688,608.617C763.688,608.773 763.815,608.9 763.971,608.9C764.479,608.9 765.54,608.9 766.049,608.9C766.205,608.9 766.332,608.773 766.332,608.617C766.332,608.277 766.332,607.71 766.332,607.37ZM787.03,607.37C787.03,607.213 786.904,607.086 786.747,607.086C786.239,607.086 785.178,607.086 784.67,607.086C784.513,607.086 784.386,607.213 784.386,607.37C784.386,607.71 784.386,608.277 784.386,608.617C784.386,608.773 784.513,608.9 784.67,608.9C785.178,608.9 786.239,608.9 786.747,608.9C786.904,608.9 787.03,608.773 787.03,608.617C787.03,608.277 787.03,607.71 787.03,607.37ZM766.332,603.743C766.332,603.587 766.205,603.46 766.049,603.46C765.54,603.46 764.479,603.46 763.971,603.46C763.815,603.46 763.688,603.587 763.688,603.743C763.688,604.083 763.688,604.65 763.688,604.99C763.688,605.147 763.815,605.274 763.971,605.274C764.479,605.274 765.54,605.274 766.049,605.274C766.205,605.274 766.332,605.147 766.332,604.99C766.332,604.65 766.332,604.083 766.332,603.743ZM787.03,603.743C787.03,603.587 786.904,603.46 786.747,603.46C786.239,603.46 785.178,603.46 784.67,603.46C784.513,603.46 784.386,603.587 784.386,603.743C784.386,604.083 784.386,604.65 784.386,604.99C784.386,605.147 784.513,605.274 784.67,605.274C785.178,605.274 786.239,605.274 786.747,605.274C786.904,605.274 787.03,605.147 787.03,604.99C787.03,604.65 787.03,604.083 787.03,603.743ZM767.553,600.846C767.553,601.075 767.644,601.294 767.806,601.456C767.967,601.618 768.187,601.709 768.416,601.709C771.149,601.709 779.595,601.709 782.328,601.709C782.557,601.709 782.776,601.618 782.938,601.456C783.1,601.294 783.191,601.075 783.191,600.846C783.191,598.68 783.191,595.394 783.191,593.228C783.191,592.999 783.1,592.779 782.938,592.617C782.776,592.455 782.557,592.365 782.328,592.365C779.595,592.365 771.149,592.365 768.416,592.365C768.187,592.365 767.967,592.455 767.806,592.617C767.644,592.779 767.553,592.999 767.553,593.228L767.553,600.846ZM766.332,600.117C766.332,599.96 766.205,599.833 766.049,599.833C765.54,599.833 764.479,599.833 763.971,599.833C763.815,599.833 763.688,599.96 763.688,600.117C763.688,600.457 763.688,601.024 763.688,601.364C763.688,601.52 763.815,601.647 763.971,601.647C764.479,601.647 765.54,601.647 766.049,601.647C766.205,601.647 766.332,601.52 766.332,601.364C766.332,601.024 766.332,600.457 766.332,600.117ZM787.03,600.117C787.03,599.96 786.904,599.833 786.747,599.833C786.239,599.833 785.178,599.833 784.67,599.833C784.513,599.833 784.386,599.96 784.386,600.117C784.386,600.457 784.386,601.024 784.386,601.364C784.386,601.52 784.513,601.647 784.67,601.647C785.178,601.647 786.239,601.647 786.747,601.647C786.904,601.647 787.03,601.52 787.03,601.364C787.03,601.024 787.03,600.457 787.03,600.117ZM766.332,596.491C766.332,596.334 766.205,596.207 766.049,596.207C765.54,596.207 764.479,596.207 763.971,596.207C763.815,596.207 763.688,596.334 763.688,596.491C763.688,596.831 763.688,597.397 763.688,597.738C763.688,597.894 763.815,598.021 763.971,598.021C764.479,598.021 765.54,598.021 766.049,598.021C766.205,598.021 766.332,597.894 766.332,597.738C766.332,597.397 766.332,596.831 766.332,596.491ZM787.03,596.491C787.03,596.334 786.904,596.207 786.747,596.207C786.239,596.207 785.178,596.207 784.67,596.207C784.513,596.207 784.386,596.334 784.386,596.491C784.386,596.831 784.386,597.397 784.386,597.738C784.386,597.894 784.513,598.021 784.67,598.021C785.178,598.021 786.239,598.021 786.747,598.021C786.904,598.021 787.03,597.894 787.03,597.738C787.03,597.397 787.03,596.831 787.03,596.491ZM766.332,592.864C766.332,592.708 766.205,592.581 766.049,592.581C765.54,592.581 764.479,592.581 763.971,592.581C763.815,592.581 763.688,592.708 763.688,592.864C763.688,593.204 763.688,593.771 763.688,594.111C763.688,594.268 763.815,594.395 763.971,594.395C764.479,594.395 765.54,594.395 766.049,594.395C766.205,594.395 766.332,594.268 766.332,594.111C766.332,593.771 766.332,593.204 766.332,592.864ZM787.03,592.864C787.03,592.708 786.904,592.581 786.747,592.581C786.239,592.581 785.178,592.581 784.67,592.581C784.513,592.581 784.386,592.708 784.386,592.864C784.386,593.204 784.386,593.771 784.386,594.111C784.386,594.268 784.513,594.395 784.67,594.395C785.178,594.395 786.239,594.395 786.747,594.395C786.904,594.395 787.03,594.268 787.03,594.111C787.03,593.771 787.03,593.204 787.03,592.864Z"
                      style="fill:url(#linearGradient14);fill-opacity:1"/>
            </g>
        </g>
    </g>
</svg>
