<?xml version="1.0" encoding="UTF-8" standalone="no"?>
<svg
        xmlns:dc="http://purl.org/dc/elements/1.1/"
        xmlns:cc="http://creativecommons.org/ns#"
        xmlns:rdf="http://www.w3.org/1999/02/22-rdf-syntax-ns#"
        xmlns="http://www.w3.org/2000/svg"
        xmlns:xlink="http://www.w3.org/1999/xlink"
        xmlns:sodipodi="http://sodipodi.sourceforge.net/DTD/sodipodi-0.dtd"
        xmlns:inkscape="http://www.inkscape.org/namespaces/inkscape"
        inkscape:version="1.0 (4035a4fb49, 2020-05-01)"
        sodipodi:docname="icn_settings.svg"
        id="svg5"
        style="clip-rule:evenodd;fill-rule:evenodd;stroke-linejoin:round;stroke-miterlimit:2"
        xml:space="preserve"
        version="1.1"
        viewBox="0 0 22.396282 22.172729"
        height="100%"
        width="100%"><metadata
   id="metadata11"><rdf:RDF><cc:Work
       rdf:about=""><dc:format>image/svg+xml</dc:format><dc:type
        rdf:resource="http://purl.org/dc/dcmitype/StillImage"/><dc:title></dc:title></cc:Work></rdf:RDF></metadata>
    <defs
            id="defs9"><linearGradient
     id="linearGradient12"
     inkscape:collect="always"><stop
       id="stop8"
       offset="0"
       style="stop-color:#7e7e7e;stop-opacity:1;" /><stop
            id="stop10"
            offset="1"
            style="stop-color:#9e9e9e;stop-opacity:1;"/></linearGradient>
        <linearGradient
                gradientUnits="userSpaceOnUse"
                y2="21.163984"
                x2="33.707203"
                y1="39.961273"
                x1="33.672661"
                id="linearGradient14"
                xlink:href="#linearGradient12"
                inkscape:collect="always"/></defs>
    <sodipodi:namedview
            inkscape:current-layer="svg5"
            inkscape:window-maximized="0"
            inkscape:window-y="31"
            inkscape:window-x="53"
            inkscape:cy="11.086751"
            inkscape:cx="4.2162375"
            inkscape:zoom="20.16"
            fit-margin-bottom="2"
            fit-margin-right="2"
            fit-margin-left="2"
            fit-margin-top="2"
            showgrid="false"
            id="namedview7"
            inkscape:window-height="1033"
            inkscape:window-width="1636"
            inkscape:pageshadow="2"
            inkscape:pageopacity="0"
            guidetolerance="10"
            gridtolerance="10"
            objecttolerance="10"
            borderopacity="1"
            bordercolor="#666666"
            pagecolor="#ffffff"
            inkscape:document-rotation="0"
            lock-margins="true"/>
    <g
            transform="matrix(0.967767,0,0,0.967767,-21.268022,-18.49537)"
            id="icn_Settings">
        <path
                id="path2"
                style="fill:url(#linearGradient14);fill-opacity:1"
                d="m 32.536,30.567 c 0,-0.551 0.454,-0.998 1.012,-0.998 0.558,0 1.011,0.447 1.011,0.998 0,0.552 -0.453,0.999 -1.011,0.999 -0.558,0 -1.012,-0.447 -1.012,-0.999 z m 1.012,-2.597 c -1.452,0 -2.629,1.163 -2.629,2.597 0,1.435 1.177,2.597 2.629,2.597 1.451,0 2.629,-1.162 2.629,-2.597 0,-1.434 -1.178,-2.597 -2.629,-2.597 z m -6.811,4.507 c 0.153,0.539 0.372,1.051 0.647,1.526 l -1.214,1.311 c -0.347,0.344 -0.347,0.899 0,1.242 l 1.315,1.299 c 0.348,0.344 0.91,0.344 1.258,0 l 1.326,-1.199 c 0.482,0.272 0.999,0.488 1.545,0.639 l 0.114,1.782 c 0,0.488 0.396,0.879 0.889,0.879 h 1.861 c 0.493,0 0.89,-0.391 0.89,-0.879 l 0.113,-1.782 c 0.546,-0.151 1.064,-0.367 1.545,-0.639 l 1.326,1.199 c 0.348,0.344 0.91,0.344 1.258,0 l 1.315,-1.299 c 0.347,-0.343 0.347,-0.898 0,-1.242 l -1.214,-1.311 c 0.275,-0.475 0.494,-0.987 0.647,-1.526 l 1.804,-0.112 c 0.493,0 0.89,-0.391 0.89,-0.879 v -1.837 c 0,-0.488 -0.397,-0.88 -0.89,-0.88 l -1.804,-0.111 c -0.153,-0.54 -0.372,-1.051 -0.647,-1.527 l 1.214,-1.31 c 0.347,-0.344 0.347,-0.899 0,-1.243 L 39.61,23.28 c -0.348,-0.344 -0.91,-0.344 -1.258,0 l -1.326,1.198 c -0.481,-0.271 -0.999,-0.487 -1.545,-0.639 l -0.113,-1.782 c 0,-0.487 -0.397,-0.879 -0.89,-0.879 h -1.861 c -0.493,0 -0.889,0.392 -0.889,0.879 l -0.114,1.782 c -0.546,0.152 -1.063,0.368 -1.545,0.639 L 28.743,23.28 c -0.348,-0.344 -0.91,-0.344 -1.258,0 l -1.315,1.298 c -0.347,0.344 -0.347,0.899 0,1.243 l 1.214,1.31 c -0.275,0.476 -0.494,0.987 -0.647,1.527 l -1.804,0.111 c -0.493,0 -0.89,0.392 -0.89,0.88 v 1.837 c 0,0.488 0.397,0.879 0.89,0.879 z m 6.811,-6.105 c 2.345,0 4.246,1.878 4.246,4.195 0,2.318 -1.901,4.195 -4.246,4.195 -2.346,0 -4.247,-1.877 -4.247,-4.195 0,-2.317 1.901,-4.195 4.247,-4.195 z"/>
    </g>
</svg>
