<?xml version="1.0" encoding="UTF-8" standalone="no"?>
<svg width="100%" height="100%" viewBox="0 0 29 21" version="1.1" xmlns="http://www.w3.org/2000/svg"
     xmlns:xlink="http://www.w3.org/1999/xlink" xml:space="preserve"
     style="fill-rule:evenodd;clip-rule:evenodd;stroke-linejoin:round;stroke-miterlimit:2;">
        <defs
                id="defs9"><linearGradient
     id="linearGradient12"><stop
       id="stop8"
       offset="0"
       style="stop-color:#7e7e7e;stop-opacity:1;" /><stop
                id="stop10"
                offset="1"
                style="stop-color:#9e9e9e;stop-opacity:1;"/></linearGradient>
            <linearGradient
                    gradientUnits="userSpaceOnUse"
                    x1="777.57172"
                    y1="714.30603"
                    x2="777.33673"
                    y2="693.91412"
                    id="linearGradient14"
                    xlink:href="#linearGradient12"/></defs>
    <g transform="matrix(1,0,0,1,-763.336,-693.871)">
        <g transform="matrix(0.0709754,0,0,0.0779523,713.628,676.61)">
            <g transform="matrix(14.0894,0,0,12.8284,-10054.6,-8679.79)">
                <path d="M776.256,711.202L776.256,711.934C776.256,711.934 770.596,713.47 770.415,713.65C770.235,713.831 770.134,714.075 770.134,714.331L777.561,712.896L784.885,714.331C784.885,714.075 784.784,713.831 784.603,713.65C784.423,713.47 778.763,711.934 778.763,711.934L778.763,711.202L790.098,711.202C790.973,711.202 791.683,710.493 791.683,709.618L791.683,695.455C791.683,694.58 790.973,693.871 790.098,693.871L764.92,693.871C764.045,693.871 763.336,694.58 763.336,695.455L763.336,709.618C763.336,710.493 764.045,711.202 764.92,711.202L776.256,711.202ZM789.607,709.731C789.707,709.731 789.802,709.692 789.872,709.624C789.942,709.555 789.981,709.463 789.981,709.366C789.981,707.372 789.981,697.809 789.981,695.815C789.981,695.719 789.942,695.626 789.872,695.557C789.802,695.489 789.707,695.451 789.607,695.451C786.738,695.451 768.261,695.451 765.392,695.451C765.293,695.451 765.198,695.489 765.128,695.557C765.058,695.626 765.018,695.719 765.018,695.815C765.018,697.809 765.018,707.372 765.018,709.366C765.018,709.463 765.058,709.555 765.128,709.624C765.198,709.692 765.293,709.731 765.392,709.731C768.261,709.731 786.738,709.731 789.607,709.731ZM773.639,698.438C771.663,698.438 771.26,698.425 770.962,698.425C770.56,698.438 770.399,698.715 770.399,699.044C770.399,699.435 770.56,699.687 770.939,699.687C771.904,699.687 772.49,699.687 772.938,699.675C772.95,700.419 772.961,700.974 772.961,701.706L772.938,706.35C772.927,706.868 773.156,707.044 773.536,707.044C773.984,707.044 774.225,706.805 774.225,706.3C774.19,702.741 774.179,701.555 774.179,700.306L774.179,699.675L776.086,699.675C776.534,699.675 776.695,699.435 776.695,698.993C776.695,698.602 776.5,698.413 776.121,698.413C775.615,698.413 774.041,698.438 773.639,698.438ZM777.58,699.649C778.97,703.423 779.487,704.634 780.073,706.3C780.246,706.742 780.384,707.032 780.866,707.032C781.291,707.032 781.521,706.817 781.671,706.439C782.015,705.543 782.337,704.697 782.636,703.915C783.095,702.741 783.176,702.438 783.279,702.173C783.739,700.962 784.026,700.205 784.221,699.637C784.302,699.41 784.394,699.195 784.394,699.018C784.394,698.64 783.992,698.387 783.693,698.387C783.406,698.387 783.199,698.539 783.095,698.829L781.28,704.091C781.165,704.407 781.039,704.836 780.912,705.139L779.166,700.116C779.005,699.624 778.856,699.195 778.729,698.816C778.626,698.514 778.465,698.375 778.155,698.375C777.821,698.375 777.419,698.627 777.419,699.031C777.419,699.208 777.511,699.422 777.58,699.649Z"
                      style="fill:url(#linearGradient14);fill-opacity:1"/>
            </g>
        </g>
    </g>
</svg>
