<?xml version="1.0" encoding="UTF-8" standalone="no"?>
<svg
        xmlns:dc="http://purl.org/dc/elements/1.1/"
        xmlns:cc="http://creativecommons.org/ns#"
        xmlns:rdf="http://www.w3.org/1999/02/22-rdf-syntax-ns#"
        xmlns="http://www.w3.org/2000/svg"
        xmlns:xlink="http://www.w3.org/1999/xlink"
        xmlns:sodipodi="http://sodipodi.sourceforge.net/DTD/sodipodi-0.dtd"
        xmlns:inkscape="http://www.inkscape.org/namespaces/inkscape"
        inkscape:version="1.0 (4035a4fb49, 2020-05-01)"
        sodipodi:docname="icn_tools_hover.svg"
        id="svg5"
        style="clip-rule:evenodd;fill-rule:evenodd;stroke-linejoin:round;stroke-miterlimit:2"
        xml:space="preserve"
        version="1.1"
        viewBox="0 0 22.534674 22.536884"
        height="100%"
        width="100%"><metadata
   id="metadata11"><rdf:RDF><cc:Work
       rdf:about=""><dc:format>image/svg+xml</dc:format><dc:type
        rdf:resource="http://purl.org/dc/dcmitype/StillImage"/><dc:title></dc:title></cc:Work></rdf:RDF></metadata>
    <defs
            id="defs9"><linearGradient
     id="linearGradient12"
     inkscape:collect="always"><stop
       id="stop8"
       offset="0"
       style="stop-color:#ff7413;stop-opacity:1;" /><stop
            id="stop10"
            offset="1"
            style="stop-color:#ffa100;stop-opacity:1;"/></linearGradient>
        <linearGradient
                gradientUnits="userSpaceOnUse"
                y2="20.97304"
                x2="33.65715"
                y1="40.185246"
                x1="33.655525"
                id="linearGradient14"
                xlink:href="#linearGradient12"
                inkscape:collect="always"/></defs>
    <sodipodi:namedview
            inkscape:current-layer="svg5"
            inkscape:window-maximized="0"
            inkscape:window-y="86"
            inkscape:window-x="204"
            inkscape:cy="11.268201"
            inkscape:cx="-12.24483"
            inkscape:zoom="20.16"
            fit-margin-bottom="2"
            fit-margin-right="2"
            fit-margin-left="2"
            fit-margin-top="2"
            showgrid="false"
            id="namedview7"
            inkscape:window-height="1229"
            inkscape:window-width="1793"
            inkscape:pageshadow="2"
            inkscape:pageopacity="0"
            guidetolerance="10"
            gridtolerance="10"
            objecttolerance="10"
            borderopacity="1"
            bordercolor="#666666"
            pagecolor="#ffffff"
            inkscape:document-rotation="0"
            lock-margins="true"/>
    <g
            transform="matrix(0.967767,0,0,0.967767,-21.097695,-18.309558)"
            id="icn_Tools_hv">
        <path
                id="path2"
                style="fill:url(#linearGradient14);fill-opacity:1"
                d="m 23.867,37.347 c 0,1.544 1.249,2.793 2.793,2.793 0.77,0 1.488,-0.291 1.995,-0.798 l 5.091,-5.096 1.364,1.365 c -0.183,0.67 -0.007,1.42 0.523,1.955 l 1.979,1.979 c 0.79,0.787 2.055,0.795 2.833,0.016 0.778,-0.778 0.77,-2.042 -0.016,-2.833 L 38.45,34.749 c -0.534,-0.531 -1.285,-0.706 -1.955,-0.523 l -1.364,-1.361 0.877,-0.877 c 1.867,0.47 3.926,-0.021 5.383,-1.445 1.001,-0.982 1.552,-2.227 1.628,-3.516 V 26.96 c 0,-0.436 -0.359,-0.787 -0.802,-0.787 -0.22,0 -0.419,0.088 -0.567,0.228 l -0.235,0.231 -0.806,0.79 c -0.507,0.495 -1.229,0.786 -2.007,0.786 -0.774,0 -1.457,-0.339 -1.963,-0.838 -0.499,-0.506 -0.842,-1.193 -0.842,-1.967 0,-0.778 0.291,-1.5 0.786,-2.007 l 0.79,-0.807 0.231,-0.234 c 0.14,-0.148 0.228,-0.348 0.228,-0.567 0,-0.443 -0.351,-0.802 -0.787,-0.802 h -0.067 c -1.289,0.075 -2.534,0.626 -3.515,1.628 -1.425,1.456 -1.912,3.516 -1.441,5.379 l -0.881,0.882 -3.683,-3.687 v -1.01 l -2.394,-1.197 -1.197,1.197 1.197,2.394 h 1.005 l 3.687,3.684 -5.091,5.095 c -0.507,0.507 -0.798,1.226 -0.798,1.996 z m 1.995,-0.2 c 0,-0.55 0.447,-0.997 0.997,-0.997 0.551,0 0.998,0.447 0.998,0.997 0,0.551 -0.447,0.998 -0.998,0.998 -0.55,0 -0.997,-0.447 -0.997,-0.998 z"/>
    </g>
</svg>
