<?xml version="1.0" encoding="UTF-8" standalone="no"?>
<svg
        xmlns:serif="http://www.serif.com/"
        xmlns:dc="http://purl.org/dc/elements/1.1/"
        xmlns:cc="http://creativecommons.org/ns#"
        xmlns:rdf="http://www.w3.org/1999/02/22-rdf-syntax-ns#"
        xmlns="http://www.w3.org/2000/svg"
        xmlns:xlink="http://www.w3.org/1999/xlink"
        xmlns:sodipodi="http://sodipodi.sourceforge.net/DTD/sodipodi-0.dtd"
        xmlns:inkscape="http://www.inkscape.org/namespaces/inkscape"
        width="34.97271"
        height="31.325043"
        viewBox="0 0 34.97271 31.325043"
        version="1.1"
        xml:space="preserve"
        style="clip-rule:evenodd;fill-rule:evenodd;stroke-linejoin:round;stroke-miterlimit:2"
        id="svg5"
        sodipodi:docname="icn_add_collection.svg"
        inkscape:version="1.0 (4035a4fb49, 2020-05-01)"><metadata
   id="metadata11"><rdf:RDF><cc:Work
       rdf:about=""><dc:format>image/svg+xml</dc:format><dc:type
        rdf:resource="http://purl.org/dc/dcmitype/StillImage"/><dc:title></dc:title></cc:Work></rdf:RDF></metadata>
    <defs
            id="defs9"><linearGradient
     inkscape:collect="always"
     id="linearGradient12"><stop
       style="stop-color:#00ace7;stop-opacity:1;"
       offset="0"
       id="stop8" /><stop
            style="stop-color:#27cafd;stop-opacity:1;"
            offset="1"
            id="stop10"/></linearGradient>
        <linearGradient
                inkscape:collect="always"
                xlink:href="#linearGradient12"
                id="linearGradient14"
                x1="32.857384"
                y1="40.947227"
                x2="32.882149"
                y2="20.018791"
                gradientUnits="userSpaceOnUse"/></defs>
    <sodipodi:namedview
            inkscape:document-rotation="0"
            pagecolor="#ffffff"
            bordercolor="#666666"
            borderopacity="1"
            objecttolerance="10"
            gridtolerance="10"
            guidetolerance="10"
            inkscape:pageopacity="0"
            inkscape:pageshadow="2"
            inkscape:window-width="1701"
            inkscape:window-height="940"
            id="namedview7"
            showgrid="false"
            fit-margin-top="5.5"
            fit-margin-left="1"
            fit-margin-right="1"
            fit-margin-bottom="5.5"
            inkscape:zoom="20.16"
            inkscape:cx="-5.8067498"
            inkscape:cy="15.662898"
            inkscape:window-x="53"
            inkscape:window-y="31"
            inkscape:window-maximized="0"
            inkscape:current-layer="svg5"/>
    <g
            id="icn_Add-Collection_hv"
            serif:id="icn_Add Collection_hv"
            transform="matrix(0.967767,0,0,0.967767,-14.860772,-13.854372)">
        <path
                d="M 39.741,25.503 H 36.864 V 22.831 H 27.347 V 38.17 h 9.517 v -2.672 h 2.877 v 4.088 0 c 0,0.778 -0.648,1.415 -1.439,1.415 H 25.914 25.909 c -0.791,0 -1.438,-0.637 -1.438,-1.415 V 21.415 c 0,-0.779 0.647,-1.416 1.438,-1.416 h 12.393 c 0.791,0 1.439,0.637 1.439,1.416 z M 22.128,40.139 c -0.705,0 -1.283,-0.569 -1.283,-1.264 v -16.75 c 0,-0.694 0.578,-1.263 1.283,-1.263 h 1.317 V 40.139 Z M 19.904,22.214 v 16.572 h -0.72 v 0 h -0.081 c -0.64,0 -1.164,-0.515 -1.164,-1.146 V 23.36 c 0,-0.63 0.524,-1.146 1.164,-1.146 z m 21.641,6.754 v -2.652 c 0,-0.847 0.697,-1.533 1.557,-1.533 0.86,0 1.557,0.686 1.557,1.533 v 2.652 h 2.694 c 0.86,0 1.557,0.686 1.557,1.532 0,0.847 -0.697,1.533 -1.557,1.533 h -2.694 v 2.652 c 0,0.846 -0.697,1.533 -1.557,1.533 -0.86,0 -1.557,-0.687 -1.557,-1.533 v -2.652 h -2.693 c -0.86,0 -1.557,-0.686 -1.557,-1.533 0,-0.846 0.697,-1.532 1.557,-1.532 z"
                style="fill:url(#linearGradient14);fill-opacity:1"
                id="path2"/>
    </g>
</svg>
