<?xml version="1.0" encoding="UTF-8" standalone="no"?>
<svg
        xmlns="http://www.w3.org/2000/svg"
        xmlns:xlink="http://www.w3.org/1999/xlink"
        id="svg5"
        style="clip-rule:evenodd;fill-rule:evenodd;stroke-linejoin:round;stroke-miterlimit:2"
        xml:space="preserve"
        version="1.1"
        viewBox="0 0 31.611128 31.012157"
        height="31.012157"
        width="31.611128">
    <defs
            id="defs9"><linearGradient
   id="linearGradient20"><stop
     id="stop16"
     offset="0"
     style="stop-color:#00ace7;stop-opacity:1;" /><stop
            id="stop18"
            offset="1"
            style="stop-color:#27cafd;stop-opacity:1;"/></linearGradient>
        <linearGradient
                gradientUnits="userSpaceOnUse"
                y2="19.696302"
                x2="33.616657"
                y1="41.445858"
                x1="33.474358"
                id="linearGradient22"
                xlink:href="#linearGradient20"/></defs>
    <g
            transform="matrix(1.2277573,0,0,1.1980472,-25.625784,-21.112312)"
            id="icn_Refresh_hv">
        <path
                style="fill:url(#linearGradient22);fill-opacity:1"
                id="path2"
                d="m 35.334,28.475 5.28,-3.386 c 0.609,-0.601 0.609,-1.207 0,-1.809 l -5.28,-3.386 c -0.165,-0.117 -0.37,-0.185 -0.591,-0.185 -0.554,0 -0.998,0.425 -0.998,0.95 v 1.764 c -5.311,0.014 -9.615,4.261 -9.615,9.499 0,5.247 4.317,9.499 9.638,9.499 4.941,0 9.012,-3.659 9.575,-8.373 0.004,-0.013 0.018,-0.158 0.018,-0.221 0,-0.498 -0.412,-0.905 -0.92,-0.905 L 40,32 c -0.356,0 -0.504,0.621 -0.593,1.138 -0.506,2.766 -2.844,4.852 -5.652,4.852 -3.178,0 -5.751,-2.679 -5.751,-5.99 0,-3.3 2.557,-5.973 5.725,-5.989 l 0.016,1.7 c 0,0.524 0.444,0.949 0.998,0.949 0.221,0 0.426,-0.067 0.591,-0.185 z"/>
    </g>
</svg>
