<?xml version="1.0" encoding="UTF-8" standalone="no"?>
<svg
        xmlns:dc="http://purl.org/dc/elements/1.1/"
        xmlns:cc="http://creativecommons.org/ns#"
        xmlns:rdf="http://www.w3.org/1999/02/22-rdf-syntax-ns#"
        xmlns="http://www.w3.org/2000/svg"
        xmlns:xlink="http://www.w3.org/1999/xlink"
        xmlns:sodipodi="http://sodipodi.sourceforge.net/DTD/sodipodi-0.dtd"
        xmlns:inkscape="http://www.inkscape.org/namespaces/inkscape"
        width="31.611128"
        height="31.012157"
        viewBox="0 0 31.611128 31.012157"
        version="1.1"
        xml:space="preserve"
        style="clip-rule:evenodd;fill-rule:evenodd;stroke-linejoin:round;stroke-miterlimit:2"
        id="svg5"
        sodipodi:docname="icn_refresh_hover.svg"
        inkscape:version="1.0 (4035a4fb49, 2020-05-01)"><metadata
   id="metadata11"><rdf:RDF><cc:Work
       rdf:about=""><dc:format>image/svg+xml</dc:format><dc:type
        rdf:resource="http://purl.org/dc/dcmitype/StillImage"/><dc:title/></cc:Work></rdf:RDF></metadata>
    <defs
            id="defs9"><linearGradient
     inkscape:collect="always"
     id="linearGradient20"><stop
       style="stop-color:#00ace7;stop-opacity:1;"
       offset="0"
       id="stop16" /><stop
            style="stop-color:#27cafd;stop-opacity:1;"
            offset="1"
            id="stop18"/></linearGradient>
        <linearGradient
                inkscape:collect="always"
                xlink:href="#linearGradient20"
                id="linearGradient22"
                x1="33.474358"
                y1="41.445858"
                x2="33.616657"
                y2="19.696302"
                gradientUnits="userSpaceOnUse"/></defs>
    <sodipodi:namedview
            lock-margins="false"
            inkscape:document-rotation="0"
            pagecolor="#ffffff"
            bordercolor="#666666"
            borderopacity="1"
            objecttolerance="10"
            gridtolerance="10"
            guidetolerance="10"
            inkscape:pageopacity="0"
            inkscape:pageshadow="2"
            inkscape:window-width="1621"
            inkscape:window-height="1143"
            id="namedview7"
            showgrid="false"
            fit-margin-top="5"
            fit-margin-left="6.5"
            fit-margin-right="6.5"
            fit-margin-bottom="5"
            inkscape:zoom="20.16"
            inkscape:cx="10.991447"
            inkscape:cy="14.990127"
            inkscape:window-x="53"
            inkscape:window-y="31"
            inkscape:window-maximized="0"
            inkscape:current-layer="svg5"/>
    <g
            id="icn_Refresh_hv"
            transform="matrix(1.2797566,0,0,1.1519897,-26.880528,-20.204565)">
        <path
                d="m 35.334,28.475 5.28,-3.386 c 0.609,-0.601 0.609,-1.207 0,-1.809 l -5.28,-3.386 c -0.165,-0.117 -0.37,-0.185 -0.591,-0.185 -0.554,0 -0.998,0.425 -0.998,0.95 v 1.764 c -5.311,0.014 -9.615,4.261 -9.615,9.499 0,5.247 4.317,9.499 9.638,9.499 4.941,0 9.012,-3.659 9.575,-8.373 0.004,-0.013 0.018,-0.158 0.018,-0.221 0,-0.498 -0.412,-0.905 -0.92,-0.905 L 40,32 c -0.356,0 -0.504,0.621 -0.593,1.138 -0.506,2.766 -2.844,4.852 -5.652,4.852 -3.178,0 -5.751,-2.679 -5.751,-5.99 0,-3.3 2.557,-5.973 5.725,-5.989 l 0.016,1.7 c 0,0.524 0.444,0.949 0.998,0.949 0.221,0 0.426,-0.067 0.591,-0.185 z"
                id="path2"
                style="fill:url(#linearGradient22);fill-opacity:1"/>
    </g>
</svg>
