<?xml version="1.0" encoding="UTF-8" standalone="no"?>
<svg
        xmlns:dc="http://purl.org/dc/elements/1.1/"
        xmlns:cc="http://creativecommons.org/ns#"
        xmlns:rdf="http://www.w3.org/1999/02/22-rdf-syntax-ns#"
        xmlns="http://www.w3.org/2000/svg"
        xmlns:xlink="http://www.w3.org/1999/xlink"
        xmlns:sodipodi="http://sodipodi.sourceforge.net/DTD/sodipodi-0.dtd"
        xmlns:inkscape="http://www.inkscape.org/namespaces/inkscape"
        inkscape:version="1.0 (4035a4fb49, 2020-05-01)"
        sodipodi:docname="icn_rename.svg"
        id="svg3"
        style="clip-rule:evenodd;fill-rule:evenodd;stroke-linejoin:round;stroke-miterlimit:2"
        xml:space="preserve"
        version="1.1"
        viewBox="0 0 34.026001 30.999499"
        height="30.9995"
        width="34.026001"><metadata
   id="metadata9"><rdf:RDF><cc:Work
       rdf:about=""><dc:format>image/svg+xml</dc:format><dc:type
        rdf:resource="http://purl.org/dc/dcmitype/StillImage"/><dc:title></dc:title></cc:Work></rdf:RDF></metadata>
    <defs
            id="defs7"><linearGradient
     inkscape:collect="always"
     id="linearGradient11"><stop
       style="stop-color:#ff7413;stop-opacity:1;"
       offset="0"
       id="stop7" /><stop
            style="stop-color:#ff8f00;stop-opacity:1;"
            offset="1"
            id="stop9"/></linearGradient>
        <linearGradient
                gradientTransform="translate(1.5)"
                inkscape:collect="always"
                xlink:href="#linearGradient11"
                id="linearGradient13"
                x1="14.810931"
                y1="27.489853"
                x2="14.783938"
                y2="3.5280848"
                gradientUnits="userSpaceOnUse"/></defs>
    <sodipodi:namedview
            lock-margins="false"
            inkscape:current-layer="svg3"
            inkscape:window-maximized="0"
            inkscape:window-y="31"
            inkscape:window-x="53"
            inkscape:cy="15.49975"
            inkscape:cx="8.4798803"
            inkscape:zoom="20.16"
            fit-margin-bottom="3.5"
            fit-margin-right="1"
            fit-margin-left="1"
            fit-margin-top="3.5"
            showgrid="false"
            id="namedview5"
            inkscape:window-height="1130"
            inkscape:window-width="1956"
            inkscape:pageshadow="2"
            inkscape:pageopacity="0"
            guidetolerance="10"
            gridtolerance="10"
            objecttolerance="10"
            borderopacity="1"
            bordercolor="#666666"
            pagecolor="#ffffff"
            inkscape:document-rotation="0"/>
    <path
            style="fill:url(#linearGradient13);fill-opacity:1;fill-rule:nonzero"
            d="m 23.531,5.51875 1.719,-1.688 c 0.45,-0.441 1.186,-0.441 1.636,0 0.45,0.442 0.45,1.165 0,1.607 l -2.143,2.105 v 0.693 h 5.384 c 0.007,0 0.014,0 0.021,0 0.068,0 0.134,0.005 0.199,0.014 0.658,0.094 1.165,0.643 1.178,1.312 l 0.001,0.027 v 11.768 10e-4 c 0,0.747 -0.617,1.353 -1.378,1.353 h -5.405 v 0.746 l 2.143,2.105 c 0.45,0.442 0.45,1.165 0,1.607 -0.45,0.441 -1.186,0.441 -1.636,0 l -1.719,-1.688 -1.718,1.688 c -0.45,0.441 -1.186,0.441 -1.636,0 -0.45,-0.442 -0.45,-1.165 0,-1.607 l 2.231,-2.191 v -15.742 l -2.231,-2.191 c -0.45,-0.442 -0.45,-1.165 0,-1.607 0.45,-0.441 1.186,-0.441 1.636,0 z M 2.5,9.58875 c 0,-0.747 0.617,-1.353 1.378,-1.353 h 13.623 c 0.761,0 1.377,0.606 1.377,1.353 0,0.747 -0.616,1.353 -1.377,1.353 H 5.255 v 9.064 h 12.246 c 0.761,0 1.377,0.605 1.377,1.352 0,0.747 -0.616,1.353 -1.377,1.353 H 3.878 c -0.761,0 -1.378,-0.606 -1.378,-1.353 z m 26.271,10.417 v -9.064 h -4.028 v 9.064 z"
            id="icn_Rename_hv"/>
</svg>
