<?xml version="1.0" encoding="UTF-8" standalone="no"?>
<svg
        xmlns:dc="http://purl.org/dc/elements/1.1/"
        xmlns:cc="http://creativecommons.org/ns#"
        xmlns:rdf="http://www.w3.org/1999/02/22-rdf-syntax-ns#"
        xmlns="http://www.w3.org/2000/svg"
        xmlns:xlink="http://www.w3.org/1999/xlink"
        xmlns:sodipodi="http://sodipodi.sourceforge.net/DTD/sodipodi-0.dtd"
        xmlns:inkscape="http://www.inkscape.org/namespaces/inkscape"
        inkscape:version="1.0 (4035a4fb49, 2020-05-01)"
        sodipodi:docname="icn_edit.svg"
        id="svg5"
        style="clip-rule:evenodd;fill-rule:evenodd;stroke-linejoin:round;stroke-miterlimit:2"
        xml:space="preserve"
        version="1.1"
        viewBox="0 0 31.328339 31.081535"
        height="31.081535"
        width="31.328339"><metadata
   id="metadata11"><rdf:RDF><cc:Work
       rdf:about=""><dc:format>image/svg+xml</dc:format><dc:type
        rdf:resource="http://purl.org/dc/dcmitype/StillImage"/><dc:title></dc:title></cc:Work></rdf:RDF></metadata>
    <defs
            id="defs9"><linearGradient
     id="linearGradient20"
     inkscape:collect="always"><stop
       id="stop16"
       offset="0"
       style="stop-color:#17ca25;stop-opacity:1;" /><stop
            id="stop18"
            offset="1"
            style="stop-color:#24d401;stop-opacity:1;"/></linearGradient>
        <linearGradient
                gradientUnits="userSpaceOnUse"
                y2="19.864574"
                x2="33.805054"
                y1="41.650528"
                x1="33.819927"
                id="linearGradient22"
                xlink:href="#linearGradient20"
                inkscape:collect="always"/></defs>
    <sodipodi:namedview
            inkscape:current-layer="svg5"
            inkscape:window-maximized="0"
            inkscape:window-y="31"
            inkscape:window-x="53"
            inkscape:cy="15.540918"
            inkscape:cx="12.792869"
            inkscape:zoom="20.16"
            fit-margin-bottom="5"
            fit-margin-right="5"
            fit-margin-left="5"
            fit-margin-top="5"
            showgrid="false"
            id="namedview7"
            inkscape:window-height="940"
            inkscape:window-width="1396"
            inkscape:pageshadow="2"
            inkscape:pageopacity="0"
            guidetolerance="10"
            gridtolerance="10"
            objecttolerance="10"
            borderopacity="1"
            bordercolor="#666666"
            pagecolor="#ffffff"
            inkscape:document-rotation="0"
            lock-margins="true"/>
    <g
            transform="matrix(0.967767,0,0,0.967767,-17.078189,-14.240902)"
            id="icn_Edit_hv">
        <path
                id="path2"
                style="fill:url(#linearGradient22);fill-opacity:1"
                d="m 25.367,29.053 c -0.45,0.444 -0.666,1.08 -0.776,1.724 l -1.75,8.179 c -0.248,1.452 1.226,2.913 2.714,2.686 l 8.283,-1.706 c 0.606,-0.109 1.263,-0.295 1.713,-0.74 l 8.774,-8.682 c 0.703,-0.699 0.703,-1.829 0,-2.528 l -7.663,-7.583 c -0.707,-0.695 -1.851,-0.695 -2.553,0 z m 8.421,8.727 -4.289,0.813 -3.554,-3.518 0.818,-4.243 6.386,-6.322 c 0.354,-0.35 0.923,-0.35 1.277,0 0.353,0.349 0.353,0.916 0,1.266 l -5.905,5.845 c -0.441,0.436 -0.441,1.144 0,1.58 0.441,0.436 1.152,0.436 1.593,0 l 5.91,-5.846 c 0.353,-0.349 0.922,-0.349 1.276,0 0.354,0.35 0.354,0.913 0,1.262 l -5.905,5.845 c -0.44,0.436 -0.44,1.144 0,1.58 0.441,0.436 1.153,0.436 1.593,0 l 5.91,-5.845 c 0.349,-0.346 0.923,-0.346 1.277,0 0.353,0.349 0.353,0.916 0,1.265 z"/>
    </g>
</svg>
