<?xml version="1.0" encoding="UTF-8" standalone="no"?>
<svg
        xmlns:dc="http://purl.org/dc/elements/1.1/"
        xmlns:cc="http://creativecommons.org/ns#"
        xmlns:rdf="http://www.w3.org/1999/02/22-rdf-syntax-ns#"
        xmlns="http://www.w3.org/2000/svg"
        xmlns:xlink="http://www.w3.org/1999/xlink"
        xmlns:sodipodi="http://sodipodi.sourceforge.net/DTD/sodipodi-0.dtd"
        xmlns:inkscape="http://www.inkscape.org/namespaces/inkscape"
        inkscape:version="1.0 (4035a4fb49, 2020-05-01)"
        sodipodi:docname="icn_about.svg"
        id="svg5"
        style="clip-rule:evenodd;fill-rule:evenodd;stroke-linejoin:round;stroke-miterlimit:2"
        xml:space="preserve"
        version="1.1"
        viewBox="0 0 21.061203 21.401419"
        height="100%"
        width="100%"><metadata
   id="metadata11"><rdf:RDF><cc:Work
       rdf:about=""><dc:format>image/svg+xml</dc:format><dc:type
        rdf:resource="http://purl.org/dc/dcmitype/StillImage"/><dc:title></dc:title></cc:Work></rdf:RDF></metadata>
    <defs
            id="defs9"><linearGradient
     id="linearGradient12"
     inkscape:collect="always"><stop
       id="stop8"
       offset="0"
       style="stop-color:#7e7e7e;stop-opacity:1;" /><stop
            id="stop10"
            offset="1"
            style="stop-color:#9e9e9e;stop-opacity:1;"/></linearGradient>
        <linearGradient
                gradientUnits="userSpaceOnUse"
                y2="22.022108"
                x2="33.727802"
                y1="40.028877"
                x1="33.767281"
                id="linearGradient14"
                xlink:href="#linearGradient12"
                inkscape:collect="always"/></defs>
    <sodipodi:namedview
            inkscape:current-layer="svg5"
            inkscape:window-maximized="0"
            inkscape:window-y="31"
            inkscape:window-x="53"
            inkscape:cy="25.795066"
            inkscape:cx="23.694384"
            inkscape:zoom="11.313708"
            fit-margin-bottom="2"
            fit-margin-right="6"
            fit-margin-left="6"
            fit-margin-top="2"
            showgrid="false"
            id="namedview7"
            inkscape:window-height="945"
            inkscape:window-width="1661"
            inkscape:pageshadow="2"
            inkscape:pageopacity="0"
            guidetolerance="10"
            gridtolerance="10"
            objecttolerance="10"
            borderopacity="1"
            bordercolor="#666666"
            pagecolor="#ffffff"
            inkscape:document-rotation="0"/>
    <g
            transform="matrix(0.967767,0,0,0.967767,-22.073953,-19.303455)"
            id="icn_About">
        <path
                id="path2"
                style="fill:url(#linearGradient14);fill-opacity:1"
                d="m 30.672,25.046 c 0,1.676 1.35,3.033 3.016,3.033 1.665,0 3.015,-1.357 3.015,-3.033 0,-1.676 -1.35,-3.033 -3.015,-3.033 -1.666,0 -3.016,1.357 -3.016,3.033 z m 0.222,6.336 v 6.716 h -0.942 c -0.52,0 -0.943,0.425 -0.943,0.948 0,0.523 0.423,0.948 0.943,0.948 h 7.478 c 0.52,0 0.942,-0.425 0.942,-0.948 0,-0.523 -0.422,-0.948 -0.942,-0.948 h -0.943 v -7.777 c 0,-0.463 -0.369,-0.834 -0.829,-0.834 h -5.706 c -0.52,0 -0.943,0.424 -0.943,0.947 0,0.524 0.423,0.948 0.943,0.948 z"/>
    </g>
</svg>
