<?xml version="1.0" encoding="UTF-8" standalone="no"?>
<svg xmlns="http://www.w3.org/2000/svg"
     xmlns:xlink="http://www.w3.org/1999/xlink"
     xmlns:inkscape="http://www.inkscape.org/namespaces/inkscape"
     width="100%"
     height="100%"
     viewBox="0 0 448 512">
    <defs
            id="defs8">
        <linearGradient
                inkscape:collect="always"
                id="linearGradient839">
            <stop
                    style="stop-color:#7e7e7e;stop-opacity:1"
                    offset="0"
                    id="stop835"/>
            <stop
                    style="stop-color:#9e9e9e;stop-opacity:1"
                    offset="1"
                    id="stop837"/>
        </linearGradient>
        <linearGradient
                inkscape:collect="always"
                xlink:href="#linearGradient839"
                id="linearGradient843"
                gradientUnits="userSpaceOnUse"
                x1="248.35483"
                y1="498.64578"
                x2="249.52516"
                y2="51.542229"/>
    </defs>

    <path id="path2"
          d="M439.39 362.29c-19.32-20.76-55.47-51.99-55.47-154.29 0-77.7-54.48-139.9-127.94-155.16V32c0-17.67-14.32-32-31.98-32s-31.98 14.33-31.98 32v20.84C118.56 68.1 64.08 130.3 64.08 208c0 102.3-36.15 133.53-55.47 154.29-6 6.45-8.66 14.16-8.61 21.71.11 16.4 12.98 32 32.1 32h383.8c19.12 0 32-15.6 32.1-32 .05-7.55-2.61-15.27-8.61-21.71zM67.53 368c21.22-27.97 44.42-74.33 44.53-159.42 0-.2-.06-.38-.06-.58 0-61.86 50.14-112 112-112s112 50.14 112 112c0 .2-.06.38-.06.58.11 85.1 23.31 131.46 44.53 159.42H67.53zM224 512c35.32 0 63.97-28.65 63.97-64H160.03c0 35.35 28.65 64 63.97 64z"
          style="fill-opacity:1;fill:url(#linearGradient843)"/>

</svg>
