<?xml version="1.0" encoding="UTF-8" standalone="no"?>
<svg width="100%" height="100%" viewBox="0 0 38 28" version="1.1" xmlns="http://www.w3.org/2000/svg"
     xmlns:xlink="http://www.w3.org/1999/xlink" xml:space="preserve"
     style="fill-rule:evenodd;clip-rule:evenodd;stroke-linejoin:round;stroke-miterlimit:2;">
<defs
        id="defs9"><linearGradient
        id="linearGradient12"><stop
        id="stop8"
        offset="0"
        style="stop-color:#ff7413;stop-opacity:1;" /><stop
        id="stop10"
        offset="1"
        style="stop-color:#ffa100;stop-opacity:1;"/></linearGradient>
    <linearGradient
            gradientUnits="userSpaceOnUse"
            x1="775.72809"
            y2="638.92975"
            x2="775.71277"
            y1="666.63049"
            id="linearGradient14"
            xlink:href="#linearGradient12"/></defs>
    <g transform="matrix(1,0,0,1,-756.685,-638.838)">
        <g transform="matrix(0.148209,0,0,0.148209,691.079,600.272)">
            <g transform="matrix(6.74721,0,0,6.74721,-4662.85,-4050.16)">
                <path d="M783.411,649.168L783.411,649.669C783.411,649.901 783.319,650.124 783.155,650.288C782.99,650.453 782.768,650.545 782.535,650.545C779.761,650.545 771.189,650.545 768.415,650.545C768.182,650.545 767.96,650.453 767.795,650.288C767.631,650.124 767.539,649.901 767.539,649.669L767.539,649.168L763.876,649.168C763.077,649.168 762.43,649.816 762.43,650.614L762.43,665.205C762.43,666.004 763.077,666.651 763.876,666.651L767.539,666.651L767.539,666.15C767.539,665.918 767.631,665.695 767.795,665.531C767.96,665.367 768.182,665.274 768.415,665.274C771.189,665.274 779.761,665.274 782.535,665.274C782.768,665.274 782.99,665.367 783.155,665.531C783.319,665.695 783.411,665.918 783.411,666.15L783.411,666.651L787.074,666.651C787.873,666.651 788.52,666.004 788.52,665.205L788.52,650.614C788.52,649.816 787.873,649.168 787.074,649.168L783.411,649.168ZM766.298,662.988C766.298,662.724 766.084,662.509 765.82,662.509C765.332,662.509 764.58,662.509 764.092,662.509C763.828,662.509 763.614,662.724 763.614,662.988C763.614,663.26 763.614,663.6 763.614,663.872C763.614,664.136 763.828,664.351 764.092,664.351C764.58,664.351 765.332,664.351 765.82,664.351C766.084,664.351 766.298,664.136 766.298,663.872C766.298,663.6 766.298,663.26 766.298,662.988ZM787.238,662.988C787.238,662.724 787.024,662.509 786.76,662.509C786.273,662.509 785.52,662.509 785.033,662.509C784.768,662.509 784.554,662.724 784.554,662.988C784.554,663.26 784.554,663.6 784.554,663.872C784.554,664.136 784.768,664.351 785.033,664.351C785.52,664.351 786.273,664.351 786.76,664.351C787.024,664.351 787.238,664.136 787.238,663.872C787.238,663.6 787.238,663.26 787.238,662.988ZM783.411,652.844C783.411,652.611 783.319,652.389 783.155,652.224C782.99,652.06 782.768,651.968 782.535,651.968C779.761,651.968 771.189,651.968 768.415,651.968C768.182,651.968 767.96,652.06 767.795,652.224C767.631,652.389 767.539,652.611 767.539,652.844C767.539,655.043 767.539,660.777 767.539,662.975C767.539,663.208 767.631,663.431 767.795,663.595C767.96,663.759 768.182,663.851 768.415,663.851C771.189,663.851 779.761,663.851 782.535,663.851C782.768,663.851 782.99,663.759 783.155,663.595C783.319,663.431 783.411,663.208 783.411,662.975C783.411,660.777 783.411,655.043 783.411,652.844ZM773.396,656.261C773.238,656.2 773.108,656.109 773.005,655.988C772.902,655.867 772.851,655.716 772.851,655.534C772.851,655.34 772.899,655.183 772.996,655.062C773.093,654.941 773.263,654.832 773.505,654.735L775.444,654.024L775.79,654.024C776.032,654.024 776.225,654.096 776.371,654.242C776.516,654.387 776.589,654.581 776.589,654.823L776.589,661.835C776.516,661.859 776.419,661.887 776.298,661.917C776.177,661.947 776.044,661.962 775.898,661.962C775.378,661.962 775.117,661.738 775.117,661.29L775.117,655.568L773.396,656.261ZM766.298,659.307C766.298,659.043 766.084,658.829 765.82,658.829C765.332,658.829 764.58,658.829 764.092,658.829C763.828,658.829 763.614,659.043 763.614,659.307C763.614,659.58 763.614,659.92 763.614,660.192C763.614,660.456 763.828,660.67 764.092,660.67C764.58,660.67 765.332,660.67 765.82,660.67C766.084,660.67 766.298,660.456 766.298,660.192C766.298,659.92 766.298,659.58 766.298,659.307ZM787.238,659.307C787.238,659.043 787.024,658.829 786.76,658.829C786.273,658.829 785.52,658.829 785.033,658.829C784.768,658.829 784.554,659.043 784.554,659.307C784.554,659.58 784.554,659.92 784.554,660.192C784.554,660.456 784.768,660.67 785.033,660.67C785.52,660.67 786.273,660.67 786.76,660.67C787.024,660.67 787.238,660.456 787.238,660.192C787.238,659.92 787.238,659.58 787.238,659.307ZM770.362,648.166L771.86,648.166C771.655,648.084 771.552,647.854 771.628,647.647C771.708,647.429 771.809,647.157 771.889,646.94C771.967,646.729 772.201,646.621 772.412,646.698C772.802,646.842 773.403,647.064 773.792,647.207C774.003,647.285 774.111,647.519 774.034,647.73L773.873,648.166L774.999,648.166L776.929,642.931C776.998,642.745 777.137,642.594 777.317,642.511C777.496,642.429 777.702,642.42 777.887,642.489C780.104,643.306 786.954,645.832 789.171,646.649C789.357,646.717 789.508,646.857 789.59,647.036C789.673,647.216 789.681,647.421 789.613,647.607L789.033,649.181C789.257,649.528 789.387,649.941 789.387,650.385L789.387,652.957L790.526,653.377C790.737,653.454 790.845,653.689 790.767,653.9C790.687,654.117 790.587,654.389 790.506,654.607C790.429,654.818 790.194,654.926 789.983,654.848L789.387,654.628L789.387,656.298L789.442,656.318C789.653,656.395 789.761,656.63 789.683,656.841C789.603,657.058 789.502,657.33 789.422,657.548C789.413,657.573 789.401,657.597 789.387,657.62L789.387,659.694C789.685,659.565 789.932,659.319 790.054,658.99L794.352,647.33C794.588,646.692 794.261,645.984 793.623,645.749L790.696,644.67L790.548,645.07C790.48,645.256 790.341,645.406 790.161,645.489C789.981,645.572 789.776,645.58 789.59,645.512C787.374,644.695 780.523,642.169 778.307,641.352C778.121,641.283 777.97,641.144 777.887,640.964C777.804,640.785 777.796,640.579 777.865,640.394L778.012,639.994L775.085,638.915C774.447,638.679 773.739,639.006 773.504,639.644L770.362,648.166ZM761.51,650.385L761.549,649.966L761.663,649.573L761.843,649.215L761.969,649.033L761.494,646.911C761.449,646.713 761.485,646.506 761.594,646.334C761.703,646.163 761.875,646.042 762.073,645.998L770.912,644.019L771.412,642.633L761.801,644.785C761.603,644.829 761.396,644.793 761.225,644.685C761.053,644.576 760.932,644.404 760.888,644.206L760.792,643.779L757.672,644.478C756.992,644.63 756.563,645.305 756.716,645.986L759.499,658.417C759.651,659.097 760.326,659.525 761.007,659.373L761.51,659.26L761.51,657.202L760.752,657.372C760.527,657.422 760.304,657.281 760.254,657.056C760.202,656.824 760.137,656.534 760.085,656.302C760.035,656.077 760.176,655.854 760.401,655.803L761.51,655.555L761.51,653.91L760.05,654.236C759.825,654.287 759.602,654.145 759.552,653.92C759.5,653.688 759.435,653.398 759.383,653.166C759.332,652.941 759.474,652.718 759.699,652.668C760.115,652.575 760.755,652.431 761.171,652.338C761.294,652.311 761.416,652.34 761.51,652.409L761.51,650.385ZM766.298,655.627C766.298,655.363 766.084,655.149 765.82,655.149C765.332,655.149 764.58,655.149 764.092,655.149C763.828,655.149 763.614,655.363 763.614,655.627C763.614,655.899 763.614,656.24 763.614,656.512C763.614,656.776 763.828,656.99 764.092,656.99C764.58,656.99 765.332,656.99 765.82,656.99C766.084,656.99 766.298,656.776 766.298,656.512C766.298,656.24 766.298,655.899 766.298,655.627ZM787.238,655.627C787.238,655.363 787.024,655.149 786.76,655.149C786.273,655.149 785.52,655.149 785.033,655.149C784.768,655.149 784.554,655.363 784.554,655.627C784.554,655.899 784.554,656.24 784.554,656.512C784.554,656.776 784.768,656.99 785.033,656.99C785.52,656.99 786.273,656.99 786.76,656.99C787.024,656.99 787.238,656.776 787.238,656.512C787.238,656.24 787.238,655.899 787.238,655.627ZM787.238,651.947C787.238,651.683 787.024,651.469 786.76,651.469C786.273,651.469 785.52,651.469 785.033,651.469C784.768,651.469 784.554,651.683 784.554,651.947C784.554,652.219 784.554,652.559 784.554,652.832C784.554,653.096 784.768,653.31 785.033,653.31C785.52,653.31 786.273,653.31 786.76,653.31C787.024,653.31 787.238,653.096 787.238,652.832C787.238,652.559 787.238,652.219 787.238,651.947ZM766.298,651.947C766.298,651.683 766.084,651.469 765.82,651.469C765.332,651.469 764.58,651.469 764.092,651.469C763.828,651.469 763.614,651.683 763.614,651.947C763.614,652.219 763.614,652.559 763.614,652.832C763.614,653.096 763.828,653.31 764.092,653.31C764.58,653.31 765.332,653.31 765.82,653.31C766.084,653.31 766.298,653.096 766.298,652.832C766.298,652.559 766.298,652.219 766.298,651.947ZM791.851,650.959C791.929,650.748 791.821,650.514 791.61,650.436C791.22,650.292 790.619,650.07 790.23,649.927C790.019,649.849 789.784,649.957 789.707,650.168C789.626,650.386 789.526,650.657 789.446,650.875C789.368,651.086 789.476,651.32 789.687,651.398C790.077,651.542 790.678,651.763 791.068,651.907C791.279,651.985 791.513,651.877 791.591,651.666C791.671,651.448 791.771,651.176 791.851,650.959ZM760.968,649.519C760.917,649.294 760.694,649.152 760.469,649.203C760.053,649.296 759.413,649.439 758.997,649.532C758.772,649.583 758.63,649.806 758.681,650.031C758.733,650.263 758.798,650.553 758.85,650.785C758.9,651.01 759.123,651.151 759.348,651.101C759.764,651.008 760.405,650.864 760.82,650.771C761.045,650.721 761.187,650.498 761.136,650.273C761.084,650.041 761.019,649.751 760.968,649.519ZM792.936,648.018C793.013,647.807 792.905,647.573 792.694,647.495C792.305,647.351 791.703,647.13 791.314,646.986C791.103,646.908 790.869,647.016 790.791,647.227C790.711,647.445 790.61,647.716 790.53,647.934C790.452,648.145 790.56,648.379 790.771,648.457C791.161,648.601 791.762,648.822 792.152,648.966C792.363,649.044 792.597,648.936 792.675,648.725C792.755,648.507 792.855,648.235 792.936,648.018ZM760.266,646.383C760.215,646.158 759.992,646.017 759.767,646.067C759.351,646.16 758.71,646.304 758.295,646.397C758.07,646.447 757.928,646.67 757.979,646.895C758.031,647.127 758.096,647.417 758.148,647.649C758.198,647.874 758.421,648.016 758.646,647.965C759.062,647.872 759.703,647.729 760.118,647.636C760.343,647.585 760.485,647.362 760.434,647.137C760.382,646.905 760.317,646.615 760.266,646.383ZM775.118,644.789C775.196,644.578 775.088,644.344 774.877,644.266C774.487,644.123 773.886,643.901 773.496,643.757C773.285,643.68 773.051,643.788 772.973,643.999C772.893,644.216 772.793,644.488 772.712,644.706C772.635,644.917 772.743,645.151 772.954,645.229C773.343,645.372 773.945,645.594 774.334,645.738C774.545,645.815 774.779,645.707 774.857,645.496C774.937,645.279 775.038,645.007 775.118,644.789ZM776.202,641.849C776.28,641.638 776.172,641.403 775.961,641.326C775.571,641.182 774.97,640.96 774.58,640.817C774.369,640.739 774.135,640.847 774.057,641.058C773.977,641.275 773.877,641.547 773.797,641.765C773.719,641.976 773.827,642.21 774.038,642.288C774.428,642.431 775.029,642.653 775.418,642.797C775.63,642.875 775.864,642.767 775.942,642.556C776.022,642.338 776.122,642.066 776.202,641.849Z"
                      style="fill:url(#linearGradient14);fill-opacity:1"/>
            </g>
        </g>
    </g>
</svg>
