<?xml version="1.0" encoding="utf-8"?>
<!-- Generator: Adobe Illustrator 24.1.0, SVG Export Plug-In . SVG Version: 6.00 Build 0)  -->
<svg version="1.1" id="Layer_2" xmlns="http://www.w3.org/2000/svg" xmlns:xlink="http://www.w3.org/1999/xlink" x="0px" y="0px"
	 viewBox="0 0 281 51" style="enable-background:new 0 0 281 51;" xml:space="preserve">
<style type="text/css">
	.st0{fill:#B99B68;}
	.st1{fill:#231F20;}
</style>
<g>
	<path class="st0" d="M47,21c-1.1-0.6-3.7-0.8-8.5-0.6l-0.3,0c-1.5,0-2.9,0.2-3.9,0.3l-0.1,0c-0.2,0-0.5,0-0.7,0.1
		c0.2-0.8,0.5-1.9,0.9-3.3c0.7-3,0.4-4.6,0.2-6.1c-0.1-0.3-0.1-0.6-0.1-1c-0.2-2-1.2-4.7-1.9-6c-1-1.8-3.6-2.1-3.9-2.1
		c-0.6-0.1-1.7-0.1-2.2,0.7c-0.2,0.3-0.3,0.9-0.4,2.4l0,0.2C26,5.6,26,6,26,6.6l0,1.1c0,1-0.1,2.2-0.1,3c-0.1,1.7-1.3,4-1.7,4.7
		c-0.4,0.7-1.6,2.4-2.4,3.6c-0.5,0.7-1,1.4-1.2,1.8c-0.8,1.3-2.5,1.4-2.7,1.4c-0.1,0-0.2,0.1-0.2,0.1c-0.1,0.1-0.1,0.2-0.1,0.2
		l0.1,1c0,0,0,0.2,0.1,0.3c0,0,0.1,0.1,0.3,0.1c1.1-0.1,3-0.5,4.1-2.3c0.2-0.3,0.6-0.9,1.1-1.5l0.1-0.2c0.9-1.3,2-2.9,2.5-3.7
		c0.7-1.2,1.8-3.5,1.9-5.4c0-0.8,0.1-1.9,0.1-2.8l0-0.7c0-0.8,0.1-1.5,0.1-1.7l0-0.2c0-0.7,0.1-1.2,0.1-1.4c0.1,0,0.3,0,0.6,0
		C29.1,4,30.6,4.3,31,5.1c0.7,1.2,1.5,3.6,1.7,5.4c0,0.3,0.1,0.6,0.1,0.9l0,0.2c0.2,1.4,0.5,2.8-0.2,5.5c-0.8,3.2-1.1,3.9-1.2,4.1
		c-0.1,0.3-0.1,0.7,0.1,0.9c0.4,0.6,0.9,0.5,2.9,0.3c1.1-0.1,2.4-0.2,3.8-0.3l0.3,0c5.8-0.2,7.2,0.2,7.5,0.4
		c0.9,0.5,1.3,0.8,0.9,2.4l-0.3,1c-0.1,0.3-0.3,0.5-0.5,0.6c-0.3,0.2-0.8,0.2-1.7,0.2l-1.5,0c-0.3,0-0.6,0.1-0.8,0.3
		c-0.2,0.2-0.2,0.4-0.3,0.7c0,0.1-0.1,0.1-0.1,0.2c-0.1,0.2-0.1,0.3,0,0.4c0.1,0.1,0.3,0.2,0.4,0.2c0.5,0,1.4,0,2.3,0
		c1.1,0,1.9-0.1,2.5-0.4c0,0,0.2-0.1,0.6-0.4c0.3-0.3,0.7-1,1-1.8c0,0,0-0.1,0-0.2c0-0.1,0.1-0.3,0.1-0.3l0-0.1
		C49.2,22.8,48.4,21.8,47,21z"/>
	<path class="st0" d="M45.1,34.5c-0.2,0-0.7,0.2-1,0.3c-0.2,0.1-0.3,0.3-0.4,0.5c-0.1,0.2-0.1,0.3-0.1,0.4c0,0.1-0.1,0.3-0.1,0.5
		l0,0c0,0.1-0.1,0.2-0.1,0.3l-0.1,0.3c-0.3,0.7-0.6,0.9-2.2,0.9l-0.2,0c-0.4,0-0.9,0-1.3,0c-0.2,0-0.6,0-0.8,0.3
		c-0.2,0.2-0.2,0.4-0.3,0.7c0,0.1-0.1,0.1-0.1,0.2c-0.1,0.2-0.1,0.3,0,0.4c0.1,0.1,0.3,0.2,0.4,0.2c0.5,0,1.4,0,2.3,0
		c2.3,0,3.3-0.5,3.9-2.1l0,0c0.2-0.4,0.3-0.8,0.4-1.3c0.1-0.2,0.2-0.5,0.3-0.8c0-0.2,0.1-0.4,0-0.5C45.5,34.4,45.3,34.4,45.1,34.5z"
		/>
	<path class="st0" d="M42.9,39.9l0,0.1L42.9,39.9C42.9,39.9,42.9,40,42.9,39.9l-0.2,0c0,0-0.1,0-0.1,0l-0.1,0
		c-0.3,0-0.5,0.1-0.7,0.2c-0.1,0.1-0.3,0.3-0.5,0.7l0,0.1c-1.1,2-1.7,2.3-2.3,2.5l-0.1,0c-1.4,0.6-4.6,0.7-7.1,0.2
		c-0.5-0.1-1.1-0.2-1.7-0.3l0,0c-2.2-0.4-4.4-0.8-5.7-0.6l-5.3,0.8c0,0-0.1,0-0.2,0.1c-0.1,0.1-0.1,0.2-0.1,0.4c0,0,0,0.6,0.1,0.9
		c0,0.1,0.1,0.2,0.1,0.3c0.1,0.1,0.3,0,0.3,0l5.4-0.8c1.1-0.2,3.3,0.2,5.2,0.6c0.6,0.1,1.1,0.2,1.7,0.3c1.1,0.2,2.4,0.3,3.6,0.3
		c1.9,0,3.5-0.2,4.5-0.6c1.2-0.5,2.2-1.1,3.7-4.4c0.2-0.3,0.2-0.5,0.1-0.7C43.4,39.9,43.1,39.9,42.9,39.9z"/>
	<path class="st0" d="M46.9,29.1c-0.2,0-0.7,0.2-1,0.3l0,0l0,0c-0.2,0.1-0.3,0.3-0.3,0.4c-0.1,0.2-0.1,0.3-0.1,0.4
		c0,0.1-0.1,0.3-0.1,0.5l0,0.1c0,0.1-0.1,0.2-0.1,0.2L45,31.3c-0.2,0.4-0.3,0.6-0.6,0.7c-0.3,0.1-0.9,0.2-1.6,0.2c-0.5,0-1,0-1.5,0
		c-0.2,0-0.4,0-0.6,0.2c-0.1,0.1-0.2,0.1-0.2,0.2c-0.2,0.2-0.2,0.4-0.3,0.7c0,0.1-0.1,0.1-0.1,0.2c-0.1,0.2-0.1,0.3,0,0.4
		c0.1,0.1,0.3,0.2,0.4,0.2c0.5,0,1.4,0,2.3,0c1.2,0,2-0.2,2.6-0.5c0.6-0.3,1-0.8,1.3-1.7l0,0c0.2-0.4,0.3-0.9,0.5-1.3
		c0.1-0.2,0.2-0.5,0.2-0.7c0.1-0.2,0.1-0.4,0-0.5C47.2,29,47,29,46.9,29.1z"/>
</g>
<path class="st1" d="M15.7,22.6L15.7,22.6c0-0.5-0.4-0.8-0.9-0.8h-4.4c-0.1,0-0.3,0-0.4,0.1c-0.1,0.1,0,0.3,0,0.4
	c0,0.1,0.1,0.1,0.1,0.2c0.1,0.2,0.2,0.4,0.3,0.6c0.2,0.3,0.7,0.3,0.9,0.3h2.4c0.2,0,0.2,0,0.2,0.1l0.6,9.1c0,0.1,0,0.2,0,0.3
	c0,0.2,0,0.2-0.1,0.2h-2.8c-0.1,0-0.3,0-0.4,0.1c-0.1,0.1,0,0.3,0,0.4c0,0.1,0.1,0.1,0.1,0.2c0.1,0.2,0.2,0.4,0.3,0.7
	c0.2,0.3,0.6,0.3,0.9,0.3h1.9c0.2,0,0.3,0,0.3,0.1l0.6,9.3c0,0.2,0,0.2-0.1,0.2l-4,0c0,0-0.2,0-0.3,0c-0.2,0-1.1-0.1-1.3-0.9
	c-0.1-0.3-0.1-1-0.2-1.2c0,0-0.2-3-0.3-4.6c0-0.3,0-0.5-0.1-0.8l0,0l0-0.2c0,0,0,0,0,0l0,0l0-0.1c0,0,0,0,0,0c-0.1-1-0.4-1.6-1-2.2
	l0,0h0c-0.2-0.1-0.4-0.3-0.6-0.4c0,0,0,0,0,0c0.7-0.6,1-1.1,1.2-1.8c0.2-0.7,0.1-2.4,0.1-2.5l-0.2-4.3c0-0.1-0.1-1-0.2-1.5
	c-0.4-1.8-2.3-2.2-3-2.2H1.5c-0.2,0-0.5,0.1-0.6,0.3c-0.2,0.2-0.3,0.4-0.2,0.6L2,45.5c0,0.5,0.4,0.8,0.9,0.8l2.8,0
	c0.1,0,0.3,0,0.4-0.1c0.1-0.1,0-0.3,0-0.4c0-0.1,0-0.1-0.1-0.2c-0.1-0.2-0.2-0.4-0.3-0.7c-0.2-0.3-0.7-0.3-0.9-0.3l-0.8,0
	c-0.3,0-0.3,0-0.3-0.1L2.4,23.6h2.7c0,0,1.1,0,1.3,0.9c0.1,0.3,0.1,1.1,0.2,1.2c0,0,0.1,2.2,0.2,4.2c0.2,2.4-0.2,2.7-0.4,2.9
	c-0.4,0.4-0.7,0.7-0.9,0.8c-0.2,0.1-0.4,0.2-0.5,0.3c-0.1,0-0.2,0.1-0.2,0.1c0,0-0.1,0.1-0.1,0.2c0,0.1,0.1,0.2,0.5,0.4
	c0.3,0.1,0.6,0.3,1.2,0.7c0.2,0.1,0.4,0.3,0.6,0.6c0,0,0,0.1,0.1,0.1C7,36,7,36.1,7,36.2c0.2,0.5,0.3,1,0.3,1.6c0,0.1,0,0.3,0,0.4
	l0.3,4.4c0,0.3,0.1,1,0.2,1.5c0.4,1.8,2.3,2.2,3,2.2h5.4c0.2,0,0.5-0.1,0.6-0.3c0.2-0.2,0.3-0.4,0.2-0.6L15.7,22.6z"/>
<g>
	<path class="st1" d="M237.2,38.5h2.1v2.1h-2.1V38.5z"/>
	<path class="st1" d="M242.1,35.5c0-3,1.8-5.4,5-5.4c1.9,0,3.3,0.9,4.1,2.4l-1.5,0.9c-0.5-1-1.3-1.7-2.6-1.7c-2,0-3.1,1.7-3.1,3.8
		c0,2.1,1,3.8,3.2,3.8c1.4,0,2.2-0.7,2.7-1.7l1.4,0.8c-0.7,1.4-2.2,2.4-4.2,2.4C243.9,40.8,242.1,38.5,242.1,35.5z"/>
	<path class="st1" d="M252.9,35.4c0-3,1.8-5.3,5-5.3c3.2,0,5,2.4,5,5.3c0,2.9-1.8,5.3-5,5.3C254.7,40.8,252.9,38.4,252.9,35.4z
		 M254.7,35.4c0,2,1.1,3.8,3.2,3.8c2.1,0,3.2-1.8,3.2-3.8c0-2-1.1-3.8-3.2-3.8C255.8,31.7,254.7,33.4,254.7,35.4z"/>
	<path class="st1" d="M267.7,31.7c0.6-1,1.6-1.6,3-1.6c1.5,0,2.6,0.7,3.1,1.8c0.7-1.2,1.9-1.8,3.3-1.8c2.1,0,3.4,1.3,3.4,3.2v7.2
		h-1.8v-6.8c0-1.2-0.7-2.1-2.1-2.1c-1.5,0-2.5,1-2.5,2.4v6.4h-1.8v-6.8c0-1.2-0.7-2.1-2.1-2.1c-1.5,0-2.5,1-2.5,2.4v6.4h-1.8V30.3
		h1.8L267.7,31.7L267.7,31.7z"/>
</g>
<g>
	<path class="st1" d="M123.2,23.6c-2.4,0.3-4.3,1.4-5.8,3.3c-0.7,0.9-1.5,1.2-2.8,1.2c-1.3,0-2.8-0.1-4.1-1.3
		c-0.3-0.3-0.6-0.5-0.9-0.5c-0.2,0-0.6,0.1-0.9,0.7c-0.5,1.1-1.1,2.5-1.5,3.9c-0.7,2.7-3.1,3.6-5,4.1c-0.5,0.1-0.9,0-1.1-0.2
		c-0.2-0.2-0.3-0.6-0.2-1c0.3-3.2,3.9-7.2,7.2-7.8c0.2,0,0.4-0.2,0.6-0.4l0.2-0.3l-0.2-0.3c-0.3-0.4-0.5-0.5-0.7-0.6
		c-0.8-0.1-1.6,0-2.2,0.3c-3.5,1.4-5.8,3.9-6.9,7.4c-0.2,0.7-0.3,1.6-0.3,2.5c0.1,1.6,1.6,2.9,3.3,2.9c3.3,0,7.5-2.7,7.8-5.9
		c0-0.5,0.2-1,0.2-1.4c0-0.2,0.1-0.3,0.1-0.4l0-0.1l5.1,0.9l0,0.1c-0.1,0.3-0.1,0.6-0.2,0.9c-0.1,0.7-0.3,1.4-0.4,2.2
		c-0.1,1.4,0.3,2.5,1.3,3.2c1.1,0.7,2.3,0.8,3.6,0.1c0.4-0.2,0.9-0.5,1.3-0.8c0.2-0.2,0.5-0.3,0.8-0.5l0.2-0.1l-0.2,0.9
		c-0.1,0.3-0.2,0.6-0.3,0.9c-0.6,2-1,3.3-1.4,4.5c-0.5,1.5-0.9,2.9-1.6,5.2l0,0.1c-0.2,0.8-0.5,1.8,0.7,2.2c0.2,0.1,0.3,0.1,0.5,0.1
		c0.7,0,0.9-0.7,1-1.3l0.1-0.3c0.6-1.8,1-2.9,1.4-4c0.5-1.3,0.9-2.5,1.5-4.6l0.6-1.9c0.7-2.2,1.4-4.4,2-6.6c0.2-0.6,0.3-1.5-0.5-1.8
		c-0.3-0.1-1.1,0.1-1.5,0.5c-0.9,0.8-1.7,1.6-2.6,2.5c-0.7,0.7-1.4,1.5-2.2,2.2c-0.3,0.3-0.7,0.5-1.2,0.7c-0.2,0.1-0.4,0.2-0.7,0.4
		l-0.1,0.1l-0.1-0.5c0-0.2-0.1-0.3-0.1-0.4c-0.2-3.2,3.2-7.8,6.4-8.5c0.8-0.2,1.5,0,2.3,0.6c0.2,0.2,0.6,0.3,1,0.3h0.4l0.1-0.4
		c0.1-0.4,0.2-0.7,0-1C126.6,24.3,124.8,23.4,123.2,23.6z"/>
	<path class="st1" d="M198.9,23.9c-2-0.1-3.8,0.6-5.6,2c-0.6,0.5-1.3,1.1-1.9,1.6l-1,0.8l0-0.2c-0.1-0.5,0-0.9,0.1-1.2
		c1.1-2.9,2-5,2.8-7l0.1-0.2c0.8-2,1.7-4.1,2.8-7.1c0-0.1,0.1-0.3,0.2-0.4c0.1-0.3,0.3-0.7,0.3-1c0-0.4-0.2-1-0.3-1.1l-0.1-0.1
		l-0.1,0c-0.1,0-0.2-0.1-0.4-0.1c-0.4,0-0.8,0.1-0.9,0.3c-0.5,0.6-0.8,1.3-1.1,2.1c-1,2.7-1.9,4.7-2.6,6.6l-0.1,0.1
		c-1,2.4-1.9,4.6-3.2,8.1c-0.7,1.8-1.4,3.7-2,5.6l-0.8,2.2c-0.2,0.6-0.3,1.3,0.5,1.9c0.7,0.4,1.3,0.3,1.8-0.5
		c0.1-0.1,0.2-0.3,0.3-0.4l0.2-0.3c2.1-3.1,4.6-5.9,7.5-8.1c0.5-0.4,2.1-1.5,3.4-1.5c0.3,0,0.6,0.1,0.8,0.2c0.1,0.1,0.2,0.2,0.2,0.4
		c0.1,0.7-0.5,1.9-0.9,2.3c-1.3,1.8-2.4,2.9-3.6,3.8c-0.6,0.4-1.2,0.8-2,1.3c-1,0.6-2,1.3-2.9,1.9c-0.3,0.3-0.7,1-0.5,1.4l0.1,0.1
		c0.2,0.2,0.7,0.3,1.1,0.3c0.1,0,0.3,0,0.5-0.1c3.5-1.7,6.6-3.9,8.2-5.9c1-1.4,1.7-3,2.1-4.6c0.2-0.8,0-1.5-0.4-2
		C200.9,24.4,200,24,198.9,23.9z"/>
	<path class="st1" d="M152.5,36l-0.3,0c-3-0.2-4.3-1.5-4.4-4.4c0-2.5-1-4.2-2.9-5.6c-0.4-0.3-0.8-0.9-0.9-1.4
		c-0.2-0.9-0.5-1.8-1.6-2c-0.5-0.1-1.2,0.1-1.5,0.5c-0.6,0.6-0.3,1.4,0.3,2.3c0.2,0.4,0.4,1,0.2,1.4c-2,3.6-5,6.2-8.9,7.7
		c-0.9,0.3-1.5,0.3-1.9-0.1c-0.3-0.4-0.5-1-0.4-1.9l0-0.1h0.1c2.6,0,5.8-2,6.7-4.1c0.5-1.3,0.3-2.7-0.5-3.4c-0.5-0.4-1-0.6-1.6-0.6
		c-0.6,0-1.2,0.2-1.6,0.4c-2.2,1-3.8,2.8-4.8,5.7c-0.4,1-0.5,2.1-0.4,3.2c0.2,2.1,1.7,3.4,3.7,3.2c1.1-0.1,2.2-0.4,3.1-0.8
		c3.5-1.8,6.2-4.3,8.1-7.5c0.1-0.2,0.2-0.3,0.3-0.5l0.2-0.3l0.1,0.1c1.3,0.9,1.7,1.3,1.9,2.6c0.1,0.4,0.1,0.8,0.1,1.2
		c0,0.5,0,1,0.1,1.5l0.1,0.3c0.2,0.8,0.4,1.8,0.9,2.3c1.4,1.3,3.1,2,4.8,2c0.5,0,1-0.1,1.5-0.2c0.4-0.1,1-0.4,1.1-0.7l0.1-0.2
		l-0.2-0.2C154,36.2,153.6,36,152.5,36z M135.4,26.1c-0.3,2.3-1.8,3-3.4,3.7c-0.3,0.1-0.6,0.3-0.9,0.4l-0.2,0.1l0.1-0.2
		c0.8-1.8,1.8-3.5,4.3-4.1l0.1,0L135.4,26.1z"/>
	<path class="st1" d="M188.3,41.1c-0.3,0-0.5,0.1-0.8,0.1c-0.1,0-0.2,0-0.3,0.1c-1.6,0.3-3.3,0.6-4.9,0.9l-0.1,0
		c-3.3,0.6-6.6,1.2-9.9,1.7c-3.1,0.5-5.9,0.5-8.4-0.1c-1.6-0.3-2.7-1.2-3.1-2.5l-0.1-0.4c-0.3-0.9-0.7-1.9-0.7-2.8
		c0.1-2.3,0.2-5,0.8-7.4l0.1-0.2c0.9-3.1,4.2-13.6,7.3-19.4c0-0.1,0.1-0.1,0.1-0.2l0.1-0.2c0.2-0.4,0.4-0.8,0.5-1.3
		c0-0.2-0.1-0.5-0.3-0.8l-0.3-0.4l-0.3,0.1c-0.1,0-0.2,0-0.3,0.1c-0.4,0.1-0.8,0.1-1,0.3c-0.3,0.3-0.5,0.6-0.7,1l-0.1,0.2
		c-1.5,3.2-3,7-4.7,11.9l-0.1,0.2l0,0l-0.5,1.4c-1.1,3-2,6.1-2.6,9.2c-0.7,3.3-0.6,6,0.3,8.6c1.1,2.9,3,4.4,6.2,4.9
		c0.5,0.1,1,0.1,1.6,0.2l0.9,0.1c0.5,0,1,0,1.5,0h0c3.4,0,6.6-0.6,9.8-1.1l0.6-0.1c3.3-0.6,6.7-1.4,9.4-2c0.5-0.1,1.1-0.3,1.2-0.6
		c0.1-0.2,0.1-0.5-0.1-0.8C189.1,41.3,188.8,41.1,188.3,41.1z"/>
	<path class="st1" d="M176.6,23L176.6,23l-0.1-0.1l-1.8,0.1c-1.3,0.1-2.6,0.2-3.9,0.3l-0.8,0.1c-1,0.1-2,0.1-3,0.3
		c-0.4,0.1-0.9,0.6-0.9,1c0,0.4,0.4,0.9,0.7,1.1c0.2,0.1,0.4,0.2,0.8,0.2c0.1,0,0.3,0,0.5,0c2.3-0.2,4.3-0.4,6.1-0.5
		c1.2-0.1,2.2-0.3,3-0.4c0.3-0.1,0.7-0.5,0.7-0.9c0-0.4-0.4-0.8-0.6-0.9C177,23.1,176.8,23,176.6,23z"/>
	<path class="st1" d="M163.3,7.1c0.2,0.1,0.5,0.1,0.8,0.1c0.2,0,0.5,0,0.6-0.1c1-0.2,2.1-0.5,3.3-0.9c2.5-0.7,5.1-1.2,7.7-1.5
		C180,4.2,184.2,4,188,4.2c1,0,1.9,0.1,2.7,0.3l0.1,0l0.1,0c0.5-0.1,0.8-0.2,1-0.4c0.2-0.2,0.4-0.5,0.3-0.8c0-0.4-0.2-0.7-0.7-1
		l-0.2-0.1c-1.2-0.2-2.5-0.3-3.9-0.3c-2.8-0.1-6,0-9.8,0.4c-3.7,0.3-7.2,1-10.3,1.9c-0.4,0.1-0.9,0.2-1.3,0.4c0,0-1,0.3-1.1,0.3
		c-0.1,0-0.3,0.1-0.5,0.2L164.1,5c-0.1,0.1-0.3,0.1-0.4,0.2c-0.1,0-0.3,0.1-0.4,0.1l-0.3,0.2l-0.1,0.4C162.7,6.7,163.2,7,163.3,7.1z
		"/>
	<path class="st1" d="M253,14.2c-0.3-0.2-0.7-0.4-1.1-0.5c-0.8-0.1-1.5-0.1-2.3-0.2c-0.4,0-0.8,0-1.2-0.1c-1.6-0.1-3.3-0.2-4.9-0.3
		l-2.8-0.2l0.3-0.7c0.1-0.3,0.2-0.5,0.3-0.8c0.3-0.7,0.5-1.3,0.6-1.6c0.1-0.6,0-1-0.2-1.3l-0.1-0.1l-0.1,0c-0.5-0.1-1,0-1.4,0.5
		c-0.3,0.4-0.6,0.9-0.8,1.3c-0.4,0.8-0.5,1.1-0.6,1.2l0,0.1c0,0,0,0.1-0.1,0.2c-0.4,0.7-0.6,1.1-1.5,1.1c0,0-0.3,0-0.5,0l-1.9-0.1
		c-2.4-0.1-4.5-0.1-6.7-0.1c-0.8,0-1.7,0-2.5,0.1c-0.7,0-1.3,0.1-2,0.1c-1.4,0-2.6,0.1-3.7,0.6c-0.3,0.1-0.5,0.4-0.6,0.6
		c-0.1,0.3,0,0.5,0.2,0.7c0.2,0.2,0.7,0.3,1.4,0.3c0.4,0,0.8-0.1,1.3-0.2c0.6-0.1,1.1-0.2,1.7-0.2c0.7,0,2.2,0,2.2,0
		c2.8,0,5.7,0,8.1,0.1c0.5,0,1.1,0.1,1.6,0.1l1,0.1l-0.3,0.6c-0.1,0.3-0.2,0.6-0.4,0.9c-2.4,5.4-4,9.6-5.2,15.2l-0.1,0.3
		c-0.1,0.3-0.2,0.6-0.3,1.1c-0.4,0.7-0.8,1.2-1.2,1.6c-0.4,0.2-0.7,0.4-1.1,0.6c-0.8,0.3-1.6,0.5-2.4,0.4c-0.1,0-0.2,0-0.3,0
		c-0.8-0.2-1.2-0.7-1.1-1.5c0-0.3,0.1-0.6,0.1-0.8l0-0.2c0.1-0.8,0.2-1.6,0.4-2.3c0.6-1.7,0.3-3.2-0.9-4.7c-0.2-0.2-0.3-0.4-0.5-0.6
		c-0.1-0.1-0.2-0.2-0.4-0.4c-0.2-0.2-0.5-0.5-0.7-0.7c-0.1-0.1-0.2-0.3-0.3-0.4c-0.3-0.4-0.4-0.8-0.5-1.2c0-0.3,0-0.6,0-0.9
		c0-0.2,0-0.6-0.3-0.9c-0.1-0.1-0.1-0.1-0.2-0.2c-0.3-0.2-0.6-0.4-1-0.4c-0.2,0-0.4,0-0.6,0c-0.1,0-0.2,0-0.3,0.1
		c-0.2,0.1-0.4,0.2-0.5,0.3c-0.1,0.1-0.1,0.2-0.2,0.2c-0.1,0.1-0.1,0.2-0.1,0.3c-0.1,0.3-0.1,0.7,0,1.1c0.1,0.2,0.2,0.4,0.3,0.7
		c0.1,0.2,0.2,0.4,0.3,0.7c0.1,0.2,0.1,0.5,0.2,0.6c0,0.2,0,0.4-0.1,0.5c-0.3,0.4-0.7,0.8-1,1.3c-0.3,0.4-0.7,0.8-1.1,1.2
		c-2.4,2.7-4.9,4.7-7.6,6.1l-0.6,0.3c-1.1,0.5-1.7,0.6-2,0.6c-0.1,0-0.3,0-0.5,0c-0.6,0-1.1-0.1-1.3-0.4c-0.1-0.1-0.1-0.1-0.1-0.2
		c-0.1-0.2-0.1-0.4-0.1-0.6c0-0.4,0.3-1,0.5-1.1c2.2-0.3,4.1-1.2,6.1-2.9c0.8-0.7,1.5-1.7,2-2.9c0.1-0.4,0.2-0.7,0.1-1.1
		c0-0.3-0.2-0.6-0.4-0.9c-0.4-0.5-1.1-0.8-2-0.7c-0.9,0.1-1.8,0.4-2.6,0.8c-2.4,1.4-4.3,3.3-5.5,5.8c-0.4,0.8-0.6,1.7-0.6,2.5
		c0,0.8,0.1,1.6,0.5,2.2c0.2,0.4,0.5,0.7,0.8,1c0.4,0.3,1.2,0.7,2.1,0.7c1.3-0.1,3-0.8,3.7-1.1c0.4-0.2,1.3-0.7,2.4-1.4l0.4-0.3
		c0.6-0.4,1.2-0.8,1.5-1.1c1.2-0.9,2.3-2,3.5-3.3c0.5-0.6,1-1.1,1.5-1.7c0.3-0.4,0.6-0.7,0.9-1.1l0.9-1.2l0.1,0
		c0.4,0.3,0.8,0.5,1.1,0.8c0.2,0.2,0.5,0.4,0.6,0.6c0.7,0.9,0.8,1.8,0.3,3.4c-0.2,0.7-0.4,1.4-0.6,2.1c-0.1,0.2-0.1,0.5-0.1,0.7
		c-0.3,1.6,0.2,2.9,1.3,3.8c0.5,0.4,1,0.6,1.5,0.7l0.4,0.1c0.1,0,0.1,0,0.2,0c0.3,0,0.7,0,1.1-0.1l0.3-0.1c0.2-0.1,0.4-0.1,0.6-0.2
		c0.3-0.1,0.6-0.3,0.9-0.4c0.3-0.1,0.8-0.4,0.8-0.4l0.1-0.1c0.1-0.1,0.2-0.1,0.3-0.2l0.2-0.1l0,0.3c0,0.4,0,0.8,0.1,1.2l0,0.4
		c0.1,0.6,0.1,1.3,0.4,1.9c0.2,0.6,0.8,1,1.5,1h0c0.2,0,0.4,0,0.7-0.1c0.4-0.2,0.6-0.3,0.7-0.6c0.1-0.3,0-0.7-0.4-1.3
		c-0.2-0.3-0.2-0.7-0.3-1.1c-0.2-1.2-0.1-2.7,0.1-3.8c1.2-7,3.6-12.4,6-17.6l0.2-0.6c0.2-0.4,1.1-0.7,1.5-0.7l0.4,0
		c0.6,0,1.3,0,1.9,0.1c0.6,0,1.2,0.1,1.8,0.1l1.7,0c1.8,0,3.8,0,5.9-0.1c0.3,0,0.7-0.2,0.9-0.5l0.3-0.3L253,14.2z M206.3,30
		c1-1.9,3.6-4,5.3-4.3l0.2,0l-0.1,0.1c-0.8,1.9-2.5,2.8-4.2,3.6c-0.4,0.2-0.8,0.4-1.1,0.6l-0.3,0.1L206.3,30z"/>
	<path class="st1" d="M99.2,47L99,46.8c-4.4-3.4-8.6-7.3-12.8-12c-0.5-0.6-1.1-1.2-1.6-1.8l-0.8-0.9l0.6-0.2
		c0.5-0.2,1.1-0.4,1.7-0.5c4-1.1,7.7-3,11.1-5.7c3.5-2.7,6.1-5.3,8-7.9c1.2-1.7,2.1-3.4,2.7-4.9c1.4-3.8-0.4-7.3-4.8-9.2
		c-0.8-0.3-1.7-0.6-2.6-0.9c-3.3-0.9-7-1.1-11.5-0.7c-6.9,0.6-12.5,2.3-17.1,5.2c-6.9,4.4-10.1,9.5-9.9,15.6
		c0.1,1.6,0.3,3.3,1.3,4.8c0.4,0.5,1,1.1,1.7,1.5c0.3,0.2,1.1,0,1.3-0.1l0.1-0.1l0-0.1c0.1-0.4-0.2-1-0.2-1.1
		c-0.2-0.3-0.4-0.6-0.6-0.9c-0.4-0.5-0.7-1-0.8-1.5c-0.3-1.8-0.4-3.4-0.3-4.9c0.4-3.4,2.2-6.4,5.7-9.3c5.9-4.8,13.2-7.1,22.4-7.1
		c1.1,0,2.3,0,3.5,0.1c2.2,0.1,4.3,0.6,6.1,1.5c2.4,1.1,3.5,2.8,3.4,5.1c-0.1,1.5-0.7,2.9-1.8,4.6c-2.6,3.7-5.9,7-10.1,9.9
		c-2.5,1.8-5.4,3.1-8.6,4.1c-1.6,0.5-2.9,0.9-4.1,1.4c-0.4,0.2-0.8,0.7-0.8,1.1l0,0.1l0,0.1c0,0.2,0.2,0.4,0.6,0.7
		c0.1,0.1,0.2,0.1,0.3,0.2c0.1,0.1,0.2,0.2,0.4,0.3c0.2,0.1,0.3,0.2,0.4,0.3c0.6,0.7,1.3,1.4,1.9,2.2c1,1.1,2,2.2,3,3.3
		c3.7,4,7,6.9,10.4,9.3c0.4,0.3,0.9,0.6,1.5,0.8c0.1,0,0.2,0,0.4,0c0.3,0,0.7-0.1,0.9-0.3c0.2-0.3,0-0.8-0.1-1.1
		C99.7,47.4,99.4,47.2,99.2,47z"/>
	<path class="st1" d="M82.9,10.7c0.2-0.4,0.4-0.9,0.5-1.4c0.1-0.3-0.1-0.6-0.3-0.9l-0.2-0.4l-0.5,0.2c-0.3,0.1-0.7,0.2-0.9,0.4
		C81.2,9,81,9.4,80.8,9.8l-0.1,0.3c-4.4,9.5-8.1,19.9-12.1,33.6c-0.1,0.2-0.1,0.4-0.2,0.7l-0.1,0.5l0.3,0.3c0.2,0.2,0.5,0.4,0.8,0.5
		l0.1,0c0.4,0,1-0.3,1.1-0.6c0.3-0.4,0.4-0.9,0.5-1.3l0.1-0.3c3.5-12,7.2-22.5,11.5-32.2C82.8,11,82.8,10.9,82.9,10.7z"/>
</g>
</svg>
