<svg xmlns="http://www.w3.org/2000/svg" width="88" height="88" viewBox="0 0 256 256"
     enable-background="new 0 0 256 256">
    <path fill="#2E51A2" opacity="1.000000" stroke="none"
          d="
M116.000000,257.000000 
	C77.333336,257.000000 39.166672,257.000000 1.000005,257.000000 
	C1.000003,171.666672 1.000003,86.333351 1.000002,1.000017 
	C86.333321,1.000011 171.666641,1.000011 257.000000,1.000005 
	C257.000000,86.333313 257.000000,171.666626 257.000000,256.999969 
	C210.166672,257.000000 163.333328,257.000000 116.000000,257.000000 
M81.995476,143.494812 
	C81.995476,148.254059 81.995476,153.013306 81.995476,157.612488 
	C88.414864,157.612488 94.143463,157.612488 99.745743,157.612488 
	C99.745743,134.618835 99.745743,112.013504 99.745743,88.997643 
	C95.040329,88.997643 90.539764,88.651192 86.131790,89.139885 
	C83.835297,89.394478 81.077118,90.581764 79.609299,92.281815 
	C74.724113,97.939896 70.328743,104.020882 65.442238,110.331528 
	C60.842045,103.980919 56.505596,97.912270 52.057446,91.926636 
	C51.220264,90.800087 49.976395,89.242035 48.854118,89.185074 
	C43.286457,88.902542 37.696655,89.056244 32.276054,89.056244 
	C32.276054,112.428429 32.276054,135.030182 32.276054,157.678497 
	C38.283165,157.678497 44.007103,157.678497 50.295586,157.678497 
	C50.295586,144.044968 50.295586,130.725204 50.295586,116.435501 
	C55.780312,123.229103 60.555779,129.144180 65.532013,135.307953 
	C70.926697,129.014557 76.028275,123.063080 81.995476,116.101791 
	C81.995476,125.907066 81.995476,134.201584 81.995476,143.494812 
M109.998245,128.393021 
	C110.808830,142.392349 115.535408,155.217697 121.652748,168.139618 
	C126.703453,164.678589 131.430222,161.439545 135.511917,158.642548 
	C132.711655,150.488647 130.161255,143.062317 127.511742,135.347382 
	C135.637100,135.347382 142.703918,135.347382 150.243958,135.347382 
	C150.243958,143.086502 150.243958,150.490082 150.243958,157.822754 
	C157.000076,157.822754 163.269318,157.822754 169.764832,157.822754 
	C169.764832,140.539032 169.764832,123.489944 169.764832,106.301445 
	C163.140335,106.301445 156.755981,106.301445 149.815353,106.301445 
	C149.815353,111.321327 149.815353,116.039940 149.815353,120.757675 
	C143.647263,120.757675 138.040924,120.757675 132.411438,120.757675 
	C133.901779,109.030678 139.425735,104.014328 150.666641,104.008965 
	C157.949905,104.005486 165.233170,104.008308 172.596481,104.008308 
	C169.388184,88.995659 169.388184,88.994370 155.087234,88.996941 
	C152.590240,88.997391 150.080902,88.854881 147.598236,89.048111 
	C128.930191,90.501030 109.131493,100.589821 109.998245,128.393021 
M183.974319,148.460648 
	C183.974319,151.559357 183.974319,154.658081 183.974319,157.738220 
	C197.381119,157.738220 210.125427,157.738220 223.069901,157.738220 
	C224.344986,152.817993 225.568436,148.096924 226.957321,142.737549 
	C218.223892,142.737549 210.152039,142.737549 201.777939,142.737549 
	C201.777939,124.627983 201.777939,107.030121 201.777939,89.301178 
	C195.727020,89.301178 190.008469,89.301178 183.974319,89.301178 
	C183.974319,108.893013 183.974319,128.182892 183.974319,148.460648 
z"/>
    <path fill="#FEFEFF" opacity="1.000000" stroke="none"
          d="
M81.995476,142.995453 
	C81.995476,134.201584 81.995476,125.907066 81.995476,116.101791 
	C76.028275,123.063080 70.926697,129.014557 65.532013,135.307953 
	C60.555779,129.144180 55.780312,123.229103 50.295586,116.435501 
	C50.295586,130.725204 50.295586,144.044968 50.295586,157.678497 
	C44.007103,157.678497 38.283165,157.678497 32.276054,157.678497 
	C32.276054,135.030182 32.276054,112.428429 32.276054,89.056244 
	C37.696655,89.056244 43.286457,88.902542 48.854118,89.185074 
	C49.976395,89.242035 51.220264,90.800087 52.057446,91.926636 
	C56.505596,97.912270 60.842045,103.980919 65.442238,110.331528 
	C70.328743,104.020882 74.724113,97.939896 79.609299,92.281815 
	C81.077118,90.581764 83.835297,89.394478 86.131790,89.139885 
	C90.539764,88.651192 95.040329,88.997643 99.745743,88.997643 
	C99.745743,112.013504 99.745743,134.618835 99.745743,157.612488 
	C94.143463,157.612488 88.414864,157.612488 81.995476,157.612488 
	C81.995476,153.013306 81.995476,148.254059 81.995476,142.995453 
z"/>
    <path fill="#FDFEFE" opacity="1.000000" stroke="none"
          d="
M109.992256,127.920258 
	C109.131493,100.589821 128.930191,90.501030 147.598236,89.048111 
	C150.080902,88.854881 152.590240,88.997391 155.087234,88.996941 
	C169.388184,88.994370 169.388184,88.995659 172.596481,104.008308 
	C165.233170,104.008308 157.949905,104.005486 150.666641,104.008965 
	C139.425735,104.014328 133.901779,109.030678 132.411438,120.757675 
	C138.040924,120.757675 143.647263,120.757675 149.815353,120.757675 
	C149.815353,116.039940 149.815353,111.321327 149.815353,106.301445 
	C156.755981,106.301445 163.140335,106.301445 169.764832,106.301445 
	C169.764832,123.489944 169.764832,140.539032 169.764832,157.822754 
	C163.269318,157.822754 157.000076,157.822754 150.243958,157.822754 
	C150.243958,150.490082 150.243958,143.086502 150.243958,135.347382 
	C142.703918,135.347382 135.637100,135.347382 127.511742,135.347382 
	C130.161255,143.062317 132.711655,150.488647 135.511917,158.642548 
	C131.430222,161.439545 126.703453,164.678589 121.652748,168.139618 
	C115.535408,155.217697 110.808830,142.392349 109.992256,127.920258 
z"/>
    <path fill="#FEFEFF" opacity="1.000000" stroke="none"
          d="
M183.974319,147.966705 
	C183.974319,128.182892 183.974319,108.893013 183.974319,89.301178 
	C190.008469,89.301178 195.727020,89.301178 201.777939,89.301178 
	C201.777939,107.030121 201.777939,124.627983 201.777939,142.737549 
	C210.152039,142.737549 218.223892,142.737549 226.957321,142.737549 
	C225.568436,148.096924 224.344986,152.817993 223.069901,157.738220 
	C210.125427,157.738220 197.381119,157.738220 183.974319,157.738220 
	C183.974319,154.658081 183.974319,151.559357 183.974319,147.966705 
z"/>
</svg>