<?xml version="1.0" encoding="UTF-8" standalone="no"?>
<svg
        xmlns="http://www.w3.org/2000/svg"
        viewBox="0 0 190 190"
        version="1.1"
        id="svg17"
        width="190"
        height="190">

    <defs
            id="defs9">
        <linearGradient
                id="linear-gradient"
                y1="66.699997"
                x2="185.03999"
                y2="66.699997"
                gradientUnits="userSpaceOnUse">
            <stop
                    offset="0"
                    stop-color="#90cea1"
                    id="stop2"/>
            <stop
                    offset="0.56"
                    stop-color="#3cbec9"
                    id="stop4"/>
            <stop
                    offset="1"
                    stop-color="#00b3e5"
                    id="stop6"/>
        </linearGradient>
    </defs>
    <title
            id="title11">Asset 4
    </title>
    <g
            id="Layer_2"
            transform="translate(2.4521668,28.299836)">
        <g
                id="Layer_1-2">
            <path
                    style="fill:url(#linear-gradient)"
                    d="m 51.06,66.7 v 0 A 17.67,17.67 0 0 1 68.73,49 h -0.1 A 17.67,17.67 0 0 1 86.3,66.7 v 0 A 17.67,17.67 0 0 1 68.63,84.37 h 0.1 A 17.67,17.67 0 0 1 51.06,66.7 Z m 82.67,-31.33 h 32.9 A 17.67,17.67 0 0 0 184.3,17.7 v 0 A 17.67,17.67 0 0 0 166.63,0 h -32.9 a 17.67,17.67 0 0 0 -17.67,17.7 v 0 a 17.67,17.67 0 0 0 17.67,17.67 z m -113,98 h 63.9 A 17.67,17.67 0 0 0 102.3,115.7 v 0 A 17.67,17.67 0 0 0 84.63,98 H 20.73 A 17.67,17.67 0 0 0 3.06,115.7 v 0 a 17.67,17.67 0 0 0 17.67,17.67 z m 83.92,-49 h 6.25 L 125.5,49 h -8.35 l -8.9,23.2 h -0.1 L 99.4,49 h -8.9 z m 32.45,0 h 7.8 V 49 h -7.8 z m 22.2,0 h 24.95 V 77.2 H 167.1 V 70 h 15.35 V 62.8 H 167.1 v -6.6 h 16.25 V 49 h -24 z M 10.1,35.4 h 7.8 V 6.9 H 28 V 0 H 0 v 6.9 h 10.1 z m 28.9,0 h 7.8 V 20.1 h 15.1 v 15.3 h 7.8 V 0 H 61.9 V 13.2 H 46.75 V 0 H 39 Z m 41.25,0 h 25 V 28.2 H 88 V 21 h 15.35 V 13.8 H 88 V 7.2 h 16.25 V 0 h -24 z m -79,49 H 9 V 57.25 h 0.1 l 9,27.15 H 24 l 9.3,-27.15 h 0.1 V 84.4 h 7.8 V 49 H 29.45 l -8.2,23.1 h -0.1 L 13,49 H 1.2 Z m 112.09,49 H 126 a 24.59,24.59 0 0 0 7.56,-1.15 19.52,19.52 0 0 0 6.35,-3.37 16.37,16.37 0 0 0 4.37,-5.5 16.91,16.91 0 0 0 1.72,-7.58 18.5,18.5 0 0 0 -1.68,-8.25 15.1,15.1 0 0 0 -4.52,-5.53 A 18.55,18.55 0 0 0 133.07,99 33.54,33.54 0 0 0 125,98 h -11.71 z m 7.81,-28.2 h 4.6 a 17.43,17.43 0 0 1 4.67,0.62 11.68,11.68 0 0 1 3.88,1.88 9,9 0 0 1 2.62,3.18 9.87,9.87 0 0 1 1,4.52 11.92,11.92 0 0 1 -1,5.08 8.69,8.69 0 0 1 -2.67,3.34 10.87,10.87 0 0 1 -4,1.83 21.57,21.57 0 0 1 -5,0.55 h -4.15 z m 36.14,28.2 h 14.5 a 23.11,23.11 0 0 0 4.73,-0.5 13.38,13.38 0 0 0 4.27,-1.65 9.42,9.42 0 0 0 3.1,-3 8.52,8.52 0 0 0 1.2,-4.68 9.16,9.16 0 0 0 -0.55,-3.2 7.79,7.79 0 0 0 -1.57,-2.62 8.38,8.38 0 0 0 -2.45,-1.85 10,10 0 0 0 -3.18,-1 v -0.1 a 9.28,9.28 0 0 0 4.43,-2.82 7.42,7.42 0 0 0 1.67,-5 8.34,8.34 0 0 0 -1.15,-4.65 7.88,7.88 0 0 0 -3,-2.73 12.9,12.9 0 0 0 -4.17,-1.3 34.42,34.42 0 0 0 -4.63,-0.32 h -13.2 z m 7.8,-28.8 h 5.3 a 10.79,10.79 0 0 1 1.85,0.17 5.77,5.77 0 0 1 1.7,0.58 3.33,3.33 0 0 1 1.23,1.13 3.22,3.22 0 0 1 0.47,1.82 3.63,3.63 0 0 1 -0.42,1.8 3.34,3.34 0 0 1 -1.13,1.2 4.78,4.78 0 0 1 -1.57,0.65 8.16,8.16 0 0 1 -1.78,0.2 H 165 Z m 0,14.15 h 5.9 a 15.12,15.12 0 0 1 2.05,0.15 7.83,7.83 0 0 1 2,0.55 4,4 0 0 1 1.58,1.17 3.13,3.13 0 0 1 0.62,2 3.71,3.71 0 0 1 -0.47,1.95 4,4 0 0 1 -1.23,1.3 4.78,4.78 0 0 1 -1.67,0.7 8.91,8.91 0 0 1 -1.83,0.2 h -7 z"
                    id="path13"/>
        </g>
    </g>
</svg>
