<svg version="1.1" id="Layer_1" xmlns="http://www.w3.org/2000/svg"
     viewBox="0 0 1200 648" enable-background="new 0 0 1200 648">
    <path fill="#000000" opacity="1.000000" stroke="none"
          d="
M789.000000,649.000000 
	C526.000000,649.000000 263.500031,649.000000 1.000035,649.000000 
	C1.000023,433.000031 1.000023,217.000061 1.000012,1.000064 
	C400.999969,1.000043 800.999939,1.000043 1201.000000,1.000021 
	C1201.000000,216.999939 1201.000000,432.999878 1201.000000,648.999878 
	C1063.833374,649.000000 926.666687,649.000000 789.000000,649.000000 
M499.214661,164.672928 
	C491.891113,152.316635 482.063751,142.289505 470.517212,133.871231 
	C455.571167,122.974503 439.218567,115.788216 420.767670,112.700485 
	C407.710571,110.515396 394.691071,109.994911 381.956482,112.272118 
	C355.309418,117.037155 331.797302,128.518967 314.050110,149.628159 
	C307.463226,157.462891 300.923340,165.695908 296.272644,174.730774 
	C283.541809,199.462738 280.298950,226.107010 286.357910,253.057220 
	C294.445709,289.031860 315.560181,316.004913 348.541962,332.591705 
	C370.742188,343.756439 394.532928,347.179993 419.435120,343.148560 
	C445.187592,338.979462 466.880371,327.402039 485.124329,309.197723 
	C490.614136,303.719818 494.962189,297.097626 500.147919,291.625092 
	C500.610535,292.103882 501.163544,292.523285 501.522614,293.070068 
	C512.605469,309.946442 527.286438,322.961182 545.233398,331.916016 
	C564.740723,341.649475 585.445068,346.917969 607.440125,343.901978 
	C617.576782,342.511993 627.843567,340.892792 637.555664,337.813904 
	C663.206299,329.682220 682.513672,312.995300 697.875000,291.302673 
	C699.263062,293.289398 700.563171,295.344849 702.053284,297.251801 
	C712.798706,311.003448 725.248291,322.959259 740.892456,330.894440 
	C761.291199,341.241272 782.806580,346.323792 805.999878,344.168579 
	C820.447205,342.826141 834.242554,339.600952 847.134583,333.288025 
	C873.127563,320.559875 892.164734,300.902802 903.977600,274.325470 
	C913.610291,252.653152 915.660645,229.820511 911.664490,206.984924 
	C906.909119,179.811234 893.779297,156.748322 872.291382,138.657806 
	C852.863770,122.301826 830.537720,113.241379 805.498901,111.138908 
	C789.883362,109.827705 774.444397,111.804596 759.437256,116.840874 
	C745.418457,121.545441 732.818115,128.496658 721.395203,137.941162 
	C711.940918,145.757950 704.065857,154.766983 697.172302,164.619522 
	C690.476990,154.388077 682.569580,145.334869 673.101929,137.455399 
	C654.225098,121.745049 632.375488,113.192696 608.287720,111.205452 
	C584.985352,109.283020 562.639404,113.808968 541.958008,125.465820 
	C524.628845,135.233261 510.235413,147.976654 499.214661,164.672928 
M387.613220,471.000397 
	C398.223907,471.000397 408.834625,471.000397 419.498291,471.000397 
	C420.013245,485.320587 420.639557,499.042419 420.961121,512.771362 
	C421.251495,525.167908 427.646057,536.154602 438.608978,538.456055 
	C449.608978,540.765198 461.084290,540.810059 472.567596,541.867249 
	C472.567596,530.987671 472.567596,521.623901 472.567596,512.463379 
	C468.021149,511.942230 463.934540,511.360291 459.827698,511.029236 
	C453.475311,510.517242 450.208374,507.386261 450.037994,500.983276 
	C449.878571,494.990356 450.001068,488.989929 450.000122,482.992828 
	C449.999481,479.081879 450.000000,475.170929 450.000000,470.750366 
	C458.129730,470.750366 465.379700,470.750366 472.666992,470.750366 
	C472.666992,461.309631 472.666992,452.402130 472.666992,442.797302 
	C464.975952,442.797302 457.598175,442.797302 449.732178,442.797302 
	C449.732178,434.513824 449.732178,426.930328 449.732178,419.324951 
	C440.952057,419.324951 432.701569,419.324951 424.323853,419.324951 
	C423.853729,423.372925 423.443115,427.126129 422.976532,430.872345 
	C422.355927,435.855377 420.646149,440.155731 415.307770,441.754791 
	C413.595398,442.267731 411.739258,442.497864 409.946289,442.511353 
	C400.395050,442.583160 390.843048,442.545166 380.774170,442.545166 
	C380.774170,434.558228 380.774170,426.975647 380.774170,419.020813 
	C372.951233,419.020813 365.640076,418.850952 358.353027,419.193390 
	C357.182373,419.248352 355.445404,421.449249 355.140320,422.903625 
	C354.402374,426.421356 354.543182,430.113098 353.991638,433.682434 
	C352.781189,441.516144 349.888611,443.801270 341.646698,444.024017 
	C339.328217,444.086670 336.123566,443.113098 336.062531,447.081116 
	C335.942841,454.860565 336.027344,462.643158 336.027344,471.118042 
	C341.598724,471.118042 346.639313,471.118042 352.000000,471.118042 
	C352.000000,473.799835 351.957214,475.781311 352.006989,477.760437 
	C352.328094,490.533173 352.277985,503.331696 353.132660,516.069214 
	C353.773315,525.617310 357.839447,533.929077 367.362946,537.553833 
	C379.016998,541.989441 391.310944,541.264343 403.545837,540.782898 
	C403.545837,530.963989 403.545837,521.605652 403.545837,512.405396 
	C398.648224,511.903534 394.220947,511.402954 389.784149,511.009857 
	C386.138702,510.686798 383.119568,509.350189 382.776825,505.356323 
	C381.809296,494.082214 381.104858,482.785492 380.325745,471.903015 
	C382.045166,471.311005 382.346954,471.128998 382.656830,471.113922 
	C383.986237,471.049347 385.318085,471.033905 387.613220,471.000397 
M755.134094,520.517944 
	C761.413940,503.744476 761.701904,486.550934 757.549622,469.417694 
	C754.444458,456.605072 747.200134,446.208466 733.832275,442.575867 
	C718.107056,438.302643 704.021912,440.939911 693.733765,455.792358 
	C693.733765,440.941681 693.733765,426.091034 693.733765,411.391907 
	C683.520630,411.391907 673.942810,411.391907 664.324158,411.391907 
	C664.324158,454.685272 664.324158,497.585175 664.324158,540.741882 
	C673.235046,540.741882 681.822327,540.741882 690.669250,540.741882 
	C691.484985,536.337280 692.268555,532.105896 693.131653,527.445007 
	C703.679749,542.348206 713.888184,545.343201 731.465088,541.929810 
	C743.033020,539.683350 750.413574,531.913635 755.134094,520.517944 
M1055.162964,411.060760 
	C1045.906250,411.060760 1036.649536,411.060760 1027.000000,411.060760 
	C1027.000000,418.716339 1027.000000,425.685272 1027.000000,432.654236 
	C1027.000000,439.723785 1027.000000,446.793335 1027.000000,454.546295 
	C1025.014282,452.541351 1023.502258,451.263947 1022.287109,449.748505 
	C1011.840942,436.720062 984.576660,439.714752 974.889587,449.446381 
	C967.057983,457.314087 963.176025,466.543945 961.881165,477.385071 
	C960.215820,491.328644 960.349976,505.032440 964.994385,518.450684 
	C970.381592,534.014832 984.252625,543.962891 999.873657,542.903198 
	C1011.596497,542.107971 1021.620789,537.860168 1027.975830,525.398499 
	C1028.802734,530.335999 1029.225220,534.000061 1030.112183,537.547974 
	C1030.431885,538.826721 1031.836182,540.772156 1032.799194,540.804260 
	C1040.718750,541.068481 1048.650757,540.953491 1056.722290,540.953491 
	C1056.843750,539.152771 1056.987671,538.012390 1056.988037,536.872009 
	C1056.999756,496.397949 1057.007446,455.923889 1056.960083,415.449860 
	C1056.958374,414.049530 1056.387939,412.649872 1055.162964,411.060760 
M237.990524,517.425232 
	C241.396149,526.912292 247.739365,533.768188 256.856506,537.927612 
	C271.107208,544.429016 285.922943,544.540894 300.879730,541.090698 
	C317.816895,537.183655 327.464325,526.004089 331.986877,509.014343 
	C321.449585,509.014343 311.338623,508.940399 301.232056,509.116791 
	C300.091278,509.136719 298.698700,510.352295 297.892120,511.381226 
	C292.399078,518.388611 287.305573,519.296448 277.931763,517.303833 
	C270.480103,515.719849 266.216003,509.714111 265.310242,500.940002 
	C287.745544,500.940002 310.127777,500.940002 333.851685,500.940002 
	C332.577393,491.288513 331.923828,482.276184 330.105682,473.505249 
	C327.272583,459.838074 318.941803,450.403809 305.997162,444.967041 
	C294.109863,439.974365 281.778900,439.718994 269.580902,442.425629 
	C258.995117,444.774475 249.712677,449.875061 243.114136,459.245209 
	C233.698334,472.615997 233.303696,487.688782 234.255890,502.970581 
	C234.543503,507.586700 236.605576,512.092224 237.990524,517.425232 
M543.800781,442.464600 
	C535.103699,442.304596 526.340576,441.389465 517.723267,442.142273 
	C499.958954,443.694214 485.257141,457.290466 480.990295,474.674774 
	C478.218964,485.965973 477.934753,497.444122 480.232819,508.621094 
	C482.828094,521.243774 489.024078,532.100952 501.543091,537.790283 
	C518.029114,545.282532 535.187134,545.262878 551.782654,539.413940 
	C565.404236,534.613220 573.718201,523.887207 576.771118,509.010529 
	C566.437866,509.010529 556.452332,508.958313 546.469116,509.083557 
	C545.353149,509.097534 543.748657,509.823059 543.219849,510.719482 
	C538.982544,517.902039 532.248718,518.645386 525.016113,517.948181 
	C516.969421,517.172607 510.039612,508.823853 510.635284,500.729645 
	C532.968933,500.729645 555.357056,500.729645 578.423279,500.729645 
	C577.911255,494.607819 577.206238,489.191315 577.049561,483.758942 
	C576.500183,464.717346 564.498962,447.324768 543.800781,442.464600 
M785.552490,535.034790 
	C800.166443,544.320740 816.305298,545.009705 832.384277,541.558044 
	C849.390625,537.907349 860.256104,526.917542 864.250427,509.549896 
	C866.662537,499.061646 866.924377,488.506073 864.870911,478.080811 
	C861.672180,461.840942 853.027222,449.687439 836.751404,444.038025 
	C826.020264,440.313202 815.006531,439.834534 804.039490,442.182312 
	C786.323303,445.974884 773.643799,457.621979 769.810059,476.744598 
	C767.829041,486.625793 767.457275,496.408020 769.093872,506.235901 
	C770.971436,517.510437 775.186401,527.646240 785.552490,535.034790 
M950.516052,463.051666 
	C954.938354,456.616974 959.360657,450.182281 964.296143,443.000885 
	C953.260010,443.000885 943.447021,443.105621 933.638428,442.942810 
	C930.309509,442.887573 928.216370,443.795258 926.424377,446.860901 
	C922.585999,453.427490 918.205200,459.677063 913.677124,466.623047 
	C909.822205,460.574768 906.163086,455.323700 903.031067,449.775055 
	C900.180420,444.724792 896.732544,442.322540 890.498535,442.824829 
	C881.832336,443.523071 873.067749,443.000488 863.504395,443.000488 
	C864.752380,445.192780 865.374023,446.499939 866.185059,447.676544 
	C875.140320,460.667969 884.097961,473.658020 893.129089,486.596710 
	C894.596802,488.699402 895.116150,490.257050 893.261414,492.644714 
	C889.441772,497.561737 886.103577,502.851257 882.534729,507.964783 
	C875.049988,518.689087 867.544312,529.398743 859.427551,541.000061 
	C870.860962,541.000061 881.285034,540.822205 891.697510,541.092224 
	C895.568665,541.192749 897.476196,539.615540 899.348022,536.462097 
	C903.807251,528.949951 908.723511,521.709106 913.573181,514.175354 
	C918.904724,522.366028 923.868225,530.091187 928.967224,537.725769 
	C929.818054,538.999695 931.239441,540.776794 932.429688,540.802246 
	C943.488403,541.038452 954.554199,540.941895 966.601135,540.941895 
	C954.806824,523.232788 943.618835,506.434174 932.296021,489.433014 
	C938.207825,480.896301 944.170593,472.285858 950.516052,463.051666 
M177.000000,487.499969 
	C177.000000,465.096558 177.000000,442.693146 177.000000,420.386536 
	C165.869598,420.386536 155.627838,420.386536 145.318787,420.386536 
	C145.318787,460.673431 145.318787,500.574310 145.318787,540.566772 
	C172.328629,540.566772 199.017532,540.566772 225.622147,540.566772 
	C225.622147,530.219849 225.622147,520.309814 225.622147,509.885010 
	C209.338699,509.885010 193.426788,509.885010 177.000000,509.885010 
	C177.000000,502.411926 177.000000,495.455902 177.000000,487.499969 
M589.000610,463.500183 
	C589.000610,489.243225 589.000610,514.986267 589.000610,540.610718 
	C600.134216,540.610718 610.380188,540.610718 621.000000,540.610718 
	C621.000000,538.414185 620.999939,536.605042 621.000000,534.795898 
	C621.000183,520.795898 620.868713,506.794281 621.043396,492.796509 
	C621.176025,482.163544 625.534180,475.256073 636.868286,474.918304 
	C642.430176,474.752533 647.973877,473.975616 653.715393,473.458191 
	C653.715393,463.081360 653.715393,452.837524 653.715393,441.226532 
	C646.357117,442.145752 639.252563,442.376923 632.506836,444.052307 
	C625.087585,445.894928 620.866577,451.944702 617.733032,460.006927 
	C616.615051,454.534943 615.951111,450.362762 614.825806,446.318909 
	C614.471313,445.045044 612.913391,443.212524 611.849487,443.173279 
	C604.415039,442.898926 596.965698,443.028107 589.000610,443.028107 
	C589.000610,449.918854 589.000610,456.209656 589.000610,463.500183 
z"/>
    <path fill="#40BCF4" opacity="1.000000" stroke="none"
          d="
M697.612793,165.115677 
	C704.065857,154.766983 711.940918,145.757950 721.395203,137.941162 
	C732.818115,128.496658 745.418457,121.545441 759.437256,116.840874 
	C774.444397,111.804596 789.883362,109.827705 805.498901,111.138908 
	C830.537720,113.241379 852.863770,122.301826 872.291382,138.657806 
	C893.779297,156.748322 906.909119,179.811234 911.664490,206.984924 
	C915.660645,229.820511 913.610291,252.653152 903.977600,274.325470 
	C892.164734,300.902802 873.127563,320.559875 847.134583,333.288025 
	C834.242554,339.600952 820.447205,342.826141 805.999878,344.168579 
	C782.806580,346.323792 761.291199,341.241272 740.892456,330.894440 
	C725.248291,322.959259 712.798706,311.003448 702.053284,297.251801 
	C700.563171,295.344849 699.263062,293.289398 697.645630,290.806885 
	C697.483032,289.944977 697.549866,289.578857 697.795349,288.950623 
	C721.325928,247.875519 721.040649,207.113831 697.687805,166.080292 
	C697.648926,165.544189 697.630859,165.329926 697.612793,165.115677 
z"/>
    <path fill="#FF8000" opacity="1.000000" stroke="none"
          d="
M499.833313,290.999634 
	C494.962189,297.097626 490.614136,303.719818 485.124329,309.197723 
	C466.880371,327.402039 445.187592,338.979462 419.435120,343.148560 
	C394.532928,347.179993 370.742188,343.756439 348.541962,332.591705 
	C315.560181,316.004913 294.445709,289.031860 286.357910,253.057220 
	C280.298950,226.107010 283.541809,199.462738 296.272644,174.730774 
	C300.923340,165.695908 307.463226,157.462891 314.050110,149.628159 
	C331.797302,128.518967 355.309418,117.037155 381.956482,112.272118 
	C394.691071,109.994911 407.710571,110.515396 420.767670,112.700485 
	C439.218567,115.788216 455.571167,122.974503 470.517212,133.871231 
	C482.063751,142.289505 491.891113,152.316635 499.564667,165.119644 
	C499.894043,165.938538 499.873413,166.310730 499.563416,166.886520 
	C488.316101,184.963562 482.185059,204.292984 482.084564,225.337784 
	C482.055420,231.440887 482.473694,237.572784 483.109314,243.647263 
	C484.838470,260.172180 490.770813,275.202362 499.874329,289.371521 
	C499.875488,290.132538 499.854401,290.566101 499.833313,290.999634 
z"/>
    <path fill="#00E054" opacity="1.000000" stroke="none"
          d="
M499.852783,166.682907 
	C499.873413,166.310730 499.894043,165.938538 499.858459,165.292480 
	C510.235413,147.976654 524.628845,135.233261 541.958008,125.465820 
	C562.639404,113.808968 584.985352,109.283020 608.287720,111.205452 
	C632.375488,113.192696 654.225098,121.745049 673.101929,137.455399 
	C682.569580,145.334869 690.476990,154.388077 697.392578,164.867599 
	C697.630859,165.329926 697.648926,165.544189 697.469971,166.283539 
	C682.326843,191.133942 676.917419,217.447464 681.236023,245.643234 
	C683.629211,261.267639 688.837708,275.937561 697.616699,289.212708 
	C697.549866,289.578857 697.483032,289.944977 697.392944,290.588806 
	C682.513672,312.995300 663.206299,329.682220 637.555664,337.813904 
	C627.843567,340.892792 617.576782,342.511993 607.440125,343.901978 
	C585.445068,346.917969 564.740723,341.649475 545.233398,331.916016 
	C527.286438,322.961182 512.605469,309.946442 501.522614,293.070068 
	C501.163544,292.523285 500.610535,292.103882 499.990601,291.312378 
	C499.854401,290.566101 499.875488,290.132538 500.122925,289.126160 
	C504.568634,279.010956 509.570251,269.726990 512.827271,259.866760 
	C517.940796,244.386093 517.863464,228.308670 516.109985,212.152420 
	C514.316589,195.628235 508.925049,180.533325 499.852783,166.682907 
z"/>
    <path fill="#556677" opacity="1.000000" stroke="none"
          d="
M387.131104,471.000458 
	C385.318085,471.033905 383.986237,471.049347 382.656830,471.113922 
	C382.346954,471.128998 382.045166,471.311005 380.325745,471.903015 
	C381.104858,482.785492 381.809296,494.082214 382.776825,505.356323 
	C383.119568,509.350189 386.138702,510.686798 389.784149,511.009857 
	C394.220947,511.402954 398.648224,511.903534 403.545837,512.405396 
	C403.545837,521.605652 403.545837,530.963989 403.545837,540.782898 
	C391.310944,541.264343 379.016998,541.989441 367.362946,537.553833 
	C357.839447,533.929077 353.773315,525.617310 353.132660,516.069214 
	C352.277985,503.331696 352.328094,490.533173 352.006989,477.760437 
	C351.957214,475.781311 352.000000,473.799835 352.000000,471.118042 
	C346.639313,471.118042 341.598724,471.118042 336.027344,471.118042 
	C336.027344,462.643158 335.942841,454.860565 336.062531,447.081116 
	C336.123566,443.113098 339.328217,444.086670 341.646698,444.024017 
	C349.888611,443.801270 352.781189,441.516144 353.991638,433.682434 
	C354.543182,430.113098 354.402374,426.421356 355.140320,422.903625 
	C355.445404,421.449249 357.182373,419.248352 358.353027,419.193390 
	C365.640076,418.850952 372.951233,419.020813 380.774170,419.020813 
	C380.774170,426.975647 380.774170,434.558228 380.774170,442.545166 
	C390.843048,442.545166 400.395050,442.583160 409.946289,442.511353 
	C411.739258,442.497864 413.595398,442.267731 415.307770,441.754791 
	C420.646149,440.155731 422.355927,435.855377 422.976532,430.872345 
	C423.443115,427.126129 423.853729,423.372925 424.323853,419.324951 
	C432.701569,419.324951 440.952057,419.324951 449.732178,419.324951 
	C449.732178,426.930328 449.732178,434.513824 449.732178,442.797302 
	C457.598175,442.797302 464.975952,442.797302 472.666992,442.797302 
	C472.666992,452.402130 472.666992,461.309631 472.666992,470.750366 
	C465.379700,470.750366 458.129730,470.750366 450.000000,470.750366 
	C450.000000,475.170929 449.999481,479.081879 450.000122,482.992828 
	C450.001068,488.989929 449.878571,494.990356 450.037994,500.983276 
	C450.208374,507.386261 453.475311,510.517242 459.827698,511.029236 
	C463.934540,511.360291 468.021149,511.942230 472.567596,512.463379 
	C472.567596,521.623901 472.567596,530.987671 472.567596,541.867249 
	C461.084290,540.810059 449.608978,540.765198 438.608978,538.456055 
	C427.646057,536.154602 421.251495,525.167908 420.961121,512.771362 
	C420.639557,499.042419 420.013245,485.320587 419.498291,471.000397 
	C408.834625,471.000397 398.223907,471.000397 387.131104,471.000458 
z"/>
    <path fill="#556677" opacity="1.000000" stroke="none"
          d="
M755.026611,520.888916 
	C750.413574,531.913635 743.033020,539.683350 731.465088,541.929810 
	C713.888184,545.343201 703.679749,542.348206 693.131653,527.445007 
	C692.268555,532.105896 691.484985,536.337280 690.669250,540.741882 
	C681.822327,540.741882 673.235046,540.741882 664.324158,540.741882 
	C664.324158,497.585175 664.324158,454.685272 664.324158,411.391907 
	C673.942810,411.391907 683.520630,411.391907 693.733765,411.391907 
	C693.733765,426.091034 693.733765,440.941681 693.733765,455.792358 
	C704.021912,440.939911 718.107056,438.302643 733.832275,442.575867 
	C747.200134,446.208466 754.444458,456.605072 757.549622,469.417694 
	C761.701904,486.550934 761.413940,503.744476 755.026611,520.888916 
M695.012451,501.219910 
	C695.343994,502.317810 695.640015,503.427948 696.013000,504.511597 
	C698.154053,510.732239 704.611389,515.993896 711.335266,515.858582 
	C717.890991,515.726807 723.489136,513.255249 726.237793,506.444794 
	C730.043945,497.013763 730.171021,487.539886 726.978271,477.994141 
	C722.812866,465.540466 706.295898,462.921814 698.310730,474.207397 
	C692.558655,482.336884 693.386353,491.303955 695.012451,501.219910 
z"/>
    <path fill="#556677" opacity="1.000000" stroke="none"
          d="
M1055.622803,411.155334 
	C1056.387939,412.649872 1056.958374,414.049530 1056.960083,415.449860 
	C1057.007446,455.923889 1056.999756,496.397949 1056.988037,536.872009 
	C1056.987671,538.012390 1056.843750,539.152771 1056.722290,540.953491 
	C1048.650757,540.953491 1040.718750,541.068481 1032.799194,540.804260 
	C1031.836182,540.772156 1030.431885,538.826721 1030.112183,537.547974 
	C1029.225220,534.000061 1028.802734,530.335999 1027.975830,525.398499 
	C1021.620789,537.860168 1011.596497,542.107971 999.873657,542.903198 
	C984.252625,543.962891 970.381592,534.014832 964.994385,518.450684 
	C960.349976,505.032440 960.215820,491.328644 961.881165,477.385071 
	C963.176025,466.543945 967.057983,457.314087 974.889587,449.446381 
	C984.576660,439.714752 1011.840942,436.720062 1022.287109,449.748505 
	C1023.502258,451.263947 1025.014282,452.541351 1027.000000,454.546295 
	C1027.000000,446.793335 1027.000000,439.723785 1027.000000,432.654236 
	C1027.000000,425.685272 1027.000000,418.716339 1027.000000,411.060760 
	C1036.649536,411.060760 1045.906250,411.060760 1055.622803,411.155334 
M1007.797668,515.973328 
	C1013.810608,516.118896 1018.740234,513.929443 1022.353943,509.068787 
	C1028.134277,501.293732 1028.630005,483.485474 1023.516602,475.038422 
	C1019.977722,469.192352 1014.558594,466.555328 1008.180176,467.177551 
	C1001.476257,467.831604 995.984253,471.133392 994.040283,478.330933 
	C993.404053,480.686554 992.911987,483.080933 992.347168,485.455963 
	C989.111694,499.061188 995.082153,511.489227 1007.797668,515.973328 
z"/>
    <path fill="#556677" opacity="1.000000" stroke="none"
          d="
M237.922684,517.036865 
	C236.605576,512.092224 234.543503,507.586700 234.255890,502.970581 
	C233.303696,487.688782 233.698334,472.615997 243.114136,459.245209 
	C249.712677,449.875061 258.995117,444.774475 269.580902,442.425629 
	C281.778900,439.718994 294.109863,439.974365 305.997162,444.967041 
	C318.941803,450.403809 327.272583,459.838074 330.105682,473.505249 
	C331.923828,482.276184 332.577393,491.288513 333.851685,500.940002 
	C310.127777,500.940002 287.745544,500.940002 265.310242,500.940002 
	C266.216003,509.714111 270.480103,515.719849 277.931763,517.303833 
	C287.305573,519.296448 292.399078,518.388611 297.892120,511.381226 
	C298.698700,510.352295 300.091278,509.136719 301.232056,509.116791 
	C311.338623,508.940399 321.449585,509.014343 331.986877,509.014343 
	C327.464325,526.004089 317.816895,537.183655 300.879730,541.090698 
	C285.922943,544.540894 271.107208,544.429016 256.856506,537.927612 
	C247.739365,533.768188 241.396149,526.912292 237.922684,517.036865 
M267.431488,474.089905 
	C266.644104,476.198242 265.856720,478.306580 264.973175,480.672363 
	C277.205658,480.672363 288.927948,480.672363 300.622101,480.672363 
	C301.126312,473.984985 296.998260,468.212372 290.378326,465.985443 
	C281.745789,463.081451 272.822632,466.051910 267.431488,474.089905 
z"/>
    <path fill="#556677" opacity="1.000000" stroke="none"
          d="
M544.171936,442.659698 
	C564.498962,447.324768 576.500183,464.717346 577.049561,483.758942 
	C577.206238,489.191315 577.911255,494.607819 578.423279,500.729645 
	C555.357056,500.729645 532.968933,500.729645 510.635284,500.729645 
	C510.039612,508.823853 516.969421,517.172607 525.016113,517.948181 
	C532.248718,518.645386 538.982544,517.902039 543.219849,510.719482 
	C543.748657,509.823059 545.353149,509.097534 546.469116,509.083557 
	C556.452332,508.958313 566.437866,509.010529 576.771118,509.010529 
	C573.718201,523.887207 565.404236,534.613220 551.782654,539.413940 
	C535.187134,545.262878 518.029114,545.282532 501.543091,537.790283 
	C489.024078,532.100952 482.828094,521.243774 480.232819,508.621094 
	C477.934753,497.444122 478.218964,485.965973 480.990295,474.674774 
	C485.257141,457.290466 499.958954,443.694214 517.723267,442.142273 
	C526.340576,441.389465 535.103699,442.304596 544.171936,442.659698 
M530.300903,465.001617 
	C518.613281,465.020447 512.241394,470.056030 510.492950,480.746002 
	C522.418640,480.746002 534.325867,480.746002 546.259277,480.746002 
	C545.207764,471.313049 540.782349,466.762177 530.300903,465.001617 
z"/>
    <path fill="#556677" opacity="1.000000" stroke="none"
          d="
M785.286194,534.780762 
	C775.186401,527.646240 770.971436,517.510437 769.093872,506.235901 
	C767.457275,496.408020 767.829041,486.625793 769.810059,476.744598 
	C773.643799,457.621979 786.323303,445.974884 804.039490,442.182312 
	C815.006531,439.834534 826.020264,440.313202 836.751404,444.038025 
	C853.027222,449.687439 861.672180,461.840942 864.870911,478.080811 
	C866.924377,488.506073 866.662537,499.061646 864.250427,509.549896 
	C860.256104,526.917542 849.390625,537.907349 832.384277,541.558044 
	C816.305298,545.009705 800.166443,544.320740 785.286194,534.780762 
M831.069275,509.390472 
	C836.878723,498.770416 836.433044,487.750488 832.238281,476.934692 
	C830.374939,472.130188 826.383240,468.430176 820.659546,468.054932 
	C814.076294,467.623352 807.827271,468.061401 803.706787,474.581573 
	C798.719543,482.473267 798.334412,490.790222 799.886597,499.704468 
	C801.217712,507.349091 804.476990,512.896057 812.276306,515.177673 
	C819.526123,517.298584 825.606506,515.651733 831.069275,509.390472 
z"/>
    <path fill="#556677" opacity="1.000000" stroke="none"
          d="
M950.324707,463.363556 
	C944.170593,472.285858 938.207825,480.896301 932.296021,489.433014 
	C943.618835,506.434174 954.806824,523.232788 966.601135,540.941895 
	C954.554199,540.941895 943.488403,541.038452 932.429688,540.802246 
	C931.239441,540.776794 929.818054,538.999695 928.967224,537.725769 
	C923.868225,530.091187 918.904724,522.366028 913.573181,514.175354 
	C908.723511,521.709106 903.807251,528.949951 899.348022,536.462097 
	C897.476196,539.615540 895.568665,541.192749 891.697510,541.092224 
	C881.285034,540.822205 870.860962,541.000061 859.427551,541.000061 
	C867.544312,529.398743 875.049988,518.689087 882.534729,507.964783 
	C886.103577,502.851257 889.441772,497.561737 893.261414,492.644714 
	C895.116150,490.257050 894.596802,488.699402 893.129089,486.596710 
	C884.097961,473.658020 875.140320,460.667969 866.185059,447.676544 
	C865.374023,446.499939 864.752380,445.192780 863.504395,443.000488 
	C873.067749,443.000488 881.832336,443.523071 890.498535,442.824829 
	C896.732544,442.322540 900.180420,444.724792 903.031067,449.775055 
	C906.163086,455.323700 909.822205,460.574768 913.677124,466.623047 
	C918.205200,459.677063 922.585999,453.427490 926.424377,446.860901 
	C928.216370,443.795258 930.309509,442.887573 933.638428,442.942810 
	C943.447021,443.105621 953.260010,443.000885 964.296143,443.000885 
	C959.360657,450.182281 954.938354,456.616974 950.324707,463.363556 
z"/>
    <path fill="#556677" opacity="1.000000" stroke="none"
          d="
M177.000000,487.999939 
	C177.000000,495.455902 177.000000,502.411926 177.000000,509.885010 
	C193.426788,509.885010 209.338699,509.885010 225.622147,509.885010 
	C225.622147,520.309814 225.622147,530.219849 225.622147,540.566772 
	C199.017532,540.566772 172.328629,540.566772 145.318787,540.566772 
	C145.318787,500.574310 145.318787,460.673431 145.318787,420.386536 
	C155.627838,420.386536 165.869598,420.386536 177.000000,420.386536 
	C177.000000,442.693146 177.000000,465.096558 177.000000,487.999939 
z"/>
    <path fill="#556677" opacity="1.000000" stroke="none"
          d="
M589.000610,463.000305 
	C589.000610,456.209656 589.000610,449.918854 589.000610,443.028107 
	C596.965698,443.028107 604.415039,442.898926 611.849487,443.173279 
	C612.913391,443.212524 614.471313,445.045044 614.825806,446.318909 
	C615.951111,450.362762 616.615051,454.534943 617.733032,460.006927 
	C620.866577,451.944702 625.087585,445.894928 632.506836,444.052307 
	C639.252563,442.376923 646.357117,442.145752 653.715393,441.226532 
	C653.715393,452.837524 653.715393,463.081360 653.715393,473.458191 
	C647.973877,473.975616 642.430176,474.752533 636.868286,474.918304 
	C625.534180,475.256073 621.176025,482.163544 621.043396,492.796509 
	C620.868713,506.794281 621.000183,520.795898 621.000000,534.795898 
	C620.999939,536.605042 621.000000,538.414185 621.000000,540.610718 
	C610.380188,540.610718 600.134216,540.610718 589.000610,540.610718 
	C589.000610,514.986267 589.000610,489.243225 589.000610,463.000305 
z"/>
    <path fill="#546777" opacity="1.000000" stroke="none"
          d="
M697.795288,288.950623 
	C688.837708,275.937561 683.629211,261.267639 681.236023,245.643234 
	C676.917419,217.447464 682.326843,191.133942 697.490723,166.605392 
	C721.040649,207.113831 721.325928,247.875519 697.795288,288.950623 
z"/>
    <path fill="#566776" opacity="1.000000" stroke="none"
          d="
M499.563416,166.886520 
	C508.925049,180.533325 514.316589,195.628235 516.109985,212.152420 
	C517.863464,228.308670 517.940796,244.386093 512.827271,259.866760 
	C509.570251,269.726990 504.568634,279.010956 500.100647,288.798706 
	C490.770813,275.202362 484.838470,260.172180 483.109314,243.647263 
	C482.473694,237.572784 482.055420,231.440887 482.084564,225.337784 
	C482.185059,204.292984 488.316101,184.963562 499.563416,166.886520 
z"/>
    <path fill="#000000" opacity="1.000000" stroke="none"
          d="
M694.983398,500.794525 
	C693.386353,491.303955 692.558655,482.336884 698.310730,474.207397 
	C706.295898,462.921814 722.812866,465.540466 726.978271,477.994141 
	C730.171021,487.539886 730.043945,497.013763 726.237793,506.444794 
	C723.489136,513.255249 717.890991,515.726807 711.335266,515.858582 
	C704.611389,515.993896 698.154053,510.732239 696.013000,504.511597 
	C695.640015,503.427948 695.343994,502.317810 694.983398,500.794525 
z"/>
    <path fill="#000000" opacity="1.000000" stroke="none"
          d="
M1007.386108,515.936523 
	C995.082153,511.489227 989.111694,499.061188 992.347168,485.455963 
	C992.911987,483.080933 993.404053,480.686554 994.040283,478.330933 
	C995.984253,471.133392 1001.476257,467.831604 1008.180176,467.177551 
	C1014.558594,466.555328 1019.977722,469.192352 1023.516602,475.038422 
	C1028.630005,483.485474 1028.134277,501.293732 1022.353943,509.068787 
	C1018.740234,513.929443 1013.810608,516.118896 1007.386108,515.936523 
z"/>
    <path fill="#000000" opacity="1.000000" stroke="none"
          d="
M267.648987,473.784668 
	C272.822632,466.051910 281.745789,463.081451 290.378326,465.985443 
	C296.998260,468.212372 301.126312,473.984985 300.622101,480.672363 
	C288.927948,480.672363 277.205658,480.672363 264.973175,480.672363 
	C265.856720,478.306580 266.644104,476.198242 267.648987,473.784668 
z"/>
    <path fill="#000000" opacity="1.000000" stroke="none"
          d="
M530.736328,465.003754 
	C540.782349,466.762177 545.207764,471.313049 546.259277,480.746002 
	C534.325867,480.746002 522.418640,480.746002 510.492950,480.746002 
	C512.241394,470.056030 518.613281,465.020447 530.736328,465.003754 
z"/>
    <path fill="#000000" opacity="1.000000" stroke="none"
          d="
M830.818420,509.664551 
	C825.606506,515.651733 819.526123,517.298584 812.276306,515.177673 
	C804.476990,512.896057 801.217712,507.349091 799.886597,499.704468 
	C798.334412,490.790222 798.719543,482.473267 803.706787,474.581573 
	C807.827271,468.061401 814.076294,467.623352 820.659546,468.054932 
	C826.383240,468.430176 830.374939,472.130188 832.238281,476.934692 
	C836.433044,487.750488 836.878723,498.770416 830.818420,509.664551 
z"/>
</svg>