<?xml version="1.0" encoding="UTF-8" standalone="no"?>
<svg
        width="327.267"
        height="409.63965"
        viewBox="0 0 327.267 409.63965"
        version="1.1"
        xml:space="preserve"
        style="clip-rule:evenodd;fill-rule:evenodd;stroke-linejoin:round;stroke-miterlimit:2"
        id="svg8"
        sodipodi:docname="splashscreen.svg"
        inkscape:export-xdpi="192"
        inkscape:export-ydpi="192"
        inkscape:version="1.2.1 (9c6d41e, 2022-07-14)"
        xmlns:inkscape="http://www.inkscape.org/namespaces/inkscape"
        xmlns:sodipodi="http://sodipodi.sourceforge.net/DTD/sodipodi-0.dtd"
        xmlns="http://www.w3.org/2000/svg"
        xmlns:rdf="http://www.w3.org/1999/02/22-rdf-syntax-ns#"
        xmlns:cc="http://creativecommons.org/ns#"
        xmlns:dc="http://purl.org/dc/elements/1.1/"
        xmlns:serif="http://www.serif.com/"><metadata
   id="metadata14"><rdf:RDF><cc:Work
       rdf:about=""><dc:format>image/svg+xml</dc:format><dc:type
        rdf:resource="http://purl.org/dc/dcmitype/StillImage"/></cc:Work></rdf:RDF></metadata>
    <defs
            id="defs12"/>
    <sodipodi:namedview
            pagecolor="#ffffff"
            bordercolor="#666666"
            borderopacity="1"
            objecttolerance="10"
            gridtolerance="10"
            guidetolerance="10"
            inkscape:pageopacity="0"
            inkscape:pageshadow="2"
            inkscape:window-width="1484"
            inkscape:window-height="893"
            id="namedview10"
            showgrid="false"
            inkscape:zoom="0.8567886"
            inkscape:cx="139.47431"
            inkscape:cy="198.99891"
            inkscape:window-x="2027"
            inkscape:window-y="157"
            inkscape:window-maximized="0"
            inkscape:current-layer="Splashscreen-Orange"
            inkscape:showpageshadow="0"
            inkscape:pagecheckerboard="0"
            inkscape:deskcolor="#d1d1d1"/>
    <g
            id="Splashscreen-Orange"
            serif:id="Splashscreen Orange"
            transform="translate(-50.86,-33)">
        <path
                id="Shape-12"
                serif:id="Shape 12"
                d="m 58.86,33 h 311.267 c 4.418,0 8,3.089114 8,6.899194 V 435.74046 c 0,3.81008 -3.582,6.89919 -8,6.89919 H 58.86 c -4.418,0 -8,-3.08911 -8,-6.89919 V 39.899194 C 50.86,36.089114 54.442,33 58.86,33 Z"
                style="fill:#272727;stroke-width:0.928655"
                inkscape:connector-curvature="0"/>
        <path
                id="collect--check-and-complete--your-personal-movie---tv-show-coll"
                serif:id="collect, check and complete  your personal movie &amp; tv show coll"
                d="m 206.897,258.582 -0.005,-0.125 c 0,-1.769 1.002,-5.476 4.16,-5.476 1.372,0 1.695,0.707 1.695,1.476 0,1.77 -1.695,3.139 -3.544,3.247 -0.015,0.215 -0.03,0.43 -0.03,0.615 0,1.046 0.369,1.292 1.109,1.292 1.217,0 1.957,-0.676 2.727,-1.553 l 1.049,-4.939 h 2.218 l -0.2,0.954 c 0.539,-0.462 1.125,-0.954 1.864,-0.954 0.694,0 1.064,0.569 1.064,1.154 0,0.538 -0.355,1.123 -1.11,1.123 -0.863,0 -0.431,-1.015 -0.893,-1.015 -0.463,0 -0.74,0.23 -1.125,0.584 l -1.233,5.846 h -2.219 l 0.364,-1.711 c -0.835,0.999 -1.956,1.804 -3.492,1.804 -1.099,0 -1.915,-0.408 -2.242,-1.365 -0.608,0.875 -1.378,1.213 -2.043,1.395 l -0.231,1.108 c -0.462,2.2 -1.756,2.615 -2.773,2.615 -0.94,0 -1.726,-0.492 -1.726,-1.492 0,-1.292 1.356,-1.938 2.512,-2.292 l 0.184,-0.816 c -0.446,0.477 -1.047,0.847 -1.849,0.847 -0.808,0 -1.59,-0.386 -1.901,-1.404 -0.807,1.207 -1.764,1.404 -2.398,1.404 -0.863,0 -1.418,-0.493 -1.51,-1.416 -0.478,0.708 -1.202,1.416 -2.296,1.416 -0.797,0 -1.566,-0.374 -1.888,-1.358 -0.739,1.174 -1.565,1.358 -2.181,1.358 -1.34,0 -1.818,-0.862 -1.818,-1.739 0,-1.046 0.693,-2.938 0.693,-3.923 0,-0.508 -0.185,-0.785 -0.554,-0.785 -0.555,0 -0.971,0.647 -1.202,1.416 l -1.048,4.938 h -2.219 l 0.183,-0.86 c -0.72,0.807 -1.503,0.953 -2.048,0.953 -0.863,0 -1.418,-0.493 -1.51,-1.416 -0.478,0.708 -1.202,1.416 -2.296,1.416 -1.048,0 -2.049,-0.647 -2.049,-2.477 0,-2.077 1.279,-5.385 3.96,-5.385 0.878,0 1.248,0.339 1.248,0.785 v 0.107 l 0.169,-0.815 h 2.219 l -1.109,5.231 c -0.047,0.2 -0.062,0.354 -0.062,0.492 0,0.431 0.2,0.662 0.632,0.662 0.601,0 1.017,-0.677 1.248,-1.447 v 0 l 1.048,-4.938 h 2.219 l -0.169,0.8 c 0.647,-0.738 1.325,-0.862 1.802,-0.862 0.987,0 1.711,0.508 1.711,1.739 0,1.246 -0.74,3.108 -0.74,3.969 0,0.385 0.154,0.646 0.617,0.646 0.545,0 0.831,-0.358 1.097,-0.915 l -0.002,-0.069 c 0,-2.077 1.278,-5.385 3.959,-5.385 0.879,0 1.248,0.339 1.248,0.785 v 0.107 l 0.17,-0.815 h 2.219 l -1.11,5.231 c -0.046,0.2 -0.061,0.354 -0.061,0.492 0,0.431 0.2,0.662 0.631,0.662 0.461,0 0.812,-0.397 1.054,-0.929 l -0.005,-0.148 c 0,-2.077 1.279,-5.385 3.96,-5.385 0.878,0 1.248,0.339 1.248,0.785 v 0.092 l 0.17,-0.8 h 2.218 l -1.525,7.138 c 0.806,-0.29 1.34,-0.715 1.747,-1.675 z m -100.258,0.942 c -0.843,1.185 -1.872,1.38 -2.502,1.38 -0.925,0 -1.649,-0.554 -1.649,-1.847 0,-0.292 0.046,-0.63 0.123,-1 l 0.925,-4.323 h -0.509 l 0.124,-0.615 h 0.508 l 0.462,-2.123 2.281,-0.308 -0.524,2.431 h 0.924 l -0.123,0.615 h -0.924 l -0.986,4.616 c -0.047,0.2 -0.062,0.354 -0.062,0.492 0,0.431 0.2,0.569 0.632,0.569 0.601,0 1.155,-0.584 1.386,-1.354 h 0.001 l 1.048,-4.938 h 2.219 l -1.11,5.231 c -0.046,0.2 -0.062,0.354 -0.062,0.492 0,0.431 0.201,0.569 0.632,0.569 0.601,0 1.155,-0.583 1.386,-1.352 l 1.049,-4.94 h 2.219 l -0.169,0.8 c 0.647,-0.738 1.325,-0.862 1.802,-0.862 0.986,0 1.711,0.508 1.711,1.739 0,1.246 -0.74,3.108 -0.74,3.969 0,0.385 0.154,0.646 0.616,0.646 0.678,0 0.956,-0.554 1.295,-1.354 h 0.001 l 1.047,-4.938 h 2.219 l -1.109,5.231 c -0.031,0.123 -0.046,0.261 -0.046,0.384 0,0.354 0.107,0.677 0.462,0.677 0.601,0 1.001,-0.584 1.232,-1.354 l 1.048,-4.938 h 2.234 l -1.879,8.923 c -0.463,2.2 -1.788,2.615 -2.805,2.615 -0.94,0 -1.818,-0.661 -1.818,-1.661 0,-1.431 1.202,-1.877 2.666,-2.308 l 0.154,-0.677 c -0.663,0.754 -1.356,0.893 -1.88,0.893 -0.783,0 -1.423,-0.398 -1.598,-1.306 -0.729,1.127 -1.54,1.306 -2.147,1.306 -1.341,0 -1.818,-0.862 -1.818,-1.739 0,-1.046 0.693,-2.938 0.693,-3.923 0,-0.508 -0.185,-0.785 -0.555,-0.785 -0.554,0 -0.97,0.647 -1.201,1.416 l -1.048,4.938 h -2.219 l 0.194,-0.912 c -0.774,0.853 -1.641,1.005 -2.198,1.005 -0.804,0 -1.457,-0.42 -1.612,-1.38 z m 94.489,3.426 c 0,-0.616 0.725,-1.016 1.51,-1.308 l -0.092,0.446 c -0.2,0.908 -0.57,1.369 -0.894,1.369 -0.339,0 -0.524,-0.292 -0.524,-0.507 z m -81.072,-0.169 c 0,-0.831 0.739,-1.277 1.71,-1.6 l -0.185,0.907 c -0.2,0.908 -0.601,1.2 -0.909,1.2 -0.339,0 -0.616,-0.292 -0.616,-0.507 z m 23.506,-4.509 c 0.058,-2.083 1.339,-5.23 3.954,-5.23 0.878,0 1.248,0.339 1.248,0.785 v 0.061 l 0.755,-3.538 2.281,-0.308 -1.772,8.308 c -0.046,0.2 -0.062,0.354 -0.062,0.492 0,0.431 0.2,0.569 0.632,0.569 0.601,0 1.017,-0.584 1.248,-1.354 h 0.001 l 1.048,-4.938 h 2.219 l -1.11,5.231 c -0.046,0.2 -0.061,0.354 -0.061,0.492 0,0.431 0.2,0.569 0.631,0.569 0.47,0 0.911,-0.357 1.191,-0.88 l -0.004,-0.104 c 0,-2.077 1.279,-5.385 3.96,-5.385 0.878,0 1.248,0.339 1.248,0.785 v 0.107 l 0.17,-0.815 h 2.219 l -1.11,5.231 c -0.046,0.2 -0.062,0.354 -0.062,0.492 0,0.431 0.201,0.569 0.632,0.569 0.139,0 0.231,-0.015 0.339,-0.061 -0.416,1.077 -0.709,1.554 -1.541,1.554 -0.832,0 -1.386,-0.539 -1.51,-1.431 -0.462,0.708 -1.201,1.431 -2.295,1.431 -0.814,0 -1.6,-0.39 -1.907,-1.422 -0.848,1.223 -1.894,1.422 -2.532,1.422 -0.801,0 -1.451,-0.416 -1.61,-1.368 -0.8,1.136 -1.74,1.275 -2.366,1.275 -0.832,0 -1.387,-0.461 -1.51,-1.323 -0.462,0.708 -1.186,1.416 -2.28,1.416 -0.925,0 -1.815,-0.504 -2.009,-1.882 -0.84,1.035 -1.979,1.882 -3.554,1.882 -1.449,0 -2.404,-0.708 -2.404,-2.447 0,-1.769 1.001,-5.476 4.16,-5.476 1.371,0 1.695,0.707 1.695,1.476 0,1.77 -1.695,3.139 -3.544,3.247 -0.015,0.215 -0.031,0.43 -0.031,0.615 0,1.046 0.37,1.292 1.11,1.292 1.115,0 1.83,-0.568 2.533,-1.339 z m -7.08,2.539 1.618,-11.323 h -2.219 l -3.39,8.108 0.354,-8.108 c -0.369,-0.138 -0.77,-0.215 -1.171,-0.215 -2.342,0 -4.899,2.123 -4.899,4.092 0,1.016 0.647,1.4 1.648,1.4 -0.015,-0.138 -0.216,-0.246 -0.216,-1.061 0,-1.754 0.925,-2.954 2.45,-3.462 l -3.913,10.569 h 1.232 l 2.574,-6.938 -0.309,6.938 h 2.111 l 2.897,-6.907 -0.986,6.907 z m 37.447,0 1.617,-11.323 h -2.218 l -3.39,8.108 0.354,-8.108 c -0.37,-0.138 -0.77,-0.215 -1.171,-0.215 -2.342,0 -4.9,2.123 -4.9,4.092 0,1.016 0.647,1.4 1.649,1.4 -0.015,-0.138 -0.216,-0.246 -0.216,-1.061 0,-1.754 0.925,-2.954 2.45,-3.462 l -3.913,10.569 h 1.232 l 2.573,-6.938 -0.308,6.938 h 2.111 l 2.897,-6.907 -0.986,6.907 z m 21.482,-6.815 c 0.493,0 0.632,0.4 0.632,0.585 l -0.74,3.476 c -0.185,0.893 -0.832,1.354 -1.279,1.354 -0.277,0 -0.77,-0.015 -0.77,-1.2 0,-1.446 0.847,-4.215 2.157,-4.215 z m -35.212,0 c 0.493,0 0.632,0.4 0.632,0.585 l -0.74,3.476 c -0.185,0.893 -0.832,1.354 -1.279,1.354 -0.277,0 -0.77,-0.015 -0.77,-1.2 0,-1.446 0.847,-4.215 2.157,-4.215 z m 19.324,0 c 0.493,0 0.632,0.4 0.632,0.585 l -0.74,3.476 c -0.184,0.893 -0.832,1.354 -1.278,1.354 -0.278,0 -0.771,-0.015 -0.771,-1.2 0,-1.446 0.848,-4.215 2.157,-4.215 z m -31.652,4.138 c -0.201,0.847 -0.832,1.277 -1.264,1.277 -0.277,0 -0.77,-0.015 -0.77,-1.2 0,-1.446 0.847,-4.215 2.157,-4.215 0.462,0 0.601,0.354 0.632,0.538 l -0.755,3.523 z m 55.646,-4.138 c 0.493,0 0.616,0.4 0.631,0.569 l -0.785,3.646 c -0.216,0.785 -0.817,1.2 -1.233,1.2 -0.277,0 -0.77,-0.015 -0.77,-1.2 0,-1.446 0.847,-4.215 2.157,-4.215 z m -61.209,0.431 c 0,1.277 -1.048,2.461 -2.235,2.538 0.309,-1.523 1.064,-3.169 1.849,-3.169 0.293,0 0.386,0.246 0.386,0.631 z m 69.253,0 c 0,1.277 -1.048,2.461 -2.234,2.538 0.308,-1.523 1.063,-3.169 1.849,-3.169 0.292,0 0.385,0.246 0.385,0.631 z m -58.358,-3.354 c 0,0.677 0.539,1.215 1.217,1.215 0.678,0 1.233,-0.538 1.233,-1.215 0,-0.677 -0.555,-1.231 -1.233,-1.231 -0.678,0 -1.217,0.554 -1.217,1.231 z m -45.121,0 c 0,0.677 0.539,1.215 1.217,1.215 0.678,0 1.233,-0.538 1.233,-1.215 0,-0.677 -0.555,-1.231 -1.233,-1.231 -0.678,0 -1.217,0.554 -1.217,1.231 z"
                style="fill:#ff7a00"
                inkscape:connector-curvature="0"/>
        <path
                id="collect--check-and-complete--your-personal-movie---tv-show-coll1"
                serif:id="collect, check and complete  your personal movie &amp; tv show coll"
                d="m 103.742,233.912 h -0.895 l 2.814,7.179 -0.384,0.982 c -0.148,0.389 -0.327,0.709 -0.538,0.957 -0.211,0.249 -0.492,0.374 -0.842,0.374 -0.054,0 -0.14,-0.006 -0.259,-0.017 -0.119,-0.012 -0.205,-0.022 -0.259,-0.031 l -0.094,0.673 c 0.062,0.022 0.161,0.043 0.296,0.064 0.135,0.02 0.249,0.03 0.343,0.03 0.579,0 1.019,-0.173 1.32,-0.518 0.3,-0.345 0.545,-0.764 0.734,-1.257 l 3.164,-8.436 h -0.902 l -2.202,6.171 h -0.04 l -0.256,-0.867 z m 35.851,3.697 c 0,-1.161 -0.246,-2.089 -0.74,-2.786 -0.494,-0.697 -1.178,-1.046 -2.054,-1.046 -0.52,0 -0.974,0.111 -1.36,0.333 -0.386,0.222 -0.7,0.534 -0.942,0.938 l -0.148,-1.136 h -0.62 v 10.07 h 0.808 v -3.765 c 0.243,0.354 0.556,0.628 0.939,0.82 0.384,0.193 0.83,0.289 1.337,0.289 0.866,0 1.546,-0.323 2.04,-0.971 0.494,-0.648 0.74,-1.516 0.74,-2.605 z m 159.179,0.054 c 0,1.075 0.294,1.955 0.882,2.638 0.588,0.684 1.371,1.025 2.349,1.025 0.97,0 1.747,-0.341 2.333,-1.025 0.586,-0.683 0.879,-1.563 0.879,-2.638 v -0.222 c 0,-1.071 -0.294,-1.95 -0.882,-2.635 -0.588,-0.686 -1.369,-1.029 -2.343,-1.029 -0.97,0 -1.748,0.343 -2.336,1.029 -0.588,0.685 -0.882,1.564 -0.882,2.635 z m -188.903,0 c 0,1.075 0.294,1.955 0.882,2.638 0.588,0.684 1.371,1.025 2.35,1.025 0.969,0 1.747,-0.341 2.333,-1.025 0.585,-0.683 0.878,-1.563 0.878,-2.638 v -0.222 c 0,-1.071 -0.294,-1.95 -0.882,-2.635 -0.588,-0.686 -1.369,-1.029 -2.343,-1.029 -0.969,0 -1.748,0.343 -2.336,1.029 -0.588,0.685 -0.882,1.564 -0.882,2.635 z m 121.173,-1.748 c -0.615,0.448 -1.085,0.888 -1.411,1.321 -0.325,0.432 -0.488,0.917 -0.488,1.455 0,0.798 0.274,1.437 0.822,1.916 0.547,0.48 1.29,0.719 2.228,0.719 0.525,0 1.015,-0.094 1.468,-0.282 0.453,-0.188 0.871,-0.457 1.252,-0.807 l 0.822,0.948 h 0.922 l 0.013,-0.033 -1.245,-1.452 c 0.31,-0.39 0.546,-0.826 0.71,-1.308 0.164,-0.482 0.246,-1.009 0.246,-1.583 h -0.741 c 0,0.448 -0.06,0.869 -0.181,1.264 -0.122,0.394 -0.292,0.75 -0.512,1.069 l -2.774,-3.234 1.071,-0.82 c 0.381,-0.291 0.673,-0.582 0.875,-0.874 0.202,-0.291 0.303,-0.638 0.303,-1.042 0,-0.551 -0.19,-1.008 -0.569,-1.371 -0.38,-0.363 -0.892,-0.545 -1.539,-0.545 -0.695,0 -1.243,0.193 -1.642,0.579 -0.4,0.385 -0.6,0.932 -0.6,1.64 0,0.39 0.088,0.77 0.263,1.139 0.175,0.37 0.444,0.779 0.808,1.227 z m -85.379,5.146 c 0.415,-0.177 0.751,-0.4 1.006,-0.669 l -0.343,-0.551 c -0.247,0.246 -0.557,0.442 -0.929,0.588 -0.373,0.146 -0.781,0.218 -1.225,0.218 -0.741,0 -1.321,-0.273 -1.741,-0.82 -0.42,-0.546 -0.629,-1.234 -0.629,-2.063 v -0.222 h 5.069 v -0.625 c 0,-0.959 -0.241,-1.722 -0.723,-2.289 -0.483,-0.567 -1.166,-0.851 -2.051,-0.851 -0.879,0 -1.616,0.341 -2.211,1.022 -0.595,0.681 -0.892,1.546 -0.892,2.595 v 0.37 c 0,1.044 0.294,1.899 0.882,2.564 0.588,0.666 1.353,0.998 2.296,0.998 0.579,0 1.076,-0.088 1.491,-0.265 z m 147.42,-1.251 c -0.373,-0.557 -0.559,-1.264 -0.559,-2.12 v -0.283 c 0,-0.842 0.186,-1.543 0.559,-2.104 0.372,-0.56 0.94,-0.84 1.703,-0.84 0.552,0 1.019,0.174 1.4,0.521 0.382,0.347 0.573,0.812 0.573,1.395 h 0.72 l 0.013,-0.041 c 0.018,-0.766 -0.233,-1.384 -0.754,-1.855 -0.52,-0.47 -1.171,-0.706 -1.952,-0.706 -0.97,0 -1.724,0.341 -2.262,1.022 -0.539,0.681 -0.808,1.551 -0.808,2.608 v 0.283 c 0,1.062 0.27,1.933 0.811,2.615 0.541,0.681 1.296,1.021 2.266,1.021 0.722,0 1.357,-0.226 1.905,-0.679 0.548,-0.452 0.812,-1.015 0.794,-1.687 l -0.013,-0.04 h -0.72 c 0,0.542 -0.199,0.966 -0.596,1.27 -0.397,0.305 -0.854,0.457 -1.37,0.457 -0.768,0 -1.338,-0.279 -1.71,-0.837 z m 28.128,0 c -0.372,-0.557 -0.559,-1.264 -0.559,-2.12 v -0.283 c 0,-0.842 0.187,-1.543 0.559,-2.104 0.373,-0.56 0.941,-0.84 1.704,-0.84 0.552,0 1.018,0.174 1.4,0.521 0.381,0.347 0.572,0.812 0.572,1.395 h 0.721 l 0.013,-0.041 c 0.018,-0.766 -0.233,-1.384 -0.754,-1.855 -0.521,-0.47 -1.171,-0.706 -1.952,-0.706 -0.97,0 -1.724,0.341 -2.263,1.022 -0.538,0.681 -0.807,1.551 -0.807,2.608 v 0.283 c 0,1.062 0.27,1.933 0.811,2.615 0.541,0.681 1.296,1.021 2.265,1.021 0.723,0 1.358,-0.226 1.906,-0.679 0.547,-0.452 0.812,-1.015 0.794,-1.687 l -0.013,-0.04 h -0.721 c 0,0.542 -0.198,0.966 -0.596,1.27 -0.397,0.305 -0.854,0.457 -1.37,0.457 -0.767,0 -1.337,-0.279 -1.71,-0.837 z m -161.433,-2.147 c 0,1.075 0.294,1.955 0.882,2.638 0.588,0.684 1.371,1.025 2.349,1.025 0.97,0 1.747,-0.341 2.333,-1.025 0.586,-0.683 0.879,-1.563 0.879,-2.638 v -0.222 c 0,-1.071 -0.294,-1.95 -0.882,-2.635 -0.588,-0.686 -1.369,-1.029 -2.343,-1.029 -0.97,0 -1.748,0.343 -2.336,1.029 -0.588,0.685 -0.882,1.564 -0.882,2.635 z m 174.69,0 c 0,1.075 0.294,1.955 0.882,2.638 0.588,0.684 1.371,1.025 2.349,1.025 0.97,0 1.747,-0.341 2.333,-1.025 0.586,-0.683 0.879,-1.563 0.879,-2.638 v -0.222 c 0,-1.071 -0.294,-1.95 -0.882,-2.635 -0.588,-0.686 -1.369,-1.029 -2.343,-1.029 -0.97,0 -1.748,0.343 -2.336,1.029 -0.588,0.685 -0.882,1.564 -0.882,2.635 z m -153.436,3.522 c -0.067,-0.237 -0.115,-0.477 -0.144,-0.719 -0.03,-0.242 -0.044,-0.491 -0.044,-0.746 v -3.576 c 0,-0.762 -0.242,-1.347 -0.727,-1.755 -0.485,-0.408 -1.127,-0.612 -1.926,-0.612 -0.799,0 -1.446,0.208 -1.942,0.622 -0.496,0.415 -0.731,0.895 -0.704,1.442 l 0.014,0.04 h 0.747 c 0,-0.407 0.169,-0.746 0.508,-1.015 0.339,-0.269 0.785,-0.403 1.337,-0.403 0.601,0 1.067,0.148 1.397,0.444 0.33,0.295 0.495,0.703 0.495,1.223 v 0.901 h -1.791 c -0.911,0 -1.652,0.202 -2.222,0.605 -0.57,0.403 -0.855,0.93 -0.855,1.58 0,0.649 0.196,1.164 0.589,1.542 0.393,0.379 0.946,0.568 1.66,0.568 0.588,0 1.108,-0.129 1.562,-0.386 0.453,-0.258 0.805,-0.584 1.057,-0.978 0,0.192 0.012,0.381 0.037,0.564 0.024,0.184 0.061,0.404 0.111,0.659 z m 78.792,-0.927 c -0.337,0.259 -0.797,0.389 -1.38,0.389 -0.539,0 -1.007,-0.118 -1.404,-0.356 -0.397,-0.237 -0.612,-0.618 -0.643,-1.143 h -0.741 l -0.013,0.041 c -0.027,0.582 0.212,1.084 0.717,1.505 0.505,0.422 1.199,0.632 2.084,0.632 0.807,0 1.457,-0.189 1.949,-0.568 0.491,-0.378 0.737,-0.87 0.737,-1.475 0,-0.569 -0.219,-1.022 -0.657,-1.358 -0.437,-0.336 -1.083,-0.598 -1.935,-0.787 -0.759,-0.165 -1.265,-0.357 -1.518,-0.574 -0.254,-0.218 -0.381,-0.492 -0.381,-0.824 0,-0.34 0.148,-0.638 0.445,-0.894 0.296,-0.255 0.736,-0.383 1.319,-0.383 0.566,0 1.02,0.148 1.363,0.444 0.344,0.295 0.516,0.643 0.516,1.042 h 0.747 l 0.013,-0.041 c 0.023,-0.6 -0.208,-1.106 -0.693,-1.516 -0.485,-0.41 -1.134,-0.615 -1.946,-0.615 -0.772,0 -1.392,0.193 -1.861,0.578 -0.47,0.386 -0.704,0.856 -0.704,1.412 0,0.56 0.21,0.996 0.63,1.308 0.419,0.311 1.06,0.556 1.922,0.736 0.731,0.161 1.237,0.368 1.518,0.621 0.28,0.254 0.421,0.551 0.421,0.891 0,0.363 -0.169,0.675 -0.505,0.935 z m -102.76,0 c -0.336,0.259 -0.796,0.389 -1.38,0.389 -0.538,0 -1.006,-0.118 -1.403,-0.356 -0.398,-0.237 -0.612,-0.618 -0.643,-1.143 h -0.741 l -0.013,0.041 c -0.027,0.582 0.212,1.084 0.717,1.505 0.504,0.422 1.199,0.632 2.083,0.632 0.808,0 1.458,-0.189 1.949,-0.568 0.492,-0.378 0.738,-0.87 0.738,-1.475 0,-0.569 -0.219,-1.022 -0.657,-1.358 -0.437,-0.336 -1.083,-0.598 -1.935,-0.787 -0.759,-0.165 -1.265,-0.357 -1.519,-0.574 -0.253,-0.218 -0.38,-0.492 -0.38,-0.824 0,-0.34 0.148,-0.638 0.444,-0.894 0.297,-0.255 0.736,-0.383 1.32,-0.383 0.565,0 1.02,0.148 1.363,0.444 0.344,0.295 0.515,0.643 0.515,1.042 h 0.748 l 0.013,-0.041 c 0.022,-0.6 -0.209,-1.106 -0.693,-1.516 -0.485,-0.41 -1.134,-0.615 -1.946,-0.615 -0.772,0 -1.393,0.193 -1.862,0.578 -0.469,0.386 -0.703,0.856 -0.703,1.412 0,0.56 0.21,0.996 0.629,1.308 0.42,0.311 1.061,0.556 1.922,0.736 0.732,0.161 1.238,0.368 1.519,0.621 0.28,0.254 0.42,0.551 0.42,0.891 0,0.363 -0.168,0.675 -0.505,0.935 z m -34.235,0.927 h 0.714 v -7.273 h -0.808 v 5.196 c -0.148,0.471 -0.403,0.841 -0.764,1.113 -0.361,0.271 -0.845,0.406 -1.451,0.406 -0.557,0 -0.986,-0.192 -1.289,-0.578 -0.303,-0.385 -0.455,-1.022 -0.455,-1.909 v -4.228 h -0.808 v 4.215 c 0,1.093 0.218,1.9 0.653,2.42 0.436,0.52 1.037,0.779 1.805,0.779 0.538,0 1.004,-0.114 1.397,-0.342 0.392,-0.229 0.706,-0.556 0.939,-0.982 z m 100.575,-0.124 c 0.415,-0.177 0.751,-0.4 1.006,-0.669 l -0.343,-0.551 c -0.247,0.246 -0.557,0.442 -0.929,0.588 -0.373,0.146 -0.781,0.218 -1.225,0.218 -0.741,0 -1.321,-0.273 -1.741,-0.82 -0.42,-0.546 -0.629,-1.234 -0.629,-2.063 v -0.222 h 5.069 v -0.625 c 0,-0.959 -0.241,-1.722 -0.723,-2.289 -0.483,-0.567 -1.166,-0.851 -2.05,-0.851 -0.88,0 -1.617,0.341 -2.212,1.022 -0.595,0.681 -0.892,1.546 -0.892,2.595 v 0.37 c 0,1.044 0.294,1.899 0.882,2.564 0.588,0.666 1.353,0.998 2.296,0.998 0.579,0 1.076,-0.088 1.491,-0.265 z m -22.16,-3.398 c 0,1.075 0.293,1.955 0.882,2.638 0.588,0.684 1.371,1.025 2.349,1.025 0.97,0 1.747,-0.341 2.333,-1.025 0.586,-0.683 0.879,-1.563 0.879,-2.638 v -0.222 c 0,-1.071 -0.294,-1.95 -0.882,-2.635 -0.588,-0.686 -1.369,-1.029 -2.343,-1.029 -0.97,0 -1.748,0.343 -2.336,1.029 -0.589,0.685 -0.882,1.564 -0.882,2.635 z m 126.552,-5.613 v 1.862 h -1.259 v 0.659 h 1.259 v 4.739 c 0,0.699 0.142,1.21 0.427,1.532 0.285,0.323 0.684,0.484 1.195,0.484 0.157,0 0.316,-0.016 0.475,-0.05 0.159,-0.034 0.293,-0.077 0.401,-0.131 l -0.122,-0.598 c -0.125,0.026 -0.234,0.046 -0.326,0.057 -0.092,0.011 -0.188,0.017 -0.286,0.017 -0.288,0 -0.518,-0.1 -0.69,-0.3 -0.173,-0.199 -0.26,-0.536 -0.26,-1.011 v -4.739 h 1.603 v -0.659 h -1.603 v -1.862 z m -57.584,5.613 c 0,1.075 0.294,1.955 0.882,2.638 0.588,0.684 1.371,1.025 2.35,1.025 0.969,0 1.747,-0.341 2.333,-1.025 0.585,-0.683 0.878,-1.563 0.878,-2.638 v -0.222 c 0,-1.071 -0.294,-1.95 -0.882,-2.635 -0.588,-0.686 -1.369,-1.029 -2.343,-1.029 -0.969,0 -1.748,0.343 -2.336,1.029 -0.588,0.685 -0.882,1.564 -0.882,2.635 z m 47.205,3.398 c 0.416,-0.177 0.751,-0.4 1.007,-0.669 l -0.343,-0.551 c -0.247,0.246 -0.557,0.442 -0.929,0.588 -0.373,0.146 -0.781,0.218 -1.226,0.218 -0.74,0 -1.321,-0.273 -1.74,-0.82 -0.42,-0.546 -0.63,-1.234 -0.63,-2.063 v -0.222 h 5.07 v -0.625 c 0,-0.959 -0.241,-1.722 -0.724,-2.289 -0.482,-0.567 -1.166,-0.851 -2.05,-0.851 -0.88,0 -1.617,0.341 -2.211,1.022 -0.595,0.681 -0.893,1.546 -0.893,2.595 v 0.37 c 0,1.044 0.294,1.899 0.882,2.564 0.588,0.666 1.354,0.998 2.296,0.998 0.579,0 1.076,-0.088 1.491,-0.265 z m -75.542,-9.011 v 1.862 h -1.259 v 0.659 h 1.259 v 4.739 c 0,0.699 0.142,1.21 0.427,1.532 0.285,0.323 0.684,0.484 1.195,0.484 0.157,0 0.315,-0.016 0.475,-0.05 0.159,-0.034 0.293,-0.077 0.4,-0.131 l -0.121,-0.598 c -0.125,0.026 -0.234,0.046 -0.326,0.057 -0.092,0.011 -0.188,0.017 -0.286,0.017 -0.288,0 -0.518,-0.1 -0.691,-0.3 -0.172,-0.199 -0.259,-0.536 -0.259,-1.011 v -4.739 h 1.603 v -0.659 h -1.603 v -1.862 z m 21.921,-1.351 h -0.808 v 10.486 h 0.808 v -5.189 c 0.17,-0.462 0.439,-0.831 0.804,-1.106 0.366,-0.276 0.832,-0.414 1.397,-0.414 0.548,0 0.978,0.172 1.29,0.515 0.312,0.342 0.468,0.908 0.468,1.697 v 4.497 h 0.808 v -4.484 c 0,-0.999 -0.206,-1.736 -0.616,-2.211 -0.411,-0.475 -1,-0.713 -1.768,-0.713 -0.538,0 -1.009,0.12 -1.41,0.36 -0.402,0.24 -0.726,0.577 -0.973,1.012 z m -134.699,3.152 c -0.058,-0.018 -0.132,-0.034 -0.222,-0.05 -0.09,-0.016 -0.184,-0.024 -0.283,-0.024 -0.489,0 -0.911,0.126 -1.265,0.377 -0.355,0.251 -0.638,0.6 -0.849,1.048 v -0.08 l -0.101,-1.21 h -0.707 v 7.273 h 0.808 v -5.021 c 0.139,-0.498 0.372,-0.889 0.697,-1.173 0.326,-0.285 0.742,-0.427 1.249,-0.427 l 0.572,0.04 z m 80.239,0.061 h -0.835 l 2.774,7.273 h 0.646 l 2.768,-7.273 h -0.835 l -1.98,5.451 -0.256,0.854 h -0.04 l -0.236,-0.854 z m -19.888,0 v 7.273 h 0.808 v -5.129 c 0.135,-0.484 0.369,-0.868 0.704,-1.153 0.334,-0.284 0.784,-0.427 1.349,-0.427 0.561,0 1.002,0.19 1.323,0.568 0.321,0.379 0.482,1.008 0.482,1.886 v 4.255 h 0.814 v -4.363 l -0.006,-0.336 c 0.089,-0.591 0.303,-1.074 0.639,-1.448 0.337,-0.374 0.813,-0.562 1.428,-0.562 0.561,0 1,0.185 1.319,0.555 0.319,0.37 0.478,1.003 0.478,1.899 v 4.255 h 0.808 v -4.242 c 0,-1.079 -0.212,-1.877 -0.636,-2.393 -0.424,-0.515 -1.025,-0.773 -1.801,-0.773 -0.575,0 -1.065,0.144 -1.471,0.431 -0.406,0.286 -0.719,0.683 -0.939,1.189 -0.162,-0.546 -0.429,-0.953 -0.802,-1.22 -0.372,-0.266 -0.837,-0.4 -1.393,-0.4 -0.534,0 -0.996,0.117 -1.384,0.35 -0.388,0.233 -0.699,0.56 -0.932,0.981 l -0.074,-1.196 z m 89.126,0 h -0.862 l 2.114,7.273 h 0.694 l 1.615,-4.974 0.29,-1.177 h 0.04 l 0.29,1.177 1.649,4.974 h 0.687 l 2.121,-7.273 h -0.862 l -1.299,4.914 -0.317,1.371 h -0.04 l -0.337,-1.371 -1.548,-4.914 h -0.694 l -1.548,4.914 -0.337,1.331 h -0.04 l -0.283,-1.331 z m -126.647,-0.061 c -0.058,-0.018 -0.132,-0.034 -0.222,-0.05 -0.09,-0.016 -0.184,-0.024 -0.282,-0.024 -0.49,0 -0.912,0.126 -1.266,0.377 -0.355,0.251 -0.638,0.6 -0.848,1.048 v -0.08 l -0.101,-1.21 h -0.707 v 7.273 h 0.808 v -5.021 c 0.139,-0.498 0.371,-0.889 0.696,-1.173 0.326,-0.285 0.742,-0.427 1.249,-0.427 l 0.573,0.04 z m 94.007,0.061 H 245.1 l 2.773,7.273 h 0.647 l 2.767,-7.273 h -0.835 l -1.979,5.451 -0.256,0.854 h -0.041 l -0.235,-0.854 z m 86.756,0 h -0.801 v 7.273 h 0.801 z m -164.786,0 v 7.273 h 0.808 v -5.149 c 0.157,-0.475 0.412,-0.854 0.764,-1.136 0.352,-0.282 0.816,-0.424 1.39,-0.424 0.575,0 1.018,0.173 1.33,0.518 0.312,0.345 0.468,0.934 0.468,1.768 v 4.423 h 0.808 v -4.43 c 0,-1.022 -0.207,-1.773 -0.62,-2.255 -0.413,-0.482 -1.014,-0.723 -1.804,-0.723 -0.543,0 -1.012,0.122 -1.407,0.367 -0.395,0.244 -0.712,0.588 -0.949,1.032 l -0.074,-1.264 z m 183.321,6.151 h -0.956 v 1.122 h 0.956 z m -8.631,-6.151 v 7.273 h 0.808 v -5.149 c 0.157,-0.475 0.412,-0.854 0.764,-1.136 0.352,-0.282 0.816,-0.424 1.39,-0.424 0.575,0 1.018,0.173 1.33,0.518 0.312,0.345 0.468,0.934 0.468,1.768 v 4.423 h 0.808 v -4.43 c 0,-1.022 -0.207,-1.773 -0.62,-2.255 -0.413,-0.482 -1.014,-0.723 -1.804,-0.723 -0.543,0 -1.012,0.122 -1.407,0.367 -0.395,0.244 -0.712,0.588 -0.949,1.032 l -0.074,-1.264 z m -31.663,-3.213 h -0.802 v 10.486 h 0.802 z m -3.131,0 h -0.801 v 10.486 h 0.801 z m -90.883,3.213 h -0.801 v 7.273 h 0.801 z m -33.023,-3.213 h -0.801 v 10.486 h 0.801 z m -45.108,7.051 c 0,0.874 -0.183,1.575 -0.549,2.104 -0.366,0.529 -0.901,0.793 -1.606,0.793 -0.516,0 -0.947,-0.113 -1.293,-0.339 -0.345,-0.226 -0.612,-0.537 -0.801,-0.931 v -3.523 c 0.175,-0.407 0.432,-0.739 0.771,-0.994 0.339,-0.256 0.775,-0.384 1.31,-0.384 0.709,0 1.247,0.292 1.615,0.874 0.368,0.583 0.553,1.336 0.553,2.259 z m 21.8,-0.309 c 0,-0.829 0.213,-1.533 0.639,-2.111 0.427,-0.578 1.017,-0.867 1.771,-0.867 0.754,0 1.346,0.289 1.777,0.867 0.431,0.578 0.647,1.282 0.647,2.111 v 0.222 c 0,0.842 -0.215,1.55 -0.643,2.124 -0.429,0.574 -1.018,0.86 -1.768,0.86 -0.763,0 -1.357,-0.286 -1.784,-0.86 -0.426,-0.574 -0.639,-1.282 -0.639,-2.124 z m 174.69,0 c 0,-0.829 0.213,-1.533 0.639,-2.111 0.427,-0.578 1.017,-0.867 1.771,-0.867 0.754,0 1.346,0.289 1.777,0.867 0.431,0.578 0.647,1.282 0.647,2.111 v 0.222 c 0,0.842 -0.215,1.55 -0.643,2.124 -0.429,0.574 -1.018,0.86 -1.768,0.86 -0.763,0 -1.357,-0.286 -1.784,-0.86 -0.426,-0.574 -0.639,-1.282 -0.639,-2.124 z m -224.599,0 c 0,-0.829 0.213,-1.533 0.64,-2.111 0.426,-0.578 1.016,-0.867 1.77,-0.867 0.754,0 1.347,0.289 1.778,0.867 0.431,0.578 0.646,1.282 0.646,2.111 v 0.222 c 0,0.842 -0.214,1.55 -0.643,2.124 -0.429,0.574 -1.018,0.86 -1.767,0.86 -0.763,0 -1.358,-0.286 -1.784,-0.86 -0.427,-0.574 -0.64,-1.282 -0.64,-2.124 z m 119.85,2.645 c -0.384,-0.374 -0.576,-0.839 -0.576,-1.395 0,-0.286 0.089,-0.6 0.266,-0.941 0.177,-0.34 0.526,-0.721 1.047,-1.143 l 0.317,-0.242 c 0.008,0.018 0.021,0.035 0.037,0.051 0.015,0.016 0.034,0.035 0.057,0.057 l 2.787,3.24 c -0.314,0.3 -0.668,0.531 -1.06,0.692 -0.393,0.162 -0.796,0.242 -1.209,0.242 -0.727,0 -1.282,-0.187 -1.666,-0.561 z m -28.476,-2.645 c 0,-0.829 0.214,-1.533 0.64,-2.111 0.426,-0.578 1.017,-0.867 1.771,-0.867 0.754,0 1.346,0.289 1.777,0.867 0.431,0.578 0.646,1.282 0.646,2.111 v 0.222 c 0,0.842 -0.214,1.55 -0.642,2.124 -0.429,0.574 -1.018,0.86 -1.768,0.86 -0.763,0 -1.358,-0.286 -1.784,-0.86 -0.426,-0.574 -0.64,-1.282 -0.64,-2.124 z m 97.529,0 c 0,-0.829 0.213,-1.533 0.639,-2.111 0.426,-0.578 1.017,-0.867 1.771,-0.867 0.754,0 1.346,0.289 1.777,0.867 0.431,0.578 0.647,1.282 0.647,2.111 v 0.222 c 0,0.842 -0.215,1.55 -0.643,2.124 -0.429,0.574 -1.018,0.86 -1.768,0.86 -0.763,0 -1.358,-0.286 -1.784,-0.86 -0.426,-0.574 -0.639,-1.282 -0.639,-2.124 z m -28.56,0 c 0,-0.829 0.213,-1.533 0.64,-2.111 0.426,-0.578 1.016,-0.867 1.77,-0.867 0.754,0 1.347,0.289 1.778,0.867 0.431,0.578 0.646,1.282 0.646,2.111 v 0.222 c 0,0.842 -0.214,1.55 -0.643,2.124 -0.429,0.574 -1.018,0.86 -1.767,0.86 -0.763,0 -1.358,-0.286 -1.784,-0.86 -0.427,-0.574 -0.64,-1.282 -0.64,-2.124 z m -94.63,2.796 c -0.271,-0.251 -0.407,-0.582 -0.407,-0.995 0,-0.439 0.213,-0.814 0.64,-1.126 0.426,-0.311 0.967,-0.467 1.622,-0.467 h 1.798 v 1.392 c -0.162,0.461 -0.469,0.839 -0.923,1.132 -0.453,0.294 -0.989,0.441 -1.609,0.441 -0.476,0 -0.849,-0.126 -1.121,-0.377 z m 174.754,-8.839 h -0.801 v 6.574 h 0.801 z m -127.848,3.694 c 0.339,0.419 0.508,0.951 0.508,1.596 v 0.168 h -4.174 l -0.02,-0.04 c 0.067,-0.681 0.301,-1.244 0.7,-1.688 0.4,-0.443 0.909,-0.665 1.529,-0.665 0.632,0 1.118,0.21 1.457,0.629 z m 94.014,0 c 0.339,0.419 0.508,0.951 0.508,1.596 v 0.168 h -4.174 l -0.02,-0.04 c 0.067,-0.681 0.3,-1.244 0.7,-1.688 0.399,-0.443 0.909,-0.665 1.528,-0.665 0.633,0 1.119,0.21 1.458,0.629 z m -171.755,0 c 0.339,0.419 0.508,0.951 0.508,1.596 v 0.168 h -4.174 l -0.02,-0.04 c 0.067,-0.681 0.301,-1.244 0.7,-1.688 0.4,-0.443 0.909,-0.665 1.528,-0.665 0.633,0 1.119,0.21 1.458,0.629 z m 85.699,-2.713 c 0.249,-0.291 0.603,-0.437 1.06,-0.437 0.422,0 0.751,0.117 0.987,0.35 0.235,0.233 0.353,0.526 0.353,0.88 0,0.251 -0.055,0.487 -0.165,0.706 -0.11,0.22 -0.295,0.43 -0.555,0.632 l -1.192,0.887 c -0.292,-0.358 -0.508,-0.696 -0.65,-1.015 -0.141,-0.318 -0.212,-0.625 -0.212,-0.921 0,-0.43 0.125,-0.791 0.374,-1.082 z m 101.436,-1.68 h -0.801 v 1.129 h 0.801 z m -115.773,0 h -0.801 v 1.129 h 0.801 z m 30.472,-10.906 c 0,-1.161 -0.247,-2.09 -0.741,-2.787 -0.494,-0.696 -1.178,-1.045 -2.053,-1.045 -0.521,0 -0.974,0.111 -1.36,0.333 -0.386,0.222 -0.701,0.534 -0.943,0.938 l -0.148,-1.137 h -0.619 v 10.07 h 0.807 v -3.764 c 0.243,0.354 0.556,0.627 0.94,0.82 0.383,0.193 0.829,0.289 1.336,0.289 0.866,0 1.546,-0.324 2.04,-0.971 0.494,-0.648 0.741,-1.516 0.741,-2.605 z m -103.292,2.312 h -0.801 v 1.123 l -0.464,1.875 h 0.552 l 0.713,-1.855 z m 115.774,-7.872 v 1.862 h -1.259 v 0.659 h 1.259 v 4.739 c 0,0.7 0.142,1.21 0.427,1.533 0.285,0.323 0.684,0.484 1.195,0.484 0.157,0 0.316,-0.017 0.475,-0.05 0.159,-0.034 0.293,-0.078 0.401,-0.131 l -0.122,-0.599 c -0.125,0.027 -0.234,0.046 -0.326,0.057 -0.092,0.012 -0.188,0.017 -0.286,0.017 -0.288,0 -0.518,-0.099 -0.69,-0.299 -0.173,-0.199 -0.26,-0.537 -0.26,-1.012 v -4.739 h 1.603 v -0.659 h -1.603 v -1.862 z m -87.719,7.761 c -0.372,-0.558 -0.559,-1.265 -0.559,-2.121 v -0.282 c 0,-0.842 0.187,-1.544 0.559,-2.104 0.373,-0.56 0.94,-0.84 1.703,-0.84 0.553,0 1.019,0.173 1.401,0.521 0.381,0.347 0.572,0.812 0.572,1.395 h 0.721 l 0.013,-0.041 c 0.018,-0.766 -0.233,-1.385 -0.754,-1.855 -0.521,-0.471 -1.172,-0.706 -1.953,-0.706 -0.969,0 -1.723,0.341 -2.262,1.022 -0.538,0.681 -0.808,1.55 -0.808,2.608 v 0.282 c 0,1.062 0.271,1.934 0.812,2.615 0.541,0.682 1.296,1.022 2.265,1.022 0.723,0 1.358,-0.226 1.906,-0.679 0.547,-0.452 0.812,-1.015 0.794,-1.687 l -0.013,-0.04 h -0.721 c 0,0.542 -0.198,0.965 -0.596,1.27 -0.397,0.305 -0.854,0.457 -1.37,0.457 -0.767,0 -1.337,-0.279 -1.71,-0.837 z m -67.521,0 c -0.372,-0.558 -0.559,-1.265 -0.559,-2.121 v -0.282 c 0,-0.842 0.187,-1.544 0.559,-2.104 0.373,-0.56 0.94,-0.84 1.704,-0.84 0.552,0 1.018,0.173 1.4,0.521 0.381,0.347 0.572,0.812 0.572,1.395 h 0.721 l 0.013,-0.041 c 0.018,-0.766 -0.233,-1.385 -0.754,-1.855 -0.521,-0.471 -1.172,-0.706 -1.952,-0.706 -0.97,0 -1.724,0.341 -2.263,1.022 -0.538,0.681 -0.808,1.55 -0.808,2.608 v 0.282 c 0,1.062 0.271,1.934 0.812,2.615 0.541,0.682 1.296,1.022 2.265,1.022 0.723,0 1.358,-0.226 1.906,-0.679 0.547,-0.452 0.812,-1.015 0.794,-1.687 l -0.013,-0.04 h -0.721 c 0,0.542 -0.198,0.965 -0.596,1.27 -0.397,0.305 -0.854,0.457 -1.37,0.457 -0.767,0 -1.337,-0.279 -1.71,-0.837 z m 151.958,1.251 c 0.415,-0.177 0.75,-0.4 1.006,-0.669 l -0.343,-0.552 c -0.247,0.247 -0.557,0.443 -0.929,0.589 -0.373,0.145 -0.781,0.218 -1.226,0.218 -0.74,0 -1.32,-0.273 -1.74,-0.82 -0.42,-0.547 -0.629,-1.235 -0.629,-2.064 v -0.222 h 5.069 V 219.1 c 0,-0.959 -0.241,-1.722 -0.724,-2.289 -0.482,-0.566 -1.165,-0.85 -2.05,-0.85 -0.879,0 -1.617,0.341 -2.211,1.022 -0.595,0.681 -0.892,1.546 -0.892,2.595 v 0.369 c 0,1.045 0.294,1.899 0.882,2.565 0.588,0.665 1.353,0.998 2.295,0.998 0.579,0 1.076,-0.088 1.492,-0.265 z m -41.099,-1.251 c -0.373,-0.558 -0.559,-1.265 -0.559,-2.121 v -0.282 c 0,-0.842 0.186,-1.544 0.559,-2.104 0.372,-0.56 0.94,-0.84 1.703,-0.84 0.552,0 1.019,0.173 1.4,0.521 0.382,0.347 0.573,0.812 0.573,1.395 h 0.72 l 0.014,-0.041 c 0.017,-0.766 -0.234,-1.385 -0.754,-1.855 -0.521,-0.471 -1.172,-0.706 -1.953,-0.706 -0.969,0 -1.723,0.341 -2.262,1.022 -0.539,0.681 -0.808,1.55 -0.808,2.608 v 0.282 c 0,1.062 0.27,1.934 0.811,2.615 0.541,0.682 1.296,1.022 2.266,1.022 0.722,0 1.357,-0.226 1.905,-0.679 0.548,-0.452 0.812,-1.015 0.795,-1.687 l -0.014,-0.04 h -0.72 c 0,0.542 -0.199,0.965 -0.596,1.27 -0.397,0.305 -0.854,0.457 -1.37,0.457 -0.768,0 -1.338,-0.279 -1.71,-0.837 z m -12.301,-2.06 c 0,1.089 0.246,1.957 0.738,2.605 0.491,0.647 1.172,0.971 2.043,0.971 0.516,0 0.965,-0.103 1.346,-0.309 0.382,-0.206 0.696,-0.502 0.943,-0.887 l 0.114,1.055 h 0.66 v -10.487 h -0.808 v 4.289 c -0.247,-0.385 -0.557,-0.683 -0.932,-0.894 -0.375,-0.211 -0.811,-0.316 -1.31,-0.316 -0.879,0 -1.565,0.349 -2.056,1.045 -0.492,0.697 -0.738,1.626 -0.738,2.787 z m -52.904,2.06 c -0.373,-0.558 -0.559,-1.265 -0.559,-2.121 v -0.282 c 0,-0.842 0.186,-1.544 0.559,-2.104 0.372,-0.56 0.94,-0.84 1.703,-0.84 0.552,0 1.019,0.173 1.4,0.521 0.382,0.347 0.573,0.812 0.573,1.395 h 0.72 l 0.014,-0.041 c 0.017,-0.766 -0.234,-1.385 -0.754,-1.855 -0.521,-0.471 -1.172,-0.706 -1.953,-0.706 -0.969,0 -1.723,0.341 -2.262,1.022 -0.539,0.681 -0.808,1.55 -0.808,2.608 v 0.282 c 0,1.062 0.27,1.934 0.811,2.615 0.541,0.682 1.296,1.022 2.266,1.022 0.722,0 1.357,-0.226 1.905,-0.679 0.548,-0.452 0.812,-1.015 0.795,-1.687 l -0.014,-0.04 h -0.72 c 0,0.542 -0.199,0.965 -0.596,1.27 -0.397,0.305 -0.854,0.457 -1.37,0.457 -0.768,0 -1.338,-0.279 -1.71,-0.837 z m -17.525,0 c -0.373,-0.558 -0.559,-1.265 -0.559,-2.121 v -0.282 c 0,-0.842 0.186,-1.544 0.559,-2.104 0.372,-0.56 0.94,-0.84 1.703,-0.84 0.552,0 1.019,0.173 1.401,0.521 0.381,0.347 0.572,0.812 0.572,1.395 h 0.72 l 0.014,-0.041 c 0.018,-0.766 -0.234,-1.385 -0.754,-1.855 -0.521,-0.471 -1.172,-0.706 -1.953,-0.706 -0.969,0 -1.723,0.341 -2.262,1.022 -0.539,0.681 -0.808,1.55 -0.808,2.608 v 0.282 c 0,1.062 0.271,1.934 0.811,2.615 0.541,0.682 1.296,1.022 2.266,1.022 0.723,0 1.358,-0.226 1.905,-0.679 0.548,-0.452 0.813,-1.015 0.795,-1.687 l -0.014,-0.04 h -0.72 c 0,0.542 -0.199,0.965 -0.596,1.27 -0.397,0.305 -0.854,0.457 -1.37,0.457 -0.768,0 -1.338,-0.279 -1.71,-0.837 z m 35.598,1.251 c 0.415,-0.177 0.751,-0.4 1.007,-0.669 l -0.344,-0.552 c -0.246,0.247 -0.556,0.443 -0.929,0.589 -0.372,0.145 -0.781,0.218 -1.225,0.218 -0.741,0 -1.321,-0.273 -1.74,-0.82 -0.42,-0.547 -0.63,-1.235 -0.63,-2.064 v -0.222 h 5.07 V 219.1 c 0,-0.959 -0.241,-1.722 -0.724,-2.289 -0.482,-0.566 -1.166,-0.85 -2.05,-0.85 -0.88,0 -1.617,0.341 -2.212,1.022 -0.594,0.681 -0.892,1.546 -0.892,2.595 v 0.369 c 0,1.045 0.294,1.899 0.882,2.565 0.588,0.665 1.354,0.998 2.296,0.998 0.579,0 1.076,-0.088 1.491,-0.265 z m -39.392,0 c 0.415,-0.177 0.751,-0.4 1.007,-0.669 l -0.344,-0.552 c -0.247,0.247 -0.556,0.443 -0.929,0.589 -0.372,0.145 -0.781,0.218 -1.225,0.218 -0.741,0 -1.321,-0.273 -1.741,-0.82 -0.419,-0.547 -0.629,-1.235 -0.629,-2.064 v -0.222 h 5.07 V 219.1 c 0,-0.959 -0.242,-1.722 -0.724,-2.289 -0.483,-0.566 -1.166,-0.85 -2.05,-0.85 -0.88,0 -1.617,0.341 -2.212,1.022 -0.595,0.681 -0.892,1.546 -0.892,2.595 v 0.369 c 0,1.045 0.294,1.899 0.882,2.565 0.588,0.665 1.353,0.998 2.296,0.998 0.579,0 1.076,-0.088 1.491,-0.265 z m 139.156,0 c 0.415,-0.177 0.75,-0.4 1.006,-0.669 l -0.343,-0.552 c -0.247,0.247 -0.557,0.443 -0.929,0.589 -0.373,0.145 -0.781,0.218 -1.226,0.218 -0.74,0 -1.32,-0.273 -1.74,-0.82 -0.42,-0.547 -0.63,-1.235 -0.63,-2.064 v -0.222 h 5.07 V 219.1 c 0,-0.959 -0.241,-1.722 -0.724,-2.289 -0.482,-0.566 -1.166,-0.85 -2.05,-0.85 -0.879,0 -1.617,0.341 -2.211,1.022 -0.595,0.681 -0.892,1.546 -0.892,2.595 v 0.369 c 0,1.045 0.293,1.899 0.882,2.565 0.587,0.665 1.353,0.998 2.295,0.998 0.579,0 1.076,-0.088 1.492,-0.265 z m -46.943,-3.399 c 0,1.076 0.294,1.956 0.882,2.639 0.588,0.683 1.371,1.025 2.349,1.025 0.97,0 1.747,-0.342 2.333,-1.025 0.586,-0.683 0.879,-1.563 0.879,-2.639 v -0.221 c 0,-1.071 -0.294,-1.95 -0.882,-2.635 -0.588,-0.686 -1.369,-1.029 -2.343,-1.029 -0.97,0 -1.748,0.343 -2.336,1.029 -0.588,0.685 -0.882,1.564 -0.882,2.635 z m -27.308,3.523 c -0.067,-0.238 -0.115,-0.477 -0.144,-0.719 -0.03,-0.242 -0.044,-0.491 -0.044,-0.747 v -3.576 c 0,-0.762 -0.242,-1.346 -0.727,-1.754 -0.485,-0.408 -1.127,-0.612 -1.926,-0.612 -0.799,0 -1.446,0.207 -1.942,0.622 -0.496,0.414 -0.731,0.895 -0.704,1.442 l 0.014,0.04 h 0.747 c 0,-0.408 0.17,-0.746 0.508,-1.015 0.339,-0.269 0.785,-0.403 1.337,-0.403 0.601,0 1.067,0.148 1.397,0.443 0.33,0.296 0.495,0.704 0.495,1.224 v 0.901 h -1.791 c -0.911,0 -1.652,0.201 -2.222,0.605 -0.57,0.403 -0.855,0.93 -0.855,1.579 0,0.65 0.196,1.164 0.589,1.543 0.393,0.379 0.946,0.568 1.66,0.568 0.588,0 1.108,-0.129 1.562,-0.386 0.453,-0.258 0.805,-0.584 1.057,-0.979 0,0.193 0.012,0.381 0.037,0.565 0.024,0.184 0.061,0.403 0.111,0.659 z m -54.527,-9.136 v 1.862 h -1.259 v 0.659 h 1.259 v 4.739 c 0,0.7 0.143,1.21 0.428,1.533 0.285,0.323 0.683,0.484 1.195,0.484 0.157,0 0.315,-0.017 0.475,-0.05 0.159,-0.034 0.292,-0.078 0.4,-0.131 l -0.121,-0.599 c -0.126,0.027 -0.235,0.046 -0.327,0.057 -0.092,0.012 -0.187,0.017 -0.286,0.017 -0.287,0 -0.517,-0.099 -0.69,-0.299 -0.173,-0.199 -0.259,-0.537 -0.259,-1.012 v -4.739 h 1.602 v -0.659 h -1.602 v -1.862 z m -29.024,5.613 c 0,1.076 0.294,1.956 0.882,2.639 0.588,0.683 1.371,1.025 2.35,1.025 0.969,0 1.747,-0.342 2.333,-1.025 0.585,-0.683 0.878,-1.563 0.878,-2.639 v -0.221 c 0,-1.071 -0.294,-1.95 -0.882,-2.635 -0.588,-0.686 -1.369,-1.029 -2.343,-1.029 -0.969,0 -1.748,0.343 -2.336,1.029 -0.588,0.685 -0.882,1.564 -0.882,2.635 z m 118.958,-3.751 v 7.274 h 0.808 v -5.129 c 0.135,-0.484 0.369,-0.868 0.703,-1.153 0.335,-0.285 0.785,-0.427 1.35,-0.427 0.561,0 1.002,0.19 1.323,0.568 0.321,0.379 0.482,1.007 0.482,1.886 v 4.255 h 0.814 v -4.363 l -0.006,-0.336 c 0.089,-0.591 0.303,-1.074 0.639,-1.449 0.337,-0.374 0.813,-0.561 1.428,-0.561 0.56,0 1,0.185 1.319,0.555 0.319,0.369 0.478,1.003 0.478,1.899 v 4.255 h 0.808 v -4.242 c 0,-1.08 -0.212,-1.878 -0.636,-2.393 -0.424,-0.515 -1.025,-0.773 -1.801,-0.773 -0.575,0 -1.065,0.144 -1.471,0.43 -0.407,0.287 -0.72,0.684 -0.939,1.19 -0.162,-0.547 -0.429,-0.953 -0.802,-1.22 -0.372,-0.267 -0.837,-0.4 -1.393,-0.4 -0.534,0 -0.996,0.117 -1.384,0.35 -0.388,0.233 -0.699,0.56 -0.932,0.981 l -0.074,-1.197 z m -109.929,-3.213 h -0.802 v 10.487 h 0.802 z m 3.13,0 h -0.801 v 10.487 h 0.801 z m 60.445,10.487 h 0.923 l 0.02,-0.034 -3.232,-3.905 2.989,-3.301 -0.013,-0.034 h -0.943 l -2.794,3.039 h -0.767 v -6.252 h -0.808 v 10.487 h 0.808 v -3.543 h 0.848 z m 12.907,-7.274 v 7.274 h 0.807 v -5.149 c 0.158,-0.475 0.412,-0.854 0.765,-1.136 0.352,-0.283 0.815,-0.424 1.39,-0.424 0.574,0 1.018,0.173 1.33,0.518 0.312,0.345 0.468,0.934 0.468,1.768 v 4.423 h 0.807 v -4.43 c 0,-1.022 -0.206,-1.774 -0.619,-2.255 -0.413,-0.482 -1.014,-0.723 -1.804,-0.723 -0.543,0 -1.012,0.122 -1.407,0.366 -0.395,0.245 -0.712,0.589 -0.95,1.032 l -0.074,-1.264 z m 54.271,-3.213 h -0.801 v 10.487 h 0.801 z m -92.869,0 h -0.808 v 10.487 h 0.808 v -5.19 c 0.17,-0.461 0.438,-0.83 0.804,-1.105 0.366,-0.276 0.832,-0.414 1.397,-0.414 0.548,0 0.978,0.172 1.29,0.514 0.312,0.343 0.468,0.909 0.468,1.698 v 4.497 h 0.807 v -4.484 c 0,-0.999 -0.205,-1.736 -0.616,-2.211 -0.41,-0.475 -0.999,-0.713 -1.767,-0.713 -0.539,0 -1.009,0.12 -1.41,0.36 -0.402,0.239 -0.726,0.577 -0.973,1.011 z m 64.754,6.743 c 0,-0.829 0.213,-1.533 0.639,-2.111 0.427,-0.578 1.017,-0.867 1.771,-0.867 0.754,0 1.346,0.289 1.777,0.867 0.431,0.578 0.647,1.282 0.647,2.111 v 0.221 c 0,0.843 -0.215,1.551 -0.643,2.125 -0.429,0.573 -1.018,0.86 -1.768,0.86 -0.763,0 -1.357,-0.287 -1.784,-0.86 -0.426,-0.574 -0.639,-1.282 -0.639,-2.125 z m 24.594,0.309 c 0,0.874 -0.183,1.575 -0.549,2.104 -0.366,0.529 -0.901,0.793 -1.606,0.793 -0.516,0 -0.947,-0.113 -1.292,-0.339 -0.346,-0.227 -0.613,-0.537 -0.802,-0.931 v -3.523 c 0.176,-0.408 0.432,-0.739 0.771,-0.995 0.339,-0.255 0.776,-0.383 1.31,-0.383 0.709,0 1.248,0.292 1.616,0.874 0.368,0.583 0.552,1.336 0.552,2.259 z m -135.453,-0.309 c 0,-0.829 0.213,-1.533 0.64,-2.111 0.426,-0.578 1.016,-0.867 1.77,-0.867 0.754,0 1.347,0.289 1.778,0.867 0.431,0.578 0.646,1.282 0.646,2.111 v 0.221 c 0,0.843 -0.214,1.551 -0.643,2.125 -0.429,0.573 -1.018,0.86 -1.767,0.86 -0.763,0 -1.358,-0.287 -1.784,-0.86 -0.427,-0.574 -0.64,-1.282 -0.64,-2.125 z m 92.869,0.168 c 0,-0.928 0.179,-1.682 0.535,-2.262 0.357,-0.581 0.89,-0.871 1.599,-0.871 0.539,0 0.977,0.13 1.313,0.39 0.337,0.26 0.597,0.596 0.781,1.008 v 3.449 c -0.193,0.408 -0.462,0.727 -0.808,0.958 -0.345,0.231 -0.778,0.346 -1.299,0.346 -0.709,0 -1.24,-0.26 -1.592,-0.78 -0.353,-0.52 -0.529,-1.219 -0.529,-2.097 z m -14.768,2.628 c -0.271,-0.251 -0.407,-0.582 -0.407,-0.995 0,-0.439 0.213,-0.814 0.64,-1.126 0.426,-0.311 0.967,-0.467 1.622,-0.467 h 1.798 v 1.392 c -0.162,0.461 -0.469,0.839 -0.923,1.132 -0.453,0.294 -0.989,0.441 -1.609,0.441 -0.476,0 -0.849,-0.126 -1.121,-0.377 z m 67.252,-5.146 c 0.339,0.419 0.508,0.951 0.508,1.597 v 0.168 h -4.174 l -0.02,-0.041 c 0.067,-0.681 0.301,-1.243 0.7,-1.687 0.4,-0.443 0.909,-0.665 1.528,-0.665 0.633,0 1.119,0.209 1.458,0.628 z m -127.623,0 c 0.339,0.419 0.509,0.951 0.509,1.597 v 0.168 h -4.175 l -0.02,-0.041 c 0.068,-0.681 0.301,-1.243 0.7,-1.687 0.4,-0.443 0.909,-0.665 1.529,-0.665 0.633,0 1.118,0.209 1.457,0.628 z m 39.393,0 c 0.338,0.419 0.508,0.951 0.508,1.597 v 0.168 h -4.174 l -0.02,-0.041 c 0.067,-0.681 0.3,-1.243 0.7,-1.687 0.399,-0.443 0.909,-0.665 1.528,-0.665 0.633,0 1.119,0.209 1.458,0.628 z m 99.763,0 c 0.339,0.419 0.508,0.951 0.508,1.597 v 0.168 h -4.174 l -0.02,-0.041 c 0.067,-0.681 0.3,-1.243 0.7,-1.687 0.399,-0.443 0.909,-0.665 1.528,-0.665 0.633,0 1.119,0.209 1.458,0.628 z"
                style="fill:#858585"
                inkscape:connector-curvature="0"/>
        <g
                aria-label="5"
                id="text170"
                style="font-size:506.667px;font-family:'Blogger Sans';-inkscape-font-specification:'Blogger Sans';opacity:1;fill:none;fill-opacity:1"
                inkscape:label="text170"><path
     d="m 314.52699,297.82482 q 0,21.28001 -6.08001,42.56002 -5.57333,21.28002 -18.24001,38.00003 -12.16,16.72001 -31.41335,27.36002 -19.25335,10.64 -46.61336,10.64 -7.60001,0 -24.32002,-1.52 -16.21334,-1.01333 -32.93335,-5.06667 -16.21335,-4.05333 -28.88002,-11.14667 -12.16001,-7.60001 -12.16001,-19.76001 0,-7.60001 5.06667,-13.17335 5.57334,-6.08 13.68001,-6.08 5.06667,0 10.64001,3.04 10.13334,6.08001 23.30668,11.65334 13.68001,5.57334 33.94669,5.57334 21.28001,0 35.46669,-6.58667 14.18667,-7.09334 22.80001,-18.24001 8.61334,-11.65334 12.16001,-25.84002 3.54667,-14.18668 3.54667,-29.38669 0,-18.74667 -5.06667,-32.93335 -4.56001,-14.18668 -13.17335,-23.30668 -8.61333,-9.12001 -20.26667,-13.68001 -11.65335,-4.56 -25.33335,-4.56 -11.14668,0 -20.26668,3.04 -8.61334,2.53333 -16.72001,7.09334 -8.61334,4.56 -14.18668,9.62667 -5.57334,4.56 -13.17334,4.56 -8.61334,0 -14.69335,-6.08 -6.08,-6.08001 -5.57333,-15.70668 l 5.06667,-151.493429 q 0.50666,-10.640007 7.6,-16.213343 7.09334,-6.080004 15.70668,-6.080004 h 122.10674 q 8.61334,0 15.70668,4.560003 7.60001,4.053336 7.60001,14.693342 0,10.13334 -7.60001,14.693343 -7.09334,4.053336 -15.70668,4.053336 H 167.08689 l -4.05333,109.440072 q 11.14667,-6.58667 23.30668,-9.12001 12.16001,-3.04 25.33335,-3.04 22.80001,0 41.54669,7.60001 18.74668,7.09333 32.42669,21.28001 13.68001,13.68001 21.28001,33.94669 7.60001,20.26668 7.60001,45.60003 z"
     style="opacity:0.1;fill:#ff7a00;fill-opacity:1"
     id="path295" /></g>
        <path
                id="Shape-46"
                serif:id="Shape 46"
                d="m 224.031,139.519 h 9.031 l -0.81,3.832 c 3.096,-3.537 6.413,-4.2 8.994,-4.2 3.906,0 6.781,1.768 7.593,6.337 3.538,-5.452 7.518,-6.263 10.246,-6.263 4.718,0 8.182,2.431 8.182,8.325 0,5.967 -3.538,14.879 -3.538,19.005 0,1.842 0.737,3.094 2.949,3.094 3.228,0 4.558,-2.626 6.168,-6.427 l 5.028,-23.703 h 10.615 l -0.811,3.832 c 3.097,-3.537 6.414,-4.2 8.994,-4.2 3.906,0 6.782,1.768 7.593,6.337 3.539,-5.452 7.519,-6.263 10.247,-6.263 4.718,0 8.182,2.431 8.182,8.325 0,5.967 -3.538,14.879 -3.538,19.005 0,1.842 0.737,3.094 2.949,3.094 1.252,0 1.99,-0.148 2.432,-0.442 -0.664,5.303 -4.202,7.588 -8.109,7.588 -5.676,0 -7.445,-4.126 -7.445,-8.326 0,-5.009 3.317,-14.069 3.317,-18.784 0,-2.431 -0.885,-3.757 -2.653,-3.757 -2.655,0 -4.645,3.094 -5.751,6.778 l -5.012,23.647 h -10.615 l 5.381,-25.416 c 0.147,-0.589 0.22,-1.178 0.22,-1.84 0,-1.621 -0.589,-3.241 -2.211,-3.241 -2.875,0 -4.865,3.166 -5.971,6.85 l -5.012,23.647 H 270.06 l 0.749,-3.527 c -3.003,3.369 -6.122,3.969 -8.554,3.969 -6.414,0 -8.699,-4.126 -8.699,-8.326 0,-5.009 3.317,-14.069 3.317,-18.784 0,-2.431 -0.884,-3.757 -2.653,-3.757 -2.655,0 -4.645,3.094 -5.75,6.778 l -5.013,23.647 h -10.615 l 5.381,-25.416 c 0.148,-0.589 0.221,-1.178 0.221,-1.84 0,-1.621 -0.59,-3.241 -2.212,-3.241 -2.875,0 -4.865,3.166 -5.97,6.85 l -5.013,23.647 h -9.032 l -3.907,18.415 h -2.245 l 15.628,-73.664 h 2.245 z m -100.174,30.675 c -4.031,5.671 -8.95,6.601 -11.965,6.601 -4.424,0 -7.888,-2.652 -7.888,-8.84 0,-1.4 0.22,-3.02 0.589,-4.789 l 4.424,-20.699 h -2.433 l 0.59,-2.948 h 2.432 l 2.211,-10.164 10.91,-1.474 -2.506,11.638 h 4.423 l -0.59,2.948 h -4.422 l -4.718,22.099 c -0.221,0.957 -0.296,1.694 -0.296,2.357 0,2.063 0.959,2.726 3.024,2.726 2.869,0 5.518,-2.789 6.627,-6.461 l 0.004,-0.022 5.012,-23.647 h 10.616 l -5.308,25.047 c -0.221,0.957 -0.295,1.694 -0.295,2.357 0,2.063 0.959,2.726 3.023,2.726 2.86,0 5.502,-2.771 6.616,-6.427 l 5.028,-23.703 h 10.615 l -0.811,3.832 c 3.097,-3.537 6.34,-4.126 8.625,-4.126 4.718,0 8.182,2.431 8.182,8.325 0,5.967 -3.538,14.879 -3.538,19.005 0,1.842 0.738,3.094 2.949,3.094 3.236,0 4.564,-2.639 6.18,-6.455 l 0.005,-0.028 5.013,-23.647 H 196.8 l -5.307,25.047 c -0.147,0.589 -0.221,1.252 -0.221,1.843 0,1.692 0.516,3.24 2.211,3.24 2.875,0 4.791,-2.8 5.898,-6.483 l 5.012,-23.647 h 10.69 l -8.994,42.726 c -2.212,10.534 -8.551,12.523 -13.416,12.523 -4.498,0 -8.7,-3.166 -8.7,-7.955 0,-6.851 5.75,-8.987 12.754,-11.049 l 0.737,-3.243 c -3.17,3.611 -6.487,4.274 -8.993,4.274 -3.744,0 -6.8,-1.899 -7.641,-6.236 -3.491,5.383 -7.366,6.236 -10.266,6.236 -6.414,0 -8.698,-4.126 -8.698,-8.326 0,-5.009 3.317,-14.069 3.317,-18.784 0,-2.431 -0.885,-3.757 -2.654,-3.757 -2.654,0 -4.645,3.094 -5.75,6.778 l -5.013,23.647 h -10.615 l 0.921,-4.34 c -3.705,4.059 -7.843,4.782 -10.501,4.782 -3.847,0 -6.969,-2.006 -7.714,-6.601 z m 67.12,18.019 c 1.474,0 3.391,-1.4 4.349,-5.746 l 0.885,-4.346 c -4.645,1.546 -8.183,3.683 -8.183,7.661 0,1.031 1.327,2.431 2.949,2.431 z m -54.394,-64.384 c 3.244,0 5.898,2.652 5.898,5.893 0,3.242 -2.654,5.82 -5.898,5.82 -3.243,0 -5.823,-2.578 -5.823,-5.82 0,-3.241 2.58,-5.893 5.823,-5.893 z m 197.333,-8.826 c -5.178,0 -9.391,4.209 -9.391,9.384 0,5.175 4.213,9.384 9.391,9.384 5.178,0 9.391,-4.209 9.391,-9.384 0,-5.175 -4.213,-9.384 -9.391,-9.384 z m 0,16.719 c -4.049,0 -7.342,-3.291 -7.342,-7.335 0,-3.381 2.304,-6.228 5.424,-7.074 l -1.282,6.004 c -0.135,0.645 -0.215,1.238 -0.215,1.749 0,2.259 1.265,3.23 2.882,3.23 1.454,0 4.119,-0.592 5.655,-4.979 h -1.131 c -0.405,1.345 -1.374,2.369 -2.424,2.369 -0.753,0 -1.104,-0.242 -1.104,-0.995 0,-0.244 0.027,-0.514 0.109,-0.862 l 1.387,-6.504 c 3.099,0.86 5.383,3.695 5.383,7.062 0,4.044 -3.293,7.335 -7.342,7.335 z"
                style="fill:#ff7a00"
                inkscape:connector-curvature="0"/>
        
    </g>
</svg>
