<?xml version="1.0" encoding="UTF-8" standalone="no"?>
<svg
        xmlns:dc="http://purl.org/dc/elements/1.1/"
        xmlns:cc="http://creativecommons.org/ns#"
        xmlns:rdf="http://www.w3.org/1999/02/22-rdf-syntax-ns#"
        xmlns="http://www.w3.org/2000/svg"
        xmlns:xlink="http://www.w3.org/1999/xlink"
        xmlns:sodipodi="http://sodipodi.sourceforge.net/DTD/sodipodi-0.dtd"
        xmlns:inkscape="http://www.inkscape.org/namespaces/inkscape"
        inkscape:version="1.0 (4035a4fb49, 2020-05-01)"
        sodipodi:docname="tmm_logo.svg"
        id="svg6"
        style="fill-rule:evenodd;clip-rule:evenodd;stroke-linejoin:round;stroke-miterlimit:2;"
        xml:space="preserve"
        version="1.1"
        viewBox="0 0 600 270"
        height="100%"
        width="100%"><metadata
   id="metadata12"><rdf:RDF><cc:Work
       rdf:about=""><dc:format>image/svg+xml</dc:format><dc:type
        rdf:resource="http://purl.org/dc/dcmitype/StillImage"/><dc:title></dc:title></cc:Work></rdf:RDF></metadata>
    <defs
            id="defs10"><linearGradient
     id="linearGradient18"
     inkscape:collect="always"><stop
       id="stop14"
       offset="0"
       style="stop-color:#ff7413;stop-opacity:1;" /><stop
            id="stop16"
            offset="1"
            style="stop-color:#ffa100;stop-opacity:1;"/></linearGradient>
        <linearGradient
                gradientUnits="userSpaceOnUse"
                y2="1929.1329"
                x2="1890.385"
                y1="2095.51"
                x1="1889.2"
                id="linearGradient20"
                xlink:href="#linearGradient18"
                inkscape:collect="always"/></defs>
    <sodipodi:namedview
            inkscape:current-layer="svg6"
            inkscape:window-maximized="0"
            inkscape:window-y="31"
            inkscape:window-x="53"
            inkscape:cy="150"
            inkscape:cx="300"
            inkscape:zoom="2.0483333"
            showgrid="false"
            id="namedview8"
            inkscape:window-height="1028"
            inkscape:window-width="1744"
            inkscape:pageshadow="2"
            inkscape:pageopacity="0"
            guidetolerance="10"
            gridtolerance="10"
            objecttolerance="10"
            borderopacity="1"
            bordercolor="#666666"
            pagecolor="#ffffff"/>
    <g
            id="g4"
            transform="matrix(1,0,0,1,-1612.86,-1862.27)">
        <path
                id="path2"
                style="fill:url(#linearGradient20);fill-rule:nonzero;fill-opacity:1"
                d="M1913.65,1980.21L1932.48,1980.21L1930.79,1988.2C1937.25,1980.82 1944.17,1979.43 1949.55,1979.43C1957.69,1979.43 1963.69,1983.13 1965.38,1992.66C1972.76,1981.29 1981.06,1979.59 1986.75,1979.59C1996.59,1979.59 2003.81,1984.66 2003.81,1996.96C2003.81,2009.42 1996.43,2028.02 1996.43,2036.63C1996.43,2040.47 1997.97,2043.09 2002.58,2043.09C2009.32,2043.09 2012.09,2037.6 2015.45,2029.67L2025.93,1980.21L2048.07,1980.21L2046.38,1988.2C2052.84,1980.82 2059.75,1979.43 2065.13,1979.43C2073.28,1979.43 2079.28,1983.13 2080.97,1992.66C2088.35,1981.29 2096.65,1979.59 2102.34,1979.59C2112.18,1979.59 2119.4,1984.66 2119.4,1996.96C2119.4,2009.42 2112.02,2028.02 2112.02,2036.63C2112.02,2040.47 2113.56,2043.09 2118.17,2043.09C2120.78,2043.09 2122.32,2042.78 2123.25,2042.16C2121.86,2053.23 2114.48,2058 2106.33,2058C2094.5,2058 2090.81,2049.39 2090.81,2040.62C2090.81,2030.17 2097.72,2011.26 2097.72,2001.42C2097.72,1996.35 2095.88,1993.58 2092.19,1993.58C2086.65,1993.58 2082.5,2000.04 2080.2,2007.73L2069.75,2057.07L2047.61,2057.07L2058.83,2004.04C2059.14,2002.81 2059.29,2001.58 2059.29,2000.19C2059.29,1996.81 2058.06,1993.43 2054.68,1993.43C2048.68,1993.43 2044.53,2000.04 2042.23,2007.73L2031.78,2057.07L2009.64,2057.07L2011.2,2049.72C2004.93,2056.75 1998.43,2058 1993.36,2058C1979.99,2058 1975.22,2049.39 1975.22,2040.62C1975.22,2030.17 1982.14,2011.26 1982.14,2001.42C1982.14,1996.35 1980.29,1993.58 1976.6,1993.58C1971.07,1993.58 1966.92,2000.04 1964.61,2007.73L1954.16,2057.07L1932.02,2057.07L1943.25,2004.04C1943.55,2002.81 1943.7,2001.58 1943.7,2000.19C1943.7,1996.81 1942.47,1993.43 1939.09,1993.43C1933.1,1993.43 1928.94,2000.04 1926.64,2007.73L1916.19,2057.07L1897.35,2057.07L1889.2,2095.51L1884.52,2095.51L1917.11,1941.77L1921.8,1941.77L1913.65,1980.21ZM1704.74,2044.24C1696.32,2056.06 1686.07,2058 1679.79,2058C1670.56,2058 1663.34,2052.46 1663.34,2039.55C1663.34,2036.63 1663.8,2033.25 1664.57,2029.56L1673.79,1986.36L1668.72,1986.36L1669.95,1980.21L1675.02,1980.21L1679.63,1958.99L1702.38,1955.92L1697.16,1980.21L1706.38,1980.21L1705.15,1986.36L1695.93,1986.36L1686.09,2032.48C1685.63,2034.48 1685.47,2036.01 1685.47,2037.4C1685.47,2041.7 1687.47,2043.09 1691.78,2043.09C1697.75,2043.09 1703.27,2037.29 1705.59,2029.64L1705.61,2029.55L1716.06,1980.2L1738.2,1980.2L1727.13,2032.48C1726.67,2034.48 1726.51,2036.01 1726.51,2037.4C1726.51,2041.7 1728.51,2043.08 1732.82,2043.08C1738.78,2043.08 1744.28,2037.31 1746.61,2029.69L1757.1,1980.21L1779.24,1980.21L1777.55,1988.2C1784.01,1980.82 1790.77,1979.59 1795.53,1979.59C1805.37,1979.59 1812.6,1984.66 1812.6,1996.96C1812.6,2009.42 1805.22,2028.02 1805.22,2036.63C1805.22,2040.47 1806.76,2043.09 1811.37,2043.09C1818.12,2043.09 1820.89,2037.58 1824.26,2029.61L1824.27,2029.55L1834.72,1980.2L1856.86,1980.2L1845.79,2032.48C1845.49,2033.7 1845.33,2035.09 1845.33,2036.32C1845.33,2039.85 1846.41,2043.08 1849.94,2043.08C1855.93,2043.08 1859.93,2037.24 1862.24,2029.55L1872.69,1980.2L1894.99,1980.2L1876.23,2069.37C1871.62,2091.35 1858.4,2095.5 1848.25,2095.5C1838.87,2095.5 1830.11,2088.9 1830.11,2078.9C1830.11,2064.6 1842.1,2060.15 1856.71,2055.85L1858.24,2049.08C1851.63,2056.61 1844.71,2058 1839.49,2058C1831.69,2058 1825.32,2054.04 1823.54,2045.02C1816.26,2056.22 1808.19,2058 1802.14,2058C1788.77,2058 1784.01,2049.39 1784.01,2040.62C1784.01,2030.17 1790.92,2011.26 1790.92,2001.42C1790.92,1996.35 1789.08,1993.58 1785.39,1993.58C1779.86,1993.58 1775.7,2000.04 1773.4,2007.73L1762.94,2057.07L1740.81,2057.07L1742.72,2048.03C1734.99,2056.49 1726.37,2058 1720.83,2058C1712.81,2058 1706.3,2053.82 1704.74,2044.24ZM1844.71,2081.82C1847.79,2081.82 1851.79,2078.9 1853.79,2069.83L1855.63,2060.76C1845.94,2063.99 1838.56,2068.45 1838.56,2076.75C1838.56,2078.9 1841.33,2081.82 1844.71,2081.82ZM1731.28,1947.46C1738.05,1947.46 1743.58,1953 1743.58,1959.76C1743.58,1966.53 1738.05,1971.9 1731.28,1971.9C1724.51,1971.9 1719.13,1966.53 1719.13,1959.76C1719.13,1953 1724.51,1947.46 1731.28,1947.46ZM2142.8,1929.04C2132,1929.04 2123.22,1937.83 2123.22,1948.62C2123.22,1959.42 2132,1968.21 2142.8,1968.21C2153.6,1968.21 2162.39,1959.42 2162.39,1948.62C2162.39,1937.83 2153.6,1929.04 2142.8,1929.04ZM2142.8,1963.93C2134.36,1963.93 2127.49,1957.07 2127.49,1948.62C2127.49,1941.57 2132.3,1935.63 2138.8,1933.86L2136.13,1946.39C2135.85,1947.74 2135.68,1948.98 2135.68,1950.04C2135.68,1954.76 2138.32,1956.78 2141.69,1956.78C2144.72,1956.78 2150.28,1955.55 2153.48,1946.39L2151.13,1946.39C2150.28,1949.2 2148.26,1951.34 2146.07,1951.34C2144.5,1951.34 2143.77,1950.83 2143.77,1949.26C2143.77,1948.75 2143.82,1948.19 2143.99,1947.46L2146.89,1933.89C2153.35,1935.68 2158.12,1941.6 2158.12,1948.62C2158.12,1957.07 2151.24,1963.93 2142.8,1963.93Z"/>
    </g>
</svg>
