<?xml version="1.0" encoding="UTF-8" standalone="no"?>
<svg xmlns="http://www.w3.org/2000/svg"
     version="1.1"
     id="svg2"
     width="304"
     height="97"
     viewBox="-5 -10 314 97">

    <path id="path239"
          d="m 132.32,57.558 c 0,-1.59 -0.518,-2.186 -2.071,-2.186 h -7.087 v 16.061 h 7.046 c 1.422,0 2.112,-0.441 2.112,-2.121 z m -1.446,17.793 H 117.81 v -23.92 h 13.301 c 4.802,0 6.536,2.145 6.536,6.055 v 11.217 c 0,5.234 -2.144,6.648 -6.773,6.648"
    />

    <rect id="rect241"
          x="143.196"
          y="51.423"
          width="5.323"
          height="23.927999"
    />

    <path id="path243"
          d="m 170.294,75.351 -0.553,-1.613 c -0.796,1.027 -2.313,2.031 -5.982,2.031 h -2.627 c -4.561,0 -7.049,-1.422 -7.049,-6.527 V 57.246 c 0,-6.232 4.674,-6.305 7.917,-6.305 h 6.248 c 2.394,0 4.465,0.457 5.5,1.043 v 3.068 h -12.061 c -1.422,0 -2.289,0.354 -2.289,2.297 v 12.479 c 0,1.557 0.98,1.941 2.257,1.941 h 3.701 c 0.996,0 2.892,-0.426 3.759,-0.875 v -5.563 h -5.011 v -3.52 h 10.197 V 75.35 h -4.007 z"
    />

    <rect id="rect245"
          x="180.02699"
          y="51.423"
          width="5.3239999"
          height="23.927999"
    />

    <polygon id="polygon247"
             points="188.719,55.341 188.719,51.423 208.343,51.423 208.343,55.341 201.229,55.341 201.229,75.351 195.913,75.351 195.913,55.341 "
             transform="translate(-0.397)"
    />

    <path id="path249"
          d="m 219.147,55.865 -0.313,-1.424 h -0.111 l -0.338,1.424 -2.971,9.338 h 6.776 z m 6.352,19.486 -2.008,-6.143 h -9.33 l -1.992,6.143 h -4.736 l 8.527,-24.137 h 6.326 l 8.641,24.137 z"
    />

    <polygon id="polygon251"
             points="252.217,71.281 252.217,75.351 235.9,75.351 235.9,51.431 241.216,51.431 241.216,71.281 "
             transform="translate(-0.397)"/>
    <path id="path255"
          d="m 294.744,1.686 -9.949,18.007 -9.612,-18.007 h -9.01 c 1.687,3.052 13.474,25.209 13.474,25.209 v 14.619 h 9.668 c 0.008,-1.973 0,-14.555 0,-14.555 0,0 12.245,-22.206 13.972,-25.273 z"
    />

    <path id="path257"
          d="M 95.593,66.359 H 83.214 C 70.376,66.359 59.677,53.7 59.677,37.992 59.677,22.782 70.376,9.884 83.214,9.884 h 12.377 z m -70.46,0 H 12.779 V 9.884 h 12.354 c 12.814,0 23.549,12.897 23.549,28.107 C 48.684,53.7 37.948,66.359 25.133,66.359 M 0,76.25 H 108.353 V 0 H 0 Z"
    />

    <path id="path259"
          d="M 190.599,3.903 C 187.853,1.992 183.228,1 177.222,1 c -5.861,0 -10.117,0.803 -13.391,2.919 -3.42,2.2 -5.033,5.894 -5.033,11.675 v 12.538 c 0,5.79 1.679,9.704 4.994,11.644 2.678,1.867 7.055,2.753 13.43,2.753 6.295,0 10.792,-0.902 13.361,-2.705 3.324,-2.071 5.059,-6.082 5.059,-11.691 v -12.54 c 0,-5.5 -1.685,-9.423 -5.043,-11.69 m -3.975,23.671 c 0,7.062 -2.465,8.688 -9.402,8.688 -6.922,0 -9.395,-1.626 -9.395,-8.688 V 15.642 c 0,-6.89 2.473,-8.379 9.395,-8.379 6.938,0 9.402,1.489 9.402,8.379 z"
    />

    <path id="path261"
          d="m 137.231,1.686 h -19.945 v 39.847 h 21.354 c 10.515,0 14.429,-4.3 14.429,-15.854 v -8.757 c 0,-10.968 -4.44,-15.236 -15.838,-15.236 m 6.926,24.948 c 0,6.981 -3.726,8.74 -6.85,8.74 H 126.283 V 7.532 h 11.024 c 3.124,0 6.85,1.763 6.85,8.255 z"
    />

    <polygon id="polygon263"
             points="228.236,34.897 211.633,34.897 211.633,1.686 202.641,1.686 202.641,41.529 228.236,41.529 "
             transform="translate(-0.397)"
    />

    <path id="path265"
          d="m 298.757,38.06 h 0.755 l 1.156,1.899 h 0.738 l -1.236,-1.936 c 0.643,-0.08 1.133,-0.417 1.133,-1.185 0,-0.863 -0.506,-1.248 -1.55,-1.248 h -1.654 v 4.368 h 0.658 z m 0,-1.911 h 0.898 c 0.771,0 0.973,0.225 0.973,0.643 0,0.478 -0.266,0.707 -1.076,0.707 h -0.795 z m -3.018,1.606 c 0,2.204 1.75,3.79 3.83,3.79 2.047,0 3.806,-1.586 3.806,-3.79 0,-2.164 -1.759,-3.742 -3.806,-3.742 -2.08,0 -3.83,1.578 -3.83,3.742 m 6.913,0 c 0,1.851 -1.355,3.171 -3.083,3.171 -1.751,0 -3.1,-1.32 -3.1,-3.171 0,-1.803 1.349,-3.152 3.1,-3.152 1.726,0 3.083,1.35 3.083,3.152"
    />

    <path id="path267"
          d="m 249.874,35.728 h -8.109 V 7.419 7.395 h 8.84 c 2.995,0 4.857,2.381 4.857,5.629 0,5.003 -2.408,5.123 -9.307,5.38 v 4.613 c 6.151,-0.017 11.09,-0.397 11.09,5.985 10e-4,3.197 -2.038,6.726 -7.371,6.726 m 4.769,-15.285 c 7.065,-0.642 8.601,-4.11 8.601,-9.085 0,-4.393 -1.854,-6.62 -3.896,-7.877 -1.702,-1.072 -3.718,-1.795 -7.949,-1.795 h -18.637 v 39.847 h 18.878 c 5.798,0 8.214,-1.152 9.33,-1.923 1.928,-1.276 4.417,-4.119 4.417,-8.668 0,-5.344 -1.863,-10.707 -10.744,-10.499"
    />
</svg>
