<?xml version="1.0" encoding="UTF-8" standalone="no"?>
<svg xmlns="http://www.w3.org/2000/svg"
     version="1.0"
     width="1000"
     height="426"
     viewBox="-15 -60 1030 426"
     preserveAspectRatio="xMidYMid meet"
     id="svg40">

    <g transform="matrix(0.1,0,0,-0.1,-0.1625,327.00001)"
       id="g38">

        <path d="M 5,3558 C 2,3551 1,3043 2,2430 L 5,1315 h 815 815 v 1125 1125 l -813,3 c -645,2 -814,0 -817,-10 z m 880,-252 c 185,-50 335,-176 419,-348 26,-52 59,-142 73,-199 26,-98 27,-117 27,-324 0,-206 -2,-226 -27,-320 -63,-236 -193,-411 -369,-495 -123,-59 -194,-69 -495,-70 H 260 v 883 c 0,486 3,887 8,891 4,5 131,6 282,3 213,-3 289,-8 335,-21 z"
              id="path2"/>

        <path d="m 1895,3558 c -3,-7 -4,-515 -3,-1128 l 3,-1115 h 815 815 v 1125 1125 l -813,3 c -645,2 -814,0 -817,-10 z M 3260,2439 v -891 l -282,4 c -311,5 -347,11 -468,70 -45,23 -91,58 -151,118 -72,71 -94,101 -133,180 -25,52 -58,140 -73,195 -25,94 -27,113 -27,325 0,201 2,234 22,310 74,286 228,469 457,544 84,27 159,34 413,35 l 242,1 z"
              id="path4"/>

        <path d="M 3990,2445 V 1320 h 2995 2995 l -2,1123 -3,1122 -2992,3 -2993,2 z m 5830,0 V 1480 H 6985 4150 v 965 965 h 2835 2835 z"
              id="path6"/>

        <path d="m 5951,2940 c -107,-23 -183,-86 -220,-184 -17,-46 -22,-88 -27,-229 -13,-379 29,-507 185,-569 49,-19 80,-22 241,-26 117,-3 209,0 252,8 89,16 164,61 201,122 50,80 57,136 54,403 -3,223 -5,244 -26,299 -30,74 -83,127 -157,157 -54,21 -77,23 -259,25 -110,2 -220,-1 -244,-6 z m 356,-241 c 42,-25 48,-61 48,-269 0,-216 -4,-232 -60,-256 -43,-18 -210,-19 -244,-1 -52,26 -61,52 -67,197 -7,156 6,282 32,311 9,11 31,24 48,29 45,14 216,6 243,-11 z"
              id="path8"/>

        <path d="m 7617,2944 c -4,-4 -7,-232 -7,-506 v -498 h 353 c 396,0 422,4 476,66 71,80 79,287 14,364 -31,38 -55,51 -118,65 l -50,12 35,8 c 112,24 143,70 142,217 0,148 -39,219 -142,258 -26,10 -121,15 -365,18 -182,2 -333,0 -338,-4 z m 528,-216 c 58,-26 56,-153 -3,-177 -17,-7 -72,-11 -142,-9 l -114,3 1,95 c 1,52 2,96 2,98 3,8 235,0 256,-10 z m 20,-388 c 29,-11 53,-58 49,-98 -1,-15 -2,-32 -3,-39 -1,-7 -11,-21 -23,-33 -20,-18 -35,-20 -162,-20 h -141 l 2,93 c 0,50 2,95 2,100 1,11 246,9 276,-3 z"
              id="path10"/>

        <path d="m 4610,2440 v -500 l 268,-1 c 356,-2 386,0 460,23 104,32 162,96 188,208 20,83 13,508 -9,575 -20,61 -67,119 -116,145 -88,44 -142,50 -475,50 h -316 z m 605,240 c 15,-14 31,-36 37,-50 5,-14 9,-101 8,-193 -1,-260 -8,-269 -227,-275 l -143,-4 v 277 277 l 149,-4 c 143,-3 151,-4 176,-28 z"
              id="path12"/>

        <path d="m 6810,2440 v -500 h 340 340 v 105 105 h -210 -210 v 395 395 h -130 -130 z"
              id="path14"/>

        <path d="m 8533,2933 c 3,-5 82,-151 176,-326 l 171,-318 v -175 -174 h 135 135 v 174 175 l 163,303 c 90,167 169,313 176,326 l 12,22 h -149 -149 l -89,-195 c -49,-108 -93,-195 -99,-195 -5,0 -50,88 -99,195 l -90,195 h -148 c -82,0 -147,-3 -145,-7 z"
              id="path16"/>

        <path d="m 2257,970 c -197,-63 -321,-250 -321,-485 1,-82 5,-113 27,-174 61,-172 164,-264 335,-297 124,-24 247,-1 319,61 23,19 43,35 46,35 2,0 7,-22 11,-50 l 7,-50 h 74 75 v 265 265 h -190 c -219,0 -204,8 -198,-110 l 3,-65 92,-3 92,-3 -10,-27 c -15,-39 -47,-71 -99,-97 -173,-88 -333,16 -347,225 -14,204 87,331 253,317 80,-6 136,-40 155,-92 l 13,-35 h 118 c 65,0 118,4 118,8 0,24 -35,120 -54,151 -29,46 -94,104 -143,129 -106,55 -265,68 -376,32 z"
              id="path18"/>

        <path d="M 35,958 C 32,951 31,736 32,480 L 35,15 266,13 c 259,-2 317,6 416,59 32,17 74,48 93,69 43,47 91,142 105,206 15,64 14,227 -1,288 C 838,804 728,915 564,953 480,973 42,977 35,958 Z M 489,749 C 592,727 650,634 650,490 650,393 630,334 581,286 531,237 484,224 364,228 l -99,3 3,265 3,264 h 84 c 46,0 107,-5 134,-11 z"
              id="path20"/>

        <path d="m 1299,966 c -2,-2 -3,-218 -1,-480 l 2,-476 h 115 115 v 480 480 h -113 c -63,0 -116,-2 -118,-4 z"
              id="path22"/>

        <path d="m 3235,958 c -3,-7 -4,-222 -3,-478 l 3,-465 h 115 115 v 475 475 l -113,3 c -84,2 -114,-1 -117,-10 z"
              id="path24"/>

        <path d="M 3820,865 V 760 h 140 140 V 385 10 h 115 c 111,0 115,1 120,23 3,12 4,181 3,374 l -3,352 140,3 140,3 v 100 100 l -397,3 -398,2 z"
              id="path26"/>

        <path d="M 4946,503 C 4848,246 4769,31 4769,25 c 1,-6 47,-10 118,-10 h 117 l 29,83 30,82 175,-2 175,-3 30,-82 30,-83 h 118 c 66,0 119,3 119,8 0,4 -81,218 -179,477 l -178,470 -115,3 -115,3 z m 353,14 50,-147 h -109 c -61,0 -110,3 -110,6 0,25 106,310 112,300 4,-7 30,-79 57,-159 z"
              id="path28"/>

        <path d="M 6040,490 V 10 h 335 335 v 105 105 h -220 -220 v 375 375 h -115 -115 z"
              id="path30"/>

        <path d="M 7970,490 V 10 l 378,2 377,3 v 100 100 l -262,3 -261,2 1,88 2,87 233,3 232,2 v 100 100 h -235 -235 v 80 80 l 253,2 252,3 v 100 100 l -367,3 -368,2 z"
              id="path32"/>

        <path d="m 9030,965 c 0,-3 72,-102 160,-220 88,-119 160,-218 160,-220 0,-3 -79,-119 -176,-258 L 8999,15 9147,12 c 135,-2 149,-1 163,16 9,11 51,80 94,156 43,75 80,136 82,136 2,0 45,-70 95,-155 l 91,-155 h 149 c 82,0 149,3 149,6 0,5 -106,161 -331,485 l -18,25 160,214 c 87,118 159,218 159,222 0,5 -69,7 -152,6 l -153,-3 -70,-137 c -38,-75 -72,-139 -75,-142 -3,-2 -39,60 -80,140 l -74,144 h -153 c -84,0 -153,-2 -153,-5 z"
              id="path34"/>

        <path d="m 7165,656 c -56,-35 -88,-86 -93,-151 -15,-179 196,-277 324,-150 89,89 80,214 -22,291 -30,23 -49,29 -103,32 -56,2 -72,-1 -106,-22 z"
              id="path36"/>
    </g>
</svg>
