<?xml version="1.0" encoding="UTF-8" standalone="no"?>
<svg xmlns="http://www.w3.org/2000/svg"
     version="1.0"
     width="640"
     height="302"
     viewBox="-15 -20 670 302"
     preserveAspectRatio="xMidYMid meet"
     id="svg54">

    <g transform="matrix(0.1,0,0,-0.1,0,261)"
       id="g52"
       style="stroke:none">

        <path d="m 12,2438 3,-173 h 100 c 93,0 100,1 100,20 0,18 -7,20 -55,20 h -55 v 60 60 l 51,-3 c 37,-2 53,1 57,11 9,25 -7,36 -58,39 l -50,3 v 45 45 h 55 c 49,0 55,2 58,23 3,22 2,22 -103,22 H 10 Z"
              id="path2"/>

        <path d="m 801,2533 c 23,-43 47,-85 52,-94 7,-12 -2,-34 -42,-92 -28,-42 -51,-79 -51,-82 0,-3 12,-5 28,-5 23,0 33,10 60,55 18,30 35,55 37,55 3,0 19,-25 36,-55 30,-54 32,-55 75,-55 24,0 44,5 44,11 0,5 -21,50 -47,98 l -48,88 53,77 53,76 h -33 c -29,0 -36,-6 -61,-50 -16,-28 -32,-50 -36,-50 -4,0 -20,23 -35,50 -27,50 -27,50 -78,50 h -50 z"
              id="path4"/>

        <path d="m 1580,2585 c 0,-24 3,-25 43,-23 l 42,3 3,-152 3,-153 h 44 45 v 154 155 l 42,-2 c 38,-2 43,1 44,21 1,22 0,22 -132,22 h -134 z"
              id="path6"/>

        <path d="m 2400,2435 v -175 h 100 100 v 26 c 0,24 -2,25 -52,23 l -53,-3 -3,63 -3,63 56,-7 c 54,-7 55,-7 55,19 0,25 -2,26 -55,26 h -55 v 51 50 l 55,-6 c 54,-7 55,-7 55,19 v 26 h -100 -100 z"
              id="path8"/>

        <path d="m 3170,2435 v -175 h 25 25 v 110 c 0,62 4,110 9,110 6,0 54,-49 108,-110 79,-88 103,-109 126,-110 h 27 v 175 175 h -25 -25 v -105 c 0,-58 -2,-105 -4,-105 -5,0 -110,109 -161,168 -30,34 -44,42 -71,42 h -34 z"
              id="path10"/>

        <path d="m 4080,2435 v -175 h 103 c 87,0 108,4 142,23 89,50 118,161 68,260 -27,54 -65,67 -195,67 h -118 z m 174,131 c 49,-20 66,-51 66,-119 0,-95 -40,-147 -112,-147 h -38 v 140 140 h 25 c 14,0 41,-6 59,-14 z"
              id="path12"/>

        <path d="m 4982,2438 3,-173 103,-3 102,-3 v 26 c 0,26 -2,26 -57,24 l -58,-3 v 60 59 l 53,-3 c 50,-3 52,-2 52,22 0,23 -4,25 -52,28 l -53,3 v 45 45 h 55 c 49,0 55,2 58,23 3,22 2,22 -103,22 h -105 z"
              id="path14"/>

        <path d="m 5752,2438 3,-173 100,-3 c 90,-2 106,0 145,21 61,32 90,84 90,160 0,64 -14,99 -55,137 -25,24 -34,25 -156,28 l -129,4 z m 205,117 c 31,-21 46,-77 38,-141 -9,-76 -36,-105 -103,-112 l -52,-5 v 135 c 0,74 3,138 8,142 10,11 83,-2 109,-19 z"
              id="path16"/>

        <path d="m 4848,2142 -1238,-2 V 1310 480 l 1248,2 1247,3 3,821 c 2,650 -1,823 -10,830 -8,5 -552,8 -1250,6 z M 6030,1310 V 550 H 4861 c -1057,0 -1169,2 -1175,16 -8,21 -8,1489 1,1497 3,4 532,7 1175,7 h 1168 z"
              id="path18"/>

        <path d="m 3983,1689 c -66,-19 -83,-90 -34,-140 l 29,-29 h 392 392 l 29,29 c 48,48 32,118 -33,140 -39,14 -729,13 -775,0 z"
              id="path20"/>

        <path d="m 4994,1693 c -12,-2 -32,-15 -45,-29 -23,-24 -24,-33 -27,-193 -4,-187 5,-233 53,-251 16,-6 170,-10 381,-10 195,0 354,-4 354,-9 0,-9 -16,-61 -32,-103 l -10,-28 h -347 -348 l -21,-23 c -25,-26 -29,-82 -9,-108 29,-37 48,-39 431,-39 245,0 383,4 399,11 32,14 41,31 75,145 17,54 40,131 53,171 24,80 21,115 -15,138 -20,13 -80,16 -402,18 l -379,2 -3,68 -3,67 h 326 c 342,0 373,4 389,45 13,34 5,75 -18,102 l -24,28 -379,1 c -208,1 -388,0 -399,-3 z"
              id="path22"/>

        <path d="m 3850,1377 c -59,-15 -76,-101 -28,-143 19,-18 45,-19 419,-19 385,0 399,1 418,20 29,30 31,86 5,120 -14,19 -30,20 -399,25 -212,3 -399,2 -415,-3 z"
              id="path24"/>

        <path d="m 3945,1045 c -35,-34 -33,-78 4,-116 l 29,-29 h 392 392 l 29,29 c 34,34 37,64 9,109 l -20,32 h -405 -406 z"
              id="path26"/>

        <path d="M 0,1310 V 480 h 1765 1765 v 830 830 H 1765 0 Z m 1457,365 2,-240 85,-3 86,-3 v 79 80 l 33,13 c 17,7 64,27 102,45 39,17 124,55 190,84 66,28 139,60 162,71 23,10 44,19 47,19 4,0 6,-88 6,-195 v -195 h 70 70 v -60 -60 h -70 -70 v -218 c 0,-208 1,-219 21,-241 20,-21 26,-22 83,-14 73,9 124,9 232,-2 92,-9 126,-3 154,25 44,44 20,81 -126,192 -90,69 -119,111 -119,175 0,46 4,56 35,88 78,80 220,119 445,119 165,1 363,-26 372,-51 10,-26 -17,-40 -87,-45 -116,-9 -150,-51 -92,-115 15,-17 66,-63 115,-102 119,-99 136,-134 98,-217 -17,-38 -68,-87 -120,-113 -76,-41 -273,-71 -458,-71 -82,0 -133,6 -208,25 -118,29 -175,31 -259,8 -47,-13 -103,-17 -246,-18 -210,0 -266,12 -324,69 -49,49 -56,90 -56,310 v 196 h -85 -85 V 1020 730 h -275 c -247,0 -275,2 -275,16 0,12 -6,15 -22,9 -269,-84 -533,-15 -634,167 -26,48 -29,62 -29,143 0,78 4,97 28,146 31,64 93,127 158,160 131,66 333,85 477,43 l 22,-6 v 249 c 0,137 3,253 7,256 4,4 126,6 272,5 l 266,-3 z"
              id="path28"/>

        <path d="M 848,1255 C 731,1176 724,998 833,905 c 24,-21 50,-35 62,-33 11,2 19,6 18,11 -2,4 -3,95 -3,202 0,151 -3,195 -13,195 -7,0 -29,-11 -49,-25 z"
              id="path30"/>

        <path d="m 6155,2120 c 3,-5 13,-10 21,-10 10,0 14,-14 14,-55 0,-42 3,-55 15,-55 12,0 15,13 15,55 0,48 2,55 20,55 11,0 20,5 20,10 0,6 -25,10 -56,10 -34,0 -53,-4 -49,-10 z"
              id="path32"/>

        <path d="m 6270,2065 c 0,-51 3,-65 15,-65 10,0 15,10 15,28 l 1,27 14,-32 c 8,-18 17,-33 20,-33 3,0 14,15 25,33 l 20,32 v -27 c 0,-15 5,-30 10,-33 6,-4 10,20 10,64 0,57 -3,71 -15,71 -9,0 -20,-12 -26,-27 -5,-16 -12,-35 -15,-43 -4,-10 -12,0 -22,28 -11,28 -22,42 -34,42 -15,0 -18,-9 -18,-65 z"
              id="path34"/>

        <path d="M 64,360 C 29,346 0,301 0,260 0,212 28,176 91,145 167,106 169,40 94,40 69,40 56,47 44,65 22,99 12,96 4,54 -5,6 8,-2 93,2 c 56,3 71,8 92,29 32,31 44,75 33,117 -6,24 -22,41 -56,62 -78,48 -92,60 -92,80 0,20 27,40 54,40 8,0 24,-9 35,-21 22,-23 36,-20 44,11 10,40 -77,65 -139,40 z"
              id="path36"/>

        <path d="m 3234,352 c -106,-50 -142,-162 -87,-268 29,-58 82,-84 169,-84 61,0 76,4 117,29 115,74 116,242 1,318 -39,25 -150,28 -200,5 z m 130,-33 c 35,-16 60,-74 59,-136 -2,-84 -44,-143 -100,-143 -70,0 -103,43 -103,135 0,119 62,181 144,144 z"
              id="path38"/>

        <path d="M 742,216 745,70 778,38 C 808,7 816,5 889,2 c 78,-4 80,-4 115,29 44,41 58,103 54,236 -3,86 -3,88 -28,88 -25,0 -25,0 -26,-101 -1,-55 -4,-116 -8,-137 C 983,50 909,18 859,59 836,77 835,86 830,217 l -5,138 -43,3 -43,3 z"
              id="path40"/>

        <path d="m 1597,353 c -9,-8 -9,-316 -1,-337 4,-11 19,-16 45,-16 h 39 v 78 77 l 43,-75 42,-75 48,-3 c 27,-2 47,1 47,7 0,6 -21,44 -47,86 l -46,76 32,27 c 21,18 34,39 38,64 5,32 1,41 -25,68 -29,29 -34,30 -120,30 -49,0 -92,-3 -95,-7 z m 148,-67 c 12,-35 -11,-80 -43,-84 -21,-3 -22,0 -22,56 0,32 3,61 6,65 12,12 49,-11 59,-37 z"
              id="path42"/>

        <path d="M 2370,181 V 0 h 40 40 v 70 c 0,39 3,70 8,70 4,0 24,-32 45,-70 l 38,-70 h 50 c 27,0 49,3 49,8 0,4 -22,42 -50,85 l -50,78 35,30 c 28,25 35,38 35,69 0,22 -8,47 -19,61 -17,22 -28,24 -120,27 l -101,4 z m 138,127 c 15,-15 16,-63 2,-89 -6,-11 -21,-19 -35,-19 -24,0 -25,3 -25,60 0,56 2,60 23,60 13,0 28,-5 35,-12 z"
              id="path44"/>

        <path d="m 4040,224 c 0,-149 8,-177 60,-208 34,-19 143,-22 180,-3 13,7 35,28 47,46 21,31 23,45 23,167 v 134 h -24 -24 l -4,-136 c -3,-135 -3,-136 -31,-160 -30,-26 -66,-31 -99,-13 -35,19 -48,70 -48,194 v 115 h -40 -40 z"
              id="path46"/>

        <path d="m 4897,353 c -9,-8 -9,-316 -1,-337 9,-24 43,-20 49,7 3,12 6,64 8,116 l 2,95 105,-117 C 5134,35 5172,0 5187,0 c 22,0 22,2 25,170 2,94 2,175 0,180 -2,6 -14,10 -28,10 -23,0 -23,-2 -26,-109 l -3,-109 -99,109 c -79,86 -105,109 -126,109 -15,0 -30,-3 -33,-7 z"
              id="path48"/>

        <path d="m 5757,353 c -9,-8 -9,-316 -1,-337 5,-13 22,-16 83,-16 177,0 258,66 249,205 -7,119 -59,155 -220,155 -58,0 -108,-3 -111,-7 z m 196,-54 c 55,-43 59,-169 6,-221 -22,-22 -37,-28 -73,-28 h -46 v 128 c 0,71 3,132 7,135 14,15 81,6 106,-14 z"
              id="path50"/>
    </g>
</svg>
