<?xml version="1.0" encoding="UTF-8" standalone="no"?>
<svg xmlns="http://www.w3.org/2000/svg"
     xmlns:xlink="http://www.w3.org/1999/xlink"
     width="1000"
     height="415"
     viewBox="-20 -30 1040 415"
     id="svg13786"
     version="1.1">
    <defs id="defs13802">
        <linearGradient id="linearGradient15237">
            <stop id="stop15239"
                  offset="0"
                  style="stop-color:#fdb713;stop-opacity:1"/>
            <stop id="stop15241"
                  offset="1"
                  style="stop-color:#f26722;stop-opacity:1"/>
        </linearGradient>

        <linearGradient id="linearGradient15231">
            <stop id="stop15233"
                  offset="0"
                  style="stop-color:#fdb713;stop-opacity:1"/>
            <stop id="stop15235"
                  offset="1"
                  style="stop-color:#f26722;stop-opacity:1"/>
        </linearGradient>

        <linearGradient id="linearGradient15225">
            <stop id="stop15227"
                  offset="0"
                  style="stop-color:#fdb713;stop-opacity:1"/>
            <stop id="stop15229"
                  offset="1"
                  style="stop-color:#f26722;stop-opacity:1"/>
        </linearGradient>

        <linearGradient id="linearGradient15219">
            <stop id="stop15221"
                  offset="0"
                  style="stop-color:#fdb713;stop-opacity:1"/>
            <stop id="stop15223"
                  offset="1"
                  style="stop-color:#f26722;stop-opacity:1"/>
        </linearGradient>

        <linearGradient id="linearGradient15203">
            <stop style="stop-color:#fdb713;stop-opacity:1"
                  offset="0"
                  id="stop15205"/>
            <stop style="stop-color:#f26722;stop-opacity:1"
                  offset="1"
                  id="stop15207"/>
        </linearGradient>

        <linearGradient xlink:href="#linearGradient15203"
                        id="linearGradient15209"
                        x1="940.02283"
                        y1="376.60373"
                        x2="1460.7047"
                        y2="390.58176"
                        gradientUnits="userSpaceOnUse"
                        gradientTransform="matrix(0.75625874,0,0,0.7419331,-125.71036,-70.44893)"/>

        <linearGradient xlink:href="#linearGradient15237"
                        id="linearGradient15211"
                        x1="940.02283"
                        y1="376.60373"
                        x2="1460.7047"
                        y2="390.58176"
                        gradientUnits="userSpaceOnUse"
                        gradientTransform="matrix(0.75625874,0,0,0.7419331,-125.71036,-70.44893)"/>

        <linearGradient xlink:href="#linearGradient15231"
                        id="linearGradient15213"
                        x1="940.02283"
                        y1="376.60373"
                        x2="1460.7047"
                        y2="390.58176"
                        gradientUnits="userSpaceOnUse"
                        gradientTransform="matrix(0.75625874,0,0,0.7419331,-125.71036,-70.44893)"/>

        <linearGradient xlink:href="#linearGradient15225"
                        id="linearGradient15215"
                        x1="940.02283"
                        y1="376.60373"
                        x2="1460.7047"
                        y2="390.58176"
                        gradientUnits="userSpaceOnUse"
                        gradientTransform="matrix(0.75625874,0,0,0.7419331,-125.71036,-70.44893)"/>

        <linearGradient xlink:href="#linearGradient15219"
                        id="linearGradient15217"
                        x1="940.02283"
                        y1="376.60373"
                        x2="1460.7047"
                        y2="390.58176"
                        gradientUnits="userSpaceOnUse"
                        gradientTransform="matrix(0.75625874,0,0,0.7419331,-125.71036,-70.44893)"/>
    </defs>

    <path style="fill:url(#linearGradient15217);fill-opacity:1"
          d="m 735.90377,327.15927 c 12.21835,-15.35938 22.6405,-28.05969 23.16043,-28.22296 0.51993,-0.16327 11.11647,12.42938 23.54778,27.98368 l 22.60253,28.28049 97.27094,0 c 94.1089,0 97.2306,-0.0549 96.0355,-1.69866 -0.6793,-0.93424 -18.4245,-23.20232 -39.4336,-49.48456 l -38.1984,-47.78592 -6.7044,1.67281 c -10.8986,2.71925 -37.8819,7.95906 -51.6074,10.02152 -37.63518,5.65523 -61.99866,7.57817 -103.65415,8.18106 -57.8423,0.83718 -100.73706,-2.82115 -145.91126,-12.44417 -8.57881,-1.82745 -16.27378,-3.36756 -17.09993,-3.42245 -0.91525,-0.0608 -14.53875,16.20476 -34.87116,41.63392 -18.35299,22.95356 -35.47394,44.34209 -38.04655,47.5301 l -4.67749,5.79635 97.68604,-0.0579 97.68602,-0.0579 22.2151,-27.92607 z"
          id="path15199"
    />
    <path style="fill:url(#linearGradient15213);fill-opacity:1"
          d="m 837.32625,252.22036 c 23.4407,-1.38928 71.4947,-6.9749 73.0063,-8.48598 0.2874,-0.2874 -19.3335,-25.18111 -21.6448,-27.46135 -1.0031,-0.98963 -3.5835,-0.78662 -14.3756,1.13095 -71.22379,12.6553 -157.77836,14.23882 -226.79612,4.14926 -6.75906,-0.98808 -14.02882,-2.04352 -16.15505,-2.34539 l -3.86586,-0.54889 -5.39931,6.81729 -5.39932,6.81726 8.31985,2.08654 c 32.84433,8.23705 80.92151,15.22005 122.23131,17.75358 18.72217,1.14823 71.31414,1.19886 90.0786,0.0867 z"
          id="path15197"
    />
    <path style="fill:url(#linearGradient15215);fill-opacity:1"
          d="m 855.48715,202.68798 c 9.8787,-0.84887 18.5324,-1.73025 19.2305,-1.95861 1.3274,-0.4342 0.8708,-1.10641 -10.5873,-15.59002 l -5.5367,-6.99864 2.9109,-3.46454 c 1.601,-1.9055 2.8163,-3.54408 2.7008,-3.64128 -0.1156,-0.0972 -5.5277,0.59452 -12.0268,1.53717 -55.15621,8.00006 -123.05509,9.55821 -177.60668,4.07575 -17.7475,-1.78364 -17.41656,-1.7912 -16.04252,0.36722 0.94676,1.48729 0.35431,2.63826 -4.17371,8.10848 -2.90245,3.50633 -5.20329,6.44176 -5.11299,6.52316 0.0902,0.0814 7.82115,1.42678 17.17985,2.98973 27.1354,4.53176 54.83519,7.6175 84.13379,9.37247 20.96122,1.25557 84.21376,0.45933 104.93086,-1.32089 z"
          id="path15195"
    />
    <path style="fill:url(#linearGradient15211);fill-opacity:1"
          d="m 848.39725,154.85051 c 7.0191,-0.59018 16.9879,-1.55565 22.1531,-2.1455 l 9.3912,-1.07243 14.9032,-18.54833 c 8.1967,-10.20158 14.9246,-18.90597 14.9509,-19.34311 0.026,-0.43713 -0.6968,-0.51451 -1.6066,-0.17192 -2.8369,1.06806 -37.9111,7.77007 -50.8112,9.70902 -15.2447,2.29135 -41.49911,5.16799 -61.44604,6.73251 -22.38125,1.75544 -86.07427,1.48149 -108.82049,-0.46806 -25.55315,-2.19013 -53.27563,-5.90677 -71.1797,-9.54276 l -3.22473,-0.65489 5.8152,7.33332 c 10.74307,13.54767 8.64281,12.1515 22.86492,15.19977 32.27644,6.91794 70.05444,11.5808 115.78654,14.29131 11.61848,0.68862 78.9206,-0.28446 91.2237,-1.31893 z"
          id="path15193"
    />
    <path style="fill:url(#linearGradient15209);fill-opacity:1"
          d="m 828.07281,107.57385 c 20.84974,-1.10068 34.36114,-2.29032 53.20944,-4.68496 13.204,-1.67753 38.0984,-5.81533 41.9792,-6.97753 1.2453,-0.37293 73.6597,-89.79973 76.7266,-94.75208 0.57255,-0.92462 -19.2417,-1.15081 -97.8879,-1.11747 L 803.4944,0.08361 781.75196,27.39435 C 769.79362,42.41526 759.58413,54.57043 759.0642,54.40584 758.54427,54.24125 748.36888,41.9326 736.45221,27.05329 L 714.78555,0 l -98.70458,0 -98.70458,0 1.73315,2.29014 c 0.95325,1.25957 14.70773,18.53333 30.56553,38.38612 l 28.83237,36.096 13.70719,4.2659 c 66.0939,20.56954 156.4045,30.7301 235.85818,26.53568 z"
          id="path15189"
    />
    <path d="m 80.577809,194.4877 c 0.9833,25.54881 11.787,38.3433 11.787,38.3433 6.88294,9.95723 19.653171,11.3491 19.653171,11.3491 7.85391,1.44544 18.65765,-1.39187 18.65765,-1.39187 l 0,-100.85699 c 0,0 -10.80369,-1.41866 -18.65765,0 0,0 -12.770231,1.43198 -20.636421,12.79448 0,0 -9.82045,14.19976 -10.80375,36.92471 l 0,2.83727 m 136.552161,70.99871 c -42.24387,0 -75.6506,1.44543 -75.6506,1.44543 -41.24833,1.39188 -60.901561,0 -60.901561,0 -43.22716,0 -79.5714396,-31.26353 -80.55467957,-73.8628 -0.98331,-41.194 29.47361957,-73.84937 74.66733957,-76.70006 0,0 20.62418,-2.83725 55.985161,2.85069 l 0,-4.26929 0,-80.95596 86.45434,-1.41865 0,88.06251 42.24392,0 0,-28.41285 84.48779,-41.18061 0,69.59346 30.43232,0 0,24.1436 c -16.69108,0 -30.43232,0 -30.43232,0 l 0,44.01786 c 0,2.85069 0,24.14361 0.98328,29.84494 0,0 0.98326,11.34907 9.80816,19.86088 0,0 5.89964,5.67454 17.67435,7.11998 0,0 3.93308,0 10.81599,0 l 20.64876,0 c 15.68321,0 19.61631,-2.83731 19.61631,-2.83731 6.88289,-2.83726 10.81598,-9.95723 10.81598,-17.05039 0,-5.70133 -2.94979,-11.37584 -5.89963,-14.21314 l 0,-1.41865 -22.5907,-22.7249 c -6.85835,-7.09322 -9.80815,-12.78116 -11.7747,-14.19976 l 0,-1.41866 c -2.94984,-4.2559 -3.93309,-9.94385 -3.93309,-15.61835 0,-12.78116 5.89964,-22.72496 14.7245,-28.4129 l 0.98329,0 c 7.86619,-5.67455 49.1391,-22.72494 125.73612,-2.8373 l -0.98326,19.8877 -1.96654,0 c 0,0 -19.6163,-1.41866 -28.46579,0 l 0,0 c -5.89964,1.41864 -10.81599,5.67456 -10.81599,12.7811 0,4.2559 0.98325,7.09321 2.9498,9.94385 l 0.98329,0 30.43231,32.65541 c 5.89963,7.10655 9.83273,15.64513 9.83273,26.99425 0,15.63174 -10.79146,31.23676 -24.53265,35.49267 0,0 -8.84949,4.28268 -22.61532,5.67456 0,0 -6.8829,0 -25.54054,0 l -0.98329,0 c -68.75541,1.44537 -140.4852,0 -140.4852,0 l -1.96655,0 c -45.16918,-1.39188 -55.00192,-39.74858 -55.00192,-39.74858 -1.95424,-7.09321 -2.93749,-24.1436 -2.93749,-24.1436 l 0,-59.64966 -42.24392,0 0,120.70453 z"
          id="path15273"/>
</svg>
