<?xml version="1.0" encoding="UTF-8" standalone="no"?>
<svg
        xmlns="http://www.w3.org/2000/svg"
        version="1.1"
        id="Layer_1"
        width="1000"
        height="295"
        viewBox="-15 -30 1030 295">

    <path d="m 499.90971,168.2941 c 0.53681,25.5895 12.04617,38.9619 12.04617,38.9619 7.78252,10.5821 22.51348,11.7258 22.51348,11.7258 8.28852,1.0127 19.82407,-0.7987 19.82407,-0.7987 L 554.42128,115.53 c 0,0 -11.18281,-1.3278 -19.95192,-0.2734 0,0 -14.35358,0.6785 -23.16658,12.7378 0,0 -11.12659,14.1857 -11.39307,38.0115 l 0,2.2882 z m 150.50888,72.9069 c -46.9262,0 -83.47288,0.7648 -83.47288,0.7648 -45.42206,1.2038 -67.71451,0.6 -67.71451,0.6 -47.60703,0 -87.45463,-32.347 -88.5267,-76.1625 -1.01816,-41.1646 32.1575,-74.851601 82.7674,-77.537201 0,0 22.3841,-2.1341 60.95015,3.0884 l -0.12785,-4.4323 0.0601,-82.5502997 95.96958,-0.2618 -0.0346,88.9317997 47.01939,0 0,-29.4619 93.20248,-40.9805 0.0693,70.3731 33.63776,-0.06 -0.29189,24.592901 c -18.19363,-0.5552 -33.41518,-0.5021 -33.41518,-0.5021 l 0,45.7563 c 0,2.2759 -0.0678,23.9083 0.7563,29.1901 0,0 1.30543,12.6345 11.51012,20.9331 0,0 5.91026,5.4543 18.82825,6.5194 0,0 4.31986,0.4552 12.39504,0.4028 l 22.13303,0 0.70547,-0.025 c 16.5601,-0.069 21.57696,-3.0837 21.57696,-3.0837 7.09554,-3.3333 11.37227,-10.0846 11.37227,-17.6777 0,-5.7115 -2.54386,-10.6498 -6.36465,-14.4721 l -0.1471,-0.1641 -24.18783,-23.1743 c -7.60846,-7.1109 -11.57636,-12.9103 -13.13209,-15.4695 l -0.16251,-0.2526 c -3.04138,-4.9899 -4.79428,-10.8278 -4.79428,-17.1016 0,-12.1462 6.78593,-22.8777 16.64713,-28.5693 l 0.6531,-0.3481 c 8.94086,-5.630701 55.1508,-22.104501 138.72611,-2.817201 l -0.66003,21.164101 -1.75213,-0.1425 c 0,0 -22.29861,-2.0733 -31.25795,-0.3689 l -0.21333,0.035 c -6.92225,1.1414 -12.1794,6.4201 -12.1794,13.4555 0,3.4658 1.42634,7.1641 3.69294,9.4407 l 0.52371,0.5792 33.50838,32.7644 0.28265,0.3019 c 6.81288,6.846 11.0288,16.2759 11.0288,26.7047 0,16.5948 -12.34194,31.7031 -27.18457,36.8309 0,0 -9.51694,3.7622 -25.15053,4.7334 0,0 -7.37819,0.5592 -28.4299,0.9704 l -1.13446,0 C 842.15229,244.569 763.21636,243.118 763.21636,243.118 l -1.94313,-0.078 c -50.64148,-1.5719 -60.75298,-39.511 -60.75298,-39.511 -2.81573,-7.017 -3.16769,-24.489 -3.16769,-24.489 l 0.0839,-61.4877 -47.01014,0.052 -0.008,123.5977"
          id="path8160"
          style="fill-opacity:1"/>

    <path style="fill:#fcb717"
          d="m 9.6291259,82.703999 c 23.7411291,-25.5148 93.9040041,-40.6416 175.1133641,-35.8142 92.95823,5.5236 167.87996,35.6864 175.12876,69.056101 l 0,-0.3088 c 0.51139,-13.9239 0,-22.268601 0,-22.268601 -1.99627,-35.5254 -82.34613,-63.0111 -180.69552,-61.6071 -81.096916,1.1714 -149.438347,21.6671 -171.4620063,48.7446 0,0 0.9488442,1.1552 1.8383856,2.1133 l 0.077017,0.085 z"
          id="path8162"/>

    <path style="fill:#fcb717"
          d="m 31.638923,99.606099 c 32.940759,-16.222 89.541017,-24.901 153.166717,-21.1134 92.9436,5.536 167.86302,35.694101 175.10411,69.054601 l 0.009,-0.2965 c 0.52833,-13.9415 0,-22.2716 0,-22.2716 -1.98857,-35.527001 -82.3338,-63.011901 -180.70476,-61.604001 -64.67467,0.9419 -121.188668,14.1171 -152.6045,33.1772 0,0 2.418321,1.5372 4.917509,2.989 l 0.111674,0.065 z"
          id="path8164"/>

    <path style="fill:#fcb717"
          d="m 73.512835,117.393 c 30.977605,-6.819 69.599885,-9.6856 111.202695,-7.2156 92.9436,5.5328 167.88073,35.7195 175.10874,69.1031 l 0.0223,-0.3181 c 0.51447,-13.9231 0,-22.2632 0,-22.2632 -2.00628,-35.5262 -82.33072,-63.039601 -180.71785,-61.629401 -45.429,0.6577 -86.87393,7.387401 -118.388344,17.918701 0,0 6.571054,2.4591 12.63919,4.3499 l 0.133239,0.055 z"
          id="path8166"/>

    <path style="fill:#fcb717"
          d="M 1.2281577,61.840199 C 9.0407193,28.516699 85.430382,1.4091993 179.17034,0.05209928 268.9216,-1.2325007 342.51633,21.284099 356.49176,52.271699 c 0,0 1.45176,3.2632 1.97085,6.6303 0,0 1.39631,5.6392 1.39631,24.1879 l -0.0239,1.1714 C 352.5246,50.916999 277.64986,20.694899 184.76941,15.163499 90.503434,9.5667993 12.046646,31.943199 1.3621365,61.876399 l -0.1340088,-0.036 z"
          id="path8168"/>

    <path style="fill:#f26522"
          d="m 352.43375,164.8807 c -22.02366,27.079 -90.35738,47.5562 -171.44582,48.7068 C 82.639301,215.0046 2.2971477,187.5174 0.28316428,152.0058 c 0,0 -0.52833371,-8.3586 0,-22.3078 l 0.009242,-0.2919 c 7.24032822,33.409 82.16282472,63.5571 175.13030372,69.0892 81.19241,4.8182 151.32833,-10.324 175.11336,-35.8396 0,0 0.90571,0.9927 1.84531,2.1434 l 0.0524,0.082 z"
          id="path8170"/>
    <path style="fill:#f26522"
          d="m 333.54544,148.8089 c -31.42507,19.06 -87.93907,32.2568 -152.60449,33.1941 C 82.553042,183.4209 2.2501676,155.9175 0.22694218,120.3736 c 0,0 -0.51061989,-8.3394 0,-22.271701 l 0.0169436,-0.3088 C 7.4842141,131.1628 82.398239,161.3433 175.3403,166.8723 c 63.60799,3.7754 120.21825,-4.8689 153.18289,-21.1071 0,0 2.40061,1.3339 4.90056,2.9628 l 0.12169,0.081 z"
          id="path8172"/>

    <path style="fill:#f26522"
          d="M 299.40938,132.3697 C 267.89574,142.8963 226.4693,149.6252 181.03106,150.2745 82.677039,151.7008 2.3271842,124.1882 0.2962571,88.678999 c 0,0 -0.50676907,-8.3448 0.008472,-22.2679 l 0.0215646,-0.3088 C 7.5627711,99.472099 82.49297,129.6425 175.44273,135.1754 c 41.58587,2.4645 80.23433,-0.3959 111.18652,-7.2111 0,0 5.767,1.7822 12.58759,4.316 l 0.19254,0.089 z"
          id="path8174"/>

    <path style="fill:#f26522"
          d="m 358.93472,183.5495 c -7.80717,33.3259 -84.1976,60.4103 -177.95218,61.7496 -89.733556,1.3046 -163.34061,-21.2158 -177.3021746,-52.1972 0,0 -1.4602342,-3.2732 -1.9762453,-6.6304 0,0 -1.407863,-5.643 -1.407863,-24.2132 l 0.0254155,-1.1507 c 7.3011713,33.3536 82.1789984,63.5541 175.0579074,69.0939 94.27291,5.5999 172.73663,-16.7842 183.41343,-46.7021 l 0.14171,0.05 z"
          id="path8176"/>
</svg>
