<?xml version="1.0" encoding="UTF-8" standalone="no"?>
<svg xmlns="http://www.w3.org/2000/svg"
     width="149"
     height="50"
     viewBox="-5 -5 158 50"
     id="svg2"
     version="1.1">

    <g transform="matrix(1.3333333,0,0,-1.3333333,-9.2591109e-4,42.898301)"
       id="g10">
        <g transform="scale(0.1)"
           id="g12">
            <path id="path14"
                  d="m 364.098,199.16 c 0.39,-18.625 8.793,-28.379 8.793,-28.379 5.648,-7.695 16.386,-8.535 16.386,-8.535 6.039,-0.73 14.434,0.586 14.434,0.586 l 0.098,74.766 c 0,0 -8.141,0.965 -14.532,0.195 0,0 -10.449,-0.488 -16.879,-9.27 0,0 -8.101,-10.339 -8.3,-27.703 z m 109.625,-53.097 c -34.172,0 -60.793,-0.555 -60.793,-0.555 -33.071,-0.879 -49.313,-0.43 -49.313,-0.43 -34.687,0 -63.699,23.555 -64.484,55.469 -0.742,29.961 23.418,54.512 60.285,56.465 0,0 16.289,1.562 44.391,-2.246 l -0.098,3.222 0.051,60.125 69.886,0.207 -0.019,-64.785 h 34.242 V 275 l 67.895,29.844 0.05,-51.258 24.493,0.035 -0.215,-17.898 c -13.242,0.398 -24.328,0.363 -24.328,0.363 v -33.32 c 0,-1.664 -0.067,-17.414 0.539,-21.274 0,0 0.957,-9.195 8.379,-15.242 0,0 4.304,-3.977 13.711,-4.746 0,0 3.152,-0.344 9.031,-0.293 h 16.113 l 0.527,0.019 c 12.051,0.04 15.715,2.239 15.715,2.239 5.176,2.429 8.262,7.351 8.262,12.879 0,4.16 -1.816,7.754 -4.609,10.547 l -0.118,0.109 -17.609,16.883 c -5.555,5.176 -8.426,9.414 -9.57,11.269 l -0.117,0.196 c -2.215,3.621 -3.485,7.871 -3.485,12.429 0,8.86 4.942,16.672 12.11,20.813 l 0.488,0.273 c 6.523,4.102 40.176,16.094 101.035,2.051 l -0.48,-15.41 -1.278,0.097 c 0,0 -16.23,1.504 -22.754,0.254 L 701.5,235.84 c -5.031,-0.84 -8.887,-4.68 -8.887,-9.817 0,-2.515 1.043,-5.183 2.684,-6.863 l 0.391,-0.41 24.406,-23.867 0.203,-0.235 c 4.961,-4.98 8.039,-11.855 8.039,-19.445 0,-12.078 -8.996,-23.094 -19.805,-26.824 0,0 -6.933,-2.734 -18.301,-3.457 0,0 -5.382,-0.391 -20.714,-0.684 h -0.828 c -55.313,-0.625 -112.821,0.43 -112.821,0.43 l -1.41,0.059 c -36.867,1.152 -44.246,28.769 -44.246,28.769 -2.051,5.117 -2.313,17.852 -2.313,17.852 l 0.071,44.773 -34.239,-0.035 -0.007,-90.023"/>

            <path id="path16"
                  d="m 998.453,201.543 c -0.039,8.164 -0.488,12.969 -0.488,12.969 -0.86,11.203 -3.242,16.133 -3.242,16.133 -1.66,3.718 -4.16,5.429 -4.16,5.429 -2.559,2.024 -5.625,2.383 -5.625,2.383 -2.188,0.43 -6.524,0.43 -6.524,0.43 h -3.789 v -75.403 h 3.789 c 0,0 4.336,0 6.524,0.434 0,0 3.066,0.359 5.625,2.371 0,0 2.5,1.719 4.16,5.449 0,0 2.382,4.942 3.242,16.114 0,0 0.449,4.816 0.488,12.968 z m 48.897,-0.938 c 0,-9.667 -2.07,-17.851 -2.07,-17.851 -2.71,-11.953 -10.28,-20.547 -10.28,-20.547 -7.69,-9.387 -20.92,-13.234 -20.92,-13.234 -7.8,-2.606 -17.424,-3.153 -17.424,-3.153 -7.109,-0.625 -16.25,-0.722 -16.25,-0.722 h -52.734 v 112.136 h 52.734 c 0,0 9.141,-0.086 16.25,-0.711 0,0 9.624,-0.566 17.424,-3.164 0,0 13.23,-3.847 20.92,-13.222 0,0 7.57,-8.594 10.28,-20.567 0,0 2.07,-8.183 2.07,-17.851 v -1.114"
            />

            <path id="path18"
                  d="m 860.258,145.156 h 46.984 l -0.058,112.032 h -46.895 l -0.031,-45.157 h -20.809 l -0.019,45.157 h -46.914 l -0.02,-45.157 h -56.543 v -17.773 h 56.543 v -49.102 h 46.961 l -0.008,49.102 h 20.809 v -49.102"
            />

            <path id="path20"
                  style="fill:#f9b10c;fill-opacity:1;fill-rule:nonzero;stroke:none"
                  d="m 7.00781,261.504 c 17.30079,18.594 68.39059,29.609 127.55519,26.094 67.699,-4.024 122.261,-25.996 127.546,-50.301 v 0.223 c 0.371,10.136 0,16.23 0,16.23 -1.461,25.859 -59.968,45.879 -131.621,44.852 C 71.4297,297.766 21.6602,282.82 5.62109,263.105 c 0,0 0.6875,-0.839 1.33594,-1.542 l 0.05078,-0.059"
            />

            <path id="path22"
                  style="fill:#f9b10c;fill-opacity:1;fill-rule:nonzero;stroke:none"
                  d="m 23.0469,249.199 c 23.9922,11.809 65.2109,18.137 111.5551,15.371 67.699,-4.023 122.269,-25.984 127.539,-50.293 l 0.007,0.227 c 0.379,10.144 0,16.219 0,16.219 -1.46,25.879 -59.968,45.898 -131.621,44.851 -47.109,-0.683 -88.2653,-10.281 -111.1481,-24.148 0,0 1.7578,-1.121 3.582,-2.188 l 0.086,-0.039"
            />

            <path id="path24"
                  style="fill:#f9b10c;fill-opacity:1;fill-rule:nonzero;stroke:none"
                  d="m 53.5391,236.25 c 22.5586,4.961 50.6909,7.051 80.9999,5.242 67.688,-4.031 122.27,-26.004 127.539,-50.332 l 0.012,0.227 c 0.383,10.156 0,16.23 0,16.23 -1.469,25.879 -59.973,45.918 -131.621,44.883 -33.1018,-0.469 -63.2815,-5.371 -86.2229,-13.047 0,0 4.7812,-1.797 9.1992,-3.164 l 0.0938,-0.039"
            />

            <path id="path26"
                  style="fill:#f9b10c;fill-opacity:1;fill-rule:nonzero;stroke:none"
                  d="m 0.890625,276.699 c 5.695315,24.278 61.328175,44.024 129.605375,45 65.363,0.938 118.973,-15.469 129.145,-38.027 0,0 1.058,-2.383 1.437,-4.844 0,0 1.024,-4.094 1.024,-17.598 l -0.024,-0.859 C 256.758,284.648 202.227,306.68 134.57,310.684 65.918,314.773 8.76953,298.469 0.984375,276.68 l -0.09375,0.019"
            />

            <path id="path28"
                  style="fill:#f25d1b;fill-opacity:1;fill-rule:nonzero;stroke:none"
                  d="M 256.688,201.66 C 240.641,181.934 190.891,167.012 131.824,166.16 60.1797,165.145 1.67188,185.168 0.210938,211.035 c 0,0 -0.382813,6.074 0,16.238 L 0.21875,227.48 C 5.48828,203.164 60.0586,181.211 127.758,177.168 c 59.14,-3.508 110.222,7.52 127.539,26.113 0,0 0.672,-0.742 1.351,-1.562 l 0.04,-0.059"
            />

            <path id="path30"
                  style="fill:#f25d1b;fill-opacity:1;fill-rule:nonzero;stroke:none"
                  d="M 242.93,213.359 C 220.051,199.48 178.887,189.863 131.785,189.18 60.1367,188.152 1.64063,208.191 0.171875,234.063 c 0,0 -0.371094,6.082 0,16.23 l 0.007813,0.215 C 5.44922,226.211 60.0195,204.238 127.719,200.203 c 46.32,-2.762 87.551,3.567 111.558,15.363 0,0 1.743,-0.957 3.571,-2.148 l 0.082,-0.059"
            />

            <path id="path32"
                  style="fill:#f25d1b;fill-opacity:1;fill-rule:nonzero;stroke:none"
                  d="M 218.066,225.332 C 195.105,217.656 164.949,212.766 131.84,212.285 60.2109,211.25 1.6875,231.27 0.230469,257.148 c 0,0 -0.382813,6.082 0,16.231 l 0.007812,0.215 C 5.50781,249.297 60.0781,227.336 127.777,223.301 c 30.289,-1.809 58.446,0.285 80.985,5.234 0,0 4.199,-1.301 9.16,-3.144 l 0.144,-0.059"
            />

            <path id="path34"
                  style="fill:#f25d1b;fill-opacity:1;fill-rule:nonzero;stroke:none"
                  d="m 261.43,188.066 c -5.703,-24.257 -61.332,-44.011 -129.614,-44.992 -65.3551,-0.945 -118.9683,15.461 -129.13631,38.02 0,0 -1.0586,2.39 -1.44141,4.824 0,0 -1.007811,4.121 -1.007811,17.637 l 0.007812,0.84 C 5.55859,180.098 60.0898,158.105 127.738,154.082 c 68.66,-4.082 125.821,12.227 133.59,34.023 l 0.102,-0.039"
            />

            <path id="path36"
                  d="m 342.289,41.6797 v 34.875 h -25.094 v -34.875 h -8.75 v 74.3753 h 8.75 V 83.5469 h 25.094 v 32.5081 h 8.742 V 41.6797 h -8.742"
            />

            <path id="path38"
                  d="m 365.137,93.5234 h 8.121 V 41.6797 h -8.121 z m -0.418,21.4966 h 8.949 v -8.848 h -8.949 v 8.848"
            />

            <path id="path40"
                  d="m 401.957,88.5938 c -9.559,0 -9.656,-12.1407 -9.656,-21.504 0,-8.5351 0.187,-19.1406 9.14,-19.1406 10.7,0 10.399,13.4844 10.399,21.2891 0,8.6523 -0.524,19.3555 -9.883,19.3555 m 18.016,-3.7227 v -45.457 c 0,-12.7539 -5.676,-18.1055 -18.532,-18.1055 -10.582,0 -16.144,4.5312 -16.25,15.0195 h 8.649 c 0,-5.5468 1.84,-9.4648 8.019,-9.4648 8.649,0 9.774,6.0664 9.774,14.4062 v 7.0899 c -3.195,-4.4141 -6.684,-6.0625 -12.031,-6.0625 -14.512,0 -15.641,13.2578 -15.641,24.7929 0,13.1641 1.648,27.5586 15.734,27.5586 6.274,0 9.774,-2.1484 12.446,-7.1875 v 6.0625 h 8.129 c 0,-2.7812 -0.297,-5.7578 -0.297,-8.6523"
            />

            <path id="path42"
                  d="m 459.258,41.6797 v 33.125 c 0,6.0742 0.101,13.6797 -8.02,13.6797 -8.019,0 -10.492,-6.7852 -10.492,-15.3321 V 41.6797 h -8.129 v 74.3753 h 8.129 V 87.5586 c 3.195,4.4219 7.102,7.0898 13.063,7.0898 10.5,0 13.578,-6.8828 13.578,-16.25 V 41.6797 h -8.129"
            />

            <path id="path44"
                  d="m 522.32,109.055 h -9.882 V 83.3398 h 7.308 c 10.813,0 14.606,2.7735 14.606,13.9961 0,8.8361 -3.914,11.7191 -12.032,11.7191 m 12.137,-67.3753 c -0.41,2.4609 -0.719,4.7383 -0.719,7.7148 0,3.1836 -0.207,6.5821 -0.41,9.7657 -0.609,12.6562 0.11,17.2929 -12.14,17.2929 h -8.75 V 41.6797 h -8.739 v 74.3753 h 19.86 c 12.863,0 19.742,-4.219 19.742,-18.3128 0,-9.0508 -2.356,-15.4297 -11.723,-17.8984 8.129,-0.7227 9.672,-5.1563 10.281,-11.836 0.321,-3.4961 0.321,-7.7148 0.528,-12.4531 0.101,-3.3867 0.402,-6.7656 0.511,-9.1367 0.098,-1.5547 0.403,-3.0977 0.614,-4.7383 h -9.055"
            />

            <path id="path46"
                  d="m 580.23,78.6016 c -0.507,5.3632 -2.558,10.1875 -8.742,10.1875 -6.488,0 -8.84,-4.3164 -9.558,-10.0782 -0.211,-2.1562 -0.422,-4.3164 -0.422,-6.6796 h 18.937 c 0,2.1484 0,4.3164 -0.215,6.5703 M 561.508,66.4648 v -3.496 c 0,-8.5352 0.719,-16.4532 9.465,-16.4532 7.715,0 9.16,5.3477 9.363,11.4141 h 8.019 c -0.41,-10.5859 -4.738,-17.375 -17.382,-17.375 -15.836,0 -17.793,11.418 -17.793,25 0,13.8789 0.718,29.0937 18.418,29.0937 16.648,0 17.07,-13.2617 17.07,-25.8203 v -2.3633 h -27.16"
            />

            <path id="path48"
                  d="m 611.5,40.6523 c -9.66,0 -14.805,4.4258 -15.527,13.2735 -0.098,0.9258 -0.098,2.2656 -0.098,3.5937 h 8.113 c 0,-0.9179 0,-2.0507 0.11,-2.8711 0.418,-4.9609 2.265,-8.1328 7.617,-8.1328 5.137,0 7.832,2.9766 7.832,8.0157 0,6.289 -3.41,8.1367 -9.375,11.3281 -7.09,3.8086 -13.164,6.3672 -13.164,15.3125 0,9.2578 6.68,13.4765 15.418,13.4765 8.957,0 13.488,-3.3789 14.719,-11.2109 0.203,-1.2305 0.312,-2.6758 0.312,-4.1133 h -8.125 c 0,1.125 -0.117,2.2774 -0.215,3.3047 -0.508,3.6992 -2.16,6.3633 -7.09,6.3633 -4.23,0 -6.894,-2.8789 -6.894,-7.0899 0,-5.1445 4.414,-7.3125 10.293,-10.4843 6.465,-3.5078 12.332,-6.7891 12.332,-15.5391 0,-10.3906 -6.27,-15.2266 -16.258,-15.2266"
            />

            <path id="path50"
                  d="m 663.043,70.2734 c 0,7.8243 0.41,18.5157 -9.367,18.5157 -10.281,0 -9.969,-11.5157 -9.969,-18.7305 V 62.668 c 0,-6.9922 0.098,-16.1524 9.668,-16.1524 9.043,0 9.668,8.7383 9.668,15.8282 z m -9.785,-29.7187 c -16.25,0 -17.871,10.6953 -17.871,26.6328 0,14.9219 1.941,27.4609 18.496,27.4609 16.355,0 17.586,-11.0078 17.586,-26.7382 0,-17.0704 -2.567,-27.3555 -18.211,-27.3555"
            />

            <path id="path52"
                  style="fill:none;stroke-width:8.12012005;stroke-linecap:butt;stroke-linejoin:miter;stroke-miterlimit:4;stroke-dasharray:none;stroke-opacity:1"
                  d="M 686.246,41.6797 V 116.055"
            />

            <path id="path54"
                  d="m 730.113,41.6797 -0.097,6.5742 c -3,-4.8359 -7.207,-7.5117 -13.067,-7.5117 -10.195,0 -13.886,6.4922 -13.886,16.0625 v 36.7187 h 8.113 V 60.3906 c 0,-6.0664 0.129,-13.4648 8.234,-13.4648 8.75,0 10.195,8.1133 10.195,15.125 v 31.4726 h 8.223 V 53.0977 c 0,-3.918 0.098,-7.6094 0.418,-11.418 h -8.133"
            />

            <path id="path56"
                  d="m 764.684,41.1602 c -9.786,0 -11.739,3.8203 -11.739,12.8632 v 33.5352 h -7.707 v 5.9648 h 7.707 v 9.5626 l 8.133,3.613 V 93.5234 h 9.258 v -5.9648 h -9.258 V 54.9609 c 0,-5.8789 1.438,-7.3164 5.86,-7.3164 1.144,0 2.375,0.2071 3.703,0.4219 v -6.3867 c -1.953,-0.3008 -4.004,-0.5195 -5.957,-0.5195"
            />

            <path id="path58"
                  d="m 778.246,93.5234 h 8.137 V 41.6797 h -8.137 z m -0.418,21.4966 h 8.945 v -8.848 h -8.945 v 8.848"
            />

            <path id="path60"
                  d="m 824.742,70.2734 c 0,7.8243 0.43,18.5157 -9.336,18.5157 -10.312,0 -9.98,-11.5157 -9.98,-18.7305 V 62.668 c 0,-6.9922 0.097,-16.1524 9.648,-16.1524 9.063,0 9.668,8.7383 9.668,15.8282 z m -9.765,-29.7187 c -16.25,0 -17.891,10.6953 -17.891,26.6328 0,14.9219 1.941,27.4609 18.504,27.4609 16.367,0 17.59,-11.0078 17.59,-26.7382 0,-17.0704 -2.571,-27.3555 -18.203,-27.3555"
            />

            <path id="path62"
                  d="m 870.504,41.6797 v 33.125 c 0,6.2812 0.125,13.6797 -8.008,13.6797 -7.609,0 -10.488,-8.6406 -10.488,-15.6328 V 41.6797 h -8.125 V 82.207 c 0,3.8086 -0.098,7.5118 -0.41,11.3164 h 8.015 v -7.0898 c 2.258,4.3086 6.887,8.2148 13.489,8.2148 10.371,0 13.671,-6.3671 13.671,-16.1406 V 41.6797 h -8.144"
            />

            <path id="path64"
                  d="M 934.809,107.82 924.008,67.3906 h 21.613 z m 18.117,-66.1403 -5.254,18.8281 h -25.82 l -5.254,-18.8281 h -8.743 l 21.809,74.3753 h 10.801 l 21.504,-74.3753 h -9.043"
            />

            <path id="path66"
                  d="m 994.781,41.6797 -0.117,6.5742 c -2.969,-4.8359 -7.187,-7.5117 -13.066,-7.5117 -10.176,0 -13.887,6.4922 -13.887,16.0625 v 36.7187 h 8.144 V 60.3906 c 0,-6.0664 0.079,-13.4648 8.223,-13.4648 8.738,0 10.176,8.1133 10.176,15.125 v 31.4726 h 8.226 V 53.0977 c 0,-3.918 0.11,-7.6094 0.43,-11.418 h -8.129"
            />

            <path id="path68"
                  d="m 1031.18,88.6914 c -9.13,0 -9.66,-11.3281 -9.66,-20.5781 0,-11.4141 1.23,-21.2969 9.35,-21.2969 9.77,0 10.19,10.5938 10.19,20.2734 0,11.5118 -0.72,21.6016 -9.88,21.6016 m 10.29,-47.0117 -0.11,5.9648 c -3.06,-4.7343 -6.47,-6.9023 -12.15,-6.9023 -14.9,0 -16.04,14.9336 -16.04,27.5781 0,12.7656 2.07,26.3281 15.85,26.3281 5.98,0 9.16,-2.0507 11.73,-6.0546 v 27.4612 h 8.23 V 51.4531 c 0,-2.4804 0.31,-7.3125 0.4,-9.7734 h -7.91"
            />

            <path id="path70"
                  d="m 1061.73,93.5234 h 8.13 V 41.6797 h -8.13 z m -0.41,21.4966 h 8.96 v -8.848 h -8.96 v 8.848"
            />

            <path id="path72"
                  d="m 1108.23,70.2734 c 0,7.8243 0.41,18.5157 -9.35,18.5157 -10.3,0 -9.98,-11.5157 -9.98,-18.7305 V 62.668 c 0,-6.9922 0.1,-16.1524 9.66,-16.1524 9.05,0 9.67,8.7383 9.67,15.8282 z m -9.78,-29.7187 c -16.25,0 -17.89,10.6953 -17.89,26.6328 0,14.9219 1.96,27.4609 18.51,27.4609 16.37,0 17.61,-11.0078 17.61,-26.7382 0,-17.0704 -2.59,-27.3555 -18.23,-27.3555"
            />

            <path id="path74"
                  d="m 1007.85,294.941 v 20.176 h -7.53 v 2.688 h 18.09 v -2.688 h -7.54 v -20.176 h -3.02"
            />

            <path id="path76"
                  d="m 1021.15,294.941 v 22.864 h 4.54 l 5.41,-16.184 c 0.49,-1.504 0.85,-2.637 1.08,-3.391 0.28,0.84 0.67,2.063 1.23,3.672 l 5.47,15.903 h 4.08 v -22.864 h -2.91 v 19.161 l -6.68,-19.161 h -2.72 l -6.59,19.454 v -19.454 h -2.91"
            />
        </g>
    </g>
</svg>
