<?xml version="1.0" encoding="UTF-8" standalone="no"?>
<svg xmlns="http://www.w3.org/2000/svg"
     version="1.0"
     width="310"
     height="102"
     viewBox="-20 -15 330 102"
     id="svg710">
    <path d="m 98.23258,26.456165 c 0.23438,5.592773 2.80957,8.393555 2.80957,8.393555 1.64063,2.179688 4.68457,2.484375 4.68457,2.484375 1.87207,0.316406 4.44727,-0.304688 4.44727,-0.304688 V 14.951282 c 0,0 -2.57519,-0.310547 -4.44727,0 0,0 -3.04394,0.313477 -4.91894,2.800781 0,0 -2.34082,3.108398 -2.5752,8.083008 v 0.621094 m 32.54883,15.541992 c -10.06933,0 -18.03222,0.316406 -18.03222,0.316406 -9.83203,0.304688 -14.51661,0 -14.51661,0 -10.303707,0 -18.966793,-6.84375 -19.201168,-16.168945 C 78.797037,17.12804 86.056803,9.9796016 96.82926,9.3555786 c 0,0 4.91602,-0.621094 13.34473,0.624023 v -0.93457 -17.72168 l 20.60742,-0.310547 V 10.290149 h 10.06934 V 4.0704226 l 20.13867,-9.014648 V 10.29015 h 7.25391 v 5.285156 c -3.97852,0 -7.25391,0 -7.25391,0 v 9.635742 c 0,0.624023 0,5.285156 0.23438,6.533203 0,0 0.23437,2.484375 2.33789,4.347656 0,0 1.40625,1.242188 4.21289,1.558594 0,0 0.9375,0 2.57812,0 h 4.92188 c 3.73828,0 4.67578,-0.621094 4.67578,-0.621094 1.64062,-0.621094 2.57812,-2.179688 2.57812,-3.732422 0,-1.248047 -0.70312,-2.490234 -1.40625,-3.111328 V 29.87511 l -5.38476,-4.974609 c -1.63477,-1.552734 -2.33789,-2.797852 -2.80664,-3.108398 v -0.310547 c -0.70313,-0.931641 -0.9375,-2.176758 -0.9375,-3.418945 0,-2.797852 1.40625,-4.974609 3.50976,-6.219727 h 0.23438 c 1.875,-1.242188 11.71289,-4.9746094 29.9707,-0.621094 l -0.23437,4.353516 h -0.46875 c 0,0 -4.67578,-0.310547 -6.78516,0 v 0 c -1.40625,0.310547 -2.57812,1.242188 -2.57812,2.797852 0,0.931641 0.23437,1.552734 0.70312,2.176758 h 0.23438 l 7.2539,7.148438 c 1.40625,1.555664 2.34375,3.424805 2.34375,5.90918 0,3.421875 -2.57227,6.837891 -5.84765,7.769531 0,0 -2.10938,0.9375 -5.39063,1.242188 0,0 -1.64062,0 -6.08789,0 h -0.23438 c -16.38867,0.316406 -33.48632,0 -33.48632,0 h -0.46875 c -10.76661,-0.304688 -13.11036,-8.701172 -13.11036,-8.701172 -0.46582,-1.552734 -0.70019,-5.285156 -0.70019,-5.285156 V 15.575306 h -10.06934 z"
          id="path662"
    />

    <path d="m 286.26286,25.835071 c 0,-2.487305 -0.23438,-4.042969 -0.23438,-4.042969 -0.23437,-3.108398 -0.9375,-4.664063 -0.9375,-4.664063 -0.46875,-1.242188 -1.17187,-1.552734 -1.17187,-1.552734 -0.70313,-0.624023 -1.64063,-0.93457 -1.64063,-0.93457 -0.70312,0 -1.875,0 -1.875,0 h -1.17187 v 22.388672 h 1.17187 c 0,0 1.17188,0 1.875,-0.316406 0,0 0.9375,0 1.64063,-0.621094 0,0 0.70312,-0.310547 1.17187,-1.552734 0,0 0.70313,-1.552734 0.9375,-4.664063 0,0 0.23438,-1.552734 0.23438,-4.040039 v 0 m 14.51367,0 c 0,3.108398 -0.69727,5.592773 -0.69727,5.592773 -0.70312,3.421875 -3.04687,5.90625 -3.04687,5.90625 -2.10938,2.800781 -6.08789,4.042969 -6.08789,4.042969 -2.34375,0.621094 -5.15039,0.9375 -5.15039,0.9375 -2.10938,0 -4.92188,0 -4.92188,0 H 265.18668 V 9.3555786 h 15.68555 c 0,0 2.8125,0 4.92188,0 0,0 2.80664,0.310547 5.15039,0.9345704 0,0 3.97851,1.242188 6.08789,4.040039 0,0 2.34375,2.487305 3.04687,5.90625 0,0 0.69727,2.490234 0.69727,5.285156 z"
          id="path664"
    />

    <polyline
            points="254.86377,52.24707 268.914551,52.24707 268.914551,19.288086 254.86377,19.288086  254.86377,32.65918 248.775879,32.65918 248.775879,19.288086 234.730957,19.288086 234.730957,32.65918 218.102051,32.65918  218.102051,37.944336 234.730957,37.944336 234.730957,52.24707 248.775879,52.24707 248.775879,37.944336 254.86377,37.944336  254.86377,52.24707 "
            id="polyline666"
            transform="translate(-9.5813803,-9.9325074)"/>

    <path d="M -7.3709313,7.8028446 C -2.4549153,2.5176886 12.764811,-0.90418643 30.328288,0.34093057 50.46403,1.2725716 66.621257,7.8028446 68.027507,15.264759 v -0.313477 c 0.234375,-2.797852 0,-4.661133 0,-4.661133 -0.46875,-7.7724614 -17.797852,-13.6816414 -38.871094,-13.3681644 -17.560547,0.310547 -32.3115233,4.661133 -36.9960943,10.570313 0,0 0.234375,0.310547 0.46875,0.310547 v 0"
          id="path668"
          style="fill:#fdbb30"/>

    <path d="M -2.6892903,11.532337 C 4.3361007,8.1133916 16.511882,6.2471806 30.328288,7.1817506 50.46403,8.1133916 66.621257,14.640735 68.027507,21.792103 v 0 c 0.234375,-2.797852 0,-4.664063 0,-4.664063 C 67.793132,9.3555786 50.46403,3.4493286 29.156413,3.7598756 15.108561,4.0704226 2.9327797,6.8682736 -3.8582353,10.911243 c 0,0 0.46875,0.310547 1.168945,0.621094 v 0"
          id="path670"
          style="fill:#fdbb30"/>

    <path d="M 6.2081707,15.575306 C 12.999187,14.019642 21.430827,13.398548 30.328288,14.019642 50.46403,14.951283 66.621257,21.481556 68.027507,28.632923 v 0 c 0.234375,-2.797852 0,-4.664063 0,-4.664063 -0.46875,-7.772461 -17.797852,-13.678711 -38.871094,-13.368164 -9.834961,0 -18.732422,1.552734 -25.5234383,3.729492 0,0 1.40625,0.621094 2.575195,0.93457 v 0.310548"
          id="path672"
          style="fill:#fdbb30"/>

    <path d="m -9.2459313,3.4493286 c 1.640625,-7.151367 18.032227,-13.057617 38.4023443,-13.368164 19.435547,-0.3105466 35.124023,4.664062 38.167969,11.191406 0,0 0.46875,0.93457 0.46875,1.555664 0,0 0.234375,1.242188 0.234375,5.285156 v 0.310547 C 66.621257,0.96202357 50.46403,-5.5653194 30.328288,-6.4998904 9.9552407,-7.7420774 -6.9021813,-3.0780154 -9.2459313,3.4493286 v 0"
          id="path674"
          style="fill:#fdbb30"/>

    <path d="M 66.386882,25.521595 C 61.705241,31.427845 46.954265,36.091908 29.625163,36.091908 8.3175457,36.408313 -9.0115563,30.496204 -9.4773763,23.03722 c 0,0 -0.234375,-1.866211 0,-4.974609 v 0 c 1.637695,7.148438 17.794922,13.681641 37.6992193,14.923828 17.560547,0.931641 32.780273,-2.179688 37.930664,-7.775391 l 0.234375,0.310547 v 0"
          id="path676"
          style="fill:#f78f1e"/>

    <path d="M 62.408366,22.102649 C 55.61735,26.456165 43.441569,29.254016 29.390788,29.254016 8.3175457,29.564563 -9.0115563,23.658313 -9.4773763,16.196399 c 0,0 -0.234375,-1.866211 0,-4.974609 v 0 c 1.637695,7.151367 17.794922,13.678711 37.6992193,14.923828 13.813477,0.621094 25.989258,-1.245117 33.014648,-4.664063 0,1e-6 0.703125,0.310547 1.171875,0.621094 v 0"
          id="path678"
          style="fill:#f78f1e"/>

    <path d="M 55.1486,18.683704 C 48.357584,20.860462 39.225748,22.413196 29.625162,22.413196 8.3175457,22.726673 -9.0115563,16.817493 -9.4773763,9.3555786 c 0,0 0,-1.863281 0,-4.974609 v 0 c 1.637695,7.1513674 17.794922,13.6816414 37.6992193,14.9238284 9.131836,0.621094 17.326172,0 24.117188,-1.552734 0,0 1.168945,0.310547 2.575195,0.931641 H 55.1486"
          id="path680"
          style="fill:#f78f1e"/>

    <path d="M 67.793132,29.564563 C 66.152507,37.029407 49.763835,42.619251 29.390788,42.935657 10.189616,43.240345 -5.7332353,38.582141 -8.7771813,31.744251 c 0,0 -0.234375,-0.621094 -0.46875,-1.558594 0,0 -0.231445,-0.931641 -0.231445,-4.974609 v -0.310547 c 1.637695,7.148438 17.794922,13.681641 37.6992193,14.923828 20.370117,1.242187 37.464843,-3.732422 39.571289,-10.259766 v 0"
          id="path682"
          style="fill:#f78f1e"/>

    <polyline
            points="108.282715,92.348633 108.282715,69.344727 101.960449,92.348633 98.447754,92.348633 91.891113,69.344727  91.891113,92.348633 89.315918,92.348633 89.315918,66.860352 94.234863,66.860352 100.322754,89.243164 106.410645,66.860352  111.32666,66.860352 111.32666,92.348633 108.282715,92.348633 "
            id="polyline684"
            transform="translate(-9.5813803,-9.9325074)"/>

    <path d="m 114.62419,73.404407 h -0.70313 c -2.80957,0 -5.61914,0.621094 -5.61914,3.726563 0,1.863281 0.70313,3.421875 2.5752,3.421875 2.80956,0 3.74706,-2.800781 3.74706,-4.974609 v -2.173829 m 1e-5,9.011719 v -2.173828 c -1.17188,1.552734 -2.34082,2.484375 -4.68457,2.484375 -3.04395,0 -4.44727,-2.173828 -4.44727,-5.285156 0,-5.595703 4.44727,-5.90625 9.13184,-5.90625 v -0.621094 c 0,-2.173828 0,-4.664063 -2.80957,-4.664063 -1.64063,0 -3.04395,0.931641 -3.04395,2.794922 v 0 h -2.57519 c 0,-3.416016 2.57519,-4.664063 5.61914,-4.664063 4.21582,0 5.38476,1.869141 5.38476,5.912109 v 6.527344 c 0,1.869141 0,3.732422 0.23438,5.595703 z"
          id="path686"
    />

    <path d="m 125.86247,82.726673 c -3.27832,0 -5.15039,-1.552734 -5.38477,-4.353516 0,-0.304688 0,-0.931641 0,-1.242188 h 2.80957 c 0,0.310547 0,0.621094 0,0.9375 0,1.546875 0.70313,2.794922 2.5752,2.794922 1.64062,0 2.57812,-1.248047 2.57812,-2.794922 0,-2.179688 -1.17187,-2.800781 -3.04687,-4.042969 -2.5752,-1.242188 -4.44727,-2.179688 -4.44727,-4.980469 0,-3.105469 2.10645,-4.664063 5.15039,-4.664063 3.04395,0 4.68457,1.248047 4.91895,3.738281 0.23437,0.621094 0.23437,0.925781 0.23437,1.546875 h -2.80957 c 0,-0.621094 0,-0.925781 0,-1.242188 -0.23437,-1.242188 -0.70312,-2.173828 -2.57812,-2.173828 -1.40332,0 -2.34082,0.931641 -2.34082,2.490234 0,1.863281 1.64062,2.484375 3.51269,3.416016 2.34082,1.248047 4.21582,2.490234 4.21582,5.285156 0,3.732424 -2.10937,5.285159 -5.38769,5.285159"
          id="path688"
    />

    <path d="m 139.4445,82.726673 c -3.27832,0 -3.98145,-1.552734 -3.98145,-4.658203 V 66.871204 h -2.57519 v -2.173828 h 2.57519 v -3.111328 l 2.80957,-1.242188 v 4.353516 h 3.04395 v 2.173828 h -3.04395 v 10.880859 c 0,2.179688 0.46875,2.490234 1.875,2.490234 0.46875,0 0.9375,0 1.40332,0 v 2.173828 c -0.70019,1e-6 -1.40332,0.310548 -2.10644,0.310548"
          id="path690"
    />

    <path d="m 152.55778,69.982532 c -0.23438,-1.863281 -0.9375,-3.732422 -3.04102,-3.732422 -2.10937,0 -3.04687,1.552734 -3.28125,3.416016 0,0.9375 0,1.558594 0,2.490234 h 6.32227 c 0,-0.93164 0,-1.552734 0,-2.173828 m -6.32227,4.042969 v 1.242188 c 0,2.800781 0.23438,5.595703 3.28125,5.595703 2.57227,0 3.04102,-1.869141 3.04102,-4.042969 h 2.80664 c -0.23437,3.732422 -1.64062,5.90625 -5.84765,5.90625 -5.62207,0 -6.09082,-3.732422 -6.09082,-8.396484 0,-4.664062 0.23437,-9.949219 6.09082,-9.949219 5.84765,0 5.84765,4.359375 5.84765,8.707031 v 0.9375 z"
          id="path692"
    />

    <path d="m 165.67106,66.871204 c -2.80664,0 -3.97852,1.869141 -3.97852,4.664063 v 10.880859 h -2.8125 V 68.119251 c 0,-0.9375 0,-2.490234 0,-3.421875 h 2.57813 v 2.484375 c 1.17187,-1.863281 2.57227,-2.800781 4.68164,-2.800781 h 0.22852 v 2.800781 c -0.22852,-0.310547 -0.46289,-0.310547 -0.69727,-0.310547"
          id="path694"
    />

    <path d="m 183.46598,59.722766 -3.51562,13.986328 h 7.26562 l -3.75,-13.986328 m 6.32227,22.69336 -1.86914,-6.527344 h -8.67188 l -1.86914,6.527344 h -3.04101 l 7.48828,-25.488281 h 3.75 l 7.2539,25.488281 z"
          id="path696"
    />

    <path d="m 204.06755,82.416126 v -2.173828 c -1.16602,1.552734 -2.57227,2.484375 -4.44141,2.484375 -3.51563,0 -4.92188,-2.173828 -4.92188,-5.595703 V 64.697376 h 2.8125 v 11.191406 c 0,2.179688 0,4.664063 2.8125,4.664063 3.04102,0 3.50391,-2.800781 3.50391,-4.974609 v -10.88086 h 2.8125 v 13.675781 c 0,1.558594 0,2.800781 0.23438,4.042969 h -2.8125"
          id="path698"
    />

    <path d="m 216.4777,66.25011 c -3.27539,0 -3.27539,4.042969 -3.27539,7.154297 0,4.037109 0.23438,7.148438 3.04688,7.148438 3.27539,0 3.50976,-3.421875 3.50976,-6.84375 0,-3.726563 -0.23437,-7.458985 -3.28125,-7.458985 m 3.51563,16.166016 v -2.173828 c -1.17188,1.863281 -2.34375,2.484375 -4.21289,2.484375 -5.1504,0 -5.61915,-4.974609 -5.61915,-9.322266 0,-4.359375 0.70313,-9.023438 5.61915,-9.023438 1.86914,0 3.04101,0.626953 3.97851,2.179688 v -9.632813 h 2.8125 V 78.99425 c 0,0.9375 0,2.490234 0,3.421875 z"
          id="path700"
    />

    <path d="m 226.78434,64.697376 h 2.80664 v 17.71875 h -2.80664 v -17.71875 m 0,-7.148438 h 3.04102 v 2.794922 h -3.04102 z"
          id="path702"
    />

    <path d="m 242.70426,72.783313 c 0,-2.800781 0,-6.533203 -3.27539,-6.533203 -3.50976,0 -3.27539,4.042969 -3.27539,6.533203 v 2.484375 c 0,2.484375 0,5.595703 3.27539,5.595703 3.04102,0 3.27539,-3.111328 3.27539,-5.595703 v -2.484375 m -3.27539,9.94336 c -5.61914,0 -6.08789,-3.732422 -6.08789,-9.017578 0,-4.96875 0.46875,-9.328125 6.08789,-9.328125 5.61915,0 6.0879,3.738281 6.0879,9.023438 -1e-5,5.906249 -0.93751,9.322265 -6.0879,9.322265"
          id="path704"
    />

    <polyline
            points="298.650879,8.09668 298.650879,1.879883 296.547363,1.879883 296.547363,1.255859 301.92627,1.255859  301.92627,1.879883 299.588379,1.879883 299.588379,8.09668 298.650879,8.09668 "
            id="polyline706"
            transform="translate(-9.5813803,-9.9325074)"/>

    <path d="m 293.04801,-1.8358274 v -6.84082 h 1.40625 l 1.64063,4.664063 c 0,0.621094 0.23437,0.93457 0.23437,0.93457 0,0 0.23438,-0.313477 0.46875,-0.93457 l 1.40625,-4.664063 h 1.40625 v 6.84082 h -0.9375 v -5.90625 l -2.10937,5.90625 h -0.70313 l -1.875,-5.90625 v 5.90625 h -0.9375"
          id="path708"
    />

</svg>
