<?xml version="1.0" encoding="UTF-8" standalone="no"?>
<svg
        xmlns="http://www.w3.org/2000/svg"
        id="svg8"
        version="1.1"
        viewBox="-6 0 158 63.447136"
        height="63.447136mm"
        width="146.11522mm">
    <defs
            id="defs2">
        <rect
                id="rect18"
                height="12.476767"
                width="159.1725"
                y="71.085915"
                x="14.05945"/>
        <rect
                id="rect12"
                height="102.18858"
                width="197.24548"
                y="13.982535"
                x="6.6200738"/>
    </defs>
    <g
            transform="translate(-14.965343,-17.576527)"
            id="layer1">
        <g
                id="text10"
                transform="translate(2.0361437,-9.7827178)">
            <path
                    id="path28"
                    d="m 29.50455,28.078912 q 9.931405,0 14.465307,4.318002 4.605868,4.246035 4.605868,11.730572 0,4.461935 -1.871134,8.420103 -1.871134,3.886202 -6.261102,6.261103 -4.318002,2.374901 -11.802539,2.374901 H 23.963115 V 79.463134 H 13.096143 V 28.078912 Z m -0.575733,8.923871 h -4.965702 v 15.256939 h 3.598335 q 4.605868,0 7.268636,-1.799167 2.734735,-1.871134 2.734735,-5.973236 0,-7.484536 -8.636004,-7.484536 z"/>
            <path
                    id="path30"
                    d="m 80.097022,36.427049 q -6.261103,0 -9.571571,4.677835 -3.310468,4.677836 -3.310468,12.810072 0,8.204204 3.022601,12.738106 3.094568,4.461935 9.859438,4.461935 3.166535,0 6.261103,-0.719667 3.166534,-0.719667 6.836836,-2.015067 v 9.13977 q -3.382435,1.367368 -6.692903,2.015068 -3.310468,0.6477 -7.41257,0.6477 -7.916337,0 -13.097939,-3.238501 -5.109635,-3.310468 -7.556503,-9.211738 -2.446868,-5.973235 -2.446868,-13.889572 0,-7.772404 2.806701,-13.745639 2.806702,-5.973236 8.132237,-9.355671 5.397503,-3.382435 13.169906,-3.382435 3.814235,0 7.62847,1.007534 3.886202,0.935567 7.41257,2.590801 l -3.526368,8.851904 q -2.878668,-1.367368 -5.829303,-2.374901 -2.878668,-1.007534 -5.685369,-1.007534 z"/>
            <path
                    id="path32"
                    d="M 125.86778,79.463134 113.4895,39.161783 h -0.28786 q 0.072,1.439334 0.2159,4.318002 0.14393,2.878668 0.28786,6.189136 0.14394,3.238502 0.14394,5.90127 v 23.892943 h -9.71551 V 28.078912 h 14.82514 l 12.16237,39.293817 h 0.2159 l 12.88204,-39.293817 h 14.82514 v 51.384222 h -10.1473 V 55.13839 q 0,-2.446867 0.072,-5.613402 0.14393,-3.166535 0.2159,-5.973236 0.14393,-2.878668 0.2159,-4.318002 h -0.28787 l -13.24187,40.229384 z"/>
        </g>
        <g
                id="text16"
                transform="translate(0,1.0583333)">
            <path
                    id="path35"
                    d="m 14.965343,72.624517 h 3.081983 q 1.374594,0 2.10771,0.612539 0.73794,0.607715 0.73794,1.736328 0,1.133437 -0.73794,1.745975 -0.733116,0.607715 -2.10771,0.607715 H 16.82225 v 2.498384 h -1.856907 z m 1.856907,1.345655 v 2.011247 h 1.027328 q 0.540191,0 0.834402,-0.260449 0.294211,-0.265272 0.294211,-0.747586 0,-0.482313 -0.294211,-0.742763 -0.294211,-0.260449 -0.834402,-0.260449 z"/>
            <path
                    id="path37"
                    d="m 22.204868,72.624517 h 1.856907 v 4.316706 q 0,0.89228 0.289388,1.278131 0.294212,0.381027 0.954981,0.381027 0.665593,0 0.954981,-0.381027 0.294211,-0.385851 0.294211,-1.278131 v -4.316706 h 1.856907 v 4.316706 q 0,1.528934 -0.766879,2.27652 -0.766878,0.747586 -2.33922,0.747586 -1.567519,0 -2.334397,-0.747586 -0.766879,-0.747586 -0.766879,-2.27652 z"/>
            <path
                    id="path39"
                    d="m 30.225742,72.624517 h 1.856907 v 5.797408 h 3.260439 v 1.403533 h -5.117346 z"/>
            <path
                    id="path41"
                    d="m 41.531168,72.851205 v 1.52411 q -0.593245,-0.265272 -1.157552,-0.40032 -0.564307,-0.135048 -1.065913,-0.135048 -0.665592,0 -0.983919,0.18328 -0.318327,0.183279 -0.318327,0.569129 0,0.289389 0.212218,0.453375 0.217041,0.159164 0.781348,0.274919 l 0.790994,0.159163 q 1.20096,0.241157 1.707389,0.733117 0.50643,0.491959 0.50643,1.398709 0,1.191314 -0.709001,1.774913 -0.704178,0.578777 -2.155941,0.578777 -0.684886,0 -1.374594,-0.130225 -0.689708,-0.130225 -1.379416,-0.385851 v -1.567519 q 0.689708,0.366559 1.331185,0.554661 0.6463,0.183279 1.244369,0.183279 0.607715,0 0.930865,-0.202572 0.32315,-0.202571 0.32315,-0.578776 0,-0.337619 -0.221865,-0.520898 -0.217041,-0.18328 -0.872987,-0.327974 l -0.718647,-0.159163 q -1.080382,-0.23151 -1.581988,-0.73794 -0.496783,-0.506429 -0.496783,-1.364947 0,-1.075559 0.694531,-1.654335 0.694532,-0.578776 1.996778,-0.578776 0.593246,0 1.220253,0.09164 0.627008,0.08682 1.297423,0.265273 z"/>
            <path
                    id="path43"
                    d="m 43.634056,72.624517 h 5.011237 v 1.403533 h -3.15433 v 1.340831 h 2.966227 v 1.403532 h -2.966227 v 1.649512 h 3.260439 v 1.403533 h -5.117346 z"/>
            <path
                    id="path45"
                    d="m 59.53111,79.429961 q -0.511253,0.265272 -1.065913,0.40032 -0.554661,0.135048 -1.157552,0.135048 -1.79903,0 -2.850473,-1.003212 -1.051443,-1.008036 -1.051443,-2.729895 0,-1.726682 1.051443,-2.729894 1.051443,-1.008035 2.850473,-1.008035 0.602891,0 1.157552,0.135048 0.55466,0.135047 1.065913,0.40032 v 1.490348 q -0.516076,-0.352088 -1.017682,-0.516075 -0.501606,-0.163987 -1.056266,-0.163987 -0.993566,0 -1.562696,0.636654 -0.56913,0.636654 -0.56913,1.755621 0,1.114144 0.56913,1.750798 0.56913,0.636654 1.562696,0.636654 0.55466,0 1.056266,-0.163987 0.501606,-0.163986 1.017682,-0.516075 z"/>
            <path
                    id="path47"
                    d="m 64.359068,73.839947 q -0.848872,0 -1.316716,0.627008 -0.467844,0.627007 -0.467844,1.765267 0,1.133437 0.467844,1.760444 0.467844,0.627008 1.316716,0.627008 0.853695,0 1.321539,-0.627008 0.467844,-0.627007 0.467844,-1.760444 0,-1.13826 -0.467844,-1.765267 -0.467844,-0.627008 -1.321539,-0.627008 z m 0,-1.345654 q 1.736329,0 2.720248,0.993566 0.98392,0.993565 0.98392,2.744363 0,1.745975 -0.98392,2.739541 -0.983919,0.993566 -2.720248,0.993566 -1.731505,0 -2.720248,-0.993566 -0.983919,-0.993566 -0.983919,-2.739541 0,-1.750798 0.983919,-2.744363 0.988743,-0.993566 2.720248,-0.993566 z"/>
            <path
                    id="path49"
                    d="m 71.323673,74.02805 v 4.393875 h 0.665592 q 1.13826,0 1.736329,-0.564306 0.602892,-0.564307 0.602892,-1.639866 0,-1.070736 -0.598069,-1.63022 -0.598069,-0.559483 -1.741152,-0.559483 z m -1.856907,-1.403533 h 1.958193 q 1.639865,0 2.440506,0.236334 0.805463,0.231511 1.379416,0.790994 0.50643,0.487137 0.752409,1.123791 0.24598,0.636653 0.24598,1.442117 0,0.81511 -0.24598,1.456587 -0.245979,0.636653 -0.752409,1.12379 -0.578776,0.559484 -1.389062,0.795817 -0.810287,0.231511 -2.43086,0.231511 h -1.958193 z"/>
            <path
                    id="path51"
                    d="m 77.666095,72.624517 h 5.011237 v 1.403533 h -3.15433 v 1.340831 h 2.966228 v 1.403532 h -2.966228 v 1.649512 h 3.260439 v 1.403533 h -5.117346 z"/>
            <path
                    id="path53"
                    d="m 87.852558,72.624517 h 2.363336 l 1.639866,3.853685 1.649512,-3.853685 h 2.358513 v 7.200941 h -1.755621 v -5.266863 l -1.659159,3.882623 H 91.27216 l -1.659158,-3.882623 v 5.266863 h -1.760444 z"/>
            <path
                    id="path55"
                    d="m 100.97148,73.839947 q -0.84887,0 -1.316716,0.627008 -0.467844,0.627007 -0.467844,1.765267 0,1.133437 0.467844,1.760444 0.467846,0.627008 1.316716,0.627008 0.85369,0 1.32154,-0.627008 0.46784,-0.627007 0.46784,-1.760444 0,-1.13826 -0.46784,-1.765267 -0.46785,-0.627008 -1.32154,-0.627008 z m 0,-1.345654 q 1.73633,0 2.72025,0.993566 0.98392,0.993565 0.98392,2.744363 0,1.745975 -0.98392,2.739541 -0.98392,0.993566 -2.72025,0.993566 -1.731506,0 -2.720248,-0.993566 -0.98392,-0.993566 -0.98392,-2.739541 0,-1.750798 0.98392,-2.744363 0.988742,-0.993566 2.720248,-0.993566 z"/>
            <path
                    id="path57"
                    d="m 107.93609,74.02805 v 4.393875 h 0.66559 q 1.13826,0 1.73633,-0.564306 0.60289,-0.564307 0.60289,-1.639866 0,-1.070736 -0.59807,-1.63022 -0.59807,-0.559483 -1.74115,-0.559483 z m -1.85691,-1.403533 h 1.95819 q 1.63987,0 2.44051,0.236334 0.80546,0.231511 1.37942,0.790994 0.50643,0.487137 0.75241,1.123791 0.24598,0.636653 0.24598,1.442117 0,0.81511 -0.24598,1.456587 -0.24598,0.636653 -0.75241,1.12379 -0.57878,0.559484 -1.38907,0.795817 -0.81028,0.231511 -2.43086,0.231511 h -1.95819 z"/>
            <path
                    id="path59"
                    d="m 114.27851,72.624517 h 1.85691 v 4.316706 q 0,0.89228 0.28939,1.278131 0.29421,0.381027 0.95498,0.381027 0.66559,0 0.95498,-0.381027 0.29421,-0.385851 0.29421,-1.278131 v -4.316706 h 1.85691 v 4.316706 q 0,1.528934 -0.76688,2.27652 -0.76688,0.747586 -2.33922,0.747586 -1.56752,0 -2.3344,-0.747586 -0.76688,-0.747586 -0.76688,-2.27652 z"/>
            <path
                    id="path61"
                    d="m 122.29939,72.624517 h 1.85691 v 5.797408 h 3.26043 v 1.403533 h -5.11734 z"/>
            <path
                    id="path63"
                    d="m 132.96334,78.513565 h -2.90353 l -0.4582,1.311893 h -1.86655 l 2.66719,-7.200941 h 2.21382 l 2.6672,7.200941 h -1.86656 z m -2.44051,-1.336008 h 1.97266 l -0.98392,-2.864942 z"/>
            <path
                    id="path65"
                    d="m 134.61285,72.624517 h 6.63664 v 1.403533 h -2.38746 v 5.797408 h -1.8569 V 74.02805 h -2.39228 z"/>
            <path
                    id="path67"
                    d="m 142.20929,72.624517 h 1.8569 v 7.200941 h -1.8569 z"/>
            <path
                    id="path69"
                    d="m 149.1739,73.839947 q -0.84888,0 -1.31672,0.627008 -0.46784,0.627007 -0.46784,1.765267 0,1.133437 0.46784,1.760444 0.46784,0.627008 1.31672,0.627008 0.85369,0 1.32153,-0.627008 0.46785,-0.627007 0.46785,-1.760444 0,-1.13826 -0.46785,-1.765267 -0.46784,-0.627008 -1.32153,-0.627008 z m 0,-1.345654 q 1.73632,0 2.72024,0.993566 0.98392,0.993565 0.98392,2.744363 0,1.745975 -0.98392,2.739541 -0.98392,0.993566 -2.72024,0.993566 -1.73151,0 -2.72025,-0.993566 -0.98392,-0.993566 -0.98392,-2.739541 0,-1.750798 0.98392,-2.744363 0.98874,-0.993566 2.72025,-0.993566 z"/>
            <path
                    id="path71"
                    d="m 154.2816,72.624517 h 2.07394 l 2.61897,4.93889 v -4.93889 h 1.76044 v 7.200941 H 158.661 l -2.61896,-4.93889 v 4.93889 h -1.76044 z"/>
        </g>
    </g>
</svg>
