<?xml version="1.0" encoding="UTF-8" standalone="no"?>
<svg xmlns="http://www.w3.org/2000/svg"
     id="svg2510"
     width="913"
     height="518"
     viewBox="-20 -30 953 518"
     version="1.0">

    <path d="m 193.83374,458.00704 c -9.625,-0.39665 -21.325,-1.23996 -26,-1.87402 C 133.4059,451.46362 97.783578,436.11998 70.754421,414.31793 66.585796,410.95546 58.020799,402.85823 51.721094,396.32407 23.534651,367.08865 5.4807036,329.03575 0.81896106,289.03598 -0.73716854,275.68372 0.03092106,243.22864 2.2230807,229.70591 9.2415759,186.41107 27.624309,144.70444 54.503657,111.09207 102.51488,51.0545 182.2913,9.3151312 264.68969,1.1218212 337.73216,-6.1411778 404.76026,22.236842 440.11066,75.39066 c 9.46561,14.23274 20.38789,38.03143 19.18856,41.81018 -1.21898,3.84067 -4.21204,2.17341 -6.02963,-3.35877 -6.17502,-18.79479 -19.13937,-39.44134 -34.06092,-54.24415 -18.8655,-18.71539 -48.6646,-33.794257 -78.03705,-39.488101 -36.42731,-7.061432 -73.47692,-4.303376 -116.33788,8.66045 -48.70585,14.731691 -88.61868,37.929621 -121,70.327011 -34.50128,34.51841 -55.576807,74.93071 -64.664844,123.99479 -2.551687,13.77593 -2.569164,51.09575 -0.02944,62.87475 6.338867,29.39911 19.210398,52.78932 40.111504,72.89083 22.04099,21.19779 50.58481,35.71381 83.20421,42.31368 13.41833,2.71492 46.86587,3.79102 62.11145,1.99829 42.60681,-5.01015 77.49494,-21.25516 102.07172,-47.52782 13.26995,-14.18562 19.73151,-25.45687 32.99201,-57.54973 4.43148,-10.725 12.41677,-29.4 17.74509,-41.5 21.58764,-49.02308 21.4249,-48.5334 17.44986,-52.50844 -1.91194,-1.91194 -2.95297,-2.15628 -7.09638,-1.66555 -8.1732,0.96799 -15.09483,7.16717 -20.85028,18.67399 -1.51304,3.025 -12.11897,26.5375 -23.56874,52.25 l -20.81777,46.75 h -37.32919 c -34.8831,0 -37.32952,-0.11467 -37.33407,-1.75 -0.003,-0.9625 10.34732,-24.9625 23,-53.33334 19.40724,-43.51645 23.00487,-52.317 23.00487,-56.27475 0,-4.1942 -0.29145,-4.80378 -2.75,-5.75169 -7.01902,-2.70624 -15.9526,1.73875 -22.32855,11.10978 -2.05818,3.025 -13.66823,27.73825 -25.80012,54.91833 -12.13189,27.18008 -22.40974,49.74911 -22.83966,50.1534 -0.42992,0.4043 -17.15738,0.89105 -37.17214,1.08168 -31.52725,0.30027 -36.51245,0.14613 -37.30327,-1.15341 -0.83591,-1.37366 14.06085,-35.67814 57.21793,-131.7623 l 7.30436,-16.2623 36.07227,0.2623 c 35.18108,0.25582 36.08119,0.31171 36.43279,2.2623 0.62181,3.44955 1.65928,3.61415 7.23956,1.14856 11.32872,-5.00548 22.30178,-7.09218 37.42683,-7.11729 11.68476,-0.0194 15.15987,0.34107 21.01361,2.17973 8.07796,2.53727 15.14491,6.92053 17.89955,11.10213 l 1.91316,2.90422 8.08684,-3.78554 c 27.2765,-12.76844 58.28565,-16.2545 78.22531,-8.79412 7.1876,2.68923 15.68027,10.52623 18.04334,16.65033 2.64871,6.86434 2.26854,17.73489 -0.95168,27.21198 -6.1631,18.13805 -46.33033,105.439 -58.55309,127.26146 -29.40689,52.50297 -62.25928,83.53482 -107.11628,101.18035 -18.83825,7.41046 -46.21423,13.0152 -68.8056,14.08672 -22.23553,1.05464 -26.18481,1.08992 -43.25516,0.38644 z M 422.3375,397.09815 c -0.33785,-0.54665 7.77571,-19.78415 18.03013,-42.75 35.62039,-79.77553 41.51459,-93.00272 61.38591,-137.75608 l 19.98083,-45 h 39.29969 39.29968 l 0.31642,2.75 c 0.38653,3.3593 0.59557,3.36637 7.40241,0.25009 10.75565,-4.9241 20.14201,-6.76068 34.78117,-6.80544 30.59978,-0.0936 48.5119,9.01105 54.13234,27.51516 8.97898,29.56133 -18.19732,83.81123 -53.87348,107.54337 -20.58036,13.69026 -39.62584,19.80452 -65.25886,20.95035 -14.08659,0.62969 -20.82023,-0.58403 -31.39312,-5.65853 -3.3392,-1.60266 -6.15045,-2.83092 -6.2472,-2.72947 -0.0968,0.10146 -7.69434,17.05947 -16.88351,37.68447 -9.18916,20.625 -17.56465,39.1875 -18.61219,41.25 l -1.90463,3.75 h -39.92066 c -25.37219,0 -40.14452,-0.36222 -40.53493,-0.99392 z M 576.30547,293.66833 c 10.8961,-4.55268 24.56905,-25.03109 37.00735,-55.42709 6.13206,-14.98516 8.79533,-26.02584 8.3242,-34.50819 -0.29425,-5.29764 -0.81401,-7.17566 -2.28326,-8.25 -7.01153,-5.12696 -21.66619,4.67463 -33.05587,22.10902 -9.73779,14.90581 -21.61437,41.14974 -24.98736,55.2151 -2.07848,8.66726 -1.64695,17.3344 1.00919,20.2694 2.21023,2.44229 8.88126,2.72455 13.98575,0.59176 z m 152.38202,28.90155 c -13.3692,-1.82406 -20.8132,-3.98062 -31.79358,-9.21075 -7.48871,-3.567 -10.97495,-6.0019 -16.86706,-11.78051 -4.08498,-4.00629 -7.26206,-7.75965 -7.06017,-8.34078 0.62777,-1.80707 37.84802,-29.14672 39.65651,-29.12917 0.9408,0.009 4.63555,1.09202 8.21055,2.40644 5.64879,2.07689 6.4693,2.69675 6.26559,4.7334 -1.38353,13.83195 -1.4384,18.01214 -0.27335,20.82482 2.99846,7.23892 13.68587,10.29169 26.72379,7.63342 12.06151,-2.45919 19.44227,-6.62491 29.31235,-16.54397 12.67187,-12.73476 19.57671,-27.22701 18.79812,-39.45453 -0.48027,-7.54247 -3.0085,-11.55769 -9.1492,-14.53035 -3.85632,-1.86681 -6.11644,-2.08583 -21.52441,-2.08583 -14.61172,0 -17.30544,-0.23396 -17.80921,-1.54678 -0.52969,-1.38034 6.60561,-19.05129 8.96537,-22.20322 0.65517,-0.8751 4.43511,-1.25 12.6033,-1.25 13.38728,0 20.10598,-1.42098 30.98863,-6.554 15.30386,-7.21837 29.58554,-25.56293 32.31734,-41.51102 0.96336,-5.6241 0.87435,-6.93744 -0.69425,-10.24301 -2.46787,-5.20065 -7.58615,-7.69197 -15.80273,-7.69197 -10.88098,0 -21.58782,4.07043 -29.22565,11.11074 -5.18807,4.7822 -7.73119,9.70164 -8.45525,16.35599 l -0.54044,4.96673 -9,2.7914 c -4.95,1.53527 -9.50895,2.59741 -10.131,2.36032 -1.40236,-0.53451 -18.369,-27.52937 -18.369,-29.2261 0,-1.57115 14.25794,-11.02197 23.87873,-15.82792 24.61564,-12.29645 60.05394,-18.76807 90.255,-16.48205 33.0612,2.50252 51.04884,13.89835 52.60859,33.32949 1.99196,24.81568 -19.57566,49.13446 -54.24232,61.16145 -4.4,1.5265 -8.37899,3.10596 -8.84221,3.50992 -0.46322,0.40395 1.9752,2.23611 5.4187,4.07148 20.00014,10.65997 25.87797,28.87051 16.33912,50.62144 -7.13187,16.26243 -23.55197,32.16496 -43.80333,42.42265 -9.19271,4.65627 -27.87364,11.05034 -38.61228,13.21614 -19.00595,3.83316 -41.63477,4.62178 -60.14625,2.09613 z"
          id="path2521"/>
</svg>
