<?xml version="1.0" encoding="UTF-8" standalone="no"?>
<svg xmlns="http://www.w3.org/2000/svg"
     width="509"
     height="279"
     viewBox="-10 -20 529 279"
     id="svg2"
     version="1.1">
    <g id="layer1"
       transform="translate(-421.7581,-130.20824)">

        <path style="font-size:7.5px;font-family:fnt1;letter-spacing:0.075px;word-spacing:0;fill-opacity:1;fill-rule:nonzero;stroke:none"
              id="path470"
              d="m 719.05261,173.59051 c -20.43165,-4.19828 -35.15364,-1.00759 -42.87848,1.17552 -1.2315,0.33586 -1.56736,0.5038 -2.91081,-0.22391 -19.70395,-10.24381 -49.03596,-15.84152 -89.11558,-15.84152 -53.62609,0 -121.47037,23.39843 -121.47037,64.26174 0,34.87375 61.6868,63.98185 140.2227,63.98185 1.39943,0.056 3.75047,0.61575 1.45541,5.03794 -4.08633,7.89278 -7.66887,14.05026 -8.90036,15.8975 -2.40702,3.75047 -0.33587,7.1091 9.34818,1.45541 0,0 50.37941,-25.58155 64.20576,-33.0265 0.22391,-0.16794 1.51138,-0.72771 2.6869,-0.55977 12.81876,1.62333 32.80259,1.34345 44.22193,-1.9592 1.17552,-0.33587 0.78368,0.50379 0.61575,0.61574 -10.97152,8.95634 -24.46201,17.35291 -39.23997,26.02937 -13.9383,8.22863 -107.14022,64.70955 -113.52161,68.12416 -4.81403,2.63092 -6.49334,-3.41461 -4.42219,-6.88519 2.23908,-3.58253 12.03508,-21.88705 20.59958,-36.38513 2.6869,-4.47817 9.23623,-11.81117 -1.9592,-11.41933 -32.52271,1.11954 -156.23215,-26.925 -156.23215,-93.08996 0,-56.20104 86.76454,-90.57099 161.77389,-90.57099 27.70867,0 98.96755,8.73243 136.80809,42.31871 1.34345,1.23149 -1.11954,1.06356 -1.28747,1.06356"/>

        <path style="font-size:7.5px;font-family:fnt1;letter-spacing:0.075px;word-spacing:0;fill-opacity:1;fill-rule:nonzero;stroke:none"
              id="path472"
              d="m 862.63393,263.15391 h 38.96008 l 29.16408,-108.09183 h -39.01605 l -29.10811,108.09183"/>

        <path style="font-size:7.5px;font-family:fnt1;letter-spacing:0.075px;word-spacing:0;fill-opacity:1;fill-rule:evenodd;stroke:none"
              id="path474"
              class="ps05 ps22"
              d="m 674.49482,215.23749 c 2.91081,-8.34059 9.85197,-13.2106 20.26372,-13.2106 9.90795,0 14.83393,4.70208 14.83393,10.63566 0,0.78367 -0.22391,1.84724 -0.39184,2.57494 z m 27.98856,25.35764 c -1.9592,2.6869 -6.88519,5.59771 -15.39371,5.59771 -12.20301,0 -15.95348,-6.99714 -15.95348,-15.33773 h 72.93819 c 1.79127,-4.81403 2.01518,-9.40416 2.01518,-13.65842 0,-24.68591 -27.42879,-34.42593 -50.09953,-34.42593 -25.46959,0 -61.35093,11.86715 -61.35093,47.91642 0,19.14418 14.61003,34.76179 50.88321,34.76179 44.16595,0 51.83482,-19.59199 54.40977,-24.85384 h -37.4487"/>

        <path style="font-size:7.5px;font-family:fnt1;letter-spacing:0.075px;word-spacing:0;fill-opacity:1;fill-rule:nonzero;stroke:none"
              id="path476"
              d="m 642.41992,184.11421 c -3.52656,-0.89563 -7.27702,-1.17552 -13.77037,-1.17552 -10.07588,0 -22.83867,5.8776 -29.72385,14.21819 h -0.39184 l 3.35862,-12.25899 h -37.78455 l -21.10338,78.53591 h 39.01606 l 8.84438,-32.85857 c 4.53415,-16.45728 12.76279,-21.94304 29.33201,-21.94304 2.79886,0 5.76565,0.22391 8.67646,0.67173 l 13.54646,-25.18971"/>
        <path style="font-size:7.5px;font-family:fnt1;letter-spacing:0.075px;word-spacing:0;fill-opacity:1;fill-rule:evenodd;stroke:none"
              id="path478"
              d="m 788.29631,240.53915 c 0,-5.76564 6.10151,-8.34059 12.59485,-8.78841 7.1091,-0.44781 14.38613,-1.06356 20.65556,-3.47058 -2.35104,11.64325 -7.66886,19.03223 -20.82349,19.03223 -6.32541,0 -12.42692,-1.34346 -12.42692,-6.77324 z M 852.67,253.46987 c 2.12714,-9.90795 11.97911,-39.07203 11.97911,-50.04355 0,-19.03222 -31.0673,-20.87947 -49.59573,-20.87947 -24.9658,0 -46.0132,4.87001 -52.11471,25.74948 h 36.60904 c 2.12713,-5.8776 7.66887,-8.00473 15.50567,-8.00473 5.93357,0 12.20301,1.34345 12.20301,6.77323 0,9.68405 -17.52084,8.50853 -28.54833,9.12427 -29.27604,1.62334 -49.37183,7.22105 -49.37183,27.98857 0,14.94589 15.56164,20.87946 33.08248,20.87946 11.41934,0 24.57396,-3.19069 31.45915,-9.51611 h 0.39184 c -0.16793,2.51897 -1.51139,7.55691 -1.51139,7.55691 h 37.28077 l 2.63092,-9.62806"/>

        <path style="font-size:7.5px;font-family:fnt1;letter-spacing:0.075px;word-spacing:0;fill-opacity:1;fill-rule:nonzero;stroke:none"
              id="path480"
              d="m 916.48393,263.37782 v -6.66128 h -2.51897 v -0.89563 h 5.98955 v 0.89563 h -2.46299 v 6.66128 h -1.00759"/>

        <path style="font-size:7.5px;font-family:fnt1;letter-spacing:0.075px;word-spacing:0;fill-opacity:1;fill-rule:nonzero;stroke:none"
              id="path482"
              d="m 920.9621,263.37782 v -7.55691 h 1.51138 l 1.79127,5.3738 c 0.16793,0.5038 0.27988,0.83966 0.33586,1.11955 0.11195,-0.27989 0.22391,-0.67173 0.44782,-1.2315 l 1.79127,-5.26185 h 1.34345 v 7.55691 h -0.95161 v -6.32541 l -2.18311,6.32541 h -0.95161 l -2.18311,-6.43737 v 6.43737 h -0.95161"/>

    </g>
</svg>
