<?xml version="1.0" encoding="UTF-8" standalone="no"?>
<svg xmlns="http://www.w3.org/2000/svg"
     version="1.1"
     id="Layer_1"
     width="220"
     height="65"
     viewBox="-5 -5 230 65">
    <path d="M 213.774,1 207.375,13.046 201.192,1 h -5.793 c 1.082,2.04 8.656,16.86 8.656,16.86 v 9.769 h 6.227 c 0.004,-1.328 0,-9.731 0,-9.731 0,0 7.867,-14.849 8.981,-16.898 z"
          id="path2988"/>

    <path d="m 139.349,18.37 c 0,4.884 -1.657,5.998 -6.313,5.998 -4.655,0 -6.309,-1.113 -6.309,-5.998 v -8.244 c 0,-4.764 1.654,-5.797 6.309,-5.797 4.654,0 6.313,1.031 6.313,5.797 z M 142.016,2.012 C 140.175,0.689 137.069,0 133.033,0 c -3.938,0 -6.806,0.564 -8.998,2.021 -2.291,1.525 -3.37,4.079 -3.37,8.067 v 8.667 c 0,3.998 1.119,6.701 3.349,8.046 1.798,1.289 4.731,1.901 9.021,1.901 4.225,0 7.241,-0.63 8.971,-1.87 2.234,-1.427 3.398,-4.206 3.398,-8.077 v -8.667 c 0,-3.797 -1.143,-6.516 -3.388,-8.076"
          id="path2990"/>

    <path d="m 109.732,17.2 c 0,4.527 -2.529,5.672 -4.65,5.672 H 97.584 V 4.797 h 7.498 c 2.122,0 4.65,1.139 4.65,5.354 z M 105.031,1 h -13.56 v 25.864 h 14.512 c 7.152,0 9.814,-2.788 9.814,-10.288 V 10.89 C 115.798,3.774 112.775,1 105.031,1"
          id="path2992"/>

    <polygon
            points="167.375,27.247 167.375,22.877 156.173,22.877 156.173,1 150.098,1 150.098,27.247 "
            id="polygon2994"
            transform="matrix(1.0434103,0,0,1,-6.5508013,0)"/>

    <path d="m 219.41,25.010001 c 0,1.162 -0.857,2 -1.947,2 -1.104,0 -1.957,-0.838 -1.957,-2 0,-1.132 0.854,-1.989 1.957,-1.989 1.09,0 1.947,0.858 1.947,1.989 m -4.361,0 c 0,1.382 1.105,2.388 2.414,2.388 1.293,0 2.402,-1.006 2.402,-2.388 0,-1.364 -1.111,-2.366 -2.402,-2.366 -1.31,0 -2.414,1.002 -2.414,2.366 m 1.907,-1.012 h 0.563 c 0.488,0 0.616,0.144 0.616,0.399 0,0.31 -0.168,0.452 -0.685,0.452 h -0.496 z m 0,1.199 h 0.473 l 0.729,1.194 h 0.459 l -0.777,-1.208 c 0.408,-0.051 0.716,-0.266 0.716,-0.757 0,-0.539 -0.315,-0.781 -0.97,-0.781 h -1.051 v 2.746 h 0.421 z"
          id="path2996"/>

    <path d="m 186.779,13.361 c 4.992,-0.427 6.078,-2.709 6.078,-5.989 0,-2.888 -1.316,-4.359 -2.754,-5.189 C 188.903,1.474 187.477,1 184.485,1 h -13.16 v 26.247 h 13.334 c 4.101,0 5.804,-0.752 6.602,-1.257 1.35,-0.847 3.107,-2.719 3.107,-5.706 -0.001,-3.529 -1.31,-7.063 -7.589,-6.923 m -3.364,10.072 h -5.749 V 23.41 4.778 4.764 h 6.257 c 2.11,0 3.437,1.563 3.437,3.711 0,3.292 -1.711,3.371 -6.58,3.535 v 3.042 c 4.35,-0.019 7.84,-0.262 7.84,3.941 -0.001,2.114 -1.442,4.44 -5.205,4.44"
          id="path2998"/>

    <path d="M 0,55.021 H 79.292 V 0 H 0 Z M 18.392,47.885 H 9.352 V 7.134 h 9.038 c 9.383,0 17.227,9.313 17.227,20.297 0,11.307 -7.843,20.454 -17.225,20.454 m 51.562,0 h -9.068 c -9.39,0 -17.219,-9.146 -17.219,-20.455 0,-10.983 7.831,-20.297 17.219,-20.297 h 9.068 z"
          id="path3000"/>

    <path d="m 121.785,54.188001 -4.051,-6.694 H 115.7 v 6.694 h -3.953 v -19.047 h 9.678 c 0.923,0 1.676,0.131 2.267,0.399 0.596,0.266 1.069,0.618 1.415,1.073 0.352,0.443 0.591,0.963 0.727,1.549 0.141,0.596 0.205,1.201 0.205,1.848 v 2.557 c 0,0.515 -0.045,1.05 -0.142,1.597 -0.094,0.554 -0.28,1.061 -0.555,1.518 -0.285,0.456 -0.672,0.835 -1.163,1.138 -0.493,0.304 -1.139,0.455 -1.937,0.455 h -0.506 l 4.583,6.912 h -4.533 z m 0.357,-14.259 c 0,-0.584 -0.146,-1.02 -0.431,-1.277 -0.295,-0.271 -0.712,-0.4 -1.253,-0.4 h -4.76 v 6.109 h 4.81 c 1.088,0 1.635,-0.574 1.635,-1.712 z"
          id="path3004"/>

    <polygon id="polygon247"
             points="92.281,38.219 92.281,35.093 108.155,35.093 108.155,38.219 102.4,38.219 102.4,54.188 98.101,54.188 98.101,38.219 "
             transform="translate(-0.035)"/>

    <path id="path239"
          d="m 200.6601,40.631394 c 0.007,-1.709989 -1.81304,-1.596593 -1.81304,-1.596593 l -3.94506,-0.02484 v 10.784101 l 3.86346,0.02666 c 1.158,0 1.85771,-0.5306 1.86339,-1.862511 z m -0.2771,13.46354 H 189.735 V 35.141001 h 10.34054 c 3.914,0 5.327,1.698989 5.327,4.797595 v 8.887755 c 0,4.148318 -1.748,5.268583 -5.52,5.268583"/>

    <path id="path257"
          d="m 140.35,54.419001 h -4.78 c -3.436,0 -5.083,-1.099 -5.083,-5.17 v -14.144 h 4.017 v 14.416 c 0,1.208 0.545,1.614 1.509,1.614 h 4.313 c 0.959,0 1.504,-0.406 1.504,-1.614 v -14.416 h 3.575 v 14.144 c -0.002,4.071 -1.614,5.17 -5.055,5.17"/>

    <polygon
            points="180.469,35.448 180.265,42.918 173.993,42.885 173.969,35.448 169.354,35.448 169.354,54.073 174.021,54.073 174.021,46.885 180.219,46.823 180.219,54.073 185.188,54.073 185.188,35.448 "
            id="polygon3029"
            transform="translate(-0.035)"/>

    <path d="m 163.92518,35.480986 h -13.61319 v 18.590796 l 13.58928,0.0079 v -2.635684 h -10.49772 v -6.061254 l 8.06145,0.01325 v -2.636719 l -7.91972,-0.0022 0.0387,-4.662486 h 10.31855 z"
          id="path3805"/>
</svg>
