<?xml version="1.0" encoding="UTF-8" standalone="no"?>
<svg xmlns="http://www.w3.org/2000/svg"
     id="audio_channels"
     width="160"
     height="97"
     viewBox="-12 -5 164 97"
     version="1.1">
    <text id="text"
          y="39"
          style="font-size: 42px;
                 text-anchor: middle;
                 font-weight: bold;
                 font-style: italic;
                 display:inline;
                 stroke-width:2.85;"/>
    <path d="m -5,52.151368 c -2.77,0 -5,2.23 -5,5 v 30 c 0,2.77 2.23,5 5,5 h 150 c 2.77,0 5,-2.23 5,-5 v -30 c 0,-2.77 -2.23,-5 -5,-5 z m 117.36719,8.148438 c 2.83333,0 5.11979,0.880208 6.85937,2.640624 1.75,1.760417 2.625,4.093751 2.625,7 0,2.416668 -0.56771,4.755208 -1.70312,7.015628 -1.13542,2.26042 -2.67709,4 -4.625,5.21875 -1.94792,1.21875 -4.15104,1.82812 -6.60938,1.82812 -2.13541,0 -3.92708,-0.48437 -5.375,-1.45312 -1.44791,-0.96875 -2.47396,-2.16667 -3.07812,-3.59375 -0.60417,-1.4375 -0.90625,-2.88542 -0.90625,-4.34375 0,-1.35417 0.20313,-2.781257 0.60937,-4.281252 0.53126,-2.010417 1.33854,-3.755209 2.42188,-5.234376 1.09374,-1.479166 2.46874,-2.645833 4.125,-3.5 1.65624,-0.864583 3.54166,-1.296874 5.65625,-1.296874 z M 31.101562,60.69043 h 5.234376 l 3.71875,22.906248 h -4.46875 l -0.765626,-5.0625 h -9.078124 l -2.75,5.0625 h -4.84375 z m 16.640626,0 h 4.703124 l -2.59375,12.437498 -0.640624,3.0625 c -0.04167,0.26042 -0.0625,0.50521 -0.0625,0.73438 0,0.90625 0.328121,1.65625 0.984374,2.25 0.666667,0.58333 1.630212,0.875 2.890626,0.875 1.13542,0 2.07292,-0.21355 2.8125,-0.64063 0.739586,-0.42708 1.312503,-1.0625 1.71875,-1.90625 0.406253,-0.84375 0.817708,-2.27604 1.234374,-4.29687 l 2.625,-12.515628 h 4.703126 l -2.609376,12.531248 c -0.552079,2.63542 -1.187496,4.65104 -1.90625,6.04688 -0.718746,1.39583 -1.807291,2.53125 -3.265624,3.40625 -1.458334,0.875 -3.302084,1.3125 -5.53125,1.3125 -2.666667,0 -4.708334,-0.65105 -6.125,-1.95313 -1.416667,-1.3125 -2.125,-2.99479 -2.125,-5.04687 0,-0.42708 0.03646,-0.89063 0.109374,-1.39063 0.04167,-0.33333 0.223962,-1.28125 0.546876,-2.84375 z m 23.203122,0 h 6.17188 c 1.71874,0 2.81771,0.02604 3.29687,0.07813 0.94792,0.09375 1.79167,0.286458 2.53125,0.578124 0.75,0.291667 1.42709,0.703125 2.03125,1.234376 0.61459,0.520833 1.14063,1.151041 1.57813,1.890624 0.44791,0.739584 0.79166,1.59375 1.03125,2.5625 0.23958,0.958334 0.35937,2.010417 0.35937,3.15625 0,2.468748 -0.47396,4.661458 -1.42187,6.578128 -0.9375,1.90624 -2.11979,3.42187 -3.54688,4.54687 -1.09374,0.875 -2.50521,1.52084 -4.23437,1.9375 -0.97917,0.22917 -2.48437,0.34375 -4.51563,0.34375 h -8.078122 z m 22.84375,0 h 4.70313 l -4.78125,22.906248 h -4.71875 z m 18.20313,3.546876 c -2.30209,0 -4.17709,1.072916 -5.625,3.21875 -1.4375,2.145833 -2.15625,4.500004 -2.15625,7.062502 0,1.57292 0.47916,2.89062 1.4375,3.95312 0.95833,1.0625 2.21875,1.59375 3.78125,1.59375 1.27083,0 2.48958,-0.41666 3.65625,-1.25 1.17708,-0.84375 2.14583,-2.11458 2.90625,-3.8125 0.77083,-1.70833 1.15625,-3.36979 1.15625,-4.984372 0,-1.802084 -0.48437,-3.213542 -1.45313,-4.234376 -0.96874,-1.03125 -2.20312,-1.546874 -3.70312,-1.546874 z M 74.85156,64.47168 71.63281,79.909178 h 2.39063 c 1.72916,0 2.97916,-0.10416 3.75,-0.3125 0.78124,-0.21875 1.49479,-0.61979 2.14062,-1.20312 0.92709,-0.84375 1.70834,-1.96875 2.34375,-3.375 0.63542,-1.40625 0.95313,-3.062504 0.95313,-4.968752 0,-1.625 -0.26562,-2.84375 -0.79688,-3.65625 -0.52083,-0.822917 -1.16666,-1.369792 -1.9375,-1.640626 -0.54166,-0.1875 -1.50521,-0.28125 -2.89062,-0.28125 z m -41.937498,1.03125 -5.53125,9.218748 h 6.859376 z"
          id="rect3764"/>
</svg>
