<?xml version="1.0" encoding="UTF-8" standalone="no"?>
<svg xmlns="http://www.w3.org/2000/svg"
     width="160"
     height="86"
     viewBox="-5 -2 170 86"
     version="1.1">

    <text style="font-style:italic;
                   font-weight:bold;
                   font-size:46px;
                   text-anchor:middle;
                   display:inline;
                   stroke-width:2.85"
          y="32"
          id="text"
          x="78">H.264
    </text>

    <path d="m 0,42.119141 v 40 h 160 v -40 z m 69.15625,10.123047 c 2.204861,0 3.970703,0.512803 5.298828,1.537109 1.336805,1.024306 2.222222,2.516711 2.65625,4.478516 l -3.658203,0.417969 c -0.321181,-1.07639 -0.842014,-1.888673 -1.5625,-2.435547 -0.711805,-0.546876 -1.610243,-0.820313 -2.695313,-0.820313 -1.26736,0 -2.431206,0.330512 -3.490234,0.990235 -1.059028,0.659722 -1.88737,1.678385 -2.486328,3.058593 -0.598958,1.380208 -0.898438,2.887587 -0.898438,4.519532 0,1.605902 0.364584,2.793837 1.09375,3.566406 0.729166,0.763889 1.796876,1.146484 3.203126,1.146484 0.842014,0 1.704427,-0.117188 2.589843,-0.351562 0.885417,-0.243056 1.650608,-0.529515 2.292969,-0.859375 l 0.585938,-2.837891 h -4.871094 l 0.664062,-3.191406 h 8.542969 l -1.71875,8.191406 c -1.006945,0.651041 -2.243923,1.200955 -3.710937,1.652344 -1.458334,0.451389 -2.947701,0.677734 -4.466797,0.677734 -2.361112,0 -4.171007,-0.533854 -5.429688,-1.601562 -1.71875,-1.458334 -2.578125,-3.5727 -2.578125,-6.341797 0,-1.857639 0.369575,-3.636501 1.107422,-5.337891 0.885417,-2.04861 2.143446,-3.637153 3.775391,-4.765625 1.631944,-1.128472 3.550998,-1.693359 5.755859,-1.693359 z m 37.37891,0 h 2.60351 l -9.43945,19.740234 h -2.61719 z m 44.42187,0 c 2.06597,0 3.73763,0.556857 5.01367,1.667969 1.27604,1.10243 2.02626,2.607856 2.25196,4.517578 l -3.76368,0.365234 c -0.20833,-1.111111 -0.61197,-1.915364 -1.21093,-2.410156 -0.59028,-0.503472 -1.37956,-0.753906 -2.36914,-0.753906 -1.08507,0 -2.1007,0.328559 -3.04688,0.988281 -0.93751,0.659722 -1.68772,1.693359 -2.25195,3.099609 -0.56424,1.39757 -0.84766,2.79579 -0.84766,4.19336 0,1.527777 0.36459,2.707682 1.09375,3.541015 0.73785,0.833334 1.6543,1.25 2.74805,1.25 1.01562,0 1.94509,-0.330512 2.78711,-0.990234 0.8507,-0.659722 1.48372,-1.636284 1.90039,-2.929688 l 3.95898,0.59961 c -0.77257,2.144097 -1.93143,3.784722 -3.47656,4.921875 -1.54514,1.128472 -3.35503,1.693359 -5.42969,1.693359 -2.33507,0 -4.16297,-0.703125 -5.48242,-2.109375 -1.31076,-1.40625 -1.9668,-3.447482 -1.9668,-6.121094 0,-2.170138 0.43968,-4.152344 1.31641,-5.949218 0.88542,-1.805556 2.10938,-3.185765 3.67188,-4.140625 1.5625,-0.954862 3.26323,-1.433594 5.10351,-1.433594 z M 5.761719,52.56836 h 5.599609 l 0.585938,13.373047 6.509765,-13.373047 h 5.664063 L 20.123047,71.65625 H 16.542969 L 20.306641,55.824219 12.767578,71.65625 H 9.042969 L 8.353516,55.707032 5.318359,71.65625 H 1.777344 Z m 21.453125,0 h 7.759765 c 1.380209,0 2.468968,0.164279 3.267579,0.49414 0.807291,0.321181 1.445312,0.860027 1.914062,1.615235 0.46875,0.746528 0.703125,1.639974 0.703125,2.68164 0,0.963542 -0.18533,1.901042 -0.558594,2.8125 -0.373264,0.911458 -0.833984,1.640626 -1.380859,2.1875 -0.538195,0.546876 -1.119141,0.963542 -1.744141,1.25 -0.625,0.277778 -1.468316,0.491103 -2.527343,0.638672 -0.61632,0.08681 -1.770183,0.13086 -3.462891,0.13086 h -2.513672 l -1.523437,7.277343 h -3.931641 z m 17.011718,0 h 14.154297 l -0.664062,3.189453 H 47.494141 l -0.910157,4.335937 h 9.882813 l -0.664063,3.191407 h -9.882812 l -1.199219,5.18164 H 55.828125 L 55.150391,71.65625 H 40.242188 Z m 51.675778,0 h 3.22852 l -2.51172,12.017578 h 2.31641 l -0.66407,3.177734 h -2.3164 l -0.82031,3.892578 h -3.51563 l 0.82031,-3.892578 h -7.51367 l 0.65039,-3.125 z m 19.42774,0 h 4.36328 l 3.09766,19.08789 h -3.72266 l -0.63867,-4.21875 h -7.56446 l -2.29296,4.21875 h -4.03516 z m 9.01758,0 h 3.91992 l 2.42187,14.439453 7.9043,-14.439453 h 3.89258 l -10.52149,19.08789 h -4.1914 z m -93.865238,3.138672 -1.158203,5.507812 h 1.210937 c 2.074653,0 3.457899,-0.130208 4.152344,-0.390625 0.694444,-0.260417 1.241319,-0.677083 1.640625,-1.25 0.399305,-0.572917 0.599609,-1.202908 0.599609,-1.888672 0,-0.460069 -0.104166,-0.837674 -0.3125,-1.132812 -0.199652,-0.295139 -0.486111,-0.508463 -0.859375,-0.638672 -0.364583,-0.138889 -1.184896,-0.207031 -2.460937,-0.207031 z m 86.359378,0.871093 -4.60938,7.683594 h 5.71485 z m -22.50196,2.058594 -5.03906,5.949219 h 3.80274 z m -16.466793,4.335938 h 7.253903 l -0.75586,3.605468 h -7.251949 z"
          id="rect3764"/>
</svg>
