<?xml version="1.0" encoding="UTF-8" standalone="no"?>
<svg
        xmlns:dc="http://purl.org/dc/elements/1.1/"
        xmlns:cc="http://creativecommons.org/ns#"
        xmlns:rdf="http://www.w3.org/1999/02/22-rdf-syntax-ns#"
        xmlns="http://www.w3.org/2000/svg"
        xmlns:sodipodi="http://sodipodi.sourceforge.net/DTD/sodipodi-0.dtd"
        xmlns:inkscape="http://www.inkscape.org/namespaces/inkscape"
        inkscape:version="1.0 (4035a4fb49, 2020-05-01)"
        sodipodi:docname="h264.svg"
        id="svg4"
        version="1.1"
        viewBox="-5 -2 170 86"
        height="86"
        width="160">
    <metadata
            id="metadata10">
        <rdf:RDF>
            <cc:Work
                    rdf:about="">
                <dc:format>image/svg+xml</dc:format>
                <dc:type
                        rdf:resource="http://purl.org/dc/dcmitype/StillImage"/>
            </cc:Work>
        </rdf:RDF>
    </metadata>
    <defs
            id="defs8"/>
    <sodipodi:namedview
            inkscape:current-layer="svg4"
            inkscape:window-maximized="0"
            inkscape:window-y="31"
            inkscape:window-x="53"
            inkscape:cy="43"
            inkscape:cx="80"
            inkscape:zoom="7.68125"
            showgrid="false"
            id="namedview6"
            inkscape:window-height="1157"
            inkscape:window-width="2011"
            inkscape:pageshadow="2"
            inkscape:pageopacity="0"
            guidetolerance="10"
            gridtolerance="10"
            objecttolerance="10"
            borderopacity="1"
            bordercolor="#666666"
            pagecolor="#ffffff"/>
    <g
            style="font-style:italic;font-weight:bold;font-size:46px;text-anchor:middle;display:inline;stroke-width:2.85"
            id="text"
            aria-label="H.264">
        <path
                id="path12"
                style="font-style:italic;font-weight:bold;font-size:46px;text-anchor:middle;display:inline;stroke-width:2.85"
                d="M 9.5053711,-1.5341797 H 18.152832 L 15.659668,11.246094 H 28.41748 l 2.470704,-12.7802737 h 8.647461 L 32.999512,32 H 24.352051 L 27.114746,17.782227 H 14.379395 L 11.616699,32 H 2.9692383 Z"/>
        <path
                id="path14"
                style="font-style:italic;font-weight:bold;font-size:46px;text-anchor:middle;display:inline;stroke-width:2.85"
                d="m 44.319824,23.307617 h 8.085938 L 50.721191,32 h -8.108398 z"/>
        <path
                id="path16"
                style="font-style:italic;font-weight:bold;font-size:46px;text-anchor:middle;display:inline;stroke-width:2.85"
                d="M 69.341309,25.643555 H 83.918457 L 82.683105,32 H 58.335449 l 1.257813,-6.401367 14.262695,-10.758789 q 2.335938,-1.796875 3.548828,-3.638672 1.235352,-1.841797 1.235352,-3.5712892 0,-1.8417969 -1.257813,-2.8525391 -1.257812,-1.0107421 -3.526367,-1.0107421 -2.133789,0 -4.761719,0.8535156 -2.627929,0.8310547 -5.929687,2.5830078 l 1.4375,-7.12011719 q 3.054687,-1.12304691 5.99707,-1.66210941 2.942383,-0.5615234 5.817383,-0.5615234 5.121094,0 8.063476,2.22363281 2.942383,2.20117189 2.942383,6.01953129 0,3.2792968 -1.796875,5.9746089 -1.796875,2.695313 -7.90625,7.277344 z"/>
        <path
                id="path18"
                style="font-style:italic;font-weight:bold;font-size:46px;text-anchor:middle;display:inline;stroke-width:2.85"
                d="m 106.62646,15.446289 q -2.56054,0 -4.20019,2.111328 -1.63965,2.111328 -1.63965,5.435547 0,1.999023 1.01074,3.12207 1.01075,1.100586 2.80762,1.100586 2.53809,0 4.17773,-2.066406 1.66211,-2.088867 1.66211,-5.255859 0,-2.15625 -0.98828,-3.301758 -0.98828,-1.145508 -2.83008,-1.145508 z M 120.3501,-0.65820312 119.13721,5.5410156 q -1.93164,-0.9882812 -3.75098,-1.4824219 -1.81934,-0.4941406 -3.63867,-0.4941406 -4.17774,0 -6.76074,2.2460938 -2.58301,2.2460937 -3.14453,6.3115231 1.75195,-1.145507 3.59375,-1.68457 1.86425,-0.5615234 3.95312,-0.5615234 4.13281,0 6.76074,2.4482424 2.62793,2.448242 2.62793,6.24414 0,6.199219 -4.06543,10.174805 -4.04297,3.953125 -10.42187,3.953125 -5.727542,0 -8.872073,-3.234375 -3.144531,-3.256836 -3.144531,-9.186523 0,-4.582032 1.392578,-8.737305 1.392578,-4.1777344 3.908203,-7.1875001 2.695313,-3.211914 6.356443,-4.82910153 3.6836,-1.61718747 8.26563,-1.61718747 2.11133,0 4.11035,0.359375 1.99902,0.359375 4.04297,1.07812498 z"/>
        <path
                id="path20"
                style="font-style:italic;font-weight:bold;font-size:46px;text-anchor:middle;display:inline;stroke-width:2.85"
                d="M 140.94678,5.8330078 129.02002,19.624023 h 9.20898 z m -0.22461,-7.3671875 h 9.83789 l -4.15527,21.1582027 h 4.78417 l -1.19042,6.266602 h -4.78418 L 144.02393,32 h -8.19825 l 1.21289,-6.109375 h -15.09375 l 1.45997,-7.412109 z"/>
    </g>
    <path
            id="rect3764"
            d="m 0,42.119141 v 40 h 160 v -40 z m 69.15625,10.123047 c 2.204861,0 3.970703,0.512803 5.298828,1.537109 1.336805,1.024306 2.222222,2.516711 2.65625,4.478516 l -3.658203,0.417969 c -0.321181,-1.07639 -0.842014,-1.888673 -1.5625,-2.435547 -0.711805,-0.546876 -1.610243,-0.820313 -2.695313,-0.820313 -1.26736,0 -2.431206,0.330512 -3.490234,0.990235 -1.059028,0.659722 -1.88737,1.678385 -2.486328,3.058593 -0.598958,1.380208 -0.898438,2.887587 -0.898438,4.519532 0,1.605902 0.364584,2.793837 1.09375,3.566406 0.729166,0.763889 1.796876,1.146484 3.203126,1.146484 0.842014,0 1.704427,-0.117188 2.589843,-0.351562 0.885417,-0.243056 1.650608,-0.529515 2.292969,-0.859375 l 0.585938,-2.837891 h -4.871094 l 0.664062,-3.191406 h 8.542969 l -1.71875,8.191406 c -1.006945,0.651041 -2.243923,1.200955 -3.710937,1.652344 -1.458334,0.451389 -2.947701,0.677734 -4.466797,0.677734 -2.361112,0 -4.171007,-0.533854 -5.429688,-1.601562 -1.71875,-1.458334 -2.578125,-3.5727 -2.578125,-6.341797 0,-1.857639 0.369575,-3.636501 1.107422,-5.337891 0.885417,-2.04861 2.143446,-3.637153 3.775391,-4.765625 1.631944,-1.128472 3.550998,-1.693359 5.755859,-1.693359 z m 37.37891,0 h 2.60351 l -9.43945,19.740234 h -2.61719 z m 44.42187,0 c 2.06597,0 3.73763,0.556857 5.01367,1.667969 1.27604,1.10243 2.02626,2.607856 2.25196,4.517578 l -3.76368,0.365234 c -0.20833,-1.111111 -0.61197,-1.915364 -1.21093,-2.410156 -0.59028,-0.503472 -1.37956,-0.753906 -2.36914,-0.753906 -1.08507,0 -2.1007,0.328559 -3.04688,0.988281 -0.93751,0.659722 -1.68772,1.693359 -2.25195,3.099609 -0.56424,1.39757 -0.84766,2.79579 -0.84766,4.19336 0,1.527777 0.36459,2.707682 1.09375,3.541015 0.73785,0.833334 1.6543,1.25 2.74805,1.25 1.01562,0 1.94509,-0.330512 2.78711,-0.990234 0.8507,-0.659722 1.48372,-1.636284 1.90039,-2.929688 l 3.95898,0.59961 c -0.77257,2.144097 -1.93143,3.784722 -3.47656,4.921875 -1.54514,1.128472 -3.35503,1.693359 -5.42969,1.693359 -2.33507,0 -4.16297,-0.703125 -5.48242,-2.109375 -1.31076,-1.40625 -1.9668,-3.447482 -1.9668,-6.121094 0,-2.170138 0.43968,-4.152344 1.31641,-5.949218 0.88542,-1.805556 2.10938,-3.185765 3.67188,-4.140625 1.5625,-0.954862 3.26323,-1.433594 5.10351,-1.433594 z M 5.761719,52.56836 h 5.599609 l 0.585938,13.373047 6.509765,-13.373047 h 5.664063 L 20.123047,71.65625 H 16.542969 L 20.306641,55.824219 12.767578,71.65625 H 9.042969 L 8.353516,55.707032 5.318359,71.65625 H 1.777344 Z m 21.453125,0 h 7.759765 c 1.380209,0 2.468968,0.164279 3.267579,0.49414 0.807291,0.321181 1.445312,0.860027 1.914062,1.615235 0.46875,0.746528 0.703125,1.639974 0.703125,2.68164 0,0.963542 -0.18533,1.901042 -0.558594,2.8125 -0.373264,0.911458 -0.833984,1.640626 -1.380859,2.1875 -0.538195,0.546876 -1.119141,0.963542 -1.744141,1.25 -0.625,0.277778 -1.468316,0.491103 -2.527343,0.638672 -0.61632,0.08681 -1.770183,0.13086 -3.462891,0.13086 h -2.513672 l -1.523437,7.277343 h -3.931641 z m 17.011718,0 h 14.154297 l -0.664062,3.189453 H 47.494141 l -0.910157,4.335937 h 9.882813 l -0.664063,3.191407 h -9.882812 l -1.199219,5.18164 H 55.828125 L 55.150391,71.65625 H 40.242188 Z m 51.675778,0 h 3.22852 l -2.51172,12.017578 h 2.31641 l -0.66407,3.177734 h -2.3164 l -0.82031,3.892578 h -3.51563 l 0.82031,-3.892578 h -7.51367 l 0.65039,-3.125 z m 19.42774,0 h 4.36328 l 3.09766,19.08789 h -3.72266 l -0.63867,-4.21875 h -7.56446 l -2.29296,4.21875 h -4.03516 z m 9.01758,0 h 3.91992 l 2.42187,14.439453 7.9043,-14.439453 h 3.89258 l -10.52149,19.08789 h -4.1914 z m -93.865238,3.138672 -1.158203,5.507812 h 1.210937 c 2.074653,0 3.457899,-0.130208 4.152344,-0.390625 0.694444,-0.260417 1.241319,-0.677083 1.640625,-1.25 0.399305,-0.572917 0.599609,-1.202908 0.599609,-1.888672 0,-0.460069 -0.104166,-0.837674 -0.3125,-1.132812 -0.199652,-0.295139 -0.486111,-0.508463 -0.859375,-0.638672 -0.364583,-0.138889 -1.184896,-0.207031 -2.460937,-0.207031 z m 86.359378,0.871093 -4.60938,7.683594 h 5.71485 z m -22.50196,2.058594 -5.03906,5.949219 h 3.80274 z m -16.466793,4.335938 h 7.253903 l -0.75586,3.605468 h -7.251949 z"/>
</svg>
