<?xml version="1.0" encoding="UTF-8" standalone="no"?>
<svg
        xmlns:dc="http://purl.org/dc/elements/1.1/"
        xmlns:cc="http://creativecommons.org/ns#"
        xmlns:rdf="http://www.w3.org/1999/02/22-rdf-syntax-ns#"
        xmlns="http://www.w3.org/2000/svg"
        xmlns:sodipodi="http://sodipodi.sourceforge.net/DTD/sodipodi-0.dtd"
        xmlns:inkscape="http://www.inkscape.org/namespaces/inkscape"
        inkscape:version="1.0 (4035a4fb49, 2020-05-01)"
        sodipodi:docname="h265.svg"
        id="svg705"
        version="1.1"
        viewBox="-5 -2 170 86"
        height="86"
        width="160">
    <metadata
            id="metadata711">
        <rdf:RDF>
            <cc:Work
                    rdf:about="">
                <dc:format>image/svg+xml</dc:format>
                <dc:type
                        rdf:resource="http://purl.org/dc/dcmitype/StillImage"/>
            </cc:Work>
        </rdf:RDF>
    </metadata>
    <defs
            id="defs709"/>
    <sodipodi:namedview
            inkscape:current-layer="svg705"
            inkscape:window-maximized="0"
            inkscape:window-y="31"
            inkscape:window-x="53"
            inkscape:cy="43"
            inkscape:cx="80"
            inkscape:zoom="7.68125"
            showgrid="false"
            id="namedview707"
            inkscape:window-height="1235"
            inkscape:window-width="2234"
            inkscape:pageshadow="2"
            inkscape:pageopacity="0"
            guidetolerance="10"
            gridtolerance="10"
            objecttolerance="10"
            borderopacity="1"
            bordercolor="#666666"
            pagecolor="#ffffff"/>
    <g
            style="font-style:italic;font-weight:bold;font-size:46px;text-anchor:middle;display:inline;stroke-width:2.85"
            id="text"
            aria-label="H.265">
        <path
                id="path713"
                style="font-style:italic;font-weight:bold;font-size:46px;text-anchor:middle;display:inline;stroke-width:2.85"
                d="M 9.5053711,-1.5341797 H 18.152832 L 15.659668,11.246094 H 28.41748 l 2.470704,-12.7802737 h 8.647461 L 32.999512,32 H 24.352051 L 27.114746,17.782227 H 14.379395 L 11.616699,32 H 2.9692383 Z"/>
        <path
                id="path715"
                style="font-style:italic;font-weight:bold;font-size:46px;text-anchor:middle;display:inline;stroke-width:2.85"
                d="m 44.319824,23.307617 h 8.085938 L 50.721191,32 h -8.108398 z"/>
        <path
                id="path717"
                style="font-style:italic;font-weight:bold;font-size:46px;text-anchor:middle;display:inline;stroke-width:2.85"
                d="M 69.341309,25.643555 H 83.918457 L 82.683105,32 H 58.335449 l 1.257813,-6.401367 14.262695,-10.758789 q 2.335938,-1.796875 3.548828,-3.638672 1.235352,-1.841797 1.235352,-3.5712892 0,-1.8417969 -1.257813,-2.8525391 -1.257812,-1.0107421 -3.526367,-1.0107421 -2.133789,0 -4.761719,0.8535156 -2.627929,0.8310547 -5.929687,2.5830078 l 1.4375,-7.12011719 q 3.054687,-1.12304691 5.99707,-1.66210941 2.942383,-0.5615234 5.817383,-0.5615234 5.121094,0 8.063476,2.22363281 2.942383,2.20117189 2.942383,6.01953129 0,3.2792968 -1.796875,5.9746089 -1.796875,2.695313 -7.90625,7.277344 z"/>
        <path
                id="path719"
                style="font-style:italic;font-weight:bold;font-size:46px;text-anchor:middle;display:inline;stroke-width:2.85"
                d="m 106.62646,15.446289 q -2.56054,0 -4.20019,2.111328 -1.63965,2.111328 -1.63965,5.435547 0,1.999023 1.01074,3.12207 1.01075,1.100586 2.80762,1.100586 2.53809,0 4.17773,-2.066406 1.66211,-2.088867 1.66211,-5.255859 0,-2.15625 -0.98828,-3.301758 -0.98828,-1.145508 -2.83008,-1.145508 z M 120.3501,-0.65820312 119.13721,5.5410156 q -1.93164,-0.9882812 -3.75098,-1.4824219 -1.81934,-0.4941406 -3.63867,-0.4941406 -4.17774,0 -6.76074,2.2460938 -2.58301,2.2460937 -3.14453,6.3115231 1.75195,-1.145507 3.59375,-1.68457 1.86425,-0.5615234 3.95312,-0.5615234 4.13281,0 6.76074,2.4482424 2.62793,2.448242 2.62793,6.24414 0,6.199219 -4.06543,10.174805 -4.04297,3.953125 -10.42187,3.953125 -5.727542,0 -8.872073,-3.234375 -3.144531,-3.256836 -3.144531,-9.186523 0,-4.582032 1.392578,-8.737305 1.392578,-4.1777344 3.908203,-7.1875001 2.695313,-3.211914 6.356443,-4.82910153 3.6836,-1.61718747 8.26563,-1.61718747 2.11133,0 4.11035,0.359375 1.99902,0.359375 4.04297,1.07812498 z"/>
        <path
                id="path721"
                style="font-style:italic;font-weight:bold;font-size:46px;text-anchor:middle;display:inline;stroke-width:2.85"
                d="m 130.12061,-1.5341797 h 21.49511 l -1.23535,6.3564453 h -14.59961 l -1.01074,5.1884764 q 0.98828,-0.2695311 2.04394,-0.4042967 1.07813,-0.1572265 2.15625,-0.1572265 5.14356,0 8.04102,2.3583982 2.89746,2.335938 2.89746,6.491211 0,6.603516 -4.46973,10.489258 -4.46972,3.863281 -12.1289,3.863281 -2.80762,0 -5.45801,-0.561523 -2.65039,-0.539063 -5.25586,-1.66211 l 1.3252,-6.805664 q 2.49316,1.617188 4.8291,2.38086 2.3584,0.763672 4.78418,0.763672 3.54883,0 5.68262,-1.841797 2.13378,-1.864258 2.13378,-4.874024 0,-2.15625 -1.61718,-3.414062 -1.61719,-1.280274 -4.40235,-1.280274 -1.88672,0 -4.08789,0.494141 -2.17871,0.47168 -4.78418,1.482422 z"/>
    </g>
    <path
            id="rect3764"
            d="m 0,42.119141 v 40 h 160 v -40 z m 108.34375,10.123047 c 2.06597,0 3.73763,0.556857 5.01367,1.667969 1.27605,1.10243 2.02626,2.607855 2.25196,4.517578 l -3.76172,0.365234 c -0.20834,-1.111111 -0.61199,-1.915365 -1.21094,-2.410156 -0.59029,-0.503472 -1.38151,-0.753906 -2.3711,-0.753906 -1.08506,0 -2.10069,0.328559 -3.04687,0.988281 -0.9375,0.659722 -1.68772,1.693359 -2.25195,3.099609 -0.56424,1.39757 -0.84571,2.79579 -0.84571,4.19336 0,1.527778 0.36459,2.707682 1.09375,3.541015 0.73785,0.833334 1.65235,1.25 2.7461,1.25 1.01562,0 1.94509,-0.330512 2.78711,-0.990234 0.85069,-0.659723 1.48372,-1.636285 1.90039,-2.929688 l 3.95898,0.59961 c -0.77256,2.144097 -1.93142,3.784722 -3.47656,4.921875 -1.54514,1.128472 -3.35503,1.693359 -5.42969,1.693359 -2.33506,0 -4.16297,-0.703125 -5.48242,-2.109375 -1.31076,-1.40625 -1.96484,-3.447482 -1.96484,-6.121094 0,-2.170138 0.43772,-4.152343 1.31445,-5.949218 0.88543,-1.805556 2.10937,-3.185765 3.67187,-4.140625 1.5625,-0.954862 3.26325,-1.433594 5.10352,-1.433594 z M 48.386719,52.56836 h 3.919922 l -1.53711,7.36914 h 7.382813 l 1.550781,-7.36914 h 3.917969 l -3.984375,19.08789 h -3.931641 l 1.783203,-8.527343 h -7.382812 l -1.783203,8.527343 h -3.931641 z m 18.392578,0 H 80.93359 l -0.66406,3.189453 H 70.048828 l -0.912109,4.335937 h 9.882812 l -0.664062,3.191407 h -9.882813 l -1.197265,5.18164 H 78.380859 L 77.705078,71.65625 H 62.794922 Z m 14.957033,0 h 3.91797 l 2.42187,14.439453 7.9043,-14.439453 h 3.89258 L 89.35352,71.65625 h -4.19336 z"/>
</svg>
