<?xml version="1.0" encoding="UTF-8" standalone="no"?>
<svg xmlns="http://www.w3.org/2000/svg"
     width="160"
     height="86"
     viewBox="-5 -2 170 86"
     version="1.1">

    <text style="font-style:italic;
                 font-weight:bold;
                 font-size:46px;
                 text-anchor:middle;
                 display:inline;
                 stroke-width:2.85"
          y="32"
          id="text"
          x="78">H.265
    </text>
    <path d="m 0,42.119141 v 40 h 160 v -40 z m 108.34375,10.123047 c 2.06597,0 3.73763,0.556857 5.01367,1.667969 1.27605,1.10243 2.02626,2.607855 2.25196,4.517578 l -3.76172,0.365234 c -0.20834,-1.111111 -0.61199,-1.915365 -1.21094,-2.410156 -0.59029,-0.503472 -1.38151,-0.753906 -2.3711,-0.753906 -1.08506,0 -2.10069,0.328559 -3.04687,0.988281 -0.9375,0.659722 -1.68772,1.693359 -2.25195,3.099609 -0.56424,1.39757 -0.84571,2.79579 -0.84571,4.19336 0,1.527778 0.36459,2.707682 1.09375,3.541015 0.73785,0.833334 1.65235,1.25 2.7461,1.25 1.01562,0 1.94509,-0.330512 2.78711,-0.990234 0.85069,-0.659723 1.48372,-1.636285 1.90039,-2.929688 l 3.95898,0.59961 c -0.77256,2.144097 -1.93142,3.784722 -3.47656,4.921875 -1.54514,1.128472 -3.35503,1.693359 -5.42969,1.693359 -2.33506,0 -4.16297,-0.703125 -5.48242,-2.109375 -1.31076,-1.40625 -1.96484,-3.447482 -1.96484,-6.121094 0,-2.170138 0.43772,-4.152343 1.31445,-5.949218 0.88543,-1.805556 2.10937,-3.185765 3.67187,-4.140625 1.5625,-0.954862 3.26325,-1.433594 5.10352,-1.433594 z M 48.386719,52.56836 h 3.919922 l -1.53711,7.36914 h 7.382813 l 1.550781,-7.36914 h 3.917969 l -3.984375,19.08789 h -3.931641 l 1.783203,-8.527343 h -7.382812 l -1.783203,8.527343 h -3.931641 z m 18.392578,0 H 80.93359 l -0.66406,3.189453 H 70.048828 l -0.912109,4.335937 h 9.882812 l -0.664062,3.191407 h -9.882813 l -1.197265,5.18164 H 78.380859 L 77.705078,71.65625 H 62.794922 Z m 14.957033,0 h 3.91797 l 2.42187,14.439453 7.9043,-14.439453 h 3.89258 L 89.35352,71.65625 h -4.19336 z"
          id="rect3764"/>
</svg>
