<?xml version="1.0" encoding="UTF-8" standalone="no"?>
<svg xmlns="http://www.w3.org/2000/svg"
     width="4540"
     height="4470"
     version="1.1"
     viewBox="-40 -100 4620 4670"
     id="svg875">
    <g id="Layer_x0020_1"
       transform="translate(-49,-58)">
        <path id="path10"
              d="m 4506,3738 -308,-309 c -6,-6 -8,-13 -8,-21 0,-5 2,-11 4,-15 190,-327 299,-707 299,-1113 C 4493,1053 3498,58 2271,58 1044,58 49,1053 49,2280 c 0,1227 995,2222 2222,2222 440,0 850,-128 1194,-348 5,-3 11,-5 17,-5 9,0 16,3 22,8 l 309,309 c 24,25 72,45 107,45 h 569 c 34,0 62,-28 62,-63 v -602 c 0,-34 -20,-82 -44,-107 M 3609,2261 c 0,739 -599,1337 -1337,1337 -738,0 -1338,-599 -1338,-1337 0,-739 599,-1338 1338,-1338 306,0 587,103 813,276 l 396,-396 256,257 -397,397 c 169,224 268,502 268,804 m -524,-1062 -739,739 c -24,-6 -49,-8 -74,-8 -182,0 -329,147 -329,329 0,182 148,330 329,330 182,0 329,-148 329,-330 0,-19 -2,-38 -5,-57 l 745,-745 c -73,-97 -159,-184 -255,-258 m -814,1195 c -75,0 -135,-61 -135,-136 0,-75 60,-135 135,-135 75,0 135,61 135,135 0,75 -61,136 -135,136 z"/>
    </g>
</svg>
