<?xml version="1.0" encoding="UTF-8" standalone="no"?>
<svg xmlns="http://www.w3.org/2000/svg"
     width="450"
     height="340"
     viewBox="-10 -20 470 340"
     version="1.1"
     id="svg840">

    <g id="layer1"
       transform="translate(192.43183,69.578822)">
        <path d="m -137.01631,229.50783 c -5.6874,-0.60851 -5.95124,-0.66389 -11.50938,-2.41591 -5.29027,-1.66756 -6.06557,-1.99686 -11.0738,-4.70352 -4.94343,-2.67163 -5.76227,-3.22215 -9.98031,-6.70984 -4.09802,-3.38846 -5.00546,-4.29665 -8.38951,-8.39636 -3.44895,-4.17836 -4.06025,-5.08524 -6.71306,-9.95892 -2.77814,-5.10397 -3.00456,-5.64088 -4.70567,-11.15876 -1.76232,-5.71639 -1.79582,-5.88151 -2.41545,-11.90625 l -0.62834,-6.10946 0.002,-87.841665 0.002,-87.8416676 0.618,-6.0854164 c 0.61012,-6.007997 0.64076,-6.159471 2.40807,-11.906251 1.70646,-5.548892 1.92616,-6.070978 4.7027,-11.175124 2.64067,-4.854382 3.26792,-5.786197 6.71824,-9.980254 3.43759,-4.178595 4.253,-4.994003 8.4316,-8.431598 4.2017,-3.456604 5.11702,-4.072268 9.98025,-6.712917 5.08432,-2.760696 5.64658,-2.997405 11.15108,-4.694571 5.71668,-1.762587 5.88121,-1.795968 11.90625,-2.415626 l 6.10946,-0.628342 162.718748,-0.0071 162.718752,-0.0071 6.35,0.658103 6.35,0.658104 5.82083,1.828026 c 5.50635,1.729259 6.1046,1.983855 11.07273,4.712217 4.56055,2.504529 5.82687,3.352701 9.62001,6.443336 3.91089,3.18661 4.78862,4.063528 8.38547,8.377952 3.80283,4.561521 4.17478,5.112463 6.96645,10.318751 2.74778,5.12445 3.06925,5.885109 4.7085,11.141618 1.73794,5.572982 1.76705,5.716338 2.39003,11.773958 l 0.63067,6.1322824 0.007,87.7420626 0.007,87.742062 -0.64878,6.24232 c -0.64074,6.16463 -0.67062,6.31241 -2.40057,11.87357 -1.63496,5.25577 -1.94842,5.99777 -4.70143,11.12854 -2.75672,5.13765 -3.20389,5.80409 -6.83543,10.18646 -3.50531,4.23005 -4.32988,5.05182 -8.42203,8.39332 -4.0599,3.31518 -5.09892,4.00982 -9.89389,6.61459 -5.05026,2.74346 -5.68761,3.01326 -11.11112,4.70328 -5.69407,1.77433 -5.818,1.79965 -11.98586,2.4474 l -6.23242,0.65452 -163.15461,-0.0315 -163.15461,-0.0315 z m 336.68228,-24.9591 5.42396,-0.7612 4.23334,-1.79544 c 3.69353,-1.56649 4.63819,-2.10087 7.40833,-4.19071 3.93652,-2.96978 5.20282,-4.23379 8.1557,-8.14095 2.01628,-2.66787 2.58776,-3.67842 4.18798,-7.40574 l 1.85312,-4.31629 0.77282,-5.55625 0.77285,-5.55625 -0.007,-86.651047 -0.007,-86.6510423 -0.73221,-5.3155877 -0.73223,-5.31559 -1.84044,-4.395116 c -1.73818,-4.150839 -2.00269,-4.605332 -4.75928,-8.177379 -2.69173,-3.488047 -3.22185,-4.019016 -6.81479,-6.825755 -3.70012,-2.890483 -4.11205,-3.134818 -8.19369,-4.860137 l -4.29771,-1.816647 -5.42396,-0.757312 -5.42396,-0.757311 H 32.449336 -129.34337 l -5.42396,0.756031 -5.42396,0.756031 -4.30018,1.817927 c -4.02113,1.699954 -4.5501,2.009998 -8.15105,4.77759 -3.58705,2.75691 -4.0498,3.21786 -6.75501,6.728714 -3.03372,3.937209 -3.10794,4.069744 -5.39054,9.626208 -1.35577,3.30032 -1.44083,3.653835 -2.10083,8.73125 l -0.68784,5.291667 0.006,86.651043 0.006,86.651043 0.7539,5.42396 0.7539,5.42396 1.86823,4.36562 c 1.74934,4.08782 2.05715,4.60976 4.83716,8.20208 2.78616,3.60029 3.20427,4.01524 6.7919,6.74056 3.51225,2.66805 4.1702,3.05194 8.09539,4.7231 4.24468,1.80721 4.30595,1.82385 9.43181,2.55894 l 5.15937,0.73994 162.057293,0.0206 162.057287,0.0206 5.42396,-0.76123 z m -319.91782,-24.86214 c -3.09827,-0.69714 -5.65325,-2.46401 -7.40899,-5.12358 -1.13195,-1.71467 -1.43532,-2.44428 -1.84323,-4.43304 -0.47781,-2.32949 -0.47731,-2.43386 0.023,-4.8653 0.441,-2.14324 0.70002,-2.76017 1.88469,-4.4888 1.10237,-1.60854 1.77047,-2.26328 3.3851,-3.31742 3.37857,-2.20574 2.43255,-2.1419 31.740371,-2.14214 29.385712,-2.3e-4 28.338139,-0.0737 31.769684,2.22894 1.560253,1.04698 2.30346,1.7807 3.370556,3.32752 1.199489,1.73874 1.426194,2.28533 1.83142,4.41564 0.408686,2.14849 0.421306,2.65624 0.108518,4.36562 -0.465603,2.54451 -0.619177,2.93017 -2.003673,5.03171 -0.90937,1.38033 -1.63022,2.0899 -3.197566,3.14754 -3.625901,2.44673 -2.401676,2.35781 -32.093202,2.33106 -23.139058,-0.0208 -25.736088,-0.0659 -27.566648,-0.47775 z M -5.1215228,167.75194 V 155.31652 H 19.739928 c 23.464829,0 25.009266,-0.0286 27.4927,-0.51007 2.362732,-0.45801 2.836617,-0.65284 4.643673,-1.90911 1.590509,-1.10573 2.286791,-1.81699 3.321071,-3.39254 2.048166,-3.12002 2.122771,-3.73056 2.122771,-17.37223 0,-10.75226 -0.134218,-12.81864 -0.673214,-10.36462 -0.101616,0.46266 -0.788061,1.74854 -1.525434,2.85752 -1.086876,1.6346 -1.719421,2.26739 -3.341327,3.34261 -3.057708,2.02706 -3.980966,2.14318 -18.6694,2.34812 l -12.170833,0.16981 -5.55625,-0.80837 -5.5562497,-0.80836 -4.3656249,-1.84002 c -4.0502469,-1.7071 -4.63714299,-2.04677 -8.1241184,-4.7019 -3.5057133,-2.6694 -3.9583889,-3.1199 -6.7307221,-6.69834 -2.8152779,-3.63387 -3.0732549,-4.07418 -4.8853219,-8.33812 l -1.913094,-4.50166 -0.674865,-4.984744 -0.674864,-4.984742 0.657592,-4.933389 c 0.656373,-4.924251 0.661078,-4.941763 2.540051,-9.456018 1.80341,-4.332716 2.006354,-4.682342 4.8329554,-8.326049 2.7136355,-3.498082 3.2558328,-4.04028 6.7539155,-6.753915 3.63761596,-2.821877 4.000574,-3.032829 8.3260484,-4.839108 4.171778,-1.742093 4.8202537,-1.933202 8.3590897,-2.463459 3.468301,-0.519689 5.134999,-0.584033 17.368168,-0.670517 12.576918,-0.08891 13.709094,-0.05943 16.045688,0.417909 2.145538,0.438304 2.80149,0.707581 4.475718,1.837338 1.600927,1.080294 2.209763,1.705676 3.310262,3.400224 0.741691,1.142053 1.428668,2.463411 1.526617,2.936354 0.41991,2.027492 0.665213,0.588367 0.665213,-3.902604 v -4.7625 h 12.567708 12.567708 v 49.86911 49.86911 l -0.648414,3.95108 c -0.629285,3.83449 -0.702813,4.0591 -2.492296,7.61162 -1.741408,3.4571 -1.988449,3.80192 -4.444814,6.20452 -2.308649,2.25809 -2.986821,2.74425 -6.034688,4.3261 -3.274635,1.69954 -3.605671,1.81143 -7.14375,2.41442 l -3.709996,0.63229 -31.551562,0.003 -31.5515618,0.003 z M 47.381967,104.77601 c 1.910731,-0.42239 2.758041,-0.78088 4.411633,-1.86649 1.704798,-1.11923 2.267744,-1.68285 3.370041,-3.374075 1.104027,-1.69387 1.399672,-2.420493 1.783818,-4.384159 0.435843,-2.227942 0.43624,-2.480111 0.0074,-4.716981 -0.386718,-2.017331 -0.652145,-2.662679 -1.81355,-4.409374 -1.816192,-2.73146 -4.407278,-4.52827 -7.432029,-5.153803 -3.07716,-0.63637 -27.411627,-0.649719 -30.452832,-0.01669 -3.058123,0.636535 -5.630003,2.396937 -7.4738125,5.115682 -1.1631533,1.7151 -1.4312503,2.355247 -1.8275459,4.36373 -0.4412006,2.236063 -0.4415631,2.474236 -0.00725,4.7625 0.6268905,3.303014 2.2702854,5.87905 4.8610224,7.61967 2.423276,1.62812 2.269215,1.55766 4.531355,2.07245 1.748652,0.39795 3.692871,0.46135 14.844484,0.48414 11.863313,0.0242 13.010872,-0.0132 15.197241,-0.49658 z m 72.644423,62.97593 v -12.43542 h 24.72915 c 23.36877,0 24.87451,-0.0282 27.37109,-0.51214 2.32789,-0.45125 2.87883,-0.67199 4.63479,-1.85689 2.66179,-1.79616 4.39719,-4.28296 4.99967,-7.16439 0.55901,-2.67354 0.94073,-25.24901 0.424,-25.07677 -0.18048,0.0602 -0.47086,0.57948 -0.6453,1.15406 -0.17444,0.57457 -0.85696,1.85859 -1.51672,2.85337 -0.94655,1.42717 -1.63841,2.1013 -3.27991,3.19585 -3.13343,2.08937 -3.97952,2.19883 -18.61677,2.40866 l -12.03854,0.17257 -5.68854,-0.80545 -5.68854,-0.80545 -4.49792,-1.93635 c -3.99875,-1.72146 -4.83558,-2.1976 -7.54062,-4.29046 -4.11319,-3.18233 -4.39069,-3.4602 -7.48631,-7.4964 -2.45375,-3.19927 -2.86734,-3.91179 -4.53229,-7.80798 -1.81866,-4.25588 -1.83742,-4.32444 -2.54788,-9.314521 l -0.71575,-5.027084 0.65444,-5.027083 0.65448,-5.027084 1.96527,-4.630208 c 1.86338,-4.39017 2.11434,-4.822264 4.84084,-8.334894 2.63343,-3.392731 3.19548,-3.952115 6.67502,-6.6431 3.61206,-2.793473 4.02132,-3.031469 8.29738,-4.824973 4.48104,-1.879484 4.51628,-1.889049 9.39271,-2.550171 4.65201,-0.630698 5.51818,-0.663527 17.4625,-0.661887 15.21124,0.0021 16.08238,0.107183 19.39023,2.339303 1.60081,1.080214 2.30256,1.776341 3.3107,3.284183 0.70361,1.052378 1.39216,2.320803 1.53012,2.818725 0.13795,0.497922 0.39788,0.954329 0.57761,1.014238 0.25127,0.08376 0.32676,-0.996484 0.32676,-4.675626 V 55.30402 h 12.43541 12.43542 l -0.003,50.20469 -0.003,50.20469 -0.64032,3.7573 c -0.62066,3.64194 -0.69744,3.86535 -2.50079,7.27604 -1.68709,3.19085 -2.10179,3.75713 -4.45037,6.077 -2.29267,2.26466 -2.97484,2.75959 -5.94418,4.31261 -3.21249,1.6802 -3.51446,1.78166 -7.14375,2.40014 l -3.78947,0.64578 -31.41927,0.003 -31.41927,0.003 v -12.43542 z m 52.24635,-62.96901 c 3.39976,-0.69953 5.74204,-2.24302 7.73459,-5.096868 1.16797,-1.672823 1.40784,-2.247688 1.84978,-4.432795 0.49419,-2.44348 0.49495,-2.574094 0.0292,-4.878147 -0.39653,-1.961573 -0.70363,-2.710002 -1.79131,-4.365625 -1.07677,-1.639059 -1.68291,-2.244389 -3.37243,-3.368079 -3.23474,-2.151407 -3.67882,-2.20194 -19.35207,-2.202186 -15.73059,-2.46e-4 -16.23137,0.05691 -19.34112,2.207551 -2.85518,1.974586 -4.5148,4.470178 -5.15102,7.745611 -0.43836,2.256841 -0.43899,2.510806 -0.0119,4.748517 0.39295,2.058887 0.63592,2.637462 1.88166,4.48082 1.17118,1.732981 1.78678,2.348811 3.39609,3.397351 3.28239,2.13862 4.03669,2.22863 18.96088,2.26254 11.62339,0.0264 12.80428,-0.0124 15.16767,-0.49869 z m -283.0953,24.72767 c -4.04975,-0.57944 -4.42588,-0.68673 -8.67317,-2.47395 -4.21871,-1.77518 -4.62722,-2.01423 -8.20208,-4.79951 -3.40908,-2.65611 -4.0388,-3.28486 -6.70823,-6.69783 -2.80574,-3.58725 -3.03543,-3.97852 -4.82486,-8.21895 -1.85637,-4.39904 -1.88686,-4.50964 -2.54413,-9.229738 l -0.66524,-4.777346 V 55.30112 17.288961 l 0.65743,-4.712639 c 0.64636,-4.6333068 0.68906,-4.7880749 2.53641,-9.1938451 1.80729,-4.3102478 1.99468,-4.629203 4.91193,-8.360561 2.81698,-3.6030985 3.30052,-4.0830659 6.79016,-6.7399699 3.47007,-2.64201 4.09081,-3.002227 8.12282,-4.713732 4.3339,-1.83965 4.40024,-1.85779 9.12812,-2.495806 4.49793,-0.606984 5.48482,-0.642763 17.764922,-0.644081 12.312253,-0.0013 13.25477,0.03287 17.756598,0.644094 4.713041,0.639903 4.792839,0.661765 9.222581,2.526863 4.219249,1.776474 4.677717,2.043068 8.22235,4.781193 3.482898,2.6904372 3.971544,3.1814059 6.767547,6.7996995 2.890033,3.739978 3.090307,4.08430943 4.884481,8.397801 l 1.870887,4.4979167 0.695629,5.2916668 0.695632,5.291667 -0.07579,37.703125 -0.07579,37.703125 -0.620009,4.233334 c -0.591024,4.035418 -0.709806,4.448408 -2.540741,8.833878 -1.847204,4.42443 -2.033714,4.74568 -4.872074,8.39181 -2.629242,3.3775 -3.319055,4.07609 -6.320655,6.40109 -4.385498,3.39695 -4.029948,3.18868 -8.925563,5.22818 -4.114744,1.71418 -4.36304,1.78125 -8.863541,2.39436 -4.411615,0.601 -5.273495,0.6293 -18.25625,0.59948 -12.693814,-0.0292 -13.915674,-0.0727 -17.859374,-0.63701 z m 33.318484,-24.734 c 3.456678,-0.76416 5.748279,-2.30953 7.644069,-5.154871 2.443908,-3.668007 2.297229,-0.838298 2.297229,-44.317709 0,-43.152378 0.11776,-40.717659 -2.130716,-44.053126 -1.382361,-2.0506423 -1.831933,-2.4954281 -3.955111,-3.9129809 -1.126646,-0.7522131 -2.044234,-1.0922106 -4.064021,-1.5058602 -2.393826,-0.4902544 -3.607787,-0.5342837 -14.731071,-0.5342837 -11.052243,0 -12.359313,0.046723 -14.807843,0.5293333 -2.3983,0.4727126 -2.89262,0.6738911 -4.62106,1.8806848 -1.398,0.9760824 -2.30213,1.8764939 -3.25582,3.2424287 -1.16921,1.674604 -1.3845,2.205575 -1.88069,4.638448 -0.55493,2.720922 -0.56033,3.103253 -0.56033,39.715356 0,36.572127 0.006,36.997304 0.55842,39.70595 0.4857,2.381445 0.72749,2.988527 1.85689,4.662233 1.78168,2.640337 4.3155,4.372107 7.42889,5.077367 1.97368,0.44709 3.48479,0.4997 15.026635,0.52316 11.858167,0.0241 13.011613,-0.0135 15.194529,-0.49613 z M 80.868059,29.87274 C 73.439671,29.022187 68.121408,24.831407 66.872945,18.844642 c -0.160811,-0.771146 -0.292386,-2.461926 -0.292386,-3.757289 0,-2.893203 0.353341,-4.668277 1.350418,-6.7840706 2.619327,-5.5581974 9.334833,-8.69692569 17.567291,-8.21069031 5.047482,0.29811927 8.182027,1.57080481 11.13692,4.52178481 2.96082,2.956904 4.076622,5.8270221 4.076622,10.4859981 v 2.368228 H 88.784525 76.857267 l 0.176398,0.859895 c 0.792718,3.864132 3.59791,5.6109 8.993769,5.600341 3.885724,-0.0076 7.626694,-0.859385 11.71485,-2.667365 0.768403,-0.339829 1.456717,-0.617871 1.52953,-0.617871 0.07284,0 0.09922,1.57286 0.05861,3.495246 l -0.07382,3.495246 -1.5875,0.488138 c -2.633107,0.809652 -6.220619,1.472531 -9.549924,1.764581 -3.544332,0.310914 -4.427775,0.3092 -7.251118,-0.01408 z M 90.242035,11.184748 C 89.863522,9.4750876 89.539275,8.7764103 88.749547,7.9686506 87.564505,6.7565679 86.556469,6.3057761 84.697374,6.1565458 81.552431,5.9040989 78.851141,7.2587974 77.725841,9.6527474 76.602235,12.04311 76.251715,11.912353 83.783529,11.912353 h 6.619611 z m 29.916645,18.706011 c -7.27728,-0.97249 -12.35821,-5.099823 -13.59823,-11.046117 -0.42646,-2.044935 -0.36145,-6.191236 0.12676,-8.084724 1.29273,-5.0139341 5.31582,-8.6801569 11.13809,-10.15014222 2.7329,-0.68998572 9.55304,-0.61006567298 12.33477,0.14454452 5.55249,1.5062624 9.34399,5.0804895 10.61384,10.0055977 0.54776,2.124516 0.54901,6.522563 0.003,8.65487 -1.26487,4.934622 -5.16578,8.528664 -10.81058,9.960131 -2.46539,0.625202 -7.14629,0.871413 -9.8071,0.51584 z m 6.93,-7.08622 c 1.27124,-0.651642 2.20726,-1.774698 2.90364,-3.483853 0.37886,-0.92982 0.48384,-1.886106 0.47935,-4.365625 -0.005,-2.762274 -0.0873,-3.357065 -0.63286,-4.575572 -0.7229,-1.6146304 -2.21406,-3.0096725 -3.68954,-3.4517383 -1.71222,-0.5129901 -3.97356,-0.3796771 -5.46142,0.3219609 -1.60195,0.755441 -2.29603,1.4752558 -3.09594,3.2107294 -0.53197,1.154184 -0.60812,1.734241 -0.60733,4.626912 0,3.065097 0.0538,3.415001 0.7229,4.778121 0.88717,1.80721 1.60274,2.501048 3.2744,3.174883 1.70511,0.687322 4.51779,0.578708 6.1068,-0.235818 z m 56.95381,7.097491 c -2.74797,-0.431025 -4.48194,-1.271516 -6.22544,-3.017565 -1.91944,-1.922238 -2.49274,-3.331017 -2.49274,-6.125319 0,-3.733345 1.4887,-6.263465 4.57798,-7.780441 2.70965,-1.330555 4.68717,-1.6414 11.36316,-1.786175 l 6.01927,-0.13053 v -0.858612 c 0,-1.1336474 -0.96845,-2.544157 -2.14257,-3.1205809 C 192.0219,5.5509543 184.16163,5.919876 179.49192,7.8173487 l -1.52178,0.6183497 V 5.0302648 c 0,-1.8729881 0.10967,-3.4732119 0.24371,-3.5560529 0.13404,-0.082844 1.83068,-0.4070641 3.77031,-0.72049485 4.83232,-0.7808648 12.85402,-0.84434628 15.96202,-0.12631737 3.00027,0.69313952 5.10818,1.76434492 6.59072,3.34932342 2.72367,2.911811 3.05607,4.6852417 3.06197,16.3361499 l 0.005,9.06198 h -5.15937 -5.15938 v -2.117429 -2.117429 l -0.94001,1.040474 c -1.24753,1.380877 -3.20886,2.61207 -5.09749,3.199874 -1.88883,0.587872 -5.23711,0.830318 -7.20473,0.521687 z m 9.83213,-6.786462 c 2.11748,-1.152483 3.37454,-3.228449 3.39849,-5.612432 l 0.0116,-1.156089 -4.16719,0.107048 c -3.6876,0.09473 -4.31265,0.177612 -5.43118,0.720167 -2.57259,1.247883 -2.88525,4.50206 -0.57777,6.013968 1.67114,1.094968 4.68008,1.062652 6.76603,-0.07266 z M -3.2694395,14.029019 V -1.3168142 h -7.1510155 -7.151013 l 0.07341,-3.7703126 0.07341,-3.7703125 19.0500001,-0.072914 c 10.4774999,-0.040103 19.3212299,-0.00722 19.6527339,0.073049 0.595482,0.1442085 0.601848,0.1896533 0.529167,3.7770806 l -0.07357,3.6311179 -7.077604,0.070466 -7.077604,0.070469 V 14.03334 29.374853 H 2.1545188 -3.2694395 Z M 27.157643,9.3929715 V -10.588907 l 4.960938,0.07198 4.960937,0.07199 0.07021,7.6130306 0.07021,7.613031 1.649576,-1.3745263 c 2.970287,-2.47502104 6.400594,-3.59639401 10.195145,-3.33280815 4.705456,0.32685832 7.728688,2.41880495 9.353484,6.47220315 0.599929,1.4966554 0.61514,1.761326 0.699973,12.1793817 l 0.08672,10.64948 h -5.163505 -5.163502 l -0.07832,-9.723438 C 48.730109,11.036013 48.669152,9.8328995 48.264577,9.0936246 46.758471,6.3415319 41.922301,6.2267636 39.437993,8.8841619 37.517838,10.938096 37.385684,11.683768 37.271839,21.106624 l -0.0999,8.268229 h -5.00715 -5.00715 z M 148.86597,15.087353 V 0.79985245 h 5.02709 5.02708 V 3.0439107 5.287969 l 1.67402,-1.6740267 c 2.49304,-2.4930338 5.28455,-3.61238276 8.98848,-3.6042283 3.01934,0.00664104 2.83125,-0.2820035 2.83125,4.3447494 V 8.376527 l -1.78594,-0.4657937 c -4.7018,-1.2262829 -8.73731,-0.015425 -10.4527,3.1363047 -1.02553,1.88423 -1.2509,3.955137 -1.2531,11.514794 l -0.002,6.813021 h -5.02708 -5.02709 z"
              id="path1428"/>
    </g>
</svg>
