<?xml version="1.0" encoding="UTF-8" standalone="no"?>
<svg xmlns="http://www.w3.org/2000/svg"
     version="1.1"
     id="svg3726"
     width="1974"
     height="686"
     viewBox="-20 -30 2000 746">

    <path d="m 1310.3373,684.33637 c -24.819,-4.589 -41.595,-20.954 -47.034,-45.885 -2.625,-12.031 -1.7,-32.404 1.959,-43.141 3.943,-11.571 7.24,-17.118 14.575,-24.527 22.944,-23.172 66.582,-23.919 90.74,-1.553 13.812,12.787 15.69,27.964 4.189,33.829 -1.887,0.961 -5.181,1.749 -7.322,1.75 -4.187,0.002 -5.573,-1.193 -18.517,-15.952 -7.708,-8.79 -11.438,-10.53 -22.591,-10.539 -8.103,-0.007 -9.53,0.286 -14.323,2.941 -12.445,6.895 -19.204,23.324 -17.89,43.491 1.422,21.819 12.53,35.599 29.688,36.826 13.379,0.957 23.671,-4.838 31.51,-17.741 5.043,-8.301 9.563,-12.025 14.6,-12.025 5.236,0 9.22,2.139 11.819,6.344 6.09,9.854 -1.347,26.241 -16.732,36.87 -13.014,8.992 -35.6,12.838 -54.671,9.312 z"
          id="path1623"/>

    <path d="m 1455.3373,684.40237 c -24.304,-4.744 -41.758,-21.254 -48.199,-45.591 -2.354,-8.893 -2.356,-29.09 -0.01,-38 6.109,-23.15 21.458,-38.849 43.705,-44.702 8.001,-2.105 28.045,-2.339 36,-0.42 10.498,2.532 21.923,8.836 29.037,16.021 12.295,12.416 17.963,27.595 17.963,48.102 0,14 -2.171,23.688 -7.685,34.301 -7.206,13.868 -21.59,25.148 -37.207,29.179 -8.792,2.267 -24.944,2.801 -33.608,1.11 z m 24.173,-24.086 c 13.586,-4.034 22.302,-19.674 22.295,-40.005 -0.01,-26.681 -12.358,-42.618 -32.898,-42.456 -10.364,0.082 -18.02,4.272 -23.991,13.132 -5.626,8.346 -7.438,16.866 -6.83,32.121 0.542,13.603 1.866,18.389 7.255,26.203 7.537,10.934 20.428,15.086 34.169,11.005 z"
          id="path1625"/>

    <path d="m 1595.9453,684.79637 c -11.799,-2.496 -24.697,-11.733 -31.82,-22.788 -7.325,-11.368 -11.288,-26.701 -11.288,-43.675 0,-14.124 2.245,-25.187 7.207,-35.522 9.502,-19.791 27.911,-30.164 50.806,-28.627 13.758,0.924 23.601,5.28 33.654,14.896 l 4.166,3.984 0.334,-27.876 c 0.305,-25.513 0.503,-28.21 2.333,-31.812 2.602,-5.119 6.209,-7.664 11.745,-8.288 5.823,-0.656 11.005,1.78 13.989,6.58 l 2.266,3.644 0.313,76.5 c 0.221,53.938 -0.019,78.034 -0.811,81.7 -2.604,12.056 -17.686,16.407 -25.34,7.312 -2.214,-2.632 -4.663,-10.357 -4.663,-14.713 0,-1.021 -2.088,0.389 -5.75,3.88 -7.04,6.714 -12.788,10.419 -20.144,12.982 -6.455,2.251 -20.493,3.199 -26.997,1.823 z m 29.279,-25.4 c 9.271,-2.79 16.854,-11.452 20.208,-23.085 2.357,-8.174 2.343,-24.916 -0.028,-32.987 -5.8,-19.733 -22.062,-29.651 -39.103,-23.845 -5.88,2.003 -13.087,8.842 -16.28,15.448 -6.669,13.795 -6.721,34.984 -0.119,48.581 6.806,14.019 20.727,20.28 35.322,15.888 z"
          id="path1627"/>

    <path d="m 1758.7073,684.80937 c -3.097,-0.493 -8.497,-1.853 -12,-3.022 -17.457,-5.826 -30.67,-19.362 -36.505,-37.396 -3.462,-10.7 -4.409,-30.237 -2.024,-41.771 5.265,-25.454 20.715,-42.021 44.659,-47.89 7.15,-1.752 26.96,-1.787 34,-0.061 25.071,6.147 43.062,28.376 42.979,53.102 -0.029,8.575 -2.485,14.104 -7.277,16.378 -6.563,3.115 -13.812,3.662 -48.477,3.662 h -34.502 l 0.539,5.941 c 1.139,12.56 9.354,23.885 20.332,28.026 4.792,1.808 7.356,2.147 13.592,1.8 9.956,-0.556 17.578,-4.222 28.583,-13.747 9.033,-7.818 12.019,-9.342 16.605,-8.472 8.268,1.568 10.899,9.091 6.433,18.386 -4.786,9.959 -18.623,19.766 -33.307,23.604 -7.228,1.89 -25.843,2.698 -33.63,1.46 z m 39.561,-80.748 c -1.706,-11.721 -7.543,-21.126 -15.862,-25.565 -3.304,-1.763 -5.758,-2.171 -13.068,-2.177 -8.023,-0.007 -9.507,0.291 -13.676,2.741 -8.269,4.861 -13.963,14.189 -15.498,25.392 l -0.598,4.359 h 29.697 29.697 z"
          id="path1629"/>

    <path d="m 1904.8373,685.24337 c -16.807,-2.925 -25.629,-6.956 -34.98,-15.984 -12.557,-12.122 -18.16,-26.86 -18.229,-47.948 -0.072,-22.109 5.91,-38.517 18.596,-51.003 12.392,-12.196 24.998,-16.863 45.614,-16.885 19.906,-0.021 33.772,5.11 45.55,16.855 12.74,12.707 14.247,26.905 3.466,32.67 -7.199,3.849 -13.914,1.787 -19.177,-5.889 -4.976,-7.257 -11.852,-14.215 -16.284,-16.477 -4.985,-2.543 -14.785,-3.399 -21.188,-1.851 -9.597,2.32 -18.517,11.46 -21.994,22.533 -0.871,2.774 -1.807,9.771 -2.077,15.545 -1.252,26.65 9.845,43.333 29.78,44.771 13.713,0.988 22.021,-3.861 31.643,-18.47 5.888,-8.94 8.984,-11.301 14.828,-11.301 7.295,0 13.454,6.604 13.454,14.423 0,11.168 -10.523,24.803 -24.379,31.583 -4.467,2.187 -10.82,4.668 -14.121,5.516 -5.924,1.522 -25.646,2.758 -30.502,1.912 z"
          id="path1631"/>

    <path d="m 748.72928,538.36137 c -10.904,-3.007 -21.681,-11.352 -25.89,-20.046 -5.268,-10.882 -4.89,-26.262 0.934,-37.958 3.747,-7.526 9.373,-13.854 44.057,-49.547 15.231,-15.675 32.377,-33.515 38.101,-39.645 5.724,-6.13 19.551,-20.042 30.728,-30.917 l 20.321,-19.771 -14.386,-14.583 c -7.913,-8.021 -16.111,-16.608 -18.22,-19.083 -2.107,-2.475 -15.354,-16.201 -29.435,-30.501 -27.733,-28.165 -54.908,-57.57 -61.71,-66.774 -9.311,-12.6 -11.519,-26.783 -5.951,-38.23 5.689,-11.699 20.386,-22.75 32.067,-24.114 5.587,-0.652 14.447,1.298 22.921,5.046 6.202,2.743 22.553,17.379 35.42,31.706 8.405,9.359 32.715,35.162 73.628,78.15 l 19.977,20.99 22.428,-22.886 c 12.335,-12.587 27.613,-28.511 33.951,-35.386 6.339,-6.875 23.866,-25.211 38.95102,-40.748 25.166,-25.918 28.025,-28.543 34.687,-31.835 20.372,-10.068 44.18,-2.088 54.11,18.137 2.597,5.288 2.911,6.94 2.845,14.946 -0.086,10.269 -2.289,17.201 -7.689,24.187 -7.846,10.151 -22.846,26.55 -44.954,49.146 -13.095,13.384 -28.937,30.034 -35.204,37 -6.268,6.967 -18.62102,19.846 -27.45202,28.62 l -16.056,15.954 31.715,32.358 c 17.44302,17.797 45.93402,46.843 63.31202,64.547 33.094,33.712 36.701,38.182 40.921,50.688 4.602,13.641 0.956,28.304 -10.025,40.319 -9.512,10.407 -25.097,14.273 -39.68,9.845 -8.506,-2.584 -13.734,-6.246 -22.812,-15.979 -17.31,-18.559 -56.35702,-59.069 -70.54102,-73.185 -8.566,-8.524 -17.946,-18.425 -20.843,-22 -2.897,-3.574 -10.041,-11.314 -15.874,-17.198 l -10.606,-10.699 -7.067,6.542 c -3.888,3.599 -14.943,14.806 -24.568,24.905 -9.625,10.101 -27.625,28.964 -40,41.919 -12.375,12.956 -29.168,30.638 -37.317,39.294 -15.755,16.732 -24.407,23.57 -33.547,26.512 -6.195,1.99 -14.628,2.1 -21.247,0.274 z"
          id="path1633"/>

    <linearGradient id="SVGID_1_"
                    gradientUnits="userSpaceOnUse"
                    x1="175.9888"
                    y1="308.80661"
                    x2="28.6392"
                    y2="482.3537">
        <stop offset="0"
              style="stop-color:#007DE3"
              id="stop1635"/>
        <stop offset="1"
              style="stop-color:#0079DF"
              id="stop1637"/>
    </linearGradient>

    <path d="m 22.337278,500.82037 c -1.65,-0.521 -5.459,-2.423 -8.464,-4.228 -13.0970005,-7.867 -16.8820004,-25.534 -11.5200004,-53.782 2.828,-14.896 11.4070004,-36.962 21.1900004,-54.499 10.415,-18.67 13.138,-22.992 18.27,-29 2.818,-3.301 7.239,-9.479 9.824,-13.73 7.08,-11.648 24.265,-32.847 37.188,-45.874 9.698,-9.776 12.724002,-12.185 19.216002,-15.298 12.993,-6.229 24.403,-9.708 33.794,-10.303 7.694,-0.487 9.398,-0.237 17.967,2.637 13.653,4.579 23.971,9.672 37.14,18.331 13.165,8.656 19.976,15.514 24.63,24.8 6.447,12.862 7.679,23.135 4.147,34.582 -4.807,15.577 -7.308,19.02 -31.754,43.719 -23.734,23.978 -46.753,44.155 -60.484,53.015 -4.48,2.891 -11.377,7.701 -15.327,10.688 -16.996,12.859 -50.068002,30.973 -66.319002,36.323 -9.233,3.041 -24.001,4.353 -29.498,2.619 z"
          id="path1640"/>

    <linearGradient id="SVGID_2_"
                    gradientUnits="userSpaceOnUse"
                    x1="337.8848"
                    y1="309.7168"
                    x2="477.41089"
                    y2="491.1839">
        <stop offset="0"
              style="stop-color:#007DE3"
              id="stop1642"/>
        <stop offset="1"
              style="stop-color:#0079DF"
              id="stop1644"/>
    </linearGradient>

    <path d="m 464.83928,499.80237 c -6.908,-1.867 -14.137,-4.965 -37.002,-15.855 -8.564,-4.079 -36.634,-21.411 -49.536,-30.587 -3.83,-2.724 -9.438,-7.257 -12.464,-10.074 -3.024,-2.817 -8.199,-7.18 -11.5,-9.694 -3.3,-2.514 -7.35,-6.013 -9,-7.774 -1.649,-1.762 -7.5,-6.919 -13,-11.458 -18.38,-15.172 -42.304,-41.688 -47.413,-52.547 -2.341,-4.977 -2.584,-6.644 -2.559,-17.5 0.045,-18.832 3.649,-26.728 18.77,-41.128 6.458,-6.15 10.995,-9.342 20.734,-14.586 13.832,-7.449 18.2,-9.198 28.467,-11.396 15.062,-3.226 33.952,-1.146 47,5.173 8.005,3.877 24.495,18.44 39.56,34.937 11.167,12.229 36.506,45.913 43.255,57.5 8.702,14.939 21.233,41.365 24.946,52.604 4.881,14.776 6.053,21.709 6.154,36.395 0.083,12.177 -0.002,12.686 -3.269,19.655 -1.845,3.935 -4.771,8.524 -6.5,10.198 -7.749,7.498 -22.481,9.966 -36.643,6.137 z"
          id="path1647"/>
    <path d="m 1789.5213,444.69537 c -13.731,-1.637 -38.071,-8.436 -49.107,-13.717 -43.797,-20.957 -73.176,-58.042 -82.595,-104.259 -2.574,-12.63 -2.794,-42.37 -0.407,-55.047 2.115,-11.235 9.842,-34.819 14.064,-42.931 1.882,-3.614 9.001,-13.586 15.821,-22.161 12.826,-16.125 22.04,-24.95 34.995,-33.516 8.958,-5.923 32.808,-16.511 43.126,-19.146 10.684,-2.728 28.157,-4.322 43.919,-4.007 7.15,0.143 28.413,0.179 47.25,0.08 l 34.25,-0.18 0.01,-46.75 c 0,-27.378 0.438,-49.443 1.044,-53.25 5.192,-32.559 39.555,-45.3869973 63.525,-23.715 5.689,5.143 10.767,13.824 12.432,21.254 1.248,5.569 1.689,55.561 2.117,240.041 l 0.276,119.08 -2.712,5.541 c -3.141,6.421 -7.165,9.584 -17.592,13.827 -12.562,5.112 -39.025,11.832 -61.599,15.641 l -22,3.713 -34.5,0.218 c -18.974,0.118 -38.017,-0.204 -42.315,-0.716 z m 82.979,-76.883 h 17.337 v -71.563 -71.562 l -46.75,0.368 c -52.696,0.415 -51.864,0.313 -67.75,8.246 -11.287,5.637 -18.172,11.255 -25.141,20.519 -10.804,14.362 -14.842,25.534 -14.814,40.992 0.034,19.556 6.701,37.374 18.236,48.74 13.389,13.192 20.979,17.495 39.456,22.36 l 11.263,2.967 25.413,-0.533 c 13.977,-0.294 33.214,-0.534 42.75,-0.534 z"
          id="path1649"/>

    <path d="m 1304.8123,435.76537 c -3.011,-3.876 -6.922,-8.938 -8.691,-11.25 -4.552,-5.945 -25.239,-34.232 -34.159,-46.703 -9.562,-13.37 -18.983,-26.33 -37.803,-52 -8.267,-11.275 -20.186,-27.925 -26.487,-37 -14.038,-20.216 -26.836,-37.737 -35.791,-49 -9.472,-11.913 -22.418,-31.798 -25.193,-38.694 -1.874,-4.658 -2.337,-7.685 -2.343,-15.306 -0.01,-8.328 0.34,-10.241 2.801,-15.5 3.453,-7.38 10.664,-14.376 19.098,-18.528 12.504,-6.156 28.016,-4.656 39.069,3.777 6.316,4.819 15.901,16.235 22.722,27.061 7.707,12.234 14.775,22.784 43.01,64.189 27.959,41.002 33.802,49.407 36.037,51.844 1.34,1.46 4.605,5.581 7.258,9.156 2.652,3.575 5.138,6.865 5.521,7.311 0.595,0.689 8.329,-9.105 11.478,-14.535 0.551,-0.948 5.726,-8.287 11.5,-16.308 14.138,-19.636 31.271,-43.768 32.5,-45.777 1.031,-1.684 1.6,-2.516 19.657,-28.804 5.899,-8.587 13.168,-19.683 16.152,-24.657 7.517,-12.529 19.683,-27.374 25.482,-31.096 10.447,-6.704 21.812,-8.082 34.395,-4.171 10.325,3.209 20.238,12.218 23.894,21.712 3.799,9.868 2.781,22.745 -2.643,33.452 -4.571,9.023 -27.012,40.824 -50.494,71.557 -5.806,7.599 -15.448,21.017 -21.427,29.817 -5.979,8.8 -13.21,18.925 -16.07,22.5 -2.86,3.575 -8.294,10.865 -12.073,16.201 -11.693,16.507 -71.35,97.799 -71.769,97.799 -0.088,-10e-4 -2.621,-3.172 -5.631,-7.047 z"
          id="path1651"/>

    <path d="m 1555.1633,441.76737 c -10.657,-2.107 -21.868,-10.023 -26.658,-18.824 -5.831,-10.715 -5.844,-10.961 -5.493,-110.131 0.422,-119.101 0.828,-134.743 3.699,-142.143 2.849,-7.34 9.76,-13.832 19.808,-18.604 6.33,-3.006 9.03,-3.702 15.73,-4.052 6.937,-0.363 8.967,-0.066 14.26,2.086 13.596,5.527 19.644,12.292 23.512,26.299 2.164,7.835 2.192,8.973 2.817,113.914 0.348,58.299 0.274,108.76 -0.163,112.133 -1.319,10.164 -5.385,21.478 -9.406,26.176 -9.532,11.134 -23.648,16.004 -38.106,13.146 z"
          id="path1653"/>

    <linearGradient id="SVGID_3_"
                    gradientUnits="userSpaceOnUse"
                    x1="178.6812"
                    y1="190.1758"
                    x2="29.759899"
                    y2="24.1527">
        <stop offset="0"
              style="stop-color:#0087ED"
              id="stop1655"/>
        <stop offset="1"
              style="stop-color:#0091F7"
              id="stop1657"/>
    </linearGradient>

    <path d="m 129.33728,220.77837 c -8.688,-1.768 -24.621,-10.402 -35.125002,-19.036 -7.197,-5.915 -22.264,-23.416 -34.271,-39.807 -4.182,-5.709 -10.979,-14.939 -15.104,-20.511 -4.125,-5.572 -8.371,-12.151 -9.434,-14.622 -1.064,-2.471 -4.523,-9.217 -7.687,-14.992 -6.866,-12.534 -20.0090004,-45.369 -23.0940004,-57.698 -3.192,-12.755 -3.18,-29.822 0.026,-36.801 4.18,-9.0999973 11.0390004,-14.0989973 22.6280004,-16.49299727 7.756,-1.603 12.151,-0.911 28.989,4.56199997 15.954,5.1859973 26.782,10.3469973 37.572,17.9069973 4.125,2.89 10.875002,7.156 15.000002,9.479 4.125,2.323 10.425,6.585 14,9.47 3.575,2.885 8.3,6.381 10.5,7.77 2.2,1.389 7.217,5.176 11.148,8.415 3.932,3.24 10.907,8.589 15.5,11.888 4.851,3.483 18.107,15.707 31.624,29.158 21.441,21.338 23.539,23.739 26.657,30.503 4.969,10.78 6.885,18.31 6.983,27.444 0.084,7.832 -0.086,8.451 -5.093,18.5 -6.093,12.229 -9.335,15.818 -23.833,26.383 -16.389,11.944 -24.602,15.834 -38.92,18.436 -6.765,1.229 -22.124,1.254 -28.066,0.045 z"
          id="path1660"/>

    <linearGradient id="SVGID_4_"
                    gradientUnits="userSpaceOnUse"
                    x1="339.73099"
                    y1="178.3398"
                    x2="492.73959"
                    y2="15.0875">
        <stop offset="0"
              style="stop-color:#0087ED"
              id="stop1662"/>
        <stop offset="1"
              style="stop-color:#0091F7"
              id="stop1664"/>
    </linearGradient>

    <path d="m 355.26828,220.83037 c -18.487,-2.615 -40.769,-14.315 -55.262,-29.018 -12.636,-12.818 -16.798,-23.286 -15.903,-40.001 0.722,-13.487 2.971,-18.008 17.665,-35.5 11.962,-14.242 22.396,-24.224 39.069,-37.378 8.525,-6.726 19.101,-15.273 23.5,-18.995 11.308,-9.564 31.576,-24.63 41,-30.478 4.4,-2.73 11.15,-7.084 15,-9.677 3.851,-2.593 10.825,-6.092 15.5,-7.775 4.676,-1.683 12.698,-4.6879973 17.828,-6.6779973 12.151,-4.71199997 22.613,-6.27099997 32.163,-4.79199997 9.752,1.50899997 14.064,4.60999997 18.266,13.13499727 2.955,5.996 3.274,7.56 3.588,17.589 0.34,10.841 -1.01,26.214 -2.989,34.049 -0.556,2.2 -3.505,8.95 -6.555,15 -3.049,6.05 -7.01,14.6 -8.802,19 -1.793,4.4 -5.675,12.144 -8.629,17.209 -2.953,5.065 -6.944,12.004 -8.87,15.42 -3.913,6.944 -14.563,22.258 -19.729,28.371 -20.3,24.015 -40.536,44.649 -49.626,50.601 -10.007,6.554 -20.636,10.062 -31.642,10.446 -5.227,0.182 -12.235,-0.055 -15.572,-0.528 z"
          id="path1667"/>
</svg>
